<svg width="229" height="60" viewBox="0 0 229 60" fill="none" xmlns="http://www.w3.org/2000/svg">
<path fill-rule="evenodd" clip-rule="evenodd" d="M4.54661 0.118202C4.35999 0.174704 4.10898 0.279624 3.98879 0.351339C3.86859 0.423053 3.60955 0.554834 3.41313 0.644195C3.13871 0.768935 3.08507 0.841344 3.18145 0.956348C3.25046 1.03867 3.39611 1.27154 3.50528 1.47382C3.67911 1.79606 3.67911 1.83552 3.50501 1.79284C3.2702 1.7353 3.36698 1.86725 3.76922 2.15272C3.91896 2.25894 4.05032 2.43497 4.06107 2.54389C4.09319 2.87021 4.28308 3.41707 4.481 3.75339C4.58337 3.92724 4.63237 4.09162 4.5899 4.11874C4.45011 4.20801 4.67566 4.59292 5.02182 4.85553C5.30046 5.06702 5.32509 5.12283 5.15794 5.16377C4.91156 5.2241 4.8842 5.48001 5.12404 5.48001C5.22736 5.48001 5.29025 5.59102 5.28412 5.76252C5.27854 5.91786 5.39016 6.1716 5.53227 6.32642C5.67438 6.48115 5.77267 6.69629 5.75075 6.80451C5.72883 6.91265 5.76109 7.05269 5.82248 7.11571C5.88388 7.17864 5.89776 7.25323 5.85352 7.28157C5.80928 7.30982 5.84127 7.38544 5.92458 7.4496C6.03606 7.53539 6.03579 7.56625 5.92335 7.56625C5.73101 7.56625 5.72053 8.06269 5.91205 8.10346C6.0057 8.12336 5.99155 8.25062 5.87013 8.48011C5.7694 8.67074 5.70093 8.9636 5.71822 9.13093C5.7355 9.29826 5.75442 9.48829 5.76014 9.55322C5.76749 9.6365 5.88102 9.65545 6.14496 9.61737L6.51929 9.56348L6.11093 9.79001C5.85965 9.92944 5.76518 10.0323 5.86536 10.0575C6.02163 10.0969 5.99699 10.9035 5.83038 11.208C5.7939 11.2747 5.8719 11.4054 6.0038 11.4984C6.23289 11.6601 6.23221 11.6728 5.98774 11.7869C5.62606 11.9558 5.65015 12.5232 6.03143 12.8165C6.18076 12.9314 6.18117 12.9797 6.03388 13.093C5.82112 13.2567 5.74054 14.9328 5.94159 15.0122C6.02313 15.0444 6.02027 15.084 5.93411 15.1181C5.81037 15.1669 5.72244 15.6159 5.75742 16.0199C5.76463 16.1036 5.8625 16.172 5.97481 16.172C6.08711 16.172 6.17899 16.2307 6.17899 16.3024C6.17899 16.3741 6.08711 16.4328 5.97481 16.4328C5.71917 16.4328 5.7031 16.7694 5.95588 16.8313C6.23752 16.9003 6.26406 18.0844 5.98406 18.0844C5.85788 18.0844 5.80928 18.1344 5.85747 18.2148C5.90062 18.2865 5.86999 18.3452 5.78941 18.3452C5.62089 18.3452 5.74612 18.6137 5.96487 18.7212C6.06642 18.7711 6.05893 18.8065 5.94077 18.8371C5.72679 18.8925 5.71631 19.1275 5.92784 19.1275C6.02027 19.1275 5.98964 19.1949 5.85338 19.291C5.64471 19.4382 5.64253 19.4679 5.83106 19.5883C5.96432 19.6734 5.98624 19.7335 5.8915 19.7537C5.79036 19.7753 5.81173 19.8912 5.95765 20.1145C6.14414 20.3993 6.14727 20.4688 5.98188 20.633C5.8768 20.7373 5.74884 20.9693 5.69752 21.1485C5.61381 21.4411 5.63369 21.4745 5.89164 21.4745C6.20608 21.4745 6.24269 21.5363 6.04572 21.7353C5.95343 21.8286 5.97821 21.8794 6.13257 21.914C6.32845 21.9579 6.32791 21.9755 6.12658 22.104C6.00448 22.182 5.96065 22.2679 6.02898 22.2948C6.21166 22.3669 6.04287 22.6915 5.82276 22.6915C5.58509 22.6915 5.58672 22.7086 5.85883 23.073C6.06723 23.352 6.06723 23.3838 5.8591 23.5166C5.68269 23.6293 5.66676 23.6977 5.78451 23.838C5.89831 23.9739 5.89504 24.001 5.77062 23.9519C5.64471 23.9022 5.64335 23.9305 5.76463 24.0751C5.85107 24.1783 5.87816 24.3493 5.8248 24.4551C5.77144 24.5608 5.71277 24.7634 5.69467 24.9052C5.67643 25.0471 5.59421 25.1775 5.51185 25.195C5.29733 25.2407 5.32727 25.3913 5.58754 25.5749C5.7973 25.723 5.79703 25.7339 5.58495 25.7339C5.4099 25.7339 5.37682 25.7843 5.44243 25.9512C5.49511 26.0851 5.46993 26.1686 5.37696 26.1686C5.29406 26.1686 5.22614 26.2859 5.22614 26.4293C5.22614 26.5728 5.278 26.6901 5.34129 26.6901C5.40473 26.6901 5.34551 26.8955 5.2098 27.1465C4.95539 27.6172 4.98819 28.1487 5.27977 28.2782C5.38254 28.3238 5.35259 28.383 5.18584 28.4645C5.01161 28.5497 4.96642 28.6477 5.02849 28.8056C5.0764 28.9275 5.06973 29.0747 5.01365 29.1327C4.95757 29.1906 4.89931 29.4745 4.8842 29.7637C4.86841 30.066 4.79068 30.3033 4.70111 30.3224C4.61549 30.3406 4.54553 30.4478 4.54553 30.5604C4.54553 30.6732 4.48849 30.7879 4.41893 30.8154C4.28063 30.87 4.30187 31.2027 4.45364 31.3596C4.50605 31.4137 4.47229 31.5655 4.37864 31.6967C4.24143 31.8891 4.24225 31.9426 4.38259 31.9725C4.51435 32.0005 4.51912 32.0386 4.40205 32.1287C4.31684 32.1942 4.22292 32.4349 4.19324 32.6635C4.1083 33.3167 4.03793 33.5827 3.88302 33.8369C3.77045 34.0214 3.78297 34.101 3.94006 34.2014C4.10994 34.3098 4.11184 34.3405 3.9519 34.3999C3.64631 34.5133 3.60302 35.1189 3.86791 35.5739C4.09605 35.9657 4.09564 35.9883 3.85797 36.1257C3.53115 36.3145 3.2732 36.7736 3.49399 36.7736C3.58151 36.7736 3.51713 36.8345 3.35079 36.9089C3.00612 37.0631 2.94705 37.2952 3.25237 37.2952C3.51223 37.2952 3.51032 37.4447 3.24611 37.7681C3.12714 37.9139 3.03076 38.2691 3.02205 38.5939C3.01116 39.0069 2.94691 39.1926 2.78928 39.2674C2.59299 39.3606 2.5979 39.3831 2.84033 39.4977C3.0667 39.6048 3.08439 39.6568 2.95304 39.829C2.69522 40.167 2.616 40.5114 2.79609 40.5114C2.88484 40.5114 2.9171 40.5372 2.86783 40.5686C2.81855 40.6001 2.85203 40.6826 2.94215 40.7519C3.07269 40.8524 3.05867 40.9001 2.87286 40.9868C2.74477 41.0467 2.63982 41.1575 2.63982 41.233C2.63982 41.3087 2.58891 41.3905 2.52684 41.4151C2.39712 41.4663 2.42733 42.0856 2.57789 42.4591C2.65085 42.6404 2.62267 42.7387 2.47811 42.8068C2.20641 42.9351 2.06661 43.5213 2.2742 43.6619C2.46858 43.7934 2.52194 44.0754 2.35247 44.0754C2.2859 44.0754 2.23146 44.1341 2.23146 44.2058C2.23146 44.2775 2.13808 44.3362 2.02401 44.3362C1.84677 44.3362 1.82432 44.4883 1.86964 45.3814C1.89864 45.9564 1.87767 46.4444 1.82282 46.466C1.6675 46.5274 1.52553 47.2524 1.48469 48.1929C1.45937 48.7767 1.39158 49.0726 1.27221 49.1197C1.15664 49.1653 1.10518 49.3619 1.12097 49.6963C1.13431 49.9766 1.0653 50.301 0.966748 50.4211C0.843149 50.5718 0.825861 50.7183 0.910257 50.8992C0.977229 51.0426 1.08218 51.2676 1.14357 51.399C1.20796 51.5372 1.20251 51.6381 1.13064 51.6381C1.06231 51.6381 1.00636 51.7506 1.00636 51.8882C1.00636 52.0258 0.907126 52.1909 0.785977 52.2552C0.6097 52.3486 0.581931 52.4726 0.647678 52.8742C0.714786 53.2841 0.692734 53.3766 0.527891 53.3766C0.300568 53.3766 0.252516 53.5983 0.461872 53.6808C0.675855 53.7653 0.620862 54.0718 0.381287 54.1306C0.209502 54.1727 0.18255 54.2607 0.2517 54.5548C0.303018 54.7732 0.282191 54.9481 0.201334 54.9801C0.111086 55.0158 0.108908 55.1098 0.194801 55.2543C0.360325 55.5321 0.361822 55.6612 0.199021 55.597C-0.0552549 55.4966 -0.0699562 55.7063 0.178466 55.8893C0.420082 56.0672 0.425527 56.419 0.186769 56.419C0.0554116 56.419 0.189901 57.1406 0.33242 57.2014C0.388503 57.2253 0.455883 57.3426 0.482154 57.4621C0.51741 57.6224 0.601397 57.6728 0.802176 57.6541C1.02392 57.6335 1.03685 57.6449 0.871463 57.7156C0.694641 57.7913 0.702535 57.8392 0.932717 58.0887C1.0781 58.2461 1.30719 58.4507 1.44195 58.5434C1.57671 58.6361 1.68697 58.7406 1.68697 58.7755C1.68697 58.8106 1.87482 58.8655 2.10459 58.8977C2.33423 58.9299 2.55515 59.0113 2.59558 59.0785C2.64118 59.1545 2.86919 59.2007 3.19887 59.2007C3.49031 59.2007 3.7288 59.2398 3.7288 59.2876C3.7288 59.404 4.36938 59.3992 4.48291 59.282C4.54226 59.2207 4.65347 59.2361 4.81164 59.3275C4.94681 59.4057 5.15004 59.4413 5.27963 59.4096C5.4148 59.3764 5.62184 59.419 5.78532 59.5134C6.07907 59.6832 6.50636 59.7222 6.88532 59.6137C7.01178 59.5775 7.15321 59.5872 7.19963 59.6351C7.33071 59.7706 7.59751 59.7386 7.91563 59.5493C8.18774 59.3875 8.62918 59.3893 8.62918 59.5523C8.62918 59.592 8.73631 59.6276 8.86739 59.6314C11.5634 59.7089 12.4798 59.7133 12.3239 59.6477C12.2103 59.5999 12.1916 59.5494 12.2756 59.5163C12.3507 59.4867 12.4462 59.5192 12.4878 59.5885C12.5376 59.6715 12.7642 59.715 13.1487 59.7157C15.0144 59.7189 15.3442 59.7315 15.5683 59.808C15.7475 59.8694 15.8621 59.8562 15.9872 59.7599C16.082 59.687 16.2397 59.647 16.3379 59.6711C16.436 59.6952 16.61 59.655 16.7245 59.5819C16.839 59.5088 16.933 59.4812 16.9334 59.5205C16.934 59.5597 17.1218 59.66 17.3508 59.7432C17.7374 59.8838 17.7979 59.8845 18.1923 59.7542C18.5167 59.6471 18.6744 59.6367 18.8586 59.7102C18.9912 59.7631 19.1879 59.7847 19.2955 59.7584C19.4032 59.732 19.5319 59.7521 19.5813 59.8033C19.6806 59.9059 20.8905 59.9144 21.4246 59.8162C21.6215 59.78 22.0519 59.8079 22.4455 59.8822C23.0141 59.9895 23.8635 60.0199 25.4104 59.988C26.2311 59.9711 25.3396 59.2613 24.374 59.1627C24.0778 59.1324 23.6664 59.0308 23.4598 58.9369C23.0491 58.7501 22.7858 58.7174 22.7858 58.853C22.7858 58.9778 22.4692 58.9602 22.0187 58.81C21.8043 58.7387 21.5318 58.68 21.4133 58.6796C21.2948 58.6794 21.1518 58.6498 21.0956 58.6139C21.0395 58.5781 20.8302 58.54 20.6306 58.5293C20.4309 58.5186 20.0073 58.4851 19.6891 58.4549C19.1986 58.4084 19.1106 58.423 19.1106 58.5502C19.1106 58.6584 19.0629 58.6763 18.9404 58.6142C18.3669 58.3235 16.7965 58.2826 16.7965 58.5584C16.7965 58.7188 16.659 58.7112 16.463 58.54C16.3753 58.4634 16.1103 58.391 15.874 58.3791C15.6377 58.3672 15.3458 58.3053 15.2252 58.2414C15.0842 58.1667 14.9734 58.1565 14.9145 58.2129C14.864 58.2612 14.7155 58.3259 14.5845 58.3568C14.4534 58.3877 14.3463 58.4728 14.3463 58.546C14.3463 58.6192 14.285 58.6791 14.2102 58.6791C14.1353 58.6791 14.0741 58.5618 14.0741 58.4183C14.0741 58.1197 13.9083 58.0936 13.2799 58.2938C13.0448 58.3687 12.7869 58.4041 12.7068 58.3725C12.5122 58.2957 11.9078 58.2341 11.4877 58.2483C11.3006 58.2547 11.0556 58.2572 10.9433 58.2539C10.6688 58.246 8.63639 58.2636 8.26614 58.2772C7.94435 58.2889 7.65332 58.4183 7.94857 58.4183C8.04835 58.4183 8.09586 58.4402 8.05393 58.4669C8.012 58.4937 7.74235 58.435 7.45472 58.3365C6.77833 58.1051 6.53413 58.105 6.62887 58.3364C6.68413 58.4714 6.66072 58.4933 6.53358 58.426C6.44102 58.3769 6.00176 58.3099 5.55746 58.277C5.11315 58.2442 4.61794 58.1629 4.45705 58.0962C4.22033 57.9983 4.15241 57.9967 4.10204 58.088C4.05399 58.1754 3.9406 58.1646 3.60261 58.0405C3.36222 57.9521 3.12931 57.903 3.08494 57.9312C3.0407 57.9595 2.91901 57.9046 2.81446 57.8093C2.70992 57.714 2.55134 57.6348 2.46191 57.6333C2.2241 57.6293 1.8804 57.2879 1.7779 56.9541C1.70303 56.7102 1.73243 56.6559 1.96003 56.6179C2.29884 56.5613 2.2987 56.5008 1.95921 56.1148C1.80948 55.9446 1.69132 55.7575 1.6965 55.6993C1.70181 55.6409 1.7587 55.6715 1.82309 55.7671L1.94002 55.9409L1.97037 55.7671C1.98698 55.6715 2.00822 55.5541 2.01761 55.5063C2.02686 55.4585 2.0937 55.3607 2.16598 55.289C2.23826 55.2173 2.30932 54.963 2.32375 54.724C2.33831 54.4849 2.39058 54.1473 2.43999 53.9736C2.49553 53.7784 2.4728 53.6355 2.38065 53.599C2.17823 53.5192 2.19171 53.3766 2.40161 53.3765C2.52548 53.3764 2.58142 53.1119 2.60715 52.4045C2.63465 51.6475 2.69209 51.3976 2.86646 51.2745C3.026 51.162 3.04002 51.1165 2.91533 51.1165C2.73728 51.1165 2.74286 51.07 3.0279 50.1852C3.10359 49.9502 3.09705 49.8085 3.00953 49.7899C2.92159 49.7711 2.92826 49.6949 3.02818 49.5757C3.11352 49.4739 3.14606 49.3286 3.10059 49.2528C3.05499 49.177 3.08303 49.0648 3.16267 49.0034C3.24243 48.942 3.30872 48.8155 3.30995 48.722C3.31335 48.4699 3.47711 47.9562 3.58573 47.8568C3.73832 47.717 3.74431 47.2212 3.59417 47.1619C3.51849 47.132 3.45655 46.9535 3.45655 46.765C3.45655 46.5766 3.39162 46.4225 3.3124 46.4225C3.23318 46.4225 3.20677 46.3827 3.25373 46.3341C3.30083 46.2856 3.39625 46.2683 3.46594 46.2958C3.74023 46.404 3.57389 46.0762 3.29007 45.9493C2.98176 45.8114 3.08017 45.773 3.6444 45.8114C3.85253 45.8254 3.88438 45.7885 3.81551 45.6131C3.75629 45.4624 3.794 45.382 3.94074 45.346C4.09891 45.3072 4.14342 45.1817 4.12083 44.8371C4.10449 44.5855 4.02486 44.3509 3.94387 44.3158C3.84423 44.2726 3.85171 44.2516 3.96701 44.2506C4.06066 44.2499 4.13716 44.1515 4.13716 44.032C4.13716 43.9125 4.07591 43.8147 4.00104 43.8147C3.92617 43.8147 3.86492 43.7518 3.86492 43.675C3.86492 43.594 3.94155 43.5541 4.04718 43.58C4.18548 43.6139 4.2368 43.4964 4.25953 43.0945C4.27601 42.8029 4.33005 42.523 4.37959 42.4724C4.5424 42.3063 4.56799 42.1322 4.59167 41.033C4.60719 40.3111 4.6762 39.8777 4.79708 39.7415C4.92381 39.5989 4.93579 39.5089 4.83669 39.4456C4.73923 39.3834 4.73814 39.3026 4.83356 39.1888C4.91006 39.0975 4.95539 38.9176 4.93429 38.7892C4.91319 38.6606 4.94572 38.5041 5.00657 38.4411C5.06742 38.3782 5.08103 38.3036 5.03679 38.2753C4.99255 38.247 5.01855 38.176 5.09464 38.1174C5.1917 38.0427 5.17604 37.9969 5.04237 37.9642C4.8876 37.9263 4.88039 37.8587 5.00412 37.6063C5.08797 37.4352 5.20286 37.2952 5.25948 37.2952C5.43903 37.2952 5.37042 37.1142 5.13371 36.963C4.91986 36.8264 4.91986 36.8152 5.13371 36.789C5.25948 36.7735 5.36226 36.6867 5.36226 36.5961C5.36226 36.4854 5.29529 36.4477 5.15807 36.4814C5.04577 36.5089 4.95389 36.5072 4.95389 36.4774C4.95389 36.4007 5.26411 36.0624 5.45918 35.9265C5.57665 35.8447 5.58563 35.7467 5.49035 35.5866C5.40745 35.4474 5.40473 35.3242 5.483 35.2635C5.64498 35.1379 5.7973 34.2777 5.66581 34.2302C5.61122 34.2105 5.64988 34.2079 5.7517 34.2245C5.88932 34.2469 5.91355 34.195 5.8459 34.0229C5.78668 33.8721 5.81704 33.7655 5.93288 33.7177C6.05525 33.6672 6.06519 33.6238 5.96487 33.579C5.86128 33.5328 5.86713 33.3019 5.98488 32.7852C6.14115 32.1 6.14891 31.871 6.02599 31.558C5.99781 31.4863 6.04913 31.4369 6.14006 31.4483C6.23562 31.4603 6.2725 31.4144 6.22758 31.3396C6.18484 31.2685 6.21765 31.2103 6.30055 31.2103C6.39352 31.2103 6.45123 31.016 6.45123 30.7033C6.45123 30.4243 6.4971 30.1668 6.55332 30.1309C6.60941 30.0951 6.66903 29.805 6.68577 29.4863C6.70238 29.1675 6.74199 28.5254 6.7737 28.0592C6.80542 27.593 6.77792 27.2117 6.71272 27.2117C6.58885 27.2117 6.80733 26.7706 6.97026 26.6919C7.35739 26.5047 7.4275 26.0275 7.10652 25.7641C7.02988 25.7012 7.04989 25.6446 7.16015 25.612C7.29913 25.5709 7.30036 25.5495 7.16587 25.5094C6.93664 25.4411 6.95093 25.2142 7.19514 25.0419C7.3676 24.9201 7.36869 24.8693 7.20317 24.6656C7.09795 24.536 7.0695 24.43 7.13987 24.43C7.30839 24.43 7.30635 23.4124 7.13783 23.3458C6.99027 23.2875 7.10748 23.0266 7.32228 22.9352C7.40939 22.8981 7.37142 22.8519 7.22427 22.8158C6.99994 22.7609 6.99899 22.7463 7.21011 22.5973C7.47677 22.4092 7.37441 21.9961 7.06119 21.9961C6.95025 21.9961 6.8596 21.9582 6.8596 21.9118C6.8596 21.8656 6.94358 21.8483 7.04622 21.8734C7.14886 21.8985 7.26946 21.8582 7.31424 21.7837C7.36502 21.699 7.32064 21.6484 7.19568 21.6484C6.94821 21.6484 6.94794 21.5655 7.19486 21.3573C7.31329 21.2576 7.34664 21.1298 7.28294 21.0198C7.22658 20.9225 7.22576 20.6623 7.28103 20.4416C7.33629 20.2209 7.34936 19.9523 7.31002 19.8446C7.27069 19.737 7.29995 19.6491 7.37495 19.6491C7.46234 19.6491 7.47038 19.5324 7.39714 19.3253C7.31724 19.0988 7.33167 18.9816 7.4456 18.9355C7.56879 18.8854 7.56634 18.8691 7.43553 18.868C7.32173 18.8671 7.29056 18.796 7.34419 18.6595C7.38897 18.5456 7.3627 18.3069 7.28593 18.1291C7.1901 17.9077 7.19051 17.6529 7.28702 17.3193C7.41143 16.8899 7.39946 16.8194 7.18574 16.7197C7.0469 16.6549 7.01573 16.6066 7.11251 16.6066C7.22835 16.6066 7.27177 16.4716 7.25081 16.1776C7.23393 15.9416 7.28566 15.6971 7.36597 15.6343C7.52401 15.5105 7.48576 14.8503 7.30213 14.5333C7.23883 14.4242 7.24618 14.1132 7.31874 13.8333C7.48725 13.1821 7.38707 13.0046 6.89526 13.0835L6.52515 13.1429L6.91282 12.9134C7.48916 12.5724 7.57492 12.1936 7.18683 11.7047C6.93487 11.3871 6.91023 11.3041 7.06841 11.3041C7.30118 11.3041 7.33534 11.0342 7.12 10.8967C7.01341 10.8286 7.01341 10.7858 7.12 10.7438C7.33589 10.6585 7.30077 10.3813 7.05412 10.2237C6.8596 10.0996 6.8596 10.0871 7.05412 10.0871C7.28797 10.0871 7.35195 9.85868 7.13116 9.81174C7.05561 9.79566 6.99531 9.49124 6.9964 9.13076C6.99749 8.77227 6.99436 8.42031 6.98946 8.34859C6.92493 7.4083 6.86736 7.11423 6.68046 6.76809C6.55972 6.54425 6.43748 6.18855 6.40917 5.97767C6.38072 5.76678 6.32246 5.55798 6.27958 5.51365C6.2367 5.46941 6.20172 5.24453 6.20172 5.014C6.20172 4.50713 5.95384 4.08971 5.65206 4.08788C5.52043 4.0871 5.48749 4.06059 5.57093 4.02269C5.84263 3.89934 5.72148 3.40559 5.3824 3.25391C5.1431 3.1469 5.10648 3.09327 5.23757 3.04154C5.38023 2.98522 5.37995 2.94706 5.23566 2.83605C5.1382 2.76112 5.04414 2.57231 5.02672 2.41654C5.00535 2.22687 4.90121 2.10587 4.71119 2.05006C4.48345 1.98313 4.44344 1.91463 4.50809 1.70235C4.55247 1.55692 4.64013 1.42488 4.70302 1.40898C4.76591 1.39307 4.77966 1.28432 4.73365 1.16732C4.65265 0.961216 4.66763 0.956348 5.21035 1.01172C5.68323 1.06005 5.77062 1.0458 5.77062 0.920187C5.77062 0.838389 5.69412 0.788927 5.60047 0.810225C5.42297 0.850732 4.68165 0.64576 4.68165 0.556312C4.68165 0.528061 4.82635 0.522584 5.00317 0.544142C5.33694 0.584911 5.6345 0.392194 5.6345 0.135239C5.6345 -0.0237497 5.0455 -0.0329638 4.54661 0.118202ZM5.80384 0.322218C5.85407 0.802314 6.43109 1.1701 6.63377 0.851167C6.68727 0.766848 6.73178 0.769021 6.83278 0.86099C6.94249 0.961042 6.97353 0.961042 7.03166 0.86099C7.08433 0.770499 7.14872 0.782495 7.3039 0.911494C7.49488 1.07031 7.52768 1.07196 7.84566 0.938963C8.10647 0.829783 8.22109 0.820917 8.34537 0.900281C8.55976 1.03719 9.424 1.03484 9.50676 0.897064C9.55168 0.82222 9.68576 0.8556 9.93717 1.00451C10.37 1.26068 10.4802 1.27181 10.5716 1.06848C10.6093 0.984773 10.6815 0.852558 10.732 0.774585C10.8454 0.599515 10.2399 0.437657 9.24173 0.376026C8.86739 0.352903 8.50286 0.298835 8.4318 0.255807C8.36075 0.212691 8.17385 0.177485 8.01663 0.177485C7.85941 0.177485 7.65727 0.130545 7.56743 0.0731735C7.44043 -0.0079291 7.40218 0.0161499 7.39551 0.181832L7.3868 0.394802L7.26374 0.199217C7.13429 -0.00627744 6.55809 -0.081469 6.59756 0.112291C6.68495 0.542143 6.3294 0.671316 6.17899 0.264412C6.04668 -0.0933779 5.76491 -0.0500015 5.80384 0.322218ZM10.3988 0.348296C10.3988 0.394367 10.5213 0.473992 10.671 0.525192C10.9017 0.604035 10.9433 0.591257 10.9433 0.441308C10.9433 0.322393 10.8541 0.264412 10.671 0.264412C10.5213 0.264412 10.3988 0.302138 10.3988 0.348296ZM11.1819 0.424096C11.1451 0.513891 11.1713 0.651671 11.24 0.730165C11.3324 0.83552 11.3098 0.872899 11.1542 0.872899C10.9076 0.872899 10.8953 0.914102 11.0776 1.13159C11.2077 1.28684 11.6102 1.28928 11.9642 1.1369C12.2139 1.02937 12.849 1.04467 12.849 1.15819C12.849 1.29945 14.4943 1.50859 14.6787 1.39081C14.8765 1.2645 15.3807 1.29119 15.5714 1.43792C15.798 1.6123 15.9788 1.60273 15.9841 1.41619C15.9882 1.27128 15.997 1.27128 16.1692 1.41619C16.2762 1.50616 16.5308 1.56831 16.7925 1.56831H17.2351L16.9137 1.38785C16.7369 1.28858 16.6658 1.23104 16.7557 1.2599C16.934 1.31727 17.2612 1.00146 17.1465 0.882808C17.0318 0.764414 16.1544 0.704087 15.7155 0.784494C15.2146 0.876202 14.7502 0.807617 14.8416 0.655408C14.9233 0.519455 13.9702 0.503808 13.6997 0.636719C13.5886 0.691309 13.4652 0.686267 13.3443 0.622202C13.2425 0.568221 12.8115 0.508328 12.3865 0.489117C11.9616 0.469994 11.5317 0.41071 11.4314 0.357511C11.291 0.283101 11.2333 0.298574 11.1819 0.424096ZM7.04268 0.572393C6.99831 0.646194 6.93283 0.687919 6.89717 0.665144C6.8615 0.642369 6.87266 0.581955 6.92208 0.531016C7.05629 0.392281 7.1347 0.419228 7.04268 0.572393ZM8.22081 0.612119C8.22081 0.659928 8.19522 0.699045 8.16392 0.699045C8.13261 0.699045 8.00942 0.72295 7.89004 0.752158C7.73132 0.791101 7.69579 0.767804 7.75746 0.665231C7.84879 0.513196 8.22081 0.470515 8.22081 0.612119ZM12.4406 0.612119C12.4406 0.659928 12.4136 0.699045 12.3806 0.699045C12.3475 0.699045 12.2827 0.659928 12.2364 0.612119C12.1901 0.564309 12.2172 0.525192 12.2964 0.525192C12.3757 0.525192 12.4406 0.564309 12.4406 0.612119ZM18.5661 1.02293C18.4538 1.05006 18.3162 1.12151 18.2601 1.18184C18.1411 1.30997 17.6177 1.24616 17.6037 1.10178C17.5948 1.01163 17.3727 1.27876 17.3505 1.40602C17.3349 1.49651 17.9077 1.58361 18.6601 1.60517C19.0486 1.6163 19.4468 1.66697 19.5449 1.71783C19.8538 1.87812 20.8328 1.83448 21.2131 1.64342C21.7383 1.37959 21.6633 1.22721 21.0163 1.24364C20.7168 1.25129 20.4718 1.29701 20.4718 1.34534C20.4718 1.39368 20.3739 1.34395 20.2544 1.23486C20.0836 1.07918 19.9551 1.04814 19.6548 1.09022C19.4398 1.12038 19.2336 1.1036 19.1835 1.05188C19.088 0.953132 18.8928 0.943918 18.5661 1.02293ZM22.0021 1.39307C21.7525 1.64828 21.7809 1.9474 22.0483 1.88186C22.1668 1.85282 22.3067 1.82909 22.3592 1.82909C22.5095 1.82909 22.4616 1.28215 22.3083 1.24938C22.2329 1.2333 22.095 1.29797 22.0021 1.39307ZM22.8539 1.39446C22.8076 1.44227 22.8653 1.48139 22.982 1.48139C23.0987 1.48139 23.1942 1.5205 23.1942 1.56831C23.1942 1.61612 23.2926 1.65524 23.413 1.65524C23.5566 1.65524 23.6033 1.60795 23.5491 1.51772C23.5036 1.44209 23.4665 1.36386 23.4665 1.34387C23.4665 1.26772 22.9341 1.31162 22.8539 1.39446ZM25.7197 1.474C25.6759 1.51929 25.698 1.57918 25.769 1.60717C25.8399 1.63516 25.9337 1.62099 25.9775 1.5757C26.0213 1.53041 25.9991 1.47052 25.9282 1.44253C25.8573 1.41454 25.7635 1.42871 25.7197 1.474ZM23.8748 1.59517C23.8748 1.65776 23.9655 1.78485 24.0764 1.87768C24.2437 2.01764 24.2995 2.02555 24.4042 1.92375C24.4846 1.84561 24.4738 1.74321 24.3741 1.64124C24.1938 1.45687 23.8748 1.4274 23.8748 1.59517ZM25.0999 1.74217C25.0999 1.78997 25.1648 1.82909 25.2441 1.82909C25.3233 1.82909 25.3504 1.78997 25.3041 1.74217C25.2578 1.69436 25.193 1.65524 25.16 1.65524C25.1269 1.65524 25.0999 1.69436 25.0999 1.74217ZM6.38317 28.6025C6.42945 28.6503 6.40236 28.6894 6.32314 28.6894C6.24392 28.6894 6.17899 28.6503 6.17899 28.6025C6.17899 28.5547 6.20594 28.5156 6.23902 28.5156C6.27209 28.5156 6.33689 28.5547 6.38317 28.6025ZM4.95389 31.9108C4.95389 31.9559 4.89264 31.9926 4.81777 31.9926C4.7429 31.9926 4.68165 31.9316 4.68165 31.8571C4.68165 31.7826 4.7429 31.7458 4.81777 31.7753C4.89264 31.8049 4.95389 31.8658 4.95389 31.9108ZM2.24833 52.0959C2.11385 52.1811 2.09833 52.1711 2.17211 52.0472C2.22329 51.9615 2.29938 51.9133 2.34131 51.94C2.38323 51.9667 2.34144 52.0369 2.24833 52.0959ZM0.597994 56.892C0.597994 56.9131 0.536739 56.9545 0.461872 56.9841C0.387005 57.0136 0.32575 56.9963 0.32575 56.9457C0.32575 56.8951 0.387005 56.8537 0.461872 56.8537C0.536739 56.8537 0.597994 56.8709 0.597994 56.892ZM0.870237 57.1528C0.870237 57.1739 0.808982 57.2153 0.734115 57.2448C0.659248 57.2744 0.597994 57.2571 0.597994 57.2065C0.597994 57.1559 0.659248 57.1144 0.734115 57.1144C0.808982 57.1144 0.870237 57.1316 0.870237 57.1528Z" fill="#FFFEFE"/>
<path fill-rule="evenodd" clip-rule="evenodd" d="M224.453 59.8818C224.64 59.8253 224.891 59.7204 225.011 59.6487C225.131 59.5769 225.39 59.4452 225.587 59.3558C225.861 59.2311 225.915 59.1587 225.819 59.0437C225.75 58.9613 225.604 58.7285 225.495 58.5262C225.321 58.2039 225.321 58.1645 225.495 58.2072C225.73 58.2647 225.633 58.1327 225.231 57.8473C225.081 57.7411 224.95 57.565 224.939 57.4561C224.907 57.1298 224.717 56.5829 224.519 56.2466C224.417 56.0728 224.368 55.9084 224.41 55.8813C224.55 55.792 224.324 55.4071 223.978 55.1445C223.7 54.933 223.675 54.8772 223.842 54.8362C224.088 54.7759 224.116 54.52 223.876 54.52C223.773 54.52 223.71 54.409 223.716 54.2375C223.721 54.0821 223.61 53.8284 223.468 53.6736C223.326 53.5189 223.227 53.3037 223.249 53.1955C223.271 53.0874 223.239 52.9473 223.178 52.8843C223.116 52.8214 223.102 52.7468 223.146 52.7184C223.191 52.6902 223.159 52.6146 223.075 52.5504C222.964 52.4646 222.964 52.4337 223.077 52.4337C223.269 52.4337 223.279 51.9373 223.088 51.8965C222.994 51.8766 223.008 51.7494 223.13 51.5199C223.231 51.3293 223.299 51.0364 223.282 50.8691C223.264 50.7017 223.246 50.5117 223.24 50.4468C223.233 50.3635 223.119 50.3446 222.855 50.3826L222.481 50.4365L222.889 50.21C223.14 50.0706 223.235 49.9677 223.135 49.9425C222.978 49.9031 223.003 49.0965 223.17 48.792C223.206 48.7253 223.128 48.5946 222.996 48.5016C222.767 48.3399 222.768 48.3272 223.012 48.2131C223.374 48.0442 223.35 47.4768 222.969 47.1835C222.819 47.0686 222.819 47.0203 222.966 46.907C223.179 46.7433 223.259 45.0672 223.058 44.9878C222.977 44.9556 222.98 44.916 223.066 44.8819C223.19 44.8331 223.278 44.3841 223.243 43.9801C223.235 43.8964 223.137 43.828 223.025 43.828C222.913 43.828 222.821 43.7693 222.821 43.6976C222.821 43.6259 222.913 43.5672 223.025 43.5672C223.281 43.5672 223.297 43.2306 223.044 43.1687C222.762 43.0997 222.736 41.9156 223.016 41.9156C223.142 41.9156 223.191 41.8656 223.143 41.7852C223.099 41.7135 223.13 41.6548 223.211 41.6548C223.379 41.6548 223.254 41.3863 223.035 41.2788C222.934 41.2289 222.941 41.1935 223.059 41.1629C223.273 41.1075 223.284 40.8725 223.072 40.8725C222.98 40.8725 223.01 40.8051 223.147 40.709C223.355 40.5618 223.357 40.5321 223.169 40.4117C223.036 40.3266 223.014 40.2665 223.109 40.2463C223.21 40.2247 223.188 40.1088 223.042 39.8855C222.856 39.6007 222.853 39.5312 223.018 39.367C223.123 39.2627 223.251 39.0307 223.302 38.8515C223.386 38.5589 223.366 38.5255 223.108 38.5255C222.794 38.5255 222.757 38.4637 222.954 38.2647C223.047 38.1714 223.022 38.1206 222.867 38.086C222.672 38.0421 222.672 38.0245 222.873 37.896C222.996 37.818 223.039 37.7321 222.971 37.7052C222.788 37.6331 222.957 37.3085 223.177 37.3085C223.415 37.3085 223.413 37.2914 223.141 36.927C222.933 36.648 222.933 36.6162 223.141 36.4834C223.317 36.3707 223.333 36.3023 223.215 36.162C223.102 36.0261 223.105 35.999 223.229 36.0481C223.355 36.0978 223.357 36.0695 223.235 35.9249C223.149 35.8217 223.122 35.6507 223.175 35.5449C223.229 35.4392 223.287 35.2366 223.305 35.0948C223.324 34.9529 223.406 34.8225 223.488 34.805C223.703 34.7593 223.673 34.6087 223.412 34.4251C223.203 34.277 223.203 34.2661 223.415 34.2661C223.59 34.2661 223.623 34.2157 223.558 34.0488C223.505 33.9149 223.53 33.8314 223.623 33.8314C223.706 33.8314 223.774 33.7141 223.774 33.5707C223.774 33.4272 223.722 33.3099 223.659 33.3099C223.595 33.3099 223.654 33.1045 223.79 32.8535C224.045 32.3828 224.012 31.8513 223.72 31.7218C223.617 31.6762 223.647 31.617 223.814 31.5355C223.988 31.4503 224.034 31.3523 223.972 31.1944C223.924 31.0725 223.93 30.9253 223.986 30.8673C224.042 30.8094 224.101 30.5255 224.116 30.2363C224.132 29.934 224.209 29.6967 224.299 29.6776C224.385 29.6594 224.454 29.5522 224.454 29.4396C224.454 29.3268 224.512 29.2121 224.581 29.1846C224.719 29.13 224.698 28.7973 224.546 28.6404C224.494 28.5863 224.528 28.4345 224.621 28.3033C224.759 28.1109 224.758 28.0574 224.617 28.0275C224.486 27.9995 224.481 27.9614 224.598 27.8713C224.683 27.8058 224.777 27.5651 224.807 27.3365C224.892 26.6833 224.962 26.4173 225.117 26.1631C225.23 25.9786 225.217 25.899 225.06 25.7986C224.89 25.6902 224.888 25.6595 225.048 25.6001C225.354 25.4867 225.397 24.8811 225.132 24.4261C224.904 24.0343 224.904 24.0117 225.142 23.8743C225.469 23.6855 225.727 23.2264 225.506 23.2264C225.418 23.2264 225.483 23.1655 225.649 23.0911C225.994 22.9369 226.053 22.7048 225.748 22.7048C225.488 22.7048 225.49 22.5553 225.754 22.2319C225.873 22.0861 225.969 21.7309 225.978 21.4061C225.989 20.9931 226.053 20.8074 226.211 20.7326C226.407 20.6394 226.402 20.6169 226.16 20.5023C225.933 20.3952 225.916 20.3432 226.047 20.171C226.305 19.833 226.384 19.4886 226.204 19.4886C226.115 19.4886 226.083 19.4628 226.132 19.4314C226.181 19.3999 226.148 19.3174 226.058 19.2481C225.927 19.1476 225.941 19.0999 226.127 19.0132C226.255 18.9533 226.36 18.8425 226.36 18.767C226.36 18.6913 226.411 18.6095 226.473 18.5849C226.603 18.5337 226.573 17.9144 226.422 17.5409C226.349 17.3596 226.377 17.2613 226.522 17.1932C226.794 17.0649 226.933 16.4787 226.726 16.3381C226.531 16.2066 226.478 15.9246 226.648 15.9246C226.714 15.9246 226.769 15.8659 226.769 15.7942C226.769 15.7225 226.862 15.6638 226.976 15.6638C227.153 15.6638 227.176 15.5117 227.13 14.6186C227.101 14.0436 227.122 13.5556 227.177 13.534C227.332 13.4726 227.474 12.7476 227.515 11.8071C227.541 11.2233 227.608 10.9274 227.728 10.8803C227.843 10.8347 227.895 10.6381 227.879 10.3037C227.866 10.0234 227.935 9.69896 228.033 9.57891C228.157 9.42818 228.174 9.28171 228.09 9.10081C228.023 8.95739 227.918 8.73242 227.856 8.60099C227.792 8.46277 227.797 8.36194 227.869 8.36194C227.938 8.36194 227.994 8.24937 227.994 8.11176C227.994 7.97425 228.093 7.80909 228.214 7.74485C228.39 7.6514 228.418 7.52744 228.352 7.12575C228.285 6.71589 228.307 6.62341 228.472 6.62341C228.699 6.62341 228.747 6.40174 228.538 6.31916C228.324 6.23467 228.379 5.92817 228.619 5.8694C228.79 5.82733 228.817 5.73927 228.748 5.4452C228.697 5.22684 228.718 5.05186 228.799 5.01987C228.889 4.98423 228.891 4.89017 228.805 4.7457C228.64 4.46788 228.638 4.33879 228.801 4.40303C229.055 4.50343 229.07 4.29368 228.822 4.1107C228.58 3.93285 228.574 3.58097 228.813 3.58097C228.945 3.58097 228.81 2.85939 228.668 2.79863C228.611 2.77473 228.544 2.65738 228.518 2.53785C228.483 2.37756 228.399 2.32723 228.198 2.34592C227.976 2.36652 227.963 2.35513 228.129 2.28437C228.305 2.20866 228.297 2.16076 228.067 1.91129C227.922 1.75395 227.693 1.54932 227.558 1.45657C227.423 1.36391 227.313 1.25942 227.313 1.22448C227.313 1.18945 227.125 1.13451 226.895 1.10226C226.666 1.0701 226.445 0.988731 226.404 0.921539C226.359 0.845478 226.131 0.79932 225.801 0.79932C225.51 0.79932 225.271 0.760201 225.271 0.712391C225.271 0.595997 224.631 0.60078 224.517 0.718044C224.458 0.779327 224.347 0.763943 224.188 0.672493C224.053 0.594349 223.85 0.558704 223.72 0.590435C223.585 0.623554 223.378 0.581043 223.215 0.486557C222.921 0.316788 222.494 0.277847 222.115 0.386333C221.988 0.422493 221.847 0.412842 221.8 0.364944C221.669 0.229427 221.402 0.261417 221.084 0.450657C220.812 0.612514 220.371 0.610691 220.371 0.447704C220.371 0.407978 220.264 0.372421 220.133 0.368595C217.437 0.291058 216.52 0.286713 216.676 0.352257C216.79 0.400066 216.808 0.450573 216.724 0.483692C216.649 0.513332 216.554 0.480824 216.512 0.411453C216.462 0.328526 216.236 0.284977 215.851 0.284279C213.986 0.281063 213.656 0.268459 213.432 0.191963C213.252 0.130592 213.138 0.143806 213.013 0.24012C212.918 0.312965 212.76 0.352951 212.662 0.328873C212.564 0.304794 212.39 0.344955 212.276 0.41806C212.161 0.491165 212.067 0.518806 212.067 0.479515C212.066 0.440311 211.878 0.339996 211.649 0.256809C211.263 0.116249 211.202 0.115471 210.808 0.245773C210.483 0.352867 210.326 0.363293 210.141 0.289841C210.009 0.2369 209.812 0.21526 209.704 0.241596C209.597 0.268021 209.468 0.247856 209.419 0.196743C209.319 0.0940819 208.11 0.0855637 207.575 0.183792C207.379 0.219955 206.948 0.192135 206.554 0.117813C205.986 0.0104561 205.136 -0.0198784 203.59 0.0120239C202.769 0.0288887 203.66 0.738731 204.626 0.837307C204.922 0.867558 205.334 0.969173 205.54 1.06314C205.951 1.24986 206.214 1.28263 206.214 1.14703C206.214 1.0222 206.531 1.03985 206.981 1.18997C207.196 1.26134 207.468 1.32001 207.587 1.32036C207.705 1.32062 207.848 1.35017 207.904 1.38607C207.96 1.42189 208.17 1.46005 208.369 1.47074C208.569 1.48143 208.993 1.5149 209.311 1.54506C209.801 1.59157 209.889 1.57705 209.889 1.44979C209.889 1.34156 209.937 1.32375 210.06 1.38581C210.633 1.6765 212.204 1.71735 212.204 1.44162C212.204 1.28124 212.341 1.2888 212.537 1.46005C212.625 1.53663 212.89 1.60895 213.126 1.62086C213.362 1.63277 213.654 1.69466 213.775 1.75855C213.916 1.83331 214.027 1.84348 214.086 1.78706C214.136 1.73882 214.285 1.67415 214.415 1.6432C214.547 1.61235 214.654 1.52724 214.654 1.45396C214.654 1.38077 214.715 1.32088 214.79 1.32088C214.865 1.32088 214.926 1.43823 214.926 1.58166C214.926 1.88034 215.092 1.90641 215.72 1.70622C215.955 1.63129 216.213 1.59591 216.293 1.62747C216.488 1.70431 217.092 1.76586 217.512 1.75169C217.699 1.74534 217.944 1.74282 218.057 1.74613C218.331 1.75404 220.364 1.73639 220.734 1.72283C221.056 1.71109 221.347 1.58166 221.051 1.58166C220.952 1.58166 220.904 1.55975 220.946 1.53307C220.988 1.50629 221.258 1.56497 221.545 1.66346C222.222 1.89494 222.466 1.89503 222.371 1.66363C222.316 1.52863 222.339 1.50673 222.466 1.57401C222.559 1.62312 222.998 1.69014 223.443 1.723C223.887 1.75577 224.382 1.83714 224.543 1.90381C224.78 2.00169 224.848 2.00325 224.898 1.91198C224.946 1.82462 225.059 1.8354 225.397 1.95953C225.638 2.04793 225.871 2.09705 225.915 2.0688C225.959 2.04055 226.081 2.09539 226.186 2.19067C226.29 2.28603 226.449 2.36522 226.538 2.3667C226.776 2.37069 227.12 2.71205 227.222 3.04594C227.297 3.28976 227.268 3.34409 227.04 3.38208C226.701 3.43867 226.701 3.49917 227.041 3.88522C227.191 4.05542 227.309 4.24249 227.304 4.30073C227.298 4.35905 227.241 4.32854 227.177 4.23292L227.06 4.05907L227.03 4.23292C227.013 4.32854 226.992 4.44589 226.982 4.4937C226.973 4.54151 226.906 4.63931 226.834 4.71102C226.762 4.78273 226.691 5.03699 226.676 5.27604C226.662 5.51509 226.609 5.85271 226.56 6.02639C226.504 6.22163 226.527 6.36454 226.619 6.40096C226.822 6.48084 226.808 6.6234 226.598 6.62349C226.475 6.62358 226.419 6.8881 226.393 7.5955C226.365 8.35255 226.308 8.60238 226.134 8.72546C225.974 8.83804 225.96 8.8835 226.085 8.8835C226.263 8.8835 226.257 8.93 225.972 9.81483C225.896 10.0498 225.903 10.1915 225.99 10.2101C226.078 10.2289 226.072 10.3051 225.972 10.4243C225.886 10.5261 225.854 10.6714 225.899 10.7472C225.945 10.823 225.917 10.9352 225.837 10.9966C225.758 11.058 225.691 11.1845 225.69 11.278C225.687 11.5301 225.523 12.0438 225.414 12.1432C225.262 12.283 225.256 12.7788 225.406 12.8381C225.482 12.868 225.543 13.0465 225.543 13.235C225.543 13.4234 225.608 13.5775 225.688 13.5775C225.767 13.5775 225.793 13.6173 225.746 13.6659C225.699 13.7144 225.604 13.7317 225.534 13.7042C225.26 13.596 225.426 13.9238 225.71 14.0507C226.018 14.1886 225.92 14.227 225.356 14.1886C225.147 14.1746 225.116 14.2115 225.184 14.3869C225.244 14.5376 225.206 14.618 225.059 14.654C224.901 14.6928 224.857 14.8183 224.879 15.1629C224.896 15.4145 224.975 15.6491 225.056 15.6842C225.156 15.7274 225.148 15.7484 225.033 15.7494C224.939 15.7501 224.863 15.8485 224.863 15.968C224.863 16.0875 224.924 16.1853 224.999 16.1853C225.074 16.1853 225.135 16.2482 225.135 16.325C225.135 16.406 225.058 16.4459 224.953 16.42C224.815 16.3861 224.763 16.5036 224.74 16.9055C224.724 17.1971 224.67 17.477 224.62 17.5276C224.458 17.6937 224.432 17.8678 224.408 18.967C224.393 19.6889 224.324 20.1223 224.203 20.2585C224.076 20.4011 224.064 20.4911 224.163 20.5544C224.261 20.6166 224.262 20.6974 224.166 20.8112C224.09 20.9025 224.045 21.0824 224.066 21.2108C224.087 21.3394 224.054 21.4959 223.993 21.5589C223.933 21.6218 223.919 21.6964 223.963 21.7247C224.007 21.753 223.981 21.824 223.905 21.8826C223.808 21.9573 223.824 22.0031 223.958 22.0358C224.112 22.0737 224.12 22.1413 223.996 22.3937C223.912 22.5648 223.797 22.7048 223.741 22.7048C223.561 22.7048 223.63 22.8858 223.866 23.037C224.08 23.1736 224.08 23.1848 223.866 23.211C223.741 23.2265 223.638 23.3133 223.638 23.4039C223.638 23.5146 223.705 23.5523 223.842 23.5186C223.954 23.4911 224.046 23.4928 224.046 23.5226C224.046 23.5993 223.736 23.9376 223.541 24.0735C223.423 24.1553 223.414 24.2533 223.51 24.4134C223.593 24.5526 223.595 24.6758 223.517 24.7365C223.355 24.8621 223.203 25.7223 223.334 25.7698C223.389 25.7895 223.35 25.7921 223.248 25.7755C223.111 25.7531 223.086 25.805 223.154 25.9771C223.213 26.1279 223.183 26.2345 223.067 26.2823C222.945 26.3328 222.935 26.3762 223.035 26.421C223.139 26.4672 223.133 26.6981 223.015 27.2148C222.859 27.9 222.851 28.129 222.974 28.442C223.002 28.5137 222.951 28.5631 222.86 28.5517C222.764 28.5397 222.727 28.5856 222.772 28.6604C222.815 28.7315 222.782 28.7897 222.699 28.7897C222.606 28.7897 222.549 28.984 222.549 29.2967C222.549 29.5757 222.503 29.8332 222.447 29.8691C222.391 29.9049 222.331 30.195 222.314 30.5137C222.298 30.8325 222.258 31.4746 222.226 31.9408C222.195 32.407 222.222 32.7883 222.287 32.7883C222.411 32.7883 222.193 33.2294 222.03 33.3081C221.643 33.4953 221.573 33.9725 221.893 34.2359C221.97 34.2988 221.95 34.3554 221.84 34.388C221.701 34.4291 221.7 34.4505 221.834 34.4906C222.063 34.5589 222.049 34.7858 221.805 34.9581C221.632 35.0799 221.631 35.1307 221.797 35.3344C221.902 35.464 221.931 35.57 221.86 35.57C221.692 35.57 221.694 36.5876 221.862 36.6542C222.01 36.7125 221.893 36.9734 221.678 37.0648C221.591 37.1019 221.629 37.1481 221.776 37.1842C222 37.2391 222.001 37.2537 221.79 37.4027C221.523 37.5908 221.626 38.0039 221.939 38.0039C222.05 38.0039 222.14 38.0418 222.14 38.0882C222.14 38.1344 222.056 38.1517 221.954 38.1266C221.851 38.1015 221.731 38.1418 221.686 38.2163C221.635 38.301 221.679 38.3516 221.804 38.3516C222.052 38.3516 222.052 38.4345 221.805 38.6427C221.687 38.7424 221.653 38.8702 221.717 38.9802C221.773 39.0775 221.774 39.3377 221.719 39.5584C221.664 39.7791 221.651 40.0477 221.69 40.1554C221.729 40.263 221.7 40.3509 221.625 40.3509C221.538 40.3509 221.53 40.4676 221.603 40.6747C221.683 40.9012 221.668 41.0184 221.554 41.0645C221.431 41.1146 221.434 41.1309 221.564 41.132C221.678 41.1329 221.709 41.204 221.656 41.3405C221.611 41.4544 221.637 41.6931 221.714 41.8709C221.81 42.0923 221.809 42.3471 221.713 42.6807C221.589 43.1101 221.601 43.1806 221.814 43.2803C221.953 43.3451 221.984 43.3934 221.887 43.3934C221.772 43.3934 221.728 43.5284 221.749 43.8224C221.766 44.0584 221.714 44.3029 221.634 44.3657C221.476 44.4895 221.514 45.1497 221.698 45.4667C221.761 45.5758 221.754 45.8868 221.681 46.1667C221.513 46.8179 221.613 46.9954 222.105 46.9165L222.475 46.8571L222.087 47.0866C221.511 47.4276 221.425 47.8064 221.813 48.2953C222.065 48.6129 222.09 48.6959 221.932 48.6959C221.699 48.6959 221.665 48.9658 221.88 49.1033C221.987 49.1714 221.987 49.2142 221.88 49.2562C221.664 49.3415 221.699 49.6187 221.946 49.7763C222.14 49.9004 222.14 49.9129 221.946 49.9129C221.712 49.9129 221.648 50.1413 221.869 50.1883C221.944 50.2043 222.005 50.5088 222.004 50.8692C222.003 51.2277 222.006 51.5797 222.011 51.6514C222.075 52.5917 222.133 52.8858 222.32 53.2319C222.44 53.4557 222.563 53.8114 222.591 54.0223C222.619 54.2332 222.678 54.442 222.72 54.4863C222.763 54.5306 222.798 54.7555 222.798 54.986C222.798 55.4929 223.046 55.9103 223.348 55.9121C223.48 55.9129 223.513 55.9394 223.429 55.9773C223.157 56.1007 223.279 56.5944 223.618 56.7461C223.857 56.8531 223.894 56.9067 223.762 56.9585C223.62 57.0148 223.62 57.0529 223.764 57.1639C223.862 57.2389 223.956 57.4277 223.973 57.5835C223.995 57.7731 224.099 57.8941 224.289 57.9499C224.517 58.0169 224.557 58.0854 224.492 58.2976C224.448 58.4431 224.36 58.5751 224.297 58.591C224.234 58.6069 224.22 58.7157 224.266 58.8327C224.347 59.0388 224.332 59.0437 223.79 58.9883C223.317 58.9399 223.229 58.9542 223.229 59.0798C223.229 59.1616 223.306 59.2111 223.4 59.1898C223.577 59.1493 224.318 59.3542 224.318 59.4437C224.318 59.4719 224.174 59.4774 223.997 59.4559C223.663 59.4151 223.365 59.6078 223.365 59.8648C223.365 60.0237 223.954 60.033 224.453 59.8818ZM223.196 59.6778C223.146 59.1977 222.569 58.8299 222.366 59.1488C222.313 59.2332 222.268 59.231 222.167 59.139C222.058 59.039 222.026 59.039 221.968 59.139C221.916 59.2295 221.851 59.2175 221.696 59.0885C221.505 58.9297 221.472 58.928 221.154 59.061C220.894 59.1702 220.779 59.1791 220.655 59.0997C220.44 58.9628 219.576 58.9652 219.493 59.1029C219.448 59.1778 219.314 59.1444 219.063 58.9955C218.63 58.7393 218.52 58.7282 218.428 58.9315C218.391 59.0152 218.319 59.1474 218.268 59.2254C218.155 59.4005 218.76 59.5623 219.758 59.624C220.133 59.6471 220.497 59.7012 220.568 59.7442C220.639 59.7873 220.826 59.8225 220.983 59.8225C221.141 59.8225 221.343 59.8695 221.433 59.9268C221.56 60.0079 221.598 59.9839 221.604 59.8182L221.613 59.6052L221.736 59.8008C221.866 60.0063 222.442 60.0815 222.402 59.8877C222.315 59.4579 222.671 59.3287 222.821 59.7356C222.953 60.0934 223.235 60.05 223.196 59.6778ZM218.601 59.6517C218.601 59.6056 218.479 59.526 218.329 59.4748C218.098 59.396 218.057 59.4087 218.057 59.5587C218.057 59.6776 218.146 59.7356 218.329 59.7356C218.479 59.7356 218.601 59.6979 218.601 59.6517ZM217.818 59.5759C217.855 59.4861 217.829 59.3483 217.76 59.2698C217.668 59.1645 217.69 59.1271 217.846 59.1271C218.092 59.1271 218.105 59.0859 217.922 58.8684C217.792 58.7132 217.39 58.7107 217.036 58.8631C216.786 58.9706 216.151 58.9553 216.151 58.8418C216.151 58.7006 214.506 58.4914 214.321 58.6092C214.124 58.7355 213.619 58.7088 213.429 58.5621C213.202 58.3877 213.021 58.3973 213.016 58.5838C213.012 58.7287 213.003 58.7287 212.831 58.5838C212.724 58.4938 212.469 58.4317 212.207 58.4317H211.765L212.086 58.6121C212.263 58.7114 212.334 58.769 212.244 58.7401C212.066 58.6827 211.739 58.9985 211.854 59.1172C211.968 59.2356 212.846 59.2959 213.284 59.2155C213.785 59.1238 214.25 59.1924 214.158 59.3446C214.077 59.4805 215.03 59.4962 215.3 59.3633C215.411 59.3087 215.535 59.3137 215.656 59.3778C215.758 59.4318 216.188 59.4917 216.613 59.5109C217.038 59.53 217.468 59.5893 217.569 59.6425C217.709 59.7169 217.767 59.7014 217.818 59.5759ZM221.957 59.4276C222.002 59.3538 222.067 59.3121 222.103 59.3349C222.138 59.3576 222.127 59.418 222.078 59.469C221.944 59.6077 221.865 59.5808 221.957 59.4276ZM220.779 59.3879C220.779 59.3401 220.805 59.301 220.836 59.301C220.867 59.301 220.991 59.277 221.11 59.2478C221.269 59.2089 221.304 59.2322 221.243 59.3348C221.151 59.4868 220.779 59.5295 220.779 59.3879ZM216.559 59.3879C216.559 59.3401 216.586 59.301 216.619 59.301C216.653 59.301 216.717 59.3401 216.764 59.3879C216.81 59.4357 216.783 59.4748 216.704 59.4748C216.624 59.4748 216.559 59.4357 216.559 59.3879ZM210.434 58.9771C210.546 58.9499 210.684 58.8785 210.74 58.8182C210.859 58.69 211.382 58.7538 211.396 58.8982C211.405 58.9884 211.627 58.7212 211.649 58.594C211.665 58.5035 211.092 58.4164 210.34 58.3948C209.951 58.3837 209.553 58.333 209.455 58.2822C209.146 58.1219 208.167 58.1655 207.787 58.3566C207.262 58.6204 207.337 58.7728 207.984 58.7564C208.283 58.7487 208.528 58.703 208.528 58.6547C208.528 58.6063 208.626 58.656 208.746 58.7651C208.916 58.9208 209.045 58.9519 209.345 58.9098C209.56 58.8796 209.766 58.8964 209.816 58.9481C209.912 59.0469 210.107 59.0561 210.434 58.9771ZM206.998 58.6069C207.247 58.3517 207.219 58.0526 206.952 58.1181C206.833 58.1472 206.693 58.1709 206.641 58.1709C206.49 58.1709 206.538 58.7179 206.692 58.7506C206.767 58.7667 206.905 58.702 206.998 58.6069ZM206.146 58.6055C206.192 58.5577 206.135 58.5186 206.018 58.5186C205.901 58.5186 205.806 58.4795 205.806 58.4317C205.806 58.3839 205.707 58.3448 205.587 58.3448C205.443 58.3448 205.397 58.392 205.451 58.4823C205.496 58.5579 205.534 58.6361 205.534 58.6561C205.534 58.7323 206.066 58.6884 206.146 58.6055ZM203.28 58.526C203.324 58.4807 203.302 58.4208 203.231 58.3928C203.16 58.3648 203.066 58.379 203.023 58.4243C202.979 58.4696 203.001 58.5295 203.072 58.5575C203.143 58.5855 203.236 58.5713 203.28 58.526ZM205.125 58.4048C205.125 58.3422 205.035 58.2152 204.924 58.1223C204.756 57.9824 204.7 57.9745 204.596 58.0762C204.515 58.1544 204.526 58.2568 204.626 58.3588C204.806 58.5431 205.125 58.5726 205.125 58.4048ZM203.9 58.2578C203.9 58.21 203.835 58.1709 203.756 58.1709C203.677 58.1709 203.65 58.21 203.696 58.2578C203.742 58.3056 203.807 58.3448 203.84 58.3448C203.873 58.3448 203.9 58.3056 203.9 58.2578ZM222.617 31.3975C222.571 31.3497 222.598 31.3106 222.677 31.3106C222.756 31.3106 222.821 31.3497 222.821 31.3975C222.821 31.4453 222.794 31.4844 222.761 31.4844C222.728 31.4844 222.663 31.4453 222.617 31.3975ZM224.046 28.0892C224.046 28.0441 224.107 28.0074 224.182 28.0074C224.257 28.0074 224.318 28.0684 224.318 28.1429C224.318 28.2174 224.257 28.2542 224.182 28.2247C224.107 28.1951 224.046 28.1342 224.046 28.0892ZM226.752 7.90409C226.886 7.8189 226.902 7.82891 226.828 7.95278C226.777 8.03849 226.701 8.08673 226.659 8.05996C226.617 8.03327 226.659 7.96312 226.752 7.90409ZM228.402 3.10801C228.402 3.08688 228.463 3.04551 228.538 3.01595C228.613 2.98639 228.674 3.00369 228.674 3.05428C228.674 3.10487 228.613 3.14634 228.538 3.14634C228.463 3.14634 228.402 3.12913 228.402 3.10801ZM228.13 2.84723C228.13 2.8261 228.191 2.78473 228.266 2.75517C228.341 2.72561 228.402 2.74291 228.402 2.7935C228.402 2.84409 228.341 2.88556 228.266 2.88556C228.191 2.88556 228.13 2.86835 228.13 2.84723Z" fill="#FFFEFE"/>
<path d="M76.9141 23.6406C76.9141 24.5312 76.7969 25.3516 76.5625 26.1016C76.3281 26.8516 76.0234 27.5703 75.6484 28.2578C75.2891 28.9453 74.8984 29.625 74.4766 30.2969C74.0547 30.9688 73.6562 31.6797 73.2812 32.4297C73.1875 32.4297 73.1172 32.4531 73.0703 32.5C73.0391 32.5469 73.0078 32.6094 72.9766 32.6875C72.9609 32.75 72.9297 32.8125 72.8828 32.875C72.8516 32.9219 72.7891 32.9453 72.6953 32.9453C72.5547 33.2891 72.375 33.6172 72.1562 33.9297C71.9375 34.2266 71.7031 34.5234 71.4531 34.8203C71.2188 35.1016 70.9844 35.3906 70.75 35.6875C70.5312 35.9844 70.3359 36.3047 70.1641 36.6484H69.9297C69.0859 37.8672 68.1328 38.9609 67.0703 39.9297C66.0234 40.8984 64.875 41.7656 63.625 42.5312C63.5938 42.625 63.5469 42.7031 63.4844 42.7656C63.4219 42.8281 63.4062 42.9141 63.4375 43.0234C63.2656 43.1172 63.1172 43.2344 62.9922 43.375C62.8828 43.5312 62.7734 43.6875 62.6641 43.8438C62.5547 44 62.4375 44.1484 62.3125 44.2891C62.2031 44.4453 62.0547 44.5625 61.8672 44.6406C61.6328 44.5938 61.4062 44.5547 61.1875 44.5234C60.9844 44.4922 60.7734 44.4688 60.5547 44.4531C60.4609 44.4531 60.3672 44.4531 60.2734 44.4531C60.1797 44.4688 60.0938 44.4688 60.0156 44.4531C59.8438 44.4219 59.6953 44.3516 59.5703 44.2422C59.4609 44.1484 59.2969 44.1016 59.0781 44.1016C58.9688 44.1016 58.8828 44.1094 58.8203 44.125C58.6953 43.9062 58.5469 43.6797 58.375 43.4453C58.2188 43.2266 58.1406 42.9844 58.1406 42.7188C58.1406 42.5156 58.1641 42.3281 58.2109 42.1562C58.2734 41.9844 58.3047 41.8047 58.3047 41.6172C58.3047 41.2422 58.2344 40.875 58.0938 40.5156C57.9688 40.1562 57.9062 39.7891 57.9062 39.4141C57.9062 39.2891 57.9219 39.1719 57.9531 39.0625C57.9844 38.9375 58 38.8125 58 38.6875C58 38.5469 57.9375 38.4219 57.8125 38.3125C57.8281 38.2344 57.8594 38.1562 57.9062 38.0781C57.9531 38 57.9766 37.9141 57.9766 37.8203C58.0078 37.6953 58.0156 37.5625 58 37.4219C57.9844 37.2656 57.9766 37.125 57.9766 37C57.9766 36.6719 57.9922 36.3438 58.0234 36.0156C58.0547 35.6875 58.125 35.3672 58.2344 35.0547C58.2188 34.9609 58.1953 34.875 58.1641 34.7969L58.0703 34.5625C58.1797 34.2344 58.25 33.8672 58.2812 33.4609C58.3125 33.0547 58.3281 32.6484 58.3281 32.2422V31C58.3281 30.5938 58.3516 30.2109 58.3984 29.8516C58.4297 29.6953 58.4609 29.5469 58.4922 29.4062C58.5391 29.25 58.5625 29.1016 58.5625 28.9609C58.5625 28.8359 58.5391 28.7266 58.4922 28.6328C58.4453 28.5234 58.3828 28.4219 58.3047 28.3281C58.4141 28.2969 58.4766 28.2344 58.4922 28.1406C58.5078 28.0312 58.5156 27.9375 58.5156 27.8594C58.5156 27.6406 58.4766 27.3984 58.3984 27.1328C58.4609 26.8672 58.5 26.6016 58.5156 26.3359C58.5312 26.0547 58.5391 25.7812 58.5391 25.5156C58.5391 24.5781 58.4766 23.6562 58.3516 22.75C58.2422 21.8438 58.1719 20.9297 58.1406 20.0078H58.0703C57.9609 20.0078 57.875 20.0312 57.8125 20.0781C57.75 20.125 57.6875 20.1797 57.625 20.2422C57.5625 20.2891 57.4922 20.3359 57.4141 20.3828C57.3359 20.4141 57.2422 20.4219 57.1328 20.4062C56.9453 20.625 56.7266 20.8125 56.4766 20.9688C56.2422 21.125 55.9922 21.2656 55.7266 21.3906C55.4609 21.5156 55.1875 21.6328 54.9062 21.7422C54.625 21.8359 54.3594 21.9297 54.1094 22.0234C53.8906 21.9453 53.7031 21.8203 53.5469 21.6484C53.3906 21.4609 53.2422 21.2734 53.1016 21.0859C53.0859 21.0234 53.0781 20.9609 53.0781 20.8984V20.7109C53.0781 20.2734 53.1797 19.9453 53.3828 19.7266C53.5859 19.4922 53.8047 19.2188 54.0391 18.9062H54.1562C54.2344 18.9062 54.3047 18.9219 54.3672 18.9531C54.4141 18.9844 54.4766 19 54.5547 19H54.625C55.0781 18.625 55.5547 18.3281 56.0547 18.1094C56.5703 17.875 57.1016 17.6953 57.6484 17.5703C57.8828 17.3359 58.1172 17.1562 58.3516 17.0312C58.6016 16.9062 58.8906 16.8438 59.2188 16.8438C59.2969 16.8438 59.3828 16.8516 59.4766 16.8672C59.5859 16.8672 59.6797 16.875 59.7578 16.8906C60.3984 16.5938 61 16.3438 61.5625 16.1406C62.1406 15.9219 62.8047 15.8125 63.5547 15.8125C63.6484 15.8125 63.7109 15.7891 63.7422 15.7422C63.7891 15.6953 63.8281 15.6484 63.8594 15.6016C63.8906 15.5391 63.9219 15.4844 63.9531 15.4375C63.9844 15.3906 64.0391 15.3672 64.1172 15.3672C64.1172 15.3984 64.125 15.4453 64.1406 15.5078C64.1562 15.5703 64.1953 15.6016 64.2578 15.6016C64.3203 15.6016 64.375 15.5859 64.4219 15.5547C64.4844 15.5078 64.5547 15.4844 64.6328 15.4844C64.7109 15.4844 64.7656 15.5391 64.7969 15.6484C64.9688 15.5391 65.1328 15.4375 65.2891 15.3438C65.4453 15.25 65.6172 15.1797 65.8047 15.1328C66.0391 15.1797 66.2734 15.2188 66.5078 15.25C66.7578 15.2812 67.0078 15.2969 67.2578 15.2969C67.4453 15.2969 67.6328 15.2891 67.8203 15.2734C68.0078 15.2422 68.1719 15.1641 68.3125 15.0391C68.375 15.0234 68.4062 15.0547 68.4062 15.1328C68.5469 15.2578 68.6953 15.3438 68.8516 15.3906C69.0078 15.4219 69.1719 15.4453 69.3438 15.4609C69.5156 15.4609 69.6875 15.4687 69.8594 15.4844C70.0312 15.5 70.1875 15.5547 70.3281 15.6484C70.4531 15.6797 70.5547 15.7344 70.6328 15.8125C70.7109 15.875 70.8125 15.9297 70.9375 15.9766C71.0312 16.0078 71.1562 16.0312 71.3125 16.0469C71.4844 16.0625 71.6094 16.0938 71.6875 16.1406C71.7656 16.1719 71.8047 16.2266 71.8047 16.3047C71.8203 16.3672 71.8672 16.4219 71.9453 16.4688C72.0859 16.5781 72.2734 16.6484 72.5078 16.6797C72.7422 16.6953 72.9453 16.7656 73.1172 16.8906C73.1797 17.2344 73.3516 17.4609 73.6328 17.5703C73.9141 17.6797 74.1875 17.7891 74.4531 17.8984C74.5469 17.9922 74.5781 18.1016 74.5469 18.2266C74.7344 18.3672 74.8984 18.5234 75.0391 18.6953C75.1953 18.8672 75.3359 19.0547 75.4609 19.2578C75.6016 19.4453 75.7344 19.6328 75.8594 19.8203C75.9844 20.0078 76.1328 20.1797 76.3047 20.3359C76.2891 20.4766 76.3047 20.5859 76.3516 20.6641C76.4141 20.7422 76.4297 20.8594 76.3984 21.0156C76.5859 21.1875 76.7578 21.4141 76.9141 21.6953C76.8203 21.8359 76.7734 21.9922 76.7734 22.1641C76.7734 22.3203 76.7969 22.4766 76.8438 22.6328C76.8906 22.7891 76.9141 22.9453 76.9141 23.1016V23.6406ZM74.7344 23.125C74.7344 22.6719 74.6484 22.2344 74.4766 21.8125C74.3047 21.375 74.1562 20.9453 74.0312 20.5234C73.8281 20.5234 73.6953 20.4531 73.6328 20.3125C73.5859 20.1562 73.4922 20.0234 73.3516 19.9141C73.0547 19.8516 72.8672 19.625 72.7891 19.2344C72.4766 19.1094 72.1562 18.9688 71.8281 18.8125C71.5 18.6562 71.2266 18.4375 71.0078 18.1562C70.4453 17.9844 69.875 17.8125 69.2969 17.6406C68.7344 17.4531 68.1562 17.3594 67.5625 17.3594C67.4531 17.3594 67.3516 17.3672 67.2578 17.3828C67.1797 17.3828 67.1016 17.3828 67.0234 17.3828C66.8984 17.3828 66.7656 17.4062 66.625 17.4531C66.4844 17.5 66.3516 17.5234 66.2266 17.5234C66.0859 17.5234 65.9453 17.4766 65.8047 17.3828C65.4922 17.5547 65.1484 17.6875 64.7734 17.7812C64.4141 17.875 64.0469 17.9609 63.6719 18.0391C63.2969 18.1016 62.9297 18.1875 62.5703 18.2969C62.2109 18.3906 61.8906 18.5391 61.6094 18.7422C61.5156 18.7109 61.4219 18.6875 61.3281 18.6719C61.25 18.6562 61.1719 18.6484 61.0938 18.6484C60.9531 18.6484 60.8438 18.6797 60.7656 18.7422C60.7188 18.7734 60.6875 18.8125 60.6719 18.8594C60.6719 18.9062 60.6641 18.9609 60.6484 19.0234C60.6484 19.0703 60.6328 19.1094 60.6016 19.1406C60.5703 19.1719 60.5078 19.1797 60.4141 19.1641C60.4141 19.2422 60.4062 19.3125 60.3906 19.375C60.3906 19.4375 60.3906 19.5078 60.3906 19.5859C60.3906 19.9922 60.4297 20.3984 60.5078 20.8047C60.6016 21.1953 60.6484 21.5938 60.6484 22C60.6484 22.1406 60.6406 22.2891 60.625 22.4453C60.6094 22.5859 60.5781 22.7266 60.5312 22.8672C60.6094 23.0547 60.6484 23.2578 60.6484 23.4766C60.6641 23.6953 60.6719 23.9141 60.6719 24.1328C60.6719 24.3516 60.6797 24.5703 60.6953 24.7891C60.7109 24.9922 60.7656 25.1875 60.8594 25.375C60.8125 25.6094 60.7812 25.8438 60.7656 26.0781C60.75 26.3125 60.7422 26.5469 60.7422 26.7812C60.7422 27.3281 60.7656 27.8672 60.8125 28.3984C60.875 28.9297 60.9062 29.4688 60.9062 30.0156C60.9062 30.1562 60.8984 30.3047 60.8828 30.4609C60.8828 30.6172 60.875 30.7734 60.8594 30.9297C60.8281 31.1328 60.7734 31.3281 60.6953 31.5156C60.6172 31.7031 60.5781 31.9062 60.5781 32.125C60.5781 32.2656 60.5859 32.4141 60.6016 32.5703C60.6172 32.7109 60.625 32.8594 60.625 33.0156C60.625 33.0781 60.6172 33.1406 60.6016 33.2031C60.6016 33.25 60.6016 33.3047 60.6016 33.3672C60.5234 33.9141 60.4609 34.4688 60.4141 35.0312C60.3672 35.5938 60.3438 36.1484 60.3438 36.6953C60.3438 37.2109 60.3594 37.7266 60.3906 38.2422C60.4219 38.7422 60.4688 39.25 60.5312 39.7656C60.4688 39.875 60.4375 40 60.4375 40.1406C60.4375 40.3594 60.4922 40.5781 60.6016 40.7969C60.7109 41.0312 60.875 41.1875 61.0938 41.2656C61.5938 41.0781 62.0547 40.8281 62.4766 40.5156C62.9141 40.2188 63.3516 39.9141 63.7891 39.6016C63.8984 39.5234 64.0625 39.4219 64.2812 39.2969C64.5 39.1562 64.6484 39.0547 64.7266 38.9922C64.8047 38.9297 64.8672 38.8672 64.9141 38.8047C64.9766 38.7266 65.0469 38.6484 65.125 38.5703L66.1562 37.4688C66.75 36.8594 67.3359 36.2422 67.9141 35.6172C68.5078 34.9922 69.0547 34.3281 69.5547 33.625C69.6953 33.4062 69.8359 33.1953 69.9766 32.9922C70.1172 32.7734 70.25 32.5469 70.375 32.3125C70.4375 32.2344 70.4844 32.1484 70.5156 32.0547C70.5469 31.9453 70.6016 31.8516 70.6797 31.7734C70.7266 31.7109 70.7812 31.6484 70.8438 31.5859C70.9219 31.5234 70.9844 31.4609 71.0312 31.3984C71.1562 31.2578 71.2734 31.1172 71.3828 30.9766C71.5078 30.8203 71.6328 30.6562 71.7578 30.4844C72.1016 29.9844 72.4219 29.4844 72.7188 28.9844C73.0156 28.4688 73.3438 27.9609 73.7031 27.4609C73.7344 27.1484 73.7969 26.8594 73.8906 26.5938C73.9844 26.3125 74.0781 26.0469 74.1719 25.7969C74.2656 25.5312 74.3438 25.2578 74.4062 24.9766C74.4688 24.6953 74.4844 24.3828 74.4531 24.0391C74.5312 23.9297 74.5938 23.8516 74.6406 23.8047C74.7031 23.7578 74.7344 23.6641 74.7344 23.5234V23.125ZM82.1641 36.7891C82.0859 36.9141 81.9922 37.0312 81.8828 37.1406C81.7734 37.2344 81.6719 37.3359 81.5781 37.4453C81.4688 37.4922 81.3438 37.5156 81.2031 37.5156C81.0781 37.5156 80.9531 37.5156 80.8281 37.5156C80.7188 37.5 80.6094 37.5 80.5 37.5156C80.4062 37.5156 80.3281 37.5469 80.2656 37.6094C80.1406 37.5781 80.0469 37.5234 79.9844 37.4453C79.9219 37.3516 79.8125 37.2969 79.6562 37.2812C79.5938 37.2656 79.5312 37.2656 79.4688 37.2812C79.2344 37.0156 79.0156 36.7344 78.8125 36.4375C78.625 36.1406 78.4453 35.8594 78.2734 35.5938C78.2578 35.0156 78.2109 34.4297 78.1328 33.8359C78.1172 33.6953 78.0938 33.5547 78.0625 33.4141C78.0312 33.2734 78.0078 33.1406 77.9922 33.0156C77.9922 32.8594 78 32.7109 78.0156 32.5703C78.0469 32.4141 78.0703 32.2734 78.0859 32.1484C78.1484 31.6953 78.2188 31.25 78.2969 30.8125C78.375 30.375 78.4453 29.9297 78.5078 29.4766C78.5703 29.0703 78.6016 28.6484 78.6016 28.2109C78.6016 27.7578 78.5312 27.3359 78.3906 26.9453L78.3672 26.8281C78.3984 26.7031 78.4297 26.6016 78.4609 26.5234C78.5078 26.4297 78.5391 26.3281 78.5547 26.2188C78.5859 26.0469 78.5469 25.9219 78.4375 25.8438C78.4844 25.7188 78.5625 25.6406 78.6719 25.6094C78.7812 25.5625 78.8438 25.4688 78.8594 25.3281C78.875 25.2656 78.875 25.2031 78.8594 25.1406C78.9844 25.0938 79.1094 25.0547 79.2344 25.0234C79.375 24.9766 79.5078 24.9688 79.6328 25C79.8359 25.0312 80.0156 25.1016 80.1719 25.2109C80.3281 25.3047 80.4766 25.4141 80.6172 25.5391C80.8672 26.2891 80.9688 27.0859 80.9219 27.9297C80.875 28.7578 80.7969 29.5938 80.6875 30.4375C80.5781 31.2812 80.5078 32.1094 80.4766 32.9219C80.4453 33.7188 80.5703 34.4609 80.8516 35.1484L80.8984 35.1719C80.9766 35.1875 81.0391 35.1641 81.0859 35.1016C81.1328 35.0234 81.1953 34.9922 81.2734 35.0078C81.3359 35.0391 81.375 35.0547 81.3906 35.0547C81.4531 35.3672 81.5547 35.6641 81.6953 35.9453C81.8359 36.2266 81.9922 36.5078 82.1641 36.7891ZM96.7891 37.0469C96.7891 37.3125 96.7188 37.5469 96.5781 37.75C96.4531 37.9375 96.4062 38.1719 96.4375 38.4531C96.2188 38.5781 96.0391 38.7422 95.8984 38.9453C95.7578 39.1484 95.625 39.3594 95.5 39.5781C94.4688 40.25 93.3594 40.7891 92.1719 41.1953C91 41.6172 89.7891 41.8281 88.5391 41.8281C88.4609 41.8281 88.3906 41.7891 88.3281 41.7109C88.2656 41.6484 88.2031 41.5781 88.1406 41.5C88.0781 41.4219 88.0078 41.3438 87.9297 41.2656C87.8672 41.2031 87.7891 41.1719 87.6953 41.1719C87.5859 41.1719 87.5 41.1953 87.4375 41.2422C87.4375 41.2109 87.4375 41.1797 87.4375 41.1484C87.4531 41.1328 87.4609 41.1094 87.4609 41.0781C87.4609 40.8906 87.4375 40.6953 87.3906 40.4922C87.3438 40.3047 87.3203 40.1172 87.3203 39.9297C87.3203 39.7109 87.3594 39.5312 87.4375 39.3906H87.7188C87.875 39.3906 88.0234 39.3828 88.1641 39.3672C88.3203 39.3359 88.4844 39.3203 88.6562 39.3203C88.8281 39.3203 88.9844 39.3672 89.125 39.4609C89.9844 39.4297 90.7969 39.2734 91.5625 38.9922C92.3438 38.6953 93.1328 38.4062 93.9297 38.125C94.0547 37.9531 94.125 37.7656 94.1406 37.5625C94.1719 37.3438 94.2344 37.1406 94.3281 36.9531C93.9219 36.6094 93.5078 36.3438 93.0859 36.1562C92.6797 35.9531 92.2031 35.8828 91.6562 35.9453C91.3281 35.7422 90.9766 35.625 90.6016 35.5938C90.2422 35.5625 89.875 35.5156 89.5 35.4531C89.4062 35.4375 89.3047 35.4219 89.1953 35.4062C89.1016 35.375 89 35.3594 88.8906 35.3594C88.8125 35.3594 88.7344 35.3828 88.6562 35.4297C88.5938 35.4609 88.5781 35.5156 88.6094 35.5938C88.5312 35.4688 88.4219 35.3984 88.2812 35.3828C88.1562 35.3516 88.0469 35.2891 87.9531 35.1953C87.4531 35.1641 87.0156 35.0781 86.6406 34.9375C86.2656 34.7812 85.8516 34.6094 85.3984 34.4219C85.2734 34.375 85.1484 34.3438 85.0234 34.3281C84.9141 34.2969 84.8047 34.25 84.6953 34.1875C84.4141 34.0469 84.1875 33.8594 84.0156 33.625C83.8438 33.3906 83.7109 33.1328 83.6172 32.8516C83.5078 32.5547 83.4297 32.25 83.3828 31.9375C83.3359 31.625 83.2891 31.3359 83.2422 31.0703C83.3828 30.8203 83.5156 30.5625 83.6406 30.2969C83.75 30.0312 83.8438 29.75 83.9219 29.4531C84.0156 29.4062 84.1094 29.3672 84.2031 29.3359C84.2969 29.3047 84.3984 29.2656 84.5078 29.2188C84.4922 29.1875 84.4844 29.1484 84.4844 29.1016C84.4844 29.0234 84.5078 28.9453 84.5547 28.8672C84.6172 28.7891 84.6328 28.7109 84.6016 28.6328C84.9453 28.3203 85.2734 28 85.5859 27.6719C85.9141 27.3281 86.1953 26.9531 86.4297 26.5469C86.6641 26.4688 86.8516 26.3516 86.9922 26.1953C87.1328 26.0391 87.2734 25.8828 87.4141 25.7266C87.5547 25.5547 87.7109 25.4062 87.8828 25.2812C88.0547 25.1406 88.2734 25.0547 88.5391 25.0234C88.6016 24.9141 88.6875 24.8281 88.7969 24.7656C88.9062 24.6875 89.0156 24.6172 89.125 24.5547C89.2344 24.4922 89.3359 24.4219 89.4297 24.3438C89.5234 24.2656 89.5938 24.1562 89.6406 24.0156C89.8906 24.0156 90.1172 23.9688 90.3203 23.875C90.5391 23.7812 90.75 23.6797 90.9531 23.5703C91.1562 23.4609 91.3594 23.3594 91.5625 23.2656C91.7812 23.1719 92.0156 23.125 92.2656 23.125C92.3281 23.125 92.3906 23.1328 92.4531 23.1484C92.5156 23.1484 92.5859 23.1562 92.6641 23.1719C92.7734 23.2812 92.8438 23.4141 92.875 23.5703C92.9219 23.7109 92.9531 23.8672 92.9688 24.0391C92.9844 24.2109 92.9922 24.3828 92.9922 24.5547C93.0078 24.7266 93.0391 24.8828 93.0859 25.0234C92.9453 25.2891 92.7891 25.5547 92.6172 25.8203C92.4609 26.0859 92.25 26.2891 91.9844 26.4297H91.9375C91.8281 26.4453 91.7266 26.4219 91.6328 26.3594C91.5391 26.2969 91.4297 26.2656 91.3047 26.2656C91.2266 26.2656 91.1641 26.2891 91.1172 26.3359L91 26.4531C90.9688 26.4844 90.9219 26.5156 90.8594 26.5469C90.8125 26.5781 90.7422 26.5781 90.6484 26.5469C90.4297 26.625 90.3438 26.7578 90.3906 26.9453C90.0938 26.9766 89.8438 27.0703 89.6406 27.2266C89.4375 27.3672 89.25 27.5312 89.0781 27.7188C88.9062 27.8906 88.7344 28.0547 88.5625 28.2109C88.3906 28.3516 88.1875 28.4297 87.9531 28.4453C87.6875 28.9141 87.3594 29.3281 86.9688 29.6875C86.5938 30.0469 86.2812 30.4531 86.0312 30.9062C86.0781 31.0312 86.1094 31.1641 86.125 31.3047C86.1406 31.4453 86.1641 31.5938 86.1953 31.75C86.3359 31.9375 86.5 32.1016 86.6875 32.2422C86.8906 32.3828 87.0859 32.5234 87.2734 32.6641H87.3438C87.6562 32.6641 87.9453 32.7266 88.2109 32.8516C88.4766 32.9609 88.7578 33.0156 89.0547 33.0156C89.2109 33.0156 89.3438 32.9844 89.4531 32.9219C89.8594 33.0156 90.2578 33.0938 90.6484 33.1562C91.0547 33.2188 91.4609 33.2656 91.8672 33.2969C92.0703 33.3281 92.2734 33.3438 92.4766 33.3438C92.6953 33.3438 92.8984 33.3672 93.0859 33.4141C93.2578 33.4609 93.4297 33.5234 93.6016 33.6016C93.7734 33.6641 93.9453 33.7344 94.1172 33.8125C94.4766 33.9688 94.8125 34.1406 95.125 34.3281C95.4531 34.5156 95.7422 34.7422 95.9922 35.0078C96.2422 35.2578 96.4375 35.5547 96.5781 35.8984C96.7188 36.2266 96.7891 36.6094 96.7891 37.0469ZM115.75 35.7812C115.75 35.9375 115.703 36.0703 115.609 36.1797C115.531 36.2734 115.43 36.3594 115.305 36.4375C115.195 36.5156 115.078 36.5859 114.953 36.6484C114.844 36.7109 114.742 36.7891 114.648 36.8828C114.586 36.9453 114.539 37.0234 114.508 37.1172C114.492 37.1953 114.453 37.25 114.391 37.2812C114.297 37.3594 114.195 37.4062 114.086 37.4219C113.977 37.4375 113.859 37.4609 113.734 37.4922C113.625 37.5078 113.516 37.5391 113.406 37.5859C113.297 37.6172 113.203 37.6875 113.125 37.7969C112.391 37.875 111.664 37.9766 110.945 38.1016C110.242 38.2266 109.516 38.2891 108.766 38.2891C108.625 38.2891 108.469 38.3047 108.297 38.3359C108.141 38.3516 107.992 38.3672 107.852 38.3828C107.523 38.4141 107.195 38.4375 106.867 38.4531C106.555 38.4688 106.234 38.4766 105.906 38.4766C105.453 38.4766 105 38.4609 104.547 38.4297C104.094 38.3828 103.648 38.3125 103.211 38.2188C103.102 38.1406 102.977 38.0781 102.836 38.0312C102.695 37.9844 102.547 37.9375 102.391 37.8906C102.25 37.8438 102.117 37.7891 101.992 37.7266C101.867 37.6641 101.773 37.5703 101.711 37.4453C101.477 37.4297 101.266 37.3828 101.078 37.3047C100.906 37.2266 100.742 37.1406 100.586 37.0469C100.445 36.9375 100.297 36.8281 100.141 36.7188C99.9844 36.6094 99.8047 36.5156 99.6016 36.4375C99.4453 36.2188 99.2812 36.0078 99.1094 35.8047C98.9531 35.5859 98.7578 35.4062 98.5234 35.2656C98.4766 34.9688 98.3984 34.6719 98.2891 34.375C98.1953 34.0781 98.0938 33.7891 97.9844 33.5078C97.8906 33.2109 97.8125 32.9141 97.75 32.6172C97.6719 32.3203 97.6328 32.0156 97.6328 31.7031C97.6328 31.4844 97.6641 31.2188 97.7266 30.9062C97.7891 30.5938 97.8672 30.2812 97.9609 29.9688C98.0703 29.6406 98.1953 29.3359 98.3359 29.0547C98.4766 28.7734 98.6172 28.5469 98.7578 28.375C98.8047 28.3281 98.8594 28.2891 98.9219 28.2578C98.9844 28.2266 99.0391 28.1797 99.0859 28.1172C99.2266 27.9609 99.375 27.8359 99.5312 27.7422C99.6875 27.6328 99.8516 27.5078 100.023 27.3672C100.086 27.3047 100.133 27.2344 100.164 27.1562C100.211 27.0781 100.273 27.0078 100.352 26.9453C100.398 26.9141 100.461 26.9062 100.539 26.9219C100.633 26.9375 100.711 26.9219 100.773 26.875C100.836 26.8281 100.867 26.7734 100.867 26.7109C100.867 26.6484 100.891 26.5938 100.938 26.5469C100.953 26.5312 101 26.5312 101.078 26.5469C101.156 26.5469 101.203 26.5469 101.219 26.5469C101.328 26.5469 101.453 26.4766 101.594 26.3359C101.734 26.1797 101.852 26.0781 101.945 26.0312C102.055 25.9688 102.164 25.9297 102.273 25.9141C102.383 25.8828 102.5 25.8359 102.625 25.7734C102.797 25.6797 102.961 25.6094 103.117 25.5625C103.289 25.5 103.461 25.4297 103.633 25.3516C103.727 25.3203 103.812 25.2656 103.891 25.1875C103.969 25.1094 104.047 25.0547 104.125 25.0234C104.266 24.9766 104.414 24.9453 104.57 24.9297C104.742 24.8984 104.898 24.875 105.039 24.8594C105.195 24.8281 105.344 24.7969 105.484 24.7656C105.641 24.7188 105.781 24.6406 105.906 24.5312H106.094C106.375 24.5312 106.648 24.4922 106.914 24.4141C107.18 24.3359 107.453 24.2969 107.734 24.2969C107.812 24.2969 107.93 24.3125 108.086 24.3438C108.211 24.2656 108.352 24.2266 108.508 24.2266C108.773 24.2266 109.039 24.2969 109.305 24.4375C109.57 24.5625 109.844 24.625 110.125 24.625H110.266C110.328 24.625 110.391 24.6172 110.453 24.6016C110.625 24.7734 110.828 24.8672 111.062 24.8828C111.312 24.8984 111.523 24.9688 111.695 25.0938C111.805 25.1875 111.891 25.2969 111.953 25.4219C112.031 25.5469 112.094 25.6797 112.141 25.8203L112.281 26.2422C112.328 26.3828 112.391 26.5078 112.469 26.6172C112.391 27.1797 112.156 27.6328 111.766 27.9766C111.391 28.3047 110.914 28.4688 110.336 28.4688C110.117 28.4688 109.93 28.4453 109.773 28.3984C109.633 28.3359 109.5 28.2734 109.375 28.2109C109.266 28.1484 109.148 28.0859 109.023 28.0234C108.898 27.9609 108.758 27.9141 108.602 27.8828C108.773 27.5703 108.883 27.2344 108.93 26.875C108.758 26.7969 108.586 26.7422 108.414 26.7109C108.242 26.6797 108.078 26.625 107.922 26.5469C107.5 26.6562 107.086 26.7344 106.68 26.7812C106.289 26.8125 105.922 26.9766 105.578 27.2734C105.5 27.2578 105.414 27.2422 105.32 27.2266C105.242 27.2109 105.164 27.2031 105.086 27.2031C104.992 27.2031 104.805 27.2734 104.523 27.4141C104.242 27.5391 103.938 27.6875 103.609 27.8594C103.297 28.0312 102.992 28.2031 102.695 28.375C102.414 28.5469 102.219 28.6641 102.109 28.7266C101.984 28.8047 101.875 28.8984 101.781 29.0078C101.688 29.1172 101.594 29.2344 101.5 29.3594C101.406 29.4688 101.312 29.5781 101.219 29.6875C101.125 29.7812 101.008 29.8516 100.867 29.8984C100.836 30.0703 100.781 30.2188 100.703 30.3438C100.625 30.4688 100.539 30.6016 100.445 30.7422C100.43 31.0234 100.398 31.3047 100.352 31.5859C100.32 31.8672 100.305 32.1484 100.305 32.4297V32.7344C100.305 32.8281 100.32 32.9141 100.352 32.9922C100.508 33.1953 100.633 33.4219 100.727 33.6719C100.836 33.9219 101.016 34.0938 101.266 34.1875C101.281 34.25 101.273 34.2891 101.242 34.3047C101.227 34.3203 101.211 34.3594 101.195 34.4219C101.289 34.5938 101.406 34.7344 101.547 34.8438C101.703 34.9375 101.859 35.0391 102.016 35.1484C102.172 35.2422 102.32 35.3438 102.461 35.4531C102.602 35.5625 102.711 35.7031 102.789 35.875C103.023 35.875 103.242 35.9141 103.445 35.9922C103.664 36.0703 103.867 36.1562 104.055 36.25C104.258 36.3438 104.445 36.4297 104.617 36.5078C104.805 36.5859 104.992 36.625 105.18 36.625C105.352 36.625 105.508 36.6016 105.648 36.5547C106.055 36.6797 106.461 36.7734 106.867 36.8359C107.289 36.8828 107.711 36.9062 108.133 36.9062C108.648 36.9062 109.164 36.875 109.68 36.8125C110.195 36.75 110.711 36.6953 111.227 36.6484C111.414 36.6172 111.594 36.6016 111.766 36.6016C111.938 36.6016 112.109 36.5859 112.281 36.5547C112.5 36.5234 112.703 36.4219 112.891 36.25C113.094 36.0781 113.289 35.9531 113.477 35.875C113.648 35.9844 113.852 36.0391 114.086 36.0391C114.352 36.0391 114.609 36 114.859 35.9219C115.109 35.8281 115.367 35.7812 115.633 35.7812H115.75ZM130.398 26.4297C130.305 26.5703 130.25 26.7266 130.234 26.8984C130.219 27.0703 130.211 27.2266 130.211 27.3672C130.211 27.5547 130.211 27.7422 130.211 27.9297C130.227 28.1016 130.234 28.2734 130.234 28.4453V28.7969C130.203 28.9062 130.156 29.0156 130.094 29.125C130.031 29.2344 129.984 29.3438 129.953 29.4531C129.734 30.0312 129.625 30.6094 129.625 31.1875V31.2344C129.547 31.4219 129.469 31.5938 129.391 31.75C129.328 31.9062 129.266 32.0625 129.203 32.2188C129.141 32.3594 129.094 32.5156 129.062 32.6875C129.031 32.8438 129.023 33.0312 129.039 33.25C128.82 33.7969 128.531 34.2969 128.172 34.75C127.812 35.1875 127.461 35.6406 127.117 36.1094C126.789 36.2344 126.484 36.3984 126.203 36.6016C125.938 36.8047 125.68 37.0312 125.43 37.2812C124.945 37.4375 124.469 37.6172 124 37.8203C123.531 38.0234 123.109 38.2969 122.734 38.6406C122.438 38.6719 122.141 38.7188 121.844 38.7812C121.547 38.8438 121.258 38.9375 120.977 39.0625H120.695C120.555 39.0625 120.453 39.0312 120.391 38.9688C120.188 39.0781 119.977 39.1562 119.758 39.2031C119.539 39.2344 119.32 39.25 119.102 39.25C118.82 39.25 118.539 39.2344 118.258 39.2031C117.992 39.1562 117.719 39.1094 117.438 39.0625C117.281 38.8438 117.062 38.6797 116.781 38.5703C116.5 38.4453 116.25 38.3281 116.031 38.2188C115.578 37.5938 115.25 36.9922 115.047 36.4141C114.844 35.8203 114.633 35.1562 114.414 34.4219C114.445 34.2031 114.5 33.9922 114.578 33.7891C114.656 33.5703 114.688 33.3359 114.672 33.0859C114.953 32.2734 115.32 31.5391 115.773 30.8828C116.242 30.2109 116.773 29.5703 117.367 28.9609C117.367 28.8672 117.383 28.7891 117.414 28.7266C117.461 28.6641 117.469 28.5703 117.438 28.4453C117.453 28.4609 117.484 28.4688 117.531 28.4688C117.656 28.4688 117.734 28.4375 117.766 28.375C117.797 28.2969 117.805 28.2109 117.789 28.1172C118.352 27.7578 118.859 27.3438 119.312 26.875C119.781 26.4062 120.312 26.0156 120.906 25.7031C120.953 25.5625 121.031 25.4453 121.141 25.3516C121.25 25.2578 121.336 25.1484 121.398 25.0234C121.898 24.8828 122.352 24.6719 122.758 24.3906C123.164 24.1094 123.594 23.8594 124.047 23.6406C124.297 23.5 124.531 23.4062 124.75 23.3594C124.984 23.2969 125.234 23.2344 125.5 23.1719C125.594 23.1406 125.68 23.1172 125.758 23.1016C125.836 23.0859 125.922 23.0781 126.016 23.0781C126.297 23.0781 126.57 23.1328 126.836 23.2422C127.102 23.3359 127.375 23.3828 127.656 23.3828C127.734 23.3828 127.797 23.3828 127.844 23.3828C127.906 23.3672 127.969 23.3516 128.031 23.3359C128.297 23.6641 128.633 23.9141 129.039 24.0859C129.133 24.3203 129.242 24.5234 129.367 24.6953C129.508 24.8672 129.648 25.0391 129.789 25.2109C129.93 25.3672 130.055 25.5469 130.164 25.75C130.289 25.9375 130.367 26.1641 130.398 26.4297ZM128.055 27.6484C128.055 27.5703 128.047 27.5 128.031 27.4375C127.875 27.3906 127.727 27.3281 127.586 27.25C127.445 27.1719 127.289 27.1328 127.117 27.1328C127.008 27.1328 126.898 27.1562 126.789 27.2031C126.773 27.0938 126.727 27.0156 126.648 26.9688C126.586 26.9219 126.508 26.8828 126.414 26.8516C126.336 26.8047 126.25 26.7734 126.156 26.7578C126.078 26.7266 126.008 26.6797 125.945 26.6172C125.898 26.4922 125.844 26.3672 125.781 26.2422C125.734 26.1016 125.641 26 125.5 25.9375C125.359 26.0781 125.195 26.1953 125.008 26.2891C124.82 26.3672 124.625 26.4453 124.422 26.5234C124.234 26.6016 124.047 26.6953 123.859 26.8047C123.688 26.9141 123.539 27.0469 123.414 27.2031H122.992C122.898 27.375 122.766 27.5078 122.594 27.6016C122.422 27.6797 122.273 27.7969 122.148 27.9531C121.898 28.0781 121.664 28.2344 121.445 28.4219C121.242 28.5938 121.039 28.7812 120.836 28.9844C120.633 29.1719 120.43 29.3672 120.227 29.5703C120.039 29.7734 119.836 29.9609 119.617 30.1328C119.414 30.5703 119.188 30.9531 118.938 31.2812C118.703 31.5938 118.477 31.9141 118.258 32.2422C118.055 32.5703 117.875 32.9297 117.719 33.3203C117.578 33.6953 117.508 34.1641 117.508 34.7266V34.9609C117.508 35.0391 117.516 35.1172 117.531 35.1953C117.734 35.4141 117.898 35.6484 118.023 35.8984C118.164 36.1484 118.391 36.3281 118.703 36.4375C119.016 36.5625 119.344 36.6172 119.688 36.6016C120.047 36.5859 120.391 36.625 120.719 36.7188C121.469 36.5781 122.188 36.3516 122.875 36.0391C123.578 35.7109 124.242 35.3203 124.867 34.8672C124.961 34.7891 125.07 34.7109 125.195 34.6328C125.32 34.5391 125.422 34.4453 125.5 34.3516C125.578 34.2734 125.641 34.1875 125.688 34.0938C125.75 34 125.812 33.9141 125.875 33.8359C126 33.6328 126.141 33.4297 126.297 33.2266C126.453 33.0234 126.617 32.8359 126.789 32.6641C126.867 32.3203 126.969 31.9922 127.094 31.6797C127.219 31.3516 127.344 31.0312 127.469 30.7188C127.594 30.4062 127.695 30.0859 127.773 29.7578C127.867 29.4297 127.914 29.0859 127.914 28.7266C127.914 28.6484 127.906 28.5625 127.891 28.4688C127.891 28.375 127.883 28.2891 127.867 28.2109C127.992 28.0391 128.055 27.8516 128.055 27.6484ZM161.992 35.9219C161.961 36.1562 161.875 36.3359 161.734 36.4609C161.609 36.5859 161.461 36.7031 161.289 36.8125C161.211 36.7969 161.133 36.7891 161.055 36.7891C160.992 36.7734 160.922 36.7656 160.844 36.7656C160.359 36.75 159.898 36.8125 159.461 36.9531C159.039 37.0938 158.602 37.1953 158.148 37.2578C157.992 37.2891 157.844 37.3047 157.703 37.3047C157.578 37.2891 157.445 37.2969 157.305 37.3281C156.805 37.4062 156.273 37.4688 155.711 37.5156C155.148 37.5625 154.586 37.625 154.023 37.7031C153.461 37.7656 152.906 37.8516 152.359 37.9609C151.828 38.0547 151.328 38.1953 150.859 38.3828C150.812 38.3516 150.766 38.3203 150.719 38.2891C150.672 38.2422 150.617 38.2188 150.555 38.2188C150.398 38.2188 150.25 38.2422 150.109 38.2891C149.969 38.3359 149.828 38.3516 149.688 38.3359C149.531 38.4297 149.359 38.5 149.172 38.5469C149 38.5781 148.82 38.6094 148.633 38.6406C148.461 38.6562 148.289 38.6875 148.117 38.7344C147.945 38.7812 147.781 38.8672 147.625 38.9922C147.5 38.9297 147.344 38.8984 147.156 38.8984C146.984 38.8828 146.867 38.8203 146.805 38.7109C146.445 38.8828 146.062 38.9922 145.656 39.0391C145.266 39.0859 144.867 39.1016 144.461 39.0859C144.195 39.0703 143.891 39.0312 143.547 38.9688C143.203 38.9062 142.859 38.8203 142.516 38.7109C142.172 38.5859 141.852 38.4453 141.555 38.2891C141.258 38.1172 141.031 37.9141 140.875 37.6797C140.766 37.5234 140.688 37.3516 140.641 37.1641C140.594 36.9766 140.484 36.8359 140.312 36.7422C140.359 36.3828 140.414 36.0312 140.477 35.6875C140.539 35.3438 140.602 34.9922 140.664 34.6328C140.977 34.3672 141.273 34.0859 141.555 33.7891C141.836 33.4922 142.102 33.1797 142.352 32.8516C142.648 32.7109 142.922 32.5391 143.172 32.3359C143.438 32.1328 143.695 31.9297 143.945 31.7266C144.211 31.5078 144.469 31.2969 144.719 31.0938C144.984 30.8906 145.266 30.7109 145.562 30.5547C145.609 30.4453 145.672 30.3594 145.75 30.2969C145.844 30.2188 145.938 30.1484 146.031 30.0859C146.125 30.0078 146.211 29.9297 146.289 29.8516C146.367 29.7578 146.422 29.6484 146.453 29.5234C147 29.1953 147.477 28.7812 147.883 28.2812C148.289 27.7812 148.555 27.2188 148.68 26.5938C148.414 26.375 148.109 26.2344 147.766 26.1719C147.438 26.0938 147.094 26.0391 146.734 26.0078C146.422 25.9922 146.094 25.9922 145.75 26.0078C145.422 26.0234 145.086 26.0156 144.742 25.9844C144.398 26.0938 144.039 26.1641 143.664 26.1953C143.305 26.2266 142.945 26.2578 142.586 26.2891C142.227 26.3047 141.867 26.3516 141.508 26.4297C141.164 26.4922 140.828 26.6172 140.5 26.8047C140.438 26.8047 140.375 26.7969 140.312 26.7812C140.266 26.7656 140.211 26.7578 140.148 26.7578C139.648 26.7422 139.18 26.8438 138.742 27.0625C138.305 27.2656 137.875 27.4688 137.453 27.6719C137.422 27.7344 137.406 27.7812 137.406 27.8125C137.406 27.9062 137.422 28 137.453 28.0938C137.5 28.1719 137.523 28.2578 137.523 28.3516C137.508 28.3672 137.5 28.3828 137.5 28.3984C137.5 28.4141 137.492 28.4297 137.477 28.4453C137.461 28.5234 137.438 28.5938 137.406 28.6562C137.391 28.7188 137.367 28.7891 137.336 28.8672C137.164 29.3672 137.07 29.8594 137.055 30.3438C137.039 30.75 137.039 31.1484 137.055 31.5391C137.07 31.9297 137.07 32.3281 137.055 32.7344C137.023 33.2344 136.945 33.7031 136.82 34.1406C136.898 34.5156 136.969 34.9141 137.031 35.3359C137.094 35.7422 137.172 36.1484 137.266 36.5547C137.359 36.9609 137.469 37.3594 137.594 37.75C137.734 38.125 137.914 38.4844 138.133 38.8281C138.117 38.8594 138.125 38.8828 138.156 38.8984C138.188 38.9141 138.219 38.9219 138.25 38.9219H138.438C138.516 38.9219 138.547 38.9531 138.531 39.0156C138.562 39.0625 138.586 39.1094 138.602 39.1562C138.617 39.1875 138.648 39.2188 138.695 39.25C138.727 39.2969 138.727 39.3594 138.695 39.4375C138.68 39.75 138.602 40.0391 138.461 40.3047C138.32 40.5703 138.234 40.8594 138.203 41.1719C138.016 41.2188 137.844 41.2422 137.688 41.2422C137.422 41.2266 137.188 41.1484 136.984 41.0078C136.781 40.8828 136.594 40.7266 136.422 40.5391C136.25 40.3516 136.086 40.1641 135.93 39.9766C135.773 39.7734 135.602 39.6016 135.414 39.4609C135.305 39.0234 135.195 38.5391 135.086 38.0078C134.992 37.4766 134.828 37.0234 134.594 36.6484C134.656 36.5078 134.688 36.3359 134.688 36.1328C134.703 35.8203 134.672 35.5156 134.594 35.2188C134.531 34.9062 134.516 34.5938 134.547 34.2812C134.547 34.1094 134.562 33.9375 134.594 33.7656C134.641 33.5938 134.672 33.4219 134.688 33.25C134.703 32.9844 134.672 32.7266 134.594 32.4766C134.531 32.2266 134.508 31.9688 134.523 31.7031C134.539 31.5781 134.562 31.4609 134.594 31.3516C134.641 31.2266 134.703 31.1172 134.781 31.0234C134.703 30.8359 134.68 30.6562 134.711 30.4844C134.727 30.2188 134.758 29.9688 134.805 29.7344C134.852 29.5 134.883 29.2656 134.898 29.0312C134.898 28.9062 134.891 28.7891 134.875 28.6797C134.859 28.5547 134.836 28.4375 134.805 28.3281L134.594 28.2578C134.5 28.2578 134.406 28.2812 134.312 28.3281C134.234 28.375 134.164 28.4297 134.102 28.4922C134.039 28.5547 133.984 28.6094 133.938 28.6562C133.891 28.6875 133.844 28.7031 133.797 28.7031C133.766 28.7031 133.727 28.7031 133.68 28.7031C133.648 28.6875 133.617 28.6797 133.586 28.6797C133.555 28.6797 133.492 28.7109 133.398 28.7734C133.32 28.8359 133.219 28.9062 133.094 28.9844C132.984 29.0469 132.875 29.1172 132.766 29.1953C132.656 29.2578 132.57 29.2969 132.508 29.3125C132.336 29.2812 132.195 29.2266 132.086 29.1484C131.992 29.0547 131.898 28.9688 131.805 28.8906C131.727 28.7969 131.641 28.7188 131.547 28.6562C131.453 28.5781 131.336 28.5469 131.195 28.5625C131.148 28.4688 131.125 28.3672 131.125 28.2578C131.109 28.1484 131.109 28.0391 131.125 27.9297V27.5547C131.234 27.3516 131.383 27.1875 131.57 27.0625C131.742 26.9219 131.93 26.8047 132.133 26.7109L132.742 26.4297C132.945 26.3359 133.133 26.2188 133.305 26.0781H133.516C133.797 26.0938 134.039 26.0391 134.242 25.9141C134.461 25.7891 134.664 25.6484 134.852 25.4922C135.039 25.3203 135.227 25.1484 135.414 24.9766C135.617 24.8047 135.836 24.6719 136.07 24.5781C136.242 24.6562 136.422 24.7266 136.609 24.7891C136.797 24.8359 136.992 24.8672 137.195 24.8828C137.398 24.8828 137.609 24.8516 137.828 24.7891C138.047 24.7266 138.219 24.6094 138.344 24.4375C138.422 24.4688 138.484 24.4922 138.531 24.5078C138.594 24.5078 138.664 24.5078 138.742 24.5078C138.977 24.5234 139.211 24.4922 139.445 24.4141C139.68 24.3203 139.906 24.2109 140.125 24.0859C140.438 24.1016 140.742 24.0859 141.039 24.0391C141.352 23.9766 141.656 23.9141 141.953 23.8516C142.266 23.7891 142.57 23.7344 142.867 23.6875C143.18 23.625 143.492 23.6016 143.805 23.6172C144.32 23.6328 144.828 23.5859 145.328 23.4766C145.828 23.3672 146.336 23.3281 146.852 23.3594C147.211 23.375 147.562 23.4062 147.906 23.4531C148.266 23.4844 148.625 23.4922 148.984 23.4766C149.188 23.5703 149.367 23.6562 149.523 23.7344C149.695 23.7969 149.906 23.8125 150.156 23.7812C150.656 24.2031 151.109 24.6953 151.516 25.2578V25.6562C151.5 26.0156 151.438 26.3672 151.328 26.7109C151.219 27.0547 151.086 27.3984 150.93 27.7422C150.789 28.0703 150.633 28.3984 150.461 28.7266C150.289 29.0391 150.125 29.3516 149.969 29.6641C148.953 30.5859 147.938 31.5 146.922 32.4062C145.906 33.3125 144.859 34.1875 143.781 35.0312C143.75 35.1875 143.703 35.3281 143.641 35.4531C143.594 35.5781 143.562 35.7109 143.547 35.8516C143.547 35.9297 143.555 35.9922 143.57 36.0391C143.68 36.0703 143.773 36.1328 143.852 36.2266C143.945 36.3047 143.977 36.4141 143.945 36.5547H144.156C144.234 36.5547 144.273 36.5859 144.273 36.6484L144.648 36.6719C145.242 36.7031 145.836 36.6875 146.43 36.625C147.023 36.5625 147.617 36.4922 148.211 36.4141C148.82 36.3359 149.422 36.2656 150.016 36.2031C150.609 36.125 151.203 36.0781 151.797 36.0625C151.938 36.0156 152.086 35.9766 152.242 35.9453C152.398 35.9141 152.539 35.8516 152.664 35.7578H152.734C152.844 35.7578 152.922 35.7891 152.969 35.8516C153.031 35.9141 153.117 35.9531 153.227 35.9688C153.305 35.9688 153.383 35.9531 153.461 35.9219C153.555 35.8906 153.648 35.8672 153.742 35.8516C153.961 35.7891 154.188 35.75 154.422 35.7344C154.672 35.7188 154.914 35.6953 155.148 35.6641C156.055 35.5859 156.953 35.5391 157.844 35.5234C158.734 35.4922 159.625 35.375 160.516 35.1719C160.594 35.2812 160.703 35.3594 160.844 35.4062C160.984 35.4375 161.133 35.4766 161.289 35.5234C161.445 35.5547 161.586 35.5938 161.711 35.6406C161.852 35.6875 161.945 35.7812 161.992 35.9219ZM171.086 28.4453C171.086 28.6016 171.031 28.7031 170.922 28.75C170.812 28.7969 170.758 28.8906 170.758 29.0312C170.758 29.0781 170.773 29.1172 170.805 29.1484C170.836 29.1797 170.852 29.2266 170.852 29.2891V29.3828C170.664 30.2891 170.391 31.0781 170.031 31.75C169.688 32.4219 169.281 33.0391 168.812 33.6016C168.344 34.1641 167.812 34.6953 167.219 35.1953C166.641 35.6953 166.016 36.2188 165.344 36.7656C165.156 36.9219 164.961 37.0781 164.758 37.2344C164.57 37.3906 164.391 37.5547 164.219 37.7266L163.703 38.2188C163.688 38.2344 163.602 38.2734 163.445 38.3359C163.289 38.3828 163.195 38.4141 163.164 38.4297C162.945 38.5234 162.711 38.6328 162.461 38.7578C162.227 38.8828 162.023 39.0391 161.852 39.2266C161.539 39.2266 161.273 39.2734 161.055 39.3672C160.836 39.4609 160.594 39.5859 160.328 39.7422C160.25 39.7422 160.18 39.7266 160.117 39.6953C160.07 39.6641 160.016 39.6328 159.953 39.6016C159.891 39.5703 159.82 39.5547 159.742 39.5547C159.68 39.5391 159.594 39.5469 159.484 39.5781C159.297 39.2656 159.094 39 158.875 38.7812C158.656 38.5625 158.359 38.4297 157.984 38.3828C157.938 38.1172 157.828 37.9141 157.656 37.7734C157.484 37.6172 157.312 37.4531 157.141 37.2812C157.109 37.1875 157.086 37.0781 157.07 36.9531C157.055 36.8281 157.023 36.7109 156.977 36.6016C156.93 36.4922 156.867 36.3984 156.789 36.3203C156.711 36.2422 156.602 36.2031 156.461 36.2031C156.445 36.1094 156.484 36.0625 156.578 36.0625C156.672 36.0625 156.719 36.0234 156.719 35.9453C156.719 35.8516 156.703 35.7578 156.672 35.6641C156.641 35.5703 156.625 35.4688 156.625 35.3594C156.625 35.2812 156.633 35.2109 156.648 35.1484C156.664 35.0859 156.688 35.0156 156.719 34.9375C156.672 34.5156 156.648 34.0859 156.648 33.6484C156.648 32.8047 156.703 31.9766 156.812 31.1641C156.938 30.3359 157 29.5 157 28.6562C157 28.2812 156.977 27.9062 156.93 27.5312C156.898 27.1562 156.828 26.7891 156.719 26.4297C156.359 26.5078 156 26.6016 155.641 26.7109C155.281 26.8047 154.945 26.9375 154.633 27.1094C154.461 27 154.281 26.9375 154.094 26.9219C153.891 26.8906 153.695 26.8438 153.508 26.7812C153.398 26.5625 153.344 26.3359 153.344 26.1016C153.344 25.8828 153.383 25.6719 153.461 25.4688L153.695 24.8594C154.07 24.7812 154.445 24.6641 154.82 24.5078C155.18 24.3516 155.547 24.2109 155.922 24.0859C156.047 24.0547 156.203 24.0156 156.391 23.9688C156.594 23.9219 156.734 23.8828 156.812 23.8516C156.922 23.8047 156.992 23.7188 157.023 23.5938C157.07 23.4531 157.133 23.3359 157.211 23.2422H157.609C157.703 23.2422 157.805 23.25 157.914 23.2656C158.023 23.2656 158.125 23.2891 158.219 23.3359C158.781 23.1953 159.344 23.1094 159.906 23.0781C160.469 23.0312 161.047 22.9688 161.641 22.8906C161.703 22.8906 161.797 22.8828 161.922 22.8672L162.32 22.7969C162.461 22.7656 162.586 22.7422 162.695 22.7266C162.82 22.6953 162.906 22.6797 162.953 22.6797C163 22.6797 163.023 22.7031 163.023 22.75H163.422C164.094 22.75 164.75 22.8359 165.391 23.0078L167.312 23.5234C167.578 23.7422 167.844 23.9531 168.109 24.1562C168.375 24.3594 168.672 24.5391 169 24.6953C169.078 24.9453 169.195 25.1484 169.352 25.3047C169.523 25.4453 169.711 25.6016 169.914 25.7734C169.992 25.9766 170.094 26.1953 170.219 26.4297C170.359 26.6484 170.492 26.875 170.617 27.1094C170.742 27.3438 170.852 27.5781 170.945 27.8125C171.039 28.0312 171.086 28.2422 171.086 28.4453ZM168.906 28.7969C168.734 28.4375 168.57 28.0625 168.414 27.6719C168.258 27.2812 168.062 26.9297 167.828 26.6172C167.547 26.5391 167.258 26.4453 166.961 26.3359C166.68 26.2109 166.484 26 166.375 25.7031C166.344 25.7188 166.289 25.7266 166.211 25.7266C166.07 25.7266 165.945 25.6719 165.836 25.5625C165.727 25.4531 165.602 25.3828 165.461 25.3516C165.336 25.3359 165.164 25.3125 164.945 25.2812C164.742 25.25 164.523 25.2266 164.289 25.2109C164.055 25.1953 163.82 25.1797 163.586 25.1641C163.367 25.1484 163.195 25.1406 163.07 25.1406C162.945 25.1406 162.812 25.1484 162.672 25.1641C162.547 25.1641 162.414 25.1719 162.273 25.1875C162.148 25.1875 162.07 25.2109 162.039 25.2578C162.008 25.2891 161.945 25.3203 161.852 25.3516C161.773 25.3203 161.688 25.3047 161.594 25.3047H161.312C160.984 25.3047 160.656 25.3594 160.328 25.4688C160.016 25.5625 159.703 25.6953 159.391 25.8672V25.9609C159.391 26.0859 159.445 26.1562 159.555 26.1719C159.664 26.1875 159.727 26.25 159.742 26.3594C159.664 26.3594 159.602 26.3672 159.555 26.3828C159.508 26.3828 159.484 26.4375 159.484 26.5469C159.484 26.7031 159.5 26.875 159.531 27.0625C159.578 27.25 159.602 27.4375 159.602 27.625C159.602 27.7656 159.586 27.9297 159.555 28.1172C159.523 28.3047 159.445 28.4531 159.32 28.5625C159.477 28.7031 159.555 28.8906 159.555 29.125C159.555 29.2812 159.523 29.4453 159.461 29.6172C159.398 29.7891 159.32 29.9375 159.227 30.0625C159.195 30.7188 159.133 31.3828 159.039 32.0547C158.945 32.7266 158.898 33.3906 158.898 34.0469C158.898 34.375 158.914 34.6953 158.945 35.0078C158.992 35.3203 159.062 35.6328 159.156 35.9453C159.328 36.1172 159.508 36.25 159.695 36.3438C159.898 36.4375 160.109 36.5312 160.328 36.625V36.6953C160.328 36.7422 160.297 36.7891 160.234 36.8359C160.172 36.8828 160.141 36.9453 160.141 37.0234C160.141 37.0859 160.172 37.1172 160.234 37.1172C160.891 36.9297 161.508 36.7031 162.086 36.4375C162.664 36.1719 163.203 35.8125 163.703 35.3594C163.75 35.3125 163.797 35.2891 163.844 35.2891C163.875 35.2891 163.914 35.2969 163.961 35.3125C164.023 35.3281 164.078 35.3438 164.125 35.3594L164.102 35.2656C164.102 35.1719 164.125 35.0859 164.172 35.0078C164.234 34.9297 164.305 34.8594 164.383 34.7969L164.617 34.5859C164.695 34.5078 164.758 34.4297 164.805 34.3516C164.93 34.3203 165.016 34.2578 165.062 34.1641C165.125 34.0703 165.227 34.0234 165.367 34.0234C165.398 33.8516 165.484 33.7266 165.625 33.6484C165.766 33.5547 165.852 33.4219 165.883 33.25C166.195 33.0781 166.469 32.8672 166.703 32.6172C166.953 32.3672 167.18 32.1016 167.383 31.8203C167.602 31.5391 167.805 31.25 167.992 30.9531C168.18 30.6406 168.375 30.3438 168.578 30.0625V29.9688C168.578 29.7188 168.617 29.5156 168.695 29.3594C168.789 29.2031 168.859 29.0156 168.906 28.7969Z" fill="#FFFEFE"/>
</svg>
