<svg width="60" height="64" viewBox="0 0 60 64" fill="none" xmlns="http://www.w3.org/2000/svg">
<path d="M44.2105 6.31579C43.373 6.31579 42.5698 5.98308 41.9776 5.39086C41.3853 4.79864 41.0526 3.99542 41.0526 3.15789C41.0526 2.32037 41.3853 1.51715 41.9776 0.924926C42.5698 0.332706 43.373 0 44.2105 0H56.8421C57.6796 0 58.4829 0.332706 59.0751 0.924926C59.6673 1.51715 60 2.32037 60 3.15789V15.7895C60 16.627 59.6673 17.4302 59.0751 18.0224C58.4829 18.6147 57.6796 18.9474 56.8421 18.9474C56.0046 18.9474 55.2014 18.6147 54.6091 18.0224C54.0169 17.4302 53.6842 16.627 53.6842 15.7895V10.7811L35.3905 29.0747C34.7983 29.6667 33.9953 29.9993 33.1579 29.9993C32.3205 29.9993 31.5175 29.6667 30.9253 29.0747L22.1053 20.2547L5.39053 36.9695C4.79494 37.5447 3.99725 37.863 3.16926 37.8558C2.34127 37.8486 1.54923 37.5165 0.963731 36.931C0.378232 36.3455 0.0461192 35.5535 0.0389242 34.7255C0.0317292 33.8975 0.350027 33.0998 0.925263 32.5042L19.8726 13.5568C20.4648 12.9648 21.2679 12.6323 22.1053 12.6323C22.9426 12.6323 23.7457 12.9648 24.3379 13.5568L33.1579 22.3768L49.219 6.31579H44.2105ZM6.31579 50.5263V60C6.31579 60.8375 5.98308 61.6407 5.39086 62.233C4.79864 62.8252 3.99542 63.1579 3.15789 63.1579C2.32037 63.1579 1.51715 62.8252 0.924926 62.233C0.332706 61.6407 0 60.8375 0 60V50.5263C0 49.6888 0.332706 48.8856 0.924926 48.2933C1.51715 47.7011 2.32037 47.3684 3.15789 47.3684C3.99542 47.3684 4.79864 47.7011 5.39086 48.2933C5.98308 48.8856 6.31579 49.6888 6.31579 50.5263ZM22.1053 37.8947C22.1053 37.0572 21.7726 36.254 21.1803 35.6618C20.5881 35.0695 19.7849 34.7368 18.9474 34.7368C18.1098 34.7368 17.3066 35.0695 16.7144 35.6618C16.1222 36.254 15.7895 37.0572 15.7895 37.8947V60C15.7895 60.8375 16.1222 61.6407 16.7144 62.233C17.3066 62.8252 18.1098 63.1579 18.9474 63.1579C19.7849 63.1579 20.5881 62.8252 21.1803 62.233C21.7726 61.6407 22.1053 60.8375 22.1053 60V37.8947ZM34.7368 41.0526C35.5744 41.0526 36.3776 41.3853 36.9698 41.9776C37.562 42.5698 37.8947 43.373 37.8947 44.2105V60C37.8947 60.8375 37.562 61.6407 36.9698 62.233C36.3776 62.8252 35.5744 63.1579 34.7368 63.1579C33.8993 63.1579 33.0961 62.8252 32.5039 62.233C31.9117 61.6407 31.5789 60.8375 31.5789 60V44.2105C31.5789 43.373 31.9117 42.5698 32.5039 41.9776C33.0961 41.3853 33.8993 41.0526 34.7368 41.0526ZM53.6842 28.4211C53.6842 27.5835 53.3515 26.7803 52.7593 26.1881C52.1671 25.5959 51.3638 25.2632 50.5263 25.2632C49.6888 25.2632 48.8856 25.5959 48.2933 26.1881C47.7011 26.7803 47.3684 27.5835 47.3684 28.4211V60C47.3684 60.8375 47.7011 61.6407 48.2933 62.233C48.8856 62.8252 49.6888 63.1579 50.5263 63.1579C51.3638 63.1579 52.1671 62.8252 52.7593 62.233C53.3515 61.6407 53.6842 60.8375 53.6842 60V28.4211Z" fill="url(#paint0_linear)"/>
<defs>
<linearGradient id="paint0_linear" x1="30" y1="0" x2="30" y2="63.1579" gradientUnits="userSpaceOnUse">
<stop stop-color="white"/>
<stop offset="1" stop-color="white" stop-opacity="0.5"/>
</linearGradient>
</defs>
</svg>
