<svg width="45" height="60" viewBox="0 0 45 60" fill="none" xmlns="http://www.w3.org/2000/svg">
<path d="M22.5 60C25.8 60 28.5 57.3 28.5 54H16.5C16.5 57.3 19.2 60 22.5 60ZM13.5 51H31.5C33.15 51 34.5 49.65 34.5 48C34.5 46.35 33.15 45 31.5 45H13.5C11.85 45 10.5 46.35 10.5 48C10.5 49.65 11.85 51 13.5 51ZM22.5 0C10.08 0 0 10.08 0 22.5C0 33.96 7.98 40.08 11.31 42H33.69C37.02 40.08 45 33.96 45 22.5C45 10.08 34.92 0 22.5 0Z" fill="url(#paint0_linear)"/>
<defs>
<linearGradient id="paint0_linear" x1="22.5" y1="0" x2="22.5" y2="60" gradientUnits="userSpaceOnUse">
<stop stop-color="white"/>
<stop offset="1" stop-color="white" stop-opacity="0.5"/>
</linearGradient>
</defs>
</svg>
