<svg width="24" height="23" viewBox="0 0 24 23" fill="none" xmlns="http://www.w3.org/2000/svg">
<path fill-rule="evenodd" clip-rule="evenodd" d="M2.91085e-07 1.87649C2.91085e-07 1.37882 0.207188 0.901524 0.575984 0.549614C0.94478 0.197703 1.44498 2.50163e-06 1.96653 2.50163e-06H21.5698C21.8283 -0.000400312 22.0843 0.0478468 22.3232 0.141981C22.5621 0.236116 22.7792 0.374289 22.962 0.548591C23.1449 0.722893 23.2899 0.9299 23.3888 1.15776C23.4878 1.38562 23.5386 1.62986 23.5385 1.87649V20.5822C23.5387 20.8289 23.488 21.0732 23.3893 21.3011C23.2905 21.5291 23.1456 21.7363 22.9629 21.9107C22.7801 22.0852 22.5631 22.2236 22.3242 22.318C22.0854 22.4123 21.8294 22.4608 21.5709 22.4607H1.96653C1.70819 22.4607 1.45239 22.4121 1.21373 22.3178C0.975065 22.2234 0.758229 22.0851 0.575606 21.9107C0.392982 21.7364 0.248151 21.5294 0.149386 21.3016C0.0506219 21.0738 -0.000140263 20.8297 2.91085e-07 20.5832V1.87649ZM9.31695 8.56366H12.5043V10.091C12.9643 9.21297 14.1413 8.42277 15.9099 8.42277C19.3005 8.42277 20.104 10.1716 20.104 13.3805V19.3244H16.6727V14.1114C16.6727 12.284 16.2126 11.2528 15.0443 11.2528C13.4233 11.2528 12.7493 12.3646 12.7493 14.1114V19.3244H9.31695V8.56366ZM3.43234 19.1845H6.86467V8.42277H3.43234V19.1835V19.1845ZM7.35577 4.91277C7.36224 5.1932 7.30995 5.47203 7.20196 5.73291C7.09396 5.99379 6.93245 6.23145 6.7269 6.43196C6.52134 6.63247 6.27589 6.79178 6.00493 6.90055C5.73398 7.00931 5.44299 7.06534 5.14904 7.06534C4.85509 7.06534 4.5641 7.00931 4.29314 6.90055C4.02219 6.79178 3.77673 6.63247 3.57118 6.43196C3.36562 6.23145 3.20411 5.99379 3.09612 5.73291C2.98813 5.47203 2.93584 5.1932 2.94231 4.91277C2.95501 4.36233 3.19308 3.83853 3.60554 3.45353C4.018 3.06852 4.57205 2.85294 5.14904 2.85294C5.72603 2.85294 6.28008 3.06852 6.69253 3.45353C7.10499 3.83853 7.34307 4.36233 7.35577 4.91277Z" fill="#FFFEFE"/>
</svg>
