<svg width="229" height="60" viewBox="0 0 229 60" fill="none" xmlns="http://www.w3.org/2000/svg">
<path fill-rule="evenodd" clip-rule="evenodd" d="M4.54661 0.118202C4.35999 0.174704 4.10898 0.279624 3.98879 0.351339C3.86859 0.423053 3.60955 0.554834 3.41313 0.644195C3.13871 0.768935 3.08507 0.841344 3.18145 0.956348C3.25046 1.03867 3.39611 1.27154 3.50528 1.47382C3.67911 1.79606 3.67911 1.83552 3.50501 1.79284C3.2702 1.7353 3.36698 1.86725 3.76922 2.15272C3.91896 2.25894 4.05032 2.43497 4.06107 2.54389C4.09319 2.87021 4.28308 3.41707 4.481 3.75339C4.58337 3.92724 4.63237 4.09162 4.5899 4.11874C4.45011 4.20801 4.67566 4.59292 5.02182 4.85553C5.30046 5.06702 5.32509 5.12283 5.15794 5.16377C4.91156 5.2241 4.8842 5.48001 5.12404 5.48001C5.22736 5.48001 5.29025 5.59102 5.28412 5.76252C5.27854 5.91786 5.39016 6.1716 5.53227 6.32642C5.67438 6.48115 5.77267 6.69629 5.75075 6.80451C5.72883 6.91265 5.76109 7.05269 5.82248 7.11571C5.88388 7.17864 5.89776 7.25323 5.85352 7.28157C5.80928 7.30982 5.84127 7.38544 5.92458 7.4496C6.03606 7.53539 6.03579 7.56625 5.92335 7.56625C5.73101 7.56625 5.72053 8.06269 5.91205 8.10346C6.0057 8.12336 5.99155 8.25062 5.87013 8.48011C5.7694 8.67074 5.70093 8.9636 5.71822 9.13093C5.7355 9.29826 5.75442 9.48829 5.76014 9.55322C5.76749 9.6365 5.88102 9.65545 6.14496 9.61737L6.51929 9.56348L6.11093 9.79001C5.85965 9.92944 5.76518 10.0323 5.86536 10.0575C6.02163 10.0969 5.99699 10.9035 5.83038 11.208C5.7939 11.2747 5.8719 11.4054 6.0038 11.4984C6.23289 11.6601 6.23221 11.6728 5.98774 11.7869C5.62606 11.9558 5.65015 12.5232 6.03143 12.8165C6.18076 12.9314 6.18117 12.9797 6.03388 13.093C5.82112 13.2567 5.74054 14.9328 5.94159 15.0122C6.02313 15.0444 6.02027 15.084 5.93411 15.1181C5.81037 15.1669 5.72244 15.6159 5.75742 16.0199C5.76463 16.1036 5.8625 16.172 5.97481 16.172C6.08711 16.172 6.17899 16.2307 6.17899 16.3024C6.17899 16.3741 6.08711 16.4328 5.97481 16.4328C5.71917 16.4328 5.7031 16.7694 5.95588 16.8313C6.23752 16.9003 6.26406 18.0844 5.98406 18.0844C5.85788 18.0844 5.80928 18.1344 5.85747 18.2148C5.90062 18.2865 5.86999 18.3452 5.78941 18.3452C5.62089 18.3452 5.74612 18.6137 5.96487 18.7212C6.06642 18.7711 6.05893 18.8065 5.94077 18.8371C5.72679 18.8925 5.71631 19.1275 5.92784 19.1275C6.02027 19.1275 5.98964 19.1949 5.85338 19.291C5.64471 19.4382 5.64253 19.4679 5.83106 19.5883C5.96432 19.6734 5.98624 19.7335 5.8915 19.7537C5.79036 19.7753 5.81173 19.8912 5.95765 20.1145C6.14414 20.3993 6.14727 20.4688 5.98188 20.633C5.8768 20.7373 5.74884 20.9693 5.69752 21.1485C5.61381 21.4411 5.63369 21.4745 5.89164 21.4745C6.20608 21.4745 6.24269 21.5363 6.04572 21.7353C5.95343 21.8286 5.97821 21.8794 6.13257 21.914C6.32845 21.9579 6.32791 21.9755 6.12658 22.104C6.00448 22.182 5.96065 22.2679 6.02898 22.2948C6.21166 22.3669 6.04287 22.6915 5.82276 22.6915C5.58509 22.6915 5.58672 22.7086 5.85883 23.073C6.06723 23.352 6.06723 23.3838 5.8591 23.5166C5.68269 23.6293 5.66676 23.6977 5.78451 23.838C5.89831 23.9739 5.89504 24.001 5.77062 23.9519C5.64471 23.9022 5.64335 23.9305 5.76463 24.0751C5.85107 24.1783 5.87816 24.3493 5.8248 24.4551C5.77144 24.5608 5.71277 24.7634 5.69467 24.9052C5.67643 25.0471 5.59421 25.1775 5.51185 25.195C5.29733 25.2407 5.32727 25.3913 5.58754 25.5749C5.7973 25.723 5.79703 25.7339 5.58495 25.7339C5.4099 25.7339 5.37682 25.7843 5.44243 25.9512C5.49511 26.0851 5.46993 26.1686 5.37696 26.1686C5.29406 26.1686 5.22614 26.2859 5.22614 26.4293C5.22614 26.5728 5.278 26.6901 5.34129 26.6901C5.40473 26.6901 5.34551 26.8955 5.2098 27.1465C4.95539 27.6172 4.98819 28.1487 5.27977 28.2782C5.38254 28.3238 5.35259 28.383 5.18584 28.4645C5.01161 28.5497 4.96642 28.6477 5.02849 28.8056C5.0764 28.9275 5.06973 29.0747 5.01365 29.1327C4.95757 29.1906 4.89931 29.4745 4.8842 29.7637C4.86841 30.066 4.79068 30.3033 4.70111 30.3224C4.61549 30.3406 4.54553 30.4478 4.54553 30.5604C4.54553 30.6732 4.48849 30.7879 4.41893 30.8154C4.28063 30.87 4.30187 31.2027 4.45364 31.3596C4.50605 31.4137 4.47229 31.5655 4.37864 31.6967C4.24143 31.8891 4.24225 31.9426 4.38259 31.9725C4.51435 32.0005 4.51912 32.0386 4.40205 32.1287C4.31684 32.1942 4.22292 32.4349 4.19324 32.6635C4.1083 33.3167 4.03793 33.5827 3.88302 33.8369C3.77045 34.0214 3.78297 34.101 3.94006 34.2014C4.10994 34.3098 4.11184 34.3405 3.9519 34.3999C3.64631 34.5133 3.60302 35.1189 3.86791 35.5739C4.09605 35.9657 4.09564 35.9883 3.85797 36.1257C3.53115 36.3145 3.2732 36.7736 3.49399 36.7736C3.58151 36.7736 3.51713 36.8345 3.35079 36.9089C3.00612 37.0631 2.94705 37.2952 3.25237 37.2952C3.51223 37.2952 3.51032 37.4447 3.24611 37.7681C3.12714 37.9139 3.03076 38.2691 3.02205 38.5939C3.01116 39.0069 2.94691 39.1926 2.78928 39.2674C2.59299 39.3606 2.5979 39.3831 2.84033 39.4977C3.0667 39.6048 3.08439 39.6568 2.95304 39.829C2.69522 40.167 2.616 40.5114 2.79609 40.5114C2.88484 40.5114 2.9171 40.5372 2.86783 40.5686C2.81855 40.6001 2.85203 40.6826 2.94215 40.7519C3.07269 40.8524 3.05867 40.9001 2.87286 40.9868C2.74477 41.0467 2.63982 41.1575 2.63982 41.233C2.63982 41.3087 2.58891 41.3905 2.52684 41.4151C2.39712 41.4663 2.42733 42.0856 2.57789 42.4591C2.65085 42.6404 2.62267 42.7387 2.47811 42.8068C2.20641 42.9351 2.06661 43.5213 2.2742 43.6619C2.46858 43.7934 2.52194 44.0754 2.35247 44.0754C2.2859 44.0754 2.23146 44.1341 2.23146 44.2058C2.23146 44.2775 2.13808 44.3362 2.02401 44.3362C1.84677 44.3362 1.82432 44.4883 1.86964 45.3814C1.89864 45.9564 1.87767 46.4444 1.82282 46.466C1.6675 46.5274 1.52553 47.2524 1.48469 48.1929C1.45937 48.7767 1.39158 49.0726 1.27221 49.1197C1.15664 49.1653 1.10518 49.3619 1.12097 49.6963C1.13431 49.9766 1.0653 50.301 0.966748 50.4211C0.843149 50.5718 0.825861 50.7183 0.910257 50.8992C0.977229 51.0426 1.08218 51.2676 1.14357 51.399C1.20796 51.5372 1.20251 51.6381 1.13064 51.6381C1.06231 51.6381 1.00636 51.7506 1.00636 51.8882C1.00636 52.0258 0.907126 52.1909 0.785977 52.2552C0.6097 52.3486 0.581931 52.4726 0.647678 52.8742C0.714786 53.2841 0.692734 53.3766 0.527891 53.3766C0.300568 53.3766 0.252516 53.5983 0.461872 53.6808C0.675855 53.7653 0.620862 54.0718 0.381287 54.1306C0.209502 54.1727 0.18255 54.2607 0.2517 54.5548C0.303018 54.7732 0.282191 54.9481 0.201334 54.9801C0.111086 55.0158 0.108908 55.1098 0.194801 55.2543C0.360325 55.5321 0.361822 55.6612 0.199021 55.597C-0.0552549 55.4966 -0.0699562 55.7063 0.178466 55.8893C0.420082 56.0672 0.425527 56.419 0.186769 56.419C0.0554116 56.419 0.189901 57.1406 0.33242 57.2014C0.388503 57.2253 0.455883 57.3426 0.482154 57.4621C0.51741 57.6224 0.601397 57.6728 0.802176 57.6541C1.02392 57.6335 1.03685 57.6449 0.871463 57.7156C0.694641 57.7913 0.702535 57.8392 0.932717 58.0887C1.0781 58.2461 1.30719 58.4507 1.44195 58.5434C1.57671 58.6361 1.68697 58.7406 1.68697 58.7755C1.68697 58.8106 1.87482 58.8655 2.10459 58.8977C2.33423 58.9299 2.55515 59.0113 2.59558 59.0785C2.64118 59.1545 2.86919 59.2007 3.19887 59.2007C3.49031 59.2007 3.7288 59.2398 3.7288 59.2876C3.7288 59.404 4.36938 59.3992 4.48291 59.282C4.54226 59.2207 4.65347 59.2361 4.81164 59.3275C4.94681 59.4057 5.15004 59.4413 5.27963 59.4096C5.4148 59.3764 5.62184 59.419 5.78532 59.5134C6.07907 59.6832 6.50636 59.7222 6.88532 59.6137C7.01178 59.5775 7.15321 59.5872 7.19963 59.6351C7.33071 59.7706 7.59751 59.7386 7.91563 59.5493C8.18774 59.3875 8.62918 59.3893 8.62918 59.5523C8.62918 59.592 8.73631 59.6276 8.86739 59.6314C11.5634 59.7089 12.4798 59.7133 12.3239 59.6477C12.2103 59.5999 12.1916 59.5494 12.2756 59.5163C12.3507 59.4867 12.4462 59.5192 12.4878 59.5885C12.5376 59.6715 12.7642 59.715 13.1487 59.7157C15.0144 59.7189 15.3442 59.7315 15.5683 59.808C15.7475 59.8694 15.8621 59.8562 15.9872 59.7599C16.082 59.687 16.2397 59.647 16.3379 59.6711C16.436 59.6952 16.61 59.655 16.7245 59.5819C16.839 59.5088 16.933 59.4812 16.9334 59.5205C16.934 59.5597 17.1218 59.66 17.3508 59.7432C17.7374 59.8838 17.7979 59.8845 18.1923 59.7542C18.5167 59.6471 18.6744 59.6367 18.8586 59.7102C18.9912 59.7631 19.1879 59.7847 19.2955 59.7584C19.4032 59.732 19.5319 59.7521 19.5813 59.8033C19.6806 59.9059 20.8905 59.9144 21.4246 59.8162C21.6215 59.78 22.0519 59.8079 22.4455 59.8822C23.0141 59.9895 23.8635 60.0199 25.4104 59.988C26.2311 59.9711 25.3396 59.2613 24.374 59.1627C24.0778 59.1324 23.6664 59.0308 23.4598 58.9369C23.0491 58.7501 22.7858 58.7174 22.7858 58.853C22.7858 58.9778 22.4692 58.9602 22.0187 58.81C21.8043 58.7387 21.5318 58.68 21.4133 58.6796C21.2948 58.6794 21.1518 58.6498 21.0956 58.6139C21.0395 58.5781 20.8302 58.54 20.6306 58.5293C20.4309 58.5186 20.0073 58.4851 19.6891 58.4549C19.1986 58.4084 19.1106 58.423 19.1106 58.5502C19.1106 58.6584 19.0629 58.6763 18.9404 58.6142C18.3669 58.3235 16.7965 58.2826 16.7965 58.5584C16.7965 58.7188 16.659 58.7112 16.463 58.54C16.3753 58.4634 16.1103 58.391 15.874 58.3791C15.6377 58.3672 15.3458 58.3053 15.2252 58.2414C15.0842 58.1667 14.9734 58.1565 14.9145 58.2129C14.864 58.2612 14.7155 58.3259 14.5845 58.3568C14.4534 58.3877 14.3463 58.4728 14.3463 58.546C14.3463 58.6192 14.285 58.6791 14.2102 58.6791C14.1353 58.6791 14.0741 58.5618 14.0741 58.4183C14.0741 58.1197 13.9083 58.0936 13.2799 58.2938C13.0448 58.3687 12.7869 58.4041 12.7068 58.3725C12.5122 58.2957 11.9078 58.2341 11.4877 58.2483C11.3006 58.2547 11.0556 58.2572 10.9433 58.2539C10.6688 58.246 8.63639 58.2636 8.26614 58.2772C7.94435 58.2889 7.65332 58.4183 7.94857 58.4183C8.04835 58.4183 8.09586 58.4402 8.05393 58.4669C8.012 58.4937 7.74235 58.435 7.45472 58.3365C6.77833 58.1051 6.53413 58.105 6.62887 58.3364C6.68413 58.4714 6.66072 58.4933 6.53358 58.426C6.44102 58.3769 6.00176 58.3099 5.55746 58.277C5.11315 58.2442 4.61794 58.1629 4.45705 58.0962C4.22033 57.9983 4.15241 57.9967 4.10204 58.088C4.05399 58.1754 3.9406 58.1646 3.60261 58.0405C3.36222 57.9521 3.12931 57.903 3.08494 57.9312C3.0407 57.9595 2.91901 57.9046 2.81446 57.8093C2.70992 57.714 2.55134 57.6348 2.46191 57.6333C2.2241 57.6293 1.8804 57.2879 1.7779 56.9541C1.70303 56.7102 1.73243 56.6559 1.96003 56.6179C2.29884 56.5613 2.2987 56.5008 1.95921 56.1148C1.80948 55.9446 1.69132 55.7575 1.6965 55.6993C1.70181 55.6409 1.7587 55.6715 1.82309 55.7671L1.94002 55.9409L1.97037 55.7671C1.98698 55.6715 2.00822 55.5541 2.01761 55.5063C2.02686 55.4585 2.0937 55.3607 2.16598 55.289C2.23826 55.2173 2.30932 54.963 2.32375 54.724C2.33831 54.4849 2.39058 54.1473 2.43999 53.9736C2.49553 53.7784 2.4728 53.6355 2.38065 53.599C2.17823 53.5192 2.19171 53.3766 2.40161 53.3765C2.52548 53.3764 2.58142 53.1119 2.60715 52.4045C2.63465 51.6475 2.69209 51.3976 2.86646 51.2745C3.026 51.162 3.04002 51.1165 2.91533 51.1165C2.73728 51.1165 2.74286 51.07 3.0279 50.1852C3.10359 49.9502 3.09705 49.8085 3.00953 49.7899C2.92159 49.7711 2.92826 49.6949 3.02818 49.5757C3.11352 49.4739 3.14606 49.3286 3.10059 49.2528C3.05499 49.177 3.08303 49.0648 3.16267 49.0034C3.24243 48.942 3.30872 48.8155 3.30995 48.722C3.31335 48.4699 3.47711 47.9562 3.58573 47.8568C3.73832 47.717 3.74431 47.2212 3.59417 47.1619C3.51849 47.132 3.45655 46.9535 3.45655 46.765C3.45655 46.5766 3.39162 46.4225 3.3124 46.4225C3.23318 46.4225 3.20677 46.3827 3.25373 46.3341C3.30083 46.2856 3.39625 46.2683 3.46594 46.2958C3.74023 46.404 3.57389 46.0762 3.29007 45.9493C2.98176 45.8114 3.08017 45.773 3.6444 45.8114C3.85253 45.8254 3.88438 45.7885 3.81551 45.6131C3.75629 45.4624 3.794 45.382 3.94074 45.346C4.09891 45.3072 4.14342 45.1817 4.12083 44.8371C4.10449 44.5855 4.02486 44.3509 3.94387 44.3158C3.84423 44.2726 3.85171 44.2516 3.96701 44.2506C4.06066 44.2499 4.13716 44.1515 4.13716 44.032C4.13716 43.9125 4.07591 43.8147 4.00104 43.8147C3.92617 43.8147 3.86492 43.7518 3.86492 43.675C3.86492 43.594 3.94155 43.5541 4.04718 43.58C4.18548 43.6139 4.2368 43.4964 4.25953 43.0945C4.27601 42.8029 4.33005 42.523 4.37959 42.4724C4.5424 42.3063 4.56799 42.1322 4.59167 41.033C4.60719 40.3111 4.6762 39.8777 4.79708 39.7415C4.92381 39.5989 4.93579 39.5089 4.83669 39.4456C4.73923 39.3834 4.73814 39.3026 4.83356 39.1888C4.91006 39.0975 4.95539 38.9176 4.93429 38.7892C4.91319 38.6606 4.94572 38.5041 5.00657 38.4411C5.06742 38.3782 5.08103 38.3036 5.03679 38.2753C4.99255 38.247 5.01855 38.176 5.09464 38.1174C5.1917 38.0427 5.17604 37.9969 5.04237 37.9642C4.8876 37.9263 4.88039 37.8587 5.00412 37.6063C5.08797 37.4352 5.20286 37.2952 5.25948 37.2952C5.43903 37.2952 5.37042 37.1142 5.13371 36.963C4.91986 36.8264 4.91986 36.8152 5.13371 36.789C5.25948 36.7735 5.36226 36.6867 5.36226 36.5961C5.36226 36.4854 5.29529 36.4477 5.15807 36.4814C5.04577 36.5089 4.95389 36.5072 4.95389 36.4774C4.95389 36.4007 5.26411 36.0624 5.45918 35.9265C5.57665 35.8447 5.58563 35.7467 5.49035 35.5866C5.40745 35.4474 5.40473 35.3242 5.483 35.2635C5.64498 35.1379 5.7973 34.2777 5.66581 34.2302C5.61122 34.2105 5.64988 34.2079 5.7517 34.2245C5.88932 34.2469 5.91355 34.195 5.8459 34.0229C5.78668 33.8721 5.81704 33.7655 5.93288 33.7177C6.05525 33.6672 6.06519 33.6238 5.96487 33.579C5.86128 33.5328 5.86713 33.3019 5.98488 32.7852C6.14115 32.1 6.14891 31.871 6.02599 31.558C5.99781 31.4863 6.04913 31.4369 6.14006 31.4483C6.23562 31.4603 6.2725 31.4144 6.22758 31.3396C6.18484 31.2685 6.21765 31.2103 6.30055 31.2103C6.39352 31.2103 6.45123 31.016 6.45123 30.7033C6.45123 30.4243 6.4971 30.1668 6.55332 30.1309C6.60941 30.0951 6.66903 29.805 6.68577 29.4863C6.70238 29.1675 6.74199 28.5254 6.7737 28.0592C6.80542 27.593 6.77792 27.2117 6.71272 27.2117C6.58885 27.2117 6.80733 26.7706 6.97026 26.6919C7.35739 26.5047 7.4275 26.0275 7.10652 25.7641C7.02988 25.7012 7.04989 25.6446 7.16015 25.612C7.29913 25.5709 7.30036 25.5495 7.16587 25.5094C6.93664 25.4411 6.95093 25.2142 7.19514 25.0419C7.3676 24.9201 7.36869 24.8693 7.20317 24.6656C7.09795 24.536 7.0695 24.43 7.13987 24.43C7.30839 24.43 7.30635 23.4124 7.13783 23.3458C6.99027 23.2875 7.10748 23.0266 7.32228 22.9352C7.40939 22.8981 7.37142 22.8519 7.22427 22.8158C6.99994 22.7609 6.99899 22.7463 7.21011 22.5973C7.47677 22.4092 7.37441 21.9961 7.06119 21.9961C6.95025 21.9961 6.8596 21.9582 6.8596 21.9118C6.8596 21.8656 6.94358 21.8483 7.04622 21.8734C7.14886 21.8985 7.26946 21.8582 7.31424 21.7837C7.36502 21.699 7.32064 21.6484 7.19568 21.6484C6.94821 21.6484 6.94794 21.5655 7.19486 21.3573C7.31329 21.2576 7.34664 21.1298 7.28294 21.0198C7.22658 20.9225 7.22576 20.6623 7.28103 20.4416C7.33629 20.2209 7.34936 19.9523 7.31002 19.8446C7.27069 19.737 7.29995 19.6491 7.37495 19.6491C7.46234 19.6491 7.47038 19.5324 7.39714 19.3253C7.31724 19.0988 7.33167 18.9816 7.4456 18.9355C7.56879 18.8854 7.56634 18.8691 7.43553 18.868C7.32173 18.8671 7.29056 18.796 7.34419 18.6595C7.38897 18.5456 7.3627 18.3069 7.28593 18.1291C7.1901 17.9077 7.19051 17.6529 7.28702 17.3193C7.41143 16.8899 7.39946 16.8194 7.18574 16.7197C7.0469 16.6549 7.01573 16.6066 7.11251 16.6066C7.22835 16.6066 7.27177 16.4716 7.25081 16.1776C7.23393 15.9416 7.28566 15.6971 7.36597 15.6343C7.52401 15.5105 7.48576 14.8503 7.30213 14.5333C7.23883 14.4242 7.24618 14.1132 7.31874 13.8333C7.48725 13.1821 7.38707 13.0046 6.89526 13.0835L6.52515 13.1429L6.91282 12.9134C7.48916 12.5724 7.57492 12.1936 7.18683 11.7047C6.93487 11.3871 6.91023 11.3041 7.06841 11.3041C7.30118 11.3041 7.33534 11.0342 7.12 10.8967C7.01341 10.8286 7.01341 10.7858 7.12 10.7438C7.33589 10.6585 7.30077 10.3813 7.05412 10.2237C6.8596 10.0996 6.8596 10.0871 7.05412 10.0871C7.28797 10.0871 7.35195 9.85868 7.13116 9.81174C7.05561 9.79566 6.99531 9.49124 6.9964 9.13076C6.99749 8.77227 6.99436 8.42031 6.98946 8.34859C6.92493 7.4083 6.86736 7.11423 6.68046 6.76809C6.55972 6.54425 6.43748 6.18855 6.40917 5.97767C6.38072 5.76678 6.32246 5.55798 6.27958 5.51365C6.2367 5.46941 6.20172 5.24453 6.20172 5.014C6.20172 4.50713 5.95384 4.08971 5.65206 4.08788C5.52043 4.0871 5.48749 4.06059 5.57093 4.02269C5.84263 3.89934 5.72148 3.40559 5.3824 3.25391C5.1431 3.1469 5.10648 3.09327 5.23757 3.04154C5.38023 2.98522 5.37995 2.94706 5.23566 2.83605C5.1382 2.76112 5.04414 2.57231 5.02672 2.41654C5.00535 2.22687 4.90121 2.10587 4.71119 2.05006C4.48345 1.98313 4.44344 1.91463 4.50809 1.70235C4.55247 1.55692 4.64013 1.42488 4.70302 1.40898C4.76591 1.39307 4.77966 1.28432 4.73365 1.16732C4.65265 0.961216 4.66763 0.956348 5.21035 1.01172C5.68323 1.06005 5.77062 1.0458 5.77062 0.920187C5.77062 0.838389 5.69412 0.788927 5.60047 0.810225C5.42297 0.850732 4.68165 0.64576 4.68165 0.556312C4.68165 0.528061 4.82635 0.522584 5.00317 0.544142C5.33694 0.584911 5.6345 0.392194 5.6345 0.135239C5.6345 -0.0237497 5.0455 -0.0329638 4.54661 0.118202ZM5.80384 0.322218C5.85407 0.802314 6.43109 1.1701 6.63377 0.851167C6.68727 0.766848 6.73178 0.769021 6.83278 0.86099C6.94249 0.961042 6.97353 0.961042 7.03166 0.86099C7.08433 0.770499 7.14872 0.782495 7.3039 0.911494C7.49488 1.07031 7.52768 1.07196 7.84566 0.938963C8.10647 0.829783 8.22109 0.820917 8.34537 0.900281C8.55976 1.03719 9.424 1.03484 9.50676 0.897064C9.55168 0.82222 9.68576 0.8556 9.93717 1.00451C10.37 1.26068 10.4802 1.27181 10.5716 1.06848C10.6093 0.984773 10.6815 0.852558 10.732 0.774585C10.8454 0.599515 10.2399 0.437657 9.24173 0.376026C8.86739 0.352903 8.50286 0.298835 8.4318 0.255807C8.36075 0.212691 8.17385 0.177485 8.01663 0.177485C7.85941 0.177485 7.65727 0.130545 7.56743 0.0731735C7.44043 -0.0079291 7.40218 0.0161499 7.39551 0.181832L7.3868 0.394802L7.26374 0.199217C7.13429 -0.00627744 6.55809 -0.081469 6.59756 0.112291C6.68495 0.542143 6.3294 0.671316 6.17899 0.264412C6.04668 -0.0933779 5.76491 -0.0500015 5.80384 0.322218ZM10.3988 0.348296C10.3988 0.394367 10.5213 0.473992 10.671 0.525192C10.9017 0.604035 10.9433 0.591257 10.9433 0.441308C10.9433 0.322393 10.8541 0.264412 10.671 0.264412C10.5213 0.264412 10.3988 0.302138 10.3988 0.348296ZM11.1819 0.424096C11.1451 0.513891 11.1713 0.651671 11.24 0.730165C11.3324 0.83552 11.3098 0.872899 11.1542 0.872899C10.9076 0.872899 10.8953 0.914102 11.0776 1.13159C11.2077 1.28684 11.6102 1.28928 11.9642 1.1369C12.2139 1.02937 12.849 1.04467 12.849 1.15819C12.849 1.29945 14.4943 1.50859 14.6787 1.39081C14.8765 1.2645 15.3807 1.29119 15.5714 1.43792C15.798 1.6123 15.9788 1.60273 15.9841 1.41619C15.9882 1.27128 15.997 1.27128 16.1692 1.41619C16.2762 1.50616 16.5308 1.56831 16.7925 1.56831H17.2351L16.9137 1.38785C16.7369 1.28858 16.6658 1.23104 16.7557 1.2599C16.934 1.31727 17.2612 1.00146 17.1465 0.882808C17.0318 0.764414 16.1544 0.704087 15.7155 0.784494C15.2146 0.876202 14.7502 0.807617 14.8416 0.655408C14.9233 0.519455 13.9702 0.503808 13.6997 0.636719C13.5886 0.691309 13.4652 0.686267 13.3443 0.622202C13.2425 0.568221 12.8115 0.508328 12.3865 0.489117C11.9616 0.469994 11.5317 0.41071 11.4314 0.357511C11.291 0.283101 11.2333 0.298574 11.1819 0.424096ZM7.04268 0.572393C6.99831 0.646194 6.93283 0.687919 6.89717 0.665144C6.8615 0.642369 6.87266 0.581955 6.92208 0.531016C7.05629 0.392281 7.1347 0.419228 7.04268 0.572393ZM8.22081 0.612119C8.22081 0.659928 8.19522 0.699045 8.16392 0.699045C8.13261 0.699045 8.00942 0.72295 7.89004 0.752158C7.73132 0.791101 7.69579 0.767804 7.75746 0.665231C7.84879 0.513196 8.22081 0.470515 8.22081 0.612119ZM12.4406 0.612119C12.4406 0.659928 12.4136 0.699045 12.3806 0.699045C12.3475 0.699045 12.2827 0.659928 12.2364 0.612119C12.1901 0.564309 12.2172 0.525192 12.2964 0.525192C12.3757 0.525192 12.4406 0.564309 12.4406 0.612119ZM18.5661 1.02293C18.4538 1.05006 18.3162 1.12151 18.2601 1.18184C18.1411 1.30997 17.6177 1.24616 17.6037 1.10178C17.5948 1.01163 17.3727 1.27876 17.3505 1.40602C17.3349 1.49651 17.9077 1.58361 18.6601 1.60517C19.0486 1.6163 19.4468 1.66697 19.5449 1.71783C19.8538 1.87812 20.8328 1.83448 21.2131 1.64342C21.7383 1.37959 21.6633 1.22721 21.0163 1.24364C20.7168 1.25129 20.4718 1.29701 20.4718 1.34534C20.4718 1.39368 20.3739 1.34395 20.2544 1.23486C20.0836 1.07918 19.9551 1.04814 19.6548 1.09022C19.4398 1.12038 19.2336 1.1036 19.1835 1.05188C19.088 0.953132 18.8928 0.943918 18.5661 1.02293ZM22.0021 1.39307C21.7525 1.64828 21.7809 1.9474 22.0483 1.88186C22.1668 1.85282 22.3067 1.82909 22.3592 1.82909C22.5095 1.82909 22.4616 1.28215 22.3083 1.24938C22.2329 1.2333 22.095 1.29797 22.0021 1.39307ZM22.8539 1.39446C22.8076 1.44227 22.8653 1.48139 22.982 1.48139C23.0987 1.48139 23.1942 1.5205 23.1942 1.56831C23.1942 1.61612 23.2926 1.65524 23.413 1.65524C23.5566 1.65524 23.6033 1.60795 23.5491 1.51772C23.5036 1.44209 23.4665 1.36386 23.4665 1.34387C23.4665 1.26772 22.9341 1.31162 22.8539 1.39446ZM25.7197 1.474C25.6759 1.51929 25.698 1.57918 25.769 1.60717C25.8399 1.63516 25.9337 1.62099 25.9775 1.5757C26.0213 1.53041 25.9991 1.47052 25.9282 1.44253C25.8573 1.41454 25.7635 1.42871 25.7197 1.474ZM23.8748 1.59517C23.8748 1.65776 23.9655 1.78485 24.0764 1.87768C24.2437 2.01764 24.2995 2.02555 24.4042 1.92375C24.4846 1.84561 24.4738 1.74321 24.3741 1.64124C24.1938 1.45687 23.8748 1.4274 23.8748 1.59517ZM25.0999 1.74217C25.0999 1.78997 25.1648 1.82909 25.2441 1.82909C25.3233 1.82909 25.3504 1.78997 25.3041 1.74217C25.2578 1.69436 25.193 1.65524 25.16 1.65524C25.1269 1.65524 25.0999 1.69436 25.0999 1.74217ZM6.38317 28.6025C6.42945 28.6503 6.40236 28.6894 6.32314 28.6894C6.24392 28.6894 6.17899 28.6503 6.17899 28.6025C6.17899 28.5547 6.20594 28.5156 6.23902 28.5156C6.27209 28.5156 6.33689 28.5547 6.38317 28.6025ZM4.95389 31.9108C4.95389 31.9559 4.89264 31.9926 4.81777 31.9926C4.7429 31.9926 4.68165 31.9316 4.68165 31.8571C4.68165 31.7826 4.7429 31.7458 4.81777 31.7753C4.89264 31.8049 4.95389 31.8658 4.95389 31.9108ZM2.24833 52.0959C2.11385 52.1811 2.09833 52.1711 2.17211 52.0472C2.22329 51.9615 2.29938 51.9133 2.34131 51.94C2.38323 51.9667 2.34144 52.0369 2.24833 52.0959ZM0.597994 56.892C0.597994 56.9131 0.536739 56.9545 0.461872 56.9841C0.387005 57.0136 0.32575 56.9963 0.32575 56.9457C0.32575 56.8951 0.387005 56.8537 0.461872 56.8537C0.536739 56.8537 0.597994 56.8709 0.597994 56.892ZM0.870237 57.1528C0.870237 57.1739 0.808982 57.2153 0.734115 57.2448C0.659248 57.2744 0.597994 57.2571 0.597994 57.2065C0.597994 57.1559 0.659248 57.1144 0.734115 57.1144C0.808982 57.1144 0.870237 57.1316 0.870237 57.1528Z" fill="#FFFEFE"/>
<path fill-rule="evenodd" clip-rule="evenodd" d="M224.453 59.8818C224.64 59.8253 224.891 59.7204 225.011 59.6487C225.131 59.5769 225.39 59.4452 225.587 59.3558C225.861 59.2311 225.915 59.1587 225.819 59.0437C225.75 58.9613 225.604 58.7285 225.495 58.5262C225.321 58.2039 225.321 58.1645 225.495 58.2072C225.73 58.2647 225.633 58.1327 225.231 57.8473C225.081 57.7411 224.95 57.565 224.939 57.4561C224.907 57.1298 224.717 56.5829 224.519 56.2466C224.417 56.0728 224.368 55.9084 224.41 55.8813C224.55 55.792 224.324 55.4071 223.978 55.1445C223.7 54.933 223.675 54.8772 223.842 54.8362C224.088 54.7759 224.116 54.52 223.876 54.52C223.773 54.52 223.71 54.409 223.716 54.2375C223.721 54.0821 223.61 53.8284 223.468 53.6736C223.326 53.5189 223.227 53.3037 223.249 53.1955C223.271 53.0874 223.239 52.9473 223.178 52.8843C223.116 52.8214 223.102 52.7468 223.146 52.7184C223.191 52.6902 223.159 52.6146 223.075 52.5504C222.964 52.4646 222.964 52.4337 223.077 52.4337C223.269 52.4337 223.279 51.9373 223.088 51.8965C222.994 51.8766 223.008 51.7494 223.13 51.5199C223.231 51.3293 223.299 51.0364 223.282 50.8691C223.264 50.7017 223.246 50.5117 223.24 50.4468C223.233 50.3635 223.119 50.3446 222.855 50.3826L222.481 50.4365L222.889 50.21C223.14 50.0706 223.235 49.9677 223.135 49.9425C222.978 49.9031 223.003 49.0965 223.17 48.792C223.206 48.7253 223.128 48.5946 222.996 48.5016C222.767 48.3399 222.768 48.3272 223.012 48.2131C223.374 48.0442 223.35 47.4768 222.969 47.1835C222.819 47.0686 222.819 47.0203 222.966 46.907C223.179 46.7433 223.259 45.0672 223.058 44.9878C222.977 44.9556 222.98 44.916 223.066 44.8819C223.19 44.8331 223.278 44.3841 223.243 43.9801C223.235 43.8964 223.137 43.828 223.025 43.828C222.913 43.828 222.821 43.7693 222.821 43.6976C222.821 43.6259 222.913 43.5672 223.025 43.5672C223.281 43.5672 223.297 43.2306 223.044 43.1687C222.762 43.0997 222.736 41.9156 223.016 41.9156C223.142 41.9156 223.191 41.8656 223.143 41.7852C223.099 41.7135 223.13 41.6548 223.211 41.6548C223.379 41.6548 223.254 41.3863 223.035 41.2788C222.934 41.2289 222.941 41.1935 223.059 41.1629C223.273 41.1075 223.284 40.8725 223.072 40.8725C222.98 40.8725 223.01 40.8051 223.147 40.709C223.355 40.5618 223.357 40.5321 223.169 40.4117C223.036 40.3266 223.014 40.2665 223.109 40.2463C223.21 40.2247 223.188 40.1088 223.042 39.8855C222.856 39.6007 222.853 39.5312 223.018 39.367C223.123 39.2627 223.251 39.0307 223.302 38.8515C223.386 38.5589 223.366 38.5255 223.108 38.5255C222.794 38.5255 222.757 38.4637 222.954 38.2647C223.047 38.1714 223.022 38.1206 222.867 38.086C222.672 38.0421 222.672 38.0245 222.873 37.896C222.996 37.818 223.039 37.7321 222.971 37.7052C222.788 37.6331 222.957 37.3085 223.177 37.3085C223.415 37.3085 223.413 37.2914 223.141 36.927C222.933 36.648 222.933 36.6162 223.141 36.4834C223.317 36.3707 223.333 36.3023 223.215 36.162C223.102 36.0261 223.105 35.999 223.229 36.0481C223.355 36.0978 223.357 36.0695 223.235 35.9249C223.149 35.8217 223.122 35.6507 223.175 35.5449C223.229 35.4392 223.287 35.2366 223.305 35.0948C223.324 34.9529 223.406 34.8225 223.488 34.805C223.703 34.7593 223.673 34.6087 223.412 34.4251C223.203 34.277 223.203 34.2661 223.415 34.2661C223.59 34.2661 223.623 34.2157 223.558 34.0488C223.505 33.9149 223.53 33.8314 223.623 33.8314C223.706 33.8314 223.774 33.7141 223.774 33.5707C223.774 33.4272 223.722 33.3099 223.659 33.3099C223.595 33.3099 223.654 33.1045 223.79 32.8535C224.045 32.3828 224.012 31.8513 223.72 31.7218C223.617 31.6762 223.647 31.617 223.814 31.5355C223.988 31.4503 224.034 31.3523 223.972 31.1944C223.924 31.0725 223.93 30.9253 223.986 30.8673C224.042 30.8094 224.101 30.5255 224.116 30.2363C224.132 29.934 224.209 29.6967 224.299 29.6776C224.385 29.6594 224.454 29.5522 224.454 29.4396C224.454 29.3268 224.512 29.2121 224.581 29.1846C224.719 29.13 224.698 28.7973 224.546 28.6404C224.494 28.5863 224.528 28.4345 224.621 28.3033C224.759 28.1109 224.758 28.0574 224.617 28.0275C224.486 27.9995 224.481 27.9614 224.598 27.8713C224.683 27.8058 224.777 27.5651 224.807 27.3365C224.892 26.6833 224.962 26.4173 225.117 26.1631C225.23 25.9786 225.217 25.899 225.06 25.7986C224.89 25.6902 224.888 25.6595 225.048 25.6001C225.354 25.4867 225.397 24.8811 225.132 24.4261C224.904 24.0343 224.904 24.0117 225.142 23.8743C225.469 23.6855 225.727 23.2264 225.506 23.2264C225.418 23.2264 225.483 23.1655 225.649 23.0911C225.994 22.9369 226.053 22.7048 225.748 22.7048C225.488 22.7048 225.49 22.5553 225.754 22.2319C225.873 22.0861 225.969 21.7309 225.978 21.4061C225.989 20.9931 226.053 20.8074 226.211 20.7326C226.407 20.6394 226.402 20.6169 226.16 20.5023C225.933 20.3952 225.916 20.3432 226.047 20.171C226.305 19.833 226.384 19.4886 226.204 19.4886C226.115 19.4886 226.083 19.4628 226.132 19.4314C226.181 19.3999 226.148 19.3174 226.058 19.2481C225.927 19.1476 225.941 19.0999 226.127 19.0132C226.255 18.9533 226.36 18.8425 226.36 18.767C226.36 18.6913 226.411 18.6095 226.473 18.5849C226.603 18.5337 226.573 17.9144 226.422 17.5409C226.349 17.3596 226.377 17.2613 226.522 17.1932C226.794 17.0649 226.933 16.4787 226.726 16.3381C226.531 16.2066 226.478 15.9246 226.648 15.9246C226.714 15.9246 226.769 15.8659 226.769 15.7942C226.769 15.7225 226.862 15.6638 226.976 15.6638C227.153 15.6638 227.176 15.5117 227.13 14.6186C227.101 14.0436 227.122 13.5556 227.177 13.534C227.332 13.4726 227.474 12.7476 227.515 11.8071C227.541 11.2233 227.608 10.9274 227.728 10.8803C227.843 10.8347 227.895 10.6381 227.879 10.3037C227.866 10.0234 227.935 9.69896 228.033 9.57891C228.157 9.42818 228.174 9.28171 228.09 9.10081C228.023 8.95739 227.918 8.73242 227.856 8.60099C227.792 8.46277 227.797 8.36194 227.869 8.36194C227.938 8.36194 227.994 8.24937 227.994 8.11176C227.994 7.97425 228.093 7.80909 228.214 7.74485C228.39 7.6514 228.418 7.52744 228.352 7.12575C228.285 6.71589 228.307 6.62341 228.472 6.62341C228.699 6.62341 228.747 6.40174 228.538 6.31916C228.324 6.23467 228.379 5.92817 228.619 5.8694C228.79 5.82733 228.817 5.73927 228.748 5.4452C228.697 5.22684 228.718 5.05186 228.799 5.01987C228.889 4.98423 228.891 4.89017 228.805 4.7457C228.64 4.46788 228.638 4.33879 228.801 4.40303C229.055 4.50343 229.07 4.29368 228.822 4.1107C228.58 3.93285 228.574 3.58097 228.813 3.58097C228.945 3.58097 228.81 2.85939 228.668 2.79863C228.611 2.77473 228.544 2.65738 228.518 2.53785C228.483 2.37756 228.399 2.32723 228.198 2.34592C227.976 2.36652 227.963 2.35513 228.129 2.28437C228.305 2.20866 228.297 2.16076 228.067 1.91129C227.922 1.75395 227.693 1.54932 227.558 1.45657C227.423 1.36391 227.313 1.25942 227.313 1.22448C227.313 1.18945 227.125 1.13451 226.895 1.10226C226.666 1.0701 226.445 0.988731 226.404 0.921539C226.359 0.845478 226.131 0.79932 225.801 0.79932C225.51 0.79932 225.271 0.760201 225.271 0.712391C225.271 0.595997 224.631 0.60078 224.517 0.718044C224.458 0.779327 224.347 0.763943 224.188 0.672493C224.053 0.594349 223.85 0.558704 223.72 0.590435C223.585 0.623554 223.378 0.581043 223.215 0.486557C222.921 0.316788 222.494 0.277847 222.115 0.386333C221.988 0.422493 221.847 0.412842 221.8 0.364944C221.669 0.229427 221.402 0.261417 221.084 0.450657C220.812 0.612514 220.371 0.610691 220.371 0.447704C220.371 0.407978 220.264 0.372421 220.133 0.368595C217.437 0.291058 216.52 0.286713 216.676 0.352257C216.79 0.400066 216.808 0.450573 216.724 0.483692C216.649 0.513332 216.554 0.480824 216.512 0.411453C216.462 0.328526 216.236 0.284977 215.851 0.284279C213.986 0.281063 213.656 0.268459 213.432 0.191963C213.252 0.130592 213.138 0.143806 213.013 0.24012C212.918 0.312965 212.76 0.352951 212.662 0.328873C212.564 0.304794 212.39 0.344955 212.276 0.41806C212.161 0.491165 212.067 0.518806 212.067 0.479515C212.066 0.440311 211.878 0.339996 211.649 0.256809C211.263 0.116249 211.202 0.115471 210.808 0.245773C210.483 0.352867 210.326 0.363293 210.141 0.289841C210.009 0.2369 209.812 0.21526 209.704 0.241596C209.597 0.268021 209.468 0.247856 209.419 0.196743C209.319 0.0940819 208.11 0.0855637 207.575 0.183792C207.379 0.219955 206.948 0.192135 206.554 0.117813C205.986 0.0104561 205.136 -0.0198784 203.59 0.0120239C202.769 0.0288887 203.66 0.738731 204.626 0.837307C204.922 0.867558 205.334 0.969173 205.54 1.06314C205.951 1.24986 206.214 1.28263 206.214 1.14703C206.214 1.0222 206.531 1.03985 206.981 1.18997C207.196 1.26134 207.468 1.32001 207.587 1.32036C207.705 1.32062 207.848 1.35017 207.904 1.38607C207.96 1.42189 208.17 1.46005 208.369 1.47074C208.569 1.48143 208.993 1.5149 209.311 1.54506C209.801 1.59157 209.889 1.57705 209.889 1.44979C209.889 1.34156 209.937 1.32375 210.06 1.38581C210.633 1.6765 212.204 1.71735 212.204 1.44162C212.204 1.28124 212.341 1.2888 212.537 1.46005C212.625 1.53663 212.89 1.60895 213.126 1.62086C213.362 1.63277 213.654 1.69466 213.775 1.75855C213.916 1.83331 214.027 1.84348 214.086 1.78706C214.136 1.73882 214.285 1.67415 214.415 1.6432C214.547 1.61235 214.654 1.52724 214.654 1.45396C214.654 1.38077 214.715 1.32088 214.79 1.32088C214.865 1.32088 214.926 1.43823 214.926 1.58166C214.926 1.88034 215.092 1.90641 215.72 1.70622C215.955 1.63129 216.213 1.59591 216.293 1.62747C216.488 1.70431 217.092 1.76586 217.512 1.75169C217.699 1.74534 217.944 1.74282 218.057 1.74613C218.331 1.75404 220.364 1.73639 220.734 1.72283C221.056 1.71109 221.347 1.58166 221.051 1.58166C220.952 1.58166 220.904 1.55975 220.946 1.53307C220.988 1.50629 221.258 1.56497 221.545 1.66346C222.222 1.89494 222.466 1.89503 222.371 1.66363C222.316 1.52863 222.339 1.50673 222.466 1.57401C222.559 1.62312 222.998 1.69014 223.443 1.723C223.887 1.75577 224.382 1.83714 224.543 1.90381C224.78 2.00169 224.848 2.00325 224.898 1.91198C224.946 1.82462 225.059 1.8354 225.397 1.95953C225.638 2.04793 225.871 2.09705 225.915 2.0688C225.959 2.04055 226.081 2.09539 226.186 2.19067C226.29 2.28603 226.449 2.36522 226.538 2.3667C226.776 2.37069 227.12 2.71205 227.222 3.04594C227.297 3.28976 227.268 3.34409 227.04 3.38208C226.701 3.43867 226.701 3.49917 227.041 3.88522C227.191 4.05542 227.309 4.24249 227.304 4.30073C227.298 4.35905 227.241 4.32854 227.177 4.23292L227.06 4.05907L227.03 4.23292C227.013 4.32854 226.992 4.44589 226.982 4.4937C226.973 4.54151 226.906 4.63931 226.834 4.71102C226.762 4.78273 226.691 5.03699 226.676 5.27604C226.662 5.51509 226.609 5.85271 226.56 6.02639C226.504 6.22163 226.527 6.36454 226.619 6.40096C226.822 6.48084 226.808 6.6234 226.598 6.62349C226.475 6.62358 226.419 6.8881 226.393 7.5955C226.365 8.35255 226.308 8.60238 226.134 8.72546C225.974 8.83804 225.96 8.8835 226.085 8.8835C226.263 8.8835 226.257 8.93 225.972 9.81483C225.896 10.0498 225.903 10.1915 225.99 10.2101C226.078 10.2289 226.072 10.3051 225.972 10.4243C225.886 10.5261 225.854 10.6714 225.899 10.7472C225.945 10.823 225.917 10.9352 225.837 10.9966C225.758 11.058 225.691 11.1845 225.69 11.278C225.687 11.5301 225.523 12.0438 225.414 12.1432C225.262 12.283 225.256 12.7788 225.406 12.8381C225.482 12.868 225.543 13.0465 225.543 13.235C225.543 13.4234 225.608 13.5775 225.688 13.5775C225.767 13.5775 225.793 13.6173 225.746 13.6659C225.699 13.7144 225.604 13.7317 225.534 13.7042C225.26 13.596 225.426 13.9238 225.71 14.0507C226.018 14.1886 225.92 14.227 225.356 14.1886C225.147 14.1746 225.116 14.2115 225.184 14.3869C225.244 14.5376 225.206 14.618 225.059 14.654C224.901 14.6928 224.857 14.8183 224.879 15.1629C224.896 15.4145 224.975 15.6491 225.056 15.6842C225.156 15.7274 225.148 15.7484 225.033 15.7494C224.939 15.7501 224.863 15.8485 224.863 15.968C224.863 16.0875 224.924 16.1853 224.999 16.1853C225.074 16.1853 225.135 16.2482 225.135 16.325C225.135 16.406 225.058 16.4459 224.953 16.42C224.815 16.3861 224.763 16.5036 224.74 16.9055C224.724 17.1971 224.67 17.477 224.62 17.5276C224.458 17.6937 224.432 17.8678 224.408 18.967C224.393 19.6889 224.324 20.1223 224.203 20.2585C224.076 20.4011 224.064 20.4911 224.163 20.5544C224.261 20.6166 224.262 20.6974 224.166 20.8112C224.09 20.9025 224.045 21.0824 224.066 21.2108C224.087 21.3394 224.054 21.4959 223.993 21.5589C223.933 21.6218 223.919 21.6964 223.963 21.7247C224.007 21.753 223.981 21.824 223.905 21.8826C223.808 21.9573 223.824 22.0031 223.958 22.0358C224.112 22.0737 224.12 22.1413 223.996 22.3937C223.912 22.5648 223.797 22.7048 223.741 22.7048C223.561 22.7048 223.63 22.8858 223.866 23.037C224.08 23.1736 224.08 23.1848 223.866 23.211C223.741 23.2265 223.638 23.3133 223.638 23.4039C223.638 23.5146 223.705 23.5523 223.842 23.5186C223.954 23.4911 224.046 23.4928 224.046 23.5226C224.046 23.5993 223.736 23.9376 223.541 24.0735C223.423 24.1553 223.414 24.2533 223.51 24.4134C223.593 24.5526 223.595 24.6758 223.517 24.7365C223.355 24.8621 223.203 25.7223 223.334 25.7698C223.389 25.7895 223.35 25.7921 223.248 25.7755C223.111 25.7531 223.086 25.805 223.154 25.9771C223.213 26.1279 223.183 26.2345 223.067 26.2823C222.945 26.3328 222.935 26.3762 223.035 26.421C223.139 26.4672 223.133 26.6981 223.015 27.2148C222.859 27.9 222.851 28.129 222.974 28.442C223.002 28.5137 222.951 28.5631 222.86 28.5517C222.764 28.5397 222.727 28.5856 222.772 28.6604C222.815 28.7315 222.782 28.7897 222.699 28.7897C222.606 28.7897 222.549 28.984 222.549 29.2967C222.549 29.5757 222.503 29.8332 222.447 29.8691C222.391 29.9049 222.331 30.195 222.314 30.5137C222.298 30.8325 222.258 31.4746 222.226 31.9408C222.195 32.407 222.222 32.7883 222.287 32.7883C222.411 32.7883 222.193 33.2294 222.03 33.3081C221.643 33.4953 221.573 33.9725 221.893 34.2359C221.97 34.2988 221.95 34.3554 221.84 34.388C221.701 34.4291 221.7 34.4505 221.834 34.4906C222.063 34.5589 222.049 34.7858 221.805 34.9581C221.632 35.0799 221.631 35.1307 221.797 35.3344C221.902 35.464 221.931 35.57 221.86 35.57C221.692 35.57 221.694 36.5876 221.862 36.6542C222.01 36.7125 221.893 36.9734 221.678 37.0648C221.591 37.1019 221.629 37.1481 221.776 37.1842C222 37.2391 222.001 37.2537 221.79 37.4027C221.523 37.5908 221.626 38.0039 221.939 38.0039C222.05 38.0039 222.14 38.0418 222.14 38.0882C222.14 38.1344 222.056 38.1517 221.954 38.1266C221.851 38.1015 221.731 38.1418 221.686 38.2163C221.635 38.301 221.679 38.3516 221.804 38.3516C222.052 38.3516 222.052 38.4345 221.805 38.6427C221.687 38.7424 221.653 38.8702 221.717 38.9802C221.773 39.0775 221.774 39.3377 221.719 39.5584C221.664 39.7791 221.651 40.0477 221.69 40.1554C221.729 40.263 221.7 40.3509 221.625 40.3509C221.538 40.3509 221.53 40.4676 221.603 40.6747C221.683 40.9012 221.668 41.0184 221.554 41.0645C221.431 41.1146 221.434 41.1309 221.564 41.132C221.678 41.1329 221.709 41.204 221.656 41.3405C221.611 41.4544 221.637 41.6931 221.714 41.8709C221.81 42.0923 221.809 42.3471 221.713 42.6807C221.589 43.1101 221.601 43.1806 221.814 43.2803C221.953 43.3451 221.984 43.3934 221.887 43.3934C221.772 43.3934 221.728 43.5284 221.749 43.8224C221.766 44.0584 221.714 44.3029 221.634 44.3657C221.476 44.4895 221.514 45.1497 221.698 45.4667C221.761 45.5758 221.754 45.8868 221.681 46.1667C221.513 46.8179 221.613 46.9954 222.105 46.9165L222.475 46.8571L222.087 47.0866C221.511 47.4276 221.425 47.8064 221.813 48.2953C222.065 48.6129 222.09 48.6959 221.932 48.6959C221.699 48.6959 221.665 48.9658 221.88 49.1033C221.987 49.1714 221.987 49.2142 221.88 49.2562C221.664 49.3415 221.699 49.6187 221.946 49.7763C222.14 49.9004 222.14 49.9129 221.946 49.9129C221.712 49.9129 221.648 50.1413 221.869 50.1883C221.944 50.2043 222.005 50.5088 222.004 50.8692C222.003 51.2277 222.006 51.5797 222.011 51.6514C222.075 52.5917 222.133 52.8858 222.32 53.2319C222.44 53.4557 222.563 53.8114 222.591 54.0223C222.619 54.2332 222.678 54.442 222.72 54.4863C222.763 54.5306 222.798 54.7555 222.798 54.986C222.798 55.4929 223.046 55.9103 223.348 55.9121C223.48 55.9129 223.513 55.9394 223.429 55.9773C223.157 56.1007 223.279 56.5944 223.618 56.7461C223.857 56.8531 223.894 56.9067 223.762 56.9585C223.62 57.0148 223.62 57.0529 223.764 57.1639C223.862 57.2389 223.956 57.4277 223.973 57.5835C223.995 57.7731 224.099 57.8941 224.289 57.9499C224.517 58.0169 224.557 58.0854 224.492 58.2976C224.448 58.4431 224.36 58.5751 224.297 58.591C224.234 58.6069 224.22 58.7157 224.266 58.8327C224.347 59.0388 224.332 59.0437 223.79 58.9883C223.317 58.9399 223.229 58.9542 223.229 59.0798C223.229 59.1616 223.306 59.2111 223.4 59.1898C223.577 59.1493 224.318 59.3542 224.318 59.4437C224.318 59.4719 224.174 59.4774 223.997 59.4559C223.663 59.4151 223.365 59.6078 223.365 59.8648C223.365 60.0237 223.954 60.033 224.453 59.8818ZM223.196 59.6778C223.146 59.1977 222.569 58.8299 222.366 59.1488C222.313 59.2332 222.268 59.231 222.167 59.139C222.058 59.039 222.026 59.039 221.968 59.139C221.916 59.2295 221.851 59.2175 221.696 59.0885C221.505 58.9297 221.472 58.928 221.154 59.061C220.894 59.1702 220.779 59.1791 220.655 59.0997C220.44 58.9628 219.576 58.9652 219.493 59.1029C219.448 59.1778 219.314 59.1444 219.063 58.9955C218.63 58.7393 218.52 58.7282 218.428 58.9315C218.391 59.0152 218.319 59.1474 218.268 59.2254C218.155 59.4005 218.76 59.5623 219.758 59.624C220.133 59.6471 220.497 59.7012 220.568 59.7442C220.639 59.7873 220.826 59.8225 220.983 59.8225C221.141 59.8225 221.343 59.8695 221.433 59.9268C221.56 60.0079 221.598 59.9839 221.604 59.8182L221.613 59.6052L221.736 59.8008C221.866 60.0063 222.442 60.0815 222.402 59.8877C222.315 59.4579 222.671 59.3287 222.821 59.7356C222.953 60.0934 223.235 60.05 223.196 59.6778ZM218.601 59.6517C218.601 59.6056 218.479 59.526 218.329 59.4748C218.098 59.396 218.057 59.4087 218.057 59.5587C218.057 59.6776 218.146 59.7356 218.329 59.7356C218.479 59.7356 218.601 59.6979 218.601 59.6517ZM217.818 59.5759C217.855 59.4861 217.829 59.3483 217.76 59.2698C217.668 59.1645 217.69 59.1271 217.846 59.1271C218.092 59.1271 218.105 59.0859 217.922 58.8684C217.792 58.7132 217.39 58.7107 217.036 58.8631C216.786 58.9706 216.151 58.9553 216.151 58.8418C216.151 58.7006 214.506 58.4914 214.321 58.6092C214.124 58.7355 213.619 58.7088 213.429 58.5621C213.202 58.3877 213.021 58.3973 213.016 58.5838C213.012 58.7287 213.003 58.7287 212.831 58.5838C212.724 58.4938 212.469 58.4317 212.207 58.4317H211.765L212.086 58.6121C212.263 58.7114 212.334 58.769 212.244 58.7401C212.066 58.6827 211.739 58.9985 211.854 59.1172C211.968 59.2356 212.846 59.2959 213.284 59.2155C213.785 59.1238 214.25 59.1924 214.158 59.3446C214.077 59.4805 215.03 59.4962 215.3 59.3633C215.411 59.3087 215.535 59.3137 215.656 59.3778C215.758 59.4318 216.188 59.4917 216.613 59.5109C217.038 59.53 217.468 59.5893 217.569 59.6425C217.709 59.7169 217.767 59.7014 217.818 59.5759ZM221.957 59.4276C222.002 59.3538 222.067 59.3121 222.103 59.3349C222.138 59.3576 222.127 59.418 222.078 59.469C221.944 59.6077 221.865 59.5808 221.957 59.4276ZM220.779 59.3879C220.779 59.3401 220.805 59.301 220.836 59.301C220.867 59.301 220.991 59.277 221.11 59.2478C221.269 59.2089 221.304 59.2322 221.243 59.3348C221.151 59.4868 220.779 59.5295 220.779 59.3879ZM216.559 59.3879C216.559 59.3401 216.586 59.301 216.619 59.301C216.653 59.301 216.717 59.3401 216.764 59.3879C216.81 59.4357 216.783 59.4748 216.704 59.4748C216.624 59.4748 216.559 59.4357 216.559 59.3879ZM210.434 58.9771C210.546 58.9499 210.684 58.8785 210.74 58.8182C210.859 58.69 211.382 58.7538 211.396 58.8982C211.405 58.9884 211.627 58.7212 211.649 58.594C211.665 58.5035 211.092 58.4164 210.34 58.3948C209.951 58.3837 209.553 58.333 209.455 58.2822C209.146 58.1219 208.167 58.1655 207.787 58.3566C207.262 58.6204 207.337 58.7728 207.984 58.7564C208.283 58.7487 208.528 58.703 208.528 58.6547C208.528 58.6063 208.626 58.656 208.746 58.7651C208.916 58.9208 209.045 58.9519 209.345 58.9098C209.56 58.8796 209.766 58.8964 209.816 58.9481C209.912 59.0469 210.107 59.0561 210.434 58.9771ZM206.998 58.6069C207.247 58.3517 207.219 58.0526 206.952 58.1181C206.833 58.1472 206.693 58.1709 206.641 58.1709C206.49 58.1709 206.538 58.7179 206.692 58.7506C206.767 58.7667 206.905 58.702 206.998 58.6069ZM206.146 58.6055C206.192 58.5577 206.135 58.5186 206.018 58.5186C205.901 58.5186 205.806 58.4795 205.806 58.4317C205.806 58.3839 205.707 58.3448 205.587 58.3448C205.443 58.3448 205.397 58.392 205.451 58.4823C205.496 58.5579 205.534 58.6361 205.534 58.6561C205.534 58.7323 206.066 58.6884 206.146 58.6055ZM203.28 58.526C203.324 58.4807 203.302 58.4208 203.231 58.3928C203.16 58.3648 203.066 58.379 203.023 58.4243C202.979 58.4696 203.001 58.5295 203.072 58.5575C203.143 58.5855 203.236 58.5713 203.28 58.526ZM205.125 58.4048C205.125 58.3422 205.035 58.2152 204.924 58.1223C204.756 57.9824 204.7 57.9745 204.596 58.0762C204.515 58.1544 204.526 58.2568 204.626 58.3588C204.806 58.5431 205.125 58.5726 205.125 58.4048ZM203.9 58.2578C203.9 58.21 203.835 58.1709 203.756 58.1709C203.677 58.1709 203.65 58.21 203.696 58.2578C203.742 58.3056 203.807 58.3448 203.84 58.3448C203.873 58.3448 203.9 58.3056 203.9 58.2578ZM222.617 31.3975C222.571 31.3497 222.598 31.3106 222.677 31.3106C222.756 31.3106 222.821 31.3497 222.821 31.3975C222.821 31.4453 222.794 31.4844 222.761 31.4844C222.728 31.4844 222.663 31.4453 222.617 31.3975ZM224.046 28.0892C224.046 28.0441 224.107 28.0074 224.182 28.0074C224.257 28.0074 224.318 28.0684 224.318 28.1429C224.318 28.2174 224.257 28.2542 224.182 28.2247C224.107 28.1951 224.046 28.1342 224.046 28.0892ZM226.752 7.90409C226.886 7.8189 226.902 7.82891 226.828 7.95278C226.777 8.03849 226.701 8.08673 226.659 8.05996C226.617 8.03327 226.659 7.96312 226.752 7.90409ZM228.402 3.10801C228.402 3.08688 228.463 3.04551 228.538 3.01595C228.613 2.98639 228.674 3.00369 228.674 3.05428C228.674 3.10487 228.613 3.14634 228.538 3.14634C228.463 3.14634 228.402 3.12913 228.402 3.10801ZM228.13 2.84723C228.13 2.8261 228.191 2.78473 228.266 2.75517C228.341 2.72561 228.402 2.74291 228.402 2.7935C228.402 2.84409 228.341 2.88556 228.266 2.88556C228.191 2.88556 228.13 2.86835 228.13 2.84723Z" fill="#FFFEFE"/>
<path d="M79.2891 40.9609C79.2578 41.2734 79.1484 41.5156 78.9609 41.6875C78.7734 41.875 78.5312 41.9688 78.2344 41.9688C78.0781 41.9688 77.9297 41.9453 77.7891 41.8984C77.4922 42.1328 77.1406 42.3125 76.7344 42.4375C76.3281 42.5625 75.9453 42.6875 75.5859 42.8125C75.1484 42.7969 74.7188 42.7578 74.2969 42.6953C73.875 42.6328 73.4375 42.6172 72.9844 42.6484C72.8281 42.5391 72.6641 42.4688 72.4922 42.4375C72.3203 42.4062 72.1406 42.3828 71.9531 42.3672C71.7812 42.3672 71.6094 42.3438 71.4375 42.2969C71.2812 42.25 71.125 42.1406 70.9688 41.9688H69.7969C69.6875 41.9688 69.5234 41.9141 69.3047 41.8047C69.1016 41.7109 68.8672 41.6094 68.6016 41.5C68.3516 41.3906 68.0781 41.2891 67.7812 41.1953C67.5 41.1016 67.2344 41.0547 66.9844 41.0547H66.8438C66.6719 40.9141 66.4688 40.8047 66.2344 40.7266C66.0156 40.6641 65.7891 40.6016 65.5547 40.5391C65.3203 40.4922 65.0938 40.4375 64.875 40.375C64.6562 40.3125 64.4688 40.2266 64.3125 40.1172C64.1562 40.0078 63.9766 39.8984 63.7734 39.7891C63.5703 39.6641 63.3594 39.6094 63.1406 39.625C62.8438 39.4531 62.5312 39.3047 62.2031 39.1797C61.8906 39.0547 61.5703 38.9375 61.2422 38.8281L60.2812 38.4766C59.9688 38.3516 59.6562 38.2031 59.3438 38.0312C59.2969 38.0469 59.2422 38.0469 59.1797 38.0312C59.1172 38.0156 59.0625 38.0078 59.0156 38.0078C58.9219 38.0078 58.8672 38.0391 58.8516 38.1016C58.7422 37.9922 58.6172 37.8984 58.4766 37.8203C58.3516 37.7422 58.2266 37.6484 58.1016 37.5391C58.0391 37.5547 57.9766 37.5703 57.9141 37.5859C57.8672 37.5859 57.8047 37.5859 57.7266 37.5859C57.5859 37.5859 57.4453 37.5703 57.3047 37.5391C57.1797 37.5078 57.0547 37.4688 56.9297 37.4219C56.7891 37.7344 56.6953 38.0859 56.6484 38.4766C56.6016 38.8672 56.5625 39.2734 56.5312 39.6953C56.5156 40.1016 56.4922 40.5078 56.4609 40.9141C56.4297 41.3359 56.3594 41.7188 56.25 42.0625C56.2812 42.1875 56.2969 42.3125 56.2969 42.4375V42.8359C56.2969 43.1016 56.3359 43.3125 56.4141 43.4688C56.3828 43.6094 56.3516 43.7422 56.3203 43.8672C56.3047 43.9922 56.2812 44.1172 56.25 44.2422C56.2656 44.4141 56.2734 44.5703 56.2734 44.7109C56.2891 44.8672 56.2969 45.0312 56.2969 45.2031V45.6016C56.2969 45.7422 56.2812 45.8828 56.25 46.0234C56.0938 46.1172 55.9375 46.2031 55.7812 46.2812C55.625 46.375 55.4688 46.4844 55.3125 46.6094C55.2031 46.4062 55.0156 46.2891 54.75 46.2578C54.6875 46.3359 54.6406 46.4375 54.6094 46.5625C54.5938 46.7031 54.5234 46.7734 54.3984 46.7734C54.1797 46.6016 54 46.4609 53.8594 46.3516C53.7188 46.2422 53.5625 46.0781 53.3906 45.8594C53.375 45.8281 53.3672 45.7891 53.3672 45.7422C53.3672 45.6641 53.3828 45.5938 53.4141 45.5312C53.4453 45.4688 53.4609 45.4062 53.4609 45.3438C53.4609 45.1562 53.4375 44.9922 53.3906 44.8516C53.3594 44.6484 53.3359 44.4453 53.3203 44.2422C53.3047 44.0547 53.2969 43.8672 53.2969 43.6797C53.2969 43.4141 53.3125 43.1562 53.3438 42.9062C53.3906 42.6562 53.4688 42.3984 53.5781 42.1328C53.75 41.6797 53.8672 41.2031 53.9297 40.7031C54.0078 40.2031 54.0625 39.7031 54.0938 39.2031C54.125 38.6875 54.1406 38.1719 54.1406 37.6562C54.1562 37.1406 54.1875 36.6484 54.2344 36.1797C54.125 35.9297 53.9922 35.7344 53.8359 35.5938C53.6953 35.4375 53.625 35.1953 53.625 34.8672C53.625 34.5703 53.7188 34.3438 53.9062 34.1875C54.0938 34.0156 54.2578 33.8125 54.3984 33.5781C54.3672 33.4844 54.3906 33.4219 54.4688 33.3906L54.75 30.9297C54.7656 30.7578 54.7891 30.5703 54.8203 30.3672C54.8672 30.1641 54.8984 29.9766 54.9141 29.8047C54.9453 29.4453 54.9609 29.0938 54.9609 28.75C54.9609 28.4062 54.9766 28.0625 55.0078 27.7188C55.0859 26.9531 55.1562 26.1953 55.2188 25.4453C55.2969 24.6953 55.3359 23.9453 55.3359 23.1953C55.3359 22.8359 55.3203 22.4766 55.2891 22.1172C55.2734 21.7578 55.2266 21.3984 55.1484 21.0391C54.8828 21.1172 54.5859 21.2031 54.2578 21.2969C53.9453 21.375 53.6797 21.5156 53.4609 21.7188H53.2734C52.8672 21.7188 52.4844 21.7969 52.125 21.9531C51.7812 22.1094 51.4297 22.2578 51.0703 22.3984C50.9141 22.4766 50.7578 22.5312 50.6016 22.5625C50.4453 22.5781 50.2812 22.6094 50.1094 22.6562C50.0312 22.6719 49.9453 22.7188 49.8516 22.7969C49.7578 22.875 49.6719 22.9297 49.5938 22.9609L49.1953 23.0547C49.0859 23.0859 49.0391 23.1562 49.0547 23.2656C49.0703 23.375 49.0312 23.4453 48.9375 23.4766C48.8594 23.5547 48.75 23.5938 48.6094 23.5938C48.4688 23.5781 48.3594 23.5703 48.2812 23.5703H48.1875C47.7969 23.8516 47.4219 24.0938 47.0625 24.2969C46.6875 24.4844 46.25 24.6094 45.75 24.6719L45.2344 25C45.0625 25.1094 44.8672 25.1641 44.6484 25.1641C44.4766 25.1641 44.3359 25.1328 44.2266 25.0703C44.1016 24.8828 44.0078 24.6719 43.9453 24.4375C43.8672 24.2031 43.7422 24 43.5703 23.8281C43.6484 23.75 43.7031 23.6484 43.7344 23.5234C43.75 23.3828 43.7734 23.2578 43.8047 23.1484C44.2734 22.9453 44.75 22.75 45.2344 22.5625C45.7031 22.375 46.1562 22.1484 46.5938 21.8828C46.6406 21.8984 46.7109 21.9062 46.8047 21.9062C46.9609 21.9062 47.1016 21.8828 47.2266 21.8359C47.3516 21.7891 47.4766 21.7344 47.6016 21.6719C47.7266 21.6094 47.8516 21.5547 47.9766 21.5078C48.1016 21.4609 48.25 21.4453 48.4219 21.4609C48.9531 21.1641 49.5156 20.9219 50.1094 20.7344C50.7031 20.5469 51.2656 20.2891 51.7969 19.9609C51.875 19.9609 51.9375 19.9766 51.9844 20.0078C52.0469 20.0391 52.1094 20.0547 52.1719 20.0547C52.2344 20.0547 52.2734 20.0469 52.2891 20.0312C52.3828 19.9062 52.5078 19.8203 52.6641 19.7734C52.8203 19.7109 52.9766 19.6641 53.1328 19.6328C53.3047 19.5859 53.4609 19.5312 53.6016 19.4688C53.7578 19.3906 53.8594 19.2734 53.9062 19.1172C53.9844 19.1797 54.1016 19.2109 54.2578 19.2109C54.5234 19.2109 54.7656 19.1562 54.9844 19.0469C55.2188 18.9375 55.4688 18.8828 55.7344 18.8828C55.7969 18.8828 55.8516 18.8984 55.8984 18.9297C55.9609 18.9453 56.0234 18.9531 56.0859 18.9531C56.2109 18.9531 56.2734 18.9141 56.2734 18.8359C56.2891 18.7578 56.3359 18.6875 56.4141 18.625C57.3672 18.4531 58.3125 18.2969 59.25 18.1562C60.2031 18.0156 61.1641 17.9453 62.1328 17.9453C62.2734 17.8516 62.4297 17.8047 62.6016 17.8047C62.7734 17.8047 62.9297 17.8516 63.0703 17.9453C63.3359 17.9141 63.6016 17.8906 63.8672 17.875C64.1328 17.8594 64.3984 17.8516 64.6641 17.8516C65.2734 17.8516 65.8984 17.8906 66.5391 17.9688C67.1797 18.0469 67.8125 18.1719 68.4375 18.3438C69.0781 18.5 69.6875 18.7188 70.2656 19C70.8438 19.2656 71.3828 19.5859 71.8828 19.9609C71.9297 20.1016 71.9922 20.2422 72.0703 20.3828C72.1484 20.5234 72.25 20.6328 72.375 20.7109C72.375 20.7422 72.3672 20.7656 72.3516 20.7812C72.3516 20.7969 72.3516 20.8203 72.3516 20.8516C72.3516 21.0234 72.3984 21.1875 72.4922 21.3438C72.6016 21.5 72.6562 21.6875 72.6562 21.9062C72.6562 22.125 72.6172 22.3438 72.5391 22.5625C72.4766 22.7812 72.4531 23 72.4688 23.2188C72.2969 23.4688 72.1484 23.6953 72.0234 23.8984C71.9141 24.1016 71.8438 24.3594 71.8125 24.6719C71.5312 24.9531 71.2812 25.2656 71.0625 25.6094C70.8438 25.9375 70.6172 26.2656 70.3828 26.5938C70.1641 26.9062 69.9141 27.1953 69.6328 27.4609C69.3516 27.7266 69.0156 27.9375 68.625 28.0938C68.6094 28.25 68.5469 28.4219 68.4375 28.6094H67.9453C67.8984 28.7344 67.8203 28.8281 67.7109 28.8906L67.3828 29.0781C67.2734 29.1406 67.1797 29.2188 67.1016 29.3125C67.0391 29.4062 67.0078 29.5391 67.0078 29.7109C66.9766 29.6953 66.9375 29.6875 66.8906 29.6875C66.7344 29.6875 66.5469 29.7656 66.3281 29.9219C66.125 30.0781 65.9609 30.2031 65.8359 30.2969C65.5703 30.4844 65.2969 30.6562 65.0156 30.8125C64.75 30.9688 64.5156 31.1875 64.3125 31.4688C63.6875 31.7344 63.0938 32.0469 62.5312 32.4062C61.9688 32.75 61.3594 33.0234 60.7031 33.2266C60.4531 33.4922 60.1562 33.7031 59.8125 33.8594C59.4844 34 59.1641 34.1562 58.8516 34.3281V34.3984C58.8516 34.5234 58.8984 34.6484 58.9922 34.7734C59.0859 34.8828 59.1953 34.9844 59.3203 35.0781C59.4453 35.1562 59.5781 35.2109 59.7188 35.2422C59.875 35.2734 60.0078 35.2734 60.1172 35.2422C60.4297 35.5234 60.7891 35.75 61.1953 35.9219C61.6016 36.0938 62.0234 36.25 62.4609 36.3906C62.8984 36.5312 63.3281 36.6797 63.75 36.8359C64.1719 36.9922 64.5625 37.1875 64.9219 37.4219H65.4844C65.8438 37.7344 66.2656 37.9688 66.75 38.125C67.25 38.2812 67.7266 38.4219 68.1797 38.5469C68.3672 38.7188 68.6016 38.8516 68.8828 38.9453C69.1797 39.0234 69.4609 39.0625 69.7266 39.0625H69.8672C69.9297 39.0625 69.9844 39.0547 70.0312 39.0391V39.0859C70.0312 39.1641 70.0547 39.2188 70.1016 39.25C70.1484 39.2656 70.1953 39.2812 70.2422 39.2969C70.3047 39.2969 70.3594 39.3125 70.4062 39.3438C70.4688 39.3594 70.5156 39.3906 70.5469 39.4375H70.7812C71.1094 39.4375 71.4219 39.5078 71.7188 39.6484C72.0156 39.7734 72.3281 39.8359 72.6562 39.8359C72.7969 39.8359 72.9062 39.8203 72.9844 39.7891C73.0781 39.8203 73.1484 39.8828 73.1953 39.9766C73.2422 40.0703 73.3047 40.1484 73.3828 40.2109C73.4922 40.1953 73.5938 40.1797 73.6875 40.1641C73.7812 40.1641 73.875 40.1641 73.9688 40.1641C74.3125 40.1641 74.6328 40.2031 74.9297 40.2812C75.2266 40.3594 75.5312 40.4766 75.8438 40.6328C76.3438 40.4141 76.8359 40.2344 77.3203 40.0938C77.8047 39.9531 78.3203 39.8828 78.8672 39.8828V39.9297C78.8672 40.1172 78.9141 40.2891 79.0078 40.4453C79.1172 40.6172 79.2109 40.7891 79.2891 40.9609ZM70.3125 22.2578C70.3125 22.0703 70.2734 21.9219 70.1953 21.8125C70.1328 21.7031 70.0469 21.6094 69.9375 21.5312C69.8281 21.4375 69.7109 21.3516 69.5859 21.2734C69.4766 21.1953 69.375 21.0938 69.2812 20.9688C68.875 20.8438 68.4766 20.7031 68.0859 20.5469C67.6953 20.3906 67.2969 20.2578 66.8906 20.1484C66.6875 20.1016 66.4844 20.0625 66.2812 20.0312C66.0781 19.9844 65.875 19.9609 65.6719 19.9609H65.1562C65.0625 19.9453 64.9609 19.9297 64.8516 19.9141C64.7578 19.8828 64.6641 19.8594 64.5703 19.8438C64.3516 19.8125 64.1328 19.7891 63.9141 19.7734C63.7109 19.7578 63.5 19.75 63.2812 19.75C62.875 19.75 62.4688 19.7656 62.0625 19.7969L60.8438 19.8906C60.6719 19.9062 60.4922 19.9141 60.3047 19.9141C60.1172 19.9141 59.9453 19.9297 59.7891 19.9609C59.7109 19.9766 59.6016 20.0156 59.4609 20.0781C59.3203 20.125 59.1719 20.1797 59.0156 20.2422C58.8594 20.2891 58.7031 20.3438 58.5469 20.4062C58.4062 20.4688 58.2812 20.5156 58.1719 20.5469C58.1875 20.6562 58.1953 20.7656 58.1953 20.875V21.1797C58.1953 21.4141 58.1875 21.6484 58.1719 21.8828C58.1562 22.1172 58.125 22.3516 58.0781 22.5859C58.0625 22.6797 58.0391 22.7734 58.0078 22.8672C57.9766 22.9609 57.9531 23.0547 57.9375 23.1484C57.9062 23.2891 57.8906 23.4453 57.8906 23.6172V24.0625C57.8594 24.4219 57.8359 24.7734 57.8203 25.1172C57.8047 25.4609 57.7812 25.8125 57.75 26.1719C57.6562 27.2031 57.5547 28.2266 57.4453 29.2422C57.3516 30.2578 57.2891 31.2812 57.2578 32.3125C57.7734 32.2031 58.2656 32.0391 58.7344 31.8203C59.2031 31.6016 59.6641 31.3672 60.1172 31.1172C60.5703 30.8516 61.0234 30.5938 61.4766 30.3438C61.9297 30.0938 62.4062 29.8828 62.9062 29.7109C63.0312 29.5391 63.1797 29.3984 63.3516 29.2891C63.5391 29.1797 63.6953 29.0391 63.8203 28.8672C63.9766 28.8672 64.0938 28.8359 64.1719 28.7734C64.25 28.6953 64.3516 28.6406 64.4766 28.6094C65.2266 27.9531 65.9922 27.3359 66.7734 26.7578C67.5547 26.1797 68.3047 25.5625 69.0234 24.9062C69.0859 24.6875 69.1875 24.4766 69.3281 24.2734C69.4844 24.0547 69.6328 23.8359 69.7734 23.6172C69.9141 23.3984 70.0391 23.1797 70.1484 22.9609C70.2578 22.7422 70.3125 22.5078 70.3125 22.2578ZM86.7656 25.0938V25.1875C86.6562 25.2188 86.6016 25.2969 86.6016 25.4219C86.4297 25.5 86.25 25.5625 86.0625 25.6094C85.875 25.6406 85.6953 25.6953 85.5234 25.7734C85.3516 25.7578 85.1719 25.75 84.9844 25.75C84.8125 25.7344 84.6406 25.7266 84.4688 25.7266C84 25.7266 83.5312 25.7422 83.0625 25.7734C82.5938 25.8047 82.125 25.8047 81.6562 25.7734C81.4375 25.8984 81.1953 26 80.9297 26.0781C80.6797 26.1406 80.4375 26.1719 80.2031 26.1719C80.0156 26.1719 79.8516 26.1484 79.7109 26.1016C79.3359 26.2891 78.9219 26.4453 78.4688 26.5703C78.0312 26.6953 77.5859 26.8203 77.1328 26.9453C76.6797 27.0547 76.2422 27.1875 75.8203 27.3438C75.4141 27.4844 75.0547 27.6875 74.7422 27.9531C74.7109 28.1719 74.6875 28.3906 74.6719 28.6094C74.6562 28.8125 74.6484 29.0156 74.6484 29.2188C74.6484 29.4375 74.6562 29.6406 74.6719 29.8281C74.7031 30.0156 74.7578 30.2031 74.8359 30.3906C74.9141 30.4219 75 30.4453 75.0938 30.4609C75.2031 30.4766 75.2969 30.4844 75.375 30.4844C75.4531 30.4844 75.5312 30.4766 75.6094 30.4609C75.6875 30.4297 75.7422 30.375 75.7734 30.2969C76.0078 30.2656 76.2422 30.2578 76.4766 30.2734C76.7109 30.2734 76.9453 30.2734 77.1797 30.2734C77.4141 30.2734 77.6406 30.2656 77.8594 30.25C78.0938 30.2344 78.3203 30.1953 78.5391 30.1328C78.7891 30.0703 79.0312 30.0312 79.2656 30.0156C79.5156 30 79.7578 29.9844 79.9922 29.9688C80.2266 29.9531 80.4688 29.9297 80.7188 29.8984C80.9688 29.8516 81.2266 29.7656 81.4922 29.6406C81.6953 29.7188 81.8984 29.7578 82.1016 29.7578C82.3203 29.7578 82.5312 29.7734 82.7344 29.8047C82.8438 29.8828 82.9297 29.9688 82.9922 30.0625C83.0703 30.1562 83.1094 30.2656 83.1094 30.3906C83.1094 30.6094 83.0312 30.8281 82.875 31.0469C82.7188 31.2656 82.5938 31.4688 82.5 31.6562H82.2422C81.8672 31.6562 81.5 31.7109 81.1406 31.8203C80.7969 31.9141 80.4453 32.0312 80.0859 32.1719C79.7422 32.2969 79.3906 32.4141 79.0312 32.5234C78.6875 32.6172 78.3281 32.6641 77.9531 32.6641C77.8906 32.6641 77.8516 32.7031 77.8359 32.7812C77.8359 32.8438 77.8203 32.8906 77.7891 32.9219C77.7109 32.9062 77.5938 32.8984 77.4375 32.8984C77.0781 32.8984 76.7344 32.9375 76.4062 33.0156C76.0781 33.0938 75.7422 33.1328 75.3984 33.1328C75.3047 33.1328 75.2109 33.1328 75.1172 33.1328C75.0234 33.1172 74.9297 33.1016 74.8359 33.0859C74.7578 33.2109 74.6562 33.2969 74.5312 33.3438C74.4062 33.375 74.2891 33.4375 74.1797 33.5312C74.1328 33.6719 74.1016 33.8438 74.0859 34.0469C74.0859 34.25 74.0781 34.4609 74.0625 34.6797C74.0625 34.8828 74.0469 35.0781 74.0156 35.2656C73.9844 35.4531 73.9219 35.6016 73.8281 35.7109C73.8438 35.7891 73.9062 35.8203 74.0156 35.8047C74.125 35.7734 74.1797 35.8203 74.1797 35.9453C74.1797 36.0859 74.1641 36.2344 74.1328 36.3906C74.1016 36.5469 74.0859 36.7031 74.0859 36.8594C74.0859 37.1562 74.1172 37.4844 74.1797 37.8438C74.2578 38.1875 74.3672 38.5078 74.5078 38.8047C74.6641 39.1016 74.8672 39.3516 75.1172 39.5547C75.3672 39.7422 75.6797 39.8359 76.0547 39.8359C76.3047 39.8359 76.5391 39.7891 76.7578 39.6953C76.9766 39.6016 77.1562 39.4453 77.2969 39.2266L77.4141 39.2031C77.4766 39.2031 77.5312 39.2109 77.5781 39.2266C77.6406 39.2422 77.7031 39.25 77.7656 39.25C77.8594 39.25 77.9766 39.1953 78.1172 39.0859C78.2734 38.9609 78.4375 38.8203 78.6094 38.6641C78.7969 38.5078 78.9844 38.3594 79.1719 38.2188C79.3594 38.0625 79.5391 37.9531 79.7109 37.8906C79.8203 37.6719 79.9219 37.4531 80.0156 37.2344C80.125 37.0156 80.2812 36.8438 80.4844 36.7188V36.0391C80.6406 35.8672 80.8047 35.7109 80.9766 35.5703C81.1641 35.4297 81.3047 35.25 81.3984 35.0312C81.4766 35.0625 81.5469 35.0859 81.6094 35.1016C81.6875 35.1172 81.7656 35.125 81.8438 35.125C81.9219 35.125 82 35.1172 82.0781 35.1016C82.1719 35.0859 82.2578 35.0625 82.3359 35.0312C82.4609 35.2031 82.5547 35.3984 82.6172 35.6172C82.6953 35.8203 82.7891 36.0156 82.8984 36.2031C82.7578 36.4844 82.5938 36.8203 82.4062 37.2109C82.2188 37.6016 82.0156 37.9922 81.7969 38.3828C81.5781 38.7734 81.3438 39.1484 81.0938 39.5078C80.8594 39.8516 80.625 40.1172 80.3906 40.3047C80.3438 40.3516 80.2422 40.4062 80.0859 40.4688C79.9141 40.5938 79.7578 40.7109 79.6172 40.8203C79.4766 40.9453 79.3438 41.0859 79.2188 41.2422C78.7656 41.3828 78.3281 41.5703 77.9062 41.8047C77.5 42.0391 77.0938 42.2656 76.6875 42.4844C76.5 42.4375 76.2969 42.4141 76.0781 42.4141C75.8906 42.4141 75.7031 42.4219 75.5156 42.4375C75.3281 42.4688 75.125 42.4844 74.9062 42.4844C74.8438 42.4062 74.75 42.3516 74.625 42.3203C74.5156 42.3047 74.4766 42.2266 74.5078 42.0859C73.9766 42.0547 73.5469 41.9062 73.2188 41.6406C72.8906 41.3906 72.6094 41.0781 72.375 40.7031C72.1562 40.3281 71.9766 39.9219 71.8359 39.4844C71.6953 39.0469 71.5469 38.625 71.3906 38.2188V38.1484C71.3906 38.0703 71.4219 38.0234 71.4844 38.0078C71.5469 37.9922 71.5781 37.9453 71.5781 37.8672C71.5781 37.8359 71.5703 37.8125 71.5547 37.7969C71.5078 37.625 71.4688 37.4766 71.4375 37.3516C71.4062 37.2266 71.3906 37.0781 71.3906 36.9062C71.3906 36.6562 71.4062 36.4141 71.4375 36.1797C71.4688 35.9297 71.4844 35.6797 71.4844 35.4297C71.4844 35.1797 71.4531 34.9609 71.3906 34.7734C71.4531 34.6953 71.5078 34.5938 71.5547 34.4688C71.5859 34.3281 71.6094 34.1875 71.625 34.0469C71.6406 33.9062 71.6484 33.7656 71.6484 33.625C71.6641 33.4844 71.6875 33.3594 71.7188 33.25C71.6562 33.0781 71.6016 32.9297 71.5547 32.8047C71.5078 32.6641 71.4844 32.5 71.4844 32.3125V32.1484C71.6406 31.8828 71.7734 31.6094 71.8828 31.3281C71.9922 31.0469 72.1094 30.7578 72.2344 30.4609V30.3906C72.2344 29.9375 72.2188 29.4844 72.1875 29.0312C72.1562 28.5781 72.1406 28.125 72.1406 27.6719V27.2266C72.1406 27.0703 72.1484 26.9219 72.1641 26.7812C72.2891 26.7188 72.3828 26.6328 72.4453 26.5234C72.5078 26.4141 72.6016 26.3281 72.7266 26.2656H73.5L73.6406 26.0312C73.6875 25.9531 73.7188 25.8672 73.7344 25.7734C73.9062 25.7266 74.0703 25.6641 74.2266 25.5859C74.3984 25.4922 74.5547 25.3984 74.6953 25.3047C74.9141 25.1797 75.1094 25.0703 75.2812 24.9766C75.4688 24.8672 75.6484 24.7812 75.8203 24.7188C76.0078 24.6406 76.2031 24.5781 76.4062 24.5312C76.6094 24.4844 76.8438 24.4453 77.1094 24.4141C77.2344 24.4141 77.3125 24.3906 77.3438 24.3438C77.3906 24.2969 77.4531 24.2422 77.5312 24.1797C77.7188 24.2109 77.9062 24.2422 78.0938 24.2734C78.2812 24.2891 78.4688 24.2969 78.6562 24.2969C79.0312 24.2969 79.3828 24.2266 79.7109 24.0859C80.1797 24.0859 80.6406 24.0781 81.0938 24.0625C81.5625 24.0469 82.0312 24.0391 82.5 24.0391C82.9062 24.0391 83.3125 24.0547 83.7188 24.0859C84.125 24.1172 84.5234 24.1719 84.9141 24.25C85.0547 24.2031 85.2109 24.1797 85.3828 24.1797C85.5703 24.1797 85.7578 24.2031 85.9453 24.25C86.1484 24.2812 86.3438 24.2812 86.5312 24.25C86.5469 24.4219 86.5859 24.5703 86.6484 24.6953C86.7266 24.8047 86.7656 24.9375 86.7656 25.0938ZM110.062 27.0391C110.016 27.1797 109.922 27.2812 109.781 27.3438C109.656 27.3906 109.523 27.4297 109.383 27.4609C109.242 27.4922 109.109 27.5469 108.984 27.625C108.875 27.6875 108.805 27.7969 108.773 27.9531L108.727 27.9766C108.664 27.9766 108.617 27.9609 108.586 27.9297C108.57 27.8828 108.555 27.8438 108.539 27.8125C108.523 27.7656 108.5 27.7266 108.469 27.6953C108.453 27.6484 108.422 27.625 108.375 27.625C108.203 27.625 108.031 27.6406 107.859 27.6719C107.703 27.7031 107.547 27.7188 107.391 27.7188C107.156 27.7188 106.945 27.6875 106.758 27.625C106.648 27.6562 106.586 27.7266 106.57 27.8359C106.57 27.9453 106.523 28.0156 106.43 28.0469C106.352 28.0781 106.258 28.0938 106.148 28.0938C106.039 28.0781 105.93 28.0859 105.82 28.1172L105.07 28.3047C104.82 28.3672 104.57 28.3984 104.32 28.3984C104.18 28.3984 104.078 28.3906 104.016 28.375C103.781 28.5625 103.516 28.7031 103.219 28.7969C102.922 28.875 102.609 28.9531 102.281 29.0312C101.969 29.0938 101.656 29.1797 101.344 29.2891C101.047 29.3984 100.781 29.5703 100.547 29.8047C100.422 29.7734 100.312 29.7578 100.219 29.7578C100.016 29.7578 99.8359 29.8047 99.6797 29.8984C99.5234 29.9766 99.3594 30.0547 99.1875 30.1328C99.1094 30.1641 99.0312 30.1797 98.9531 30.1797C98.875 30.1797 98.7891 30.1953 98.6953 30.2266C98.6016 30.2578 98.5391 30.3125 98.5078 30.3906C98.4922 30.4531 98.4453 30.5156 98.3672 30.5781C98.3672 31.1406 98.4219 31.7031 98.5312 32.2656C98.6406 32.8125 98.6953 33.3672 98.6953 33.9297V34.0234C98.7266 34.2891 98.8125 34.5391 98.9531 34.7734C99.0938 34.9922 99.1641 35.2188 99.1641 35.4531C99.1641 35.5312 99.1484 35.6172 99.1172 35.7109C99.5234 35.8047 99.7891 36.0156 99.9141 36.3438C100.055 36.6562 100.164 37 100.242 37.375C100.336 37.7344 100.453 38.0703 100.594 38.3828C100.75 38.6953 101.047 38.8906 101.484 38.9688C101.516 39.125 101.539 39.2891 101.555 39.4609C101.57 39.6172 101.578 39.7734 101.578 39.9297C101.578 40.1484 101.555 40.3594 101.508 40.5625C101.461 40.7812 101.367 40.9766 101.227 41.1484C100.992 41.1641 100.82 41.1719 100.711 41.1719C100.602 41.1719 100.438 41.2188 100.219 41.3125C99.9062 41.125 99.625 40.9062 99.375 40.6562C99.1406 40.4219 98.9141 40.1719 98.6953 39.9062C98.4922 39.625 98.2891 39.3438 98.0859 39.0625C97.8828 38.7656 97.6641 38.4844 97.4297 38.2188C96.6172 38.4219 95.7812 38.5625 94.9219 38.6406C94.0781 38.7031 93.2344 38.7344 92.3906 38.7344C92.3594 38.7656 92.3125 38.7812 92.25 38.7812C92.1875 38.7812 92.125 38.7891 92.0625 38.8047C92.0156 38.8047 91.9688 38.8203 91.9219 38.8516C91.8906 38.8672 91.8828 38.9062 91.8984 38.9688C91.7891 38.9062 91.6641 38.8672 91.5234 38.8516C91.3984 38.8203 91.2812 38.8047 91.1719 38.8047C91.0938 38.8047 91.0156 38.8125 90.9375 38.8281C90.8594 38.8281 90.7812 38.8516 90.7031 38.8984C90.1094 38.7891 89.5312 38.6406 88.9688 38.4531C88.4219 38.25 87.8594 38.0859 87.2812 37.9609C87.2812 37.8359 87.25 37.75 87.1875 37.7031C87.125 37.6406 87.0703 37.5547 87.0234 37.4453C86.3672 37.0391 85.8125 36.5469 85.3594 35.9688C84.9219 35.3906 84.7422 34.6875 84.8203 33.8594L84.6562 33.5312C84.6562 33.2812 84.7109 33.1016 84.8203 32.9922C84.7578 32.8828 84.6484 32.7734 84.4922 32.6641C84.6328 32.4453 84.7578 32.2188 84.8672 31.9844C84.9766 31.75 85.0547 31.5 85.1016 31.2344C85.1172 31.1562 85.125 31.0859 85.125 31.0234C85.125 30.9609 85.1406 30.8906 85.1719 30.8125C85.2031 30.7188 85.25 30.6172 85.3125 30.5078C85.3594 30.3828 85.4062 30.2734 85.4531 30.1797C85.7031 29.6484 85.9766 29.1406 86.2734 28.6562C86.5859 28.1562 86.9766 27.7266 87.4453 27.3672C87.4766 27.1016 87.5547 26.8828 87.6797 26.7109C87.8047 26.5234 87.9375 26.3594 88.0781 26.2188C88.2344 26.0625 88.3828 25.9062 88.5234 25.75C88.6797 25.5938 88.7969 25.4062 88.875 25.1875C89.1875 24.9219 89.5 24.6641 89.8125 24.4141C90.1406 24.1641 90.4141 23.8672 90.6328 23.5234C90.9141 23.4297 91.1797 23.3125 91.4297 23.1719C91.6797 23.0156 91.8906 22.8203 92.0625 22.5859C92.4375 22.5547 92.8047 22.4844 93.1641 22.375C93.5391 22.2656 93.9297 22.2109 94.3359 22.2109C94.5078 22.2109 94.7109 22.25 94.9453 22.3281C95.1953 22.3906 95.3828 22.5078 95.5078 22.6797C95.5234 22.7109 95.5312 22.75 95.5312 22.7969L95.5547 22.9141C95.5703 22.9453 95.5859 22.9766 95.6016 23.0078C95.6328 23.0234 95.6797 23.0234 95.7422 23.0078C95.7422 23.3516 95.7031 23.7031 95.625 24.0625C95.5469 24.4062 95.3438 24.6719 95.0156 24.8594C94.8125 24.7969 94.5938 24.7656 94.3594 24.7656C94.0469 24.7656 93.7578 24.8281 93.4922 24.9531C93.2422 25.0625 92.9922 25.1953 92.7422 25.3516C92.5078 25.4922 92.2656 25.6406 92.0156 25.7969C91.7656 25.9375 91.5 26.0391 91.2188 26.1016C91.1875 26.2266 91.1562 26.3438 91.125 26.4531C91.1094 26.5469 91.1172 26.6562 91.1484 26.7812C91.0703 26.7812 91.0078 26.7734 90.9609 26.7578C90.9297 26.7266 90.875 26.7109 90.7969 26.7109C90.6875 26.7109 90.6094 26.7734 90.5625 26.8984C90.5312 27.0234 90.5 27.125 90.4688 27.2031C90.1719 27.3281 89.9219 27.5078 89.7188 27.7422C89.5312 27.9609 89.3516 28.2031 89.1797 28.4688C89.0234 28.7188 88.8516 28.9609 88.6641 29.1953C88.4766 29.4297 88.2422 29.6094 87.9609 29.7344C87.8359 30.2344 87.7109 30.7266 87.5859 31.2109C87.4766 31.6953 87.3438 32.1797 87.1875 32.6641C87.2344 32.8516 87.2578 33.0469 87.2578 33.25C87.2578 33.5 87.2344 33.7266 87.1875 33.9297C87.2656 34.0547 87.3438 34.2031 87.4219 34.375L87.7031 34.9141C87.7969 35.1016 87.8906 35.2734 87.9844 35.4297C88.0938 35.5859 88.1953 35.7031 88.2891 35.7812C88.4609 35.9062 88.7266 36.0234 89.0859 36.1328C89.4453 36.2266 89.7656 36.3906 90.0469 36.625C90.0781 36.625 90.1172 36.625 90.1641 36.625C90.2109 36.6094 90.25 36.6016 90.2812 36.6016C90.4688 36.6016 90.6719 36.6484 90.8906 36.7422C91.1094 36.8359 91.25 36.8828 91.3125 36.8828C92.1875 36.8828 93.1406 36.8281 94.1719 36.7188C95.2031 36.5938 96.1562 36.4453 97.0312 36.2734C97.0625 36.1172 97.0781 35.9844 97.0781 35.875C97.0781 35.6719 97.0469 35.4766 96.9844 35.2891C96.9219 35.0859 96.8203 34.9141 96.6797 34.7734C96.6797 34.5391 96.6797 34.3047 96.6797 34.0703C96.6953 33.8359 96.7031 33.6016 96.7031 33.3672C96.7031 32.9766 96.6875 32.5625 96.6562 32.125C96.625 31.6875 96.5469 31.2812 96.4219 30.9062H96.375C96.1719 30.9062 95.9844 30.9609 95.8125 31.0703C95.6562 31.1641 95.4922 31.2109 95.3203 31.2109C95.2266 31.2109 95.1484 31.1875 95.0859 31.1406C94.8984 31.3594 94.6719 31.5234 94.4062 31.6328C94.1406 31.7422 93.8594 31.8438 93.5625 31.9375C93.2656 32.0156 92.9688 32.1016 92.6719 32.1953C92.3906 32.2891 92.1328 32.4219 91.8984 32.5938C91.7734 32.5469 91.6562 32.5234 91.5469 32.5234C91.4375 32.5234 91.3281 32.5312 91.2188 32.5469C91.125 32.5625 91.0156 32.5781 90.8906 32.5938C90.5625 32.3125 90.3984 31.9609 90.3984 31.5391C90.3984 31.3203 90.4297 31.1094 90.4922 30.9062C90.5703 30.6875 90.6719 30.4844 90.7969 30.2969C90.875 30.25 90.9688 30.2266 91.0781 30.2266C91.1875 30.2109 91.2969 30.1953 91.4062 30.1797C91.5156 30.1484 91.6016 30.1094 91.6641 30.0625C91.7422 30.0156 91.7891 29.9297 91.8047 29.8047C91.8516 29.8516 91.8906 29.875 91.9219 29.875C91.9531 29.875 91.9844 29.8672 92.0156 29.8516C92.0469 29.8359 92.0781 29.8281 92.1094 29.8281C92.1406 29.8281 92.1641 29.8438 92.1797 29.875C92.2109 29.9062 92.2266 29.9375 92.2266 29.9688C92.8984 29.6094 93.5859 29.3047 94.2891 29.0547C94.9922 28.8047 95.7031 28.5781 96.4219 28.375C97.1562 28.1719 97.8906 27.9844 98.625 27.8125C99.3594 27.625 100.086 27.4219 100.805 27.2031C100.914 27.1094 101.031 27.0391 101.156 26.9922C101.281 26.9453 101.391 26.875 101.484 26.7812C101.594 26.8438 101.727 26.875 101.883 26.875C102.102 26.875 102.336 26.8359 102.586 26.7578C102.852 26.6641 103.07 26.5547 103.242 26.4297C103.305 26.4453 103.359 26.4531 103.406 26.4531H103.57C103.883 26.4531 104.172 26.4062 104.438 26.3125C104.719 26.2188 104.992 26.0938 105.258 25.9375H105.375C105.859 25.9375 106.336 25.8828 106.805 25.7734C107.289 25.6641 107.781 25.6094 108.281 25.6094C108.922 25.6094 109.484 25.7734 109.969 26.1016V26.3828C109.969 26.5078 109.969 26.625 109.969 26.7344C109.984 26.8281 110.016 26.9297 110.062 27.0391ZM108.352 36.7891C108.273 36.9141 108.18 37.0312 108.07 37.1406C107.961 37.2344 107.859 37.3359 107.766 37.4453C107.656 37.4922 107.531 37.5156 107.391 37.5156C107.266 37.5156 107.141 37.5156 107.016 37.5156C106.906 37.5 106.797 37.5 106.688 37.5156C106.594 37.5156 106.516 37.5469 106.453 37.6094C106.328 37.5781 106.234 37.5234 106.172 37.4453C106.109 37.3516 106 37.2969 105.844 37.2812C105.781 37.2656 105.719 37.2656 105.656 37.2812C105.422 37.0156 105.203 36.7344 105 36.4375C104.812 36.1406 104.633 35.8594 104.461 35.5938C104.445 35.0156 104.398 34.4297 104.32 33.8359C104.305 33.6953 104.281 33.5547 104.25 33.4141C104.219 33.2734 104.195 33.1406 104.18 33.0156C104.18 32.8594 104.188 32.7109 104.203 32.5703C104.234 32.4141 104.258 32.2734 104.273 32.1484C104.336 31.6953 104.406 31.25 104.484 30.8125C104.562 30.375 104.633 29.9297 104.695 29.4766C104.758 29.0703 104.789 28.6484 104.789 28.2109C104.789 27.7578 104.719 27.3359 104.578 26.9453L104.555 26.8281C104.586 26.7031 104.617 26.6016 104.648 26.5234C104.695 26.4297 104.727 26.3281 104.742 26.2188C104.773 26.0469 104.734 25.9219 104.625 25.8438C104.672 25.7188 104.75 25.6406 104.859 25.6094C104.969 25.5625 105.031 25.4688 105.047 25.3281C105.062 25.2656 105.062 25.2031 105.047 25.1406C105.172 25.0938 105.297 25.0547 105.422 25.0234C105.562 24.9766 105.695 24.9688 105.82 25C106.023 25.0312 106.203 25.1016 106.359 25.2109C106.516 25.3047 106.664 25.4141 106.805 25.5391C107.055 26.2891 107.156 27.0859 107.109 27.9297C107.062 28.7578 106.984 29.5938 106.875 30.4375C106.766 31.2812 106.695 32.1094 106.664 32.9219C106.633 33.7188 106.758 34.4609 107.039 35.1484L107.086 35.1719C107.164 35.1875 107.227 35.1641 107.273 35.1016C107.32 35.0234 107.383 34.9922 107.461 35.0078C107.523 35.0391 107.562 35.0547 107.578 35.0547C107.641 35.3672 107.742 35.6641 107.883 35.9453C108.023 36.2266 108.18 36.5078 108.352 36.7891ZM122.977 37.0469C122.977 37.3125 122.906 37.5469 122.766 37.75C122.641 37.9375 122.594 38.1719 122.625 38.4531C122.406 38.5781 122.227 38.7422 122.086 38.9453C121.945 39.1484 121.812 39.3594 121.688 39.5781C120.656 40.25 119.547 40.7891 118.359 41.1953C117.188 41.6172 115.977 41.8281 114.727 41.8281C114.648 41.8281 114.578 41.7891 114.516 41.7109C114.453 41.6484 114.391 41.5781 114.328 41.5C114.266 41.4219 114.195 41.3438 114.117 41.2656C114.055 41.2031 113.977 41.1719 113.883 41.1719C113.773 41.1719 113.688 41.1953 113.625 41.2422C113.625 41.2109 113.625 41.1797 113.625 41.1484C113.641 41.1328 113.648 41.1094 113.648 41.0781C113.648 40.8906 113.625 40.6953 113.578 40.4922C113.531 40.3047 113.508 40.1172 113.508 39.9297C113.508 39.7109 113.547 39.5312 113.625 39.3906H113.906C114.062 39.3906 114.211 39.3828 114.352 39.3672C114.508 39.3359 114.672 39.3203 114.844 39.3203C115.016 39.3203 115.172 39.3672 115.312 39.4609C116.172 39.4297 116.984 39.2734 117.75 38.9922C118.531 38.6953 119.32 38.4062 120.117 38.125C120.242 37.9531 120.312 37.7656 120.328 37.5625C120.359 37.3438 120.422 37.1406 120.516 36.9531C120.109 36.6094 119.695 36.3438 119.273 36.1562C118.867 35.9531 118.391 35.8828 117.844 35.9453C117.516 35.7422 117.164 35.625 116.789 35.5938C116.43 35.5625 116.062 35.5156 115.688 35.4531C115.594 35.4375 115.492 35.4219 115.383 35.4062C115.289 35.375 115.188 35.3594 115.078 35.3594C115 35.3594 114.922 35.3828 114.844 35.4297C114.781 35.4609 114.766 35.5156 114.797 35.5938C114.719 35.4688 114.609 35.3984 114.469 35.3828C114.344 35.3516 114.234 35.2891 114.141 35.1953C113.641 35.1641 113.203 35.0781 112.828 34.9375C112.453 34.7812 112.039 34.6094 111.586 34.4219C111.461 34.375 111.336 34.3438 111.211 34.3281C111.102 34.2969 110.992 34.25 110.883 34.1875C110.602 34.0469 110.375 33.8594 110.203 33.625C110.031 33.3906 109.898 33.1328 109.805 32.8516C109.695 32.5547 109.617 32.25 109.57 31.9375C109.523 31.625 109.477 31.3359 109.43 31.0703C109.57 30.8203 109.703 30.5625 109.828 30.2969C109.938 30.0312 110.031 29.75 110.109 29.4531C110.203 29.4062 110.297 29.3672 110.391 29.3359C110.484 29.3047 110.586 29.2656 110.695 29.2188C110.68 29.1875 110.672 29.1484 110.672 29.1016C110.672 29.0234 110.695 28.9453 110.742 28.8672C110.805 28.7891 110.82 28.7109 110.789 28.6328C111.133 28.3203 111.461 28 111.773 27.6719C112.102 27.3281 112.383 26.9531 112.617 26.5469C112.852 26.4688 113.039 26.3516 113.18 26.1953C113.32 26.0391 113.461 25.8828 113.602 25.7266C113.742 25.5547 113.898 25.4062 114.07 25.2812C114.242 25.1406 114.461 25.0547 114.727 25.0234C114.789 24.9141 114.875 24.8281 114.984 24.7656C115.094 24.6875 115.203 24.6172 115.312 24.5547C115.422 24.4922 115.523 24.4219 115.617 24.3438C115.711 24.2656 115.781 24.1562 115.828 24.0156C116.078 24.0156 116.305 23.9688 116.508 23.875C116.727 23.7812 116.938 23.6797 117.141 23.5703C117.344 23.4609 117.547 23.3594 117.75 23.2656C117.969 23.1719 118.203 23.125 118.453 23.125C118.516 23.125 118.578 23.1328 118.641 23.1484C118.703 23.1484 118.773 23.1562 118.852 23.1719C118.961 23.2812 119.031 23.4141 119.062 23.5703C119.109 23.7109 119.141 23.8672 119.156 24.0391C119.172 24.2109 119.18 24.3828 119.18 24.5547C119.195 24.7266 119.227 24.8828 119.273 25.0234C119.133 25.2891 118.977 25.5547 118.805 25.8203C118.648 26.0859 118.438 26.2891 118.172 26.4297H118.125C118.016 26.4453 117.914 26.4219 117.82 26.3594C117.727 26.2969 117.617 26.2656 117.492 26.2656C117.414 26.2656 117.352 26.2891 117.305 26.3359L117.188 26.4531C117.156 26.4844 117.109 26.5156 117.047 26.5469C117 26.5781 116.93 26.5781 116.836 26.5469C116.617 26.625 116.531 26.7578 116.578 26.9453C116.281 26.9766 116.031 27.0703 115.828 27.2266C115.625 27.3672 115.438 27.5312 115.266 27.7188C115.094 27.8906 114.922 28.0547 114.75 28.2109C114.578 28.3516 114.375 28.4297 114.141 28.4453C113.875 28.9141 113.547 29.3281 113.156 29.6875C112.781 30.0469 112.469 30.4531 112.219 30.9062C112.266 31.0312 112.297 31.1641 112.312 31.3047C112.328 31.4453 112.352 31.5938 112.383 31.75C112.523 31.9375 112.688 32.1016 112.875 32.2422C113.078 32.3828 113.273 32.5234 113.461 32.6641H113.531C113.844 32.6641 114.133 32.7266 114.398 32.8516C114.664 32.9609 114.945 33.0156 115.242 33.0156C115.398 33.0156 115.531 32.9844 115.641 32.9219C116.047 33.0156 116.445 33.0938 116.836 33.1562C117.242 33.2188 117.648 33.2656 118.055 33.2969C118.258 33.3281 118.461 33.3438 118.664 33.3438C118.883 33.3438 119.086 33.3672 119.273 33.4141C119.445 33.4609 119.617 33.5234 119.789 33.6016C119.961 33.6641 120.133 33.7344 120.305 33.8125C120.664 33.9688 121 34.1406 121.312 34.3281C121.641 34.5156 121.93 34.7422 122.18 35.0078C122.43 35.2578 122.625 35.5547 122.766 35.8984C122.906 36.2266 122.977 36.6094 122.977 37.0469ZM143.344 24.9297C143.281 25.1328 143.18 25.3203 143.039 25.4922L142.641 25.9844C142.516 26.1406 142.406 26.3125 142.312 26.5C142.234 26.6719 142.211 26.875 142.242 27.1094C142.211 27.1094 142.172 27.1094 142.125 27.1094C142.078 27.0938 142.039 27.0859 142.008 27.0859C141.758 27.0859 141.562 27.1484 141.422 27.2734C141.297 27.3828 141.125 27.4766 140.906 27.5547C140.875 27.4609 140.836 27.375 140.789 27.2969C140.742 27.2031 140.672 27.1406 140.578 27.1094C140.203 27.1875 139.828 27.25 139.453 27.2969C139.078 27.3281 138.703 27.375 138.328 27.4375C138.156 27.4688 137.984 27.5156 137.812 27.5781C137.641 27.625 137.461 27.6719 137.273 27.7188C137.18 27.75 137.078 27.7656 136.969 27.7656C136.859 27.75 136.75 27.75 136.641 27.7656C136.266 27.7812 135.859 27.8125 135.422 27.8594C134.984 27.8906 134.594 28.0078 134.25 28.2109C134.094 28.1797 133.93 28.1562 133.758 28.1406C133.586 28.125 133.414 28.1172 133.242 28.1172C132.867 28.1172 132.453 28.1562 132 28.2344C131.562 28.2969 131.172 28.4297 130.828 28.6328C130.75 28.6016 130.664 28.5781 130.57 28.5625C130.492 28.5469 130.398 28.5391 130.289 28.5391C130.258 28.5391 130.234 28.5469 130.219 28.5625C130.203 28.5625 130.18 28.5625 130.148 28.5625C130.133 28.7031 130.148 28.8438 130.195 28.9844C130.258 29.1094 130.359 29.2109 130.5 29.2891C130.438 29.4609 130.406 29.6484 130.406 29.8516C130.406 30.1172 130.422 30.3828 130.453 30.6484C130.5 30.9141 130.523 31.1797 130.523 31.4453C130.523 31.7422 130.484 31.9766 130.406 32.1484C130.562 32.6172 130.641 33.1172 130.641 33.6484C130.641 33.8359 130.625 34.0234 130.594 34.2109C130.578 34.3828 130.57 34.5703 130.57 34.7734C130.57 34.9453 130.633 35.0859 130.758 35.1953C130.883 35.2891 130.945 35.4219 130.945 35.5938C130.945 35.6562 130.93 35.7188 130.898 35.7812C131.117 35.7344 131.328 35.6719 131.531 35.5938C131.734 35.5 131.945 35.4531 132.164 35.4531C132.289 35.4531 132.406 35.4766 132.516 35.5234C132.641 35.5703 132.75 35.6328 132.844 35.7109C132.828 35.7891 132.812 35.875 132.797 35.9688C132.797 36.0625 132.797 36.1562 132.797 36.25C132.797 36.4219 132.797 36.5859 132.797 36.7422C132.812 36.8828 132.828 37.0391 132.844 37.2109C132.719 37.4297 132.57 37.625 132.398 37.7969C132.242 37.9688 132.133 38.1875 132.07 38.4531C131.836 38.4531 131.625 38.5078 131.438 38.6172C131.266 38.7109 131.102 38.8203 130.945 38.9453C130.789 39.0547 130.633 39.1641 130.477 39.2734C130.32 39.3672 130.148 39.4141 129.961 39.4141C129.727 39.4141 129.562 39.3828 129.469 39.3203C129.375 39.2422 129.305 39.1641 129.258 39.0859C129.211 39.0078 129.164 38.9375 129.117 38.875C129.086 38.8125 129.008 38.7891 128.883 38.8047C128.852 38.6016 128.789 38.4141 128.695 38.2422C128.602 38.0547 128.5 37.875 128.391 37.7031C128.297 37.5312 128.195 37.3594 128.086 37.1875C127.992 37 127.922 36.8125 127.875 36.625C127.781 36.2188 127.742 35.7969 127.758 35.3594C127.773 34.9219 127.703 34.5 127.547 34.0938C127.578 33.875 127.602 33.6562 127.617 33.4375C127.633 33.2031 127.641 32.9766 127.641 32.7578C127.641 32.3203 127.625 31.8906 127.594 31.4688C127.578 31.0312 127.562 30.5859 127.547 30.1328C127.438 29.9922 127.367 29.8359 127.336 29.6641C127.32 29.4766 127.305 29.2969 127.289 29.125C127.242 29.0781 127.188 29.0312 127.125 28.9844C127.078 28.9375 127.047 28.875 127.031 28.7969C126.906 28.7656 126.812 28.75 126.75 28.75C126.531 28.75 126.344 28.8047 126.188 28.9141C126.047 29.0078 125.914 29.0547 125.789 29.0547C125.664 29.0547 125.547 29.0391 125.438 29.0078C125.328 28.9766 125.219 28.9609 125.109 28.9609C125.016 28.9609 124.961 28.9844 124.945 29.0312C124.945 29.0625 124.914 29.0938 124.852 29.125C124.805 29.1562 124.695 29.1875 124.523 29.2188C124.352 29.25 124.156 29.2812 123.938 29.3125C123.734 29.3281 123.531 29.3438 123.328 29.3594C123.141 29.375 123.016 29.3828 122.953 29.3828C122.703 29.3828 122.516 29.3359 122.391 29.2422C122.25 29.1328 122.086 29.0156 121.898 28.8906C121.93 28.7969 121.945 28.7344 121.945 28.7031C121.945 28.5469 121.898 28.4219 121.805 28.3281C121.711 28.2188 121.664 28.125 121.664 28.0469C121.664 27.875 121.734 27.7422 121.875 27.6484C122 27.5547 122.07 27.4062 122.086 27.2031C122.445 27.0469 122.812 26.9297 123.188 26.8516C123.562 26.7734 123.945 26.7109 124.336 26.6641C124.727 26.6172 125.109 26.5625 125.484 26.5C125.875 26.4375 126.258 26.3359 126.633 26.1953C126.742 26.2109 126.844 26.2266 126.938 26.2422C127.047 26.2422 127.156 26.2422 127.266 26.2422C127.734 26.2422 128.195 26.1953 128.648 26.1016C129.117 25.9922 129.594 25.9375 130.078 25.9375C130.203 25.9375 130.328 25.9453 130.453 25.9609C130.578 25.9766 130.703 26 130.828 26.0312C131.453 25.9375 132.07 25.8359 132.68 25.7266C133.305 25.6172 133.945 25.5234 134.602 25.4453C134.914 25.4141 135.219 25.3906 135.516 25.375C135.828 25.3438 136.141 25.3047 136.453 25.2578C136.562 25.2422 136.641 25.2188 136.688 25.1875C136.75 25.1406 136.781 25.0547 136.781 24.9297C136.922 24.9922 137.078 25.0234 137.25 25.0234C137.516 25.0234 137.773 24.9766 138.023 24.8828C138.273 24.7891 138.531 24.7422 138.797 24.7422C138.859 24.7422 138.914 24.75 138.961 24.7656C139.008 24.7656 139.055 24.7656 139.102 24.7656C139.211 24.7656 139.266 24.7188 139.266 24.625C139.281 24.5156 139.359 24.4453 139.5 24.4141C139.609 24.3828 139.766 24.3594 139.969 24.3438C140.172 24.3281 140.383 24.3125 140.602 24.2969C140.836 24.2656 141.047 24.2344 141.234 24.2031C141.438 24.1562 141.586 24.0938 141.68 24.0156L141.844 23.7578C142.125 23.7734 142.328 23.8984 142.453 24.1328C142.594 24.3516 142.672 24.5938 142.688 24.8594C142.75 24.9219 142.836 24.9531 142.945 24.9531C143.07 24.9375 143.18 24.9297 143.273 24.9297H143.344ZM154.898 25.0938V25.1875C154.789 25.2188 154.734 25.2969 154.734 25.4219C154.562 25.5 154.383 25.5625 154.195 25.6094C154.008 25.6406 153.828 25.6953 153.656 25.7734C153.484 25.7578 153.305 25.75 153.117 25.75C152.945 25.7344 152.773 25.7266 152.602 25.7266C152.133 25.7266 151.664 25.7422 151.195 25.7734C150.727 25.8047 150.258 25.8047 149.789 25.7734C149.57 25.8984 149.328 26 149.062 26.0781C148.812 26.1406 148.57 26.1719 148.336 26.1719C148.148 26.1719 147.984 26.1484 147.844 26.1016C147.469 26.2891 147.055 26.4453 146.602 26.5703C146.164 26.6953 145.719 26.8203 145.266 26.9453C144.812 27.0547 144.375 27.1875 143.953 27.3438C143.547 27.4844 143.188 27.6875 142.875 27.9531C142.844 28.1719 142.82 28.3906 142.805 28.6094C142.789 28.8125 142.781 29.0156 142.781 29.2188C142.781 29.4375 142.789 29.6406 142.805 29.8281C142.836 30.0156 142.891 30.2031 142.969 30.3906C143.047 30.4219 143.133 30.4453 143.227 30.4609C143.336 30.4766 143.43 30.4844 143.508 30.4844C143.586 30.4844 143.664 30.4766 143.742 30.4609C143.82 30.4297 143.875 30.375 143.906 30.2969C144.141 30.2656 144.375 30.2578 144.609 30.2734C144.844 30.2734 145.078 30.2734 145.312 30.2734C145.547 30.2734 145.773 30.2656 145.992 30.25C146.227 30.2344 146.453 30.1953 146.672 30.1328C146.922 30.0703 147.164 30.0312 147.398 30.0156C147.648 30 147.891 29.9844 148.125 29.9688C148.359 29.9531 148.602 29.9297 148.852 29.8984C149.102 29.8516 149.359 29.7656 149.625 29.6406C149.828 29.7188 150.031 29.7578 150.234 29.7578C150.453 29.7578 150.664 29.7734 150.867 29.8047C150.977 29.8828 151.062 29.9688 151.125 30.0625C151.203 30.1562 151.242 30.2656 151.242 30.3906C151.242 30.6094 151.164 30.8281 151.008 31.0469C150.852 31.2656 150.727 31.4688 150.633 31.6562H150.375C150 31.6562 149.633 31.7109 149.273 31.8203C148.93 31.9141 148.578 32.0312 148.219 32.1719C147.875 32.2969 147.523 32.4141 147.164 32.5234C146.82 32.6172 146.461 32.6641 146.086 32.6641C146.023 32.6641 145.984 32.7031 145.969 32.7812C145.969 32.8438 145.953 32.8906 145.922 32.9219C145.844 32.9062 145.727 32.8984 145.57 32.8984C145.211 32.8984 144.867 32.9375 144.539 33.0156C144.211 33.0938 143.875 33.1328 143.531 33.1328C143.438 33.1328 143.344 33.1328 143.25 33.1328C143.156 33.1172 143.062 33.1016 142.969 33.0859C142.891 33.2109 142.789 33.2969 142.664 33.3438C142.539 33.375 142.422 33.4375 142.312 33.5312C142.266 33.6719 142.234 33.8438 142.219 34.0469C142.219 34.25 142.211 34.4609 142.195 34.6797C142.195 34.8828 142.18 35.0781 142.148 35.2656C142.117 35.4531 142.055 35.6016 141.961 35.7109C141.977 35.7891 142.039 35.8203 142.148 35.8047C142.258 35.7734 142.312 35.8203 142.312 35.9453C142.312 36.0859 142.297 36.2344 142.266 36.3906C142.234 36.5469 142.219 36.7031 142.219 36.8594C142.219 37.1562 142.25 37.4844 142.312 37.8438C142.391 38.1875 142.5 38.5078 142.641 38.8047C142.797 39.1016 143 39.3516 143.25 39.5547C143.5 39.7422 143.812 39.8359 144.188 39.8359C144.438 39.8359 144.672 39.7891 144.891 39.6953C145.109 39.6016 145.289 39.4453 145.43 39.2266L145.547 39.2031C145.609 39.2031 145.664 39.2109 145.711 39.2266C145.773 39.2422 145.836 39.25 145.898 39.25C145.992 39.25 146.109 39.1953 146.25 39.0859C146.406 38.9609 146.57 38.8203 146.742 38.6641C146.93 38.5078 147.117 38.3594 147.305 38.2188C147.492 38.0625 147.672 37.9531 147.844 37.8906C147.953 37.6719 148.055 37.4531 148.148 37.2344C148.258 37.0156 148.414 36.8438 148.617 36.7188V36.0391C148.773 35.8672 148.938 35.7109 149.109 35.5703C149.297 35.4297 149.438 35.25 149.531 35.0312C149.609 35.0625 149.68 35.0859 149.742 35.1016C149.82 35.1172 149.898 35.125 149.977 35.125C150.055 35.125 150.133 35.1172 150.211 35.1016C150.305 35.0859 150.391 35.0625 150.469 35.0312C150.594 35.2031 150.688 35.3984 150.75 35.6172C150.828 35.8203 150.922 36.0156 151.031 36.2031C150.891 36.4844 150.727 36.8203 150.539 37.2109C150.352 37.6016 150.148 37.9922 149.93 38.3828C149.711 38.7734 149.477 39.1484 149.227 39.5078C148.992 39.8516 148.758 40.1172 148.523 40.3047C148.477 40.3516 148.375 40.4062 148.219 40.4688C148.047 40.5938 147.891 40.7109 147.75 40.8203C147.609 40.9453 147.477 41.0859 147.352 41.2422C146.898 41.3828 146.461 41.5703 146.039 41.8047C145.633 42.0391 145.227 42.2656 144.82 42.4844C144.633 42.4375 144.43 42.4141 144.211 42.4141C144.023 42.4141 143.836 42.4219 143.648 42.4375C143.461 42.4688 143.258 42.4844 143.039 42.4844C142.977 42.4062 142.883 42.3516 142.758 42.3203C142.648 42.3047 142.609 42.2266 142.641 42.0859C142.109 42.0547 141.68 41.9062 141.352 41.6406C141.023 41.3906 140.742 41.0781 140.508 40.7031C140.289 40.3281 140.109 39.9219 139.969 39.4844C139.828 39.0469 139.68 38.625 139.523 38.2188V38.1484C139.523 38.0703 139.555 38.0234 139.617 38.0078C139.68 37.9922 139.711 37.9453 139.711 37.8672C139.711 37.8359 139.703 37.8125 139.688 37.7969C139.641 37.625 139.602 37.4766 139.57 37.3516C139.539 37.2266 139.523 37.0781 139.523 36.9062C139.523 36.6562 139.539 36.4141 139.57 36.1797C139.602 35.9297 139.617 35.6797 139.617 35.4297C139.617 35.1797 139.586 34.9609 139.523 34.7734C139.586 34.6953 139.641 34.5938 139.688 34.4688C139.719 34.3281 139.742 34.1875 139.758 34.0469C139.773 33.9062 139.781 33.7656 139.781 33.625C139.797 33.4844 139.82 33.3594 139.852 33.25C139.789 33.0781 139.734 32.9297 139.688 32.8047C139.641 32.6641 139.617 32.5 139.617 32.3125V32.1484C139.773 31.8828 139.906 31.6094 140.016 31.3281C140.125 31.0469 140.242 30.7578 140.367 30.4609V30.3906C140.367 29.9375 140.352 29.4844 140.32 29.0312C140.289 28.5781 140.273 28.125 140.273 27.6719V27.2266C140.273 27.0703 140.281 26.9219 140.297 26.7812C140.422 26.7188 140.516 26.6328 140.578 26.5234C140.641 26.4141 140.734 26.3281 140.859 26.2656H141.633L141.773 26.0312C141.82 25.9531 141.852 25.8672 141.867 25.7734C142.039 25.7266 142.203 25.6641 142.359 25.5859C142.531 25.4922 142.688 25.3984 142.828 25.3047C143.047 25.1797 143.242 25.0703 143.414 24.9766C143.602 24.8672 143.781 24.7812 143.953 24.7188C144.141 24.6406 144.336 24.5781 144.539 24.5312C144.742 24.4844 144.977 24.4453 145.242 24.4141C145.367 24.4141 145.445 24.3906 145.477 24.3438C145.523 24.2969 145.586 24.2422 145.664 24.1797C145.852 24.2109 146.039 24.2422 146.227 24.2734C146.414 24.2891 146.602 24.2969 146.789 24.2969C147.164 24.2969 147.516 24.2266 147.844 24.0859C148.312 24.0859 148.773 24.0781 149.227 24.0625C149.695 24.0469 150.164 24.0391 150.633 24.0391C151.039 24.0391 151.445 24.0547 151.852 24.0859C152.258 24.1172 152.656 24.1719 153.047 24.25C153.188 24.2031 153.344 24.1797 153.516 24.1797C153.703 24.1797 153.891 24.2031 154.078 24.25C154.281 24.2812 154.477 24.2812 154.664 24.25C154.68 24.4219 154.719 24.5703 154.781 24.6953C154.859 24.8047 154.898 24.9375 154.898 25.0938ZM183.75 35.9219C183.719 36.1562 183.633 36.3359 183.492 36.4609C183.367 36.5859 183.219 36.7031 183.047 36.8125C182.969 36.7969 182.891 36.7891 182.812 36.7891C182.75 36.7734 182.68 36.7656 182.602 36.7656C182.117 36.75 181.656 36.8125 181.219 36.9531C180.797 37.0938 180.359 37.1953 179.906 37.2578C179.75 37.2891 179.602 37.3047 179.461 37.3047C179.336 37.2891 179.203 37.2969 179.062 37.3281C178.562 37.4062 178.031 37.4688 177.469 37.5156C176.906 37.5625 176.344 37.625 175.781 37.7031C175.219 37.7656 174.664 37.8516 174.117 37.9609C173.586 38.0547 173.086 38.1953 172.617 38.3828C172.57 38.3516 172.523 38.3203 172.477 38.2891C172.43 38.2422 172.375 38.2188 172.312 38.2188C172.156 38.2188 172.008 38.2422 171.867 38.2891C171.727 38.3359 171.586 38.3516 171.445 38.3359C171.289 38.4297 171.117 38.5 170.93 38.5469C170.758 38.5781 170.578 38.6094 170.391 38.6406C170.219 38.6562 170.047 38.6875 169.875 38.7344C169.703 38.7812 169.539 38.8672 169.383 38.9922C169.258 38.9297 169.102 38.8984 168.914 38.8984C168.742 38.8828 168.625 38.8203 168.562 38.7109C168.203 38.8828 167.82 38.9922 167.414 39.0391C167.023 39.0859 166.625 39.1016 166.219 39.0859C165.953 39.0703 165.648 39.0312 165.305 38.9688C164.961 38.9062 164.617 38.8203 164.273 38.7109C163.93 38.5859 163.609 38.4453 163.312 38.2891C163.016 38.1172 162.789 37.9141 162.633 37.6797C162.523 37.5234 162.445 37.3516 162.398 37.1641C162.352 36.9766 162.242 36.8359 162.07 36.7422C162.117 36.3828 162.172 36.0312 162.234 35.6875C162.297 35.3438 162.359 34.9922 162.422 34.6328C162.734 34.3672 163.031 34.0859 163.312 33.7891C163.594 33.4922 163.859 33.1797 164.109 32.8516C164.406 32.7109 164.68 32.5391 164.93 32.3359C165.195 32.1328 165.453 31.9297 165.703 31.7266C165.969 31.5078 166.227 31.2969 166.477 31.0938C166.742 30.8906 167.023 30.7109 167.32 30.5547C167.367 30.4453 167.43 30.3594 167.508 30.2969C167.602 30.2188 167.695 30.1484 167.789 30.0859C167.883 30.0078 167.969 29.9297 168.047 29.8516C168.125 29.7578 168.18 29.6484 168.211 29.5234C168.758 29.1953 169.234 28.7812 169.641 28.2812C170.047 27.7812 170.312 27.2188 170.438 26.5938C170.172 26.375 169.867 26.2344 169.523 26.1719C169.195 26.0938 168.852 26.0391 168.492 26.0078C168.18 25.9922 167.852 25.9922 167.508 26.0078C167.18 26.0234 166.844 26.0156 166.5 25.9844C166.156 26.0938 165.797 26.1641 165.422 26.1953C165.062 26.2266 164.703 26.2578 164.344 26.2891C163.984 26.3047 163.625 26.3516 163.266 26.4297C162.922 26.4922 162.586 26.6172 162.258 26.8047C162.195 26.8047 162.133 26.7969 162.07 26.7812C162.023 26.7656 161.969 26.7578 161.906 26.7578C161.406 26.7422 160.938 26.8438 160.5 27.0625C160.062 27.2656 159.633 27.4688 159.211 27.6719C159.18 27.7344 159.164 27.7812 159.164 27.8125C159.164 27.9062 159.18 28 159.211 28.0938C159.258 28.1719 159.281 28.2578 159.281 28.3516C159.266 28.3672 159.258 28.3828 159.258 28.3984C159.258 28.4141 159.25 28.4297 159.234 28.4453C159.219 28.5234 159.195 28.5938 159.164 28.6562C159.148 28.7188 159.125 28.7891 159.094 28.8672C158.922 29.3672 158.828 29.8594 158.812 30.3438C158.797 30.75 158.797 31.1484 158.812 31.5391C158.828 31.9297 158.828 32.3281 158.812 32.7344C158.781 33.2344 158.703 33.7031 158.578 34.1406C158.656 34.5156 158.727 34.9141 158.789 35.3359C158.852 35.7422 158.93 36.1484 159.023 36.5547C159.117 36.9609 159.227 37.3594 159.352 37.75C159.492 38.125 159.672 38.4844 159.891 38.8281C159.875 38.8594 159.883 38.8828 159.914 38.8984C159.945 38.9141 159.977 38.9219 160.008 38.9219H160.195C160.273 38.9219 160.305 38.9531 160.289 39.0156C160.32 39.0625 160.344 39.1094 160.359 39.1562C160.375 39.1875 160.406 39.2188 160.453 39.25C160.484 39.2969 160.484 39.3594 160.453 39.4375C160.438 39.75 160.359 40.0391 160.219 40.3047C160.078 40.5703 159.992 40.8594 159.961 41.1719C159.773 41.2188 159.602 41.2422 159.445 41.2422C159.18 41.2266 158.945 41.1484 158.742 41.0078C158.539 40.8828 158.352 40.7266 158.18 40.5391C158.008 40.3516 157.844 40.1641 157.688 39.9766C157.531 39.7734 157.359 39.6016 157.172 39.4609C157.062 39.0234 156.953 38.5391 156.844 38.0078C156.75 37.4766 156.586 37.0234 156.352 36.6484C156.414 36.5078 156.445 36.3359 156.445 36.1328C156.461 35.8203 156.43 35.5156 156.352 35.2188C156.289 34.9062 156.273 34.5938 156.305 34.2812C156.305 34.1094 156.32 33.9375 156.352 33.7656C156.398 33.5938 156.43 33.4219 156.445 33.25C156.461 32.9844 156.43 32.7266 156.352 32.4766C156.289 32.2266 156.266 31.9688 156.281 31.7031C156.297 31.5781 156.32 31.4609 156.352 31.3516C156.398 31.2266 156.461 31.1172 156.539 31.0234C156.461 30.8359 156.438 30.6562 156.469 30.4844C156.484 30.2188 156.516 29.9688 156.562 29.7344C156.609 29.5 156.641 29.2656 156.656 29.0312C156.656 28.9062 156.648 28.7891 156.633 28.6797C156.617 28.5547 156.594 28.4375 156.562 28.3281L156.352 28.2578C156.258 28.2578 156.164 28.2812 156.07 28.3281C155.992 28.375 155.922 28.4297 155.859 28.4922C155.797 28.5547 155.742 28.6094 155.695 28.6562C155.648 28.6875 155.602 28.7031 155.555 28.7031C155.523 28.7031 155.484 28.7031 155.438 28.7031C155.406 28.6875 155.375 28.6797 155.344 28.6797C155.312 28.6797 155.25 28.7109 155.156 28.7734C155.078 28.8359 154.977 28.9062 154.852 28.9844C154.742 29.0469 154.633 29.1172 154.523 29.1953C154.414 29.2578 154.328 29.2969 154.266 29.3125C154.094 29.2812 153.953 29.2266 153.844 29.1484C153.75 29.0547 153.656 28.9688 153.562 28.8906C153.484 28.7969 153.398 28.7188 153.305 28.6562C153.211 28.5781 153.094 28.5469 152.953 28.5625C152.906 28.4688 152.883 28.3672 152.883 28.2578C152.867 28.1484 152.867 28.0391 152.883 27.9297V27.5547C152.992 27.3516 153.141 27.1875 153.328 27.0625C153.5 26.9219 153.688 26.8047 153.891 26.7109L154.5 26.4297C154.703 26.3359 154.891 26.2188 155.062 26.0781H155.273C155.555 26.0938 155.797 26.0391 156 25.9141C156.219 25.7891 156.422 25.6484 156.609 25.4922C156.797 25.3203 156.984 25.1484 157.172 24.9766C157.375 24.8047 157.594 24.6719 157.828 24.5781C158 24.6562 158.18 24.7266 158.367 24.7891C158.555 24.8359 158.75 24.8672 158.953 24.8828C159.156 24.8828 159.367 24.8516 159.586 24.7891C159.805 24.7266 159.977 24.6094 160.102 24.4375C160.18 24.4688 160.242 24.4922 160.289 24.5078C160.352 24.5078 160.422 24.5078 160.5 24.5078C160.734 24.5234 160.969 24.4922 161.203 24.4141C161.438 24.3203 161.664 24.2109 161.883 24.0859C162.195 24.1016 162.5 24.0859 162.797 24.0391C163.109 23.9766 163.414 23.9141 163.711 23.8516C164.023 23.7891 164.328 23.7344 164.625 23.6875C164.938 23.625 165.25 23.6016 165.562 23.6172C166.078 23.6328 166.586 23.5859 167.086 23.4766C167.586 23.3672 168.094 23.3281 168.609 23.3594C168.969 23.375 169.32 23.4062 169.664 23.4531C170.023 23.4844 170.383 23.4922 170.742 23.4766C170.945 23.5703 171.125 23.6562 171.281 23.7344C171.453 23.7969 171.664 23.8125 171.914 23.7812C172.414 24.2031 172.867 24.6953 173.273 25.2578V25.6562C173.258 26.0156 173.195 26.3672 173.086 26.7109C172.977 27.0547 172.844 27.3984 172.688 27.7422C172.547 28.0703 172.391 28.3984 172.219 28.7266C172.047 29.0391 171.883 29.3516 171.727 29.6641C170.711 30.5859 169.695 31.5 168.68 32.4062C167.664 33.3125 166.617 34.1875 165.539 35.0312C165.508 35.1875 165.461 35.3281 165.398 35.4531C165.352 35.5781 165.32 35.7109 165.305 35.8516C165.305 35.9297 165.312 35.9922 165.328 36.0391C165.438 36.0703 165.531 36.1328 165.609 36.2266C165.703 36.3047 165.734 36.4141 165.703 36.5547H165.914C165.992 36.5547 166.031 36.5859 166.031 36.6484L166.406 36.6719C167 36.7031 167.594 36.6875 168.188 36.625C168.781 36.5625 169.375 36.4922 169.969 36.4141C170.578 36.3359 171.18 36.2656 171.773 36.2031C172.367 36.125 172.961 36.0781 173.555 36.0625C173.695 36.0156 173.844 35.9766 174 35.9453C174.156 35.9141 174.297 35.8516 174.422 35.7578H174.492C174.602 35.7578 174.68 35.7891 174.727 35.8516C174.789 35.9141 174.875 35.9531 174.984 35.9688C175.062 35.9688 175.141 35.9531 175.219 35.9219C175.312 35.8906 175.406 35.8672 175.5 35.8516C175.719 35.7891 175.945 35.75 176.18 35.7344C176.43 35.7188 176.672 35.6953 176.906 35.6641C177.812 35.5859 178.711 35.5391 179.602 35.5234C180.492 35.4922 181.383 35.375 182.273 35.1719C182.352 35.2812 182.461 35.3594 182.602 35.4062C182.742 35.4375 182.891 35.4766 183.047 35.5234C183.203 35.5547 183.344 35.5938 183.469 35.6406C183.609 35.6875 183.703 35.7812 183.75 35.9219Z" fill="#FFFEFE"/>
</svg>
