<svg width="237" height="68" viewBox="0 0 237 68" fill="none" xmlns="http://www.w3.org/2000/svg">
<g filter="url(#filter0_d)">
<path fill-rule="evenodd" clip-rule="evenodd" d="M8.54661 0.118202C8.35999 0.174704 8.10898 0.279624 7.98879 0.351339C7.86859 0.423053 7.60955 0.554834 7.41313 0.644195C7.13871 0.768935 7.08507 0.841344 7.18145 0.956348C7.25046 1.03867 7.39611 1.27154 7.50528 1.47382C7.67911 1.79606 7.67911 1.83552 7.50501 1.79284C7.2702 1.7353 7.36698 1.86725 7.76922 2.15272C7.91896 2.25894 8.05032 2.43497 8.06107 2.54389C8.09319 2.87021 8.28308 3.41707 8.481 3.75339C8.58337 3.92724 8.63237 4.09162 8.5899 4.11874C8.45011 4.20801 8.67566 4.59292 9.02182 4.85553C9.30046 5.06702 9.32509 5.12283 9.15794 5.16377C8.91156 5.2241 8.8842 5.48001 9.12404 5.48001C9.22736 5.48001 9.29025 5.59102 9.28412 5.76252C9.27854 5.91786 9.39016 6.1716 9.53227 6.32642C9.67438 6.48115 9.77266 6.69629 9.75075 6.80451C9.72883 6.91265 9.76109 7.05269 9.82248 7.11571C9.88388 7.17864 9.89776 7.25323 9.85352 7.28157C9.80928 7.30982 9.84127 7.38544 9.92458 7.4496C10.0361 7.53539 10.0358 7.56625 9.92335 7.56625C9.73101 7.56625 9.72053 8.06269 9.91205 8.10346C10.0057 8.12336 9.99155 8.25062 9.87013 8.48011C9.7694 8.67074 9.70093 8.9636 9.71822 9.13093C9.7355 9.29826 9.75442 9.48829 9.76014 9.55322C9.76749 9.6365 9.88102 9.65545 10.145 9.61737L10.5193 9.56348L10.1109 9.79001C9.85965 9.92944 9.76518 10.0323 9.86536 10.0575C10.0216 10.0969 9.99699 10.9035 9.83038 11.208C9.7939 11.2747 9.8719 11.4054 10.0038 11.4984C10.2329 11.6601 10.2322 11.6728 9.98774 11.7869C9.62606 11.9558 9.65015 12.5232 10.0314 12.8165C10.1808 12.9315 10.1812 12.9797 10.0339 13.093C9.82112 13.2567 9.74054 14.9328 9.94159 15.0122C10.0231 15.0444 10.0203 15.084 9.93411 15.1181C9.81037 15.1669 9.72244 15.6159 9.75742 16.0199C9.76463 16.1036 9.8625 16.172 9.97481 16.172C10.0871 16.172 10.179 16.2307 10.179 16.3024C10.179 16.3741 10.0871 16.4328 9.97481 16.4328C9.71917 16.4328 9.7031 16.7694 9.95588 16.8313C10.2375 16.9003 10.2641 18.0844 9.98406 18.0844C9.85788 18.0844 9.80928 18.1344 9.85747 18.2148C9.90062 18.2865 9.86999 18.3452 9.78941 18.3452C9.62089 18.3452 9.74612 18.6137 9.96487 18.7212C10.0664 18.7711 10.0589 18.8065 9.94077 18.8371C9.72679 18.8925 9.71631 19.1275 9.92784 19.1275C10.0203 19.1275 9.98964 19.1949 9.85338 19.291C9.64471 19.4382 9.64253 19.4679 9.83106 19.5883C9.96432 19.6734 9.98624 19.7335 9.8915 19.7537C9.79036 19.7753 9.81173 19.8912 9.95765 20.1145C10.1441 20.3993 10.1473 20.4688 9.98188 20.633C9.8768 20.7373 9.74884 20.9693 9.69752 21.1485C9.61381 21.4411 9.63369 21.4745 9.89164 21.4745C10.2061 21.4745 10.2427 21.5363 10.0457 21.7353C9.95343 21.8286 9.97821 21.8794 10.1326 21.914C10.3284 21.9579 10.3279 21.9755 10.1266 22.104C10.0045 22.182 9.96065 22.2679 10.029 22.2948C10.2117 22.3669 10.0429 22.6915 9.82276 22.6915C9.58509 22.6915 9.58672 22.7086 9.85883 23.073C10.0672 23.352 10.0672 23.3838 9.8591 23.5166C9.68269 23.6293 9.66676 23.6977 9.78451 23.838C9.89831 23.9739 9.89504 24.001 9.77062 23.9519C9.64471 23.9022 9.64335 23.9305 9.76463 24.0751C9.85107 24.1783 9.87816 24.3493 9.8248 24.4551C9.77144 24.5608 9.71277 24.7634 9.69467 24.9052C9.67643 25.0471 9.59421 25.1775 9.51185 25.195C9.29733 25.2407 9.32727 25.3913 9.58754 25.5749C9.7973 25.723 9.79703 25.7339 9.58495 25.7339C9.4099 25.7339 9.37682 25.7842 9.44243 25.9512C9.49511 26.0851 9.46993 26.1686 9.37696 26.1686C9.29406 26.1686 9.22614 26.2859 9.22614 26.4293C9.22614 26.5728 9.278 26.6901 9.34129 26.6901C9.40473 26.6901 9.34551 26.8955 9.2098 27.1465C8.95539 27.6172 8.98819 28.1487 9.27977 28.2782C9.38254 28.3238 9.35259 28.383 9.18584 28.4645C9.01161 28.5497 8.96642 28.6477 9.02849 28.8056C9.0764 28.9275 9.06973 29.0747 9.01365 29.1327C8.95757 29.1906 8.89931 29.4745 8.8842 29.7637C8.86841 30.066 8.79068 30.3033 8.70111 30.3224C8.61549 30.3406 8.54553 30.4478 8.54553 30.5604C8.54553 30.6732 8.48849 30.7879 8.41893 30.8154C8.28063 30.87 8.30187 31.2026 8.45364 31.3596C8.50605 31.4137 8.47229 31.5655 8.37864 31.6967C8.24143 31.8891 8.24225 31.9426 8.38259 31.9725C8.51435 32.0005 8.51912 32.0386 8.40205 32.1287C8.31684 32.1942 8.22292 32.4349 8.19324 32.6635C8.1083 33.3167 8.03793 33.5827 7.88302 33.8369C7.77045 34.0214 7.78297 34.101 7.94006 34.2014C8.10994 34.3098 8.11184 34.3405 7.9519 34.3999C7.64631 34.5133 7.60302 35.1189 7.86791 35.5739C8.09605 35.9657 8.09564 35.9883 7.85797 36.1257C7.53115 36.3145 7.2732 36.7736 7.49399 36.7736C7.58151 36.7736 7.51713 36.8345 7.35079 36.9089C7.00612 37.0631 6.94705 37.2952 7.25237 37.2952C7.51223 37.2952 7.51032 37.4447 7.24611 37.7681C7.12714 37.9139 7.03076 38.2691 7.02205 38.5939C7.01116 39.0069 6.94691 39.1926 6.78928 39.2674C6.59299 39.3606 6.5979 39.3831 6.84033 39.4977C7.0667 39.6048 7.0844 39.6568 6.95304 39.829C6.69522 40.167 6.616 40.5114 6.79609 40.5114C6.88484 40.5114 6.9171 40.5372 6.86783 40.5686C6.81855 40.6001 6.85203 40.6826 6.94215 40.7519C7.07269 40.8524 7.05867 40.9001 6.87286 40.9868C6.74477 41.0467 6.63982 41.1575 6.63982 41.233C6.63982 41.3087 6.58891 41.3905 6.52684 41.4151C6.39712 41.4663 6.42733 42.0856 6.57789 42.4591C6.65085 42.6404 6.62267 42.7387 6.47811 42.8068C6.20641 42.9351 6.06661 43.5213 6.2742 43.6619C6.46858 43.7935 6.52194 44.0754 6.35247 44.0754C6.2859 44.0754 6.23146 44.1341 6.23146 44.2058C6.23146 44.2775 6.13808 44.3362 6.02401 44.3362C5.84677 44.3362 5.82432 44.4883 5.86964 45.3814C5.89864 45.9564 5.87767 46.4444 5.82282 46.466C5.6675 46.5274 5.52553 47.2524 5.48469 48.1929C5.45937 48.7767 5.39158 49.0726 5.27221 49.1197C5.15664 49.1653 5.10518 49.3619 5.12097 49.6963C5.13431 49.9766 5.0653 50.301 4.96675 50.4211C4.84315 50.5718 4.82586 50.7183 4.91026 50.8992C4.97723 51.0426 5.08218 51.2676 5.14357 51.399C5.20796 51.5372 5.20251 51.6381 5.13064 51.6381C5.06231 51.6381 5.00636 51.7506 5.00636 51.8882C5.00636 52.0258 4.90713 52.1909 4.78598 52.2552C4.6097 52.3486 4.58193 52.4726 4.64768 52.8742C4.71479 53.2841 4.69273 53.3766 4.52789 53.3766C4.30057 53.3766 4.25252 53.5983 4.46187 53.6808C4.67586 53.7653 4.62086 54.0718 4.38129 54.1306C4.2095 54.1727 4.18255 54.2607 4.2517 54.5548C4.30302 54.7732 4.28219 54.9481 4.20133 54.9801C4.11109 55.0158 4.10891 55.1098 4.1948 55.2543C4.36033 55.5321 4.36182 55.6612 4.19902 55.597C3.94475 55.4966 3.93004 55.7063 4.17847 55.8893C4.42008 56.0671 4.42553 56.419 4.18677 56.419C4.05541 56.419 4.1899 57.1406 4.33242 57.2014C4.3885 57.2253 4.45588 57.3426 4.48215 57.4621C4.51741 57.6224 4.6014 57.6728 4.80218 57.6541C5.02392 57.6335 5.03685 57.6449 4.87146 57.7156C4.69464 57.7913 4.70254 57.8392 4.93272 58.0887C5.0781 58.2461 5.30719 58.4507 5.44195 58.5434C5.57671 58.6361 5.68697 58.7406 5.68697 58.7755C5.68697 58.8106 5.87482 58.8655 6.10459 58.8977C6.33423 58.9299 6.55515 59.0113 6.59558 59.0785C6.64118 59.1545 6.86919 59.2007 7.19887 59.2007C7.49031 59.2007 7.7288 59.2398 7.7288 59.2876C7.7288 59.404 8.36938 59.3992 8.48291 59.282C8.54226 59.2207 8.65347 59.2361 8.81164 59.3275C8.94681 59.4057 9.15004 59.4413 9.27963 59.4096C9.4148 59.3764 9.62184 59.419 9.78532 59.5134C10.0791 59.6832 10.5064 59.7222 10.8853 59.6137C11.0118 59.5775 11.1532 59.5872 11.1996 59.6351C11.3307 59.7706 11.5975 59.7386 11.9156 59.5493C12.1877 59.3875 12.6292 59.3893 12.6292 59.5523C12.6292 59.592 12.7363 59.6276 12.8674 59.6314C15.5634 59.7089 16.4798 59.7133 16.3239 59.6477C16.2103 59.5999 16.1916 59.5494 16.2756 59.5163C16.3507 59.4867 16.4462 59.5192 16.4878 59.5885C16.5376 59.6715 16.7642 59.715 17.1487 59.7157C19.0144 59.7189 19.3442 59.7315 19.5683 59.808C19.7475 59.8694 19.8621 59.8562 19.9872 59.7599C20.082 59.687 20.2398 59.647 20.3379 59.6711C20.436 59.6952 20.61 59.655 20.7245 59.5819C20.839 59.5088 20.933 59.4812 20.9334 59.5205C20.934 59.5597 21.1218 59.66 21.3508 59.7432C21.7374 59.8838 21.7979 59.8845 22.1923 59.7542C22.5167 59.6471 22.6744 59.6367 22.8586 59.7102C22.9912 59.7631 23.1879 59.7847 23.2955 59.7584C23.4032 59.732 23.5319 59.7521 23.5813 59.8033C23.6806 59.9059 24.8905 59.9144 25.4246 59.8162C25.6215 59.78 26.0519 59.8079 26.4455 59.8822C27.0141 59.9895 27.8635 60.0199 29.4104 59.988C30.2311 59.9711 29.3396 59.2613 28.374 59.1627C28.0778 59.1324 27.6664 59.0308 27.4598 58.9369C27.0491 58.7501 26.7858 58.7174 26.7858 58.853C26.7858 58.9778 26.4692 58.9602 26.0187 58.81C25.8043 58.7387 25.5318 58.68 25.4133 58.6796C25.2948 58.6794 25.1518 58.6498 25.0956 58.6139C25.0395 58.5781 24.8302 58.54 24.6306 58.5293C24.4309 58.5186 24.0073 58.4851 23.6891 58.4549C23.1986 58.4084 23.1106 58.423 23.1106 58.5502C23.1106 58.6584 23.0629 58.6763 22.9404 58.6142C22.3669 58.3235 20.7965 58.2826 20.7965 58.5584C20.7965 58.7188 20.659 58.7112 20.463 58.54C20.3753 58.4634 20.1103 58.391 19.874 58.3791C19.6377 58.3672 19.3458 58.3053 19.2252 58.2414C19.0842 58.1667 18.9734 58.1565 18.9145 58.2129C18.864 58.2612 18.7155 58.3259 18.5845 58.3568C18.4534 58.3877 18.3463 58.4728 18.3463 58.546C18.3463 58.6192 18.285 58.6791 18.2102 58.6791C18.1353 58.6791 18.0741 58.5618 18.0741 58.4183C18.0741 58.1197 17.9083 58.0936 17.2799 58.2938C17.0448 58.3687 16.7869 58.4041 16.7068 58.3725C16.5122 58.2957 15.9078 58.2341 15.4877 58.2483C15.3006 58.2547 15.0556 58.2572 14.9433 58.2539C14.6688 58.246 12.6364 58.2636 12.2661 58.2772C11.9444 58.2889 11.6533 58.4183 11.9486 58.4183C12.0483 58.4183 12.0959 58.4402 12.0539 58.4669C12.012 58.4937 11.7423 58.435 11.4547 58.3365C10.7783 58.1051 10.5341 58.105 10.6289 58.3364C10.6841 58.4714 10.6607 58.4933 10.5336 58.426C10.441 58.3769 10.0018 58.3099 9.55746 58.277C9.11315 58.2442 8.61794 58.1629 8.45705 58.0962C8.22033 57.9983 8.15241 57.9967 8.10204 58.088C8.05399 58.1754 7.9406 58.1646 7.60261 58.0405C7.36222 57.9521 7.12931 57.903 7.08494 57.9312C7.0407 57.9595 6.91901 57.9046 6.81446 57.8093C6.70992 57.714 6.55134 57.6348 6.46191 57.6333C6.2241 57.6293 5.8804 57.2879 5.7779 56.9541C5.70303 56.7102 5.73243 56.6559 5.96003 56.6179C6.29884 56.5613 6.2987 56.5008 5.95921 56.1148C5.80948 55.9446 5.69132 55.7575 5.6965 55.6993C5.70181 55.6409 5.7587 55.6715 5.82309 55.7671L5.94002 55.9409L5.97037 55.7671C5.98698 55.6715 6.00822 55.5541 6.01761 55.5063C6.02686 55.4585 6.0937 55.3607 6.16598 55.289C6.23826 55.2173 6.30932 54.963 6.32375 54.724C6.33831 54.4849 6.39058 54.1473 6.43999 53.9736C6.49553 53.7784 6.4728 53.6355 6.38065 53.599C6.17823 53.5192 6.19171 53.3766 6.40161 53.3765C6.52548 53.3764 6.58142 53.1119 6.60715 52.4045C6.63465 51.6475 6.69209 51.3976 6.86646 51.2745C7.026 51.162 7.04002 51.1165 6.91533 51.1165C6.73728 51.1165 6.74286 51.07 7.0279 50.1852C7.10359 49.9502 7.09705 49.8085 7.00953 49.7899C6.92159 49.7711 6.92826 49.6949 7.02818 49.5757C7.11352 49.4739 7.14606 49.3286 7.10059 49.2528C7.05499 49.177 7.08303 49.0648 7.16267 49.0034C7.24243 48.942 7.30872 48.8155 7.30995 48.722C7.31335 48.4699 7.47711 47.9562 7.58573 47.8568C7.73832 47.717 7.74431 47.2212 7.59417 47.1619C7.51849 47.132 7.45655 46.9535 7.45655 46.765C7.45655 46.5766 7.39162 46.4225 7.3124 46.4225C7.23318 46.4225 7.20677 46.3827 7.25373 46.3341C7.30083 46.2856 7.39625 46.2683 7.46594 46.2958C7.74023 46.404 7.57389 46.0762 7.29007 45.9493C6.98176 45.8114 7.08017 45.773 7.6444 45.8114C7.85253 45.8254 7.88438 45.7885 7.81551 45.6131C7.75629 45.4624 7.794 45.382 7.94074 45.346C8.09891 45.3072 8.14342 45.1817 8.12083 44.8371C8.10449 44.5855 8.02486 44.3509 7.94387 44.3158C7.84423 44.2726 7.85171 44.2516 7.96701 44.2506C8.06066 44.2499 8.13716 44.1515 8.13716 44.032C8.13716 43.9125 8.07591 43.8147 8.00104 43.8147C7.92617 43.8147 7.86492 43.7518 7.86492 43.675C7.86492 43.594 7.94155 43.5541 8.04718 43.58C8.18548 43.6139 8.2368 43.4964 8.25953 43.0945C8.27601 42.8029 8.33005 42.523 8.37959 42.4724C8.5424 42.3063 8.56799 42.1322 8.59167 41.033C8.60719 40.3111 8.6762 39.8777 8.79708 39.7415C8.92381 39.5989 8.93579 39.5089 8.83669 39.4456C8.73923 39.3834 8.73814 39.3026 8.83356 39.1888C8.91006 39.0975 8.95539 38.9177 8.93429 38.7892C8.91319 38.6606 8.94572 38.5041 9.00657 38.4411C9.06742 38.3782 9.08103 38.3036 9.03679 38.2753C8.99255 38.247 9.01855 38.176 9.09464 38.1174C9.1917 38.0427 9.17604 37.9969 9.04237 37.9642C8.8876 37.9263 8.88039 37.8587 9.00412 37.6063C9.08797 37.4352 9.20286 37.2952 9.25948 37.2952C9.43903 37.2952 9.37042 37.1142 9.13371 36.963C8.91986 36.8264 8.91986 36.8152 9.13371 36.789C9.25949 36.7735 9.36226 36.6867 9.36226 36.5961C9.36226 36.4854 9.29529 36.4477 9.15807 36.4814C9.04577 36.5089 8.95389 36.5072 8.95389 36.4774C8.95389 36.4007 9.26411 36.0624 9.45918 35.9265C9.57665 35.8447 9.58563 35.7467 9.49035 35.5866C9.40745 35.4475 9.40473 35.3242 9.483 35.2635C9.64498 35.1379 9.7973 34.2777 9.66581 34.2302C9.61122 34.2105 9.64988 34.2079 9.7517 34.2245C9.88932 34.2469 9.91355 34.195 9.8459 34.0229C9.78668 33.8721 9.81704 33.7655 9.93288 33.7177C10.0553 33.6672 10.0652 33.6238 9.96487 33.579C9.86128 33.5328 9.86713 33.3019 9.98488 32.7852C10.1411 32.1 10.1489 31.871 10.026 31.558C9.99781 31.4863 10.0491 31.4369 10.1401 31.4483C10.2356 31.4603 10.2725 31.4144 10.2276 31.3396C10.1848 31.2685 10.2176 31.2103 10.3005 31.2103C10.3935 31.2103 10.4512 31.016 10.4512 30.7033C10.4512 30.4243 10.4971 30.1668 10.5533 30.1309C10.6094 30.0951 10.669 29.805 10.6858 29.4863C10.7024 29.1675 10.742 28.5254 10.7737 28.0592C10.8054 27.593 10.7779 27.2117 10.7127 27.2117C10.5889 27.2117 10.8073 26.7706 10.9703 26.6919C11.3574 26.5047 11.4275 26.0275 11.1065 25.7641C11.0299 25.7012 11.0499 25.6446 11.1602 25.612C11.2991 25.5709 11.3004 25.5495 11.1659 25.5094C10.9366 25.4411 10.9509 25.2142 11.1951 25.0419C11.3676 24.9201 11.3687 24.8693 11.2032 24.6656C11.0979 24.536 11.0695 24.43 11.1399 24.43C11.3084 24.43 11.3063 23.4124 11.1378 23.3458C10.9903 23.2875 11.1075 23.0266 11.3223 22.9352C11.4094 22.8981 11.3714 22.8519 11.2243 22.8158C10.9999 22.7609 10.999 22.7463 11.2101 22.5973C11.4768 22.4092 11.3744 21.9961 11.0612 21.9961C10.9503 21.9961 10.8596 21.9582 10.8596 21.9118C10.8596 21.8656 10.9436 21.8483 11.0462 21.8734C11.1489 21.8985 11.2695 21.8582 11.3142 21.7837C11.365 21.699 11.3206 21.6484 11.1957 21.6484C10.9482 21.6484 10.9479 21.5655 11.1949 21.3573C11.3133 21.2576 11.3466 21.1298 11.2829 21.0198C11.2266 20.9225 11.2258 20.6623 11.281 20.4416C11.3363 20.2209 11.3494 19.9523 11.31 19.8446C11.2707 19.737 11.3 19.6491 11.375 19.6491C11.4623 19.6491 11.4704 19.5324 11.3971 19.3253C11.3172 19.0988 11.3317 18.9816 11.4456 18.9355C11.5688 18.8854 11.5663 18.8691 11.4355 18.868C11.3217 18.8671 11.2906 18.796 11.3442 18.6595C11.389 18.5456 11.3627 18.3069 11.2859 18.1291C11.1901 17.9077 11.1905 17.6529 11.287 17.3193C11.4114 16.8899 11.3995 16.8194 11.1857 16.7197C11.0469 16.6549 11.0157 16.6066 11.1125 16.6066C11.2284 16.6066 11.2718 16.4716 11.2508 16.1776C11.2339 15.9416 11.2857 15.6971 11.366 15.6343C11.524 15.5105 11.4858 14.8503 11.3021 14.5333C11.2388 14.4242 11.2462 14.1132 11.3187 13.8333C11.4873 13.1821 11.3871 13.0046 10.8953 13.0835L10.5251 13.1429L10.9128 12.9134C11.4892 12.5724 11.5749 12.1936 11.1868 11.7047C10.9349 11.3871 10.9102 11.3041 11.0684 11.3041C11.3012 11.3041 11.3353 11.0342 11.12 10.8967C11.0134 10.8286 11.0134 10.7858 11.12 10.7438C11.3359 10.6585 11.3008 10.3813 11.0541 10.2237C10.8596 10.0996 10.8596 10.0871 11.0541 10.0871C11.288 10.0871 11.3519 9.85868 11.1312 9.81174C11.0556 9.79566 10.9953 9.49124 10.9964 9.13076C10.9975 8.77227 10.9944 8.42031 10.9895 8.34859C10.9249 7.40831 10.8674 7.11423 10.6805 6.76809C10.5597 6.54425 10.4375 6.18855 10.4092 5.97767C10.3807 5.76678 10.3225 5.55798 10.2796 5.51365C10.2367 5.46941 10.2017 5.24453 10.2017 5.014C10.2017 4.50713 9.95384 4.08971 9.65206 4.08788C9.52043 4.0871 9.48749 4.06059 9.57093 4.02269C9.84263 3.89934 9.72148 3.40559 9.3824 3.25391C9.1431 3.1469 9.10648 3.09327 9.23757 3.04154C9.38022 2.98522 9.37995 2.94706 9.23566 2.83605C9.1382 2.76112 9.04414 2.57231 9.02672 2.41654C9.00535 2.22687 8.90121 2.10587 8.71119 2.05006C8.48345 1.98313 8.44344 1.91463 8.50809 1.70235C8.55247 1.55692 8.64013 1.42488 8.70302 1.40898C8.76591 1.39307 8.77966 1.28432 8.73365 1.16732C8.65265 0.961216 8.66763 0.956348 9.21035 1.01172C9.68323 1.06005 9.77062 1.0458 9.77062 0.920187C9.77062 0.838389 9.69412 0.788928 9.60047 0.810225C9.42297 0.850732 8.68165 0.645759 8.68165 0.556312C8.68165 0.528061 8.82635 0.522584 9.00317 0.544142C9.33694 0.584911 9.6345 0.392194 9.6345 0.135239C9.6345 -0.0237497 9.0455 -0.0329638 8.54661 0.118202ZM9.80384 0.322218C9.85407 0.802314 10.4311 1.1701 10.6338 0.851167C10.6873 0.766848 10.7318 0.769021 10.8328 0.86099C10.9425 0.961042 10.9735 0.961042 11.0317 0.86099C11.0843 0.770499 11.1487 0.782495 11.3039 0.911494C11.4949 1.07031 11.5277 1.07196 11.8457 0.938963C12.1065 0.829783 12.2211 0.820917 12.3454 0.900281C12.5598 1.03719 13.424 1.03484 13.5068 0.897064C13.5517 0.82222 13.6858 0.8556 13.9372 1.00451C14.37 1.26068 14.4802 1.27181 14.5716 1.06848C14.6093 0.984773 14.6815 0.852558 14.732 0.774585C14.8454 0.599515 14.2399 0.437657 13.2417 0.376026C12.8674 0.352903 12.5029 0.298835 12.4318 0.255807C12.3607 0.212691 12.1739 0.177486 12.0166 0.177486C11.8594 0.177486 11.6573 0.130545 11.5674 0.0731735C11.4404 -0.00792909 11.4022 0.0161499 11.3955 0.181832L11.3868 0.394802L11.2637 0.199217C11.1343 -0.00627743 10.5581 -0.081469 10.5976 0.112291C10.685 0.542143 10.3294 0.671316 10.179 0.264412C10.0467 -0.0933779 9.76491 -0.0500015 9.80384 0.322218ZM14.3988 0.348296C14.3988 0.394367 14.5213 0.473992 14.671 0.525192C14.9017 0.604035 14.9433 0.591257 14.9433 0.441308C14.9433 0.322393 14.8541 0.264412 14.671 0.264412C14.5213 0.264412 14.3988 0.302138 14.3988 0.348296ZM15.1819 0.424096C15.1451 0.513891 15.1713 0.651671 15.24 0.730165C15.3324 0.83552 15.3098 0.872899 15.1542 0.872899C14.9076 0.872899 14.8953 0.914102 15.0776 1.13159C15.2077 1.28684 15.6102 1.28928 15.9642 1.1369C16.2139 1.02937 16.849 1.04467 16.849 1.15819C16.849 1.29945 18.4943 1.50859 18.6787 1.39081C18.8765 1.2645 19.3807 1.29119 19.5714 1.43792C19.798 1.6123 19.9788 1.60273 19.9841 1.41619C19.9882 1.27128 19.997 1.27128 20.1692 1.41619C20.2762 1.50616 20.5308 1.56831 20.7925 1.56831H21.2351L20.9137 1.38785C20.7369 1.28858 20.6658 1.23104 20.7557 1.2599C20.934 1.31727 21.2612 1.00146 21.1465 0.882808C21.0318 0.764414 20.1544 0.704087 19.7155 0.784494C19.2146 0.876202 18.7502 0.807617 18.8416 0.655408C18.9233 0.519455 17.9702 0.503808 17.6997 0.636719C17.5886 0.691309 17.4652 0.686267 17.3443 0.622202C17.2425 0.568221 16.8115 0.508328 16.3865 0.489117C15.9616 0.469994 15.5317 0.41071 15.4314 0.357511C15.291 0.283101 15.2333 0.298574 15.1819 0.424096ZM11.0427 0.572393C10.9983 0.646194 10.9328 0.687919 10.8972 0.665144C10.8615 0.642369 10.8727 0.581955 10.9221 0.531016C11.0563 0.392281 11.1347 0.419228 11.0427 0.572393ZM12.2208 0.612119C12.2208 0.659928 12.1952 0.699045 12.1639 0.699045C12.1326 0.699045 12.0094 0.72295 11.89 0.752158C11.7313 0.791101 11.6958 0.767804 11.7575 0.665231C11.8488 0.513196 12.2208 0.470515 12.2208 0.612119ZM16.4406 0.612119C16.4406 0.659928 16.4136 0.699045 16.3806 0.699045C16.3475 0.699045 16.2827 0.659928 16.2364 0.612119C16.1901 0.564309 16.2172 0.525192 16.2964 0.525192C16.3757 0.525192 16.4406 0.564309 16.4406 0.612119ZM22.5661 1.02293C22.4538 1.05006 22.3162 1.12151 22.2601 1.18184C22.1411 1.30997 21.6177 1.24616 21.6037 1.10178C21.5948 1.01163 21.3727 1.27876 21.3505 1.40602C21.3349 1.49651 21.9077 1.58361 22.6601 1.60517C23.0486 1.6163 23.4468 1.66697 23.5449 1.71783C23.8538 1.87812 24.8328 1.83448 25.2131 1.64342C25.7383 1.37959 25.6633 1.22721 25.0163 1.24364C24.7168 1.25129 24.4718 1.29701 24.4718 1.34534C24.4718 1.39368 24.3739 1.34395 24.2544 1.23486C24.0836 1.07918 23.9551 1.04814 23.6548 1.09022C23.4398 1.12038 23.2336 1.1036 23.1835 1.05188C23.088 0.953132 22.8928 0.943918 22.5661 1.02293ZM26.0021 1.39307C25.7525 1.64828 25.7809 1.9474 26.0483 1.88186C26.1668 1.85282 26.3067 1.82909 26.3592 1.82909C26.5095 1.82909 26.4616 1.28215 26.3083 1.24938C26.2329 1.2333 26.095 1.29797 26.0021 1.39307ZM26.8539 1.39446C26.8076 1.44227 26.8653 1.48139 26.982 1.48139C27.0987 1.48139 27.1942 1.5205 27.1942 1.56831C27.1942 1.61612 27.2926 1.65524 27.413 1.65524C27.5566 1.65524 27.6033 1.60795 27.5491 1.51772C27.5036 1.44209 27.4665 1.36386 27.4665 1.34387C27.4665 1.26772 26.9341 1.31162 26.8539 1.39446ZM29.7197 1.474C29.6759 1.51929 29.698 1.57918 29.769 1.60717C29.8399 1.63516 29.9337 1.62099 29.9775 1.5757C30.0213 1.53041 29.9991 1.47052 29.9282 1.44253C29.8573 1.41454 29.7635 1.42871 29.7197 1.474ZM27.8748 1.59517C27.8748 1.65776 27.9655 1.78485 28.0764 1.87768C28.2437 2.01764 28.2995 2.02555 28.4042 1.92375C28.4846 1.84561 28.4738 1.74321 28.3741 1.64124C28.1938 1.45687 27.8748 1.4274 27.8748 1.59517ZM29.0999 1.74217C29.0999 1.78997 29.1648 1.82909 29.2441 1.82909C29.3233 1.82909 29.3504 1.78997 29.3041 1.74217C29.2578 1.69436 29.193 1.65524 29.16 1.65524C29.1269 1.65524 29.0999 1.69436 29.0999 1.74217ZM10.3832 28.6025C10.4295 28.6503 10.4024 28.6894 10.3231 28.6894C10.2439 28.6894 10.179 28.6503 10.179 28.6025C10.179 28.5547 10.2059 28.5156 10.239 28.5156C10.2721 28.5156 10.3369 28.5547 10.3832 28.6025ZM8.95389 31.9108C8.95389 31.9559 8.89264 31.9926 8.81777 31.9926C8.7429 31.9926 8.68165 31.9316 8.68165 31.8571C8.68165 31.7826 8.7429 31.7458 8.81777 31.7753C8.89264 31.8049 8.95389 31.8658 8.95389 31.9108ZM6.24833 52.0959C6.11385 52.1811 6.09833 52.1711 6.17211 52.0472C6.22329 51.9615 6.29938 51.9133 6.34131 51.94C6.38323 51.9667 6.34144 52.0369 6.24833 52.0959ZM4.59799 56.892C4.59799 56.9131 4.53674 56.9545 4.46187 56.9841C4.387 57.0136 4.32575 56.9963 4.32575 56.9457C4.32575 56.8951 4.387 56.8537 4.46187 56.8537C4.53674 56.8537 4.59799 56.8709 4.59799 56.892ZM4.87024 57.1528C4.87024 57.1739 4.80898 57.2153 4.73412 57.2448C4.65925 57.2744 4.59799 57.2571 4.59799 57.2065C4.59799 57.1559 4.65925 57.1144 4.73412 57.1144C4.80898 57.1144 4.87024 57.1317 4.87024 57.1528Z" fill="#FFFEFE"/>
</g>
<g filter="url(#filter1_d)">
<path fill-rule="evenodd" clip-rule="evenodd" d="M228.453 59.8818C228.64 59.8253 228.891 59.7204 229.011 59.6487C229.131 59.5769 229.39 59.4452 229.587 59.3558C229.861 59.2311 229.915 59.1587 229.819 59.0437C229.75 58.9613 229.604 58.7285 229.495 58.5262C229.321 58.2039 229.321 58.1645 229.495 58.2072C229.73 58.2647 229.633 58.1327 229.231 57.8473C229.081 57.7411 228.95 57.565 228.939 57.4561C228.907 57.1298 228.717 56.5829 228.519 56.2466C228.417 56.0728 228.368 55.9084 228.41 55.8813C228.55 55.792 228.324 55.4071 227.978 55.1445C227.7 54.933 227.675 54.8772 227.842 54.8362C228.088 54.7759 228.116 54.52 227.876 54.52C227.773 54.52 227.71 54.409 227.716 54.2375C227.721 54.0821 227.61 53.8284 227.468 53.6736C227.326 53.5189 227.227 53.3037 227.249 53.1955C227.271 53.0874 227.239 52.9473 227.178 52.8843C227.116 52.8214 227.102 52.7468 227.146 52.7184C227.191 52.6902 227.159 52.6146 227.075 52.5504C226.964 52.4646 226.964 52.4337 227.077 52.4337C227.269 52.4337 227.279 51.9373 227.088 51.8965C226.994 51.8766 227.008 51.7494 227.13 51.5199C227.231 51.3293 227.299 51.0364 227.282 50.8691C227.264 50.7017 227.246 50.5117 227.24 50.4468C227.233 50.3635 227.119 50.3446 226.855 50.3826L226.481 50.4365L226.889 50.21C227.14 50.0706 227.235 49.9677 227.135 49.9425C226.978 49.9031 227.003 49.0965 227.17 48.792C227.206 48.7253 227.128 48.5946 226.996 48.5016C226.767 48.3399 226.768 48.3272 227.012 48.2131C227.374 48.0442 227.35 47.4768 226.969 47.1835C226.819 47.0686 226.819 47.0203 226.966 46.907C227.179 46.7433 227.259 45.0672 227.058 44.9878C226.977 44.9556 226.98 44.916 227.066 44.8819C227.19 44.8331 227.278 44.3841 227.243 43.9801C227.235 43.8964 227.137 43.828 227.025 43.828C226.913 43.828 226.821 43.7693 226.821 43.6976C226.821 43.6259 226.913 43.5672 227.025 43.5672C227.281 43.5672 227.297 43.2306 227.044 43.1687C226.762 43.0997 226.736 41.9156 227.016 41.9156C227.142 41.9156 227.191 41.8656 227.143 41.7852C227.099 41.7135 227.13 41.6548 227.211 41.6548C227.379 41.6548 227.254 41.3863 227.035 41.2788C226.934 41.2289 226.941 41.1935 227.059 41.1629C227.273 41.1075 227.284 40.8725 227.072 40.8725C226.98 40.8725 227.01 40.8051 227.147 40.709C227.355 40.5618 227.357 40.5321 227.169 40.4117C227.036 40.3266 227.014 40.2665 227.109 40.2463C227.21 40.2247 227.188 40.1088 227.042 39.8855C226.856 39.6007 226.853 39.5312 227.018 39.367C227.123 39.2627 227.251 39.0307 227.302 38.8515C227.386 38.5589 227.366 38.5255 227.108 38.5255C226.794 38.5255 226.757 38.4637 226.954 38.2647C227.047 38.1714 227.022 38.1206 226.867 38.086C226.672 38.0421 226.672 38.0245 226.873 37.896C226.996 37.818 227.039 37.7321 226.971 37.7052C226.788 37.6331 226.957 37.3085 227.177 37.3085C227.415 37.3085 227.413 37.2914 227.141 36.927C226.933 36.648 226.933 36.6162 227.141 36.4834C227.317 36.3707 227.333 36.3023 227.215 36.162C227.102 36.0261 227.105 35.999 227.229 36.0481C227.355 36.0978 227.357 36.0695 227.235 35.9249C227.149 35.8217 227.122 35.6507 227.175 35.5449C227.229 35.4392 227.287 35.2366 227.305 35.0948C227.324 34.9529 227.406 34.8225 227.488 34.805C227.703 34.7593 227.673 34.6087 227.412 34.4251C227.203 34.277 227.203 34.2661 227.415 34.2661C227.59 34.2661 227.623 34.2157 227.558 34.0488C227.505 33.9149 227.53 33.8314 227.623 33.8314C227.706 33.8314 227.774 33.7141 227.774 33.5707C227.774 33.4272 227.722 33.3099 227.659 33.3099C227.595 33.3099 227.654 33.1045 227.79 32.8535C228.045 32.3828 228.012 31.8513 227.72 31.7218C227.617 31.6762 227.647 31.617 227.814 31.5355C227.988 31.4503 228.034 31.3523 227.972 31.1944C227.924 31.0725 227.93 30.9253 227.986 30.8673C228.042 30.8094 228.101 30.5255 228.116 30.2363C228.132 29.934 228.209 29.6967 228.299 29.6776C228.385 29.6594 228.454 29.5522 228.454 29.4396C228.454 29.3268 228.512 29.2121 228.581 29.1846C228.719 29.13 228.698 28.7973 228.546 28.6404C228.494 28.5863 228.528 28.4345 228.621 28.3033C228.759 28.1109 228.758 28.0574 228.617 28.0275C228.486 27.9995 228.481 27.9614 228.598 27.8713C228.683 27.8058 228.777 27.5651 228.807 27.3365C228.892 26.6833 228.962 26.4173 229.117 26.1631C229.23 25.9786 229.217 25.899 229.06 25.7986C228.89 25.6902 228.888 25.6595 229.048 25.6001C229.354 25.4867 229.397 24.8811 229.132 24.4261C228.904 24.0343 228.904 24.0117 229.142 23.8743C229.469 23.6855 229.727 23.2264 229.506 23.2264C229.418 23.2264 229.483 23.1655 229.649 23.0911C229.994 22.9369 230.053 22.7048 229.748 22.7048C229.488 22.7048 229.49 22.5553 229.754 22.2319C229.873 22.0861 229.969 21.7309 229.978 21.4061C229.989 20.9931 230.053 20.8074 230.211 20.7326C230.407 20.6394 230.402 20.6169 230.16 20.5023C229.933 20.3952 229.916 20.3432 230.047 20.171C230.305 19.833 230.384 19.4886 230.204 19.4886C230.115 19.4886 230.083 19.4628 230.132 19.4314C230.181 19.3999 230.148 19.3174 230.058 19.2481C229.927 19.1476 229.941 19.0999 230.127 19.0132C230.255 18.9533 230.36 18.8425 230.36 18.767C230.36 18.6913 230.411 18.6095 230.473 18.5849C230.603 18.5337 230.573 17.9144 230.422 17.5409C230.349 17.3596 230.377 17.2613 230.522 17.1932C230.794 17.0649 230.933 16.4787 230.726 16.3381C230.531 16.2066 230.478 15.9246 230.648 15.9246C230.714 15.9246 230.769 15.8659 230.769 15.7942C230.769 15.7225 230.862 15.6638 230.976 15.6638C231.153 15.6638 231.176 15.5117 231.13 14.6186C231.101 14.0436 231.122 13.5556 231.177 13.534C231.332 13.4726 231.474 12.7476 231.515 11.8071C231.541 11.2233 231.608 10.9274 231.728 10.8803C231.843 10.8347 231.895 10.6381 231.879 10.3037C231.866 10.0234 231.935 9.69896 232.033 9.57891C232.157 9.42818 232.174 9.28171 232.09 9.10081C232.023 8.95739 231.918 8.73242 231.856 8.60099C231.792 8.46277 231.797 8.36194 231.869 8.36194C231.938 8.36194 231.994 8.24937 231.994 8.11176C231.994 7.97425 232.093 7.80909 232.214 7.74485C232.39 7.6514 232.418 7.52744 232.352 7.12575C232.285 6.71589 232.307 6.62341 232.472 6.62341C232.699 6.62341 232.747 6.40174 232.538 6.31916C232.324 6.23467 232.379 5.92817 232.619 5.8694C232.79 5.82733 232.817 5.73927 232.748 5.4452C232.697 5.22684 232.718 5.05186 232.799 5.01987C232.889 4.98423 232.891 4.89017 232.805 4.7457C232.64 4.46788 232.638 4.33879 232.801 4.40303C233.055 4.50343 233.07 4.29368 232.822 4.1107C232.58 3.93285 232.574 3.58097 232.813 3.58097C232.945 3.58097 232.81 2.85939 232.668 2.79863C232.611 2.77473 232.544 2.65738 232.518 2.53785C232.483 2.37756 232.399 2.32723 232.198 2.34592C231.976 2.36652 231.963 2.35513 232.129 2.28437C232.305 2.20866 232.297 2.16076 232.067 1.91129C231.922 1.75395 231.693 1.54932 231.558 1.45657C231.423 1.36391 231.313 1.25942 231.313 1.22448C231.313 1.18945 231.125 1.13451 230.895 1.10226C230.666 1.0701 230.445 0.988731 230.404 0.921539C230.359 0.845478 230.131 0.79932 229.801 0.79932C229.51 0.79932 229.271 0.760201 229.271 0.712391C229.271 0.595997 228.631 0.60078 228.517 0.718044C228.458 0.779327 228.347 0.763943 228.188 0.672493C228.053 0.594349 227.85 0.558704 227.72 0.590435C227.585 0.623554 227.378 0.581043 227.215 0.486557C226.921 0.316788 226.494 0.277847 226.115 0.386333C225.988 0.422493 225.847 0.412842 225.8 0.364944C225.669 0.229427 225.402 0.261417 225.084 0.450657C224.812 0.612514 224.371 0.610691 224.371 0.447704C224.371 0.407978 224.264 0.372421 224.133 0.368595C221.437 0.291058 220.52 0.286713 220.676 0.352257C220.79 0.400066 220.808 0.450573 220.724 0.483692C220.649 0.513332 220.554 0.480824 220.512 0.411453C220.462 0.328526 220.236 0.284977 219.851 0.284279C217.986 0.281063 217.656 0.268459 217.432 0.191963C217.252 0.130592 217.138 0.143806 217.013 0.24012C216.918 0.312965 216.76 0.352951 216.662 0.328873C216.564 0.304794 216.39 0.344955 216.276 0.41806C216.161 0.491165 216.067 0.518806 216.067 0.479515C216.066 0.440311 215.878 0.339996 215.649 0.256809C215.263 0.116249 215.202 0.115471 214.808 0.245773C214.483 0.352867 214.326 0.363293 214.141 0.289841C214.009 0.2369 213.812 0.21526 213.704 0.241596C213.597 0.268021 213.468 0.247856 213.419 0.196743C213.319 0.0940819 212.11 0.0855637 211.575 0.183792C211.379 0.219955 210.948 0.192135 210.554 0.117813C209.986 0.0104561 209.136 -0.0198784 207.59 0.0120239C206.769 0.0288887 207.66 0.738731 208.626 0.837307C208.922 0.867558 209.334 0.969173 209.54 1.06314C209.951 1.24986 210.214 1.28263 210.214 1.14703C210.214 1.0222 210.531 1.03985 210.981 1.18997C211.196 1.26134 211.468 1.32001 211.587 1.32036C211.705 1.32062 211.848 1.35017 211.904 1.38607C211.96 1.42189 212.17 1.46005 212.369 1.47074C212.569 1.48143 212.993 1.5149 213.311 1.54506C213.801 1.59157 213.889 1.57705 213.889 1.44979C213.889 1.34156 213.937 1.32375 214.06 1.38581C214.633 1.6765 216.204 1.71735 216.204 1.44162C216.204 1.28124 216.341 1.2888 216.537 1.46005C216.625 1.53663 216.89 1.60895 217.126 1.62086C217.362 1.63277 217.654 1.69466 217.775 1.75855C217.916 1.83331 218.027 1.84348 218.086 1.78706C218.136 1.73882 218.285 1.67415 218.415 1.6432C218.547 1.61235 218.654 1.52724 218.654 1.45396C218.654 1.38077 218.715 1.32088 218.79 1.32088C218.865 1.32088 218.926 1.43823 218.926 1.58166C218.926 1.88034 219.092 1.90641 219.72 1.70622C219.955 1.63129 220.213 1.59591 220.293 1.62747C220.488 1.70431 221.092 1.76586 221.512 1.75169C221.699 1.74534 221.944 1.74282 222.057 1.74613C222.331 1.75404 224.364 1.73639 224.734 1.72283C225.056 1.71109 225.347 1.58166 225.051 1.58166C224.952 1.58166 224.904 1.55975 224.946 1.53307C224.988 1.50629 225.258 1.56497 225.545 1.66346C226.222 1.89494 226.466 1.89503 226.371 1.66363C226.316 1.52863 226.339 1.50673 226.466 1.57401C226.559 1.62312 226.998 1.69014 227.443 1.723C227.887 1.75577 228.382 1.83714 228.543 1.90381C228.78 2.00169 228.848 2.00325 228.898 1.91198C228.946 1.82462 229.059 1.8354 229.397 1.95953C229.638 2.04793 229.871 2.09705 229.915 2.0688C229.959 2.04055 230.081 2.09539 230.186 2.19067C230.29 2.28603 230.449 2.36522 230.538 2.3667C230.776 2.37069 231.12 2.71205 231.222 3.04594C231.297 3.28976 231.268 3.34409 231.04 3.38208C230.701 3.43867 230.701 3.49917 231.041 3.88522C231.191 4.05542 231.309 4.24249 231.304 4.30073C231.298 4.35905 231.241 4.32854 231.177 4.23292L231.06 4.05907L231.03 4.23292C231.013 4.32854 230.992 4.44589 230.982 4.4937C230.973 4.54151 230.906 4.63931 230.834 4.71102C230.762 4.78273 230.691 5.03699 230.676 5.27604C230.662 5.51509 230.609 5.85271 230.56 6.02639C230.504 6.22163 230.527 6.36454 230.619 6.40096C230.822 6.48084 230.808 6.6234 230.598 6.62349C230.475 6.62358 230.419 6.8881 230.393 7.5955C230.365 8.35255 230.308 8.60238 230.134 8.72546C229.974 8.83804 229.96 8.8835 230.085 8.8835C230.263 8.8835 230.257 8.93 229.972 9.81483C229.896 10.0498 229.903 10.1915 229.99 10.2101C230.078 10.2289 230.072 10.3051 229.972 10.4243C229.886 10.5261 229.854 10.6714 229.899 10.7472C229.945 10.823 229.917 10.9352 229.837 10.9966C229.758 11.058 229.691 11.1845 229.69 11.278C229.687 11.5301 229.523 12.0438 229.414 12.1432C229.262 12.283 229.256 12.7788 229.406 12.8381C229.482 12.868 229.543 13.0465 229.543 13.235C229.543 13.4234 229.608 13.5775 229.688 13.5775C229.767 13.5775 229.793 13.6173 229.746 13.6659C229.699 13.7144 229.604 13.7317 229.534 13.7042C229.26 13.596 229.426 13.9238 229.71 14.0507C230.018 14.1886 229.92 14.227 229.356 14.1886C229.147 14.1746 229.116 14.2115 229.184 14.3869C229.244 14.5376 229.206 14.618 229.059 14.654C228.901 14.6928 228.857 14.8183 228.879 15.1629C228.896 15.4145 228.975 15.6491 229.056 15.6842C229.156 15.7274 229.148 15.7484 229.033 15.7494C228.939 15.7501 228.863 15.8485 228.863 15.968C228.863 16.0875 228.924 16.1853 228.999 16.1853C229.074 16.1853 229.135 16.2482 229.135 16.325C229.135 16.406 229.058 16.4459 228.953 16.42C228.815 16.3861 228.763 16.5036 228.74 16.9055C228.724 17.1971 228.67 17.477 228.62 17.5276C228.458 17.6937 228.432 17.8678 228.408 18.967C228.393 19.6889 228.324 20.1223 228.203 20.2585C228.076 20.4011 228.064 20.4911 228.163 20.5544C228.261 20.6166 228.262 20.6974 228.166 20.8112C228.09 20.9025 228.045 21.0824 228.066 21.2108C228.087 21.3394 228.054 21.4959 227.993 21.5589C227.933 21.6218 227.919 21.6964 227.963 21.7247C228.007 21.753 227.981 21.824 227.905 21.8826C227.808 21.9573 227.824 22.0031 227.958 22.0358C228.112 22.0737 228.12 22.1413 227.996 22.3937C227.912 22.5648 227.797 22.7048 227.741 22.7048C227.561 22.7048 227.63 22.8858 227.866 23.037C228.08 23.1736 228.08 23.1848 227.866 23.211C227.741 23.2265 227.638 23.3133 227.638 23.4039C227.638 23.5146 227.705 23.5523 227.842 23.5186C227.954 23.4911 228.046 23.4928 228.046 23.5226C228.046 23.5993 227.736 23.9376 227.541 24.0735C227.423 24.1553 227.414 24.2533 227.51 24.4134C227.593 24.5526 227.595 24.6758 227.517 24.7365C227.355 24.8621 227.203 25.7223 227.334 25.7698C227.389 25.7895 227.35 25.7921 227.248 25.7755C227.111 25.7531 227.086 25.805 227.154 25.9771C227.213 26.1279 227.183 26.2345 227.067 26.2823C226.945 26.3328 226.935 26.3762 227.035 26.421C227.139 26.4672 227.133 26.6981 227.015 27.2148C226.859 27.9 226.851 28.129 226.974 28.442C227.002 28.5137 226.951 28.5631 226.86 28.5517C226.764 28.5397 226.727 28.5856 226.772 28.6604C226.815 28.7315 226.782 28.7897 226.699 28.7897C226.606 28.7897 226.549 28.984 226.549 29.2967C226.549 29.5757 226.503 29.8332 226.447 29.8691C226.391 29.9049 226.331 30.195 226.314 30.5137C226.298 30.8325 226.258 31.4746 226.226 31.9408C226.195 32.407 226.222 32.7883 226.287 32.7883C226.411 32.7883 226.193 33.2294 226.03 33.3081C225.643 33.4953 225.573 33.9725 225.893 34.2359C225.97 34.2988 225.95 34.3554 225.84 34.388C225.701 34.4291 225.7 34.4505 225.834 34.4906C226.063 34.5589 226.049 34.7858 225.805 34.9581C225.632 35.0799 225.631 35.1307 225.797 35.3344C225.902 35.464 225.931 35.57 225.86 35.57C225.692 35.57 225.694 36.5876 225.862 36.6542C226.01 36.7125 225.893 36.9734 225.678 37.0648C225.591 37.1019 225.629 37.1481 225.776 37.1842C226 37.2391 226.001 37.2537 225.79 37.4027C225.523 37.5908 225.626 38.0039 225.939 38.0039C226.05 38.0039 226.14 38.0418 226.14 38.0882C226.14 38.1344 226.056 38.1517 225.954 38.1266C225.851 38.1015 225.731 38.1418 225.686 38.2163C225.635 38.301 225.679 38.3516 225.804 38.3516C226.052 38.3516 226.052 38.4345 225.805 38.6427C225.687 38.7424 225.653 38.8702 225.717 38.9802C225.773 39.0775 225.774 39.3377 225.719 39.5584C225.664 39.7791 225.651 40.0477 225.69 40.1554C225.729 40.263 225.7 40.3509 225.625 40.3509C225.538 40.3509 225.53 40.4676 225.603 40.6747C225.683 40.9012 225.668 41.0184 225.554 41.0645C225.431 41.1146 225.434 41.1309 225.564 41.132C225.678 41.1329 225.709 41.204 225.656 41.3405C225.611 41.4544 225.637 41.6931 225.714 41.8709C225.81 42.0923 225.809 42.3471 225.713 42.6807C225.589 43.1101 225.601 43.1806 225.814 43.2803C225.953 43.3451 225.984 43.3934 225.887 43.3934C225.772 43.3934 225.728 43.5284 225.749 43.8224C225.766 44.0584 225.714 44.3029 225.634 44.3657C225.476 44.4895 225.514 45.1497 225.698 45.4667C225.761 45.5758 225.754 45.8868 225.681 46.1667C225.513 46.8179 225.613 46.9954 226.105 46.9165L226.475 46.8571L226.087 47.0866C225.511 47.4276 225.425 47.8064 225.813 48.2953C226.065 48.6129 226.09 48.6959 225.932 48.6959C225.699 48.6959 225.665 48.9658 225.88 49.1033C225.987 49.1714 225.987 49.2142 225.88 49.2562C225.664 49.3415 225.699 49.6187 225.946 49.7763C226.14 49.9004 226.14 49.9129 225.946 49.9129C225.712 49.9129 225.648 50.1413 225.869 50.1883C225.944 50.2043 226.005 50.5088 226.004 50.8692C226.003 51.2277 226.006 51.5797 226.011 51.6514C226.075 52.5917 226.133 52.8858 226.32 53.2319C226.44 53.4557 226.563 53.8114 226.591 54.0223C226.619 54.2332 226.678 54.442 226.72 54.4863C226.763 54.5306 226.798 54.7555 226.798 54.986C226.798 55.4929 227.046 55.9103 227.348 55.9121C227.48 55.9129 227.513 55.9394 227.429 55.9773C227.157 56.1007 227.279 56.5944 227.618 56.7461C227.857 56.8531 227.894 56.9067 227.762 56.9585C227.62 57.0148 227.62 57.0529 227.764 57.1639C227.862 57.2389 227.956 57.4277 227.973 57.5835C227.995 57.7731 228.099 57.8941 228.289 57.9499C228.517 58.0169 228.557 58.0854 228.492 58.2976C228.448 58.4431 228.36 58.5751 228.297 58.591C228.234 58.6069 228.22 58.7157 228.266 58.8327C228.347 59.0388 228.332 59.0437 227.79 58.9883C227.317 58.9399 227.229 58.9542 227.229 59.0798C227.229 59.1616 227.306 59.2111 227.4 59.1898C227.577 59.1493 228.318 59.3542 228.318 59.4437C228.318 59.4719 228.174 59.4774 227.997 59.4559C227.663 59.4151 227.365 59.6078 227.365 59.8648C227.365 60.0237 227.954 60.033 228.453 59.8818ZM227.196 59.6778C227.146 59.1977 226.569 58.8299 226.366 59.1488C226.313 59.2332 226.268 59.231 226.167 59.139C226.058 59.039 226.026 59.039 225.968 59.139C225.916 59.2295 225.851 59.2175 225.696 59.0885C225.505 58.9297 225.472 58.928 225.154 59.061C224.894 59.1702 224.779 59.1791 224.655 59.0997C224.44 58.9628 223.576 58.9652 223.493 59.1029C223.448 59.1778 223.314 59.1444 223.063 58.9955C222.63 58.7393 222.52 58.7282 222.428 58.9315C222.391 59.0152 222.319 59.1474 222.268 59.2254C222.155 59.4005 222.76 59.5623 223.758 59.624C224.133 59.6471 224.497 59.7012 224.568 59.7442C224.639 59.7873 224.826 59.8225 224.983 59.8225C225.141 59.8225 225.343 59.8695 225.433 59.9268C225.56 60.0079 225.598 59.9839 225.604 59.8182L225.613 59.6052L225.736 59.8008C225.866 60.0063 226.442 60.0815 226.402 59.8877C226.315 59.4579 226.671 59.3287 226.821 59.7356C226.953 60.0934 227.235 60.05 227.196 59.6778ZM222.601 59.6517C222.601 59.6056 222.479 59.526 222.329 59.4748C222.098 59.396 222.057 59.4087 222.057 59.5587C222.057 59.6776 222.146 59.7356 222.329 59.7356C222.479 59.7356 222.601 59.6979 222.601 59.6517ZM221.818 59.5759C221.855 59.4861 221.829 59.3483 221.76 59.2698C221.668 59.1645 221.69 59.1271 221.846 59.1271C222.092 59.1271 222.105 59.0859 221.922 58.8684C221.792 58.7132 221.39 58.7107 221.036 58.8631C220.786 58.9706 220.151 58.9553 220.151 58.8418C220.151 58.7006 218.506 58.4914 218.321 58.6092C218.124 58.7355 217.619 58.7088 217.429 58.5621C217.202 58.3877 217.021 58.3973 217.016 58.5838C217.012 58.7287 217.003 58.7287 216.831 58.5838C216.724 58.4938 216.469 58.4317 216.207 58.4317H215.765L216.086 58.6121C216.263 58.7114 216.334 58.769 216.244 58.7401C216.066 58.6827 215.739 58.9985 215.854 59.1172C215.968 59.2356 216.846 59.2959 217.284 59.2155C217.785 59.1238 218.25 59.1924 218.158 59.3446C218.077 59.4805 219.03 59.4962 219.3 59.3633C219.411 59.3087 219.535 59.3137 219.656 59.3778C219.758 59.4318 220.188 59.4917 220.613 59.5109C221.038 59.53 221.468 59.5893 221.569 59.6425C221.709 59.7169 221.767 59.7014 221.818 59.5759ZM225.957 59.4276C226.002 59.3538 226.067 59.3121 226.103 59.3349C226.138 59.3576 226.127 59.418 226.078 59.469C225.944 59.6077 225.865 59.5808 225.957 59.4276ZM224.779 59.3879C224.779 59.3401 224.805 59.301 224.836 59.301C224.867 59.301 224.991 59.277 225.11 59.2478C225.269 59.2089 225.304 59.2322 225.243 59.3348C225.151 59.4868 224.779 59.5295 224.779 59.3879ZM220.559 59.3879C220.559 59.3401 220.586 59.301 220.619 59.301C220.653 59.301 220.717 59.3401 220.764 59.3879C220.81 59.4357 220.783 59.4748 220.704 59.4748C220.624 59.4748 220.559 59.4357 220.559 59.3879ZM214.434 58.9771C214.546 58.9499 214.684 58.8785 214.74 58.8182C214.859 58.69 215.382 58.7538 215.396 58.8982C215.405 58.9884 215.627 58.7212 215.649 58.594C215.665 58.5035 215.092 58.4164 214.34 58.3948C213.951 58.3837 213.553 58.333 213.455 58.2822C213.146 58.1219 212.167 58.1655 211.787 58.3566C211.262 58.6204 211.337 58.7728 211.984 58.7564C212.283 58.7487 212.528 58.703 212.528 58.6547C212.528 58.6063 212.626 58.656 212.746 58.7651C212.916 58.9208 213.045 58.9519 213.345 58.9098C213.56 58.8796 213.766 58.8964 213.816 58.9481C213.912 59.0469 214.107 59.0561 214.434 58.9771ZM210.998 58.6069C211.247 58.3517 211.219 58.0526 210.952 58.1181C210.833 58.1472 210.693 58.1709 210.641 58.1709C210.49 58.1709 210.538 58.7179 210.692 58.7506C210.767 58.7667 210.905 58.702 210.998 58.6069ZM210.146 58.6055C210.192 58.5577 210.135 58.5186 210.018 58.5186C209.901 58.5186 209.806 58.4795 209.806 58.4317C209.806 58.3839 209.707 58.3448 209.587 58.3448C209.443 58.3448 209.397 58.392 209.451 58.4823C209.496 58.5579 209.534 58.6361 209.534 58.6561C209.534 58.7323 210.066 58.6884 210.146 58.6055ZM207.28 58.526C207.324 58.4807 207.302 58.4208 207.231 58.3928C207.16 58.3648 207.066 58.379 207.023 58.4243C206.979 58.4696 207.001 58.5295 207.072 58.5575C207.143 58.5855 207.236 58.5713 207.28 58.526ZM209.125 58.4048C209.125 58.3422 209.035 58.2152 208.924 58.1223C208.756 57.9824 208.7 57.9745 208.596 58.0762C208.515 58.1544 208.526 58.2568 208.626 58.3588C208.806 58.5431 209.125 58.5726 209.125 58.4048ZM207.9 58.2578C207.9 58.21 207.835 58.1709 207.756 58.1709C207.677 58.1709 207.65 58.21 207.696 58.2578C207.742 58.3056 207.807 58.3448 207.84 58.3448C207.873 58.3448 207.9 58.3056 207.9 58.2578ZM226.617 31.3975C226.571 31.3497 226.598 31.3106 226.677 31.3106C226.756 31.3106 226.821 31.3497 226.821 31.3975C226.821 31.4453 226.794 31.4844 226.761 31.4844C226.728 31.4844 226.663 31.4453 226.617 31.3975ZM228.046 28.0892C228.046 28.0441 228.107 28.0074 228.182 28.0074C228.257 28.0074 228.318 28.0684 228.318 28.1429C228.318 28.2174 228.257 28.2542 228.182 28.2247C228.107 28.1951 228.046 28.1342 228.046 28.0892ZM230.752 7.90409C230.886 7.8189 230.902 7.82891 230.828 7.95278C230.777 8.03849 230.701 8.08673 230.659 8.05996C230.617 8.03327 230.659 7.96312 230.752 7.90409ZM232.402 3.10801C232.402 3.08688 232.463 3.04551 232.538 3.01595C232.613 2.98639 232.674 3.00369 232.674 3.05428C232.674 3.10487 232.613 3.14634 232.538 3.14634C232.463 3.14634 232.402 3.12913 232.402 3.10801ZM232.13 2.84723C232.13 2.8261 232.191 2.78473 232.266 2.75517C232.341 2.72561 232.402 2.74291 232.402 2.7935C232.402 2.84409 232.341 2.88556 232.266 2.88556C232.191 2.88556 232.13 2.86835 232.13 2.84723Z" fill="#FFFEFE"/>
</g>
<g filter="url(#filter2_d)">
<path d="M83.2891 40.9609C83.2578 41.2734 83.1484 41.5156 82.9609 41.6875C82.7734 41.875 82.5312 41.9688 82.2344 41.9688C82.0781 41.9688 81.9297 41.9453 81.7891 41.8984C81.4922 42.1328 81.1406 42.3125 80.7344 42.4375C80.3281 42.5625 79.9453 42.6875 79.5859 42.8125C79.1484 42.7969 78.7188 42.7578 78.2969 42.6953C77.875 42.6328 77.4375 42.6172 76.9844 42.6484C76.8281 42.5391 76.6641 42.4688 76.4922 42.4375C76.3203 42.4062 76.1406 42.3828 75.9531 42.3672C75.7812 42.3672 75.6094 42.3438 75.4375 42.2969C75.2812 42.25 75.125 42.1406 74.9688 41.9688H73.7969C73.6875 41.9688 73.5234 41.9141 73.3047 41.8047C73.1016 41.7109 72.8672 41.6094 72.6016 41.5C72.3516 41.3906 72.0781 41.2891 71.7812 41.1953C71.5 41.1016 71.2344 41.0547 70.9844 41.0547H70.8438C70.6719 40.9141 70.4688 40.8047 70.2344 40.7266C70.0156 40.6641 69.7891 40.6016 69.5547 40.5391C69.3203 40.4922 69.0938 40.4375 68.875 40.375C68.6562 40.3125 68.4688 40.2266 68.3125 40.1172C68.1562 40.0078 67.9766 39.8984 67.7734 39.7891C67.5703 39.6641 67.3594 39.6094 67.1406 39.625C66.8438 39.4531 66.5312 39.3047 66.2031 39.1797C65.8906 39.0547 65.5703 38.9375 65.2422 38.8281L64.2812 38.4766C63.9688 38.3516 63.6562 38.2031 63.3438 38.0312C63.2969 38.0469 63.2422 38.0469 63.1797 38.0312C63.1172 38.0156 63.0625 38.0078 63.0156 38.0078C62.9219 38.0078 62.8672 38.0391 62.8516 38.1016C62.7422 37.9922 62.6172 37.8984 62.4766 37.8203C62.3516 37.7422 62.2266 37.6484 62.1016 37.5391C62.0391 37.5547 61.9766 37.5703 61.9141 37.5859C61.8672 37.5859 61.8047 37.5859 61.7266 37.5859C61.5859 37.5859 61.4453 37.5703 61.3047 37.5391C61.1797 37.5078 61.0547 37.4688 60.9297 37.4219C60.7891 37.7344 60.6953 38.0859 60.6484 38.4766C60.6016 38.8672 60.5625 39.2734 60.5312 39.6953C60.5156 40.1016 60.4922 40.5078 60.4609 40.9141C60.4297 41.3359 60.3594 41.7188 60.25 42.0625C60.2812 42.1875 60.2969 42.3125 60.2969 42.4375V42.8359C60.2969 43.1016 60.3359 43.3125 60.4141 43.4688C60.3828 43.6094 60.3516 43.7422 60.3203 43.8672C60.3047 43.9922 60.2812 44.1172 60.25 44.2422C60.2656 44.4141 60.2734 44.5703 60.2734 44.7109C60.2891 44.8672 60.2969 45.0312 60.2969 45.2031V45.6016C60.2969 45.7422 60.2812 45.8828 60.25 46.0234C60.0938 46.1172 59.9375 46.2031 59.7812 46.2812C59.625 46.375 59.4688 46.4844 59.3125 46.6094C59.2031 46.4062 59.0156 46.2891 58.75 46.2578C58.6875 46.3359 58.6406 46.4375 58.6094 46.5625C58.5938 46.7031 58.5234 46.7734 58.3984 46.7734C58.1797 46.6016 58 46.4609 57.8594 46.3516C57.7188 46.2422 57.5625 46.0781 57.3906 45.8594C57.375 45.8281 57.3672 45.7891 57.3672 45.7422C57.3672 45.6641 57.3828 45.5938 57.4141 45.5312C57.4453 45.4688 57.4609 45.4062 57.4609 45.3438C57.4609 45.1562 57.4375 44.9922 57.3906 44.8516C57.3594 44.6484 57.3359 44.4453 57.3203 44.2422C57.3047 44.0547 57.2969 43.8672 57.2969 43.6797C57.2969 43.4141 57.3125 43.1562 57.3438 42.9062C57.3906 42.6562 57.4688 42.3984 57.5781 42.1328C57.75 41.6797 57.8672 41.2031 57.9297 40.7031C58.0078 40.2031 58.0625 39.7031 58.0938 39.2031C58.125 38.6875 58.1406 38.1719 58.1406 37.6562C58.1562 37.1406 58.1875 36.6484 58.2344 36.1797C58.125 35.9297 57.9922 35.7344 57.8359 35.5938C57.6953 35.4375 57.625 35.1953 57.625 34.8672C57.625 34.5703 57.7188 34.3438 57.9062 34.1875C58.0938 34.0156 58.2578 33.8125 58.3984 33.5781C58.3672 33.4844 58.3906 33.4219 58.4688 33.3906L58.75 30.9297C58.7656 30.7578 58.7891 30.5703 58.8203 30.3672C58.8672 30.1641 58.8984 29.9766 58.9141 29.8047C58.9453 29.4453 58.9609 29.0938 58.9609 28.75C58.9609 28.4062 58.9766 28.0625 59.0078 27.7188C59.0859 26.9531 59.1562 26.1953 59.2188 25.4453C59.2969 24.6953 59.3359 23.9453 59.3359 23.1953C59.3359 22.8359 59.3203 22.4766 59.2891 22.1172C59.2734 21.7578 59.2266 21.3984 59.1484 21.0391C58.8828 21.1172 58.5859 21.2031 58.2578 21.2969C57.9453 21.375 57.6797 21.5156 57.4609 21.7188H57.2734C56.8672 21.7188 56.4844 21.7969 56.125 21.9531C55.7812 22.1094 55.4297 22.2578 55.0703 22.3984C54.9141 22.4766 54.7578 22.5312 54.6016 22.5625C54.4453 22.5781 54.2812 22.6094 54.1094 22.6562C54.0312 22.6719 53.9453 22.7188 53.8516 22.7969C53.7578 22.875 53.6719 22.9297 53.5938 22.9609L53.1953 23.0547C53.0859 23.0859 53.0391 23.1562 53.0547 23.2656C53.0703 23.375 53.0312 23.4453 52.9375 23.4766C52.8594 23.5547 52.75 23.5938 52.6094 23.5938C52.4688 23.5781 52.3594 23.5703 52.2812 23.5703H52.1875C51.7969 23.8516 51.4219 24.0938 51.0625 24.2969C50.6875 24.4844 50.25 24.6094 49.75 24.6719L49.2344 25C49.0625 25.1094 48.8672 25.1641 48.6484 25.1641C48.4766 25.1641 48.3359 25.1328 48.2266 25.0703C48.1016 24.8828 48.0078 24.6719 47.9453 24.4375C47.8672 24.2031 47.7422 24 47.5703 23.8281C47.6484 23.75 47.7031 23.6484 47.7344 23.5234C47.75 23.3828 47.7734 23.2578 47.8047 23.1484C48.2734 22.9453 48.75 22.75 49.2344 22.5625C49.7031 22.375 50.1562 22.1484 50.5938 21.8828C50.6406 21.8984 50.7109 21.9062 50.8047 21.9062C50.9609 21.9062 51.1016 21.8828 51.2266 21.8359C51.3516 21.7891 51.4766 21.7344 51.6016 21.6719C51.7266 21.6094 51.8516 21.5547 51.9766 21.5078C52.1016 21.4609 52.25 21.4453 52.4219 21.4609C52.9531 21.1641 53.5156 20.9219 54.1094 20.7344C54.7031 20.5469 55.2656 20.2891 55.7969 19.9609C55.875 19.9609 55.9375 19.9766 55.9844 20.0078C56.0469 20.0391 56.1094 20.0547 56.1719 20.0547C56.2344 20.0547 56.2734 20.0469 56.2891 20.0312C56.3828 19.9062 56.5078 19.8203 56.6641 19.7734C56.8203 19.7109 56.9766 19.6641 57.1328 19.6328C57.3047 19.5859 57.4609 19.5312 57.6016 19.4688C57.7578 19.3906 57.8594 19.2734 57.9062 19.1172C57.9844 19.1797 58.1016 19.2109 58.2578 19.2109C58.5234 19.2109 58.7656 19.1562 58.9844 19.0469C59.2188 18.9375 59.4688 18.8828 59.7344 18.8828C59.7969 18.8828 59.8516 18.8984 59.8984 18.9297C59.9609 18.9453 60.0234 18.9531 60.0859 18.9531C60.2109 18.9531 60.2734 18.9141 60.2734 18.8359C60.2891 18.7578 60.3359 18.6875 60.4141 18.625C61.3672 18.4531 62.3125 18.2969 63.25 18.1562C64.2031 18.0156 65.1641 17.9453 66.1328 17.9453C66.2734 17.8516 66.4297 17.8047 66.6016 17.8047C66.7734 17.8047 66.9297 17.8516 67.0703 17.9453C67.3359 17.9141 67.6016 17.8906 67.8672 17.875C68.1328 17.8594 68.3984 17.8516 68.6641 17.8516C69.2734 17.8516 69.8984 17.8906 70.5391 17.9688C71.1797 18.0469 71.8125 18.1719 72.4375 18.3438C73.0781 18.5 73.6875 18.7188 74.2656 19C74.8438 19.2656 75.3828 19.5859 75.8828 19.9609C75.9297 20.1016 75.9922 20.2422 76.0703 20.3828C76.1484 20.5234 76.25 20.6328 76.375 20.7109C76.375 20.7422 76.3672 20.7656 76.3516 20.7812C76.3516 20.7969 76.3516 20.8203 76.3516 20.8516C76.3516 21.0234 76.3984 21.1875 76.4922 21.3438C76.6016 21.5 76.6562 21.6875 76.6562 21.9062C76.6562 22.125 76.6172 22.3438 76.5391 22.5625C76.4766 22.7812 76.4531 23 76.4688 23.2188C76.2969 23.4688 76.1484 23.6953 76.0234 23.8984C75.9141 24.1016 75.8438 24.3594 75.8125 24.6719C75.5312 24.9531 75.2812 25.2656 75.0625 25.6094C74.8438 25.9375 74.6172 26.2656 74.3828 26.5938C74.1641 26.9062 73.9141 27.1953 73.6328 27.4609C73.3516 27.7266 73.0156 27.9375 72.625 28.0938C72.6094 28.25 72.5469 28.4219 72.4375 28.6094H71.9453C71.8984 28.7344 71.8203 28.8281 71.7109 28.8906L71.3828 29.0781C71.2734 29.1406 71.1797 29.2188 71.1016 29.3125C71.0391 29.4062 71.0078 29.5391 71.0078 29.7109C70.9766 29.6953 70.9375 29.6875 70.8906 29.6875C70.7344 29.6875 70.5469 29.7656 70.3281 29.9219C70.125 30.0781 69.9609 30.2031 69.8359 30.2969C69.5703 30.4844 69.2969 30.6562 69.0156 30.8125C68.75 30.9688 68.5156 31.1875 68.3125 31.4688C67.6875 31.7344 67.0938 32.0469 66.5312 32.4062C65.9688 32.75 65.3594 33.0234 64.7031 33.2266C64.4531 33.4922 64.1562 33.7031 63.8125 33.8594C63.4844 34 63.1641 34.1562 62.8516 34.3281V34.3984C62.8516 34.5234 62.8984 34.6484 62.9922 34.7734C63.0859 34.8828 63.1953 34.9844 63.3203 35.0781C63.4453 35.1562 63.5781 35.2109 63.7188 35.2422C63.875 35.2734 64.0078 35.2734 64.1172 35.2422C64.4297 35.5234 64.7891 35.75 65.1953 35.9219C65.6016 36.0938 66.0234 36.25 66.4609 36.3906C66.8984 36.5312 67.3281 36.6797 67.75 36.8359C68.1719 36.9922 68.5625 37.1875 68.9219 37.4219H69.4844C69.8438 37.7344 70.2656 37.9688 70.75 38.125C71.25 38.2812 71.7266 38.4219 72.1797 38.5469C72.3672 38.7188 72.6016 38.8516 72.8828 38.9453C73.1797 39.0234 73.4609 39.0625 73.7266 39.0625H73.8672C73.9297 39.0625 73.9844 39.0547 74.0312 39.0391V39.0859C74.0312 39.1641 74.0547 39.2188 74.1016 39.25C74.1484 39.2656 74.1953 39.2812 74.2422 39.2969C74.3047 39.2969 74.3594 39.3125 74.4062 39.3438C74.4688 39.3594 74.5156 39.3906 74.5469 39.4375H74.7812C75.1094 39.4375 75.4219 39.5078 75.7188 39.6484C76.0156 39.7734 76.3281 39.8359 76.6562 39.8359C76.7969 39.8359 76.9062 39.8203 76.9844 39.7891C77.0781 39.8203 77.1484 39.8828 77.1953 39.9766C77.2422 40.0703 77.3047 40.1484 77.3828 40.2109C77.4922 40.1953 77.5938 40.1797 77.6875 40.1641C77.7812 40.1641 77.875 40.1641 77.9688 40.1641C78.3125 40.1641 78.6328 40.2031 78.9297 40.2812C79.2266 40.3594 79.5312 40.4766 79.8438 40.6328C80.3438 40.4141 80.8359 40.2344 81.3203 40.0938C81.8047 39.9531 82.3203 39.8828 82.8672 39.8828V39.9297C82.8672 40.1172 82.9141 40.2891 83.0078 40.4453C83.1172 40.6172 83.2109 40.7891 83.2891 40.9609ZM74.3125 22.2578C74.3125 22.0703 74.2734 21.9219 74.1953 21.8125C74.1328 21.7031 74.0469 21.6094 73.9375 21.5312C73.8281 21.4375 73.7109 21.3516 73.5859 21.2734C73.4766 21.1953 73.375 21.0938 73.2812 20.9688C72.875 20.8438 72.4766 20.7031 72.0859 20.5469C71.6953 20.3906 71.2969 20.2578 70.8906 20.1484C70.6875 20.1016 70.4844 20.0625 70.2812 20.0312C70.0781 19.9844 69.875 19.9609 69.6719 19.9609H69.1562C69.0625 19.9453 68.9609 19.9297 68.8516 19.9141C68.7578 19.8828 68.6641 19.8594 68.5703 19.8438C68.3516 19.8125 68.1328 19.7891 67.9141 19.7734C67.7109 19.7578 67.5 19.75 67.2812 19.75C66.875 19.75 66.4688 19.7656 66.0625 19.7969L64.8438 19.8906C64.6719 19.9062 64.4922 19.9141 64.3047 19.9141C64.1172 19.9141 63.9453 19.9297 63.7891 19.9609C63.7109 19.9766 63.6016 20.0156 63.4609 20.0781C63.3203 20.125 63.1719 20.1797 63.0156 20.2422C62.8594 20.2891 62.7031 20.3438 62.5469 20.4062C62.4062 20.4688 62.2812 20.5156 62.1719 20.5469C62.1875 20.6562 62.1953 20.7656 62.1953 20.875V21.1797C62.1953 21.4141 62.1875 21.6484 62.1719 21.8828C62.1562 22.1172 62.125 22.3516 62.0781 22.5859C62.0625 22.6797 62.0391 22.7734 62.0078 22.8672C61.9766 22.9609 61.9531 23.0547 61.9375 23.1484C61.9062 23.2891 61.8906 23.4453 61.8906 23.6172V24.0625C61.8594 24.4219 61.8359 24.7734 61.8203 25.1172C61.8047 25.4609 61.7812 25.8125 61.75 26.1719C61.6562 27.2031 61.5547 28.2266 61.4453 29.2422C61.3516 30.2578 61.2891 31.2812 61.2578 32.3125C61.7734 32.2031 62.2656 32.0391 62.7344 31.8203C63.2031 31.6016 63.6641 31.3672 64.1172 31.1172C64.5703 30.8516 65.0234 30.5938 65.4766 30.3438C65.9297 30.0938 66.4062 29.8828 66.9062 29.7109C67.0312 29.5391 67.1797 29.3984 67.3516 29.2891C67.5391 29.1797 67.6953 29.0391 67.8203 28.8672C67.9766 28.8672 68.0938 28.8359 68.1719 28.7734C68.25 28.6953 68.3516 28.6406 68.4766 28.6094C69.2266 27.9531 69.9922 27.3359 70.7734 26.7578C71.5547 26.1797 72.3047 25.5625 73.0234 24.9062C73.0859 24.6875 73.1875 24.4766 73.3281 24.2734C73.4844 24.0547 73.6328 23.8359 73.7734 23.6172C73.9141 23.3984 74.0391 23.1797 74.1484 22.9609C74.2578 22.7422 74.3125 22.5078 74.3125 22.2578ZM90.7656 25.0938V25.1875C90.6562 25.2188 90.6016 25.2969 90.6016 25.4219C90.4297 25.5 90.25 25.5625 90.0625 25.6094C89.875 25.6406 89.6953 25.6953 89.5234 25.7734C89.3516 25.7578 89.1719 25.75 88.9844 25.75C88.8125 25.7344 88.6406 25.7266 88.4688 25.7266C88 25.7266 87.5312 25.7422 87.0625 25.7734C86.5938 25.8047 86.125 25.8047 85.6562 25.7734C85.4375 25.8984 85.1953 26 84.9297 26.0781C84.6797 26.1406 84.4375 26.1719 84.2031 26.1719C84.0156 26.1719 83.8516 26.1484 83.7109 26.1016C83.3359 26.2891 82.9219 26.4453 82.4688 26.5703C82.0312 26.6953 81.5859 26.8203 81.1328 26.9453C80.6797 27.0547 80.2422 27.1875 79.8203 27.3438C79.4141 27.4844 79.0547 27.6875 78.7422 27.9531C78.7109 28.1719 78.6875 28.3906 78.6719 28.6094C78.6562 28.8125 78.6484 29.0156 78.6484 29.2188C78.6484 29.4375 78.6562 29.6406 78.6719 29.8281C78.7031 30.0156 78.7578 30.2031 78.8359 30.3906C78.9141 30.4219 79 30.4453 79.0938 30.4609C79.2031 30.4766 79.2969 30.4844 79.375 30.4844C79.4531 30.4844 79.5312 30.4766 79.6094 30.4609C79.6875 30.4297 79.7422 30.375 79.7734 30.2969C80.0078 30.2656 80.2422 30.2578 80.4766 30.2734C80.7109 30.2734 80.9453 30.2734 81.1797 30.2734C81.4141 30.2734 81.6406 30.2656 81.8594 30.25C82.0938 30.2344 82.3203 30.1953 82.5391 30.1328C82.7891 30.0703 83.0312 30.0312 83.2656 30.0156C83.5156 30 83.7578 29.9844 83.9922 29.9688C84.2266 29.9531 84.4688 29.9297 84.7188 29.8984C84.9688 29.8516 85.2266 29.7656 85.4922 29.6406C85.6953 29.7188 85.8984 29.7578 86.1016 29.7578C86.3203 29.7578 86.5312 29.7734 86.7344 29.8047C86.8438 29.8828 86.9297 29.9688 86.9922 30.0625C87.0703 30.1562 87.1094 30.2656 87.1094 30.3906C87.1094 30.6094 87.0312 30.8281 86.875 31.0469C86.7188 31.2656 86.5938 31.4688 86.5 31.6562H86.2422C85.8672 31.6562 85.5 31.7109 85.1406 31.8203C84.7969 31.9141 84.4453 32.0312 84.0859 32.1719C83.7422 32.2969 83.3906 32.4141 83.0312 32.5234C82.6875 32.6172 82.3281 32.6641 81.9531 32.6641C81.8906 32.6641 81.8516 32.7031 81.8359 32.7812C81.8359 32.8438 81.8203 32.8906 81.7891 32.9219C81.7109 32.9062 81.5938 32.8984 81.4375 32.8984C81.0781 32.8984 80.7344 32.9375 80.4062 33.0156C80.0781 33.0938 79.7422 33.1328 79.3984 33.1328C79.3047 33.1328 79.2109 33.1328 79.1172 33.1328C79.0234 33.1172 78.9297 33.1016 78.8359 33.0859C78.7578 33.2109 78.6562 33.2969 78.5312 33.3438C78.4062 33.375 78.2891 33.4375 78.1797 33.5312C78.1328 33.6719 78.1016 33.8438 78.0859 34.0469C78.0859 34.25 78.0781 34.4609 78.0625 34.6797C78.0625 34.8828 78.0469 35.0781 78.0156 35.2656C77.9844 35.4531 77.9219 35.6016 77.8281 35.7109C77.8438 35.7891 77.9062 35.8203 78.0156 35.8047C78.125 35.7734 78.1797 35.8203 78.1797 35.9453C78.1797 36.0859 78.1641 36.2344 78.1328 36.3906C78.1016 36.5469 78.0859 36.7031 78.0859 36.8594C78.0859 37.1562 78.1172 37.4844 78.1797 37.8438C78.2578 38.1875 78.3672 38.5078 78.5078 38.8047C78.6641 39.1016 78.8672 39.3516 79.1172 39.5547C79.3672 39.7422 79.6797 39.8359 80.0547 39.8359C80.3047 39.8359 80.5391 39.7891 80.7578 39.6953C80.9766 39.6016 81.1562 39.4453 81.2969 39.2266L81.4141 39.2031C81.4766 39.2031 81.5312 39.2109 81.5781 39.2266C81.6406 39.2422 81.7031 39.25 81.7656 39.25C81.8594 39.25 81.9766 39.1953 82.1172 39.0859C82.2734 38.9609 82.4375 38.8203 82.6094 38.6641C82.7969 38.5078 82.9844 38.3594 83.1719 38.2188C83.3594 38.0625 83.5391 37.9531 83.7109 37.8906C83.8203 37.6719 83.9219 37.4531 84.0156 37.2344C84.125 37.0156 84.2812 36.8438 84.4844 36.7188V36.0391C84.6406 35.8672 84.8047 35.7109 84.9766 35.5703C85.1641 35.4297 85.3047 35.25 85.3984 35.0312C85.4766 35.0625 85.5469 35.0859 85.6094 35.1016C85.6875 35.1172 85.7656 35.125 85.8438 35.125C85.9219 35.125 86 35.1172 86.0781 35.1016C86.1719 35.0859 86.2578 35.0625 86.3359 35.0312C86.4609 35.2031 86.5547 35.3984 86.6172 35.6172C86.6953 35.8203 86.7891 36.0156 86.8984 36.2031C86.7578 36.4844 86.5938 36.8203 86.4062 37.2109C86.2188 37.6016 86.0156 37.9922 85.7969 38.3828C85.5781 38.7734 85.3438 39.1484 85.0938 39.5078C84.8594 39.8516 84.625 40.1172 84.3906 40.3047C84.3438 40.3516 84.2422 40.4062 84.0859 40.4688C83.9141 40.5938 83.7578 40.7109 83.6172 40.8203C83.4766 40.9453 83.3438 41.0859 83.2188 41.2422C82.7656 41.3828 82.3281 41.5703 81.9062 41.8047C81.5 42.0391 81.0938 42.2656 80.6875 42.4844C80.5 42.4375 80.2969 42.4141 80.0781 42.4141C79.8906 42.4141 79.7031 42.4219 79.5156 42.4375C79.3281 42.4688 79.125 42.4844 78.9062 42.4844C78.8438 42.4062 78.75 42.3516 78.625 42.3203C78.5156 42.3047 78.4766 42.2266 78.5078 42.0859C77.9766 42.0547 77.5469 41.9062 77.2188 41.6406C76.8906 41.3906 76.6094 41.0781 76.375 40.7031C76.1562 40.3281 75.9766 39.9219 75.8359 39.4844C75.6953 39.0469 75.5469 38.625 75.3906 38.2188V38.1484C75.3906 38.0703 75.4219 38.0234 75.4844 38.0078C75.5469 37.9922 75.5781 37.9453 75.5781 37.8672C75.5781 37.8359 75.5703 37.8125 75.5547 37.7969C75.5078 37.625 75.4688 37.4766 75.4375 37.3516C75.4062 37.2266 75.3906 37.0781 75.3906 36.9062C75.3906 36.6562 75.4062 36.4141 75.4375 36.1797C75.4688 35.9297 75.4844 35.6797 75.4844 35.4297C75.4844 35.1797 75.4531 34.9609 75.3906 34.7734C75.4531 34.6953 75.5078 34.5938 75.5547 34.4688C75.5859 34.3281 75.6094 34.1875 75.625 34.0469C75.6406 33.9062 75.6484 33.7656 75.6484 33.625C75.6641 33.4844 75.6875 33.3594 75.7188 33.25C75.6562 33.0781 75.6016 32.9297 75.5547 32.8047C75.5078 32.6641 75.4844 32.5 75.4844 32.3125V32.1484C75.6406 31.8828 75.7734 31.6094 75.8828 31.3281C75.9922 31.0469 76.1094 30.7578 76.2344 30.4609V30.3906C76.2344 29.9375 76.2188 29.4844 76.1875 29.0312C76.1562 28.5781 76.1406 28.125 76.1406 27.6719V27.2266C76.1406 27.0703 76.1484 26.9219 76.1641 26.7812C76.2891 26.7188 76.3828 26.6328 76.4453 26.5234C76.5078 26.4141 76.6016 26.3281 76.7266 26.2656H77.5L77.6406 26.0312C77.6875 25.9531 77.7188 25.8672 77.7344 25.7734C77.9062 25.7266 78.0703 25.6641 78.2266 25.5859C78.3984 25.4922 78.5547 25.3984 78.6953 25.3047C78.9141 25.1797 79.1094 25.0703 79.2812 24.9766C79.4688 24.8672 79.6484 24.7812 79.8203 24.7188C80.0078 24.6406 80.2031 24.5781 80.4062 24.5312C80.6094 24.4844 80.8438 24.4453 81.1094 24.4141C81.2344 24.4141 81.3125 24.3906 81.3438 24.3438C81.3906 24.2969 81.4531 24.2422 81.5312 24.1797C81.7188 24.2109 81.9062 24.2422 82.0938 24.2734C82.2812 24.2891 82.4688 24.2969 82.6562 24.2969C83.0312 24.2969 83.3828 24.2266 83.7109 24.0859C84.1797 24.0859 84.6406 24.0781 85.0938 24.0625C85.5625 24.0469 86.0312 24.0391 86.5 24.0391C86.9062 24.0391 87.3125 24.0547 87.7188 24.0859C88.125 24.1172 88.5234 24.1719 88.9141 24.25C89.0547 24.2031 89.2109 24.1797 89.3828 24.1797C89.5703 24.1797 89.7578 24.2031 89.9453 24.25C90.1484 24.2812 90.3438 24.2812 90.5312 24.25C90.5469 24.4219 90.5859 24.5703 90.6484 24.6953C90.7266 24.8047 90.7656 24.9375 90.7656 25.0938ZM114.062 27.0391C114.016 27.1797 113.922 27.2812 113.781 27.3438C113.656 27.3906 113.523 27.4297 113.383 27.4609C113.242 27.4922 113.109 27.5469 112.984 27.625C112.875 27.6875 112.805 27.7969 112.773 27.9531L112.727 27.9766C112.664 27.9766 112.617 27.9609 112.586 27.9297C112.57 27.8828 112.555 27.8438 112.539 27.8125C112.523 27.7656 112.5 27.7266 112.469 27.6953C112.453 27.6484 112.422 27.625 112.375 27.625C112.203 27.625 112.031 27.6406 111.859 27.6719C111.703 27.7031 111.547 27.7188 111.391 27.7188C111.156 27.7188 110.945 27.6875 110.758 27.625C110.648 27.6562 110.586 27.7266 110.57 27.8359C110.57 27.9453 110.523 28.0156 110.43 28.0469C110.352 28.0781 110.258 28.0938 110.148 28.0938C110.039 28.0781 109.93 28.0859 109.82 28.1172L109.07 28.3047C108.82 28.3672 108.57 28.3984 108.32 28.3984C108.18 28.3984 108.078 28.3906 108.016 28.375C107.781 28.5625 107.516 28.7031 107.219 28.7969C106.922 28.875 106.609 28.9531 106.281 29.0312C105.969 29.0938 105.656 29.1797 105.344 29.2891C105.047 29.3984 104.781 29.5703 104.547 29.8047C104.422 29.7734 104.312 29.7578 104.219 29.7578C104.016 29.7578 103.836 29.8047 103.68 29.8984C103.523 29.9766 103.359 30.0547 103.188 30.1328C103.109 30.1641 103.031 30.1797 102.953 30.1797C102.875 30.1797 102.789 30.1953 102.695 30.2266C102.602 30.2578 102.539 30.3125 102.508 30.3906C102.492 30.4531 102.445 30.5156 102.367 30.5781C102.367 31.1406 102.422 31.7031 102.531 32.2656C102.641 32.8125 102.695 33.3672 102.695 33.9297V34.0234C102.727 34.2891 102.812 34.5391 102.953 34.7734C103.094 34.9922 103.164 35.2188 103.164 35.4531C103.164 35.5312 103.148 35.6172 103.117 35.7109C103.523 35.8047 103.789 36.0156 103.914 36.3438C104.055 36.6562 104.164 37 104.242 37.375C104.336 37.7344 104.453 38.0703 104.594 38.3828C104.75 38.6953 105.047 38.8906 105.484 38.9688C105.516 39.125 105.539 39.2891 105.555 39.4609C105.57 39.6172 105.578 39.7734 105.578 39.9297C105.578 40.1484 105.555 40.3594 105.508 40.5625C105.461 40.7812 105.367 40.9766 105.227 41.1484C104.992 41.1641 104.82 41.1719 104.711 41.1719C104.602 41.1719 104.438 41.2188 104.219 41.3125C103.906 41.125 103.625 40.9062 103.375 40.6562C103.141 40.4219 102.914 40.1719 102.695 39.9062C102.492 39.625 102.289 39.3438 102.086 39.0625C101.883 38.7656 101.664 38.4844 101.43 38.2188C100.617 38.4219 99.7812 38.5625 98.9219 38.6406C98.0781 38.7031 97.2344 38.7344 96.3906 38.7344C96.3594 38.7656 96.3125 38.7812 96.25 38.7812C96.1875 38.7812 96.125 38.7891 96.0625 38.8047C96.0156 38.8047 95.9688 38.8203 95.9219 38.8516C95.8906 38.8672 95.8828 38.9062 95.8984 38.9688C95.7891 38.9062 95.6641 38.8672 95.5234 38.8516C95.3984 38.8203 95.2812 38.8047 95.1719 38.8047C95.0938 38.8047 95.0156 38.8125 94.9375 38.8281C94.8594 38.8281 94.7812 38.8516 94.7031 38.8984C94.1094 38.7891 93.5312 38.6406 92.9688 38.4531C92.4219 38.25 91.8594 38.0859 91.2812 37.9609C91.2812 37.8359 91.25 37.75 91.1875 37.7031C91.125 37.6406 91.0703 37.5547 91.0234 37.4453C90.3672 37.0391 89.8125 36.5469 89.3594 35.9688C88.9219 35.3906 88.7422 34.6875 88.8203 33.8594L88.6562 33.5312C88.6562 33.2812 88.7109 33.1016 88.8203 32.9922C88.7578 32.8828 88.6484 32.7734 88.4922 32.6641C88.6328 32.4453 88.7578 32.2188 88.8672 31.9844C88.9766 31.75 89.0547 31.5 89.1016 31.2344C89.1172 31.1562 89.125 31.0859 89.125 31.0234C89.125 30.9609 89.1406 30.8906 89.1719 30.8125C89.2031 30.7188 89.25 30.6172 89.3125 30.5078C89.3594 30.3828 89.4062 30.2734 89.4531 30.1797C89.7031 29.6484 89.9766 29.1406 90.2734 28.6562C90.5859 28.1562 90.9766 27.7266 91.4453 27.3672C91.4766 27.1016 91.5547 26.8828 91.6797 26.7109C91.8047 26.5234 91.9375 26.3594 92.0781 26.2188C92.2344 26.0625 92.3828 25.9062 92.5234 25.75C92.6797 25.5938 92.7969 25.4062 92.875 25.1875C93.1875 24.9219 93.5 24.6641 93.8125 24.4141C94.1406 24.1641 94.4141 23.8672 94.6328 23.5234C94.9141 23.4297 95.1797 23.3125 95.4297 23.1719C95.6797 23.0156 95.8906 22.8203 96.0625 22.5859C96.4375 22.5547 96.8047 22.4844 97.1641 22.375C97.5391 22.2656 97.9297 22.2109 98.3359 22.2109C98.5078 22.2109 98.7109 22.25 98.9453 22.3281C99.1953 22.3906 99.3828 22.5078 99.5078 22.6797C99.5234 22.7109 99.5312 22.75 99.5312 22.7969L99.5547 22.9141C99.5703 22.9453 99.5859 22.9766 99.6016 23.0078C99.6328 23.0234 99.6797 23.0234 99.7422 23.0078C99.7422 23.3516 99.7031 23.7031 99.625 24.0625C99.5469 24.4062 99.3438 24.6719 99.0156 24.8594C98.8125 24.7969 98.5938 24.7656 98.3594 24.7656C98.0469 24.7656 97.7578 24.8281 97.4922 24.9531C97.2422 25.0625 96.9922 25.1953 96.7422 25.3516C96.5078 25.4922 96.2656 25.6406 96.0156 25.7969C95.7656 25.9375 95.5 26.0391 95.2188 26.1016C95.1875 26.2266 95.1562 26.3438 95.125 26.4531C95.1094 26.5469 95.1172 26.6562 95.1484 26.7812C95.0703 26.7812 95.0078 26.7734 94.9609 26.7578C94.9297 26.7266 94.875 26.7109 94.7969 26.7109C94.6875 26.7109 94.6094 26.7734 94.5625 26.8984C94.5312 27.0234 94.5 27.125 94.4688 27.2031C94.1719 27.3281 93.9219 27.5078 93.7188 27.7422C93.5312 27.9609 93.3516 28.2031 93.1797 28.4688C93.0234 28.7188 92.8516 28.9609 92.6641 29.1953C92.4766 29.4297 92.2422 29.6094 91.9609 29.7344C91.8359 30.2344 91.7109 30.7266 91.5859 31.2109C91.4766 31.6953 91.3438 32.1797 91.1875 32.6641C91.2344 32.8516 91.2578 33.0469 91.2578 33.25C91.2578 33.5 91.2344 33.7266 91.1875 33.9297C91.2656 34.0547 91.3438 34.2031 91.4219 34.375L91.7031 34.9141C91.7969 35.1016 91.8906 35.2734 91.9844 35.4297C92.0938 35.5859 92.1953 35.7031 92.2891 35.7812C92.4609 35.9062 92.7266 36.0234 93.0859 36.1328C93.4453 36.2266 93.7656 36.3906 94.0469 36.625C94.0781 36.625 94.1172 36.625 94.1641 36.625C94.2109 36.6094 94.25 36.6016 94.2812 36.6016C94.4688 36.6016 94.6719 36.6484 94.8906 36.7422C95.1094 36.8359 95.25 36.8828 95.3125 36.8828C96.1875 36.8828 97.1406 36.8281 98.1719 36.7188C99.2031 36.5938 100.156 36.4453 101.031 36.2734C101.062 36.1172 101.078 35.9844 101.078 35.875C101.078 35.6719 101.047 35.4766 100.984 35.2891C100.922 35.0859 100.82 34.9141 100.68 34.7734C100.68 34.5391 100.68 34.3047 100.68 34.0703C100.695 33.8359 100.703 33.6016 100.703 33.3672C100.703 32.9766 100.688 32.5625 100.656 32.125C100.625 31.6875 100.547 31.2812 100.422 30.9062H100.375C100.172 30.9062 99.9844 30.9609 99.8125 31.0703C99.6562 31.1641 99.4922 31.2109 99.3203 31.2109C99.2266 31.2109 99.1484 31.1875 99.0859 31.1406C98.8984 31.3594 98.6719 31.5234 98.4062 31.6328C98.1406 31.7422 97.8594 31.8438 97.5625 31.9375C97.2656 32.0156 96.9688 32.1016 96.6719 32.1953C96.3906 32.2891 96.1328 32.4219 95.8984 32.5938C95.7734 32.5469 95.6562 32.5234 95.5469 32.5234C95.4375 32.5234 95.3281 32.5312 95.2188 32.5469C95.125 32.5625 95.0156 32.5781 94.8906 32.5938C94.5625 32.3125 94.3984 31.9609 94.3984 31.5391C94.3984 31.3203 94.4297 31.1094 94.4922 30.9062C94.5703 30.6875 94.6719 30.4844 94.7969 30.2969C94.875 30.25 94.9688 30.2266 95.0781 30.2266C95.1875 30.2109 95.2969 30.1953 95.4062 30.1797C95.5156 30.1484 95.6016 30.1094 95.6641 30.0625C95.7422 30.0156 95.7891 29.9297 95.8047 29.8047C95.8516 29.8516 95.8906 29.875 95.9219 29.875C95.9531 29.875 95.9844 29.8672 96.0156 29.8516C96.0469 29.8359 96.0781 29.8281 96.1094 29.8281C96.1406 29.8281 96.1641 29.8438 96.1797 29.875C96.2109 29.9062 96.2266 29.9375 96.2266 29.9688C96.8984 29.6094 97.5859 29.3047 98.2891 29.0547C98.9922 28.8047 99.7031 28.5781 100.422 28.375C101.156 28.1719 101.891 27.9844 102.625 27.8125C103.359 27.625 104.086 27.4219 104.805 27.2031C104.914 27.1094 105.031 27.0391 105.156 26.9922C105.281 26.9453 105.391 26.875 105.484 26.7812C105.594 26.8438 105.727 26.875 105.883 26.875C106.102 26.875 106.336 26.8359 106.586 26.7578C106.852 26.6641 107.07 26.5547 107.242 26.4297C107.305 26.4453 107.359 26.4531 107.406 26.4531H107.57C107.883 26.4531 108.172 26.4062 108.438 26.3125C108.719 26.2188 108.992 26.0938 109.258 25.9375H109.375C109.859 25.9375 110.336 25.8828 110.805 25.7734C111.289 25.6641 111.781 25.6094 112.281 25.6094C112.922 25.6094 113.484 25.7734 113.969 26.1016V26.3828C113.969 26.5078 113.969 26.625 113.969 26.7344C113.984 26.8281 114.016 26.9297 114.062 27.0391ZM112.352 36.7891C112.273 36.9141 112.18 37.0312 112.07 37.1406C111.961 37.2344 111.859 37.3359 111.766 37.4453C111.656 37.4922 111.531 37.5156 111.391 37.5156C111.266 37.5156 111.141 37.5156 111.016 37.5156C110.906 37.5 110.797 37.5 110.688 37.5156C110.594 37.5156 110.516 37.5469 110.453 37.6094C110.328 37.5781 110.234 37.5234 110.172 37.4453C110.109 37.3516 110 37.2969 109.844 37.2812C109.781 37.2656 109.719 37.2656 109.656 37.2812C109.422 37.0156 109.203 36.7344 109 36.4375C108.812 36.1406 108.633 35.8594 108.461 35.5938C108.445 35.0156 108.398 34.4297 108.32 33.8359C108.305 33.6953 108.281 33.5547 108.25 33.4141C108.219 33.2734 108.195 33.1406 108.18 33.0156C108.18 32.8594 108.188 32.7109 108.203 32.5703C108.234 32.4141 108.258 32.2734 108.273 32.1484C108.336 31.6953 108.406 31.25 108.484 30.8125C108.562 30.375 108.633 29.9297 108.695 29.4766C108.758 29.0703 108.789 28.6484 108.789 28.2109C108.789 27.7578 108.719 27.3359 108.578 26.9453L108.555 26.8281C108.586 26.7031 108.617 26.6016 108.648 26.5234C108.695 26.4297 108.727 26.3281 108.742 26.2188C108.773 26.0469 108.734 25.9219 108.625 25.8438C108.672 25.7188 108.75 25.6406 108.859 25.6094C108.969 25.5625 109.031 25.4688 109.047 25.3281C109.062 25.2656 109.062 25.2031 109.047 25.1406C109.172 25.0938 109.297 25.0547 109.422 25.0234C109.562 24.9766 109.695 24.9688 109.82 25C110.023 25.0312 110.203 25.1016 110.359 25.2109C110.516 25.3047 110.664 25.4141 110.805 25.5391C111.055 26.2891 111.156 27.0859 111.109 27.9297C111.062 28.7578 110.984 29.5938 110.875 30.4375C110.766 31.2812 110.695 32.1094 110.664 32.9219C110.633 33.7188 110.758 34.4609 111.039 35.1484L111.086 35.1719C111.164 35.1875 111.227 35.1641 111.273 35.1016C111.32 35.0234 111.383 34.9922 111.461 35.0078C111.523 35.0391 111.562 35.0547 111.578 35.0547C111.641 35.3672 111.742 35.6641 111.883 35.9453C112.023 36.2266 112.18 36.5078 112.352 36.7891ZM126.977 37.0469C126.977 37.3125 126.906 37.5469 126.766 37.75C126.641 37.9375 126.594 38.1719 126.625 38.4531C126.406 38.5781 126.227 38.7422 126.086 38.9453C125.945 39.1484 125.812 39.3594 125.688 39.5781C124.656 40.25 123.547 40.7891 122.359 41.1953C121.188 41.6172 119.977 41.8281 118.727 41.8281C118.648 41.8281 118.578 41.7891 118.516 41.7109C118.453 41.6484 118.391 41.5781 118.328 41.5C118.266 41.4219 118.195 41.3438 118.117 41.2656C118.055 41.2031 117.977 41.1719 117.883 41.1719C117.773 41.1719 117.688 41.1953 117.625 41.2422C117.625 41.2109 117.625 41.1797 117.625 41.1484C117.641 41.1328 117.648 41.1094 117.648 41.0781C117.648 40.8906 117.625 40.6953 117.578 40.4922C117.531 40.3047 117.508 40.1172 117.508 39.9297C117.508 39.7109 117.547 39.5312 117.625 39.3906H117.906C118.062 39.3906 118.211 39.3828 118.352 39.3672C118.508 39.3359 118.672 39.3203 118.844 39.3203C119.016 39.3203 119.172 39.3672 119.312 39.4609C120.172 39.4297 120.984 39.2734 121.75 38.9922C122.531 38.6953 123.32 38.4062 124.117 38.125C124.242 37.9531 124.312 37.7656 124.328 37.5625C124.359 37.3438 124.422 37.1406 124.516 36.9531C124.109 36.6094 123.695 36.3438 123.273 36.1562C122.867 35.9531 122.391 35.8828 121.844 35.9453C121.516 35.7422 121.164 35.625 120.789 35.5938C120.43 35.5625 120.062 35.5156 119.688 35.4531C119.594 35.4375 119.492 35.4219 119.383 35.4062C119.289 35.375 119.188 35.3594 119.078 35.3594C119 35.3594 118.922 35.3828 118.844 35.4297C118.781 35.4609 118.766 35.5156 118.797 35.5938C118.719 35.4688 118.609 35.3984 118.469 35.3828C118.344 35.3516 118.234 35.2891 118.141 35.1953C117.641 35.1641 117.203 35.0781 116.828 34.9375C116.453 34.7812 116.039 34.6094 115.586 34.4219C115.461 34.375 115.336 34.3438 115.211 34.3281C115.102 34.2969 114.992 34.25 114.883 34.1875C114.602 34.0469 114.375 33.8594 114.203 33.625C114.031 33.3906 113.898 33.1328 113.805 32.8516C113.695 32.5547 113.617 32.25 113.57 31.9375C113.523 31.625 113.477 31.3359 113.43 31.0703C113.57 30.8203 113.703 30.5625 113.828 30.2969C113.938 30.0312 114.031 29.75 114.109 29.4531C114.203 29.4062 114.297 29.3672 114.391 29.3359C114.484 29.3047 114.586 29.2656 114.695 29.2188C114.68 29.1875 114.672 29.1484 114.672 29.1016C114.672 29.0234 114.695 28.9453 114.742 28.8672C114.805 28.7891 114.82 28.7109 114.789 28.6328C115.133 28.3203 115.461 28 115.773 27.6719C116.102 27.3281 116.383 26.9531 116.617 26.5469C116.852 26.4688 117.039 26.3516 117.18 26.1953C117.32 26.0391 117.461 25.8828 117.602 25.7266C117.742 25.5547 117.898 25.4062 118.07 25.2812C118.242 25.1406 118.461 25.0547 118.727 25.0234C118.789 24.9141 118.875 24.8281 118.984 24.7656C119.094 24.6875 119.203 24.6172 119.312 24.5547C119.422 24.4922 119.523 24.4219 119.617 24.3438C119.711 24.2656 119.781 24.1562 119.828 24.0156C120.078 24.0156 120.305 23.9688 120.508 23.875C120.727 23.7812 120.938 23.6797 121.141 23.5703C121.344 23.4609 121.547 23.3594 121.75 23.2656C121.969 23.1719 122.203 23.125 122.453 23.125C122.516 23.125 122.578 23.1328 122.641 23.1484C122.703 23.1484 122.773 23.1562 122.852 23.1719C122.961 23.2812 123.031 23.4141 123.062 23.5703C123.109 23.7109 123.141 23.8672 123.156 24.0391C123.172 24.2109 123.18 24.3828 123.18 24.5547C123.195 24.7266 123.227 24.8828 123.273 25.0234C123.133 25.2891 122.977 25.5547 122.805 25.8203C122.648 26.0859 122.438 26.2891 122.172 26.4297H122.125C122.016 26.4453 121.914 26.4219 121.82 26.3594C121.727 26.2969 121.617 26.2656 121.492 26.2656C121.414 26.2656 121.352 26.2891 121.305 26.3359L121.188 26.4531C121.156 26.4844 121.109 26.5156 121.047 26.5469C121 26.5781 120.93 26.5781 120.836 26.5469C120.617 26.625 120.531 26.7578 120.578 26.9453C120.281 26.9766 120.031 27.0703 119.828 27.2266C119.625 27.3672 119.438 27.5312 119.266 27.7188C119.094 27.8906 118.922 28.0547 118.75 28.2109C118.578 28.3516 118.375 28.4297 118.141 28.4453C117.875 28.9141 117.547 29.3281 117.156 29.6875C116.781 30.0469 116.469 30.4531 116.219 30.9062C116.266 31.0312 116.297 31.1641 116.312 31.3047C116.328 31.4453 116.352 31.5938 116.383 31.75C116.523 31.9375 116.688 32.1016 116.875 32.2422C117.078 32.3828 117.273 32.5234 117.461 32.6641H117.531C117.844 32.6641 118.133 32.7266 118.398 32.8516C118.664 32.9609 118.945 33.0156 119.242 33.0156C119.398 33.0156 119.531 32.9844 119.641 32.9219C120.047 33.0156 120.445 33.0938 120.836 33.1562C121.242 33.2188 121.648 33.2656 122.055 33.2969C122.258 33.3281 122.461 33.3438 122.664 33.3438C122.883 33.3438 123.086 33.3672 123.273 33.4141C123.445 33.4609 123.617 33.5234 123.789 33.6016C123.961 33.6641 124.133 33.7344 124.305 33.8125C124.664 33.9688 125 34.1406 125.312 34.3281C125.641 34.5156 125.93 34.7422 126.18 35.0078C126.43 35.2578 126.625 35.5547 126.766 35.8984C126.906 36.2266 126.977 36.6094 126.977 37.0469ZM147.344 24.9297C147.281 25.1328 147.18 25.3203 147.039 25.4922L146.641 25.9844C146.516 26.1406 146.406 26.3125 146.312 26.5C146.234 26.6719 146.211 26.875 146.242 27.1094C146.211 27.1094 146.172 27.1094 146.125 27.1094C146.078 27.0938 146.039 27.0859 146.008 27.0859C145.758 27.0859 145.562 27.1484 145.422 27.2734C145.297 27.3828 145.125 27.4766 144.906 27.5547C144.875 27.4609 144.836 27.375 144.789 27.2969C144.742 27.2031 144.672 27.1406 144.578 27.1094C144.203 27.1875 143.828 27.25 143.453 27.2969C143.078 27.3281 142.703 27.375 142.328 27.4375C142.156 27.4688 141.984 27.5156 141.812 27.5781C141.641 27.625 141.461 27.6719 141.273 27.7188C141.18 27.75 141.078 27.7656 140.969 27.7656C140.859 27.75 140.75 27.75 140.641 27.7656C140.266 27.7812 139.859 27.8125 139.422 27.8594C138.984 27.8906 138.594 28.0078 138.25 28.2109C138.094 28.1797 137.93 28.1562 137.758 28.1406C137.586 28.125 137.414 28.1172 137.242 28.1172C136.867 28.1172 136.453 28.1562 136 28.2344C135.562 28.2969 135.172 28.4297 134.828 28.6328C134.75 28.6016 134.664 28.5781 134.57 28.5625C134.492 28.5469 134.398 28.5391 134.289 28.5391C134.258 28.5391 134.234 28.5469 134.219 28.5625C134.203 28.5625 134.18 28.5625 134.148 28.5625C134.133 28.7031 134.148 28.8438 134.195 28.9844C134.258 29.1094 134.359 29.2109 134.5 29.2891C134.438 29.4609 134.406 29.6484 134.406 29.8516C134.406 30.1172 134.422 30.3828 134.453 30.6484C134.5 30.9141 134.523 31.1797 134.523 31.4453C134.523 31.7422 134.484 31.9766 134.406 32.1484C134.562 32.6172 134.641 33.1172 134.641 33.6484C134.641 33.8359 134.625 34.0234 134.594 34.2109C134.578 34.3828 134.57 34.5703 134.57 34.7734C134.57 34.9453 134.633 35.0859 134.758 35.1953C134.883 35.2891 134.945 35.4219 134.945 35.5938C134.945 35.6562 134.93 35.7188 134.898 35.7812C135.117 35.7344 135.328 35.6719 135.531 35.5938C135.734 35.5 135.945 35.4531 136.164 35.4531C136.289 35.4531 136.406 35.4766 136.516 35.5234C136.641 35.5703 136.75 35.6328 136.844 35.7109C136.828 35.7891 136.812 35.875 136.797 35.9688C136.797 36.0625 136.797 36.1562 136.797 36.25C136.797 36.4219 136.797 36.5859 136.797 36.7422C136.812 36.8828 136.828 37.0391 136.844 37.2109C136.719 37.4297 136.57 37.625 136.398 37.7969C136.242 37.9688 136.133 38.1875 136.07 38.4531C135.836 38.4531 135.625 38.5078 135.438 38.6172C135.266 38.7109 135.102 38.8203 134.945 38.9453C134.789 39.0547 134.633 39.1641 134.477 39.2734C134.32 39.3672 134.148 39.4141 133.961 39.4141C133.727 39.4141 133.562 39.3828 133.469 39.3203C133.375 39.2422 133.305 39.1641 133.258 39.0859C133.211 39.0078 133.164 38.9375 133.117 38.875C133.086 38.8125 133.008 38.7891 132.883 38.8047C132.852 38.6016 132.789 38.4141 132.695 38.2422C132.602 38.0547 132.5 37.875 132.391 37.7031C132.297 37.5312 132.195 37.3594 132.086 37.1875C131.992 37 131.922 36.8125 131.875 36.625C131.781 36.2188 131.742 35.7969 131.758 35.3594C131.773 34.9219 131.703 34.5 131.547 34.0938C131.578 33.875 131.602 33.6562 131.617 33.4375C131.633 33.2031 131.641 32.9766 131.641 32.7578C131.641 32.3203 131.625 31.8906 131.594 31.4688C131.578 31.0312 131.562 30.5859 131.547 30.1328C131.438 29.9922 131.367 29.8359 131.336 29.6641C131.32 29.4766 131.305 29.2969 131.289 29.125C131.242 29.0781 131.188 29.0312 131.125 28.9844C131.078 28.9375 131.047 28.875 131.031 28.7969C130.906 28.7656 130.812 28.75 130.75 28.75C130.531 28.75 130.344 28.8047 130.188 28.9141C130.047 29.0078 129.914 29.0547 129.789 29.0547C129.664 29.0547 129.547 29.0391 129.438 29.0078C129.328 28.9766 129.219 28.9609 129.109 28.9609C129.016 28.9609 128.961 28.9844 128.945 29.0312C128.945 29.0625 128.914 29.0938 128.852 29.125C128.805 29.1562 128.695 29.1875 128.523 29.2188C128.352 29.25 128.156 29.2812 127.938 29.3125C127.734 29.3281 127.531 29.3438 127.328 29.3594C127.141 29.375 127.016 29.3828 126.953 29.3828C126.703 29.3828 126.516 29.3359 126.391 29.2422C126.25 29.1328 126.086 29.0156 125.898 28.8906C125.93 28.7969 125.945 28.7344 125.945 28.7031C125.945 28.5469 125.898 28.4219 125.805 28.3281C125.711 28.2188 125.664 28.125 125.664 28.0469C125.664 27.875 125.734 27.7422 125.875 27.6484C126 27.5547 126.07 27.4062 126.086 27.2031C126.445 27.0469 126.812 26.9297 127.188 26.8516C127.562 26.7734 127.945 26.7109 128.336 26.6641C128.727 26.6172 129.109 26.5625 129.484 26.5C129.875 26.4375 130.258 26.3359 130.633 26.1953C130.742 26.2109 130.844 26.2266 130.938 26.2422C131.047 26.2422 131.156 26.2422 131.266 26.2422C131.734 26.2422 132.195 26.1953 132.648 26.1016C133.117 25.9922 133.594 25.9375 134.078 25.9375C134.203 25.9375 134.328 25.9453 134.453 25.9609C134.578 25.9766 134.703 26 134.828 26.0312C135.453 25.9375 136.07 25.8359 136.68 25.7266C137.305 25.6172 137.945 25.5234 138.602 25.4453C138.914 25.4141 139.219 25.3906 139.516 25.375C139.828 25.3438 140.141 25.3047 140.453 25.2578C140.562 25.2422 140.641 25.2188 140.688 25.1875C140.75 25.1406 140.781 25.0547 140.781 24.9297C140.922 24.9922 141.078 25.0234 141.25 25.0234C141.516 25.0234 141.773 24.9766 142.023 24.8828C142.273 24.7891 142.531 24.7422 142.797 24.7422C142.859 24.7422 142.914 24.75 142.961 24.7656C143.008 24.7656 143.055 24.7656 143.102 24.7656C143.211 24.7656 143.266 24.7188 143.266 24.625C143.281 24.5156 143.359 24.4453 143.5 24.4141C143.609 24.3828 143.766 24.3594 143.969 24.3438C144.172 24.3281 144.383 24.3125 144.602 24.2969C144.836 24.2656 145.047 24.2344 145.234 24.2031C145.438 24.1562 145.586 24.0938 145.68 24.0156L145.844 23.7578C146.125 23.7734 146.328 23.8984 146.453 24.1328C146.594 24.3516 146.672 24.5938 146.688 24.8594C146.75 24.9219 146.836 24.9531 146.945 24.9531C147.07 24.9375 147.18 24.9297 147.273 24.9297H147.344ZM158.898 25.0938V25.1875C158.789 25.2188 158.734 25.2969 158.734 25.4219C158.562 25.5 158.383 25.5625 158.195 25.6094C158.008 25.6406 157.828 25.6953 157.656 25.7734C157.484 25.7578 157.305 25.75 157.117 25.75C156.945 25.7344 156.773 25.7266 156.602 25.7266C156.133 25.7266 155.664 25.7422 155.195 25.7734C154.727 25.8047 154.258 25.8047 153.789 25.7734C153.57 25.8984 153.328 26 153.062 26.0781C152.812 26.1406 152.57 26.1719 152.336 26.1719C152.148 26.1719 151.984 26.1484 151.844 26.1016C151.469 26.2891 151.055 26.4453 150.602 26.5703C150.164 26.6953 149.719 26.8203 149.266 26.9453C148.812 27.0547 148.375 27.1875 147.953 27.3438C147.547 27.4844 147.188 27.6875 146.875 27.9531C146.844 28.1719 146.82 28.3906 146.805 28.6094C146.789 28.8125 146.781 29.0156 146.781 29.2188C146.781 29.4375 146.789 29.6406 146.805 29.8281C146.836 30.0156 146.891 30.2031 146.969 30.3906C147.047 30.4219 147.133 30.4453 147.227 30.4609C147.336 30.4766 147.43 30.4844 147.508 30.4844C147.586 30.4844 147.664 30.4766 147.742 30.4609C147.82 30.4297 147.875 30.375 147.906 30.2969C148.141 30.2656 148.375 30.2578 148.609 30.2734C148.844 30.2734 149.078 30.2734 149.312 30.2734C149.547 30.2734 149.773 30.2656 149.992 30.25C150.227 30.2344 150.453 30.1953 150.672 30.1328C150.922 30.0703 151.164 30.0312 151.398 30.0156C151.648 30 151.891 29.9844 152.125 29.9688C152.359 29.9531 152.602 29.9297 152.852 29.8984C153.102 29.8516 153.359 29.7656 153.625 29.6406C153.828 29.7188 154.031 29.7578 154.234 29.7578C154.453 29.7578 154.664 29.7734 154.867 29.8047C154.977 29.8828 155.062 29.9688 155.125 30.0625C155.203 30.1562 155.242 30.2656 155.242 30.3906C155.242 30.6094 155.164 30.8281 155.008 31.0469C154.852 31.2656 154.727 31.4688 154.633 31.6562H154.375C154 31.6562 153.633 31.7109 153.273 31.8203C152.93 31.9141 152.578 32.0312 152.219 32.1719C151.875 32.2969 151.523 32.4141 151.164 32.5234C150.82 32.6172 150.461 32.6641 150.086 32.6641C150.023 32.6641 149.984 32.7031 149.969 32.7812C149.969 32.8438 149.953 32.8906 149.922 32.9219C149.844 32.9062 149.727 32.8984 149.57 32.8984C149.211 32.8984 148.867 32.9375 148.539 33.0156C148.211 33.0938 147.875 33.1328 147.531 33.1328C147.438 33.1328 147.344 33.1328 147.25 33.1328C147.156 33.1172 147.062 33.1016 146.969 33.0859C146.891 33.2109 146.789 33.2969 146.664 33.3438C146.539 33.375 146.422 33.4375 146.312 33.5312C146.266 33.6719 146.234 33.8438 146.219 34.0469C146.219 34.25 146.211 34.4609 146.195 34.6797C146.195 34.8828 146.18 35.0781 146.148 35.2656C146.117 35.4531 146.055 35.6016 145.961 35.7109C145.977 35.7891 146.039 35.8203 146.148 35.8047C146.258 35.7734 146.312 35.8203 146.312 35.9453C146.312 36.0859 146.297 36.2344 146.266 36.3906C146.234 36.5469 146.219 36.7031 146.219 36.8594C146.219 37.1562 146.25 37.4844 146.312 37.8438C146.391 38.1875 146.5 38.5078 146.641 38.8047C146.797 39.1016 147 39.3516 147.25 39.5547C147.5 39.7422 147.812 39.8359 148.188 39.8359C148.438 39.8359 148.672 39.7891 148.891 39.6953C149.109 39.6016 149.289 39.4453 149.43 39.2266L149.547 39.2031C149.609 39.2031 149.664 39.2109 149.711 39.2266C149.773 39.2422 149.836 39.25 149.898 39.25C149.992 39.25 150.109 39.1953 150.25 39.0859C150.406 38.9609 150.57 38.8203 150.742 38.6641C150.93 38.5078 151.117 38.3594 151.305 38.2188C151.492 38.0625 151.672 37.9531 151.844 37.8906C151.953 37.6719 152.055 37.4531 152.148 37.2344C152.258 37.0156 152.414 36.8438 152.617 36.7188V36.0391C152.773 35.8672 152.938 35.7109 153.109 35.5703C153.297 35.4297 153.438 35.25 153.531 35.0312C153.609 35.0625 153.68 35.0859 153.742 35.1016C153.82 35.1172 153.898 35.125 153.977 35.125C154.055 35.125 154.133 35.1172 154.211 35.1016C154.305 35.0859 154.391 35.0625 154.469 35.0312C154.594 35.2031 154.688 35.3984 154.75 35.6172C154.828 35.8203 154.922 36.0156 155.031 36.2031C154.891 36.4844 154.727 36.8203 154.539 37.2109C154.352 37.6016 154.148 37.9922 153.93 38.3828C153.711 38.7734 153.477 39.1484 153.227 39.5078C152.992 39.8516 152.758 40.1172 152.523 40.3047C152.477 40.3516 152.375 40.4062 152.219 40.4688C152.047 40.5938 151.891 40.7109 151.75 40.8203C151.609 40.9453 151.477 41.0859 151.352 41.2422C150.898 41.3828 150.461 41.5703 150.039 41.8047C149.633 42.0391 149.227 42.2656 148.82 42.4844C148.633 42.4375 148.43 42.4141 148.211 42.4141C148.023 42.4141 147.836 42.4219 147.648 42.4375C147.461 42.4688 147.258 42.4844 147.039 42.4844C146.977 42.4062 146.883 42.3516 146.758 42.3203C146.648 42.3047 146.609 42.2266 146.641 42.0859C146.109 42.0547 145.68 41.9062 145.352 41.6406C145.023 41.3906 144.742 41.0781 144.508 40.7031C144.289 40.3281 144.109 39.9219 143.969 39.4844C143.828 39.0469 143.68 38.625 143.523 38.2188V38.1484C143.523 38.0703 143.555 38.0234 143.617 38.0078C143.68 37.9922 143.711 37.9453 143.711 37.8672C143.711 37.8359 143.703 37.8125 143.688 37.7969C143.641 37.625 143.602 37.4766 143.57 37.3516C143.539 37.2266 143.523 37.0781 143.523 36.9062C143.523 36.6562 143.539 36.4141 143.57 36.1797C143.602 35.9297 143.617 35.6797 143.617 35.4297C143.617 35.1797 143.586 34.9609 143.523 34.7734C143.586 34.6953 143.641 34.5938 143.688 34.4688C143.719 34.3281 143.742 34.1875 143.758 34.0469C143.773 33.9062 143.781 33.7656 143.781 33.625C143.797 33.4844 143.82 33.3594 143.852 33.25C143.789 33.0781 143.734 32.9297 143.688 32.8047C143.641 32.6641 143.617 32.5 143.617 32.3125V32.1484C143.773 31.8828 143.906 31.6094 144.016 31.3281C144.125 31.0469 144.242 30.7578 144.367 30.4609V30.3906C144.367 29.9375 144.352 29.4844 144.32 29.0312C144.289 28.5781 144.273 28.125 144.273 27.6719V27.2266C144.273 27.0703 144.281 26.9219 144.297 26.7812C144.422 26.7188 144.516 26.6328 144.578 26.5234C144.641 26.4141 144.734 26.3281 144.859 26.2656H145.633L145.773 26.0312C145.82 25.9531 145.852 25.8672 145.867 25.7734C146.039 25.7266 146.203 25.6641 146.359 25.5859C146.531 25.4922 146.688 25.3984 146.828 25.3047C147.047 25.1797 147.242 25.0703 147.414 24.9766C147.602 24.8672 147.781 24.7812 147.953 24.7188C148.141 24.6406 148.336 24.5781 148.539 24.5312C148.742 24.4844 148.977 24.4453 149.242 24.4141C149.367 24.4141 149.445 24.3906 149.477 24.3438C149.523 24.2969 149.586 24.2422 149.664 24.1797C149.852 24.2109 150.039 24.2422 150.227 24.2734C150.414 24.2891 150.602 24.2969 150.789 24.2969C151.164 24.2969 151.516 24.2266 151.844 24.0859C152.312 24.0859 152.773 24.0781 153.227 24.0625C153.695 24.0469 154.164 24.0391 154.633 24.0391C155.039 24.0391 155.445 24.0547 155.852 24.0859C156.258 24.1172 156.656 24.1719 157.047 24.25C157.188 24.2031 157.344 24.1797 157.516 24.1797C157.703 24.1797 157.891 24.2031 158.078 24.25C158.281 24.2812 158.477 24.2812 158.664 24.25C158.68 24.4219 158.719 24.5703 158.781 24.6953C158.859 24.8047 158.898 24.9375 158.898 25.0938ZM187.75 35.9219C187.719 36.1562 187.633 36.3359 187.492 36.4609C187.367 36.5859 187.219 36.7031 187.047 36.8125C186.969 36.7969 186.891 36.7891 186.812 36.7891C186.75 36.7734 186.68 36.7656 186.602 36.7656C186.117 36.75 185.656 36.8125 185.219 36.9531C184.797 37.0938 184.359 37.1953 183.906 37.2578C183.75 37.2891 183.602 37.3047 183.461 37.3047C183.336 37.2891 183.203 37.2969 183.062 37.3281C182.562 37.4062 182.031 37.4688 181.469 37.5156C180.906 37.5625 180.344 37.625 179.781 37.7031C179.219 37.7656 178.664 37.8516 178.117 37.9609C177.586 38.0547 177.086 38.1953 176.617 38.3828C176.57 38.3516 176.523 38.3203 176.477 38.2891C176.43 38.2422 176.375 38.2188 176.312 38.2188C176.156 38.2188 176.008 38.2422 175.867 38.2891C175.727 38.3359 175.586 38.3516 175.445 38.3359C175.289 38.4297 175.117 38.5 174.93 38.5469C174.758 38.5781 174.578 38.6094 174.391 38.6406C174.219 38.6562 174.047 38.6875 173.875 38.7344C173.703 38.7812 173.539 38.8672 173.383 38.9922C173.258 38.9297 173.102 38.8984 172.914 38.8984C172.742 38.8828 172.625 38.8203 172.562 38.7109C172.203 38.8828 171.82 38.9922 171.414 39.0391C171.023 39.0859 170.625 39.1016 170.219 39.0859C169.953 39.0703 169.648 39.0312 169.305 38.9688C168.961 38.9062 168.617 38.8203 168.273 38.7109C167.93 38.5859 167.609 38.4453 167.312 38.2891C167.016 38.1172 166.789 37.9141 166.633 37.6797C166.523 37.5234 166.445 37.3516 166.398 37.1641C166.352 36.9766 166.242 36.8359 166.07 36.7422C166.117 36.3828 166.172 36.0312 166.234 35.6875C166.297 35.3438 166.359 34.9922 166.422 34.6328C166.734 34.3672 167.031 34.0859 167.312 33.7891C167.594 33.4922 167.859 33.1797 168.109 32.8516C168.406 32.7109 168.68 32.5391 168.93 32.3359C169.195 32.1328 169.453 31.9297 169.703 31.7266C169.969 31.5078 170.227 31.2969 170.477 31.0938C170.742 30.8906 171.023 30.7109 171.32 30.5547C171.367 30.4453 171.43 30.3594 171.508 30.2969C171.602 30.2188 171.695 30.1484 171.789 30.0859C171.883 30.0078 171.969 29.9297 172.047 29.8516C172.125 29.7578 172.18 29.6484 172.211 29.5234C172.758 29.1953 173.234 28.7812 173.641 28.2812C174.047 27.7812 174.312 27.2188 174.438 26.5938C174.172 26.375 173.867 26.2344 173.523 26.1719C173.195 26.0938 172.852 26.0391 172.492 26.0078C172.18 25.9922 171.852 25.9922 171.508 26.0078C171.18 26.0234 170.844 26.0156 170.5 25.9844C170.156 26.0938 169.797 26.1641 169.422 26.1953C169.062 26.2266 168.703 26.2578 168.344 26.2891C167.984 26.3047 167.625 26.3516 167.266 26.4297C166.922 26.4922 166.586 26.6172 166.258 26.8047C166.195 26.8047 166.133 26.7969 166.07 26.7812C166.023 26.7656 165.969 26.7578 165.906 26.7578C165.406 26.7422 164.938 26.8438 164.5 27.0625C164.062 27.2656 163.633 27.4688 163.211 27.6719C163.18 27.7344 163.164 27.7812 163.164 27.8125C163.164 27.9062 163.18 28 163.211 28.0938C163.258 28.1719 163.281 28.2578 163.281 28.3516C163.266 28.3672 163.258 28.3828 163.258 28.3984C163.258 28.4141 163.25 28.4297 163.234 28.4453C163.219 28.5234 163.195 28.5938 163.164 28.6562C163.148 28.7188 163.125 28.7891 163.094 28.8672C162.922 29.3672 162.828 29.8594 162.812 30.3438C162.797 30.75 162.797 31.1484 162.812 31.5391C162.828 31.9297 162.828 32.3281 162.812 32.7344C162.781 33.2344 162.703 33.7031 162.578 34.1406C162.656 34.5156 162.727 34.9141 162.789 35.3359C162.852 35.7422 162.93 36.1484 163.023 36.5547C163.117 36.9609 163.227 37.3594 163.352 37.75C163.492 38.125 163.672 38.4844 163.891 38.8281C163.875 38.8594 163.883 38.8828 163.914 38.8984C163.945 38.9141 163.977 38.9219 164.008 38.9219H164.195C164.273 38.9219 164.305 38.9531 164.289 39.0156C164.32 39.0625 164.344 39.1094 164.359 39.1562C164.375 39.1875 164.406 39.2188 164.453 39.25C164.484 39.2969 164.484 39.3594 164.453 39.4375C164.438 39.75 164.359 40.0391 164.219 40.3047C164.078 40.5703 163.992 40.8594 163.961 41.1719C163.773 41.2188 163.602 41.2422 163.445 41.2422C163.18 41.2266 162.945 41.1484 162.742 41.0078C162.539 40.8828 162.352 40.7266 162.18 40.5391C162.008 40.3516 161.844 40.1641 161.688 39.9766C161.531 39.7734 161.359 39.6016 161.172 39.4609C161.062 39.0234 160.953 38.5391 160.844 38.0078C160.75 37.4766 160.586 37.0234 160.352 36.6484C160.414 36.5078 160.445 36.3359 160.445 36.1328C160.461 35.8203 160.43 35.5156 160.352 35.2188C160.289 34.9062 160.273 34.5938 160.305 34.2812C160.305 34.1094 160.32 33.9375 160.352 33.7656C160.398 33.5938 160.43 33.4219 160.445 33.25C160.461 32.9844 160.43 32.7266 160.352 32.4766C160.289 32.2266 160.266 31.9688 160.281 31.7031C160.297 31.5781 160.32 31.4609 160.352 31.3516C160.398 31.2266 160.461 31.1172 160.539 31.0234C160.461 30.8359 160.438 30.6562 160.469 30.4844C160.484 30.2188 160.516 29.9688 160.562 29.7344C160.609 29.5 160.641 29.2656 160.656 29.0312C160.656 28.9062 160.648 28.7891 160.633 28.6797C160.617 28.5547 160.594 28.4375 160.562 28.3281L160.352 28.2578C160.258 28.2578 160.164 28.2812 160.07 28.3281C159.992 28.375 159.922 28.4297 159.859 28.4922C159.797 28.5547 159.742 28.6094 159.695 28.6562C159.648 28.6875 159.602 28.7031 159.555 28.7031C159.523 28.7031 159.484 28.7031 159.438 28.7031C159.406 28.6875 159.375 28.6797 159.344 28.6797C159.312 28.6797 159.25 28.7109 159.156 28.7734C159.078 28.8359 158.977 28.9062 158.852 28.9844C158.742 29.0469 158.633 29.1172 158.523 29.1953C158.414 29.2578 158.328 29.2969 158.266 29.3125C158.094 29.2812 157.953 29.2266 157.844 29.1484C157.75 29.0547 157.656 28.9688 157.562 28.8906C157.484 28.7969 157.398 28.7188 157.305 28.6562C157.211 28.5781 157.094 28.5469 156.953 28.5625C156.906 28.4688 156.883 28.3672 156.883 28.2578C156.867 28.1484 156.867 28.0391 156.883 27.9297V27.5547C156.992 27.3516 157.141 27.1875 157.328 27.0625C157.5 26.9219 157.688 26.8047 157.891 26.7109L158.5 26.4297C158.703 26.3359 158.891 26.2188 159.062 26.0781H159.273C159.555 26.0938 159.797 26.0391 160 25.9141C160.219 25.7891 160.422 25.6484 160.609 25.4922C160.797 25.3203 160.984 25.1484 161.172 24.9766C161.375 24.8047 161.594 24.6719 161.828 24.5781C162 24.6562 162.18 24.7266 162.367 24.7891C162.555 24.8359 162.75 24.8672 162.953 24.8828C163.156 24.8828 163.367 24.8516 163.586 24.7891C163.805 24.7266 163.977 24.6094 164.102 24.4375C164.18 24.4688 164.242 24.4922 164.289 24.5078C164.352 24.5078 164.422 24.5078 164.5 24.5078C164.734 24.5234 164.969 24.4922 165.203 24.4141C165.438 24.3203 165.664 24.2109 165.883 24.0859C166.195 24.1016 166.5 24.0859 166.797 24.0391C167.109 23.9766 167.414 23.9141 167.711 23.8516C168.023 23.7891 168.328 23.7344 168.625 23.6875C168.938 23.625 169.25 23.6016 169.562 23.6172C170.078 23.6328 170.586 23.5859 171.086 23.4766C171.586 23.3672 172.094 23.3281 172.609 23.3594C172.969 23.375 173.32 23.4062 173.664 23.4531C174.023 23.4844 174.383 23.4922 174.742 23.4766C174.945 23.5703 175.125 23.6562 175.281 23.7344C175.453 23.7969 175.664 23.8125 175.914 23.7812C176.414 24.2031 176.867 24.6953 177.273 25.2578V25.6562C177.258 26.0156 177.195 26.3672 177.086 26.7109C176.977 27.0547 176.844 27.3984 176.688 27.7422C176.547 28.0703 176.391 28.3984 176.219 28.7266C176.047 29.0391 175.883 29.3516 175.727 29.6641C174.711 30.5859 173.695 31.5 172.68 32.4062C171.664 33.3125 170.617 34.1875 169.539 35.0312C169.508 35.1875 169.461 35.3281 169.398 35.4531C169.352 35.5781 169.32 35.7109 169.305 35.8516C169.305 35.9297 169.312 35.9922 169.328 36.0391C169.438 36.0703 169.531 36.1328 169.609 36.2266C169.703 36.3047 169.734 36.4141 169.703 36.5547H169.914C169.992 36.5547 170.031 36.5859 170.031 36.6484L170.406 36.6719C171 36.7031 171.594 36.6875 172.188 36.625C172.781 36.5625 173.375 36.4922 173.969 36.4141C174.578 36.3359 175.18 36.2656 175.773 36.2031C176.367 36.125 176.961 36.0781 177.555 36.0625C177.695 36.0156 177.844 35.9766 178 35.9453C178.156 35.9141 178.297 35.8516 178.422 35.7578H178.492C178.602 35.7578 178.68 35.7891 178.727 35.8516C178.789 35.9141 178.875 35.9531 178.984 35.9688C179.062 35.9688 179.141 35.9531 179.219 35.9219C179.312 35.8906 179.406 35.8672 179.5 35.8516C179.719 35.7891 179.945 35.75 180.18 35.7344C180.43 35.7188 180.672 35.6953 180.906 35.6641C181.812 35.5859 182.711 35.5391 183.602 35.5234C184.492 35.4922 185.383 35.375 186.273 35.1719C186.352 35.2812 186.461 35.3594 186.602 35.4062C186.742 35.4375 186.891 35.4766 187.047 35.5234C187.203 35.5547 187.344 35.5938 187.469 35.6406C187.609 35.6875 187.703 35.7812 187.75 35.9219Z" fill="#FFFEFE"/>
</g>
<defs>
<filter id="filter0_d" x="0" y="0" width="34" height="68" filterUnits="userSpaceOnUse" color-interpolation-filters="sRGB">
<feFlood flood-opacity="0" result="BackgroundImageFix"/>
<feColorMatrix in="SourceAlpha" type="matrix" values="0 0 0 0 0 0 0 0 0 0 0 0 0 0 0 0 0 0 127 0"/>
<feOffset dy="4"/>
<feGaussianBlur stdDeviation="2"/>
<feColorMatrix type="matrix" values="0 0 0 0 0 0 0 0 0 0 0 0 0 0 0 0 0 0 0.5 0"/>
<feBlend mode="normal" in2="BackgroundImageFix" result="effect1_dropShadow"/>
<feBlend mode="normal" in="SourceGraphic" in2="effect1_dropShadow" result="shape"/>
</filter>
<filter id="filter1_d" x="203" y="0" width="34" height="68" filterUnits="userSpaceOnUse" color-interpolation-filters="sRGB">
<feFlood flood-opacity="0" result="BackgroundImageFix"/>
<feColorMatrix in="SourceAlpha" type="matrix" values="0 0 0 0 0 0 0 0 0 0 0 0 0 0 0 0 0 0 127 0"/>
<feOffset dy="4"/>
<feGaussianBlur stdDeviation="2"/>
<feColorMatrix type="matrix" values="0 0 0 0 0 0 0 0 0 0 0 0 0 0 0 0 0 0 0.5 0"/>
<feBlend mode="normal" in2="BackgroundImageFix" result="effect1_dropShadow"/>
<feBlend mode="normal" in="SourceGraphic" in2="effect1_dropShadow" result="shape"/>
</filter>
<filter id="filter2_d" x="43.5703" y="17.8047" width="148.18" height="36.9688" filterUnits="userSpaceOnUse" color-interpolation-filters="sRGB">
<feFlood flood-opacity="0" result="BackgroundImageFix"/>
<feColorMatrix in="SourceAlpha" type="matrix" values="0 0 0 0 0 0 0 0 0 0 0 0 0 0 0 0 0 0 127 0"/>
<feOffset dy="4"/>
<feGaussianBlur stdDeviation="2"/>
<feColorMatrix type="matrix" values="0 0 0 0 0 0 0 0 0 0 0 0 0 0 0 0 0 0 0.5 0"/>
<feBlend mode="normal" in2="BackgroundImageFix" result="effect1_dropShadow"/>
<feBlend mode="normal" in="SourceGraphic" in2="effect1_dropShadow" result="shape"/>
</filter>
</defs>
</svg>
