<svg width="237" height="68" viewBox="0 0 237 68" fill="none" xmlns="http://www.w3.org/2000/svg">
<g filter="url(#filter0_d)">
<path fill-rule="evenodd" clip-rule="evenodd" d="M8.54661 0.118202C8.35999 0.174704 8.10898 0.279624 7.98879 0.351339C7.86859 0.423053 7.60955 0.554834 7.41313 0.644195C7.13871 0.768935 7.08507 0.841344 7.18145 0.956348C7.25046 1.03867 7.39611 1.27154 7.50528 1.47382C7.67911 1.79606 7.67911 1.83552 7.50501 1.79284C7.2702 1.7353 7.36698 1.86725 7.76922 2.15272C7.91896 2.25894 8.05032 2.43497 8.06107 2.54389C8.09319 2.87021 8.28308 3.41707 8.481 3.75339C8.58337 3.92724 8.63237 4.09162 8.5899 4.11874C8.45011 4.20801 8.67566 4.59292 9.02182 4.85553C9.30046 5.06702 9.32509 5.12283 9.15794 5.16377C8.91156 5.2241 8.8842 5.48001 9.12404 5.48001C9.22736 5.48001 9.29025 5.59102 9.28412 5.76252C9.27854 5.91786 9.39016 6.1716 9.53227 6.32642C9.67438 6.48115 9.77267 6.69629 9.75075 6.80451C9.72883 6.91265 9.76109 7.05269 9.82248 7.11571C9.88388 7.17864 9.89776 7.25323 9.85352 7.28157C9.80928 7.30982 9.84127 7.38544 9.92458 7.4496C10.0361 7.53539 10.0358 7.56625 9.92335 7.56625C9.73101 7.56625 9.72053 8.06269 9.91205 8.10346C10.0057 8.12336 9.99155 8.25062 9.87013 8.48011C9.7694 8.67074 9.70093 8.9636 9.71822 9.13093C9.7355 9.29826 9.75442 9.48829 9.76014 9.55322C9.76749 9.6365 9.88102 9.65545 10.145 9.61737L10.5193 9.56348L10.1109 9.79001C9.85965 9.92944 9.76518 10.0323 9.86536 10.0575C10.0216 10.0969 9.99699 10.9035 9.83038 11.208C9.7939 11.2747 9.8719 11.4054 10.0038 11.4984C10.2329 11.6601 10.2322 11.6728 9.98774 11.7869C9.62606 11.9558 9.65015 12.5232 10.0314 12.8165C10.1808 12.9314 10.1812 12.9797 10.0339 13.093C9.82112 13.2567 9.74054 14.9328 9.94159 15.0122C10.0231 15.0444 10.0203 15.084 9.93411 15.1181C9.81037 15.1669 9.72244 15.6159 9.75742 16.0199C9.76463 16.1036 9.8625 16.172 9.97481 16.172C10.0871 16.172 10.179 16.2307 10.179 16.3024C10.179 16.3741 10.0871 16.4328 9.97481 16.4328C9.71917 16.4328 9.7031 16.7694 9.95588 16.8313C10.2375 16.9003 10.2641 18.0844 9.98406 18.0844C9.85788 18.0844 9.80928 18.1344 9.85747 18.2148C9.90062 18.2865 9.86999 18.3452 9.78941 18.3452C9.62089 18.3452 9.74612 18.6137 9.96487 18.7212C10.0664 18.7711 10.0589 18.8065 9.94077 18.8371C9.72679 18.8925 9.71631 19.1275 9.92784 19.1275C10.0203 19.1275 9.98964 19.1949 9.85338 19.291C9.64471 19.4382 9.64253 19.4679 9.83106 19.5883C9.96432 19.6734 9.98624 19.7335 9.8915 19.7537C9.79036 19.7753 9.81173 19.8912 9.95765 20.1145C10.1441 20.3993 10.1473 20.4688 9.98188 20.633C9.8768 20.7373 9.74884 20.9693 9.69752 21.1485C9.61381 21.4411 9.63369 21.4745 9.89164 21.4745C10.2061 21.4745 10.2427 21.5363 10.0457 21.7353C9.95343 21.8286 9.97821 21.8794 10.1326 21.914C10.3284 21.9579 10.3279 21.9755 10.1266 22.104C10.0045 22.182 9.96065 22.2679 10.029 22.2948C10.2117 22.3669 10.0429 22.6915 9.82276 22.6915C9.58509 22.6915 9.58672 22.7086 9.85883 23.073C10.0672 23.352 10.0672 23.3838 9.8591 23.5166C9.68269 23.6293 9.66676 23.6977 9.78451 23.838C9.89831 23.9739 9.89504 24.001 9.77062 23.9519C9.64471 23.9022 9.64335 23.9305 9.76463 24.0751C9.85107 24.1783 9.87816 24.3493 9.8248 24.4551C9.77144 24.5608 9.71277 24.7634 9.69467 24.9052C9.67643 25.0471 9.59421 25.1775 9.51185 25.195C9.29733 25.2407 9.32727 25.3913 9.58754 25.5749C9.7973 25.723 9.79703 25.7339 9.58495 25.7339C9.4099 25.7339 9.37682 25.7843 9.44243 25.9512C9.49511 26.0851 9.46993 26.1686 9.37696 26.1686C9.29406 26.1686 9.22614 26.2859 9.22614 26.4293C9.22614 26.5728 9.278 26.6901 9.34129 26.6901C9.40473 26.6901 9.34551 26.8955 9.2098 27.1465C8.95539 27.6172 8.98819 28.1487 9.27977 28.2782C9.38254 28.3238 9.35259 28.383 9.18584 28.4645C9.01161 28.5497 8.96642 28.6477 9.02849 28.8056C9.0764 28.9275 9.06973 29.0747 9.01365 29.1327C8.95757 29.1906 8.89931 29.4745 8.8842 29.7637C8.86841 30.066 8.79068 30.3033 8.70111 30.3224C8.61549 30.3406 8.54553 30.4478 8.54553 30.5604C8.54553 30.6732 8.48849 30.7879 8.41893 30.8154C8.28063 30.87 8.30187 31.2027 8.45364 31.3596C8.50605 31.4137 8.47229 31.5655 8.37864 31.6967C8.24143 31.8891 8.24225 31.9426 8.38259 31.9725C8.51435 32.0005 8.51912 32.0386 8.40205 32.1287C8.31684 32.1942 8.22292 32.4349 8.19324 32.6635C8.1083 33.3167 8.03793 33.5827 7.88302 33.8369C7.77045 34.0214 7.78297 34.101 7.94006 34.2014C8.10994 34.3098 8.11184 34.3405 7.9519 34.3999C7.64631 34.5133 7.60302 35.1189 7.86791 35.5739C8.09605 35.9657 8.09564 35.9883 7.85797 36.1257C7.53115 36.3145 7.2732 36.7736 7.49399 36.7736C7.58151 36.7736 7.51713 36.8345 7.35079 36.9089C7.00612 37.0631 6.94705 37.2952 7.25237 37.2952C7.51223 37.2952 7.51032 37.4447 7.24611 37.7681C7.12714 37.9139 7.03076 38.2691 7.02205 38.5939C7.01116 39.0069 6.94691 39.1926 6.78928 39.2674C6.59299 39.3606 6.5979 39.3831 6.84033 39.4977C7.0667 39.6048 7.08439 39.6568 6.95304 39.829C6.69522 40.167 6.616 40.5114 6.79609 40.5114C6.88484 40.5114 6.9171 40.5372 6.86783 40.5686C6.81855 40.6001 6.85203 40.6826 6.94215 40.7519C7.07269 40.8524 7.05867 40.9001 6.87286 40.9868C6.74477 41.0467 6.63982 41.1575 6.63982 41.233C6.63982 41.3087 6.58891 41.3905 6.52684 41.4151C6.39712 41.4663 6.42733 42.0856 6.57789 42.4591C6.65085 42.6404 6.62267 42.7387 6.47811 42.8068C6.20641 42.9351 6.06661 43.5213 6.2742 43.6619C6.46858 43.7934 6.52194 44.0754 6.35247 44.0754C6.2859 44.0754 6.23146 44.1341 6.23146 44.2058C6.23146 44.2775 6.13808 44.3362 6.02401 44.3362C5.84677 44.3362 5.82432 44.4883 5.86964 45.3814C5.89864 45.9564 5.87767 46.4444 5.82282 46.466C5.6675 46.5274 5.52553 47.2524 5.48469 48.1929C5.45937 48.7767 5.39158 49.0726 5.27221 49.1197C5.15664 49.1653 5.10518 49.3619 5.12097 49.6963C5.13431 49.9766 5.0653 50.301 4.96675 50.4211C4.84315 50.5718 4.82586 50.7183 4.91026 50.8992C4.97723 51.0426 5.08218 51.2676 5.14357 51.399C5.20796 51.5372 5.20251 51.6381 5.13064 51.6381C5.06231 51.6381 5.00636 51.7506 5.00636 51.8882C5.00636 52.0258 4.90713 52.1909 4.78598 52.2552C4.6097 52.3486 4.58193 52.4726 4.64768 52.8742C4.71479 53.2841 4.69273 53.3766 4.52789 53.3766C4.30057 53.3766 4.25252 53.5983 4.46187 53.6808C4.67586 53.7653 4.62086 54.0718 4.38129 54.1306C4.2095 54.1727 4.18255 54.2607 4.2517 54.5548C4.30302 54.7732 4.28219 54.9481 4.20133 54.9801C4.11109 55.0158 4.10891 55.1098 4.1948 55.2543C4.36033 55.5321 4.36182 55.6612 4.19902 55.597C3.94475 55.4966 3.93004 55.7063 4.17847 55.8893C4.42008 56.0672 4.42553 56.419 4.18677 56.419C4.05541 56.419 4.1899 57.1406 4.33242 57.2014C4.3885 57.2253 4.45588 57.3426 4.48215 57.4621C4.51741 57.6224 4.6014 57.6728 4.80218 57.6541C5.02392 57.6335 5.03685 57.6449 4.87146 57.7156C4.69464 57.7913 4.70254 57.8392 4.93272 58.0887C5.0781 58.2461 5.30719 58.4507 5.44195 58.5434C5.57671 58.6361 5.68697 58.7406 5.68697 58.7755C5.68697 58.8106 5.87482 58.8655 6.10459 58.8977C6.33423 58.9299 6.55515 59.0113 6.59558 59.0785C6.64118 59.1545 6.86919 59.2007 7.19887 59.2007C7.49031 59.2007 7.7288 59.2398 7.7288 59.2876C7.7288 59.404 8.36938 59.3992 8.48291 59.282C8.54226 59.2207 8.65347 59.2361 8.81164 59.3275C8.94681 59.4057 9.15004 59.4413 9.27963 59.4096C9.4148 59.3764 9.62184 59.419 9.78532 59.5134C10.0791 59.6832 10.5064 59.7222 10.8853 59.6137C11.0118 59.5775 11.1532 59.5872 11.1996 59.6351C11.3307 59.7706 11.5975 59.7386 11.9156 59.5493C12.1877 59.3875 12.6292 59.3893 12.6292 59.5523C12.6292 59.592 12.7363 59.6276 12.8674 59.6314C15.5634 59.7089 16.4798 59.7133 16.3239 59.6477C16.2103 59.5999 16.1916 59.5494 16.2756 59.5163C16.3507 59.4867 16.4462 59.5192 16.4878 59.5885C16.5376 59.6715 16.7642 59.715 17.1487 59.7157C19.0144 59.7189 19.3442 59.7315 19.5683 59.808C19.7475 59.8694 19.8621 59.8562 19.9872 59.7599C20.082 59.687 20.2397 59.647 20.3379 59.6711C20.436 59.6952 20.61 59.655 20.7245 59.5819C20.839 59.5088 20.933 59.4812 20.9334 59.5205C20.934 59.5597 21.1218 59.66 21.3508 59.7432C21.7374 59.8838 21.7979 59.8845 22.1923 59.7542C22.5167 59.6471 22.6744 59.6367 22.8586 59.7102C22.9912 59.7631 23.1879 59.7847 23.2955 59.7584C23.4032 59.732 23.5319 59.7521 23.5813 59.8033C23.6806 59.9059 24.8905 59.9144 25.4246 59.8162C25.6215 59.78 26.0519 59.8079 26.4455 59.8822C27.0141 59.9895 27.8635 60.0199 29.4104 59.988C30.2311 59.9711 29.3396 59.2613 28.374 59.1627C28.0778 59.1324 27.6664 59.0308 27.4598 58.9369C27.0491 58.7501 26.7858 58.7174 26.7858 58.853C26.7858 58.9778 26.4692 58.9602 26.0187 58.81C25.8043 58.7387 25.5318 58.68 25.4133 58.6796C25.2948 58.6794 25.1518 58.6498 25.0956 58.6139C25.0395 58.5781 24.8302 58.54 24.6306 58.5293C24.4309 58.5186 24.0073 58.4851 23.6891 58.4549C23.1986 58.4084 23.1106 58.423 23.1106 58.5502C23.1106 58.6584 23.0629 58.6763 22.9404 58.6142C22.3669 58.3235 20.7965 58.2826 20.7965 58.5584C20.7965 58.7188 20.659 58.7112 20.463 58.54C20.3753 58.4634 20.1103 58.391 19.874 58.3791C19.6377 58.3672 19.3458 58.3053 19.2252 58.2414C19.0842 58.1667 18.9734 58.1565 18.9145 58.2129C18.864 58.2612 18.7155 58.3259 18.5845 58.3568C18.4534 58.3877 18.3463 58.4728 18.3463 58.546C18.3463 58.6192 18.285 58.6791 18.2102 58.6791C18.1353 58.6791 18.0741 58.5618 18.0741 58.4183C18.0741 58.1197 17.9083 58.0936 17.2799 58.2938C17.0448 58.3687 16.7869 58.4041 16.7068 58.3725C16.5122 58.2957 15.9078 58.2341 15.4877 58.2483C15.3006 58.2547 15.0556 58.2572 14.9433 58.2539C14.6688 58.246 12.6364 58.2636 12.2661 58.2772C11.9444 58.2889 11.6533 58.4183 11.9486 58.4183C12.0483 58.4183 12.0959 58.4402 12.0539 58.4669C12.012 58.4937 11.7423 58.435 11.4547 58.3365C10.7783 58.1051 10.5341 58.105 10.6289 58.3364C10.6841 58.4714 10.6607 58.4933 10.5336 58.426C10.441 58.3769 10.0018 58.3099 9.55746 58.277C9.11315 58.2442 8.61794 58.1629 8.45705 58.0962C8.22033 57.9983 8.15241 57.9967 8.10204 58.088C8.05399 58.1754 7.9406 58.1646 7.60261 58.0405C7.36222 57.9521 7.12931 57.903 7.08494 57.9312C7.0407 57.9595 6.91901 57.9046 6.81446 57.8093C6.70992 57.714 6.55134 57.6348 6.46191 57.6333C6.2241 57.6293 5.8804 57.2879 5.7779 56.9541C5.70303 56.7102 5.73243 56.6559 5.96003 56.6179C6.29884 56.5613 6.2987 56.5008 5.95921 56.1148C5.80948 55.9446 5.69132 55.7575 5.6965 55.6993C5.70181 55.6409 5.7587 55.6715 5.82309 55.7671L5.94002 55.9409L5.97037 55.7671C5.98698 55.6715 6.00822 55.5541 6.01761 55.5063C6.02686 55.4585 6.0937 55.3607 6.16598 55.289C6.23826 55.2173 6.30932 54.963 6.32375 54.724C6.33831 54.4849 6.39058 54.1473 6.43999 53.9736C6.49553 53.7784 6.4728 53.6355 6.38065 53.599C6.17823 53.5192 6.19171 53.3766 6.40161 53.3765C6.52548 53.3764 6.58142 53.1119 6.60715 52.4045C6.63465 51.6475 6.69209 51.3976 6.86646 51.2745C7.026 51.162 7.04002 51.1165 6.91533 51.1165C6.73728 51.1165 6.74286 51.07 7.0279 50.1852C7.10359 49.9502 7.09705 49.8085 7.00953 49.7899C6.92159 49.7711 6.92826 49.6949 7.02818 49.5757C7.11352 49.4739 7.14606 49.3286 7.10059 49.2528C7.05499 49.177 7.08303 49.0648 7.16267 49.0034C7.24243 48.942 7.30872 48.8155 7.30995 48.722C7.31335 48.4699 7.47711 47.9562 7.58573 47.8568C7.73832 47.717 7.74431 47.2212 7.59417 47.1619C7.51849 47.132 7.45655 46.9535 7.45655 46.765C7.45655 46.5766 7.39162 46.4225 7.3124 46.4225C7.23318 46.4225 7.20677 46.3827 7.25373 46.3341C7.30083 46.2856 7.39625 46.2683 7.46594 46.2958C7.74023 46.404 7.57389 46.0762 7.29007 45.9493C6.98176 45.8114 7.08017 45.773 7.6444 45.8114C7.85253 45.8254 7.88438 45.7885 7.81551 45.6131C7.75629 45.4624 7.794 45.382 7.94074 45.346C8.09891 45.3072 8.14342 45.1817 8.12083 44.8371C8.10449 44.5855 8.02486 44.3509 7.94387 44.3158C7.84423 44.2726 7.85171 44.2516 7.96701 44.2506C8.06066 44.2499 8.13716 44.1515 8.13716 44.032C8.13716 43.9125 8.07591 43.8147 8.00104 43.8147C7.92617 43.8147 7.86492 43.7518 7.86492 43.675C7.86492 43.594 7.94155 43.5541 8.04718 43.58C8.18548 43.6139 8.2368 43.4964 8.25953 43.0945C8.27601 42.8029 8.33005 42.523 8.37959 42.4724C8.5424 42.3063 8.56799 42.1322 8.59167 41.033C8.60719 40.3111 8.6762 39.8777 8.79708 39.7415C8.92381 39.5989 8.93579 39.5089 8.83669 39.4456C8.73923 39.3834 8.73814 39.3026 8.83356 39.1888C8.91006 39.0975 8.95539 38.9176 8.93429 38.7892C8.91319 38.6606 8.94572 38.5041 9.00657 38.4411C9.06742 38.3782 9.08103 38.3036 9.03679 38.2753C8.99255 38.247 9.01855 38.176 9.09464 38.1174C9.1917 38.0427 9.17604 37.9969 9.04237 37.9642C8.8876 37.9263 8.88039 37.8587 9.00412 37.6063C9.08797 37.4352 9.20286 37.2952 9.25948 37.2952C9.43903 37.2952 9.37042 37.1142 9.13371 36.963C8.91986 36.8264 8.91986 36.8152 9.13371 36.789C9.25948 36.7735 9.36226 36.6867 9.36226 36.5961C9.36226 36.4854 9.29529 36.4477 9.15807 36.4814C9.04577 36.5089 8.95389 36.5072 8.95389 36.4774C8.95389 36.4007 9.26411 36.0624 9.45918 35.9265C9.57665 35.8447 9.58563 35.7467 9.49035 35.5866C9.40745 35.4474 9.40473 35.3242 9.483 35.2635C9.64498 35.1379 9.7973 34.2777 9.66581 34.2302C9.61122 34.2105 9.64988 34.2079 9.7517 34.2245C9.88932 34.2469 9.91355 34.195 9.8459 34.0229C9.78668 33.8721 9.81704 33.7655 9.93288 33.7177C10.0553 33.6672 10.0652 33.6238 9.96487 33.579C9.86128 33.5328 9.86713 33.3019 9.98488 32.7852C10.1411 32.1 10.1489 31.871 10.026 31.558C9.99781 31.4863 10.0491 31.4369 10.1401 31.4483C10.2356 31.4603 10.2725 31.4144 10.2276 31.3396C10.1848 31.2685 10.2176 31.2103 10.3005 31.2103C10.3935 31.2103 10.4512 31.016 10.4512 30.7033C10.4512 30.4243 10.4971 30.1668 10.5533 30.1309C10.6094 30.0951 10.669 29.805 10.6858 29.4863C10.7024 29.1675 10.742 28.5254 10.7737 28.0592C10.8054 27.593 10.7779 27.2117 10.7127 27.2117C10.5889 27.2117 10.8073 26.7706 10.9703 26.6919C11.3574 26.5047 11.4275 26.0275 11.1065 25.7641C11.0299 25.7012 11.0499 25.6446 11.1602 25.612C11.2991 25.5709 11.3004 25.5495 11.1659 25.5094C10.9366 25.4411 10.9509 25.2142 11.1951 25.0419C11.3676 24.9201 11.3687 24.8693 11.2032 24.6656C11.0979 24.536 11.0695 24.43 11.1399 24.43C11.3084 24.43 11.3063 23.4124 11.1378 23.3458C10.9903 23.2875 11.1075 23.0266 11.3223 22.9352C11.4094 22.8981 11.3714 22.8519 11.2243 22.8158C10.9999 22.7609 10.999 22.7463 11.2101 22.5973C11.4768 22.4092 11.3744 21.9961 11.0612 21.9961C10.9503 21.9961 10.8596 21.9582 10.8596 21.9118C10.8596 21.8656 10.9436 21.8483 11.0462 21.8734C11.1489 21.8985 11.2695 21.8582 11.3142 21.7837C11.365 21.699 11.3206 21.6484 11.1957 21.6484C10.9482 21.6484 10.9479 21.5655 11.1949 21.3573C11.3133 21.2576 11.3466 21.1298 11.2829 21.0198C11.2266 20.9225 11.2258 20.6623 11.281 20.4416C11.3363 20.2209 11.3494 19.9523 11.31 19.8446C11.2707 19.737 11.3 19.6491 11.375 19.6491C11.4623 19.6491 11.4704 19.5324 11.3971 19.3253C11.3172 19.0988 11.3317 18.9816 11.4456 18.9355C11.5688 18.8854 11.5663 18.8691 11.4355 18.868C11.3217 18.8671 11.2906 18.796 11.3442 18.6595C11.389 18.5456 11.3627 18.3069 11.2859 18.1291C11.1901 17.9077 11.1905 17.6529 11.287 17.3193C11.4114 16.8899 11.3995 16.8194 11.1857 16.7197C11.0469 16.6549 11.0157 16.6066 11.1125 16.6066C11.2284 16.6066 11.2718 16.4716 11.2508 16.1776C11.2339 15.9416 11.2857 15.6971 11.366 15.6343C11.524 15.5105 11.4858 14.8503 11.3021 14.5333C11.2388 14.4242 11.2462 14.1132 11.3187 13.8333C11.4873 13.1821 11.3871 13.0046 10.8953 13.0835L10.5251 13.1429L10.9128 12.9134C11.4892 12.5724 11.5749 12.1936 11.1868 11.7047C10.9349 11.3871 10.9102 11.3041 11.0684 11.3041C11.3012 11.3041 11.3353 11.0342 11.12 10.8967C11.0134 10.8286 11.0134 10.7858 11.12 10.7438C11.3359 10.6585 11.3008 10.3813 11.0541 10.2237C10.8596 10.0996 10.8596 10.0871 11.0541 10.0871C11.288 10.0871 11.3519 9.85868 11.1312 9.81174C11.0556 9.79566 10.9953 9.49124 10.9964 9.13076C10.9975 8.77227 10.9944 8.42031 10.9895 8.34859C10.9249 7.4083 10.8674 7.11423 10.6805 6.76809C10.5597 6.54425 10.4375 6.18855 10.4092 5.97767C10.3807 5.76678 10.3225 5.55798 10.2796 5.51365C10.2367 5.46941 10.2017 5.24453 10.2017 5.014C10.2017 4.50713 9.95384 4.08971 9.65206 4.08788C9.52043 4.0871 9.48749 4.06059 9.57093 4.02269C9.84263 3.89934 9.72148 3.40559 9.3824 3.25391C9.1431 3.1469 9.10648 3.09327 9.23757 3.04154C9.38023 2.98522 9.37995 2.94706 9.23566 2.83605C9.1382 2.76112 9.04414 2.57231 9.02672 2.41654C9.00535 2.22687 8.90121 2.10587 8.71119 2.05006C8.48345 1.98313 8.44344 1.91463 8.50809 1.70235C8.55247 1.55692 8.64013 1.42488 8.70302 1.40898C8.76591 1.39307 8.77966 1.28432 8.73365 1.16732C8.65265 0.961216 8.66763 0.956348 9.21035 1.01172C9.68323 1.06005 9.77062 1.0458 9.77062 0.920187C9.77062 0.838389 9.69412 0.788927 9.60047 0.810225C9.42297 0.850732 8.68165 0.64576 8.68165 0.556312C8.68165 0.528061 8.82635 0.522584 9.00317 0.544142C9.33694 0.584911 9.6345 0.392194 9.6345 0.135239C9.6345 -0.0237497 9.0455 -0.0329638 8.54661 0.118202ZM9.80384 0.322218C9.85407 0.802314 10.4311 1.1701 10.6338 0.851167C10.6873 0.766848 10.7318 0.769021 10.8328 0.86099C10.9425 0.961042 10.9735 0.961042 11.0317 0.86099C11.0843 0.770499 11.1487 0.782495 11.3039 0.911494C11.4949 1.07031 11.5277 1.07196 11.8457 0.938963C12.1065 0.829783 12.2211 0.820917 12.3454 0.900281C12.5598 1.03719 13.424 1.03484 13.5068 0.897064C13.5517 0.82222 13.6858 0.8556 13.9372 1.00451C14.37 1.26068 14.4802 1.27181 14.5716 1.06848C14.6093 0.984773 14.6815 0.852558 14.732 0.774585C14.8454 0.599515 14.2399 0.437657 13.2417 0.376026C12.8674 0.352903 12.5029 0.298835 12.4318 0.255807C12.3607 0.212691 12.1739 0.177485 12.0166 0.177485C11.8594 0.177485 11.6573 0.130545 11.5674 0.0731735C11.4404 -0.0079291 11.4022 0.0161499 11.3955 0.181832L11.3868 0.394802L11.2637 0.199217C11.1343 -0.00627744 10.5581 -0.081469 10.5976 0.112291C10.685 0.542143 10.3294 0.671316 10.179 0.264412C10.0467 -0.0933779 9.76491 -0.0500015 9.80384 0.322218ZM14.3988 0.348296C14.3988 0.394367 14.5213 0.473992 14.671 0.525192C14.9017 0.604035 14.9433 0.591257 14.9433 0.441308C14.9433 0.322393 14.8541 0.264412 14.671 0.264412C14.5213 0.264412 14.3988 0.302138 14.3988 0.348296ZM15.1819 0.424096C15.1451 0.513891 15.1713 0.651671 15.24 0.730165C15.3324 0.83552 15.3098 0.872899 15.1542 0.872899C14.9076 0.872899 14.8953 0.914102 15.0776 1.13159C15.2077 1.28684 15.6102 1.28928 15.9642 1.1369C16.2139 1.02937 16.849 1.04467 16.849 1.15819C16.849 1.29945 18.4943 1.50859 18.6787 1.39081C18.8765 1.2645 19.3807 1.29119 19.5714 1.43792C19.798 1.6123 19.9788 1.60273 19.9841 1.41619C19.9882 1.27128 19.997 1.27128 20.1692 1.41619C20.2762 1.50616 20.5308 1.56831 20.7925 1.56831H21.2351L20.9137 1.38785C20.7369 1.28858 20.6658 1.23104 20.7557 1.2599C20.934 1.31727 21.2612 1.00146 21.1465 0.882808C21.0318 0.764414 20.1544 0.704087 19.7155 0.784494C19.2146 0.876202 18.7502 0.807617 18.8416 0.655408C18.9233 0.519455 17.9702 0.503808 17.6997 0.636719C17.5886 0.691309 17.4652 0.686267 17.3443 0.622202C17.2425 0.568221 16.8115 0.508328 16.3865 0.489117C15.9616 0.469994 15.5317 0.41071 15.4314 0.357511C15.291 0.283101 15.2333 0.298574 15.1819 0.424096ZM11.0427 0.572393C10.9983 0.646194 10.9328 0.687919 10.8972 0.665144C10.8615 0.642369 10.8727 0.581955 10.9221 0.531016C11.0563 0.392281 11.1347 0.419228 11.0427 0.572393ZM12.2208 0.612119C12.2208 0.659928 12.1952 0.699045 12.1639 0.699045C12.1326 0.699045 12.0094 0.72295 11.89 0.752158C11.7313 0.791101 11.6958 0.767804 11.7575 0.665231C11.8488 0.513196 12.2208 0.470515 12.2208 0.612119ZM16.4406 0.612119C16.4406 0.659928 16.4136 0.699045 16.3806 0.699045C16.3475 0.699045 16.2827 0.659928 16.2364 0.612119C16.1901 0.564309 16.2172 0.525192 16.2964 0.525192C16.3757 0.525192 16.4406 0.564309 16.4406 0.612119ZM22.5661 1.02293C22.4538 1.05006 22.3162 1.12151 22.2601 1.18184C22.1411 1.30997 21.6177 1.24616 21.6037 1.10178C21.5948 1.01163 21.3727 1.27876 21.3505 1.40602C21.3349 1.49651 21.9077 1.58361 22.6601 1.60517C23.0486 1.6163 23.4468 1.66697 23.5449 1.71783C23.8538 1.87812 24.8328 1.83448 25.2131 1.64342C25.7383 1.37959 25.6633 1.22721 25.0163 1.24364C24.7168 1.25129 24.4718 1.29701 24.4718 1.34534C24.4718 1.39368 24.3739 1.34395 24.2544 1.23486C24.0836 1.07918 23.9551 1.04814 23.6548 1.09022C23.4398 1.12038 23.2336 1.1036 23.1835 1.05188C23.088 0.953132 22.8928 0.943918 22.5661 1.02293ZM26.0021 1.39307C25.7525 1.64828 25.7809 1.9474 26.0483 1.88186C26.1668 1.85282 26.3067 1.82909 26.3592 1.82909C26.5095 1.82909 26.4616 1.28215 26.3083 1.24938C26.2329 1.2333 26.095 1.29797 26.0021 1.39307ZM26.8539 1.39446C26.8076 1.44227 26.8653 1.48139 26.982 1.48139C27.0987 1.48139 27.1942 1.5205 27.1942 1.56831C27.1942 1.61612 27.2926 1.65524 27.413 1.65524C27.5566 1.65524 27.6033 1.60795 27.5491 1.51772C27.5036 1.44209 27.4665 1.36386 27.4665 1.34387C27.4665 1.26772 26.9341 1.31162 26.8539 1.39446ZM29.7197 1.474C29.6759 1.51929 29.698 1.57918 29.769 1.60717C29.8399 1.63516 29.9337 1.62099 29.9775 1.5757C30.0213 1.53041 29.9991 1.47052 29.9282 1.44253C29.8573 1.41454 29.7635 1.42871 29.7197 1.474ZM27.8748 1.59517C27.8748 1.65776 27.9655 1.78485 28.0764 1.87768C28.2437 2.01764 28.2995 2.02555 28.4042 1.92375C28.4846 1.84561 28.4738 1.74321 28.3741 1.64124C28.1938 1.45687 27.8748 1.4274 27.8748 1.59517ZM29.0999 1.74217C29.0999 1.78997 29.1648 1.82909 29.2441 1.82909C29.3233 1.82909 29.3504 1.78997 29.3041 1.74217C29.2578 1.69436 29.193 1.65524 29.16 1.65524C29.1269 1.65524 29.0999 1.69436 29.0999 1.74217ZM10.3832 28.6025C10.4295 28.6503 10.4024 28.6894 10.3231 28.6894C10.2439 28.6894 10.179 28.6503 10.179 28.6025C10.179 28.5547 10.2059 28.5156 10.239 28.5156C10.2721 28.5156 10.3369 28.5547 10.3832 28.6025ZM8.95389 31.9108C8.95389 31.9559 8.89264 31.9926 8.81777 31.9926C8.7429 31.9926 8.68165 31.9316 8.68165 31.8571C8.68165 31.7826 8.7429 31.7458 8.81777 31.7753C8.89264 31.8049 8.95389 31.8658 8.95389 31.9108ZM6.24833 52.0959C6.11385 52.1811 6.09833 52.1711 6.17211 52.0472C6.22329 51.9615 6.29938 51.9133 6.34131 51.94C6.38323 51.9667 6.34144 52.0369 6.24833 52.0959ZM4.59799 56.892C4.59799 56.9131 4.53674 56.9545 4.46187 56.9841C4.387 57.0136 4.32575 56.9963 4.32575 56.9457C4.32575 56.8951 4.387 56.8537 4.46187 56.8537C4.53674 56.8537 4.59799 56.8709 4.59799 56.892ZM4.87024 57.1528C4.87024 57.1739 4.80898 57.2153 4.73412 57.2448C4.65925 57.2744 4.59799 57.2571 4.59799 57.2065C4.59799 57.1559 4.65925 57.1144 4.73412 57.1144C4.80898 57.1144 4.87024 57.1316 4.87024 57.1528Z" fill="#FFFEFE"/>
<path fill-rule="evenodd" clip-rule="evenodd" d="M228.453 59.8818C228.64 59.8253 228.891 59.7204 229.011 59.6487C229.131 59.5769 229.39 59.4452 229.587 59.3558C229.861 59.2311 229.915 59.1587 229.819 59.0437C229.75 58.9613 229.604 58.7285 229.495 58.5262C229.321 58.2039 229.321 58.1645 229.495 58.2072C229.73 58.2647 229.633 58.1327 229.231 57.8473C229.081 57.7411 228.95 57.565 228.939 57.4561C228.907 57.1298 228.717 56.5829 228.519 56.2466C228.417 56.0728 228.368 55.9084 228.41 55.8813C228.55 55.792 228.324 55.4071 227.978 55.1445C227.7 54.933 227.675 54.8772 227.842 54.8362C228.088 54.7759 228.116 54.52 227.876 54.52C227.773 54.52 227.71 54.409 227.716 54.2375C227.721 54.0821 227.61 53.8284 227.468 53.6736C227.326 53.5189 227.227 53.3037 227.249 53.1955C227.271 53.0874 227.239 52.9473 227.178 52.8843C227.116 52.8214 227.102 52.7468 227.146 52.7184C227.191 52.6902 227.159 52.6146 227.075 52.5504C226.964 52.4646 226.964 52.4337 227.077 52.4337C227.269 52.4337 227.279 51.9373 227.088 51.8965C226.994 51.8766 227.008 51.7494 227.13 51.5199C227.231 51.3293 227.299 51.0364 227.282 50.8691C227.264 50.7017 227.246 50.5117 227.24 50.4468C227.233 50.3635 227.119 50.3446 226.855 50.3826L226.481 50.4365L226.889 50.21C227.14 50.0706 227.235 49.9677 227.135 49.9425C226.978 49.9031 227.003 49.0965 227.17 48.792C227.206 48.7253 227.128 48.5946 226.996 48.5016C226.767 48.3399 226.768 48.3272 227.012 48.2131C227.374 48.0442 227.35 47.4768 226.969 47.1835C226.819 47.0686 226.819 47.0203 226.966 46.907C227.179 46.7433 227.259 45.0672 227.058 44.9878C226.977 44.9556 226.98 44.916 227.066 44.8819C227.19 44.8331 227.278 44.3841 227.243 43.9801C227.235 43.8964 227.137 43.828 227.025 43.828C226.913 43.828 226.821 43.7693 226.821 43.6976C226.821 43.6259 226.913 43.5672 227.025 43.5672C227.281 43.5672 227.297 43.2306 227.044 43.1687C226.762 43.0997 226.736 41.9156 227.016 41.9156C227.142 41.9156 227.191 41.8656 227.143 41.7852C227.099 41.7135 227.13 41.6548 227.211 41.6548C227.379 41.6548 227.254 41.3863 227.035 41.2788C226.934 41.2289 226.941 41.1935 227.059 41.1629C227.273 41.1075 227.284 40.8725 227.072 40.8725C226.98 40.8725 227.01 40.8051 227.147 40.709C227.355 40.5618 227.357 40.5321 227.169 40.4117C227.036 40.3266 227.014 40.2665 227.109 40.2463C227.21 40.2247 227.188 40.1088 227.042 39.8855C226.856 39.6007 226.853 39.5312 227.018 39.367C227.123 39.2627 227.251 39.0307 227.302 38.8515C227.386 38.5589 227.366 38.5255 227.108 38.5255C226.794 38.5255 226.757 38.4637 226.954 38.2647C227.047 38.1714 227.022 38.1206 226.867 38.086C226.672 38.0421 226.672 38.0245 226.873 37.896C226.996 37.818 227.039 37.7321 226.971 37.7052C226.788 37.6331 226.957 37.3085 227.177 37.3085C227.415 37.3085 227.413 37.2914 227.141 36.927C226.933 36.648 226.933 36.6162 227.141 36.4834C227.317 36.3707 227.333 36.3023 227.215 36.162C227.102 36.0261 227.105 35.999 227.229 36.0481C227.355 36.0978 227.357 36.0695 227.235 35.9249C227.149 35.8217 227.122 35.6507 227.175 35.5449C227.229 35.4392 227.287 35.2366 227.305 35.0948C227.324 34.9529 227.406 34.8225 227.488 34.805C227.703 34.7593 227.673 34.6087 227.412 34.4251C227.203 34.277 227.203 34.2661 227.415 34.2661C227.59 34.2661 227.623 34.2157 227.558 34.0488C227.505 33.9149 227.53 33.8314 227.623 33.8314C227.706 33.8314 227.774 33.7141 227.774 33.5707C227.774 33.4272 227.722 33.3099 227.659 33.3099C227.595 33.3099 227.654 33.1045 227.79 32.8535C228.045 32.3828 228.012 31.8513 227.72 31.7218C227.617 31.6762 227.647 31.617 227.814 31.5355C227.988 31.4503 228.034 31.3523 227.972 31.1944C227.924 31.0725 227.93 30.9253 227.986 30.8673C228.042 30.8094 228.101 30.5255 228.116 30.2363C228.132 29.934 228.209 29.6967 228.299 29.6776C228.385 29.6594 228.454 29.5522 228.454 29.4396C228.454 29.3268 228.512 29.2121 228.581 29.1846C228.719 29.13 228.698 28.7973 228.546 28.6404C228.494 28.5863 228.528 28.4345 228.621 28.3033C228.759 28.1109 228.758 28.0574 228.617 28.0275C228.486 27.9995 228.481 27.9614 228.598 27.8713C228.683 27.8058 228.777 27.5651 228.807 27.3365C228.892 26.6833 228.962 26.4173 229.117 26.1631C229.23 25.9786 229.217 25.899 229.06 25.7986C228.89 25.6902 228.888 25.6595 229.048 25.6001C229.354 25.4867 229.397 24.8811 229.132 24.4261C228.904 24.0343 228.904 24.0117 229.142 23.8743C229.469 23.6855 229.727 23.2264 229.506 23.2264C229.418 23.2264 229.483 23.1655 229.649 23.0911C229.994 22.9369 230.053 22.7048 229.748 22.7048C229.488 22.7048 229.49 22.5553 229.754 22.2319C229.873 22.0861 229.969 21.7309 229.978 21.4061C229.989 20.9931 230.053 20.8074 230.211 20.7326C230.407 20.6394 230.402 20.6169 230.16 20.5023C229.933 20.3952 229.916 20.3432 230.047 20.171C230.305 19.833 230.384 19.4886 230.204 19.4886C230.115 19.4886 230.083 19.4628 230.132 19.4314C230.181 19.3999 230.148 19.3174 230.058 19.2481C229.927 19.1476 229.941 19.0999 230.127 19.0132C230.255 18.9533 230.36 18.8425 230.36 18.767C230.36 18.6913 230.411 18.6095 230.473 18.5849C230.603 18.5337 230.573 17.9144 230.422 17.5409C230.349 17.3596 230.377 17.2613 230.522 17.1932C230.794 17.0649 230.933 16.4787 230.726 16.3381C230.531 16.2066 230.478 15.9246 230.648 15.9246C230.714 15.9246 230.769 15.8659 230.769 15.7942C230.769 15.7225 230.862 15.6638 230.976 15.6638C231.153 15.6638 231.176 15.5117 231.13 14.6186C231.101 14.0436 231.122 13.5556 231.177 13.534C231.332 13.4726 231.474 12.7476 231.515 11.8071C231.541 11.2233 231.608 10.9274 231.728 10.8803C231.843 10.8347 231.895 10.6381 231.879 10.3037C231.866 10.0234 231.935 9.69896 232.033 9.57891C232.157 9.42818 232.174 9.28171 232.09 9.10081C232.023 8.95739 231.918 8.73242 231.856 8.60099C231.792 8.46277 231.797 8.36194 231.869 8.36194C231.938 8.36194 231.994 8.24937 231.994 8.11176C231.994 7.97425 232.093 7.80909 232.214 7.74485C232.39 7.6514 232.418 7.52744 232.352 7.12575C232.285 6.71589 232.307 6.62341 232.472 6.62341C232.699 6.62341 232.747 6.40174 232.538 6.31916C232.324 6.23467 232.379 5.92817 232.619 5.8694C232.79 5.82733 232.817 5.73927 232.748 5.4452C232.697 5.22684 232.718 5.05186 232.799 5.01987C232.889 4.98423 232.891 4.89017 232.805 4.7457C232.64 4.46788 232.638 4.33879 232.801 4.40303C233.055 4.50343 233.07 4.29368 232.822 4.1107C232.58 3.93285 232.574 3.58097 232.813 3.58097C232.945 3.58097 232.81 2.85939 232.668 2.79863C232.611 2.77473 232.544 2.65738 232.518 2.53785C232.483 2.37756 232.399 2.32723 232.198 2.34592C231.976 2.36652 231.963 2.35513 232.129 2.28437C232.305 2.20866 232.297 2.16076 232.067 1.91129C231.922 1.75395 231.693 1.54932 231.558 1.45657C231.423 1.36391 231.313 1.25942 231.313 1.22448C231.313 1.18945 231.125 1.13451 230.895 1.10226C230.666 1.0701 230.445 0.988731 230.404 0.921539C230.359 0.845478 230.131 0.79932 229.801 0.79932C229.51 0.79932 229.271 0.760201 229.271 0.712391C229.271 0.595997 228.631 0.60078 228.517 0.718044C228.458 0.779327 228.347 0.763943 228.188 0.672493C228.053 0.594349 227.85 0.558704 227.72 0.590435C227.585 0.623554 227.378 0.581043 227.215 0.486557C226.921 0.316788 226.494 0.277847 226.115 0.386333C225.988 0.422493 225.847 0.412842 225.8 0.364944C225.669 0.229427 225.402 0.261417 225.084 0.450657C224.812 0.612514 224.371 0.610691 224.371 0.447704C224.371 0.407978 224.264 0.372421 224.133 0.368595C221.437 0.291058 220.52 0.286713 220.676 0.352257C220.79 0.400066 220.808 0.450573 220.724 0.483692C220.649 0.513332 220.554 0.480824 220.512 0.411453C220.462 0.328526 220.236 0.284977 219.851 0.284279C217.986 0.281063 217.656 0.268459 217.432 0.191963C217.252 0.130592 217.138 0.143806 217.013 0.24012C216.918 0.312965 216.76 0.352951 216.662 0.328873C216.564 0.304794 216.39 0.344955 216.276 0.41806C216.161 0.491165 216.067 0.518806 216.067 0.479515C216.066 0.440311 215.878 0.339996 215.649 0.256809C215.263 0.116249 215.202 0.115471 214.808 0.245773C214.483 0.352867 214.326 0.363293 214.141 0.289841C214.009 0.2369 213.812 0.21526 213.704 0.241596C213.597 0.268021 213.468 0.247856 213.419 0.196743C213.319 0.0940819 212.11 0.0855637 211.575 0.183792C211.379 0.219955 210.948 0.192135 210.554 0.117813C209.986 0.0104561 209.136 -0.0198784 207.59 0.0120239C206.769 0.0288887 207.66 0.738731 208.626 0.837307C208.922 0.867558 209.334 0.969173 209.54 1.06314C209.951 1.24986 210.214 1.28263 210.214 1.14703C210.214 1.0222 210.531 1.03985 210.981 1.18997C211.196 1.26134 211.468 1.32001 211.587 1.32036C211.705 1.32062 211.848 1.35017 211.904 1.38607C211.96 1.42189 212.17 1.46005 212.369 1.47074C212.569 1.48143 212.993 1.5149 213.311 1.54506C213.801 1.59157 213.889 1.57705 213.889 1.44979C213.889 1.34156 213.937 1.32375 214.06 1.38581C214.633 1.6765 216.204 1.71735 216.204 1.44162C216.204 1.28124 216.341 1.2888 216.537 1.46005C216.625 1.53663 216.89 1.60895 217.126 1.62086C217.362 1.63277 217.654 1.69466 217.775 1.75855C217.916 1.83331 218.027 1.84348 218.086 1.78706C218.136 1.73882 218.285 1.67415 218.415 1.6432C218.547 1.61235 218.654 1.52724 218.654 1.45396C218.654 1.38077 218.715 1.32088 218.79 1.32088C218.865 1.32088 218.926 1.43823 218.926 1.58166C218.926 1.88034 219.092 1.90641 219.72 1.70622C219.955 1.63129 220.213 1.59591 220.293 1.62747C220.488 1.70431 221.092 1.76586 221.512 1.75169C221.699 1.74534 221.944 1.74282 222.057 1.74613C222.331 1.75404 224.364 1.73639 224.734 1.72283C225.056 1.71109 225.347 1.58166 225.051 1.58166C224.952 1.58166 224.904 1.55975 224.946 1.53307C224.988 1.50629 225.258 1.56497 225.545 1.66346C226.222 1.89494 226.466 1.89503 226.371 1.66363C226.316 1.52863 226.339 1.50673 226.466 1.57401C226.559 1.62312 226.998 1.69014 227.443 1.723C227.887 1.75577 228.382 1.83714 228.543 1.90381C228.78 2.00169 228.848 2.00325 228.898 1.91198C228.946 1.82462 229.059 1.8354 229.397 1.95953C229.638 2.04793 229.871 2.09705 229.915 2.0688C229.959 2.04055 230.081 2.09539 230.186 2.19067C230.29 2.28603 230.449 2.36522 230.538 2.3667C230.776 2.37069 231.12 2.71205 231.222 3.04594C231.297 3.28976 231.268 3.34409 231.04 3.38208C230.701 3.43867 230.701 3.49917 231.041 3.88522C231.191 4.05542 231.309 4.24249 231.304 4.30073C231.298 4.35905 231.241 4.32854 231.177 4.23292L231.06 4.05907L231.03 4.23292C231.013 4.32854 230.992 4.44589 230.982 4.4937C230.973 4.54151 230.906 4.63931 230.834 4.71102C230.762 4.78273 230.691 5.03699 230.676 5.27604C230.662 5.51509 230.609 5.85271 230.56 6.02639C230.504 6.22163 230.527 6.36454 230.619 6.40096C230.822 6.48084 230.808 6.6234 230.598 6.62349C230.475 6.62358 230.419 6.8881 230.393 7.5955C230.365 8.35255 230.308 8.60238 230.134 8.72546C229.974 8.83804 229.96 8.8835 230.085 8.8835C230.263 8.8835 230.257 8.93 229.972 9.81483C229.896 10.0498 229.903 10.1915 229.99 10.2101C230.078 10.2289 230.072 10.3051 229.972 10.4243C229.886 10.5261 229.854 10.6714 229.899 10.7472C229.945 10.823 229.917 10.9352 229.837 10.9966C229.758 11.058 229.691 11.1845 229.69 11.278C229.687 11.5301 229.523 12.0438 229.414 12.1432C229.262 12.283 229.256 12.7788 229.406 12.8381C229.482 12.868 229.543 13.0465 229.543 13.235C229.543 13.4234 229.608 13.5775 229.688 13.5775C229.767 13.5775 229.793 13.6173 229.746 13.6659C229.699 13.7144 229.604 13.7317 229.534 13.7042C229.26 13.596 229.426 13.9238 229.71 14.0507C230.018 14.1886 229.92 14.227 229.356 14.1886C229.147 14.1746 229.116 14.2115 229.184 14.3869C229.244 14.5376 229.206 14.618 229.059 14.654C228.901 14.6928 228.857 14.8183 228.879 15.1629C228.896 15.4145 228.975 15.6491 229.056 15.6842C229.156 15.7274 229.148 15.7484 229.033 15.7494C228.939 15.7501 228.863 15.8485 228.863 15.968C228.863 16.0875 228.924 16.1853 228.999 16.1853C229.074 16.1853 229.135 16.2482 229.135 16.325C229.135 16.406 229.058 16.4459 228.953 16.42C228.815 16.3861 228.763 16.5036 228.74 16.9055C228.724 17.1971 228.67 17.477 228.62 17.5276C228.458 17.6937 228.432 17.8678 228.408 18.967C228.393 19.6889 228.324 20.1223 228.203 20.2585C228.076 20.4011 228.064 20.4911 228.163 20.5544C228.261 20.6166 228.262 20.6974 228.166 20.8112C228.09 20.9025 228.045 21.0824 228.066 21.2108C228.087 21.3394 228.054 21.4959 227.993 21.5589C227.933 21.6218 227.919 21.6964 227.963 21.7247C228.007 21.753 227.981 21.824 227.905 21.8826C227.808 21.9573 227.824 22.0031 227.958 22.0358C228.112 22.0737 228.12 22.1413 227.996 22.3937C227.912 22.5648 227.797 22.7048 227.741 22.7048C227.561 22.7048 227.63 22.8858 227.866 23.037C228.08 23.1736 228.08 23.1848 227.866 23.211C227.741 23.2265 227.638 23.3133 227.638 23.4039C227.638 23.5146 227.705 23.5523 227.842 23.5186C227.954 23.4911 228.046 23.4928 228.046 23.5226C228.046 23.5993 227.736 23.9376 227.541 24.0735C227.423 24.1553 227.414 24.2533 227.51 24.4134C227.593 24.5526 227.595 24.6758 227.517 24.7365C227.355 24.8621 227.203 25.7223 227.334 25.7698C227.389 25.7895 227.35 25.7921 227.248 25.7755C227.111 25.7531 227.086 25.805 227.154 25.9771C227.213 26.1279 227.183 26.2345 227.067 26.2823C226.945 26.3328 226.935 26.3762 227.035 26.421C227.139 26.4672 227.133 26.6981 227.015 27.2148C226.859 27.9 226.851 28.129 226.974 28.442C227.002 28.5137 226.951 28.5631 226.86 28.5517C226.764 28.5397 226.727 28.5856 226.772 28.6604C226.815 28.7315 226.782 28.7897 226.699 28.7897C226.606 28.7897 226.549 28.984 226.549 29.2967C226.549 29.5757 226.503 29.8332 226.447 29.8691C226.391 29.9049 226.331 30.195 226.314 30.5137C226.298 30.8325 226.258 31.4746 226.226 31.9408C226.195 32.407 226.222 32.7883 226.287 32.7883C226.411 32.7883 226.193 33.2294 226.03 33.3081C225.643 33.4953 225.573 33.9725 225.893 34.2359C225.97 34.2988 225.95 34.3554 225.84 34.388C225.701 34.4291 225.7 34.4505 225.834 34.4906C226.063 34.5589 226.049 34.7858 225.805 34.9581C225.632 35.0799 225.631 35.1307 225.797 35.3344C225.902 35.464 225.931 35.57 225.86 35.57C225.692 35.57 225.694 36.5876 225.862 36.6542C226.01 36.7125 225.893 36.9734 225.678 37.0648C225.591 37.1019 225.629 37.1481 225.776 37.1842C226 37.2391 226.001 37.2537 225.79 37.4027C225.523 37.5908 225.626 38.0039 225.939 38.0039C226.05 38.0039 226.14 38.0418 226.14 38.0882C226.14 38.1344 226.056 38.1517 225.954 38.1266C225.851 38.1015 225.731 38.1418 225.686 38.2163C225.635 38.301 225.679 38.3516 225.804 38.3516C226.052 38.3516 226.052 38.4345 225.805 38.6427C225.687 38.7424 225.653 38.8702 225.717 38.9802C225.773 39.0775 225.774 39.3377 225.719 39.5584C225.664 39.7791 225.651 40.0477 225.69 40.1554C225.729 40.263 225.7 40.3509 225.625 40.3509C225.538 40.3509 225.53 40.4676 225.603 40.6747C225.683 40.9012 225.668 41.0184 225.554 41.0645C225.431 41.1146 225.434 41.1309 225.564 41.132C225.678 41.1329 225.709 41.204 225.656 41.3405C225.611 41.4544 225.637 41.6931 225.714 41.8709C225.81 42.0923 225.809 42.3471 225.713 42.6807C225.589 43.1101 225.601 43.1806 225.814 43.2803C225.953 43.3451 225.984 43.3934 225.887 43.3934C225.772 43.3934 225.728 43.5284 225.749 43.8224C225.766 44.0584 225.714 44.3029 225.634 44.3657C225.476 44.4895 225.514 45.1497 225.698 45.4667C225.761 45.5758 225.754 45.8868 225.681 46.1667C225.513 46.8179 225.613 46.9954 226.105 46.9165L226.475 46.8571L226.087 47.0866C225.511 47.4276 225.425 47.8064 225.813 48.2953C226.065 48.6129 226.09 48.6959 225.932 48.6959C225.699 48.6959 225.665 48.9658 225.88 49.1033C225.987 49.1714 225.987 49.2142 225.88 49.2562C225.664 49.3415 225.699 49.6187 225.946 49.7763C226.14 49.9004 226.14 49.9129 225.946 49.9129C225.712 49.9129 225.648 50.1413 225.869 50.1883C225.944 50.2043 226.005 50.5088 226.004 50.8692C226.003 51.2277 226.006 51.5797 226.011 51.6514C226.075 52.5917 226.133 52.8858 226.32 53.2319C226.44 53.4557 226.563 53.8114 226.591 54.0223C226.619 54.2332 226.678 54.442 226.72 54.4863C226.763 54.5306 226.798 54.7555 226.798 54.986C226.798 55.4929 227.046 55.9103 227.348 55.9121C227.48 55.9129 227.513 55.9394 227.429 55.9773C227.157 56.1007 227.279 56.5944 227.618 56.7461C227.857 56.8531 227.894 56.9067 227.762 56.9585C227.62 57.0148 227.62 57.0529 227.764 57.1639C227.862 57.2389 227.956 57.4277 227.973 57.5835C227.995 57.7731 228.099 57.8941 228.289 57.9499C228.517 58.0169 228.557 58.0854 228.492 58.2976C228.448 58.4431 228.36 58.5751 228.297 58.591C228.234 58.6069 228.22 58.7157 228.266 58.8327C228.347 59.0388 228.332 59.0437 227.79 58.9883C227.317 58.9399 227.229 58.9542 227.229 59.0798C227.229 59.1616 227.306 59.2111 227.4 59.1898C227.577 59.1493 228.318 59.3542 228.318 59.4437C228.318 59.4719 228.174 59.4774 227.997 59.4559C227.663 59.4151 227.365 59.6078 227.365 59.8648C227.365 60.0237 227.954 60.033 228.453 59.8818ZM227.196 59.6778C227.146 59.1977 226.569 58.8299 226.366 59.1488C226.313 59.2332 226.268 59.231 226.167 59.139C226.058 59.039 226.026 59.039 225.968 59.139C225.916 59.2295 225.851 59.2175 225.696 59.0885C225.505 58.9297 225.472 58.928 225.154 59.061C224.894 59.1702 224.779 59.1791 224.655 59.0997C224.44 58.9628 223.576 58.9652 223.493 59.1029C223.448 59.1778 223.314 59.1444 223.063 58.9955C222.63 58.7393 222.52 58.7282 222.428 58.9315C222.391 59.0152 222.319 59.1474 222.268 59.2254C222.155 59.4005 222.76 59.5623 223.758 59.624C224.133 59.6471 224.497 59.7012 224.568 59.7442C224.639 59.7873 224.826 59.8225 224.983 59.8225C225.141 59.8225 225.343 59.8695 225.433 59.9268C225.56 60.0079 225.598 59.9839 225.604 59.8182L225.613 59.6052L225.736 59.8008C225.866 60.0063 226.442 60.0815 226.402 59.8877C226.315 59.4579 226.671 59.3287 226.821 59.7356C226.953 60.0934 227.235 60.05 227.196 59.6778ZM222.601 59.6517C222.601 59.6056 222.479 59.526 222.329 59.4748C222.098 59.396 222.057 59.4087 222.057 59.5587C222.057 59.6776 222.146 59.7356 222.329 59.7356C222.479 59.7356 222.601 59.6979 222.601 59.6517ZM221.818 59.5759C221.855 59.4861 221.829 59.3483 221.76 59.2698C221.668 59.1645 221.69 59.1271 221.846 59.1271C222.092 59.1271 222.105 59.0859 221.922 58.8684C221.792 58.7132 221.39 58.7107 221.036 58.8631C220.786 58.9706 220.151 58.9553 220.151 58.8418C220.151 58.7006 218.506 58.4914 218.321 58.6092C218.124 58.7355 217.619 58.7088 217.429 58.5621C217.202 58.3877 217.021 58.3973 217.016 58.5838C217.012 58.7287 217.003 58.7287 216.831 58.5838C216.724 58.4938 216.469 58.4317 216.207 58.4317H215.765L216.086 58.6121C216.263 58.7114 216.334 58.769 216.244 58.7401C216.066 58.6827 215.739 58.9985 215.854 59.1172C215.968 59.2356 216.846 59.2959 217.284 59.2155C217.785 59.1238 218.25 59.1924 218.158 59.3446C218.077 59.4805 219.03 59.4962 219.3 59.3633C219.411 59.3087 219.535 59.3137 219.656 59.3778C219.758 59.4318 220.188 59.4917 220.613 59.5109C221.038 59.53 221.468 59.5893 221.569 59.6425C221.709 59.7169 221.767 59.7014 221.818 59.5759ZM225.957 59.4276C226.002 59.3538 226.067 59.3121 226.103 59.3349C226.138 59.3576 226.127 59.418 226.078 59.469C225.944 59.6077 225.865 59.5808 225.957 59.4276ZM224.779 59.3879C224.779 59.3401 224.805 59.301 224.836 59.301C224.867 59.301 224.991 59.277 225.11 59.2478C225.269 59.2089 225.304 59.2322 225.243 59.3348C225.151 59.4868 224.779 59.5295 224.779 59.3879ZM220.559 59.3879C220.559 59.3401 220.586 59.301 220.619 59.301C220.653 59.301 220.717 59.3401 220.764 59.3879C220.81 59.4357 220.783 59.4748 220.704 59.4748C220.624 59.4748 220.559 59.4357 220.559 59.3879ZM214.434 58.9771C214.546 58.9499 214.684 58.8785 214.74 58.8182C214.859 58.69 215.382 58.7538 215.396 58.8982C215.405 58.9884 215.627 58.7212 215.649 58.594C215.665 58.5035 215.092 58.4164 214.34 58.3948C213.951 58.3837 213.553 58.333 213.455 58.2822C213.146 58.1219 212.167 58.1655 211.787 58.3566C211.262 58.6204 211.337 58.7728 211.984 58.7564C212.283 58.7487 212.528 58.703 212.528 58.6547C212.528 58.6063 212.626 58.656 212.746 58.7651C212.916 58.9208 213.045 58.9519 213.345 58.9098C213.56 58.8796 213.766 58.8964 213.816 58.9481C213.912 59.0469 214.107 59.0561 214.434 58.9771ZM210.998 58.6069C211.247 58.3517 211.219 58.0526 210.952 58.1181C210.833 58.1472 210.693 58.1709 210.641 58.1709C210.49 58.1709 210.538 58.7179 210.692 58.7506C210.767 58.7667 210.905 58.702 210.998 58.6069ZM210.146 58.6055C210.192 58.5577 210.135 58.5186 210.018 58.5186C209.901 58.5186 209.806 58.4795 209.806 58.4317C209.806 58.3839 209.707 58.3448 209.587 58.3448C209.443 58.3448 209.397 58.392 209.451 58.4823C209.496 58.5579 209.534 58.6361 209.534 58.6561C209.534 58.7323 210.066 58.6884 210.146 58.6055ZM207.28 58.526C207.324 58.4807 207.302 58.4208 207.231 58.3928C207.16 58.3648 207.066 58.379 207.023 58.4243C206.979 58.4696 207.001 58.5295 207.072 58.5575C207.143 58.5855 207.236 58.5713 207.28 58.526ZM209.125 58.4048C209.125 58.3422 209.035 58.2152 208.924 58.1223C208.756 57.9824 208.7 57.9745 208.596 58.0762C208.515 58.1544 208.526 58.2568 208.626 58.3588C208.806 58.5431 209.125 58.5726 209.125 58.4048ZM207.9 58.2578C207.9 58.21 207.835 58.1709 207.756 58.1709C207.677 58.1709 207.65 58.21 207.696 58.2578C207.742 58.3056 207.807 58.3448 207.84 58.3448C207.873 58.3448 207.9 58.3056 207.9 58.2578ZM226.617 31.3975C226.571 31.3497 226.598 31.3106 226.677 31.3106C226.756 31.3106 226.821 31.3497 226.821 31.3975C226.821 31.4453 226.794 31.4844 226.761 31.4844C226.728 31.4844 226.663 31.4453 226.617 31.3975ZM228.046 28.0892C228.046 28.0441 228.107 28.0074 228.182 28.0074C228.257 28.0074 228.318 28.0684 228.318 28.1429C228.318 28.2174 228.257 28.2542 228.182 28.2247C228.107 28.1951 228.046 28.1342 228.046 28.0892ZM230.752 7.90409C230.886 7.8189 230.902 7.82891 230.828 7.95278C230.777 8.03849 230.701 8.08673 230.659 8.05996C230.617 8.03327 230.659 7.96312 230.752 7.90409ZM232.402 3.10801C232.402 3.08688 232.463 3.04551 232.538 3.01595C232.613 2.98639 232.674 3.00369 232.674 3.05428C232.674 3.10487 232.613 3.14634 232.538 3.14634C232.463 3.14634 232.402 3.12913 232.402 3.10801ZM232.13 2.84723C232.13 2.8261 232.191 2.78473 232.266 2.75517C232.341 2.72561 232.402 2.74291 232.402 2.7935C232.402 2.84409 232.341 2.88556 232.266 2.88556C232.191 2.88556 232.13 2.86835 232.13 2.84723Z" fill="#FFFEFE"/>
<path d="M80.9141 23.6406C80.9141 24.5312 80.7969 25.3516 80.5625 26.1016C80.3281 26.8516 80.0234 27.5703 79.6484 28.2578C79.2891 28.9453 78.8984 29.625 78.4766 30.2969C78.0547 30.9688 77.6562 31.6797 77.2812 32.4297C77.1875 32.4297 77.1172 32.4531 77.0703 32.5C77.0391 32.5469 77.0078 32.6094 76.9766 32.6875C76.9609 32.75 76.9297 32.8125 76.8828 32.875C76.8516 32.9219 76.7891 32.9453 76.6953 32.9453C76.5547 33.2891 76.375 33.6172 76.1562 33.9297C75.9375 34.2266 75.7031 34.5234 75.4531 34.8203C75.2188 35.1016 74.9844 35.3906 74.75 35.6875C74.5312 35.9844 74.3359 36.3047 74.1641 36.6484H73.9297C73.0859 37.8672 72.1328 38.9609 71.0703 39.9297C70.0234 40.8984 68.875 41.7656 67.625 42.5312C67.5938 42.625 67.5469 42.7031 67.4844 42.7656C67.4219 42.8281 67.4062 42.9141 67.4375 43.0234C67.2656 43.1172 67.1172 43.2344 66.9922 43.375C66.8828 43.5312 66.7734 43.6875 66.6641 43.8438C66.5547 44 66.4375 44.1484 66.3125 44.2891C66.2031 44.4453 66.0547 44.5625 65.8672 44.6406C65.6328 44.5938 65.4062 44.5547 65.1875 44.5234C64.9844 44.4922 64.7734 44.4688 64.5547 44.4531C64.4609 44.4531 64.3672 44.4531 64.2734 44.4531C64.1797 44.4688 64.0938 44.4688 64.0156 44.4531C63.8438 44.4219 63.6953 44.3516 63.5703 44.2422C63.4609 44.1484 63.2969 44.1016 63.0781 44.1016C62.9688 44.1016 62.8828 44.1094 62.8203 44.125C62.6953 43.9062 62.5469 43.6797 62.375 43.4453C62.2188 43.2266 62.1406 42.9844 62.1406 42.7188C62.1406 42.5156 62.1641 42.3281 62.2109 42.1562C62.2734 41.9844 62.3047 41.8047 62.3047 41.6172C62.3047 41.2422 62.2344 40.875 62.0938 40.5156C61.9688 40.1562 61.9062 39.7891 61.9062 39.4141C61.9062 39.2891 61.9219 39.1719 61.9531 39.0625C61.9844 38.9375 62 38.8125 62 38.6875C62 38.5469 61.9375 38.4219 61.8125 38.3125C61.8281 38.2344 61.8594 38.1562 61.9062 38.0781C61.9531 38 61.9766 37.9141 61.9766 37.8203C62.0078 37.6953 62.0156 37.5625 62 37.4219C61.9844 37.2656 61.9766 37.125 61.9766 37C61.9766 36.6719 61.9922 36.3438 62.0234 36.0156C62.0547 35.6875 62.125 35.3672 62.2344 35.0547C62.2188 34.9609 62.1953 34.875 62.1641 34.7969L62.0703 34.5625C62.1797 34.2344 62.25 33.8672 62.2812 33.4609C62.3125 33.0547 62.3281 32.6484 62.3281 32.2422V31C62.3281 30.5938 62.3516 30.2109 62.3984 29.8516C62.4297 29.6953 62.4609 29.5469 62.4922 29.4062C62.5391 29.25 62.5625 29.1016 62.5625 28.9609C62.5625 28.8359 62.5391 28.7266 62.4922 28.6328C62.4453 28.5234 62.3828 28.4219 62.3047 28.3281C62.4141 28.2969 62.4766 28.2344 62.4922 28.1406C62.5078 28.0312 62.5156 27.9375 62.5156 27.8594C62.5156 27.6406 62.4766 27.3984 62.3984 27.1328C62.4609 26.8672 62.5 26.6016 62.5156 26.3359C62.5312 26.0547 62.5391 25.7812 62.5391 25.5156C62.5391 24.5781 62.4766 23.6562 62.3516 22.75C62.2422 21.8438 62.1719 20.9297 62.1406 20.0078H62.0703C61.9609 20.0078 61.875 20.0312 61.8125 20.0781C61.75 20.125 61.6875 20.1797 61.625 20.2422C61.5625 20.2891 61.4922 20.3359 61.4141 20.3828C61.3359 20.4141 61.2422 20.4219 61.1328 20.4062C60.9453 20.625 60.7266 20.8125 60.4766 20.9688C60.2422 21.125 59.9922 21.2656 59.7266 21.3906C59.4609 21.5156 59.1875 21.6328 58.9062 21.7422C58.625 21.8359 58.3594 21.9297 58.1094 22.0234C57.8906 21.9453 57.7031 21.8203 57.5469 21.6484C57.3906 21.4609 57.2422 21.2734 57.1016 21.0859C57.0859 21.0234 57.0781 20.9609 57.0781 20.8984V20.7109C57.0781 20.2734 57.1797 19.9453 57.3828 19.7266C57.5859 19.4922 57.8047 19.2188 58.0391 18.9062H58.1562C58.2344 18.9062 58.3047 18.9219 58.3672 18.9531C58.4141 18.9844 58.4766 19 58.5547 19H58.625C59.0781 18.625 59.5547 18.3281 60.0547 18.1094C60.5703 17.875 61.1016 17.6953 61.6484 17.5703C61.8828 17.3359 62.1172 17.1562 62.3516 17.0312C62.6016 16.9062 62.8906 16.8438 63.2188 16.8438C63.2969 16.8438 63.3828 16.8516 63.4766 16.8672C63.5859 16.8672 63.6797 16.875 63.7578 16.8906C64.3984 16.5938 65 16.3438 65.5625 16.1406C66.1406 15.9219 66.8047 15.8125 67.5547 15.8125C67.6484 15.8125 67.7109 15.7891 67.7422 15.7422C67.7891 15.6953 67.8281 15.6484 67.8594 15.6016C67.8906 15.5391 67.9219 15.4844 67.9531 15.4375C67.9844 15.3906 68.0391 15.3672 68.1172 15.3672C68.1172 15.3984 68.125 15.4453 68.1406 15.5078C68.1562 15.5703 68.1953 15.6016 68.2578 15.6016C68.3203 15.6016 68.375 15.5859 68.4219 15.5547C68.4844 15.5078 68.5547 15.4844 68.6328 15.4844C68.7109 15.4844 68.7656 15.5391 68.7969 15.6484C68.9688 15.5391 69.1328 15.4375 69.2891 15.3438C69.4453 15.25 69.6172 15.1797 69.8047 15.1328C70.0391 15.1797 70.2734 15.2188 70.5078 15.25C70.7578 15.2812 71.0078 15.2969 71.2578 15.2969C71.4453 15.2969 71.6328 15.2891 71.8203 15.2734C72.0078 15.2422 72.1719 15.1641 72.3125 15.0391C72.375 15.0234 72.4062 15.0547 72.4062 15.1328C72.5469 15.2578 72.6953 15.3438 72.8516 15.3906C73.0078 15.4219 73.1719 15.4453 73.3438 15.4609C73.5156 15.4609 73.6875 15.4687 73.8594 15.4844C74.0312 15.5 74.1875 15.5547 74.3281 15.6484C74.4531 15.6797 74.5547 15.7344 74.6328 15.8125C74.7109 15.875 74.8125 15.9297 74.9375 15.9766C75.0312 16.0078 75.1562 16.0312 75.3125 16.0469C75.4844 16.0625 75.6094 16.0938 75.6875 16.1406C75.7656 16.1719 75.8047 16.2266 75.8047 16.3047C75.8203 16.3672 75.8672 16.4219 75.9453 16.4688C76.0859 16.5781 76.2734 16.6484 76.5078 16.6797C76.7422 16.6953 76.9453 16.7656 77.1172 16.8906C77.1797 17.2344 77.3516 17.4609 77.6328 17.5703C77.9141 17.6797 78.1875 17.7891 78.4531 17.8984C78.5469 17.9922 78.5781 18.1016 78.5469 18.2266C78.7344 18.3672 78.8984 18.5234 79.0391 18.6953C79.1953 18.8672 79.3359 19.0547 79.4609 19.2578C79.6016 19.4453 79.7344 19.6328 79.8594 19.8203C79.9844 20.0078 80.1328 20.1797 80.3047 20.3359C80.2891 20.4766 80.3047 20.5859 80.3516 20.6641C80.4141 20.7422 80.4297 20.8594 80.3984 21.0156C80.5859 21.1875 80.7578 21.4141 80.9141 21.6953C80.8203 21.8359 80.7734 21.9922 80.7734 22.1641C80.7734 22.3203 80.7969 22.4766 80.8438 22.6328C80.8906 22.7891 80.9141 22.9453 80.9141 23.1016V23.6406ZM78.7344 23.125C78.7344 22.6719 78.6484 22.2344 78.4766 21.8125C78.3047 21.375 78.1562 20.9453 78.0312 20.5234C77.8281 20.5234 77.6953 20.4531 77.6328 20.3125C77.5859 20.1562 77.4922 20.0234 77.3516 19.9141C77.0547 19.8516 76.8672 19.625 76.7891 19.2344C76.4766 19.1094 76.1562 18.9688 75.8281 18.8125C75.5 18.6562 75.2266 18.4375 75.0078 18.1562C74.4453 17.9844 73.875 17.8125 73.2969 17.6406C72.7344 17.4531 72.1562 17.3594 71.5625 17.3594C71.4531 17.3594 71.3516 17.3672 71.2578 17.3828C71.1797 17.3828 71.1016 17.3828 71.0234 17.3828C70.8984 17.3828 70.7656 17.4062 70.625 17.4531C70.4844 17.5 70.3516 17.5234 70.2266 17.5234C70.0859 17.5234 69.9453 17.4766 69.8047 17.3828C69.4922 17.5547 69.1484 17.6875 68.7734 17.7812C68.4141 17.875 68.0469 17.9609 67.6719 18.0391C67.2969 18.1016 66.9297 18.1875 66.5703 18.2969C66.2109 18.3906 65.8906 18.5391 65.6094 18.7422C65.5156 18.7109 65.4219 18.6875 65.3281 18.6719C65.25 18.6562 65.1719 18.6484 65.0938 18.6484C64.9531 18.6484 64.8438 18.6797 64.7656 18.7422C64.7188 18.7734 64.6875 18.8125 64.6719 18.8594C64.6719 18.9062 64.6641 18.9609 64.6484 19.0234C64.6484 19.0703 64.6328 19.1094 64.6016 19.1406C64.5703 19.1719 64.5078 19.1797 64.4141 19.1641C64.4141 19.2422 64.4062 19.3125 64.3906 19.375C64.3906 19.4375 64.3906 19.5078 64.3906 19.5859C64.3906 19.9922 64.4297 20.3984 64.5078 20.8047C64.6016 21.1953 64.6484 21.5938 64.6484 22C64.6484 22.1406 64.6406 22.2891 64.625 22.4453C64.6094 22.5859 64.5781 22.7266 64.5312 22.8672C64.6094 23.0547 64.6484 23.2578 64.6484 23.4766C64.6641 23.6953 64.6719 23.9141 64.6719 24.1328C64.6719 24.3516 64.6797 24.5703 64.6953 24.7891C64.7109 24.9922 64.7656 25.1875 64.8594 25.375C64.8125 25.6094 64.7812 25.8438 64.7656 26.0781C64.75 26.3125 64.7422 26.5469 64.7422 26.7812C64.7422 27.3281 64.7656 27.8672 64.8125 28.3984C64.875 28.9297 64.9062 29.4688 64.9062 30.0156C64.9062 30.1562 64.8984 30.3047 64.8828 30.4609C64.8828 30.6172 64.875 30.7734 64.8594 30.9297C64.8281 31.1328 64.7734 31.3281 64.6953 31.5156C64.6172 31.7031 64.5781 31.9062 64.5781 32.125C64.5781 32.2656 64.5859 32.4141 64.6016 32.5703C64.6172 32.7109 64.625 32.8594 64.625 33.0156C64.625 33.0781 64.6172 33.1406 64.6016 33.2031C64.6016 33.25 64.6016 33.3047 64.6016 33.3672C64.5234 33.9141 64.4609 34.4688 64.4141 35.0312C64.3672 35.5938 64.3438 36.1484 64.3438 36.6953C64.3438 37.2109 64.3594 37.7266 64.3906 38.2422C64.4219 38.7422 64.4688 39.25 64.5312 39.7656C64.4688 39.875 64.4375 40 64.4375 40.1406C64.4375 40.3594 64.4922 40.5781 64.6016 40.7969C64.7109 41.0312 64.875 41.1875 65.0938 41.2656C65.5938 41.0781 66.0547 40.8281 66.4766 40.5156C66.9141 40.2188 67.3516 39.9141 67.7891 39.6016C67.8984 39.5234 68.0625 39.4219 68.2812 39.2969C68.5 39.1562 68.6484 39.0547 68.7266 38.9922C68.8047 38.9297 68.8672 38.8672 68.9141 38.8047C68.9766 38.7266 69.0469 38.6484 69.125 38.5703L70.1562 37.4688C70.75 36.8594 71.3359 36.2422 71.9141 35.6172C72.5078 34.9922 73.0547 34.3281 73.5547 33.625C73.6953 33.4062 73.8359 33.1953 73.9766 32.9922C74.1172 32.7734 74.25 32.5469 74.375 32.3125C74.4375 32.2344 74.4844 32.1484 74.5156 32.0547C74.5469 31.9453 74.6016 31.8516 74.6797 31.7734C74.7266 31.7109 74.7812 31.6484 74.8438 31.5859C74.9219 31.5234 74.9844 31.4609 75.0312 31.3984C75.1562 31.2578 75.2734 31.1172 75.3828 30.9766C75.5078 30.8203 75.6328 30.6562 75.7578 30.4844C76.1016 29.9844 76.4219 29.4844 76.7188 28.9844C77.0156 28.4688 77.3438 27.9609 77.7031 27.4609C77.7344 27.1484 77.7969 26.8594 77.8906 26.5938C77.9844 26.3125 78.0781 26.0469 78.1719 25.7969C78.2656 25.5312 78.3438 25.2578 78.4062 24.9766C78.4688 24.6953 78.4844 24.3828 78.4531 24.0391C78.5312 23.9297 78.5938 23.8516 78.6406 23.8047C78.7031 23.7578 78.7344 23.6641 78.7344 23.5234V23.125ZM86.1641 36.7891C86.0859 36.9141 85.9922 37.0312 85.8828 37.1406C85.7734 37.2344 85.6719 37.3359 85.5781 37.4453C85.4688 37.4922 85.3438 37.5156 85.2031 37.5156C85.0781 37.5156 84.9531 37.5156 84.8281 37.5156C84.7188 37.5 84.6094 37.5 84.5 37.5156C84.4062 37.5156 84.3281 37.5469 84.2656 37.6094C84.1406 37.5781 84.0469 37.5234 83.9844 37.4453C83.9219 37.3516 83.8125 37.2969 83.6562 37.2812C83.5938 37.2656 83.5312 37.2656 83.4688 37.2812C83.2344 37.0156 83.0156 36.7344 82.8125 36.4375C82.625 36.1406 82.4453 35.8594 82.2734 35.5938C82.2578 35.0156 82.2109 34.4297 82.1328 33.8359C82.1172 33.6953 82.0938 33.5547 82.0625 33.4141C82.0312 33.2734 82.0078 33.1406 81.9922 33.0156C81.9922 32.8594 82 32.7109 82.0156 32.5703C82.0469 32.4141 82.0703 32.2734 82.0859 32.1484C82.1484 31.6953 82.2188 31.25 82.2969 30.8125C82.375 30.375 82.4453 29.9297 82.5078 29.4766C82.5703 29.0703 82.6016 28.6484 82.6016 28.2109C82.6016 27.7578 82.5312 27.3359 82.3906 26.9453L82.3672 26.8281C82.3984 26.7031 82.4297 26.6016 82.4609 26.5234C82.5078 26.4297 82.5391 26.3281 82.5547 26.2188C82.5859 26.0469 82.5469 25.9219 82.4375 25.8438C82.4844 25.7188 82.5625 25.6406 82.6719 25.6094C82.7812 25.5625 82.8438 25.4688 82.8594 25.3281C82.875 25.2656 82.875 25.2031 82.8594 25.1406C82.9844 25.0938 83.1094 25.0547 83.2344 25.0234C83.375 24.9766 83.5078 24.9688 83.6328 25C83.8359 25.0312 84.0156 25.1016 84.1719 25.2109C84.3281 25.3047 84.4766 25.4141 84.6172 25.5391C84.8672 26.2891 84.9688 27.0859 84.9219 27.9297C84.875 28.7578 84.7969 29.5938 84.6875 30.4375C84.5781 31.2812 84.5078 32.1094 84.4766 32.9219C84.4453 33.7188 84.5703 34.4609 84.8516 35.1484L84.8984 35.1719C84.9766 35.1875 85.0391 35.1641 85.0859 35.1016C85.1328 35.0234 85.1953 34.9922 85.2734 35.0078C85.3359 35.0391 85.375 35.0547 85.3906 35.0547C85.4531 35.3672 85.5547 35.6641 85.6953 35.9453C85.8359 36.2266 85.9922 36.5078 86.1641 36.7891ZM100.789 37.0469C100.789 37.3125 100.719 37.5469 100.578 37.75C100.453 37.9375 100.406 38.1719 100.438 38.4531C100.219 38.5781 100.039 38.7422 99.8984 38.9453C99.7578 39.1484 99.625 39.3594 99.5 39.5781C98.4688 40.25 97.3594 40.7891 96.1719 41.1953C95 41.6172 93.7891 41.8281 92.5391 41.8281C92.4609 41.8281 92.3906 41.7891 92.3281 41.7109C92.2656 41.6484 92.2031 41.5781 92.1406 41.5C92.0781 41.4219 92.0078 41.3438 91.9297 41.2656C91.8672 41.2031 91.7891 41.1719 91.6953 41.1719C91.5859 41.1719 91.5 41.1953 91.4375 41.2422C91.4375 41.2109 91.4375 41.1797 91.4375 41.1484C91.4531 41.1328 91.4609 41.1094 91.4609 41.0781C91.4609 40.8906 91.4375 40.6953 91.3906 40.4922C91.3438 40.3047 91.3203 40.1172 91.3203 39.9297C91.3203 39.7109 91.3594 39.5312 91.4375 39.3906H91.7188C91.875 39.3906 92.0234 39.3828 92.1641 39.3672C92.3203 39.3359 92.4844 39.3203 92.6562 39.3203C92.8281 39.3203 92.9844 39.3672 93.125 39.4609C93.9844 39.4297 94.7969 39.2734 95.5625 38.9922C96.3438 38.6953 97.1328 38.4062 97.9297 38.125C98.0547 37.9531 98.125 37.7656 98.1406 37.5625C98.1719 37.3438 98.2344 37.1406 98.3281 36.9531C97.9219 36.6094 97.5078 36.3438 97.0859 36.1562C96.6797 35.9531 96.2031 35.8828 95.6562 35.9453C95.3281 35.7422 94.9766 35.625 94.6016 35.5938C94.2422 35.5625 93.875 35.5156 93.5 35.4531C93.4062 35.4375 93.3047 35.4219 93.1953 35.4062C93.1016 35.375 93 35.3594 92.8906 35.3594C92.8125 35.3594 92.7344 35.3828 92.6562 35.4297C92.5938 35.4609 92.5781 35.5156 92.6094 35.5938C92.5312 35.4688 92.4219 35.3984 92.2812 35.3828C92.1562 35.3516 92.0469 35.2891 91.9531 35.1953C91.4531 35.1641 91.0156 35.0781 90.6406 34.9375C90.2656 34.7812 89.8516 34.6094 89.3984 34.4219C89.2734 34.375 89.1484 34.3438 89.0234 34.3281C88.9141 34.2969 88.8047 34.25 88.6953 34.1875C88.4141 34.0469 88.1875 33.8594 88.0156 33.625C87.8438 33.3906 87.7109 33.1328 87.6172 32.8516C87.5078 32.5547 87.4297 32.25 87.3828 31.9375C87.3359 31.625 87.2891 31.3359 87.2422 31.0703C87.3828 30.8203 87.5156 30.5625 87.6406 30.2969C87.75 30.0312 87.8438 29.75 87.9219 29.4531C88.0156 29.4062 88.1094 29.3672 88.2031 29.3359C88.2969 29.3047 88.3984 29.2656 88.5078 29.2188C88.4922 29.1875 88.4844 29.1484 88.4844 29.1016C88.4844 29.0234 88.5078 28.9453 88.5547 28.8672C88.6172 28.7891 88.6328 28.7109 88.6016 28.6328C88.9453 28.3203 89.2734 28 89.5859 27.6719C89.9141 27.3281 90.1953 26.9531 90.4297 26.5469C90.6641 26.4688 90.8516 26.3516 90.9922 26.1953C91.1328 26.0391 91.2734 25.8828 91.4141 25.7266C91.5547 25.5547 91.7109 25.4062 91.8828 25.2812C92.0547 25.1406 92.2734 25.0547 92.5391 25.0234C92.6016 24.9141 92.6875 24.8281 92.7969 24.7656C92.9062 24.6875 93.0156 24.6172 93.125 24.5547C93.2344 24.4922 93.3359 24.4219 93.4297 24.3438C93.5234 24.2656 93.5938 24.1562 93.6406 24.0156C93.8906 24.0156 94.1172 23.9688 94.3203 23.875C94.5391 23.7812 94.75 23.6797 94.9531 23.5703C95.1562 23.4609 95.3594 23.3594 95.5625 23.2656C95.7812 23.1719 96.0156 23.125 96.2656 23.125C96.3281 23.125 96.3906 23.1328 96.4531 23.1484C96.5156 23.1484 96.5859 23.1562 96.6641 23.1719C96.7734 23.2812 96.8438 23.4141 96.875 23.5703C96.9219 23.7109 96.9531 23.8672 96.9688 24.0391C96.9844 24.2109 96.9922 24.3828 96.9922 24.5547C97.0078 24.7266 97.0391 24.8828 97.0859 25.0234C96.9453 25.2891 96.7891 25.5547 96.6172 25.8203C96.4609 26.0859 96.25 26.2891 95.9844 26.4297H95.9375C95.8281 26.4453 95.7266 26.4219 95.6328 26.3594C95.5391 26.2969 95.4297 26.2656 95.3047 26.2656C95.2266 26.2656 95.1641 26.2891 95.1172 26.3359L95 26.4531C94.9688 26.4844 94.9219 26.5156 94.8594 26.5469C94.8125 26.5781 94.7422 26.5781 94.6484 26.5469C94.4297 26.625 94.3438 26.7578 94.3906 26.9453C94.0938 26.9766 93.8438 27.0703 93.6406 27.2266C93.4375 27.3672 93.25 27.5312 93.0781 27.7188C92.9062 27.8906 92.7344 28.0547 92.5625 28.2109C92.3906 28.3516 92.1875 28.4297 91.9531 28.4453C91.6875 28.9141 91.3594 29.3281 90.9688 29.6875C90.5938 30.0469 90.2812 30.4531 90.0312 30.9062C90.0781 31.0312 90.1094 31.1641 90.125 31.3047C90.1406 31.4453 90.1641 31.5938 90.1953 31.75C90.3359 31.9375 90.5 32.1016 90.6875 32.2422C90.8906 32.3828 91.0859 32.5234 91.2734 32.6641H91.3438C91.6562 32.6641 91.9453 32.7266 92.2109 32.8516C92.4766 32.9609 92.7578 33.0156 93.0547 33.0156C93.2109 33.0156 93.3438 32.9844 93.4531 32.9219C93.8594 33.0156 94.2578 33.0938 94.6484 33.1562C95.0547 33.2188 95.4609 33.2656 95.8672 33.2969C96.0703 33.3281 96.2734 33.3438 96.4766 33.3438C96.6953 33.3438 96.8984 33.3672 97.0859 33.4141C97.2578 33.4609 97.4297 33.5234 97.6016 33.6016C97.7734 33.6641 97.9453 33.7344 98.1172 33.8125C98.4766 33.9688 98.8125 34.1406 99.125 34.3281C99.4531 34.5156 99.7422 34.7422 99.9922 35.0078C100.242 35.2578 100.438 35.5547 100.578 35.8984C100.719 36.2266 100.789 36.6094 100.789 37.0469ZM119.75 35.7812C119.75 35.9375 119.703 36.0703 119.609 36.1797C119.531 36.2734 119.43 36.3594 119.305 36.4375C119.195 36.5156 119.078 36.5859 118.953 36.6484C118.844 36.7109 118.742 36.7891 118.648 36.8828C118.586 36.9453 118.539 37.0234 118.508 37.1172C118.492 37.1953 118.453 37.25 118.391 37.2812C118.297 37.3594 118.195 37.4062 118.086 37.4219C117.977 37.4375 117.859 37.4609 117.734 37.4922C117.625 37.5078 117.516 37.5391 117.406 37.5859C117.297 37.6172 117.203 37.6875 117.125 37.7969C116.391 37.875 115.664 37.9766 114.945 38.1016C114.242 38.2266 113.516 38.2891 112.766 38.2891C112.625 38.2891 112.469 38.3047 112.297 38.3359C112.141 38.3516 111.992 38.3672 111.852 38.3828C111.523 38.4141 111.195 38.4375 110.867 38.4531C110.555 38.4688 110.234 38.4766 109.906 38.4766C109.453 38.4766 109 38.4609 108.547 38.4297C108.094 38.3828 107.648 38.3125 107.211 38.2188C107.102 38.1406 106.977 38.0781 106.836 38.0312C106.695 37.9844 106.547 37.9375 106.391 37.8906C106.25 37.8438 106.117 37.7891 105.992 37.7266C105.867 37.6641 105.773 37.5703 105.711 37.4453C105.477 37.4297 105.266 37.3828 105.078 37.3047C104.906 37.2266 104.742 37.1406 104.586 37.0469C104.445 36.9375 104.297 36.8281 104.141 36.7188C103.984 36.6094 103.805 36.5156 103.602 36.4375C103.445 36.2188 103.281 36.0078 103.109 35.8047C102.953 35.5859 102.758 35.4062 102.523 35.2656C102.477 34.9688 102.398 34.6719 102.289 34.375C102.195 34.0781 102.094 33.7891 101.984 33.5078C101.891 33.2109 101.812 32.9141 101.75 32.6172C101.672 32.3203 101.633 32.0156 101.633 31.7031C101.633 31.4844 101.664 31.2188 101.727 30.9062C101.789 30.5938 101.867 30.2812 101.961 29.9688C102.07 29.6406 102.195 29.3359 102.336 29.0547C102.477 28.7734 102.617 28.5469 102.758 28.375C102.805 28.3281 102.859 28.2891 102.922 28.2578C102.984 28.2266 103.039 28.1797 103.086 28.1172C103.227 27.9609 103.375 27.8359 103.531 27.7422C103.688 27.6328 103.852 27.5078 104.023 27.3672C104.086 27.3047 104.133 27.2344 104.164 27.1562C104.211 27.0781 104.273 27.0078 104.352 26.9453C104.398 26.9141 104.461 26.9062 104.539 26.9219C104.633 26.9375 104.711 26.9219 104.773 26.875C104.836 26.8281 104.867 26.7734 104.867 26.7109C104.867 26.6484 104.891 26.5938 104.938 26.5469C104.953 26.5312 105 26.5312 105.078 26.5469C105.156 26.5469 105.203 26.5469 105.219 26.5469C105.328 26.5469 105.453 26.4766 105.594 26.3359C105.734 26.1797 105.852 26.0781 105.945 26.0312C106.055 25.9688 106.164 25.9297 106.273 25.9141C106.383 25.8828 106.5 25.8359 106.625 25.7734C106.797 25.6797 106.961 25.6094 107.117 25.5625C107.289 25.5 107.461 25.4297 107.633 25.3516C107.727 25.3203 107.812 25.2656 107.891 25.1875C107.969 25.1094 108.047 25.0547 108.125 25.0234C108.266 24.9766 108.414 24.9453 108.57 24.9297C108.742 24.8984 108.898 24.875 109.039 24.8594C109.195 24.8281 109.344 24.7969 109.484 24.7656C109.641 24.7188 109.781 24.6406 109.906 24.5312H110.094C110.375 24.5312 110.648 24.4922 110.914 24.4141C111.18 24.3359 111.453 24.2969 111.734 24.2969C111.812 24.2969 111.93 24.3125 112.086 24.3438C112.211 24.2656 112.352 24.2266 112.508 24.2266C112.773 24.2266 113.039 24.2969 113.305 24.4375C113.57 24.5625 113.844 24.625 114.125 24.625H114.266C114.328 24.625 114.391 24.6172 114.453 24.6016C114.625 24.7734 114.828 24.8672 115.062 24.8828C115.312 24.8984 115.523 24.9688 115.695 25.0938C115.805 25.1875 115.891 25.2969 115.953 25.4219C116.031 25.5469 116.094 25.6797 116.141 25.8203L116.281 26.2422C116.328 26.3828 116.391 26.5078 116.469 26.6172C116.391 27.1797 116.156 27.6328 115.766 27.9766C115.391 28.3047 114.914 28.4688 114.336 28.4688C114.117 28.4688 113.93 28.4453 113.773 28.3984C113.633 28.3359 113.5 28.2734 113.375 28.2109C113.266 28.1484 113.148 28.0859 113.023 28.0234C112.898 27.9609 112.758 27.9141 112.602 27.8828C112.773 27.5703 112.883 27.2344 112.93 26.875C112.758 26.7969 112.586 26.7422 112.414 26.7109C112.242 26.6797 112.078 26.625 111.922 26.5469C111.5 26.6562 111.086 26.7344 110.68 26.7812C110.289 26.8125 109.922 26.9766 109.578 27.2734C109.5 27.2578 109.414 27.2422 109.32 27.2266C109.242 27.2109 109.164 27.2031 109.086 27.2031C108.992 27.2031 108.805 27.2734 108.523 27.4141C108.242 27.5391 107.938 27.6875 107.609 27.8594C107.297 28.0312 106.992 28.2031 106.695 28.375C106.414 28.5469 106.219 28.6641 106.109 28.7266C105.984 28.8047 105.875 28.8984 105.781 29.0078C105.688 29.1172 105.594 29.2344 105.5 29.3594C105.406 29.4688 105.312 29.5781 105.219 29.6875C105.125 29.7812 105.008 29.8516 104.867 29.8984C104.836 30.0703 104.781 30.2188 104.703 30.3438C104.625 30.4688 104.539 30.6016 104.445 30.7422C104.43 31.0234 104.398 31.3047 104.352 31.5859C104.32 31.8672 104.305 32.1484 104.305 32.4297V32.7344C104.305 32.8281 104.32 32.9141 104.352 32.9922C104.508 33.1953 104.633 33.4219 104.727 33.6719C104.836 33.9219 105.016 34.0938 105.266 34.1875C105.281 34.25 105.273 34.2891 105.242 34.3047C105.227 34.3203 105.211 34.3594 105.195 34.4219C105.289 34.5938 105.406 34.7344 105.547 34.8438C105.703 34.9375 105.859 35.0391 106.016 35.1484C106.172 35.2422 106.32 35.3438 106.461 35.4531C106.602 35.5625 106.711 35.7031 106.789 35.875C107.023 35.875 107.242 35.9141 107.445 35.9922C107.664 36.0703 107.867 36.1562 108.055 36.25C108.258 36.3438 108.445 36.4297 108.617 36.5078C108.805 36.5859 108.992 36.625 109.18 36.625C109.352 36.625 109.508 36.6016 109.648 36.5547C110.055 36.6797 110.461 36.7734 110.867 36.8359C111.289 36.8828 111.711 36.9062 112.133 36.9062C112.648 36.9062 113.164 36.875 113.68 36.8125C114.195 36.75 114.711 36.6953 115.227 36.6484C115.414 36.6172 115.594 36.6016 115.766 36.6016C115.938 36.6016 116.109 36.5859 116.281 36.5547C116.5 36.5234 116.703 36.4219 116.891 36.25C117.094 36.0781 117.289 35.9531 117.477 35.875C117.648 35.9844 117.852 36.0391 118.086 36.0391C118.352 36.0391 118.609 36 118.859 35.9219C119.109 35.8281 119.367 35.7812 119.633 35.7812H119.75ZM134.398 26.4297C134.305 26.5703 134.25 26.7266 134.234 26.8984C134.219 27.0703 134.211 27.2266 134.211 27.3672C134.211 27.5547 134.211 27.7422 134.211 27.9297C134.227 28.1016 134.234 28.2734 134.234 28.4453V28.7969C134.203 28.9062 134.156 29.0156 134.094 29.125C134.031 29.2344 133.984 29.3438 133.953 29.4531C133.734 30.0312 133.625 30.6094 133.625 31.1875V31.2344C133.547 31.4219 133.469 31.5938 133.391 31.75C133.328 31.9062 133.266 32.0625 133.203 32.2188C133.141 32.3594 133.094 32.5156 133.062 32.6875C133.031 32.8438 133.023 33.0312 133.039 33.25C132.82 33.7969 132.531 34.2969 132.172 34.75C131.812 35.1875 131.461 35.6406 131.117 36.1094C130.789 36.2344 130.484 36.3984 130.203 36.6016C129.938 36.8047 129.68 37.0312 129.43 37.2812C128.945 37.4375 128.469 37.6172 128 37.8203C127.531 38.0234 127.109 38.2969 126.734 38.6406C126.438 38.6719 126.141 38.7188 125.844 38.7812C125.547 38.8438 125.258 38.9375 124.977 39.0625H124.695C124.555 39.0625 124.453 39.0312 124.391 38.9688C124.188 39.0781 123.977 39.1562 123.758 39.2031C123.539 39.2344 123.32 39.25 123.102 39.25C122.82 39.25 122.539 39.2344 122.258 39.2031C121.992 39.1562 121.719 39.1094 121.438 39.0625C121.281 38.8438 121.062 38.6797 120.781 38.5703C120.5 38.4453 120.25 38.3281 120.031 38.2188C119.578 37.5938 119.25 36.9922 119.047 36.4141C118.844 35.8203 118.633 35.1562 118.414 34.4219C118.445 34.2031 118.5 33.9922 118.578 33.7891C118.656 33.5703 118.688 33.3359 118.672 33.0859C118.953 32.2734 119.32 31.5391 119.773 30.8828C120.242 30.2109 120.773 29.5703 121.367 28.9609C121.367 28.8672 121.383 28.7891 121.414 28.7266C121.461 28.6641 121.469 28.5703 121.438 28.4453C121.453 28.4609 121.484 28.4688 121.531 28.4688C121.656 28.4688 121.734 28.4375 121.766 28.375C121.797 28.2969 121.805 28.2109 121.789 28.1172C122.352 27.7578 122.859 27.3438 123.312 26.875C123.781 26.4062 124.312 26.0156 124.906 25.7031C124.953 25.5625 125.031 25.4453 125.141 25.3516C125.25 25.2578 125.336 25.1484 125.398 25.0234C125.898 24.8828 126.352 24.6719 126.758 24.3906C127.164 24.1094 127.594 23.8594 128.047 23.6406C128.297 23.5 128.531 23.4062 128.75 23.3594C128.984 23.2969 129.234 23.2344 129.5 23.1719C129.594 23.1406 129.68 23.1172 129.758 23.1016C129.836 23.0859 129.922 23.0781 130.016 23.0781C130.297 23.0781 130.57 23.1328 130.836 23.2422C131.102 23.3359 131.375 23.3828 131.656 23.3828C131.734 23.3828 131.797 23.3828 131.844 23.3828C131.906 23.3672 131.969 23.3516 132.031 23.3359C132.297 23.6641 132.633 23.9141 133.039 24.0859C133.133 24.3203 133.242 24.5234 133.367 24.6953C133.508 24.8672 133.648 25.0391 133.789 25.2109C133.93 25.3672 134.055 25.5469 134.164 25.75C134.289 25.9375 134.367 26.1641 134.398 26.4297ZM132.055 27.6484C132.055 27.5703 132.047 27.5 132.031 27.4375C131.875 27.3906 131.727 27.3281 131.586 27.25C131.445 27.1719 131.289 27.1328 131.117 27.1328C131.008 27.1328 130.898 27.1562 130.789 27.2031C130.773 27.0938 130.727 27.0156 130.648 26.9688C130.586 26.9219 130.508 26.8828 130.414 26.8516C130.336 26.8047 130.25 26.7734 130.156 26.7578C130.078 26.7266 130.008 26.6797 129.945 26.6172C129.898 26.4922 129.844 26.3672 129.781 26.2422C129.734 26.1016 129.641 26 129.5 25.9375C129.359 26.0781 129.195 26.1953 129.008 26.2891C128.82 26.3672 128.625 26.4453 128.422 26.5234C128.234 26.6016 128.047 26.6953 127.859 26.8047C127.688 26.9141 127.539 27.0469 127.414 27.2031H126.992C126.898 27.375 126.766 27.5078 126.594 27.6016C126.422 27.6797 126.273 27.7969 126.148 27.9531C125.898 28.0781 125.664 28.2344 125.445 28.4219C125.242 28.5938 125.039 28.7812 124.836 28.9844C124.633 29.1719 124.43 29.3672 124.227 29.5703C124.039 29.7734 123.836 29.9609 123.617 30.1328C123.414 30.5703 123.188 30.9531 122.938 31.2812C122.703 31.5938 122.477 31.9141 122.258 32.2422C122.055 32.5703 121.875 32.9297 121.719 33.3203C121.578 33.6953 121.508 34.1641 121.508 34.7266V34.9609C121.508 35.0391 121.516 35.1172 121.531 35.1953C121.734 35.4141 121.898 35.6484 122.023 35.8984C122.164 36.1484 122.391 36.3281 122.703 36.4375C123.016 36.5625 123.344 36.6172 123.688 36.6016C124.047 36.5859 124.391 36.625 124.719 36.7188C125.469 36.5781 126.188 36.3516 126.875 36.0391C127.578 35.7109 128.242 35.3203 128.867 34.8672C128.961 34.7891 129.07 34.7109 129.195 34.6328C129.32 34.5391 129.422 34.4453 129.5 34.3516C129.578 34.2734 129.641 34.1875 129.688 34.0938C129.75 34 129.812 33.9141 129.875 33.8359C130 33.6328 130.141 33.4297 130.297 33.2266C130.453 33.0234 130.617 32.8359 130.789 32.6641C130.867 32.3203 130.969 31.9922 131.094 31.6797C131.219 31.3516 131.344 31.0312 131.469 30.7188C131.594 30.4062 131.695 30.0859 131.773 29.7578C131.867 29.4297 131.914 29.0859 131.914 28.7266C131.914 28.6484 131.906 28.5625 131.891 28.4688C131.891 28.375 131.883 28.2891 131.867 28.2109C131.992 28.0391 132.055 27.8516 132.055 27.6484ZM165.992 35.9219C165.961 36.1562 165.875 36.3359 165.734 36.4609C165.609 36.5859 165.461 36.7031 165.289 36.8125C165.211 36.7969 165.133 36.7891 165.055 36.7891C164.992 36.7734 164.922 36.7656 164.844 36.7656C164.359 36.75 163.898 36.8125 163.461 36.9531C163.039 37.0938 162.602 37.1953 162.148 37.2578C161.992 37.2891 161.844 37.3047 161.703 37.3047C161.578 37.2891 161.445 37.2969 161.305 37.3281C160.805 37.4062 160.273 37.4688 159.711 37.5156C159.148 37.5625 158.586 37.625 158.023 37.7031C157.461 37.7656 156.906 37.8516 156.359 37.9609C155.828 38.0547 155.328 38.1953 154.859 38.3828C154.812 38.3516 154.766 38.3203 154.719 38.2891C154.672 38.2422 154.617 38.2188 154.555 38.2188C154.398 38.2188 154.25 38.2422 154.109 38.2891C153.969 38.3359 153.828 38.3516 153.688 38.3359C153.531 38.4297 153.359 38.5 153.172 38.5469C153 38.5781 152.82 38.6094 152.633 38.6406C152.461 38.6562 152.289 38.6875 152.117 38.7344C151.945 38.7812 151.781 38.8672 151.625 38.9922C151.5 38.9297 151.344 38.8984 151.156 38.8984C150.984 38.8828 150.867 38.8203 150.805 38.7109C150.445 38.8828 150.062 38.9922 149.656 39.0391C149.266 39.0859 148.867 39.1016 148.461 39.0859C148.195 39.0703 147.891 39.0312 147.547 38.9688C147.203 38.9062 146.859 38.8203 146.516 38.7109C146.172 38.5859 145.852 38.4453 145.555 38.2891C145.258 38.1172 145.031 37.9141 144.875 37.6797C144.766 37.5234 144.688 37.3516 144.641 37.1641C144.594 36.9766 144.484 36.8359 144.312 36.7422C144.359 36.3828 144.414 36.0312 144.477 35.6875C144.539 35.3438 144.602 34.9922 144.664 34.6328C144.977 34.3672 145.273 34.0859 145.555 33.7891C145.836 33.4922 146.102 33.1797 146.352 32.8516C146.648 32.7109 146.922 32.5391 147.172 32.3359C147.438 32.1328 147.695 31.9297 147.945 31.7266C148.211 31.5078 148.469 31.2969 148.719 31.0938C148.984 30.8906 149.266 30.7109 149.562 30.5547C149.609 30.4453 149.672 30.3594 149.75 30.2969C149.844 30.2188 149.938 30.1484 150.031 30.0859C150.125 30.0078 150.211 29.9297 150.289 29.8516C150.367 29.7578 150.422 29.6484 150.453 29.5234C151 29.1953 151.477 28.7812 151.883 28.2812C152.289 27.7812 152.555 27.2188 152.68 26.5938C152.414 26.375 152.109 26.2344 151.766 26.1719C151.438 26.0938 151.094 26.0391 150.734 26.0078C150.422 25.9922 150.094 25.9922 149.75 26.0078C149.422 26.0234 149.086 26.0156 148.742 25.9844C148.398 26.0938 148.039 26.1641 147.664 26.1953C147.305 26.2266 146.945 26.2578 146.586 26.2891C146.227 26.3047 145.867 26.3516 145.508 26.4297C145.164 26.4922 144.828 26.6172 144.5 26.8047C144.438 26.8047 144.375 26.7969 144.312 26.7812C144.266 26.7656 144.211 26.7578 144.148 26.7578C143.648 26.7422 143.18 26.8438 142.742 27.0625C142.305 27.2656 141.875 27.4688 141.453 27.6719C141.422 27.7344 141.406 27.7812 141.406 27.8125C141.406 27.9062 141.422 28 141.453 28.0938C141.5 28.1719 141.523 28.2578 141.523 28.3516C141.508 28.3672 141.5 28.3828 141.5 28.3984C141.5 28.4141 141.492 28.4297 141.477 28.4453C141.461 28.5234 141.438 28.5938 141.406 28.6562C141.391 28.7188 141.367 28.7891 141.336 28.8672C141.164 29.3672 141.07 29.8594 141.055 30.3438C141.039 30.75 141.039 31.1484 141.055 31.5391C141.07 31.9297 141.07 32.3281 141.055 32.7344C141.023 33.2344 140.945 33.7031 140.82 34.1406C140.898 34.5156 140.969 34.9141 141.031 35.3359C141.094 35.7422 141.172 36.1484 141.266 36.5547C141.359 36.9609 141.469 37.3594 141.594 37.75C141.734 38.125 141.914 38.4844 142.133 38.8281C142.117 38.8594 142.125 38.8828 142.156 38.8984C142.188 38.9141 142.219 38.9219 142.25 38.9219H142.438C142.516 38.9219 142.547 38.9531 142.531 39.0156C142.562 39.0625 142.586 39.1094 142.602 39.1562C142.617 39.1875 142.648 39.2188 142.695 39.25C142.727 39.2969 142.727 39.3594 142.695 39.4375C142.68 39.75 142.602 40.0391 142.461 40.3047C142.32 40.5703 142.234 40.8594 142.203 41.1719C142.016 41.2188 141.844 41.2422 141.688 41.2422C141.422 41.2266 141.188 41.1484 140.984 41.0078C140.781 40.8828 140.594 40.7266 140.422 40.5391C140.25 40.3516 140.086 40.1641 139.93 39.9766C139.773 39.7734 139.602 39.6016 139.414 39.4609C139.305 39.0234 139.195 38.5391 139.086 38.0078C138.992 37.4766 138.828 37.0234 138.594 36.6484C138.656 36.5078 138.688 36.3359 138.688 36.1328C138.703 35.8203 138.672 35.5156 138.594 35.2188C138.531 34.9062 138.516 34.5938 138.547 34.2812C138.547 34.1094 138.562 33.9375 138.594 33.7656C138.641 33.5938 138.672 33.4219 138.688 33.25C138.703 32.9844 138.672 32.7266 138.594 32.4766C138.531 32.2266 138.508 31.9688 138.523 31.7031C138.539 31.5781 138.562 31.4609 138.594 31.3516C138.641 31.2266 138.703 31.1172 138.781 31.0234C138.703 30.8359 138.68 30.6562 138.711 30.4844C138.727 30.2188 138.758 29.9688 138.805 29.7344C138.852 29.5 138.883 29.2656 138.898 29.0312C138.898 28.9062 138.891 28.7891 138.875 28.6797C138.859 28.5547 138.836 28.4375 138.805 28.3281L138.594 28.2578C138.5 28.2578 138.406 28.2812 138.312 28.3281C138.234 28.375 138.164 28.4297 138.102 28.4922C138.039 28.5547 137.984 28.6094 137.938 28.6562C137.891 28.6875 137.844 28.7031 137.797 28.7031C137.766 28.7031 137.727 28.7031 137.68 28.7031C137.648 28.6875 137.617 28.6797 137.586 28.6797C137.555 28.6797 137.492 28.7109 137.398 28.7734C137.32 28.8359 137.219 28.9062 137.094 28.9844C136.984 29.0469 136.875 29.1172 136.766 29.1953C136.656 29.2578 136.57 29.2969 136.508 29.3125C136.336 29.2812 136.195 29.2266 136.086 29.1484C135.992 29.0547 135.898 28.9688 135.805 28.8906C135.727 28.7969 135.641 28.7188 135.547 28.6562C135.453 28.5781 135.336 28.5469 135.195 28.5625C135.148 28.4688 135.125 28.3672 135.125 28.2578C135.109 28.1484 135.109 28.0391 135.125 27.9297V27.5547C135.234 27.3516 135.383 27.1875 135.57 27.0625C135.742 26.9219 135.93 26.8047 136.133 26.7109L136.742 26.4297C136.945 26.3359 137.133 26.2188 137.305 26.0781H137.516C137.797 26.0938 138.039 26.0391 138.242 25.9141C138.461 25.7891 138.664 25.6484 138.852 25.4922C139.039 25.3203 139.227 25.1484 139.414 24.9766C139.617 24.8047 139.836 24.6719 140.07 24.5781C140.242 24.6562 140.422 24.7266 140.609 24.7891C140.797 24.8359 140.992 24.8672 141.195 24.8828C141.398 24.8828 141.609 24.8516 141.828 24.7891C142.047 24.7266 142.219 24.6094 142.344 24.4375C142.422 24.4688 142.484 24.4922 142.531 24.5078C142.594 24.5078 142.664 24.5078 142.742 24.5078C142.977 24.5234 143.211 24.4922 143.445 24.4141C143.68 24.3203 143.906 24.2109 144.125 24.0859C144.438 24.1016 144.742 24.0859 145.039 24.0391C145.352 23.9766 145.656 23.9141 145.953 23.8516C146.266 23.7891 146.57 23.7344 146.867 23.6875C147.18 23.625 147.492 23.6016 147.805 23.6172C148.32 23.6328 148.828 23.5859 149.328 23.4766C149.828 23.3672 150.336 23.3281 150.852 23.3594C151.211 23.375 151.562 23.4062 151.906 23.4531C152.266 23.4844 152.625 23.4922 152.984 23.4766C153.188 23.5703 153.367 23.6562 153.523 23.7344C153.695 23.7969 153.906 23.8125 154.156 23.7812C154.656 24.2031 155.109 24.6953 155.516 25.2578V25.6562C155.5 26.0156 155.438 26.3672 155.328 26.7109C155.219 27.0547 155.086 27.3984 154.93 27.7422C154.789 28.0703 154.633 28.3984 154.461 28.7266C154.289 29.0391 154.125 29.3516 153.969 29.6641C152.953 30.5859 151.938 31.5 150.922 32.4062C149.906 33.3125 148.859 34.1875 147.781 35.0312C147.75 35.1875 147.703 35.3281 147.641 35.4531C147.594 35.5781 147.562 35.7109 147.547 35.8516C147.547 35.9297 147.555 35.9922 147.57 36.0391C147.68 36.0703 147.773 36.1328 147.852 36.2266C147.945 36.3047 147.977 36.4141 147.945 36.5547H148.156C148.234 36.5547 148.273 36.5859 148.273 36.6484L148.648 36.6719C149.242 36.7031 149.836 36.6875 150.43 36.625C151.023 36.5625 151.617 36.4922 152.211 36.4141C152.82 36.3359 153.422 36.2656 154.016 36.2031C154.609 36.125 155.203 36.0781 155.797 36.0625C155.938 36.0156 156.086 35.9766 156.242 35.9453C156.398 35.9141 156.539 35.8516 156.664 35.7578H156.734C156.844 35.7578 156.922 35.7891 156.969 35.8516C157.031 35.9141 157.117 35.9531 157.227 35.9688C157.305 35.9688 157.383 35.9531 157.461 35.9219C157.555 35.8906 157.648 35.8672 157.742 35.8516C157.961 35.7891 158.188 35.75 158.422 35.7344C158.672 35.7188 158.914 35.6953 159.148 35.6641C160.055 35.5859 160.953 35.5391 161.844 35.5234C162.734 35.4922 163.625 35.375 164.516 35.1719C164.594 35.2812 164.703 35.3594 164.844 35.4062C164.984 35.4375 165.133 35.4766 165.289 35.5234C165.445 35.5547 165.586 35.5938 165.711 35.6406C165.852 35.6875 165.945 35.7812 165.992 35.9219ZM175.086 28.4453C175.086 28.6016 175.031 28.7031 174.922 28.75C174.812 28.7969 174.758 28.8906 174.758 29.0312C174.758 29.0781 174.773 29.1172 174.805 29.1484C174.836 29.1797 174.852 29.2266 174.852 29.2891V29.3828C174.664 30.2891 174.391 31.0781 174.031 31.75C173.688 32.4219 173.281 33.0391 172.812 33.6016C172.344 34.1641 171.812 34.6953 171.219 35.1953C170.641 35.6953 170.016 36.2188 169.344 36.7656C169.156 36.9219 168.961 37.0781 168.758 37.2344C168.57 37.3906 168.391 37.5547 168.219 37.7266L167.703 38.2188C167.688 38.2344 167.602 38.2734 167.445 38.3359C167.289 38.3828 167.195 38.4141 167.164 38.4297C166.945 38.5234 166.711 38.6328 166.461 38.7578C166.227 38.8828 166.023 39.0391 165.852 39.2266C165.539 39.2266 165.273 39.2734 165.055 39.3672C164.836 39.4609 164.594 39.5859 164.328 39.7422C164.25 39.7422 164.18 39.7266 164.117 39.6953C164.07 39.6641 164.016 39.6328 163.953 39.6016C163.891 39.5703 163.82 39.5547 163.742 39.5547C163.68 39.5391 163.594 39.5469 163.484 39.5781C163.297 39.2656 163.094 39 162.875 38.7812C162.656 38.5625 162.359 38.4297 161.984 38.3828C161.938 38.1172 161.828 37.9141 161.656 37.7734C161.484 37.6172 161.312 37.4531 161.141 37.2812C161.109 37.1875 161.086 37.0781 161.07 36.9531C161.055 36.8281 161.023 36.7109 160.977 36.6016C160.93 36.4922 160.867 36.3984 160.789 36.3203C160.711 36.2422 160.602 36.2031 160.461 36.2031C160.445 36.1094 160.484 36.0625 160.578 36.0625C160.672 36.0625 160.719 36.0234 160.719 35.9453C160.719 35.8516 160.703 35.7578 160.672 35.6641C160.641 35.5703 160.625 35.4688 160.625 35.3594C160.625 35.2812 160.633 35.2109 160.648 35.1484C160.664 35.0859 160.688 35.0156 160.719 34.9375C160.672 34.5156 160.648 34.0859 160.648 33.6484C160.648 32.8047 160.703 31.9766 160.812 31.1641C160.938 30.3359 161 29.5 161 28.6562C161 28.2812 160.977 27.9062 160.93 27.5312C160.898 27.1562 160.828 26.7891 160.719 26.4297C160.359 26.5078 160 26.6016 159.641 26.7109C159.281 26.8047 158.945 26.9375 158.633 27.1094C158.461 27 158.281 26.9375 158.094 26.9219C157.891 26.8906 157.695 26.8438 157.508 26.7812C157.398 26.5625 157.344 26.3359 157.344 26.1016C157.344 25.8828 157.383 25.6719 157.461 25.4688L157.695 24.8594C158.07 24.7812 158.445 24.6641 158.82 24.5078C159.18 24.3516 159.547 24.2109 159.922 24.0859C160.047 24.0547 160.203 24.0156 160.391 23.9688C160.594 23.9219 160.734 23.8828 160.812 23.8516C160.922 23.8047 160.992 23.7188 161.023 23.5938C161.07 23.4531 161.133 23.3359 161.211 23.2422H161.609C161.703 23.2422 161.805 23.25 161.914 23.2656C162.023 23.2656 162.125 23.2891 162.219 23.3359C162.781 23.1953 163.344 23.1094 163.906 23.0781C164.469 23.0312 165.047 22.9688 165.641 22.8906C165.703 22.8906 165.797 22.8828 165.922 22.8672L166.32 22.7969C166.461 22.7656 166.586 22.7422 166.695 22.7266C166.82 22.6953 166.906 22.6797 166.953 22.6797C167 22.6797 167.023 22.7031 167.023 22.75H167.422C168.094 22.75 168.75 22.8359 169.391 23.0078L171.312 23.5234C171.578 23.7422 171.844 23.9531 172.109 24.1562C172.375 24.3594 172.672 24.5391 173 24.6953C173.078 24.9453 173.195 25.1484 173.352 25.3047C173.523 25.4453 173.711 25.6016 173.914 25.7734C173.992 25.9766 174.094 26.1953 174.219 26.4297C174.359 26.6484 174.492 26.875 174.617 27.1094C174.742 27.3438 174.852 27.5781 174.945 27.8125C175.039 28.0312 175.086 28.2422 175.086 28.4453ZM172.906 28.7969C172.734 28.4375 172.57 28.0625 172.414 27.6719C172.258 27.2812 172.062 26.9297 171.828 26.6172C171.547 26.5391 171.258 26.4453 170.961 26.3359C170.68 26.2109 170.484 26 170.375 25.7031C170.344 25.7188 170.289 25.7266 170.211 25.7266C170.07 25.7266 169.945 25.6719 169.836 25.5625C169.727 25.4531 169.602 25.3828 169.461 25.3516C169.336 25.3359 169.164 25.3125 168.945 25.2812C168.742 25.25 168.523 25.2266 168.289 25.2109C168.055 25.1953 167.82 25.1797 167.586 25.1641C167.367 25.1484 167.195 25.1406 167.07 25.1406C166.945 25.1406 166.812 25.1484 166.672 25.1641C166.547 25.1641 166.414 25.1719 166.273 25.1875C166.148 25.1875 166.07 25.2109 166.039 25.2578C166.008 25.2891 165.945 25.3203 165.852 25.3516C165.773 25.3203 165.688 25.3047 165.594 25.3047H165.312C164.984 25.3047 164.656 25.3594 164.328 25.4688C164.016 25.5625 163.703 25.6953 163.391 25.8672V25.9609C163.391 26.0859 163.445 26.1562 163.555 26.1719C163.664 26.1875 163.727 26.25 163.742 26.3594C163.664 26.3594 163.602 26.3672 163.555 26.3828C163.508 26.3828 163.484 26.4375 163.484 26.5469C163.484 26.7031 163.5 26.875 163.531 27.0625C163.578 27.25 163.602 27.4375 163.602 27.625C163.602 27.7656 163.586 27.9297 163.555 28.1172C163.523 28.3047 163.445 28.4531 163.32 28.5625C163.477 28.7031 163.555 28.8906 163.555 29.125C163.555 29.2812 163.523 29.4453 163.461 29.6172C163.398 29.7891 163.32 29.9375 163.227 30.0625C163.195 30.7188 163.133 31.3828 163.039 32.0547C162.945 32.7266 162.898 33.3906 162.898 34.0469C162.898 34.375 162.914 34.6953 162.945 35.0078C162.992 35.3203 163.062 35.6328 163.156 35.9453C163.328 36.1172 163.508 36.25 163.695 36.3438C163.898 36.4375 164.109 36.5312 164.328 36.625V36.6953C164.328 36.7422 164.297 36.7891 164.234 36.8359C164.172 36.8828 164.141 36.9453 164.141 37.0234C164.141 37.0859 164.172 37.1172 164.234 37.1172C164.891 36.9297 165.508 36.7031 166.086 36.4375C166.664 36.1719 167.203 35.8125 167.703 35.3594C167.75 35.3125 167.797 35.2891 167.844 35.2891C167.875 35.2891 167.914 35.2969 167.961 35.3125C168.023 35.3281 168.078 35.3438 168.125 35.3594L168.102 35.2656C168.102 35.1719 168.125 35.0859 168.172 35.0078C168.234 34.9297 168.305 34.8594 168.383 34.7969L168.617 34.5859C168.695 34.5078 168.758 34.4297 168.805 34.3516C168.93 34.3203 169.016 34.2578 169.062 34.1641C169.125 34.0703 169.227 34.0234 169.367 34.0234C169.398 33.8516 169.484 33.7266 169.625 33.6484C169.766 33.5547 169.852 33.4219 169.883 33.25C170.195 33.0781 170.469 32.8672 170.703 32.6172C170.953 32.3672 171.18 32.1016 171.383 31.8203C171.602 31.5391 171.805 31.25 171.992 30.9531C172.18 30.6406 172.375 30.3438 172.578 30.0625V29.9688C172.578 29.7188 172.617 29.5156 172.695 29.3594C172.789 29.2031 172.859 29.0156 172.906 28.7969Z" fill="#FFFEFE"/>
</g>
<defs>
<filter id="filter0_d" x="0" y="0" width="237" height="68" filterUnits="userSpaceOnUse" color-interpolation-filters="sRGB">
<feFlood flood-opacity="0" result="BackgroundImageFix"/>
<feColorMatrix in="SourceAlpha" type="matrix" values="0 0 0 0 0 0 0 0 0 0 0 0 0 0 0 0 0 0 127 0"/>
<feOffset dy="4"/>
<feGaussianBlur stdDeviation="2"/>
<feColorMatrix type="matrix" values="0 0 0 0 0 0 0 0 0 0 0 0 0 0 0 0 0 0 0.5 0"/>
<feBlend mode="normal" in2="BackgroundImageFix" result="effect1_dropShadow"/>
<feBlend mode="normal" in="SourceGraphic" in2="effect1_dropShadow" result="shape"/>
</filter>
</defs>
</svg>
