<svg width="86" height="60" viewBox="0 0 86 60" fill="none" xmlns="http://www.w3.org/2000/svg">
<path d="M81.4286 0H4.28571C1.9192 0 0 1.9192 0 4.28571V55.7143C0 58.0808 1.9192 60 4.28571 60H81.4286C83.7951 60 85.7143 58.0808 85.7143 55.7143V4.28571C85.7143 1.9192 83.7951 0 81.4286 0ZM23.5714 39.6268V41.7857C23.5714 42.3777 23.092 42.8571 22.5 42.8571H20.3571C19.7652 42.8571 19.2857 42.3777 19.2857 41.7857V39.604C17.7737 39.5263 16.3031 38.9987 15.0844 38.0839C14.5621 37.6915 14.5353 36.9094 15.008 36.458L16.5817 34.9567C16.9527 34.6031 17.5045 34.5871 17.9384 34.8589C18.4567 35.183 19.0446 35.3571 19.6554 35.3571H23.4201C24.2906 35.3571 25.0004 34.5643 25.0004 33.5906C25.0004 32.7937 24.517 32.092 23.8259 31.8857L17.7991 30.0777C15.3094 29.3304 13.5696 26.9411 13.5696 24.2665C13.5696 20.9826 16.121 18.3147 19.2844 18.2304V16.0714C19.2844 15.4795 19.7638 15 20.3558 15H22.4987C23.0906 15 23.5701 15.4795 23.5701 16.0714V18.2531C25.0821 18.3308 26.5527 18.8571 27.7714 19.7732C28.2937 20.1656 28.3205 20.9478 27.8478 21.3991L26.2741 22.9004C25.9031 23.254 25.3513 23.2701 24.9174 22.9982C24.3991 22.6728 23.8112 22.5 23.2004 22.5H19.4357C18.5652 22.5 17.8554 23.2929 17.8554 24.2665C17.8554 25.0634 18.3388 25.7652 19.0299 25.9714L25.0567 27.7795C27.5464 28.5268 29.2862 30.9161 29.2862 33.5906C29.2862 36.8759 26.7348 39.5424 23.5714 39.6268ZM55.7143 37.5C55.7143 38.092 55.2348 38.5714 54.6429 38.5714H39.6429C39.0509 38.5714 38.5714 38.092 38.5714 37.5V35.3571C38.5714 34.7652 39.0509 34.2857 39.6429 34.2857H54.6429C55.2348 34.2857 55.7143 34.7652 55.7143 35.3571V37.5ZM77.1429 37.5C77.1429 38.092 76.6634 38.5714 76.0714 38.5714H65.3571C64.7652 38.5714 64.2857 38.092 64.2857 37.5V35.3571C64.2857 34.7652 64.7652 34.2857 65.3571 34.2857H76.0714C76.6634 34.2857 77.1429 34.7652 77.1429 35.3571V37.5ZM77.1429 24.6429C77.1429 25.2348 76.6634 25.7143 76.0714 25.7143H39.6429C39.0509 25.7143 38.5714 25.2348 38.5714 24.6429V22.5C38.5714 21.908 39.0509 21.4286 39.6429 21.4286H76.0714C76.6634 21.4286 77.1429 21.908 77.1429 22.5V24.6429Z" fill="url(#paint0_linear)"/>
<defs>
<linearGradient id="paint0_linear" x1="42.8571" y1="0" x2="42.8571" y2="60" gradientUnits="userSpaceOnUse">
<stop stop-color="white"/>
<stop offset="1" stop-color="white" stop-opacity="0.5"/>
</linearGradient>
</defs>
</svg>
