<svg width="26" height="18" viewBox="0 0 26 18" fill="none" xmlns="http://www.w3.org/2000/svg">
<path d="M23.4 0H2.6C1.17 0 0.013 1.0125 0.013 2.25L0 15.75C0 16.9875 1.17 18 2.6 18H23.4C24.83 18 26 16.9875 26 15.75V2.25C26 1.0125 24.83 0 23.4 0ZM22.88 4.78125L13.689 9.75375C13.273 9.97875 12.727 9.97875 12.311 9.75375L3.12 4.78125C2.98965 4.71793 2.87549 4.63237 2.78446 4.52976C2.69342 4.42715 2.62738 4.30963 2.59035 4.18429C2.55331 4.05896 2.54605 3.92843 2.569 3.8006C2.59195 3.67276 2.64464 3.55029 2.72387 3.44059C2.80309 3.33089 2.90722 3.23624 3.02994 3.16237C3.15267 3.0885 3.29143 3.03695 3.43784 3.01084C3.58426 2.98472 3.73527 2.98459 3.88174 3.01044C4.02821 3.0363 4.1671 3.0876 4.29 3.16125L13 7.875L21.71 3.16125C21.8329 3.0876 21.9718 3.0363 22.1183 3.01044C22.2647 2.98459 22.4157 2.98472 22.5622 3.01084C22.7086 3.03695 22.8473 3.0885 22.9701 3.16237C23.0928 3.23624 23.1969 3.33089 23.2761 3.44059C23.3554 3.55029 23.408 3.67276 23.431 3.8006C23.4539 3.92843 23.4467 4.05896 23.4097 4.18429C23.3726 4.30963 23.3066 4.42715 23.2155 4.52976C23.1245 4.63237 23.0104 4.71793 22.88 4.78125Z" fill="#FFFEFE"/>
</svg>
