<svg width="71" height="60" viewBox="0 0 71 60" fill="none" xmlns="http://www.w3.org/2000/svg">
<path d="M35.1971 0C33.6063 0 32.0806 0.631954 30.9557 1.75684C29.8308 2.88172 29.1989 4.4074 29.1989 5.99822C29.1989 7.58905 29.8308 9.11472 30.9557 10.2396C32.0806 11.3645 33.6063 11.9964 35.1971 11.9964C36.7879 11.9964 38.3136 11.3645 39.4385 10.2396C40.5634 9.11472 41.1953 7.58905 41.1953 5.99822C41.1953 4.4074 40.5634 2.88172 39.4385 1.75684C38.3136 0.631954 36.7879 0 35.1971 0ZM21.5992 10.7968C20.0401 10.8456 18.5611 11.4992 17.4755 12.6193C16.3898 13.7394 15.7828 15.2381 15.7828 16.798C15.7828 18.3578 16.3898 19.8565 17.4755 20.9766C18.5611 22.0967 20.0401 22.7504 21.5992 22.7991C23.1908 22.7991 24.7172 22.1669 25.8426 21.0414C26.9681 19.916 27.6003 18.3896 27.6003 16.798C27.6003 15.2064 26.9681 13.6799 25.8426 12.5545C24.7172 11.4291 23.1908 10.7968 21.5992 10.7968ZM48.798 10.7968C47.2388 10.8456 45.7599 11.4992 44.6743 12.6193C43.5886 13.7394 42.9815 15.2381 42.9815 16.798C42.9815 18.3578 43.5886 19.8565 44.6743 20.9766C45.7599 22.0967 47.2388 22.7504 48.798 22.7991C50.3896 22.7991 51.916 22.1669 53.0414 21.0414C54.1669 19.916 54.7991 18.3896 54.7991 16.798C54.7991 15.2064 54.1669 13.6799 53.0414 12.5545C51.916 11.4291 50.3896 10.7968 48.798 10.7968ZM3.95063 17.2027C2.93816 17.1838 1.95871 17.563 1.22284 18.2586C0.522605 18.9177 0.0915516 19.8129 0.0129971 20.7713C-0.0655574 21.7296 0.213965 22.6831 0.797534 23.4473C2.73339 25.9815 6.64323 31.0852 8.57616 33.6106C10.6918 36.3749 11.8381 39.759 11.8378 43.24C11.8378 47.6954 13.9203 51.9396 17.5544 54.5061C19.8041 56.0988 22.2885 57.3864 24.9312 58.3192V46.7832C24.9312 45.0468 25.4914 43.3515 26.3156 41.9377C26.0164 39.1672 24.7762 36.5831 22.8018 34.6166L6.86908 18.5784C6.10354 17.7278 5.03589 17.2027 3.9477 17.1998L3.95063 17.2027ZM66.4553 17.2027C65.4436 17.2174 64.478 17.628 63.7657 18.3466L50.4347 31.7656L47.5954 34.6225C45.6229 36.5883 44.382 39.1695 44.0786 41.9377C44.8559 43.2723 45.4102 44.8503 45.463 46.4811V58.328C48.0875 57.4007 50.571 56.1146 52.8427 54.5061C56.4739 51.9396 58.5594 47.6925 58.5594 43.2371C58.5594 39.7548 59.7044 36.3692 61.8181 33.6018L69.5967 23.4473C70.1802 22.6827 70.4599 21.7291 70.3819 20.7705C70.3039 19.8118 69.8738 18.916 69.1743 18.2557C68.4406 17.5604 67.4631 17.1812 66.4524 17.1998L66.4553 17.2027ZM35.1971 21.5965C33.6457 21.656 32.1775 22.3141 31.1009 23.4327C30.0243 24.5514 29.4228 26.0436 29.4228 27.5962C29.4228 29.1488 30.0243 30.6411 31.1009 31.7597C32.1775 32.8784 33.6457 33.5365 35.1971 33.5959C36.7883 33.5959 38.3144 32.9638 39.4395 31.8386C40.5647 30.7135 41.1968 29.1874 41.1968 27.5962C41.1968 26.005 40.5647 24.479 39.4395 23.3538C38.3144 22.2286 36.7883 21.5965 35.1971 21.5965ZM35.203 38.3974C30.3399 38.3974 26.3978 42.1518 26.3978 46.7861V58.7855C32.1523 60.4048 38.242 60.4048 43.9965 58.7855V46.5251C43.8527 42.014 39.9752 38.4004 35.203 38.4004V38.3974Z" fill="url(#paint0_linear)"/>
<defs>
<linearGradient id="paint0_linear" x1="35.1974" y1="0" x2="35.1974" y2="60" gradientUnits="userSpaceOnUse">
<stop stop-color="white"/>
<stop offset="1" stop-color="white" stop-opacity="0.5"/>
</linearGradient>
</defs>
</svg>
