<svg width="61" height="60" viewBox="0 0 61 60" fill="none" xmlns="http://www.w3.org/2000/svg">
<path fill-rule="evenodd" clip-rule="evenodd" d="M43.4465 28.1297C46.5848 22.3483 48.8492 15.721 48.8492 10.6463C48.8492 9.68087 48.8304 8.80166 48.7916 8.00114H51.8887C53.7422 8.00114 55.1026 9.25918 54.5457 12.4747C54.5457 12.4747 52.1672 23.168 51.8887 24.775C51.6103 26.3819 50.3858 28.1297 48.534 28.1297H43.4465ZM40.338 33.1619C38.6219 35.5982 36.8015 37.6631 35.0344 39.0844C35.3978 44.0495 36.7727 47.6174 38.0479 49.9358H42.1397C43.8875 49.9358 45.2881 51.4387 45.2881 53.2906V54.9678H46.5428C47.8159 54.9678 48.6429 55.9994 48.6429 57.2742V57.6935C48.6429 57.8169 48.6455 57.938 48.648 58.0561C48.6716 59.1583 48.6896 59.9999 46.5428 59.9999H14.2532C12.086 59.9999 11.7405 58.9683 11.7405 57.6935V57.2742C11.7405 55.9994 12.9784 54.9678 14.2532 54.9678H15.0952V53.2906C15.0952 51.4387 17.0477 49.9358 18.7955 49.9358H22.2604C23.5681 47.558 24.9809 43.8658 25.2996 38.6999C23.6785 37.3018 22.0243 35.3867 20.4573 33.1619H10.1991C6.98352 33.1619 3.97933 30.6458 3.42076 28.0593C3.20941 27.0814 0.205218 11.3559 0.205218 11.3559C-0.772696 6.53343 1.8826 2.96899 5.23736 2.96899H12.8146C13.6292 0.691571 15.0173 0.0469685 16.9789 0.0469685C18.027 0.0469685 20.212 0.037602 22.5946 0.0273882C25.4511 0.0151427 28.5917 0.00167922 30.398 0.00167922L42.1397 0C45.1456 -0.00102936 46.9904 0.432224 47.9664 2.96899H55.2435C58.5983 2.96899 61.2552 6.53343 60.2756 11.3559C60.2756 11.3559 57.5365 27.1552 57.305 28.1297C56.7112 30.6458 53.8798 33.1619 50.5955 33.1619H40.338ZM12.0082 8.00114C11.9673 8.80395 11.9468 9.68346 11.9468 10.6463C11.9468 15.721 14.2108 22.3483 17.3489 28.1297H11.9469C10.0951 28.1297 8.87225 26.3819 8.59213 24.775C8.31201 23.168 5.93516 12.4747 5.93516 12.4747C5.37659 9.25918 6.73862 8.00114 8.59213 8.00114H12.0082Z" fill="url(#paint0_linear)"/>
<defs>
<linearGradient id="paint0_linear" x1="31.5" y1="1.41689e-08" x2="30.1966" y2="59.9999" gradientUnits="userSpaceOnUse">
<stop stop-color="#FFFEFE"/>
<stop offset="1" stop-color="white" stop-opacity="0.5"/>
</linearGradient>
</defs>
</svg>
