<svg width="63" height="60" viewBox="0 0 63 60" fill="none" xmlns="http://www.w3.org/2000/svg">
<path d="M31.2467 0C48.5043 0 62.4935 13.9892 62.4935 31.2467C62.4935 44.1517 54.6693 55.2317 43.5048 59.9969L35.6369 39.5303C37.4858 38.5498 38.9534 36.9789 39.8061 35.0678C40.6587 33.1566 40.8473 31.015 40.3418 28.9843C39.8363 26.9535 38.6658 25.1502 37.0167 23.8618C35.3676 22.5734 33.3348 21.8738 31.242 21.8745C29.1493 21.8753 27.117 22.5763 25.4688 23.8659C23.8206 25.1555 22.6514 26.9596 22.1473 28.9907C21.6432 31.0219 21.8334 33.1633 22.6874 35.0738C23.5413 36.9844 25.0101 38.5543 26.8597 39.5334L18.9918 60C13.3571 57.5954 8.55306 53.5882 5.1766 48.4763C1.80014 43.3644 6.29494e-05 37.3731 0 31.2467C0 13.9892 13.9892 0 31.2467 0Z" fill="url(#paint0_linear)"/>
<defs>
<linearGradient id="paint0_linear" x1="31.2467" y1="0" x2="31.2467" y2="60" gradientUnits="userSpaceOnUse">
<stop stop-color="white"/>
<stop offset="1" stop-color="white" stop-opacity="0.5"/>
</linearGradient>
</defs>
</svg>
