<svg width="45" height="60" viewBox="0 0 45 60" fill="none" xmlns="http://www.w3.org/2000/svg">
<path d="M27.3488 0H7.5C5.51088 0 3.60322 0.790176 2.1967 2.1967C0.790176 3.60322 0 5.51088 0 7.5V52.5C0 54.4891 0.790176 56.3968 2.1967 57.8033C3.60322 59.2098 5.51088 60 7.5 60H37.5C39.4891 60 41.3968 59.2098 42.8033 57.8033C44.2098 56.3968 45 54.4891 45 52.5V17.6512C44.9998 16.6568 44.6046 15.7031 43.9012 15L30 1.09875C29.2969 0.39544 28.3432 0.00021239 27.3488 0V0ZM28.125 13.125V5.625L39.375 16.875H31.875C30.8804 16.875 29.9266 16.4799 29.2234 15.7766C28.5201 15.0734 28.125 14.1196 28.125 13.125ZM17.4225 28.6725C17.5968 28.4982 17.8038 28.3599 18.0316 28.2655C18.2593 28.1712 18.5035 28.1226 18.75 28.1226C18.9965 28.1226 19.2407 28.1712 19.4684 28.2655C19.6962 28.3599 19.9032 28.4982 20.0775 28.6725C20.2518 28.8468 20.3901 29.0538 20.4845 29.2816C20.5788 29.5093 20.6274 29.7535 20.6274 30C20.6274 30.2465 20.5788 30.4907 20.4845 30.7184C20.3901 30.9462 20.2518 31.1532 20.0775 31.3275L13.9012 37.5L20.0775 43.6725C20.4296 44.0246 20.6274 44.5021 20.6274 45C20.6274 45.4979 20.4296 45.9754 20.0775 46.3275C19.7254 46.6796 19.2479 46.8774 18.75 46.8774C18.2521 46.8774 17.7746 46.6796 17.4225 46.3275L9.9225 38.8275C9.74789 38.6533 9.60935 38.4464 9.51483 38.2186C9.4203 37.9908 9.37165 37.7466 9.37165 37.5C9.37165 37.2534 9.4203 37.0092 9.51483 36.7814C9.60935 36.5536 9.74789 36.3467 9.9225 36.1725L17.4225 28.6725ZM27.5775 28.6725L35.0775 36.1725C35.2521 36.3467 35.3906 36.5536 35.4852 36.7814C35.5797 37.0092 35.6283 37.2534 35.6283 37.5C35.6283 37.7466 35.5797 37.9908 35.4852 38.2186C35.3906 38.4464 35.2521 38.6533 35.0775 38.8275L27.5775 46.3275C27.2254 46.6796 26.7479 46.8774 26.25 46.8774C25.7521 46.8774 25.2746 46.6796 24.9225 46.3275C24.5704 45.9754 24.3726 45.4979 24.3726 45C24.3726 44.5021 24.5704 44.0246 24.9225 43.6725L31.0988 37.5L24.9225 31.3275C24.7482 31.1532 24.6099 30.9462 24.5155 30.7184C24.4212 30.4907 24.3726 30.2465 24.3726 30C24.3726 29.7535 24.4212 29.5093 24.5155 29.2816C24.6099 29.0538 24.7482 28.8468 24.9225 28.6725C25.0968 28.4982 25.3038 28.3599 25.5316 28.2655C25.7593 28.1712 26.0035 28.1226 26.25 28.1226C26.4965 28.1226 26.7407 28.1712 26.9684 28.2655C27.1962 28.3599 27.4032 28.4982 27.5775 28.6725Z" fill="url(#paint0_linear)"/>
<defs>
<linearGradient id="paint0_linear" x1="22.5" y1="0" x2="22.5" y2="60" gradientUnits="userSpaceOnUse">
<stop stop-color="white"/>
<stop offset="1" stop-color="white" stop-opacity="0.5"/>
</linearGradient>
</defs>
</svg>
