<svg width="60" height="60" viewBox="0 0 60 60" fill="none" xmlns="http://www.w3.org/2000/svg">
<path d="M26.2207 15.3223L18.1195 1.8211C17.7864 1.2657 17.3151 0.80604 16.7516 0.486897C16.1881 0.167754 15.5515 7.95149e-06 14.9039 0H1.87844C0.360854 0 -0.52743 1.70743 0.342104 2.95079L13.3816 21.579C16.8644 18.3247 21.2941 16.0911 26.2207 15.3223ZM58.1216 0H45.0961C43.7789 0 42.5578 0.691408 41.8805 1.8211L33.7793 15.3223C38.7059 16.0911 43.1356 18.3247 46.6184 21.5778L59.6579 2.95079C60.5274 1.70743 59.6391 0 58.1216 0ZM30 18.7501C18.6093 18.7501 9.37494 27.9845 9.37494 39.3751C9.37494 50.7658 18.6093 60.0002 30 60.0002C41.3907 60.0002 50.6251 50.7658 50.6251 39.3751C50.6251 27.9845 41.3907 18.7501 30 18.7501ZM40.8422 37.179L36.3973 41.5103L37.4485 47.6298C37.636 48.7267 36.4805 49.5646 35.4973 49.0466L30 46.1579L24.5039 49.0466C23.5195 49.5681 22.3652 48.7255 22.5527 47.6298L23.6039 41.5103L19.159 37.179C18.3597 36.4009 18.8015 35.0427 19.9031 34.8833L26.0473 33.988L28.793 28.4192C29.0402 27.9177 29.5184 27.6704 29.9977 27.6704C30.4793 27.6704 30.9609 27.9212 31.2082 28.4192L33.9539 33.988L40.0981 34.8833C41.1996 35.0427 41.6414 36.4009 40.8422 37.179Z" fill="url(#paint0_linear)"/>
<defs>
<linearGradient id="paint0_linear" x1="30" y1="0" x2="30" y2="60.0002" gradientUnits="userSpaceOnUse">
<stop stop-color="white"/>
<stop offset="1" stop-color="white" stop-opacity="0.5"/>
</linearGradient>
</defs>
</svg>
