<svg width="46" height="60" viewBox="0 0 46 60" fill="none" xmlns="http://www.w3.org/2000/svg">
<path d="M43.2189 24.7781C41.4001 23.7445 39.1278 24.5109 38.1435 26.3812L33.2943 36.273C33.2034 36.4603 33.0447 36.606 32.8504 36.6807C32.6561 36.7553 32.4406 36.7533 32.2478 36.675C32.0949 36.6141 31.964 36.5087 31.8718 36.3725C31.7796 36.2362 31.7306 36.0754 31.731 35.9109V8.4375C31.731 6.80742 30.2251 5.625 28.5939 5.625C26.9626 5.625 25.547 6.80742 25.547 8.4375V26.7938C25.5509 27.1366 25.421 27.4674 25.1849 27.716C24.9488 27.9646 24.6251 28.1113 24.2825 28.125C24.1112 28.1283 23.9409 28.0973 23.7817 28.034C23.6224 27.9707 23.4774 27.8763 23.3551 27.7563C23.2328 27.6362 23.1356 27.493 23.0693 27.335C23.003 27.177 22.9688 27.0073 22.9689 26.8359V2.8125C22.9689 1.18242 21.6868 0 20.0556 0C18.4243 0 17.1095 1.18242 17.1095 2.8125V26.7938C17.1134 27.1366 16.9835 27.4674 16.7474 27.716C16.5113 27.9646 16.1876 28.1113 15.845 28.125C15.6737 28.1283 15.5034 28.0973 15.3442 28.034C15.1849 27.9707 15.0399 27.8763 14.9176 27.7563C14.7953 27.6362 14.6981 27.493 14.6318 27.335C14.5655 27.177 14.5313 27.0073 14.5314 26.8359V6.5625C14.5314 4.93242 13.1157 3.75 11.4845 3.75C9.85324 3.75 8.43761 5.04961 8.43761 6.67969V28.6688C8.44155 29.0116 8.31166 29.3424 8.07555 29.591C7.83945 29.8396 7.51572 29.9863 7.17316 30C7.00182 30.0033 6.83154 29.9723 6.6723 29.909C6.51305 29.8457 6.36802 29.7513 6.2457 29.6313C6.12338 29.5112 6.02623 29.368 5.95991 29.21C5.8936 29.052 5.85946 28.8823 5.85949 28.7109V14.0625C5.85949 12.4324 4.56105 11.25 2.9298 11.25C1.29855 11.25 -0.0139505 12.4477 0.000111955 14.0625V39.375C0.000111955 53.134 8.43761 60 18.7501 60H20.6251C30.9376 60 34.1849 55.3594 36.5626 49.6875L44.6146 29.8828C45.3903 27.7734 45.0364 25.8105 43.2189 24.7781Z" fill="url(#paint0_linear)"/>
<defs>
<linearGradient id="paint0_linear" x1="22.5008" y1="0" x2="22.5008" y2="60" gradientUnits="userSpaceOnUse">
<stop stop-color="white"/>
<stop offset="1" stop-color="white" stop-opacity="0.5"/>
</linearGradient>
</defs>
</svg>
