<svg width="39" height="38" viewBox="0 0 39 38" fill="none" xmlns="http://www.w3.org/2000/svg">
<g filter="url(#filter0_d)">
<path fill-rule="evenodd" clip-rule="evenodd" d="M27.1276 6.10044C26.9714 6.21279 26.959 6.28416 27.0882 6.32692C27.22 6.3706 27.223 6.36866 27.1908 6.26237C27.168 6.18723 27.1943 6.16692 27.3143 6.16692C27.4043 6.16692 27.4667 6.19558 27.4667 6.23692C27.4667 6.2754 27.5198 6.30691 27.5847 6.30691C27.7153 6.30691 27.7446 6.18291 27.629 6.12029C27.5884 6.09835 27.5088 6.08695 27.452 6.09504C27.3952 6.10308 27.3488 6.08532 27.3488 6.05559C27.3488 5.97735 27.2788 5.9915 27.1276 6.10044ZM29.2092 6.07005C29.1339 6.11759 29.1214 6.14976 29.1685 6.17486C29.267 6.22745 29.2517 6.30691 29.143 6.30691C29.0916 6.30691 29.0606 6.33557 29.0741 6.37055C29.0887 6.40806 29.2009 6.43418 29.3476 6.43418C29.5581 6.43418 29.5921 6.42013 29.5685 6.3425C29.5427 6.25713 29.5546 6.25784 29.7408 6.35263C29.8577 6.41219 29.9555 6.43408 29.9761 6.40532C29.9955 6.37828 30.039 6.3709 30.0729 6.38897C30.144 6.4269 30.2369 6.31969 30.2383 6.19813C30.2389 6.14401 30.1763 6.1069 30.0597 6.09209C29.9209 6.07453 29.8876 6.08608 29.9128 6.14289C29.9357 6.19421 29.9171 6.20703 29.8516 6.1853C29.7999 6.16819 29.6602 6.15272 29.5412 6.15099C29.3522 6.14814 29.3416 6.14193 29.4576 6.10171C29.5305 6.07636 29.5903 6.04347 29.5903 6.02856C29.5903 5.97363 29.3145 6.00366 29.2092 6.07005ZM27.978 6.13724C27.9563 6.15587 27.9408 6.2189 27.9433 6.27723C27.9458 6.33557 27.9617 6.3537 27.9785 6.3175C28.0019 6.26731 28.0285 6.26563 28.0911 6.31053C28.1552 6.35634 28.1817 6.35008 28.212 6.28207C28.2627 6.16804 28.0761 6.05253 27.978 6.13724ZM28.8235 6.15119C28.8235 6.18082 28.7852 6.2051 28.7384 6.2051C28.6917 6.2051 28.6371 6.22801 28.617 6.25601C28.5957 6.28569 28.6557 6.30691 28.761 6.30691C28.9392 6.30691 29.0132 6.19848 28.8824 6.12874C28.85 6.11143 28.8235 6.12156 28.8235 6.15119ZM30.4161 6.20403C30.3675 6.23055 30.3276 6.2811 30.3276 6.31628C30.3276 6.35146 30.2622 6.40842 30.1822 6.44288C30.0564 6.497 30.0843 6.50143 30.3886 6.47582C30.7623 6.44436 30.9979 6.33043 30.887 6.23473C30.8425 6.19634 30.8079 6.20271 30.7685 6.25641C30.7213 6.32086 30.7127 6.31888 30.7119 6.24328C30.711 6.14615 30.5591 6.12599 30.4161 6.20403ZM31.027 6.34489C30.9851 6.48305 30.9994 6.53574 31.0797 6.5391C31.1962 6.54404 31.2969 6.45877 31.2634 6.38348C31.2133 6.27102 31.0571 6.24547 31.027 6.34489ZM31.4518 6.31964C31.3649 6.56659 31.3721 6.61235 31.4982 6.61159C31.6023 6.61093 31.6093 6.60171 31.5369 6.56068C31.476 6.52617 31.4686 6.49863 31.5132 6.47236C31.5896 6.42736 31.5991 6.25601 31.5252 6.25601C31.4971 6.25601 31.4641 6.28467 31.4518 6.31964ZM31.6843 6.40873C31.6643 6.43672 31.6893 6.45963 31.7399 6.45963C31.7904 6.45963 31.8318 6.43672 31.8318 6.40873C31.8318 6.38073 31.8069 6.35782 31.7763 6.35782C31.7458 6.35782 31.7044 6.38073 31.6843 6.40873ZM32.016 6.52464C31.9796 6.5561 31.9498 6.61994 31.9498 6.66652C31.9498 6.73183 32.0055 6.75117 32.1936 6.75117C32.3649 6.75117 32.4548 6.7778 32.4955 6.84062C32.5427 6.91336 32.563 6.91703 32.6047 6.86027C32.6408 6.81099 32.6561 6.83161 32.6568 6.93052C32.6573 7.01512 32.6898 7.07051 32.7389 7.07051C32.7836 7.07051 32.8519 7.1035 32.8907 7.14387C32.9295 7.18418 32.9991 7.20465 33.0454 7.18932C33.0917 7.17395 33.1295 7.19004 33.1295 7.22501C33.1295 7.2864 33.4484 7.57957 33.5153 7.57957C33.5683 7.57957 33.8335 7.85472 33.8355 7.91189C33.8366 7.94065 33.8838 7.99991 33.9406 8.04359C34.1563 8.20949 34.3066 8.39632 34.3541 8.55769C34.3824 8.65349 34.4589 8.74645 34.5333 8.77521C34.6048 8.80285 34.6632 8.84297 34.6632 8.8643C34.6632 8.95247 34.8289 8.89494 34.8588 8.79644C34.8963 8.67243 34.8523 8.5468 34.7714 8.5468C34.7405 8.5468 34.7318 8.52373 34.7519 8.49553C34.7721 8.46733 34.7339 8.37789 34.6669 8.29679C34.6 8.21565 34.5452 8.10208 34.5452 8.0444C34.5452 7.98672 34.4922 7.915 34.4273 7.88501C34.3624 7.85503 34.3093 7.78549 34.3093 7.73051C34.3093 7.67548 34.2887 7.63048 34.2635 7.63048C34.1535 7.63048 33.8281 7.31756 33.8611 7.24344C33.8852 7.18927 33.8655 7.17003 33.7978 7.18133C33.6647 7.20363 33.6253 7.32504 33.7512 7.32504C33.8336 7.32504 33.8386 7.33874 33.7789 7.40084C33.6793 7.50449 33.5845 7.44162 33.6172 7.29363C33.632 7.22689 33.6212 7.17232 33.5932 7.17232C33.5653 7.17232 33.5425 7.13867 33.5425 7.09754C33.5425 7.05646 33.5084 7.03411 33.4667 7.04791C33.3861 7.07458 33.1295 6.89651 33.1295 6.81399C33.1295 6.78706 33.0926 6.76507 33.0474 6.76507C33.0022 6.76507 32.9506 6.73234 32.9328 6.69227C32.9142 6.65033 32.7802 6.60589 32.6168 6.58741C32.4609 6.56974 32.2768 6.53553 32.2077 6.5114C32.1279 6.48346 32.0582 6.48829 32.016 6.52464ZM31.7185 6.69294C31.7213 6.75224 31.7353 6.76431 31.7541 6.72373C31.7712 6.68698 31.7691 6.64305 31.7495 6.62615C31.7299 6.60925 31.716 6.63928 31.7185 6.69294ZM32.4807 6.6348C32.4807 6.64717 32.4541 6.6714 32.4217 6.68871C32.3893 6.70602 32.3627 6.69589 32.3627 6.66626C32.3627 6.63663 32.3893 6.61235 32.4217 6.61235C32.4541 6.61235 32.4807 6.62243 32.4807 6.6348ZM34.5744 9.19585C34.6027 9.52629 34.4905 10.1891 34.3951 10.2553C34.3522 10.285 34.299 10.3715 34.277 10.4474C34.2549 10.5233 34.1873 10.6154 34.1266 10.6521C34.0285 10.7114 34.0257 10.7294 34.102 10.8163C34.2227 10.954 34.2127 10.9776 34.0337 10.9776C33.947 10.9776 33.839 11.0205 33.7936 11.073C33.7482 11.1255 33.6879 11.1632 33.6597 11.1567C33.5763 11.1377 33.3692 11.3975 33.4045 11.4769C33.4223 11.5169 33.4552 11.5399 33.4777 11.5279C33.5002 11.5159 33.5571 11.5271 33.6043 11.5529C33.665 11.586 33.6235 11.5999 33.4618 11.6004C33.2542 11.6011 33.237 11.6115 33.2693 11.7157C33.2889 11.7787 33.3053 11.849 33.3057 11.8718C33.3062 11.8948 33.3594 11.899 33.4241 11.8813C33.5124 11.8571 33.5333 11.868 33.508 11.9248C33.4611 12.0305 33.3065 12.0738 33.3065 11.9814C33.3065 11.9403 33.2639 11.9066 33.2117 11.9066C33.1511 11.9066 33.1293 11.8787 33.1514 11.8291C33.1795 11.7658 33.1644 11.7615 33.0692 11.8054C33.0051 11.835 32.9526 11.8945 32.9526 11.9375C32.9526 11.9805 32.9113 12.0512 32.861 12.0947C32.7978 12.1493 32.7813 12.2206 32.8079 12.3249C32.84 12.451 32.8292 12.4731 32.7431 12.4586C32.6072 12.4356 32.5736 12.2264 32.6897 12.1262C32.8228 12.0114 32.7452 11.9806 32.571 12.0791C32.4889 12.1255 32.4217 12.2032 32.4217 12.2517C32.4217 12.301 32.3425 12.3702 32.2421 12.4086C32.1372 12.4486 32.0664 12.512 32.0719 12.561C32.0917 12.7362 32.0628 12.772 31.9019 12.772C31.786 12.772 31.6966 12.818 31.6052 12.9247C31.5332 13.0087 31.4249 13.0775 31.3645 13.0775C31.304 13.0775 31.2393 13.1118 31.2206 13.1538C31.2019 13.1958 31.2124 13.2302 31.2438 13.2302C31.2752 13.2302 31.3009 13.2645 31.3009 13.3065C31.3009 13.3485 31.2611 13.3829 31.2124 13.3829C31.1638 13.3829 31.124 13.4043 31.124 13.4304C31.124 13.4565 31.0709 13.4924 31.006 13.5102C30.9411 13.5279 30.888 13.5756 30.888 13.6161C30.888 13.6954 30.7884 13.8656 30.6623 14.0021C30.6192 14.0488 30.5902 14.1289 30.5979 14.1803C30.6146 14.2918 30.5383 14.5566 30.4669 14.6354C30.4389 14.6663 30.417 14.7465 30.4183 14.8136C30.4195 14.8807 30.4205 15.0272 30.4206 15.1392C30.4207 15.4633 30.4417 15.5949 30.4993 15.6308C30.5288 15.6493 30.5598 15.718 30.5681 15.7835C30.5764 15.8491 30.5855 15.9187 30.5882 15.938C30.5909 15.9575 30.6692 16.0122 30.7622 16.0596C30.8552 16.107 30.9664 16.2229 31.0092 16.317C31.052 16.4112 31.1218 16.4882 31.1645 16.4882C31.2071 16.4882 31.2419 16.5218 31.2419 16.563C31.2419 16.6087 31.2765 16.6263 31.3309 16.6083C31.3798 16.592 31.4882 16.6175 31.5718 16.6647C31.7138 16.7451 31.7175 16.7567 31.6272 16.8427C31.5366 16.9291 31.5431 16.9414 31.7341 17.0433C31.846 17.1029 31.9802 17.2079 32.0323 17.2765C32.0959 17.3603 32.1594 17.3905 32.2256 17.3686C32.3035 17.3428 32.3152 17.3561 32.2814 17.4323C32.2578 17.4853 32.2568 17.5129 32.2792 17.4935C32.3016 17.4743 32.3934 17.5036 32.4831 17.5588C32.5729 17.6139 32.6978 17.659 32.7606 17.659C32.8235 17.659 33.0247 17.7804 33.2078 17.9286C33.3909 18.0768 33.5499 18.1744 33.561 18.1454C33.5891 18.0729 33.7784 18.2432 33.7784 18.3408C33.7784 18.4918 34.269 18.6033 34.3226 18.4645C34.3353 18.4316 34.3771 18.4213 34.4154 18.4418C34.5044 18.4893 34.3735 18.6248 34.2713 18.591C34.2339 18.5786 34.1857 18.5929 34.1643 18.6228C34.1309 18.6695 34.3865 18.7078 34.5624 18.6825C34.588 18.6788 34.6646 18.7015 34.7326 18.7329C34.8304 18.7781 34.8393 18.7989 34.7752 18.8331C34.7106 18.8675 34.722 18.8985 34.8315 18.9865L34.9687 19.0968L34.8012 19.1917C34.7091 19.244 34.5913 19.2751 34.5395 19.2609C34.4398 19.2337 34.0921 19.3548 33.8251 19.5097C33.7058 19.579 33.6703 19.6366 33.6848 19.7379C33.6955 19.8125 33.6921 19.8391 33.6774 19.7971C33.6216 19.6387 33.48 19.5924 33.2987 19.6734C33.2056 19.7148 33.1295 19.7711 33.1295 19.7984C33.1295 19.8257 33.0915 19.848 33.045 19.848C32.9966 19.848 32.9525 19.9079 32.9417 19.988C32.9292 20.0824 32.8846 20.1328 32.8049 20.1426C32.665 20.1599 32.4807 20.4154 32.4807 20.5919C32.4807 20.6605 32.4409 20.7298 32.3922 20.7459C32.3435 20.762 32.3037 20.8066 32.3037 20.8449C32.3037 20.8951 32.2544 20.906 32.1268 20.884C31.9882 20.86 31.9498 20.8714 31.9498 20.9361C31.9498 20.9817 31.9896 21.0189 32.0383 21.0189C32.0869 21.0189 32.1268 21.0557 32.1268 21.1007C32.1268 21.1566 32.0952 21.172 32.0268 21.1494C31.9347 21.1188 31.9349 21.1239 32.0292 21.2138C32.1268 21.3069 32.1258 21.3126 32.0058 21.3397C31.9029 21.3629 31.8892 21.3894 31.9297 21.4862C31.9568 21.5511 31.9791 21.7536 31.9792 21.9361C31.9793 22.2002 32.0057 22.2969 32.1084 22.4099C32.1794 22.4879 32.2799 22.6621 32.3318 22.7969C32.4414 23.0817 32.7935 23.4115 32.9879 23.4115C33.1248 23.4115 33.2298 23.5671 33.1594 23.6655C33.1392 23.6938 33.1576 23.7169 33.2003 23.7169C33.2432 23.7169 33.3113 23.7627 33.3518 23.8187C33.3923 23.8747 33.4743 23.9205 33.534 23.9205C33.6036 23.9205 33.6807 23.9937 33.7489 24.1242C33.8074 24.2362 33.8911 24.3278 33.9348 24.3278C33.9786 24.3278 34.0144 24.3507 34.0144 24.3787C34.0144 24.4067 34.0807 24.4296 34.1618 24.4296C34.2536 24.4296 34.3093 24.4585 34.3093 24.506C34.3093 24.548 34.3491 24.5823 34.3978 24.5823C34.4464 24.5823 34.4863 24.6067 34.4863 24.6365C34.4863 24.6663 34.5409 24.8003 34.6077 24.9342C34.696 25.1113 34.7925 25.2085 34.9616 25.2905C35.0895 25.3526 35.1941 25.424 35.1941 25.4492C35.1941 25.4744 35.2737 25.5654 35.3711 25.6513C35.4684 25.7373 35.548 25.8383 35.548 25.8759C35.548 25.9136 35.5879 25.9728 35.6365 26.0077C35.6852 26.0426 35.725 26.1113 35.725 26.1604C35.725 26.2095 35.7665 26.2795 35.8173 26.3158C35.8741 26.3565 35.8969 26.4255 35.8766 26.4952C35.8207 26.6873 35.9072 27.0767 36.0057 27.0767C36.0727 27.0767 36.0777 27.093 36.0273 27.1455C35.9586 27.2169 35.9424 27.3668 35.9798 27.5858C35.9917 27.6558 35.9628 27.7646 35.9154 27.8277C35.8673 27.8916 35.8447 27.9929 35.8642 28.0568C35.8834 28.1197 35.8834 28.2872 35.8642 28.429C35.8375 28.6263 35.7999 28.6978 35.7034 28.7344C35.6181 28.7667 35.5835 28.8189 35.596 28.8966C35.6061 28.9597 35.5929 29.0112 35.5665 29.0112C35.5401 29.0112 35.5202 29.0856 35.5221 29.1766C35.5262 29.3629 35.4476 29.4847 35.3551 29.4354C35.3163 29.4147 35.3058 29.4431 35.3268 29.5122C35.3451 29.5726 35.3359 29.6348 35.3065 29.6505C35.2772 29.6661 35.2531 29.7183 35.2531 29.7664C35.2531 29.8145 35.1713 29.9312 35.0712 30.0257C34.9713 30.1202 34.8655 30.2517 34.8364 30.3179C34.8072 30.3842 34.7231 30.4621 34.6495 30.491C34.3403 30.6127 34.1816 30.7047 34.1471 30.7823C34.0791 30.9352 33.93 31.0474 33.7948 31.0474C33.6829 31.0474 33.6601 31.0751 33.6587 31.2129C33.6571 31.3507 33.6467 31.3634 33.5963 31.2885C33.5422 31.2083 33.5261 31.207 33.4464 31.2758C33.3972 31.3182 33.3247 31.3529 33.2853 31.3529C33.2042 31.3529 32.8102 31.5193 32.6938 31.6027C32.6517 31.6327 32.5401 31.6649 32.4458 31.6741C32.3514 31.6832 32.2162 31.7178 32.1454 31.7509C32.0745 31.784 31.9632 31.811 31.8982 31.811C31.8331 31.811 31.7648 31.8319 31.7465 31.8575C31.7282 31.8831 31.6072 31.9195 31.4776 31.9383C31.348 31.9572 31.2419 31.9936 31.2419 32.0191C31.2419 32.0447 31.2005 32.0656 31.15 32.0656C31.0994 32.0656 31.0742 32.0882 31.0941 32.1159C31.1147 32.1447 31.0911 32.1533 31.0386 32.1359C30.9882 32.1192 30.947 32.1309 30.947 32.1619C30.947 32.1929 30.9072 32.2183 30.8585 32.2183C30.8099 32.2183 30.77 32.2405 30.77 32.2676C30.77 32.2947 30.7256 32.3022 30.6713 32.2842C30.5947 32.2588 30.5817 32.2719 30.613 32.3424C30.6471 32.4189 30.6301 32.4282 30.5052 32.4011C30.3563 32.3689 30.322 32.4186 30.3546 32.6197C30.3619 32.6652 30.3321 32.679 30.2708 32.6588C30.2154 32.6404 30.1623 32.6574 30.1435 32.6995C30.1259 32.7393 30.075 32.7598 30.0306 32.7451C29.9249 32.7101 29.6767 32.8572 29.7634 32.9034C29.8475 32.9483 29.6937 33.0837 29.5587 33.0837C29.4868 33.0837 29.4719 33.108 29.5043 33.1728C29.5288 33.2217 29.5538 33.3396 29.5599 33.4346C29.5659 33.5296 29.6111 33.6327 29.6604 33.6638C29.7097 33.695 29.7701 33.7749 29.7946 33.8415C29.829 33.9351 29.8508 33.9466 29.8908 33.8922C29.9317 33.8364 29.9426 33.8403 29.9433 33.9109C29.9438 33.9599 29.9869 34 30.039 34C30.0991 34 30.1214 33.972 30.0998 33.9236C30.0812 33.8816 30.0945 33.8473 30.1294 33.8473C30.1677 33.8473 30.1783 33.7968 30.1559 33.72C30.1346 33.6466 30.1444 33.5927 30.179 33.5927C30.2121 33.5927 30.2392 33.5194 30.2392 33.4298C30.2392 33.3112 30.2568 33.2822 30.3042 33.323C30.3515 33.3639 30.4837 33.343 30.7908 33.246C31.0227 33.1728 31.2213 33.0949 31.2321 33.0728C31.2429 33.0508 31.2894 33.0328 31.3353 33.0328C31.3813 33.0328 31.4189 33.0106 31.4189 32.9834C31.4189 32.9564 31.4587 32.9474 31.5074 32.9634C31.5642 32.9823 31.5959 32.9624 31.5959 32.908C31.5959 32.8528 31.6216 32.8371 31.6696 32.8631C31.7822 32.924 32.2404 32.8894 32.4361 32.8051C32.5321 32.7638 32.7011 32.7154 32.8117 32.6975C32.9223 32.6795 33.0274 32.6446 33.0452 32.6198C33.0629 32.5949 33.1673 32.5746 33.277 32.5746C33.3867 32.5746 33.4934 32.551 33.5141 32.5221C33.5348 32.4932 33.6758 32.4228 33.8273 32.3657C34.3295 32.1765 34.4996 32.0948 34.5289 32.0289C34.5448 31.9931 34.6099 31.9637 34.6735 31.9637C34.7565 31.9637 34.7801 31.9386 34.757 31.8747C34.726 31.789 34.9892 31.5931 35.2678 31.4945C35.3837 31.4535 35.394 31.4121 35.3152 31.3046C35.2768 31.2522 35.3026 31.1977 35.4046 31.1161C35.4835 31.053 35.548 30.9452 35.548 30.8764C35.548 30.7782 35.5723 30.757 35.6615 30.7771C35.7452 30.796 35.8011 30.7592 35.874 30.6376C35.9284 30.5468 36.0419 30.4129 36.1262 30.3402C36.2562 30.228 36.2643 30.2054 36.1795 30.1913C36.0933 30.1769 36.1013 30.1498 36.2383 29.9949C36.3467 29.8723 36.3931 29.763 36.3844 29.6511C36.3761 29.5454 36.4102 29.4567 36.48 29.4022C36.5606 29.3393 36.5845 29.2583 36.5729 29.0879C36.5606 28.9075 36.577 28.8585 36.6499 28.8585C36.7205 28.8585 36.7345 28.8236 36.7085 28.7117C36.6871 28.6191 36.714 28.498 36.7814 28.3839C36.8568 28.2563 36.8699 28.1869 36.8258 28.1489C36.7816 28.1108 36.783 28.0949 36.8303 28.0949C36.8672 28.0949 36.8967 28.0548 36.8957 28.0058C36.8948 27.9568 36.8999 27.8004 36.9069 27.6581C36.914 27.5159 36.8892 27.3504 36.8519 27.2902C36.8015 27.2089 36.8011 27.1574 36.8506 27.089C36.9017 27.0184 36.8951 26.9519 36.8224 26.8016C36.7704 26.6941 36.7278 26.5066 36.7278 26.3849C36.7278 26.1954 36.713 26.1684 36.6246 26.197C36.5353 26.2259 36.5319 26.2192 36.6 26.1469C36.6669 26.0759 36.6603 26.0465 36.5557 25.9496C36.4881 25.887 36.4328 25.7956 36.4328 25.7465C36.4328 25.6975 36.4038 25.6418 36.3682 25.6229C36.3326 25.6039 36.3159 25.5166 36.3312 25.429C36.3523 25.307 36.3181 25.225 36.1858 25.0802C36.0907 24.9761 36.0088 24.8443 36.0038 24.7875C35.9989 24.7307 35.9761 24.6841 35.9532 24.6841C35.8975 24.6841 35.4296 24.2944 35.4564 24.2704C35.468 24.2599 35.4137 24.2102 35.3358 24.1599C35.2579 24.1096 35.1941 24.0925 35.1941 24.1218C35.1941 24.1511 35.1658 24.1751 35.1312 24.1751C35.0965 24.1751 35.0832 24.1343 35.1015 24.0844C35.1223 24.0278 35.0905 23.9662 35.017 23.9204C34.9522 23.8801 34.8992 23.8179 34.8992 23.782C34.8992 23.7462 34.8709 23.7169 34.8364 23.7169C34.8018 23.7169 34.7066 23.6482 34.6247 23.5642C34.5428 23.4802 34.4392 23.4115 34.3944 23.4115C34.3497 23.4115 34.2748 23.3484 34.2281 23.2715C34.1814 23.1945 34.1208 23.1372 34.0935 23.1442C34.0662 23.1512 34.0405 23.134 34.0365 23.106C34.0324 23.078 34.0258 23.0322 34.0217 23.0042C34.0177 22.9762 33.9745 22.9533 33.9259 22.9533C33.8772 22.9533 33.8374 22.9171 33.8374 22.8729C33.8374 22.8101 33.7988 22.7998 33.6604 22.826C33.4802 22.8602 33.4327 22.8139 33.5469 22.7153C33.5922 22.6762 33.5235 22.5854 33.3065 22.3982C32.9751 22.1121 32.9118 21.9554 32.9421 21.4957C32.9497 21.3798 32.9871 21.3284 33.0786 21.3078C33.1859 21.2835 33.1991 21.2543 33.1672 21.1109C33.1439 21.0064 33.1494 20.9689 33.1816 21.0121C33.2236 21.0684 33.2575 21.0612 33.3585 20.974C33.4273 20.9147 33.52 20.8661 33.5648 20.8661C33.6094 20.8661 33.6788 20.832 33.7189 20.7903C33.759 20.7487 33.8135 20.7262 33.8401 20.7404C33.8979 20.7712 34.2497 20.4583 34.25 20.3758C34.2502 20.344 34.3143 20.3075 34.3924 20.2946C34.4942 20.2778 34.5258 20.2906 34.5041 20.3396C34.4845 20.3835 34.5181 20.408 34.5979 20.408C34.6663 20.408 34.7222 20.3851 34.7222 20.3571C34.7222 20.3291 34.7827 20.3062 34.8565 20.3062C34.9304 20.3062 35.0433 20.2747 35.1072 20.2361C35.1712 20.1976 35.3629 20.1496 35.5332 20.1296C35.7035 20.1095 35.8577 20.0723 35.8759 20.0469C35.8941 20.0215 35.9715 20.0007 36.048 20.0007C36.1245 20.0007 36.2004 19.9721 36.2168 19.9371C36.2406 19.8862 36.2475 19.8862 36.2512 19.9371C36.2571 20.0166 36.376 20.0182 36.5912 19.9417C36.6825 19.9092 36.7905 19.8873 36.831 19.893C36.8716 19.8987 36.9048 19.868 36.9048 19.8248C36.9048 19.7816 36.875 19.7462 36.8386 19.7462C36.7917 19.7462 36.7931 19.7246 36.8432 19.6725C36.8822 19.632 36.9219 19.5232 36.9315 19.4307C36.941 19.3382 36.9675 19.1809 36.9903 19.0812C37.0309 18.9034 36.9391 18.7558 36.8077 18.7877C36.731 18.8063 36.3739 18.6305 36.3739 18.574C36.3739 18.5467 36.334 18.5245 36.2854 18.5245C36.2367 18.5245 36.1969 18.5015 36.1969 18.4735C36.1969 18.4455 36.0907 18.4226 35.9609 18.4226C35.8312 18.4226 35.725 18.3997 35.725 18.3717C35.725 18.3437 35.6517 18.3208 35.562 18.3208C35.4571 18.3208 35.3597 18.2755 35.2883 18.1936C35.2274 18.1236 35.1433 18.0663 35.1014 18.0663C35.0595 18.0663 34.9694 17.9987 34.9013 17.9161C34.7975 17.7903 34.7456 17.7695 34.5816 17.7876C34.4142 17.8061 34.3753 17.7892 34.3127 17.6705C34.2724 17.5942 34.2371 17.5203 34.2343 17.5063C34.2136 17.4021 34.0273 17.3318 33.7047 17.3062C33.6804 17.3043 33.6604 17.2569 33.6604 17.2009C33.6604 17.1239 33.6209 17.0989 33.4982 17.0984C33.236 17.0972 33.0768 17.0436 33.0402 16.9441C33.0214 16.8928 32.9276 16.821 32.8318 16.7844C32.736 16.7478 32.6576 16.6913 32.6576 16.6587C32.6576 16.6246 32.6077 16.6108 32.5397 16.6262C32.4569 16.6448 32.4217 16.6277 32.4217 16.5688C32.4217 16.4526 32.0741 16.1697 31.9727 16.2034C31.9271 16.2184 31.8571 16.1857 31.8171 16.1304C31.7771 16.0752 31.711 16.03 31.6701 16.03C31.6293 16.03 31.5959 16.004 31.5959 15.9723C31.5959 15.9404 31.5295 15.8614 31.4484 15.7965C31.3673 15.7316 31.3009 15.6546 31.3009 15.6252C31.3009 15.5959 31.2638 15.5719 31.2183 15.5719C31.1319 15.5719 31.1172 15.4862 31.1091 14.9355C31.1013 14.4067 31.236 14.0879 31.4926 14.0276C31.5494 14.0142 31.5959 13.9557 31.5959 13.8974C31.5959 13.8289 31.6803 13.7455 31.8341 13.6616C31.9651 13.5902 32.0994 13.4705 32.1324 13.3955C32.1807 13.2858 32.2033 13.2737 32.2472 13.3337C32.2876 13.3889 32.3021 13.3666 32.3028 13.2486C32.3034 13.1538 32.3337 13.0897 32.3775 13.0912C32.5747 13.0975 32.6576 13.0708 32.6576 13.0011C32.6576 12.9591 32.6861 12.9247 32.7208 12.9247C32.8169 12.9247 32.9526 12.7899 32.9526 12.6946C32.9526 12.648 33.0008 12.557 33.0598 12.4923C33.1567 12.386 33.1733 12.3827 33.2332 12.4589C33.2913 12.5325 33.3 12.5281 33.303 12.4236C33.3053 12.3471 33.3505 12.2944 33.4295 12.2766C33.5254 12.2549 33.5351 12.2382 33.4737 12.2006C33.4171 12.1659 33.4311 12.1591 33.5239 12.1766C33.6614 12.2024 33.7387 12.111 33.6838 11.9876C33.6641 11.9433 33.7033 11.9017 33.7861 11.879C33.9465 11.8351 34.082 11.7275 34.0317 11.6841C34.0119 11.667 33.9601 11.6785 33.9166 11.7097C33.8645 11.747 33.8374 11.7482 33.8374 11.7134C33.8374 11.6843 33.8211 11.6237 33.8012 11.5789C33.7703 11.5095 33.7884 11.5052 33.923 11.5493C34.1796 11.6335 34.2504 11.6144 34.2494 11.4612C34.2488 11.3616 34.2336 11.3415 34.197 11.3913C34.1687 11.4299 34.116 11.4458 34.08 11.4265C33.9732 11.3696 34.0047 11.304 34.1471 11.2866C34.2497 11.274 34.2792 11.2377 34.2771 11.1266C34.2747 10.9915 34.2861 10.9848 34.468 11.0142C34.6262 11.0398 34.6551 11.0313 34.6267 10.9674C34.6064 10.9217 34.6312 10.8764 34.6866 10.858C34.7386 10.8408 34.7812 10.7719 34.7812 10.7049C34.7812 10.6379 34.8097 10.5831 34.8446 10.5831C34.8795 10.5831 34.9004 10.52 34.891 10.443C34.8817 10.366 34.8945 10.2744 34.9196 10.2394C34.9447 10.2044 34.9487 10.1529 34.9287 10.1249C34.9086 10.0969 34.9179 10.074 34.9494 10.074C34.9826 10.074 35.0073 9.84012 35.0084 9.51402C35.01 9.05932 34.9944 8.95405 34.9253 8.95405C34.8785 8.95405 34.8402 8.98154 34.8402 9.01513C34.8402 9.06263 34.8244 9.06263 34.7694 9.01513C34.6198 8.88604 34.5532 8.94789 34.5744 9.19585ZM31.7541 13.0361C31.7353 13.0767 31.7213 13.0646 31.7185 13.0053C31.716 12.9517 31.7299 12.9216 31.7495 12.9385C31.7691 12.9554 31.7712 12.9994 31.7541 13.0361ZM32.2152 13.1793C32.2353 13.2073 32.2236 13.2302 32.1892 13.2302C32.1549 13.2302 32.1268 13.2073 32.1268 13.1793C32.1268 13.1513 32.1384 13.1284 32.1528 13.1284C32.1671 13.1284 32.1952 13.1513 32.2152 13.1793ZM31.3416 16.7271C31.2868 16.8036 31.4397 16.847 31.5422 16.7841C31.609 16.7432 31.6058 16.7385 31.526 16.7605C31.4713 16.7756 31.4164 16.7617 31.404 16.7296C31.3879 16.688 31.3701 16.6873 31.3416 16.7271ZM33.9849 18.3208C34.0049 18.3488 33.9799 18.3717 33.9294 18.3717C33.8788 18.3717 33.8374 18.3488 33.8374 18.3208C33.8374 18.2928 33.8623 18.2699 33.8929 18.2699C33.9235 18.2699 33.9648 18.2928 33.9849 18.3208ZM33.9259 31.302C33.9459 31.33 33.9342 31.3529 33.8999 31.3529C33.8655 31.3529 33.8374 31.33 33.8374 31.302C33.8374 31.274 33.8491 31.2511 33.8634 31.2511C33.8777 31.2511 33.9058 31.274 33.9259 31.302ZM30.8352 32.4879C30.7594 32.5532 30.6827 32.5027 30.7387 32.4244C30.7604 32.3942 30.8052 32.3838 30.8382 32.4014C30.8785 32.4229 30.8775 32.4513 30.8352 32.4879Z" fill="#FFFEFE"/>
</g>
<g filter="url(#filter1_d)">
<path d="M24.5938 14.1094C24.5729 14.3281 24.4948 14.4948 24.3594 14.6094C24.2344 14.7135 24.0885 14.8229 23.9219 14.9375C23.7031 15.2604 23.4688 15.5729 23.2188 15.875C22.9792 16.1771 22.7292 16.4792 22.4688 16.7812C22.2188 17.0729 21.9688 17.375 21.7188 17.6875C21.4792 17.9896 21.2604 18.3073 21.0625 18.6406C20.8229 18.8177 20.6094 19.0156 20.4219 19.2344C20.2344 19.4427 20.0521 19.6615 19.875 19.8906C19.6979 20.1094 19.5208 20.3385 19.3438 20.5781C19.1771 20.8073 19 21.026 18.8125 21.2344C18.875 21.4844 18.9844 21.6823 19.1406 21.8281C19.2969 21.974 19.4688 22.1094 19.6562 22.2344C19.8438 22.349 20.026 22.474 20.2031 22.6094C20.3802 22.7448 20.5156 22.9219 20.6094 23.1406C20.9219 23.1927 21.224 23.276 21.5156 23.3906C21.8177 23.4948 22.1302 23.5469 22.4531 23.5469C22.6927 23.5469 22.9219 23.4844 23.1406 23.3594C23.2344 23.3802 23.3281 23.4167 23.4219 23.4688C23.526 23.5208 23.6354 23.5469 23.75 23.5469C23.8438 23.5469 23.9375 23.5 24.0312 23.4062C24.0521 23.4375 24.0729 23.4792 24.0938 23.5312C24.1146 23.5729 24.151 23.5938 24.2031 23.5938C24.224 23.5938 24.2396 23.5938 24.25 23.5938C24.2708 23.5833 24.2865 23.5781 24.2969 23.5781V23.8281C24.2969 23.9219 24.3021 24.0156 24.3125 24.1094C24.3229 24.1927 24.3438 24.2812 24.375 24.375C24.2917 24.375 24.224 24.3906 24.1719 24.4219L24.0312 24.5156C23.9896 24.5469 23.9375 24.5729 23.875 24.5938C23.8125 24.6146 23.7292 24.6146 23.625 24.5938C23.5625 24.6042 23.5208 24.6354 23.5 24.6875C23.4896 24.7396 23.4583 24.7812 23.4062 24.8125C23.3333 24.8646 23.2344 24.8906 23.1094 24.8906C22.9948 24.8906 22.8906 24.9167 22.7969 24.9688L22.2656 25C22.0885 25.0104 21.9115 25.0156 21.7344 25.0156C21.6302 25.0156 21.5052 25.0156 21.3594 25.0156C21.2135 25.0052 21.0677 24.9948 20.9219 24.9844C20.776 24.9635 20.6354 24.9427 20.5 24.9219C20.3646 24.8906 20.25 24.8542 20.1562 24.8125C19.8125 24.6458 19.4792 24.4375 19.1562 24.1875C18.8333 23.9375 18.5208 23.6927 18.2188 23.4531L17.9688 23.2344C17.8854 23.1615 17.7969 23.0938 17.7031 23.0312C17.6927 23.0208 17.6667 23.0156 17.625 23.0156C17.5729 23.0156 17.526 23.026 17.4844 23.0469C17.4531 23.0677 17.4167 23.0781 17.375 23.0781C17.3333 23.0781 17.3125 23.0625 17.3125 23.0312C16.9896 23.3438 16.6875 23.6771 16.4062 24.0312L15.5625 25.0938C15.5625 25.1771 15.5833 25.2448 15.625 25.2969L15.75 25.4375C15.7917 25.4792 15.8281 25.526 15.8594 25.5781C15.901 25.6302 15.9219 25.6979 15.9219 25.7812C15.9219 25.8438 15.9167 25.8958 15.9062 25.9375C15.8125 25.9688 15.7031 25.9896 15.5781 26C15.4531 26.0104 15.3229 26.026 15.1875 26.0469C15.0625 26.0781 14.9479 26.1146 14.8438 26.1562C14.7396 26.2083 14.6667 26.2865 14.625 26.3906C14.5521 26.3698 14.4844 26.349 14.4219 26.3281C14.3698 26.3073 14.3021 26.3021 14.2188 26.3125C14.1354 26.2083 14.0521 26.1042 13.9688 26C13.875 25.8854 13.7917 25.7656 13.7188 25.6406C13.7083 25.5677 13.7031 25.5 13.7031 25.4375C13.6927 25.3646 13.6875 25.2917 13.6875 25.2188C13.6875 24.9792 13.724 24.7656 13.7969 24.5781C13.8698 24.3802 13.9531 24.1771 14.0469 23.9688C14.224 23.8854 14.3854 23.7969 14.5312 23.7031C14.6875 23.599 14.7917 23.4479 14.8438 23.25C14.9792 23.2396 15.0885 23.1979 15.1719 23.125C15.2656 23.0417 15.349 22.9531 15.4219 22.8594C15.5052 22.7656 15.5885 22.6823 15.6719 22.6094C15.7552 22.5365 15.8698 22.4896 16.0156 22.4688C16.0156 22.4479 16.0104 22.4271 16 22.4062C16 22.3854 16 22.3646 16 22.3438C16 22.2708 16.0156 22.2188 16.0469 22.1875C16.0781 22.1458 16.1146 22.1146 16.1562 22.0938C16.2083 22.0625 16.2552 22.0365 16.2969 22.0156C16.349 21.9948 16.3906 21.9583 16.4219 21.9062C16.3802 21.7917 16.3333 21.6823 16.2812 21.5781C16.2396 21.474 16.1875 21.375 16.125 21.2812C16.0208 21.125 15.9115 20.974 15.7969 20.8281L15.4531 20.3906C15.401 20.3177 15.3333 20.2552 15.25 20.2031C15.1771 20.1406 15.1146 20.0677 15.0625 19.9844C15.0104 19.901 14.9792 19.8073 14.9688 19.7031C14.9583 19.599 14.9323 19.5052 14.8906 19.4219C14.8385 19.3177 14.7708 19.224 14.6875 19.1406C14.6146 19.0469 14.5781 18.9323 14.5781 18.7969C14.5781 18.724 14.5938 18.6562 14.625 18.5938C14.5104 18.4792 14.4271 18.3438 14.375 18.1875C14.3229 18.0208 14.2969 17.8594 14.2969 17.7031C14.2969 17.5573 14.3177 17.4115 14.3594 17.2656C14.401 17.1094 14.4688 16.9688 14.5625 16.8438H14.7031C14.7552 16.8438 14.7812 16.8281 14.7812 16.7969C14.8438 16.8385 14.9115 16.875 14.9844 16.9062C15.0677 16.9375 15.1146 16.9948 15.125 17.0781C15.2188 17.0885 15.3125 17.1042 15.4062 17.125L15.6875 17.1875C15.8542 17.4375 16.0052 17.6927 16.1406 17.9531C16.276 18.2135 16.4115 18.474 16.5469 18.7344C16.6927 18.9948 16.8438 19.25 17 19.5C17.1562 19.75 17.3333 19.9844 17.5312 20.2031C17.6875 20.1406 17.8229 20.0469 17.9375 19.9219C18.0521 19.7969 18.1562 19.6667 18.25 19.5312C18.3542 19.3958 18.4635 19.2656 18.5781 19.1406C18.6927 19.0156 18.8281 18.9219 18.9844 18.8594C18.974 18.849 18.9688 18.8333 18.9688 18.8125C18.9688 18.7604 18.9844 18.724 19.0156 18.7031C19.0573 18.6719 19.0677 18.6146 19.0469 18.5312C19.2552 18.3854 19.4479 18.2292 19.625 18.0625C19.8021 17.8958 19.9271 17.6771 20 17.4062H20.2188C20.4688 17.0729 20.7188 16.7396 20.9688 16.4062C21.2292 16.0729 21.5208 15.7708 21.8438 15.5V15.2812C22.0104 15.1771 22.1562 15.0573 22.2812 14.9219C22.4062 14.776 22.526 14.6302 22.6406 14.4844C22.7552 14.3281 22.8646 14.1719 22.9688 14.0156C23.0833 13.8594 23.2135 13.7188 23.3594 13.5938C23.4635 13.6458 23.5729 13.6823 23.6875 13.7031C23.8021 13.724 23.9115 13.75 24.0156 13.7812C24.1302 13.8125 24.2344 13.8542 24.3281 13.9062C24.4323 13.9479 24.5208 14.0156 24.5938 14.1094Z" fill="#FFFEFE"/>
</g>
<path fill-rule="evenodd" clip-rule="evenodd" d="M25.1276 6.10044C24.9714 6.21279 24.959 6.28416 25.0882 6.32692C25.22 6.3706 25.223 6.36866 25.1908 6.26237C25.168 6.18723 25.1943 6.16692 25.3143 6.16692C25.4043 6.16692 25.4667 6.19558 25.4667 6.23692C25.4667 6.2754 25.5198 6.30691 25.5847 6.30691C25.7153 6.30691 25.7446 6.18291 25.629 6.12029C25.5884 6.09835 25.5088 6.08695 25.452 6.09504C25.3952 6.10308 25.3488 6.08532 25.3488 6.05559C25.3488 5.97735 25.2788 5.9915 25.1276 6.10044ZM27.2092 6.07005C27.1339 6.11759 27.1214 6.14976 27.1685 6.17486C27.267 6.22745 27.2517 6.30691 27.143 6.30691C27.0916 6.30691 27.0606 6.33557 27.0741 6.37055C27.0887 6.40806 27.2009 6.43418 27.3476 6.43418C27.5581 6.43418 27.5921 6.42013 27.5685 6.3425C27.5427 6.25713 27.5546 6.25784 27.7408 6.35263C27.8577 6.41219 27.9555 6.43408 27.9761 6.40532C27.9955 6.37828 28.039 6.3709 28.0729 6.38897C28.144 6.4269 28.2369 6.31969 28.2383 6.19813C28.2389 6.14401 28.1763 6.1069 28.0597 6.09209C27.9209 6.07453 27.8876 6.08608 27.9128 6.14289C27.9357 6.19421 27.9171 6.20703 27.8516 6.1853C27.7999 6.16819 27.6602 6.15272 27.5412 6.15099C27.3522 6.14814 27.3416 6.14193 27.4576 6.10171C27.5305 6.07636 27.5903 6.04347 27.5903 6.02856C27.5903 5.97363 27.3145 6.00366 27.2092 6.07005ZM25.978 6.13724C25.9563 6.15587 25.9408 6.2189 25.9433 6.27723C25.9458 6.33557 25.9617 6.3537 25.9785 6.3175C26.0019 6.26731 26.0285 6.26563 26.0911 6.31053C26.1552 6.35634 26.1817 6.35008 26.212 6.28207C26.2627 6.16804 26.0761 6.05253 25.978 6.13724ZM26.8235 6.15119C26.8235 6.18082 26.7852 6.2051 26.7384 6.2051C26.6917 6.2051 26.6371 6.22801 26.617 6.25601C26.5957 6.28569 26.6557 6.30691 26.761 6.30691C26.9392 6.30691 27.0132 6.19848 26.8824 6.12874C26.85 6.11143 26.8235 6.12156 26.8235 6.15119ZM28.4161 6.20403C28.3675 6.23055 28.3276 6.2811 28.3276 6.31628C28.3276 6.35146 28.2622 6.40842 28.1822 6.44288C28.0564 6.497 28.0843 6.50143 28.3886 6.47582C28.7623 6.44436 28.9979 6.33043 28.887 6.23473C28.8425 6.19634 28.8079 6.20271 28.7685 6.25641C28.7213 6.32086 28.7127 6.31888 28.7119 6.24328C28.711 6.14615 28.5591 6.12599 28.4161 6.20403ZM29.027 6.34489C28.9851 6.48305 28.9994 6.53574 29.0797 6.5391C29.1962 6.54404 29.2969 6.45877 29.2634 6.38348C29.2133 6.27102 29.0571 6.24547 29.027 6.34489ZM29.4518 6.31964C29.3649 6.56659 29.3721 6.61235 29.4982 6.61159C29.6023 6.61093 29.6093 6.60171 29.5369 6.56068C29.476 6.52617 29.4686 6.49863 29.5132 6.47236C29.5896 6.42736 29.5991 6.25601 29.5252 6.25601C29.4971 6.25601 29.4641 6.28467 29.4518 6.31964ZM29.6843 6.40873C29.6643 6.43672 29.6893 6.45963 29.7399 6.45963C29.7904 6.45963 29.8318 6.43672 29.8318 6.40873C29.8318 6.38073 29.8069 6.35782 29.7763 6.35782C29.7458 6.35782 29.7044 6.38073 29.6843 6.40873ZM30.016 6.52464C29.9796 6.5561 29.9498 6.61994 29.9498 6.66652C29.9498 6.73183 30.0055 6.75117 30.1936 6.75117C30.3649 6.75117 30.4548 6.7778 30.4955 6.84062C30.5427 6.91336 30.563 6.91703 30.6047 6.86027C30.6408 6.81099 30.6561 6.83161 30.6568 6.93052C30.6573 7.01512 30.6898 7.07051 30.7389 7.07051C30.7836 7.07051 30.8519 7.1035 30.8907 7.14387C30.9295 7.18418 30.9991 7.20465 31.0454 7.18932C31.0917 7.17395 31.1295 7.19004 31.1295 7.22501C31.1295 7.2864 31.4484 7.57957 31.5153 7.57957C31.5683 7.57957 31.8335 7.85472 31.8355 7.91189C31.8366 7.94065 31.8838 7.99991 31.9406 8.04359C32.1563 8.20949 32.3066 8.39632 32.3541 8.55769C32.3824 8.65349 32.4589 8.74645 32.5333 8.77521C32.6048 8.80285 32.6632 8.84297 32.6632 8.8643C32.6632 8.95247 32.8289 8.89494 32.8588 8.79644C32.8963 8.67243 32.8523 8.5468 32.7714 8.5468C32.7405 8.5468 32.7318 8.52373 32.7519 8.49553C32.7721 8.46733 32.7339 8.37789 32.6669 8.29679C32.6 8.21565 32.5452 8.10208 32.5452 8.0444C32.5452 7.98672 32.4922 7.915 32.4273 7.88501C32.3624 7.85503 32.3093 7.78549 32.3093 7.73051C32.3093 7.67548 32.2887 7.63048 32.2635 7.63048C32.1535 7.63048 31.8281 7.31756 31.8611 7.24344C31.8852 7.18927 31.8655 7.17003 31.7978 7.18133C31.6647 7.20363 31.6253 7.32504 31.7512 7.32504C31.8336 7.32504 31.8386 7.33874 31.7789 7.40084C31.6793 7.50449 31.5845 7.44162 31.6172 7.29363C31.632 7.22689 31.6212 7.17232 31.5932 7.17232C31.5653 7.17232 31.5425 7.13867 31.5425 7.09754C31.5425 7.05646 31.5084 7.03411 31.4667 7.04791C31.3861 7.07458 31.1295 6.89651 31.1295 6.81399C31.1295 6.78706 31.0926 6.76507 31.0474 6.76507C31.0022 6.76507 30.9506 6.73234 30.9328 6.69227C30.9142 6.65033 30.7802 6.60589 30.6168 6.58741C30.4609 6.56974 30.2768 6.53553 30.2077 6.5114C30.1279 6.48346 30.0582 6.48829 30.016 6.52464ZM29.7185 6.69294C29.7213 6.75224 29.7353 6.76431 29.7541 6.72373C29.7712 6.68698 29.7691 6.64305 29.7495 6.62615C29.7299 6.60925 29.716 6.63928 29.7185 6.69294ZM30.4807 6.6348C30.4807 6.64717 30.4541 6.6714 30.4217 6.68871C30.3893 6.70602 30.3627 6.69589 30.3627 6.66626C30.3627 6.63663 30.3893 6.61235 30.4217 6.61235C30.4541 6.61235 30.4807 6.62243 30.4807 6.6348ZM32.5744 9.19585C32.6027 9.52629 32.4905 10.1891 32.3951 10.2553C32.3522 10.285 32.299 10.3715 32.277 10.4474C32.2549 10.5233 32.1873 10.6154 32.1266 10.6521C32.0285 10.7114 32.0257 10.7294 32.102 10.8163C32.2227 10.954 32.2127 10.9776 32.0337 10.9776C31.947 10.9776 31.839 11.0205 31.7936 11.073C31.7482 11.1255 31.6879 11.1632 31.6597 11.1567C31.5763 11.1377 31.3692 11.3975 31.4045 11.4769C31.4223 11.5169 31.4552 11.5399 31.4777 11.5279C31.5002 11.5159 31.5571 11.5271 31.6043 11.5529C31.665 11.586 31.6235 11.5999 31.4618 11.6004C31.2542 11.6011 31.237 11.6115 31.2693 11.7157C31.2889 11.7787 31.3053 11.849 31.3057 11.8718C31.3062 11.8948 31.3594 11.899 31.4241 11.8813C31.5124 11.8571 31.5333 11.868 31.508 11.9248C31.4611 12.0305 31.3065 12.0738 31.3065 11.9814C31.3065 11.9403 31.2639 11.9066 31.2117 11.9066C31.1511 11.9066 31.1293 11.8787 31.1514 11.8291C31.1795 11.7658 31.1644 11.7615 31.0692 11.8054C31.0051 11.835 30.9526 11.8945 30.9526 11.9375C30.9526 11.9805 30.9113 12.0512 30.861 12.0947C30.7978 12.1493 30.7813 12.2206 30.8079 12.3249C30.84 12.451 30.8292 12.4731 30.7431 12.4586C30.6072 12.4356 30.5736 12.2264 30.6897 12.1262C30.8228 12.0114 30.7452 11.9806 30.571 12.0791C30.4889 12.1255 30.4217 12.2032 30.4217 12.2517C30.4217 12.301 30.3425 12.3702 30.2421 12.4086C30.1372 12.4486 30.0664 12.512 30.0719 12.561C30.0917 12.7362 30.0628 12.772 29.9019 12.772C29.786 12.772 29.6966 12.818 29.6052 12.9247C29.5332 13.0087 29.4249 13.0775 29.3645 13.0775C29.304 13.0775 29.2393 13.1118 29.2206 13.1538C29.2019 13.1958 29.2124 13.2302 29.2438 13.2302C29.2752 13.2302 29.3009 13.2645 29.3009 13.3065C29.3009 13.3485 29.2611 13.3829 29.2124 13.3829C29.1638 13.3829 29.124 13.4043 29.124 13.4304C29.124 13.4565 29.0709 13.4924 29.006 13.5102C28.9411 13.5279 28.888 13.5756 28.888 13.6161C28.888 13.6954 28.7884 13.8656 28.6623 14.0021C28.6192 14.0488 28.5902 14.1289 28.5979 14.1803C28.6146 14.2918 28.5383 14.5566 28.4669 14.6354C28.4389 14.6663 28.417 14.7465 28.4183 14.8136C28.4195 14.8807 28.4205 15.0272 28.4206 15.1392C28.4207 15.4633 28.4417 15.5949 28.4993 15.6308C28.5288 15.6493 28.5598 15.718 28.5681 15.7835C28.5764 15.8491 28.5855 15.9187 28.5882 15.938C28.5909 15.9575 28.6692 16.0122 28.7622 16.0596C28.8552 16.107 28.9664 16.2229 29.0092 16.317C29.052 16.4112 29.1218 16.4882 29.1645 16.4882C29.2071 16.4882 29.2419 16.5218 29.2419 16.563C29.2419 16.6087 29.2765 16.6263 29.3309 16.6083C29.3798 16.592 29.4882 16.6175 29.5718 16.6647C29.7138 16.7451 29.7175 16.7567 29.6272 16.8427C29.5366 16.9291 29.5431 16.9414 29.7341 17.0433C29.846 17.1029 29.9802 17.2079 30.0323 17.2765C30.0959 17.3603 30.1594 17.3905 30.2256 17.3686C30.3035 17.3428 30.3152 17.3561 30.2814 17.4323C30.2578 17.4853 30.2568 17.5129 30.2792 17.4935C30.3016 17.4743 30.3934 17.5036 30.4831 17.5588C30.5729 17.6139 30.6978 17.659 30.7606 17.659C30.8235 17.659 31.0247 17.7804 31.2078 17.9286C31.3909 18.0768 31.5499 18.1744 31.561 18.1454C31.5891 18.0729 31.7784 18.2432 31.7784 18.3408C31.7784 18.4918 32.269 18.6033 32.3226 18.4645C32.3353 18.4316 32.3771 18.4213 32.4154 18.4418C32.5044 18.4893 32.3735 18.6248 32.2713 18.591C32.2339 18.5786 32.1857 18.5929 32.1643 18.6228C32.1309 18.6695 32.3865 18.7078 32.5624 18.6825C32.588 18.6788 32.6646 18.7015 32.7326 18.7329C32.8304 18.7781 32.8393 18.7989 32.7752 18.8331C32.7106 18.8675 32.722 18.8985 32.8315 18.9865L32.9687 19.0968L32.8012 19.1917C32.7091 19.244 32.5913 19.2751 32.5395 19.2609C32.4398 19.2337 32.0921 19.3548 31.8251 19.5097C31.7058 19.579 31.6703 19.6366 31.6848 19.7379C31.6955 19.8125 31.6921 19.8391 31.6774 19.7971C31.6216 19.6387 31.48 19.5924 31.2987 19.6734C31.2056 19.7148 31.1295 19.7711 31.1295 19.7984C31.1295 19.8257 31.0915 19.848 31.045 19.848C30.9966 19.848 30.9525 19.9079 30.9417 19.988C30.9292 20.0824 30.8846 20.1328 30.8049 20.1426C30.665 20.1599 30.4807 20.4154 30.4807 20.5919C30.4807 20.6605 30.4409 20.7298 30.3922 20.7459C30.3435 20.762 30.3037 20.8066 30.3037 20.8449C30.3037 20.8951 30.2544 20.906 30.1268 20.884C29.9882 20.86 29.9498 20.8714 29.9498 20.9361C29.9498 20.9817 29.9896 21.0189 30.0383 21.0189C30.0869 21.0189 30.1268 21.0557 30.1268 21.1007C30.1268 21.1566 30.0952 21.172 30.0268 21.1494C29.9347 21.1188 29.9349 21.1239 30.0292 21.2138C30.1268 21.3069 30.1258 21.3126 30.0058 21.3397C29.9029 21.3629 29.8892 21.3894 29.9297 21.4862C29.9568 21.5511 29.9791 21.7536 29.9792 21.9361C29.9793 22.2002 30.0057 22.2969 30.1084 22.4099C30.1794 22.4879 30.2799 22.6621 30.3318 22.7969C30.4414 23.0817 30.7935 23.4115 30.9879 23.4115C31.1248 23.4115 31.2298 23.5671 31.1594 23.6655C31.1392 23.6938 31.1576 23.7169 31.2003 23.7169C31.2432 23.7169 31.3113 23.7627 31.3518 23.8187C31.3923 23.8747 31.4743 23.9205 31.534 23.9205C31.6036 23.9205 31.6807 23.9937 31.7489 24.1242C31.8074 24.2362 31.8911 24.3278 31.9348 24.3278C31.9786 24.3278 32.0144 24.3507 32.0144 24.3787C32.0144 24.4067 32.0807 24.4296 32.1618 24.4296C32.2536 24.4296 32.3093 24.4585 32.3093 24.506C32.3093 24.548 32.3491 24.5823 32.3978 24.5823C32.4464 24.5823 32.4863 24.6067 32.4863 24.6365C32.4863 24.6663 32.5409 24.8003 32.6077 24.9342C32.696 25.1113 32.7925 25.2085 32.9616 25.2905C33.0895 25.3526 33.1941 25.424 33.1941 25.4492C33.1941 25.4744 33.2737 25.5654 33.3711 25.6513C33.4684 25.7373 33.548 25.8383 33.548 25.8759C33.548 25.9136 33.5879 25.9728 33.6365 26.0077C33.6852 26.0426 33.725 26.1113 33.725 26.1604C33.725 26.2095 33.7665 26.2795 33.8173 26.3158C33.8741 26.3565 33.8969 26.4255 33.8766 26.4952C33.8207 26.6873 33.9072 27.0767 34.0057 27.0767C34.0727 27.0767 34.0777 27.093 34.0273 27.1455C33.9586 27.2169 33.9424 27.3668 33.9798 27.5858C33.9917 27.6558 33.9628 27.7646 33.9154 27.8277C33.8673 27.8916 33.8447 27.9929 33.8642 28.0568C33.8834 28.1197 33.8834 28.2872 33.8642 28.429C33.8375 28.6263 33.7999 28.6978 33.7034 28.7344C33.6181 28.7667 33.5835 28.8189 33.596 28.8966C33.6061 28.9597 33.5929 29.0112 33.5665 29.0112C33.5401 29.0112 33.5202 29.0856 33.5221 29.1766C33.5262 29.3629 33.4476 29.4847 33.3551 29.4354C33.3163 29.4147 33.3058 29.4431 33.3268 29.5122C33.3451 29.5726 33.3359 29.6348 33.3065 29.6505C33.2772 29.6661 33.2531 29.7183 33.2531 29.7664C33.2531 29.8145 33.1713 29.9312 33.0712 30.0257C32.9713 30.1202 32.8655 30.2517 32.8364 30.3179C32.8072 30.3842 32.7231 30.4621 32.6495 30.491C32.3403 30.6127 32.1816 30.7047 32.1471 30.7823C32.0791 30.9352 31.93 31.0474 31.7948 31.0474C31.6829 31.0474 31.6601 31.0751 31.6587 31.2129C31.6571 31.3507 31.6467 31.3634 31.5963 31.2885C31.5422 31.2083 31.5261 31.207 31.4464 31.2758C31.3972 31.3182 31.3247 31.3529 31.2853 31.3529C31.2042 31.3529 30.8102 31.5193 30.6938 31.6027C30.6517 31.6327 30.5401 31.6649 30.4458 31.6741C30.3514 31.6832 30.2162 31.7178 30.1454 31.7509C30.0745 31.784 29.9632 31.811 29.8982 31.811C29.8331 31.811 29.7648 31.8319 29.7465 31.8575C29.7282 31.8831 29.6072 31.9195 29.4776 31.9383C29.348 31.9572 29.2419 31.9936 29.2419 32.0191C29.2419 32.0447 29.2005 32.0656 29.15 32.0656C29.0994 32.0656 29.0742 32.0882 29.0941 32.1159C29.1147 32.1447 29.0911 32.1533 29.0386 32.1359C28.9882 32.1192 28.947 32.1309 28.947 32.1619C28.947 32.1929 28.9072 32.2183 28.8585 32.2183C28.8099 32.2183 28.77 32.2405 28.77 32.2676C28.77 32.2947 28.7256 32.3022 28.6713 32.2842C28.5947 32.2588 28.5817 32.2719 28.613 32.3424C28.6471 32.4189 28.6301 32.4282 28.5052 32.4011C28.3563 32.3689 28.322 32.4186 28.3546 32.6197C28.3619 32.6652 28.3321 32.679 28.2708 32.6588C28.2154 32.6404 28.1623 32.6574 28.1435 32.6995C28.1259 32.7393 28.075 32.7598 28.0306 32.7451C27.9249 32.7101 27.6767 32.8572 27.7634 32.9034C27.8475 32.9483 27.6937 33.0837 27.5587 33.0837C27.4868 33.0837 27.4719 33.108 27.5043 33.1728C27.5288 33.2217 27.5538 33.3396 27.5599 33.4346C27.5659 33.5296 27.6111 33.6327 27.6604 33.6638C27.7097 33.695 27.7701 33.7749 27.7946 33.8415C27.829 33.9351 27.8508 33.9466 27.8908 33.8922C27.9317 33.8364 27.9426 33.8403 27.9433 33.9109C27.9438 33.9599 27.9869 34 28.039 34C28.0991 34 28.1214 33.972 28.0998 33.9236C28.0812 33.8816 28.0945 33.8473 28.1294 33.8473C28.1677 33.8473 28.1783 33.7968 28.1559 33.72C28.1346 33.6466 28.1444 33.5927 28.179 33.5927C28.2121 33.5927 28.2392 33.5194 28.2392 33.4298C28.2392 33.3112 28.2568 33.2822 28.3042 33.323C28.3515 33.3639 28.4837 33.343 28.7908 33.246C29.0227 33.1728 29.2213 33.0949 29.2321 33.0728C29.2429 33.0508 29.2894 33.0328 29.3353 33.0328C29.3813 33.0328 29.4189 33.0106 29.4189 32.9834C29.4189 32.9564 29.4587 32.9474 29.5074 32.9634C29.5642 32.9823 29.5959 32.9624 29.5959 32.908C29.5959 32.8528 29.6216 32.8371 29.6696 32.8631C29.7822 32.924 30.2404 32.8894 30.4361 32.8051C30.5321 32.7638 30.7011 32.7154 30.8117 32.6975C30.9223 32.6795 31.0274 32.6446 31.0452 32.6198C31.0629 32.5949 31.1673 32.5746 31.277 32.5746C31.3867 32.5746 31.4934 32.551 31.5141 32.5221C31.5348 32.4932 31.6758 32.4228 31.8273 32.3657C32.3295 32.1765 32.4996 32.0948 32.5289 32.0289C32.5448 31.9931 32.6099 31.9637 32.6735 31.9637C32.7565 31.9637 32.7801 31.9386 32.757 31.8747C32.726 31.789 32.9892 31.5931 33.2678 31.4945C33.3837 31.4535 33.394 31.4121 33.3152 31.3046C33.2768 31.2522 33.3026 31.1977 33.4046 31.1161C33.4835 31.053 33.548 30.9452 33.548 30.8764C33.548 30.7782 33.5723 30.757 33.6615 30.7771C33.7452 30.796 33.8011 30.7592 33.874 30.6376C33.9284 30.5468 34.0419 30.4129 34.1262 30.3402C34.2562 30.228 34.2643 30.2054 34.1795 30.1913C34.0933 30.1769 34.1013 30.1498 34.2383 29.9949C34.3467 29.8723 34.3931 29.763 34.3844 29.6511C34.3761 29.5454 34.4102 29.4567 34.48 29.4022C34.5606 29.3393 34.5845 29.2583 34.5729 29.0879C34.5606 28.9075 34.577 28.8585 34.6499 28.8585C34.7205 28.8585 34.7345 28.8236 34.7085 28.7117C34.6871 28.6191 34.714 28.498 34.7814 28.3839C34.8568 28.2563 34.8699 28.1869 34.8258 28.1489C34.7816 28.1108 34.783 28.0949 34.8303 28.0949C34.8672 28.0949 34.8967 28.0548 34.8957 28.0058C34.8948 27.9568 34.8999 27.8004 34.9069 27.6581C34.914 27.5159 34.8892 27.3504 34.8519 27.2902C34.8015 27.2089 34.8011 27.1574 34.8506 27.089C34.9017 27.0184 34.8951 26.9519 34.8224 26.8016C34.7704 26.6941 34.7278 26.5066 34.7278 26.3849C34.7278 26.1954 34.713 26.1684 34.6246 26.197C34.5353 26.2259 34.5319 26.2192 34.6 26.1469C34.6669 26.0759 34.6603 26.0465 34.5557 25.9496C34.4881 25.887 34.4328 25.7956 34.4328 25.7465C34.4328 25.6975 34.4038 25.6418 34.3682 25.6229C34.3326 25.6039 34.3159 25.5166 34.3312 25.429C34.3523 25.307 34.3181 25.225 34.1858 25.0802C34.0907 24.9761 34.0088 24.8443 34.0038 24.7875C33.9989 24.7307 33.9761 24.6841 33.9532 24.6841C33.8975 24.6841 33.4296 24.2944 33.4564 24.2704C33.468 24.2599 33.4137 24.2102 33.3358 24.1599C33.2579 24.1096 33.1941 24.0925 33.1941 24.1218C33.1941 24.1511 33.1658 24.1751 33.1312 24.1751C33.0965 24.1751 33.0832 24.1343 33.1015 24.0844C33.1223 24.0278 33.0905 23.9662 33.017 23.9204C32.9522 23.8801 32.8992 23.8179 32.8992 23.782C32.8992 23.7462 32.8709 23.7169 32.8364 23.7169C32.8018 23.7169 32.7066 23.6482 32.6247 23.5642C32.5428 23.4802 32.4392 23.4115 32.3944 23.4115C32.3497 23.4115 32.2748 23.3484 32.2281 23.2715C32.1814 23.1945 32.1208 23.1372 32.0935 23.1442C32.0662 23.1512 32.0405 23.134 32.0365 23.106C32.0324 23.078 32.0258 23.0322 32.0217 23.0042C32.0177 22.9762 31.9745 22.9533 31.9259 22.9533C31.8772 22.9533 31.8374 22.9171 31.8374 22.8729C31.8374 22.8101 31.7988 22.7998 31.6604 22.826C31.4802 22.8602 31.4327 22.8139 31.5469 22.7153C31.5922 22.6762 31.5235 22.5854 31.3065 22.3982C30.9751 22.1121 30.9118 21.9554 30.9421 21.4957C30.9497 21.3798 30.9871 21.3284 31.0786 21.3078C31.1859 21.2835 31.1991 21.2543 31.1672 21.1109C31.1439 21.0064 31.1494 20.9689 31.1816 21.0121C31.2236 21.0684 31.2575 21.0612 31.3585 20.974C31.4273 20.9147 31.52 20.8661 31.5648 20.8661C31.6094 20.8661 31.6788 20.832 31.7189 20.7903C31.759 20.7487 31.8135 20.7262 31.8401 20.7404C31.8979 20.7712 32.2497 20.4583 32.25 20.3758C32.2502 20.344 32.3143 20.3075 32.3924 20.2946C32.4942 20.2778 32.5258 20.2906 32.5041 20.3396C32.4845 20.3835 32.5181 20.408 32.5979 20.408C32.6663 20.408 32.7222 20.3851 32.7222 20.3571C32.7222 20.3291 32.7827 20.3062 32.8565 20.3062C32.9304 20.3062 33.0433 20.2747 33.1072 20.2361C33.1712 20.1976 33.3629 20.1496 33.5332 20.1296C33.7035 20.1095 33.8577 20.0723 33.8759 20.0469C33.8941 20.0215 33.9715 20.0007 34.048 20.0007C34.1245 20.0007 34.2004 19.9721 34.2168 19.9371C34.2406 19.8862 34.2475 19.8862 34.2512 19.9371C34.2571 20.0166 34.376 20.0182 34.5912 19.9417C34.6825 19.9092 34.7905 19.8873 34.831 19.893C34.8716 19.8987 34.9048 19.868 34.9048 19.8248C34.9048 19.7816 34.875 19.7462 34.8386 19.7462C34.7917 19.7462 34.7931 19.7246 34.8432 19.6725C34.8822 19.632 34.9219 19.5232 34.9315 19.4307C34.941 19.3382 34.9675 19.1809 34.9903 19.0812C35.0309 18.9034 34.9391 18.7558 34.8077 18.7877C34.731 18.8063 34.3739 18.6305 34.3739 18.574C34.3739 18.5467 34.334 18.5245 34.2854 18.5245C34.2367 18.5245 34.1969 18.5015 34.1969 18.4735C34.1969 18.4455 34.0907 18.4226 33.9609 18.4226C33.8312 18.4226 33.725 18.3997 33.725 18.3717C33.725 18.3437 33.6517 18.3208 33.562 18.3208C33.4571 18.3208 33.3597 18.2755 33.2883 18.1936C33.2274 18.1236 33.1433 18.0663 33.1014 18.0663C33.0595 18.0663 32.9694 17.9987 32.9013 17.9161C32.7975 17.7903 32.7456 17.7695 32.5816 17.7876C32.4142 17.8061 32.3753 17.7892 32.3127 17.6705C32.2724 17.5942 32.2371 17.5203 32.2343 17.5063C32.2136 17.4021 32.0273 17.3318 31.7047 17.3062C31.6804 17.3043 31.6604 17.2569 31.6604 17.2009C31.6604 17.1239 31.6209 17.0989 31.4982 17.0984C31.236 17.0972 31.0768 17.0436 31.0402 16.9441C31.0214 16.8928 30.9276 16.821 30.8318 16.7844C30.736 16.7478 30.6576 16.6913 30.6576 16.6587C30.6576 16.6246 30.6077 16.6108 30.5397 16.6262C30.4569 16.6448 30.4217 16.6277 30.4217 16.5688C30.4217 16.4526 30.0741 16.1697 29.9727 16.2034C29.9271 16.2184 29.8571 16.1857 29.8171 16.1304C29.7771 16.0752 29.711 16.03 29.6701 16.03C29.6293 16.03 29.5959 16.004 29.5959 15.9723C29.5959 15.9404 29.5295 15.8614 29.4484 15.7965C29.3673 15.7316 29.3009 15.6546 29.3009 15.6252C29.3009 15.5959 29.2638 15.5719 29.2183 15.5719C29.1319 15.5719 29.1172 15.4862 29.1091 14.9355C29.1013 14.4067 29.236 14.0879 29.4926 14.0276C29.5494 14.0142 29.5959 13.9557 29.5959 13.8974C29.5959 13.8289 29.6803 13.7455 29.8341 13.6616C29.9651 13.5902 30.0994 13.4705 30.1324 13.3955C30.1807 13.2858 30.2033 13.2737 30.2472 13.3337C30.2876 13.3889 30.3021 13.3666 30.3028 13.2486C30.3034 13.1538 30.3337 13.0897 30.3775 13.0912C30.5747 13.0975 30.6576 13.0708 30.6576 13.0011C30.6576 12.9591 30.6861 12.9247 30.7208 12.9247C30.8169 12.9247 30.9526 12.7899 30.9526 12.6946C30.9526 12.648 31.0008 12.557 31.0598 12.4923C31.1567 12.386 31.1733 12.3827 31.2332 12.4589C31.2913 12.5325 31.3 12.5281 31.303 12.4236C31.3053 12.3471 31.3505 12.2944 31.4295 12.2766C31.5254 12.2549 31.5351 12.2382 31.4737 12.2006C31.4171 12.1659 31.4311 12.1591 31.5239 12.1766C31.6614 12.2024 31.7387 12.111 31.6838 11.9876C31.6641 11.9433 31.7033 11.9017 31.7861 11.879C31.9465 11.8351 32.082 11.7275 32.0317 11.6841C32.0119 11.667 31.9601 11.6785 31.9166 11.7097C31.8645 11.747 31.8374 11.7482 31.8374 11.7134C31.8374 11.6843 31.8211 11.6237 31.8012 11.5789C31.7703 11.5095 31.7884 11.5052 31.923 11.5493C32.1796 11.6335 32.2504 11.6144 32.2494 11.4612C32.2488 11.3616 32.2336 11.3415 32.197 11.3913C32.1687 11.4299 32.116 11.4458 32.08 11.4265C31.9732 11.3696 32.0047 11.304 32.1471 11.2866C32.2497 11.274 32.2792 11.2377 32.2771 11.1266C32.2747 10.9915 32.2861 10.9848 32.468 11.0142C32.6262 11.0398 32.6551 11.0313 32.6267 10.9674C32.6064 10.9217 32.6312 10.8764 32.6866 10.858C32.7386 10.8408 32.7812 10.7719 32.7812 10.7049C32.7812 10.6379 32.8097 10.5831 32.8446 10.5831C32.8795 10.5831 32.9004 10.52 32.891 10.443C32.8817 10.366 32.8945 10.2744 32.9196 10.2394C32.9447 10.2044 32.9487 10.1529 32.9287 10.1249C32.9086 10.0969 32.9179 10.074 32.9494 10.074C32.9826 10.074 33.0073 9.84012 33.0084 9.51402C33.01 9.05932 32.9944 8.95405 32.9253 8.95405C32.8785 8.95405 32.8402 8.98154 32.8402 9.01513C32.8402 9.06263 32.8244 9.06263 32.7694 9.01513C32.6198 8.88604 32.5532 8.94789 32.5744 9.19585ZM29.7541 13.0361C29.7353 13.0767 29.7213 13.0646 29.7185 13.0053C29.716 12.9517 29.7299 12.9216 29.7495 12.9385C29.7691 12.9554 29.7712 12.9994 29.7541 13.0361ZM30.2152 13.1793C30.2353 13.2073 30.2236 13.2302 30.1892 13.2302C30.1549 13.2302 30.1268 13.2073 30.1268 13.1793C30.1268 13.1513 30.1384 13.1284 30.1528 13.1284C30.1671 13.1284 30.1952 13.1513 30.2152 13.1793ZM29.3416 16.7271C29.2868 16.8036 29.4397 16.847 29.5422 16.7841C29.609 16.7432 29.6058 16.7385 29.526 16.7605C29.4713 16.7756 29.4164 16.7617 29.404 16.7296C29.3879 16.688 29.3701 16.6873 29.3416 16.7271ZM31.9849 18.3208C32.0049 18.3488 31.9799 18.3717 31.9294 18.3717C31.8788 18.3717 31.8374 18.3488 31.8374 18.3208C31.8374 18.2928 31.8623 18.2699 31.8929 18.2699C31.9235 18.2699 31.9648 18.2928 31.9849 18.3208ZM31.9259 31.302C31.9459 31.33 31.9342 31.3529 31.8999 31.3529C31.8655 31.3529 31.8374 31.33 31.8374 31.302C31.8374 31.274 31.8491 31.2511 31.8634 31.2511C31.8777 31.2511 31.9058 31.274 31.9259 31.302ZM28.8352 32.4879C28.7594 32.5532 28.6827 32.5027 28.7387 32.4244C28.7604 32.3942 28.8052 32.3838 28.8382 32.4014C28.8785 32.4229 28.8775 32.4513 28.8352 32.4879Z" fill="#FFFEFE"/>
<g filter="url(#filter2_d)">
<path fill-rule="evenodd" clip-rule="evenodd" d="M11.8724 6.10044C12.0286 6.21279 12.041 6.28416 11.9118 6.32692C11.78 6.3706 11.777 6.36866 11.8092 6.26237C11.832 6.18723 11.8057 6.16692 11.6857 6.16692C11.5957 6.16692 11.5333 6.19558 11.5333 6.23692C11.5333 6.2754 11.4802 6.30691 11.4153 6.30691C11.2847 6.30691 11.2554 6.18291 11.371 6.12029C11.4116 6.09835 11.4912 6.08695 11.548 6.09504C11.6048 6.10308 11.6512 6.08532 11.6512 6.05559C11.6512 5.97735 11.7212 5.9915 11.8724 6.10044ZM9.79077 6.07005C9.8661 6.11759 9.8786 6.14976 9.83153 6.17486C9.73296 6.22745 9.7483 6.30691 9.85701 6.30691C9.90839 6.30691 9.93936 6.33557 9.92585 6.37055C9.91134 6.40806 9.79909 6.43418 9.65244 6.43418C9.44186 6.43418 9.40794 6.42013 9.43148 6.3425C9.45731 6.25713 9.4454 6.25784 9.25917 6.35263C9.14226 6.41219 9.04446 6.43408 9.02387 6.40532C9.00447 6.37828 8.96099 6.3709 8.92713 6.38897C8.85599 6.4269 8.76309 6.31969 8.76173 6.19813C8.76114 6.14401 8.82367 6.1069 8.94035 6.09209C9.07908 6.07453 9.11241 6.08608 9.08717 6.14289C9.06434 6.19421 9.08286 6.20703 9.1484 6.1853C9.20013 6.16819 9.33975 6.15272 9.45879 6.15099C9.64778 6.14814 9.6584 6.14193 9.54243 6.10171C9.46946 6.07636 9.40971 6.04347 9.40971 6.02856C9.40971 5.97363 9.68554 6.00366 9.79077 6.07005ZM11.022 6.13724C11.0437 6.15587 11.0592 6.2189 11.0567 6.27723C11.0542 6.33557 11.0383 6.3537 11.0215 6.3175C10.9981 6.26731 10.9715 6.26563 10.9089 6.31053C10.8448 6.35634 10.8183 6.35008 10.788 6.28207C10.7373 6.16804 10.9239 6.05253 11.022 6.13724ZM10.1765 6.15119C10.1765 6.18082 10.2148 6.2051 10.2616 6.2051C10.3083 6.2051 10.3629 6.22801 10.383 6.25601C10.4043 6.28569 10.3443 6.30691 10.239 6.30691C10.0608 6.30691 9.98685 6.19848 10.1176 6.12874C10.15 6.11143 10.1765 6.12156 10.1765 6.15119ZM8.58388 6.20403C8.63255 6.23055 8.67237 6.2811 8.67237 6.31628C8.67237 6.35146 8.73784 6.40842 8.81783 6.44288C8.94365 6.497 8.91575 6.50143 8.61137 6.47582C8.23769 6.44436 8.00215 6.33043 8.11305 6.23473C8.15752 6.19634 8.19215 6.20271 8.23149 6.25641C8.27874 6.32086 8.28729 6.31888 8.28806 6.24328C8.28901 6.14615 8.4409 6.12599 8.58388 6.20403ZM7.97301 6.34489C8.01489 6.48305 8.00056 6.53574 7.92027 6.5391C7.80383 6.54404 7.70314 6.45877 7.73665 6.38348C7.78667 6.27102 7.94287 6.24547 7.97301 6.34489ZM7.54818 6.31964C7.63513 6.56659 7.62787 6.61235 7.50182 6.61159C7.3977 6.61093 7.39068 6.60171 7.46312 6.56068C7.524 6.52617 7.53137 6.49863 7.48677 6.47236C7.41039 6.42736 7.40089 6.25601 7.4748 6.25601C7.50288 6.25601 7.53591 6.28467 7.54818 6.31964ZM7.31565 6.40873C7.33571 6.43672 7.3107 6.45963 7.26014 6.45963C7.20959 6.45963 7.16818 6.43672 7.16818 6.40873C7.16818 6.38073 7.19313 6.35782 7.22369 6.35782C7.25424 6.35782 7.2956 6.38073 7.31565 6.40873ZM6.98396 6.52464C7.02042 6.5561 7.05021 6.61994 7.05021 6.66652C7.05021 6.73183 6.99446 6.75117 6.80635 6.75117C6.63511 6.75117 6.54521 6.7778 6.50451 6.84062C6.45732 6.91336 6.43703 6.91703 6.39533 6.86027C6.35917 6.81099 6.34389 6.83161 6.34324 6.93052C6.34271 7.01512 6.31021 7.07051 6.26107 7.07051C6.21642 7.07051 6.14811 7.1035 6.1093 7.14387C6.07054 7.18418 6.00094 7.20465 5.95463 7.18932C5.90833 7.17395 5.87046 7.19004 5.87046 7.22501C5.87046 7.2864 5.55157 7.57957 5.48474 7.57957C5.43171 7.57957 5.1665 7.85472 5.16449 7.91189C5.16343 7.94065 5.11618 7.99991 5.05938 8.04359C4.84372 8.20949 4.69342 8.39632 4.64587 8.55769C4.61756 8.65349 4.54105 8.74645 4.46667 8.77521C4.39523 8.80285 4.33678 8.84297 4.33678 8.8643C4.33678 8.95247 4.17108 8.89494 4.14123 8.79644C4.10366 8.67243 4.14766 8.5468 4.22859 8.5468C4.2595 8.5468 4.26823 8.52373 4.24806 8.49553C4.22789 8.46733 4.26611 8.37789 4.33306 8.29679C4.40001 8.21565 4.45475 8.10208 4.45475 8.0444C4.45475 7.98672 4.50784 7.915 4.57273 7.88501C4.63761 7.85503 4.6907 7.78549 4.6907 7.73051C4.6907 7.67548 4.71135 7.63048 4.73654 7.63048C4.84655 7.63048 5.17186 7.31756 5.13895 7.24344C5.11482 7.18927 5.13447 7.17003 5.20219 7.18133C5.33526 7.20363 5.37466 7.32504 5.24879 7.32504C5.16638 7.32504 5.16137 7.33874 5.22106 7.40084C5.32069 7.50449 5.41554 7.44162 5.3828 7.29363C5.368 7.22689 5.37879 7.17232 5.40675 7.17232C5.43466 7.17232 5.45754 7.13867 5.45754 7.09754C5.45754 7.05646 5.49164 7.03411 5.53334 7.04791C5.61386 7.07458 5.87046 6.89651 5.87046 6.81399C5.87046 6.78706 5.90744 6.76507 5.95263 6.76507C5.99781 6.76507 6.04937 6.73234 6.06718 6.69227C6.08582 6.65033 6.21978 6.60589 6.38318 6.58741C6.53914 6.56974 6.72324 6.53553 6.79225 6.5114C6.87206 6.48346 6.94185 6.48829 6.98396 6.52464ZM7.2815 6.69294C7.27867 6.75224 7.26469 6.76431 7.24587 6.72373C7.22882 6.68698 7.23094 6.64305 7.25053 6.62615C7.27011 6.60925 7.28403 6.63928 7.2815 6.69294ZM6.51932 6.6348C6.51932 6.64717 6.54586 6.6714 6.57831 6.68871C6.61075 6.70602 6.63729 6.69589 6.63729 6.66626C6.63729 6.63663 6.61075 6.61235 6.57831 6.61235C6.54586 6.61235 6.51932 6.62243 6.51932 6.6348ZM4.42561 9.19585C4.3973 9.52629 4.50949 10.1891 4.60494 10.2553C4.64782 10.285 4.70097 10.3715 4.72303 10.4474C4.74509 10.5233 4.81275 10.6154 4.87339 10.6521C4.97154 10.7114 4.97426 10.7294 4.89804 10.8163C4.7773 10.954 4.78732 10.9776 4.96629 10.9776C5.053 10.9776 5.16101 11.0205 5.20643 11.073C5.25179 11.1255 5.31208 11.1632 5.34033 11.1567C5.42368 11.1377 5.63079 11.3975 5.59551 11.4769C5.5777 11.5169 5.54478 11.5399 5.52225 11.5279C5.49978 11.5159 5.44285 11.5271 5.39572 11.5529C5.33502 11.586 5.37649 11.5999 5.53818 11.6004C5.74576 11.6011 5.76304 11.6115 5.73065 11.7157C5.71113 11.7787 5.69473 11.849 5.69432 11.8718C5.69385 11.8948 5.64058 11.899 5.57587 11.8813C5.48763 11.8571 5.46669 11.868 5.49199 11.9248C5.53894 12.0305 5.69349 12.0738 5.69349 11.9814C5.69349 11.9403 5.73614 11.9066 5.78829 11.9066C5.84892 11.9066 5.87069 11.8787 5.84857 11.8291C5.82049 11.7658 5.83559 11.7615 5.9308 11.8054C5.99492 11.835 6.04742 11.8945 6.04742 11.9375C6.04742 11.9805 6.08865 12.0512 6.13897 12.0947C6.2022 12.1493 6.21866 12.2206 6.19211 12.3249C6.16003 12.451 6.17076 12.4731 6.25694 12.4586C6.39279 12.4356 6.42635 12.2264 6.31027 12.1262C6.17725 12.0114 6.25482 11.9806 6.42901 12.0791C6.51112 12.1255 6.57831 12.2032 6.57831 12.2517C6.57831 12.301 6.65747 12.3702 6.75792 12.4086C6.8628 12.4486 6.93365 12.512 6.9281 12.561C6.90834 12.7362 6.93719 12.772 7.0981 12.772C7.21402 12.772 7.30338 12.818 7.39481 12.9247C7.46678 13.0087 7.57508 13.0775 7.63554 13.0775C7.696 13.0775 7.76071 13.1118 7.77941 13.1538C7.79805 13.1958 7.78761 13.2302 7.75623 13.2302C7.72479 13.2302 7.69907 13.2645 7.69907 13.3065C7.69907 13.3485 7.73889 13.3829 7.78755 13.3829C7.83622 13.3829 7.87603 13.4043 7.87603 13.4304C7.87603 13.4565 7.92912 13.4924 7.99401 13.5102C8.05889 13.5279 8.11198 13.5756 8.11198 13.6161C8.11198 13.6954 8.21155 13.8656 8.33773 14.0021C8.38079 14.0488 8.40975 14.1289 8.40208 14.1803C8.38545 14.2918 8.46166 14.5566 8.5331 14.6354C8.56106 14.6663 8.583 14.7465 8.5817 14.8136C8.58046 14.8807 8.57946 15.0272 8.5794 15.1392C8.57934 15.4633 8.55828 15.5949 8.50071 15.6308C8.47116 15.6493 8.44019 15.718 8.43187 15.7835C8.42356 15.8491 8.41453 15.9187 8.41182 15.938C8.4091 15.9575 8.33083 16.0122 8.2378 16.0596C8.14478 16.107 8.03365 16.2229 7.99082 16.317C7.948 16.4112 7.87816 16.4882 7.83551 16.4882C7.79292 16.4882 7.75806 16.5218 7.75806 16.563C7.75806 16.6087 7.72349 16.6263 7.66911 16.6083C7.6202 16.592 7.51179 16.6175 7.4282 16.6647C7.28616 16.7451 7.2825 16.7567 7.37275 16.8427C7.46336 16.9291 7.45687 16.9414 7.26587 17.0433C7.15397 17.1029 7.01977 17.2079 6.96768 17.2765C6.90409 17.3603 6.84062 17.3905 6.77438 17.3686C6.69646 17.3428 6.68478 17.3561 6.71864 17.4323C6.74223 17.4853 6.74318 17.5129 6.72082 17.4935C6.6984 17.4743 6.60662 17.5036 6.5169 17.5588C6.42712 17.6139 6.30224 17.659 6.23942 17.659C6.17654 17.659 5.97533 17.7804 5.79224 17.9286C5.60914 18.0768 5.45011 18.1744 5.43896 18.1454C5.41094 18.0729 5.22159 18.2432 5.22159 18.3408C5.22159 18.4918 4.73099 18.6033 4.67737 18.4645C4.66469 18.4316 4.62293 18.4213 4.58458 18.4418C4.49557 18.4893 4.62647 18.6248 4.72869 18.591C4.76609 18.5786 4.81428 18.5929 4.83569 18.6228C4.86914 18.6695 4.61349 18.7078 4.43759 18.6825C4.41199 18.6788 4.33536 18.7015 4.26741 18.7329C4.16961 18.7781 4.1607 18.7989 4.22482 18.8331C4.28935 18.8675 4.27803 18.8985 4.16854 18.9865L4.03134 19.0968L4.19881 19.1917C4.29094 19.244 4.40868 19.2751 4.46053 19.2609C4.56022 19.2337 4.9079 19.3548 5.17487 19.5097C5.2942 19.579 5.32966 19.6366 5.31521 19.7379C5.30453 19.8125 5.30789 19.8391 5.32264 19.7971C5.37838 19.6387 5.51995 19.5924 5.70134 19.6734C5.79436 19.7148 5.87046 19.7711 5.87046 19.7984C5.87046 19.8257 5.9085 19.848 5.95504 19.848C6.00341 19.848 6.04754 19.9079 6.05827 19.988C6.07084 20.0824 6.11543 20.1328 6.19506 20.1426C6.33498 20.1599 6.51932 20.4154 6.51932 20.5919C6.51932 20.6605 6.55914 20.7298 6.6078 20.7459C6.65646 20.762 6.69628 20.8066 6.69628 20.8449C6.69628 20.8951 6.74559 20.906 6.87324 20.884C7.01181 20.86 7.05021 20.8714 7.05021 20.9361C7.05021 20.9817 7.01039 21.0189 6.96173 21.0189C6.91306 21.0189 6.87324 21.0557 6.87324 21.1007C6.87324 21.1566 6.9048 21.172 6.97317 21.1494C7.06531 21.1188 7.06513 21.1239 6.97081 21.2138C6.87319 21.3069 6.87425 21.3126 6.99417 21.3397C7.0971 21.3629 7.11085 21.3894 7.07032 21.4862C7.04319 21.5511 7.02089 21.7536 7.02083 21.9361C7.02071 22.2002 6.99435 22.2969 6.89165 22.4099C6.82063 22.4879 6.72011 22.6621 6.6682 22.7969C6.5586 23.0817 6.20651 23.4115 6.01208 23.4115C5.87523 23.4115 5.77018 23.5671 5.84061 23.6655C5.86084 23.6938 5.84244 23.7169 5.79967 23.7169C5.75684 23.7169 5.68871 23.7627 5.64819 23.8187C5.60767 23.8747 5.52567 23.9205 5.46598 23.9205C5.39643 23.9205 5.31927 23.9937 5.25109 24.1242C5.19257 24.2362 5.10893 24.3278 5.06516 24.3278C5.02145 24.3278 4.98564 24.3507 4.98564 24.3787C4.98564 24.4067 4.91928 24.4296 4.83817 24.4296C4.74639 24.4296 4.6907 24.4585 4.6907 24.506C4.6907 24.548 4.65089 24.5823 4.60222 24.5823C4.55356 24.5823 4.51374 24.6067 4.51374 24.6365C4.51374 24.6663 4.45912 24.8003 4.39234 24.9342C4.30404 25.1113 4.20754 25.2085 4.03842 25.2905C3.91053 25.3526 3.80589 25.424 3.80589 25.4492C3.80589 25.4744 3.72626 25.5654 3.62893 25.6513C3.5316 25.7373 3.45196 25.8383 3.45196 25.8759C3.45196 25.9136 3.41215 25.9728 3.36348 26.0077C3.31482 26.0426 3.275 26.1113 3.275 26.1604C3.275 26.2095 3.23347 26.2795 3.18274 26.3158C3.12594 26.3565 3.10311 26.4255 3.1234 26.4952C3.17926 26.6873 3.09279 27.0767 2.99434 27.0767C2.92733 27.0767 2.92226 27.093 2.97275 27.1455C3.04141 27.2169 3.05757 27.3668 3.02017 27.5858C3.00826 27.6558 3.03722 27.7646 3.08459 27.8277C3.13266 27.8916 3.15532 27.9929 3.13585 28.0568C3.11662 28.1197 3.11662 28.2872 3.13579 28.429C3.16251 28.6263 3.20015 28.6978 3.29659 28.7344C3.38195 28.7667 3.41651 28.8189 3.40401 28.8966C3.39386 28.9597 3.40713 29.0112 3.4335 29.0112C3.45987 29.0112 3.47981 29.0856 3.47786 29.1766C3.47379 29.3629 3.55242 29.4847 3.64491 29.4354C3.68373 29.4147 3.69423 29.4431 3.67323 29.5122C3.65494 29.5726 3.66408 29.6348 3.69346 29.6505C3.72283 29.6661 3.7469 29.7183 3.7469 29.7664C3.7469 29.8145 3.82872 29.9312 3.92876 30.0257C4.02874 30.1202 4.13445 30.2517 4.16365 30.3179C4.19279 30.3842 4.27691 30.4621 4.35046 30.491C4.65973 30.6127 4.81841 30.7047 4.85292 30.7823C4.92093 30.9352 5.06999 31.0474 5.20519 31.0474C5.31709 31.0474 5.33986 31.0751 5.34134 31.2129C5.34287 31.3507 5.35325 31.3634 5.40375 31.2885C5.45784 31.2083 5.47388 31.207 5.55363 31.2758C5.60277 31.3182 5.67527 31.3529 5.71473 31.3529C5.79578 31.3529 6.18981 31.5193 6.3062 31.6027C6.34825 31.6327 6.45986 31.6649 6.55424 31.6741C6.64856 31.6832 6.78376 31.7178 6.8546 31.7509C6.92551 31.784 7.03676 31.811 7.10182 31.811C7.16694 31.811 7.23519 31.8319 7.25348 31.8575C7.27182 31.8831 7.39281 31.9195 7.5224 31.9383C7.652 31.9572 7.75806 31.9936 7.75806 32.0191C7.75806 32.0447 7.79947 32.0656 7.85002 32.0656C7.90057 32.0656 7.92576 32.0882 7.90594 32.1159C7.88529 32.1447 7.90895 32.1533 7.96145 32.1359C8.01182 32.1192 8.053 32.1309 8.053 32.1619C8.053 32.1929 8.09281 32.2183 8.14148 32.2183C8.19014 32.2183 8.22996 32.2405 8.22996 32.2676C8.22996 32.2947 8.27438 32.3022 8.3287 32.2842C8.40527 32.2588 8.41831 32.2719 8.38698 32.3424C8.35295 32.4189 8.36988 32.4282 8.49475 32.4011C8.6437 32.3689 8.67797 32.4186 8.64541 32.6197C8.63809 32.6652 8.66788 32.679 8.72917 32.6588C8.78456 32.6404 8.83771 32.6574 8.85647 32.6995C8.8741 32.7393 8.92495 32.7598 8.96943 32.7451C9.07507 32.7101 9.32329 32.8572 9.23664 32.9034C9.15252 32.9483 9.3063 33.0837 9.44133 33.0837C9.51323 33.0837 9.5281 33.108 9.49571 33.1728C9.47123 33.2217 9.44622 33.3396 9.44015 33.4346C9.43413 33.5296 9.38889 33.6327 9.33957 33.6638C9.29026 33.695 9.22986 33.7749 9.20538 33.8415C9.17099 33.9351 9.14916 33.9466 9.10923 33.8922C9.06829 33.8364 9.05738 33.8403 9.05667 33.9109C9.0562 33.9599 9.01314 34 8.96099 34C8.90094 34 8.87865 33.972 8.90018 33.9236C8.91882 33.8816 8.90554 33.8473 8.87056 33.8473C8.83228 33.8473 8.82172 33.7968 8.84408 33.72C8.86537 33.6466 8.85564 33.5927 8.82096 33.5927C8.78792 33.5927 8.76085 33.5194 8.76085 33.4298C8.76085 33.3112 8.74321 33.2822 8.69584 33.323C8.64853 33.3639 8.51628 33.343 8.20919 33.246C7.97731 33.1728 7.7787 33.0949 7.76791 33.0728C7.75706 33.0508 7.71063 33.0328 7.66468 33.0328C7.61867 33.0328 7.5811 33.0106 7.5811 32.9834C7.5811 32.9564 7.54128 32.9474 7.49261 32.9634C7.43581 32.9823 7.40413 32.9624 7.40413 32.908C7.40413 32.8528 7.37841 32.8371 7.3304 32.8631C7.21779 32.924 6.75963 32.8894 6.56391 32.8051C6.46794 32.7638 6.29894 32.7154 6.18828 32.6975C6.07768 32.6795 5.97256 32.6446 5.95481 32.6198C5.93705 32.5949 5.8327 32.5746 5.72299 32.5746C5.61327 32.5746 5.50656 32.551 5.48586 32.5221C5.46521 32.4932 5.32423 32.4228 5.17269 32.3657C4.67053 32.1765 4.50041 32.0948 4.47109 32.0289C4.45517 31.9931 4.3901 31.9637 4.32651 31.9637C4.24346 31.9637 4.21992 31.9386 4.24299 31.8747C4.27396 31.789 4.01075 31.5931 3.73215 31.4945C3.6163 31.4535 3.60598 31.4121 3.68479 31.3046C3.72325 31.2522 3.69735 31.1977 3.59542 31.1161C3.5165 31.053 3.45196 30.9452 3.45196 30.8764C3.45196 30.7782 3.42772 30.757 3.33847 30.7771C3.25483 30.796 3.19891 30.7592 3.126 30.6376C3.07155 30.5468 2.95806 30.4129 2.87377 30.3402C2.74382 30.228 2.73568 30.2054 2.8205 30.1913C2.90674 30.1769 2.89866 30.1498 2.76169 29.9949C2.65333 29.8723 2.60691 29.763 2.61564 29.6511C2.6239 29.5454 2.5898 29.4567 2.51996 29.4022C2.43944 29.3393 2.41549 29.2583 2.42711 29.0879C2.43944 28.9075 2.42298 28.8585 2.35013 28.8585C2.27947 28.8585 2.26555 28.8236 2.2915 28.7117C2.31291 28.6191 2.28596 28.498 2.21859 28.3839C2.14321 28.2563 2.13011 28.1869 2.17423 28.1489C2.21836 28.1108 2.217 28.0949 2.16969 28.0949C2.13276 28.0949 2.10333 28.0548 2.10427 28.0058C2.10516 27.9568 2.10015 27.8004 2.09313 27.6581C2.08605 27.5159 2.11082 27.3504 2.1481 27.2902C2.19854 27.2089 2.19889 27.1574 2.1494 27.089C2.09832 27.0184 2.10486 26.9519 2.1776 26.8016C2.22962 26.6941 2.27221 26.5066 2.27221 26.3849C2.27221 26.1954 2.28702 26.1684 2.37544 26.197C2.46475 26.2259 2.46805 26.2192 2.40004 26.1469C2.33309 26.0759 2.33969 26.0465 2.44428 25.9496C2.51188 25.887 2.56715 25.7956 2.56715 25.7465C2.56715 25.6975 2.59623 25.6418 2.6318 25.6229C2.66737 25.6039 2.68406 25.5166 2.66884 25.429C2.64773 25.307 2.68188 25.225 2.81419 25.0802C2.90928 24.9761 2.99121 24.8443 2.99617 24.7875C3.00112 24.7307 3.02389 24.6841 3.04678 24.6841C3.10252 24.6841 3.57041 24.2944 3.54357 24.2704C3.53201 24.2599 3.58628 24.2102 3.6642 24.1599C3.74212 24.1096 3.80589 24.0925 3.80589 24.1218C3.80589 24.1511 3.8342 24.1751 3.86883 24.1751C3.90345 24.1751 3.91679 24.1343 3.8985 24.0844C3.87768 24.0278 3.90947 23.9662 3.98297 23.9204C4.0478 23.8801 4.10083 23.8179 4.10083 23.782C4.10083 23.7462 4.12908 23.7169 4.16365 23.7169C4.19816 23.7169 4.29342 23.6482 4.3753 23.5642C4.45723 23.4802 4.56081 23.4115 4.60558 23.4115C4.6503 23.4115 4.72521 23.3484 4.77193 23.2715C4.81865 23.1945 4.87923 23.1372 4.90654 23.1442C4.93385 23.1512 4.95945 23.134 4.96352 23.106C4.96759 23.078 4.9742 23.0322 4.97827 23.0042C4.98234 22.9762 5.02546 22.9533 5.07412 22.9533C5.12279 22.9533 5.1626 22.9171 5.1626 22.8729C5.1626 22.8101 5.20124 22.7998 5.33957 22.826C5.51983 22.8602 5.56732 22.8139 5.45306 22.7153C5.40776 22.6762 5.47654 22.5854 5.69349 22.3982C6.02494 22.1121 6.08824 21.9554 6.05792 21.4957C6.05031 21.3798 6.01291 21.3284 5.92136 21.3078C5.81412 21.2835 5.80091 21.2543 5.83282 21.1109C5.85606 21.0064 5.85058 20.9689 5.81837 21.0121C5.77637 21.0684 5.74251 21.0612 5.64147 20.974C5.57274 20.9147 5.47996 20.8661 5.43524 20.8661C5.39059 20.8661 5.32122 20.832 5.28111 20.7903C5.241 20.7487 5.18649 20.7262 5.15989 20.7404C5.10208 20.7712 4.75034 20.4583 4.74999 20.3758C4.74981 20.344 4.68575 20.3075 4.60759 20.2946C4.50584 20.2778 4.47416 20.2906 4.49593 20.3396C4.51545 20.3835 4.48189 20.408 4.40208 20.408C4.33371 20.408 4.27779 20.3851 4.27779 20.3571C4.27779 20.3291 4.21733 20.3062 4.14348 20.3062C4.06956 20.3062 3.95672 20.2747 3.89278 20.2361C3.82878 20.1976 3.63707 20.1496 3.46677 20.1296C3.29647 20.1095 3.14228 20.0723 3.12411 20.0469C3.10594 20.0215 3.02849 20.0007 2.95199 20.0007C2.87554 20.0007 2.79956 19.9721 2.78316 19.9371C2.75939 19.8862 2.75249 19.8862 2.74877 19.9371C2.74293 20.0166 2.62395 20.0182 2.40877 19.9417C2.31746 19.9092 2.20951 19.8873 2.16898 19.893C2.1284 19.8987 2.09525 19.868 2.09525 19.8248C2.09525 19.7816 2.12504 19.7462 2.16143 19.7462C2.20827 19.7462 2.20691 19.7246 2.15683 19.6725C2.11784 19.632 2.07814 19.5232 2.06853 19.4307C2.05897 19.3382 2.03249 19.1809 2.00972 19.0812C1.96908 18.9034 2.06092 18.7558 2.19228 18.7877C2.26903 18.8063 2.62614 18.6305 2.62614 18.574C2.62614 18.5467 2.66595 18.5245 2.71462 18.5245C2.76328 18.5245 2.8031 18.5015 2.8031 18.4735C2.8031 18.4455 2.90928 18.4226 3.03905 18.4226C3.16882 18.4226 3.275 18.3997 3.275 18.3717C3.275 18.3437 3.34832 18.3208 3.43798 18.3208C3.54292 18.3208 3.64031 18.2755 3.71169 18.1936C3.77256 18.1236 3.85668 18.0663 3.89862 18.0663C3.9405 18.0663 4.03057 17.9987 4.0987 17.9161C4.20252 17.7903 4.25443 17.7695 4.41842 17.7876C4.58582 17.8061 4.6247 17.7892 4.68734 17.6705C4.72763 17.5942 4.7629 17.5203 4.76568 17.5063C4.78644 17.4021 4.97266 17.3318 5.29533 17.3062C5.31963 17.3043 5.33957 17.2569 5.33957 17.2009C5.33957 17.1239 5.37915 17.0989 5.50178 17.0984C5.76404 17.0972 5.92319 17.0436 5.95976 16.9441C5.97864 16.8928 6.07243 16.821 6.16817 16.7844C6.26396 16.7478 6.34236 16.6913 6.34236 16.6587C6.34236 16.6246 6.39232 16.6108 6.46033 16.6262C6.54309 16.6448 6.57831 16.6277 6.57831 16.5688C6.57831 16.4526 6.92586 16.1697 7.02732 16.2034C7.07292 16.2184 7.14294 16.1857 7.18293 16.1304C7.22286 16.0752 7.28899 16.03 7.32987 16.03C7.37069 16.03 7.40413 16.004 7.40413 15.9723C7.40413 15.9404 7.47049 15.8614 7.5516 15.7965C7.63271 15.7316 7.69907 15.6546 7.69907 15.6252C7.69907 15.5959 7.73623 15.5719 7.78171 15.5719C7.86807 15.5719 7.88276 15.4862 7.8909 14.9355C7.89874 14.4067 7.76402 14.0879 7.50736 14.0276C7.45056 14.0142 7.40413 13.9557 7.40413 13.8974C7.40413 13.8289 7.31972 13.7455 7.16588 13.6616C7.03487 13.5902 6.90061 13.4705 6.86758 13.3955C6.81927 13.2858 6.79674 13.2737 6.75279 13.3337C6.71238 13.3889 6.69787 13.3666 6.69717 13.2486C6.69664 13.1538 6.66626 13.0897 6.62255 13.0912C6.42529 13.0975 6.34236 13.0708 6.34236 13.0011C6.34236 12.9591 6.31392 12.9247 6.27918 12.9247C6.18315 12.9247 6.04742 12.7899 6.04742 12.6946C6.04742 12.648 5.99917 12.557 5.94024 12.4923C5.84326 12.386 5.82675 12.3827 5.76676 12.4589C5.70865 12.5325 5.69998 12.5281 5.69697 12.4236C5.69473 12.3471 5.64949 12.2944 5.5705 12.2766C5.47459 12.2549 5.46486 12.2382 5.52626 12.2006C5.58295 12.1659 5.56885 12.1591 5.47612 12.1766C5.33862 12.2024 5.26129 12.111 5.31621 11.9876C5.33585 11.9433 5.29668 11.9017 5.21386 11.879C5.05354 11.8351 4.91798 11.7275 4.9683 11.6841C4.98806 11.667 5.03991 11.6785 5.08344 11.7097C5.13553 11.747 5.1626 11.7482 5.1626 11.7134C5.1626 11.6843 5.17888 11.6237 5.19882 11.5789C5.22967 11.5095 5.21156 11.5052 5.07701 11.5493C4.82042 11.6335 4.74963 11.6144 4.75058 11.4612C4.75122 11.3616 4.76638 11.3415 4.80302 11.3913C4.83133 11.4299 4.88401 11.4458 4.92005 11.4265C5.02676 11.3696 4.99526 11.304 4.85292 11.2866C4.75028 11.274 4.72079 11.2377 4.72285 11.1266C4.72533 10.9915 4.71394 10.9848 4.53203 11.0142C4.37376 11.0398 4.34486 11.0313 4.37329 10.9674C4.39364 10.9217 4.36881 10.8764 4.31342 10.858C4.26139 10.8408 4.2188 10.7719 4.2188 10.7049C4.2188 10.6379 4.19025 10.5831 4.15539 10.5831C4.12047 10.5831 4.09959 10.52 4.10897 10.443C4.11829 10.366 4.10549 10.2744 4.08042 10.2394C4.05535 10.2044 4.05128 10.1529 4.07133 10.1249C4.09139 10.0969 4.08207 10.074 4.05063 10.074C4.01736 10.074 3.9927 9.84012 3.99158 9.51402C3.98999 9.05932 4.00562 8.95405 4.0747 8.95405C4.12153 8.95405 4.15981 8.98154 4.15981 9.01513C4.15981 9.06263 4.17556 9.06263 4.2306 9.01513C4.38019 8.88604 4.44685 8.94789 4.42561 9.19585ZM7.24587 13.0361C7.26469 13.0767 7.27867 13.0646 7.2815 13.0053C7.28403 12.9517 7.27011 12.9216 7.25053 12.9385C7.23094 12.9554 7.22882 12.9994 7.24587 13.0361ZM6.78476 13.1793C6.76471 13.2073 6.77645 13.2302 6.81078 13.2302C6.84511 13.2302 6.87324 13.2073 6.87324 13.1793C6.87324 13.1513 6.86157 13.1284 6.84723 13.1284C6.8329 13.1284 6.80482 13.1513 6.78476 13.1793ZM7.65843 16.7271C7.71317 16.8036 7.56027 16.847 7.45775 16.7841C7.39104 16.7432 7.39422 16.7385 7.47403 16.7605C7.52871 16.7756 7.58357 16.7617 7.59596 16.7296C7.61206 16.688 7.62988 16.6873 7.65843 16.7271ZM5.01514 18.3208C4.99508 18.3488 5.02009 18.3717 5.07064 18.3717C5.12119 18.3717 5.1626 18.3488 5.1626 18.3208C5.1626 18.2928 5.13765 18.2699 5.1071 18.2699C5.07654 18.2699 5.03519 18.2928 5.01514 18.3208ZM5.07412 31.302C5.05407 31.33 5.0658 31.3529 5.10014 31.3529C5.13447 31.3529 5.1626 31.33 5.1626 31.302C5.1626 31.274 5.15092 31.2511 5.13659 31.2511C5.12226 31.2511 5.09418 31.274 5.07412 31.302ZM8.16484 32.4879C8.24058 32.5532 8.31732 32.5027 8.26128 32.4244C8.23957 32.3942 8.1948 32.3838 8.16177 32.4014C8.12148 32.4229 8.12248 32.4513 8.16484 32.4879Z" fill="#FFFEFE"/>
</g>
<path fill-rule="evenodd" clip-rule="evenodd" d="M9.87244 6.10044C10.0286 6.21279 10.041 6.28416 9.91185 6.32692C9.78001 6.3706 9.777 6.36866 9.80921 6.26237C9.83198 6.18723 9.80567 6.16692 9.68569 6.16692C9.59567 6.16692 9.53326 6.19558 9.53326 6.23692C9.53326 6.2754 9.48017 6.30691 9.41529 6.30691C9.28475 6.30691 9.25537 6.18291 9.37105 6.12029C9.41157 6.09835 9.49121 6.08695 9.54801 6.09504C9.60482 6.10308 9.65124 6.08532 9.65124 6.05559C9.65124 5.97735 9.7212 5.9915 9.87244 6.10044ZM7.79077 6.07005C7.8661 6.11759 7.8786 6.14976 7.83153 6.17486C7.73296 6.22745 7.7483 6.30691 7.85701 6.30691C7.90839 6.30691 7.93936 6.33557 7.92585 6.37055C7.91134 6.40806 7.79909 6.43418 7.65244 6.43418C7.44186 6.43418 7.40794 6.42013 7.43148 6.3425C7.45731 6.25713 7.4454 6.25784 7.25917 6.35263C7.14226 6.41219 7.04446 6.43408 7.02387 6.40532C7.00447 6.37828 6.96099 6.3709 6.92713 6.38897C6.85599 6.4269 6.76309 6.31969 6.76173 6.19813C6.76114 6.14401 6.82367 6.1069 6.94035 6.09209C7.07908 6.07453 7.11241 6.08608 7.08717 6.14289C7.06434 6.19421 7.08286 6.20703 7.1484 6.1853C7.20013 6.16819 7.33975 6.15272 7.45879 6.15099C7.64778 6.14814 7.6584 6.14193 7.54243 6.10171C7.46946 6.07636 7.40971 6.04347 7.40971 6.02856C7.40971 5.97363 7.68554 6.00366 7.79077 6.07005ZM9.02202 6.13724C9.04367 6.15587 9.05924 6.2189 9.0567 6.27723C9.05417 6.33557 9.0383 6.3537 9.02149 6.3175C8.99813 6.26731 8.97153 6.26563 8.90888 6.31053C8.84482 6.35634 8.81828 6.35008 8.78801 6.28207C8.73734 6.16804 8.92392 6.05253 9.02202 6.13724ZM8.17655 6.15119C8.17655 6.18082 8.21477 6.2051 8.26155 6.2051C8.30833 6.2051 8.36295 6.22801 8.38301 6.25601C8.4043 6.28569 8.34431 6.30691 8.23902 6.30691C8.06076 6.30691 7.98685 6.19848 8.11756 6.12874C8.15 6.11143 8.17655 6.12156 8.17655 6.15119ZM6.58388 6.20403C6.63255 6.23055 6.67237 6.2811 6.67237 6.31628C6.67237 6.35146 6.73784 6.40842 6.81783 6.44288C6.94365 6.497 6.91575 6.50143 6.61137 6.47582C6.23769 6.44436 6.00215 6.33043 6.11305 6.23473C6.15752 6.19634 6.19215 6.20271 6.23149 6.25641C6.27874 6.32086 6.28729 6.31888 6.28806 6.24328C6.28901 6.14615 6.4409 6.12599 6.58388 6.20403ZM5.97301 6.34489C6.01489 6.48305 6.00056 6.53574 5.92027 6.5391C5.80383 6.54404 5.70314 6.45877 5.73665 6.38348C5.78667 6.27102 5.94287 6.24547 5.97301 6.34489ZM5.54818 6.31964C5.63513 6.56659 5.62787 6.61235 5.50182 6.61159C5.3977 6.61093 5.39068 6.60171 5.46312 6.56068C5.524 6.52617 5.53137 6.49863 5.48677 6.47236C5.41039 6.42736 5.40089 6.25601 5.4748 6.25601C5.50288 6.25601 5.53591 6.28467 5.54818 6.31964ZM5.31565 6.40873C5.33571 6.43672 5.3107 6.45963 5.26014 6.45963C5.20959 6.45963 5.16818 6.43672 5.16818 6.40873C5.16818 6.38073 5.19313 6.35782 5.22369 6.35782C5.25424 6.35782 5.2956 6.38073 5.31565 6.40873ZM4.98396 6.52464C5.02042 6.5561 5.05021 6.61994 5.05021 6.66652C5.05021 6.73183 4.99446 6.75117 4.80635 6.75117C4.63511 6.75117 4.54521 6.7778 4.50451 6.84062C4.45732 6.91336 4.43703 6.91703 4.39533 6.86027C4.35917 6.81099 4.34389 6.83161 4.34324 6.93052C4.34271 7.01512 4.31021 7.07051 4.26107 7.07051C4.21642 7.07051 4.14811 7.1035 4.1093 7.14387C4.07054 7.18418 4.00094 7.20465 3.95463 7.18932C3.90833 7.17395 3.87046 7.19004 3.87046 7.22501C3.87046 7.2864 3.55157 7.57957 3.48474 7.57957C3.43171 7.57957 3.1665 7.85472 3.16449 7.91189C3.16343 7.94065 3.11618 7.99991 3.05938 8.04359C2.84372 8.20949 2.69342 8.39632 2.64587 8.55769C2.61756 8.65349 2.54105 8.74645 2.46667 8.77521C2.39523 8.80285 2.33678 8.84297 2.33678 8.8643C2.33678 8.95247 2.17108 8.89494 2.14123 8.79644C2.10366 8.67243 2.14766 8.5468 2.22859 8.5468C2.2595 8.5468 2.26823 8.52373 2.24806 8.49553C2.22789 8.46733 2.26611 8.37789 2.33306 8.29679C2.40001 8.21565 2.45475 8.10208 2.45475 8.0444C2.45475 7.98672 2.50784 7.915 2.57273 7.88501C2.63761 7.85503 2.6907 7.78549 2.6907 7.73051C2.6907 7.67548 2.71135 7.63048 2.73654 7.63048C2.84655 7.63048 3.17186 7.31756 3.13895 7.24344C3.11482 7.18927 3.13447 7.17003 3.20219 7.18133C3.33526 7.20363 3.37466 7.32504 3.24879 7.32504C3.16638 7.32504 3.16137 7.33874 3.22106 7.40084C3.32069 7.50449 3.41554 7.44162 3.3828 7.29363C3.368 7.22689 3.37879 7.17232 3.40675 7.17232C3.43466 7.17232 3.45754 7.13867 3.45754 7.09754C3.45754 7.05646 3.49164 7.03411 3.53334 7.04791C3.61386 7.07458 3.87046 6.89651 3.87046 6.81399C3.87046 6.78706 3.90744 6.76507 3.95263 6.76507C3.99781 6.76507 4.04937 6.73234 4.06718 6.69227C4.08582 6.65033 4.21978 6.60589 4.38318 6.58741C4.53914 6.56974 4.72324 6.53553 4.79225 6.5114C4.87206 6.48346 4.94185 6.48829 4.98396 6.52464ZM5.2815 6.69294C5.27867 6.75224 5.26469 6.76431 5.24587 6.72373C5.22882 6.68698 5.23094 6.64305 5.25053 6.62615C5.27011 6.60925 5.28403 6.63928 5.2815 6.69294ZM4.51932 6.6348C4.51932 6.64717 4.54586 6.6714 4.57831 6.68871C4.61075 6.70602 4.63729 6.69589 4.63729 6.66626C4.63729 6.63663 4.61075 6.61235 4.57831 6.61235C4.54586 6.61235 4.51932 6.62243 4.51932 6.6348ZM2.42561 9.19585C2.3973 9.52629 2.50949 10.1891 2.60494 10.2553C2.64782 10.285 2.70097 10.3715 2.72303 10.4474C2.74509 10.5233 2.81275 10.6154 2.87339 10.6521C2.97154 10.7114 2.97426 10.7294 2.89804 10.8163C2.7773 10.954 2.78732 10.9776 2.96629 10.9776C3.053 10.9776 3.16101 11.0205 3.20643 11.073C3.25179 11.1255 3.31208 11.1632 3.34033 11.1567C3.42368 11.1377 3.63079 11.3975 3.59551 11.4769C3.5777 11.5169 3.54478 11.5399 3.52225 11.5279C3.49978 11.5159 3.44285 11.5271 3.39572 11.5529C3.33502 11.586 3.37649 11.5999 3.53818 11.6004C3.74576 11.6011 3.76304 11.6115 3.73065 11.7157C3.71113 11.7787 3.69473 11.849 3.69432 11.8718C3.69385 11.8948 3.64058 11.899 3.57587 11.8813C3.48763 11.8571 3.46669 11.868 3.49199 11.9248C3.53894 12.0305 3.69349 12.0738 3.69349 11.9814C3.69349 11.9403 3.73614 11.9066 3.78829 11.9066C3.84892 11.9066 3.87069 11.8787 3.84857 11.8291C3.82049 11.7658 3.83559 11.7615 3.9308 11.8054C3.99492 11.835 4.04742 11.8945 4.04742 11.9375C4.04742 11.9805 4.08865 12.0512 4.13897 12.0947C4.2022 12.1493 4.21866 12.2206 4.19211 12.3249C4.16003 12.451 4.17076 12.4731 4.25694 12.4586C4.39279 12.4356 4.42635 12.2264 4.31027 12.1262C4.17725 12.0114 4.25482 11.9806 4.42901 12.0791C4.51112 12.1255 4.57831 12.2032 4.57831 12.2517C4.57831 12.301 4.65747 12.3702 4.75792 12.4086C4.8628 12.4486 4.93365 12.512 4.9281 12.561C4.90834 12.7362 4.93719 12.772 5.0981 12.772C5.21402 12.772 5.30338 12.818 5.39481 12.9247C5.46678 13.0087 5.57508 13.0775 5.63554 13.0775C5.696 13.0775 5.76071 13.1118 5.77941 13.1538C5.79805 13.1958 5.78761 13.2302 5.75623 13.2302C5.72479 13.2302 5.69907 13.2645 5.69907 13.3065C5.69907 13.3485 5.73889 13.3829 5.78755 13.3829C5.83622 13.3829 5.87603 13.4043 5.87603 13.4304C5.87603 13.4565 5.92912 13.4924 5.99401 13.5102C6.05889 13.5279 6.11198 13.5756 6.11198 13.6161C6.11198 13.6954 6.21155 13.8656 6.33773 14.0021C6.38079 14.0488 6.40975 14.1289 6.40208 14.1803C6.38545 14.2918 6.46166 14.5566 6.5331 14.6354C6.56106 14.6663 6.583 14.7465 6.5817 14.8136C6.58046 14.8807 6.57946 15.0272 6.5794 15.1392C6.57934 15.4633 6.55828 15.5949 6.50071 15.6308C6.47116 15.6493 6.44019 15.718 6.43187 15.7835C6.42356 15.8491 6.41453 15.9187 6.41182 15.938C6.4091 15.9575 6.33083 16.0122 6.2378 16.0596C6.14478 16.107 6.03365 16.2229 5.99082 16.317C5.948 16.4112 5.87816 16.4882 5.83551 16.4882C5.79292 16.4882 5.75806 16.5218 5.75806 16.563C5.75806 16.6087 5.72349 16.6263 5.66911 16.6083C5.6202 16.592 5.51179 16.6175 5.4282 16.6647C5.28616 16.7451 5.2825 16.7567 5.37275 16.8427C5.46336 16.9291 5.45687 16.9414 5.26587 17.0433C5.15397 17.1029 5.01977 17.2079 4.96768 17.2765C4.90409 17.3603 4.84062 17.3905 4.77438 17.3686C4.69646 17.3428 4.68478 17.3561 4.71864 17.4323C4.74223 17.4853 4.74318 17.5129 4.72082 17.4935C4.6984 17.4743 4.60662 17.5036 4.5169 17.5588C4.42712 17.6139 4.30224 17.659 4.23942 17.659C4.17654 17.659 3.97533 17.7804 3.79224 17.9286C3.60914 18.0768 3.45011 18.1744 3.43896 18.1454C3.41094 18.0729 3.22159 18.2432 3.22159 18.3408C3.22159 18.4918 2.73099 18.6033 2.67737 18.4645C2.66469 18.4316 2.62293 18.4213 2.58458 18.4418C2.49557 18.4893 2.62647 18.6248 2.72869 18.591C2.76609 18.5786 2.81428 18.5929 2.83569 18.6228C2.86914 18.6695 2.61349 18.7078 2.43759 18.6825C2.41199 18.6788 2.33536 18.7015 2.26741 18.7329C2.16961 18.7781 2.1607 18.7989 2.22482 18.8331C2.28935 18.8675 2.27803 18.8985 2.16854 18.9865L2.03134 19.0968L2.19881 19.1917C2.29094 19.244 2.40868 19.2751 2.46053 19.2609C2.56022 19.2337 2.9079 19.3548 3.17487 19.5097C3.2942 19.579 3.32966 19.6366 3.31521 19.7379C3.30453 19.8125 3.30789 19.8391 3.32264 19.7971C3.37838 19.6387 3.51995 19.5924 3.70134 19.6734C3.79436 19.7148 3.87046 19.7711 3.87046 19.7984C3.87046 19.8257 3.9085 19.848 3.95504 19.848C4.00341 19.848 4.04754 19.9079 4.05827 19.988C4.07084 20.0824 4.11543 20.1328 4.19506 20.1426C4.33498 20.1599 4.51932 20.4154 4.51932 20.5919C4.51932 20.6605 4.55914 20.7298 4.6078 20.7459C4.65646 20.762 4.69628 20.8066 4.69628 20.8449C4.69628 20.8951 4.74559 20.906 4.87324 20.884C5.01181 20.86 5.05021 20.8714 5.05021 20.9361C5.05021 20.9817 5.01039 21.0189 4.96173 21.0189C4.91306 21.0189 4.87324 21.0557 4.87324 21.1007C4.87324 21.1566 4.9048 21.172 4.97317 21.1494C5.06531 21.1188 5.06513 21.1239 4.97081 21.2138C4.87319 21.3069 4.87425 21.3126 4.99417 21.3397C5.0971 21.3629 5.11085 21.3894 5.07032 21.4862C5.04319 21.5511 5.02089 21.7536 5.02083 21.9361C5.02071 22.2002 4.99435 22.2969 4.89165 22.4099C4.82063 22.4879 4.72011 22.6621 4.6682 22.7969C4.5586 23.0817 4.20651 23.4115 4.01208 23.4115C3.87523 23.4115 3.77018 23.5671 3.84061 23.6655C3.86084 23.6938 3.84244 23.7169 3.79967 23.7169C3.75684 23.7169 3.68871 23.7627 3.64819 23.8187C3.60767 23.8747 3.52567 23.9205 3.46598 23.9205C3.39643 23.9205 3.31927 23.9937 3.25109 24.1242C3.19257 24.2362 3.10893 24.3278 3.06516 24.3278C3.02145 24.3278 2.98564 24.3507 2.98564 24.3787C2.98564 24.4067 2.91928 24.4296 2.83817 24.4296C2.74639 24.4296 2.6907 24.4585 2.6907 24.506C2.6907 24.548 2.65089 24.5823 2.60222 24.5823C2.55356 24.5823 2.51374 24.6067 2.51374 24.6365C2.51374 24.6663 2.45912 24.8003 2.39234 24.9342C2.30404 25.1113 2.20754 25.2085 2.03842 25.2905C1.91053 25.3526 1.80589 25.424 1.80589 25.4492C1.80589 25.4744 1.72626 25.5654 1.62893 25.6513C1.5316 25.7373 1.45196 25.8383 1.45196 25.8759C1.45196 25.9136 1.41215 25.9728 1.36348 26.0077C1.31482 26.0426 1.275 26.1113 1.275 26.1604C1.275 26.2095 1.23347 26.2795 1.18274 26.3158C1.12594 26.3565 1.10311 26.4255 1.1234 26.4952C1.17926 26.6873 1.09279 27.0767 0.994338 27.0767C0.927328 27.0767 0.922256 27.093 0.972749 27.1455C1.04141 27.2169 1.05757 27.3668 1.02017 27.5858C1.00826 27.6558 1.03722 27.7646 1.08459 27.8277C1.13266 27.8916 1.15532 27.9929 1.13585 28.0568C1.11662 28.1197 1.11662 28.2872 1.13579 28.429C1.16251 28.6263 1.20015 28.6978 1.29659 28.7344C1.38195 28.7667 1.41651 28.8189 1.40401 28.8966C1.39386 28.9597 1.40713 29.0112 1.4335 29.0112C1.45987 29.0112 1.47981 29.0856 1.47786 29.1766C1.47379 29.3629 1.55242 29.4847 1.64491 29.4354C1.68373 29.4147 1.69423 29.4431 1.67323 29.5122C1.65494 29.5726 1.66408 29.6348 1.69346 29.6505C1.72283 29.6661 1.7469 29.7183 1.7469 29.7664C1.7469 29.8145 1.82872 29.9312 1.92876 30.0257C2.02874 30.1202 2.13445 30.2517 2.16365 30.3179C2.19279 30.3842 2.27691 30.4621 2.35046 30.491C2.65973 30.6127 2.81841 30.7047 2.85292 30.7823C2.92093 30.9352 3.06999 31.0474 3.20519 31.0474C3.31709 31.0474 3.33986 31.0751 3.34134 31.2129C3.34287 31.3507 3.35325 31.3634 3.40375 31.2885C3.45784 31.2083 3.47388 31.207 3.55363 31.2758C3.60277 31.3182 3.67527 31.3529 3.71473 31.3529C3.79578 31.3529 4.18981 31.5193 4.3062 31.6027C4.34825 31.6327 4.45986 31.6649 4.55424 31.6741C4.64856 31.6832 4.78376 31.7178 4.8546 31.7509C4.92551 31.784 5.03676 31.811 5.10182 31.811C5.16694 31.811 5.23519 31.8319 5.25348 31.8575C5.27182 31.8831 5.39281 31.9195 5.5224 31.9383C5.652 31.9572 5.75806 31.9936 5.75806 32.0191C5.75806 32.0447 5.79947 32.0656 5.85002 32.0656C5.90057 32.0656 5.92576 32.0882 5.90594 32.1159C5.88529 32.1447 5.90895 32.1533 5.96145 32.1359C6.01182 32.1192 6.053 32.1309 6.053 32.1619C6.053 32.1929 6.09281 32.2183 6.14148 32.2183C6.19014 32.2183 6.22996 32.2405 6.22996 32.2676C6.22996 32.2947 6.27438 32.3022 6.3287 32.2842C6.40527 32.2588 6.41831 32.2719 6.38698 32.3424C6.35295 32.4189 6.36988 32.4282 6.49475 32.4011C6.6437 32.3689 6.67797 32.4186 6.64541 32.6197C6.63809 32.6652 6.66788 32.679 6.72917 32.6588C6.78456 32.6404 6.83771 32.6574 6.85647 32.6995C6.8741 32.7393 6.92495 32.7598 6.96943 32.7451C7.07507 32.7101 7.32329 32.8572 7.23664 32.9034C7.15252 32.9483 7.3063 33.0837 7.44133 33.0837C7.51323 33.0837 7.5281 33.108 7.49571 33.1728C7.47123 33.2217 7.44622 33.3396 7.44015 33.4346C7.43413 33.5296 7.38889 33.6327 7.33957 33.6638C7.29026 33.695 7.22986 33.7749 7.20538 33.8415C7.17099 33.9351 7.14916 33.9466 7.10923 33.8922C7.06829 33.8364 7.05738 33.8403 7.05667 33.9109C7.0562 33.9599 7.01314 34 6.96099 34C6.90094 34 6.87865 33.972 6.90018 33.9236C6.91882 33.8816 6.90554 33.8473 6.87056 33.8473C6.83228 33.8473 6.82172 33.7968 6.84408 33.72C6.86537 33.6466 6.85564 33.5927 6.82096 33.5927C6.78792 33.5927 6.76085 33.5194 6.76085 33.4298C6.76085 33.3112 6.74321 33.2822 6.69584 33.323C6.64853 33.3639 6.51628 33.343 6.20919 33.246C5.97731 33.1728 5.7787 33.0949 5.76791 33.0728C5.75706 33.0508 5.71063 33.0328 5.66468 33.0328C5.61867 33.0328 5.5811 33.0106 5.5811 32.9834C5.5811 32.9564 5.54128 32.9474 5.49261 32.9634C5.43581 32.9823 5.40413 32.9624 5.40413 32.908C5.40413 32.8528 5.37841 32.8371 5.3304 32.8631C5.21779 32.924 4.75963 32.8894 4.56391 32.8051C4.46794 32.7638 4.29894 32.7154 4.18828 32.6975C4.07768 32.6795 3.97256 32.6446 3.95481 32.6198C3.93705 32.5949 3.8327 32.5746 3.72299 32.5746C3.61327 32.5746 3.50656 32.551 3.48586 32.5221C3.46521 32.4932 3.32423 32.4228 3.17269 32.3657C2.67053 32.1765 2.50041 32.0948 2.47109 32.0289C2.45517 31.9931 2.3901 31.9637 2.32651 31.9637C2.24346 31.9637 2.21992 31.9386 2.24299 31.8747C2.27396 31.789 2.01075 31.5931 1.73215 31.4945C1.6163 31.4535 1.60598 31.4121 1.68479 31.3046C1.72325 31.2522 1.69735 31.1977 1.59542 31.1161C1.5165 31.053 1.45196 30.9452 1.45196 30.8764C1.45196 30.7782 1.42772 30.757 1.33847 30.7771C1.25483 30.796 1.19891 30.7592 1.126 30.6376C1.07155 30.5468 0.95806 30.4129 0.873768 30.3402C0.743817 30.228 0.735678 30.2054 0.820501 30.1913C0.906741 30.1769 0.898661 30.1498 0.761691 29.9949C0.653331 29.8723 0.606908 29.763 0.615638 29.6511C0.623897 29.5454 0.589801 29.4567 0.519959 29.4022C0.439442 29.3393 0.415493 29.2583 0.427114 29.0879C0.439443 28.9075 0.422984 28.8585 0.350135 28.8585C0.279468 28.8585 0.265546 28.8236 0.291501 28.7117C0.312913 28.6191 0.285956 28.498 0.218593 28.3839C0.143207 28.2563 0.130112 28.1869 0.174234 28.1489C0.218357 28.1108 0.216999 28.0949 0.169691 28.0949C0.132765 28.0949 0.103331 28.0548 0.104275 28.0058C0.105159 27.9568 0.100145 27.8004 0.0931263 27.6581C0.0860472 27.5159 0.110822 27.3504 0.148102 27.2902C0.198536 27.2089 0.198891 27.1574 0.1494 27.089C0.0983162 27.0184 0.104864 26.9519 0.177596 26.8016C0.229623 26.6941 0.272212 26.5066 0.272212 26.3849C0.272212 26.1954 0.287018 26.1684 0.375441 26.197C0.464747 26.2259 0.468051 26.2192 0.400039 26.1469C0.333088 26.0759 0.339694 26.0465 0.44428 25.9496C0.511879 25.887 0.56715 25.7956 0.56715 25.7465C0.56715 25.6975 0.596231 25.6418 0.6318 25.6229C0.66737 25.6039 0.684063 25.5166 0.668844 25.429C0.647727 25.307 0.681881 25.225 0.81419 25.0802C0.909278 24.9761 0.991212 24.8443 0.996166 24.7875C1.00112 24.7307 1.02389 24.6841 1.04678 24.6841C1.10252 24.6841 1.57041 24.2944 1.54357 24.2704C1.53201 24.2599 1.58628 24.2102 1.6642 24.1599C1.74212 24.1096 1.80589 24.0925 1.80589 24.1218C1.80589 24.1511 1.8342 24.1751 1.86883 24.1751C1.90345 24.1751 1.91679 24.1343 1.8985 24.0844C1.87768 24.0278 1.90947 23.9662 1.98297 23.9204C2.0478 23.8801 2.10083 23.8179 2.10083 23.782C2.10083 23.7462 2.12908 23.7169 2.16365 23.7169C2.19816 23.7169 2.29342 23.6482 2.3753 23.5642C2.45723 23.4802 2.56081 23.4115 2.60558 23.4115C2.6503 23.4115 2.72521 23.3484 2.77193 23.2715C2.81865 23.1945 2.87923 23.1372 2.90654 23.1442C2.93385 23.1512 2.95945 23.134 2.96352 23.106C2.96759 23.078 2.9742 23.0322 2.97827 23.0042C2.98234 22.9762 3.02546 22.9533 3.07412 22.9533C3.12279 22.9533 3.1626 22.9171 3.1626 22.8729C3.1626 22.8101 3.20124 22.7998 3.33957 22.826C3.51983 22.8602 3.56732 22.8139 3.45306 22.7153C3.40776 22.6762 3.47654 22.5854 3.69349 22.3982C4.02494 22.1121 4.08824 21.9554 4.05792 21.4957C4.05031 21.3798 4.01291 21.3284 3.92136 21.3078C3.81412 21.2835 3.80091 21.2543 3.83282 21.1109C3.85606 21.0064 3.85058 20.9689 3.81837 21.0121C3.77637 21.0684 3.74251 21.0612 3.64147 20.974C3.57274 20.9147 3.47996 20.8661 3.43524 20.8661C3.39059 20.8661 3.32122 20.832 3.28111 20.7903C3.241 20.7487 3.18649 20.7262 3.15989 20.7404C3.10208 20.7712 2.75034 20.4583 2.74999 20.3758C2.74981 20.344 2.68575 20.3075 2.60759 20.2946C2.50584 20.2778 2.47416 20.2906 2.49593 20.3396C2.51545 20.3835 2.48189 20.408 2.40208 20.408C2.33371 20.408 2.27779 20.3851 2.27779 20.3571C2.27779 20.3291 2.21733 20.3062 2.14348 20.3062C2.06956 20.3062 1.95672 20.2747 1.89278 20.2361C1.82878 20.1976 1.63707 20.1496 1.46677 20.1296C1.29647 20.1095 1.14228 20.0723 1.12411 20.0469C1.10594 20.0215 1.02849 20.0007 0.951985 20.0007C0.875537 20.0007 0.799562 19.9721 0.783163 19.9371C0.759391 19.8862 0.752489 19.8862 0.748773 19.9371C0.742932 20.0166 0.623955 20.0182 0.408769 19.9417C0.317455 19.9092 0.209508 19.8873 0.168983 19.893C0.1284 19.8987 0.0952492 19.868 0.0952492 19.8248C0.0952492 19.7816 0.125038 19.7462 0.161433 19.7462C0.208269 19.7462 0.206913 19.7246 0.156833 19.6725C0.117842 19.632 0.0781431 19.5232 0.0685282 19.4307C0.0589714 19.3382 0.0324869 19.1809 0.00971794 19.0812C-0.0309248 18.9034 0.0609188 18.7558 0.192285 18.7877C0.269027 18.8063 0.626138 18.6305 0.626138 18.574C0.626138 18.5467 0.665955 18.5245 0.714619 18.5245C0.763284 18.5245 0.803101 18.5015 0.803101 18.4735C0.803101 18.4455 0.909278 18.4226 1.03905 18.4226C1.16882 18.4226 1.275 18.3997 1.275 18.3717C1.275 18.3437 1.34832 18.3208 1.43798 18.3208C1.54292 18.3208 1.64031 18.2755 1.71169 18.1936C1.77256 18.1236 1.85668 18.0663 1.89862 18.0663C1.9405 18.0663 2.03057 17.9987 2.0987 17.9161C2.20252 17.7903 2.25443 17.7695 2.41842 17.7876C2.58582 17.8061 2.6247 17.7892 2.68734 17.6705C2.72763 17.5942 2.7629 17.5203 2.76568 17.5063C2.78644 17.4021 2.97266 17.3318 3.29533 17.3062C3.31963 17.3043 3.33957 17.2569 3.33957 17.2009C3.33957 17.1239 3.37915 17.0989 3.50178 17.0984C3.76404 17.0972 3.92319 17.0436 3.95976 16.9441C3.97864 16.8928 4.07243 16.821 4.16817 16.7844C4.26396 16.7478 4.34236 16.6913 4.34236 16.6587C4.34236 16.6246 4.39232 16.6108 4.46033 16.6262C4.54309 16.6448 4.57831 16.6277 4.57831 16.5688C4.57831 16.4526 4.92586 16.1697 5.02732 16.2034C5.07292 16.2184 5.14294 16.1857 5.18293 16.1304C5.22286 16.0752 5.28899 16.03 5.32987 16.03C5.37069 16.03 5.40413 16.004 5.40413 15.9723C5.40413 15.9404 5.47049 15.8614 5.5516 15.7965C5.63271 15.7316 5.69907 15.6546 5.69907 15.6252C5.69907 15.5959 5.73623 15.5719 5.78171 15.5719C5.86807 15.5719 5.88276 15.4862 5.8909 14.9355C5.89874 14.4067 5.76402 14.0879 5.50736 14.0276C5.45056 14.0142 5.40413 13.9557 5.40413 13.8974C5.40413 13.8289 5.31972 13.7455 5.16588 13.6616C5.03487 13.5902 4.90061 13.4705 4.86758 13.3955C4.81927 13.2858 4.79674 13.2737 4.75279 13.3337C4.71238 13.3889 4.69787 13.3666 4.69717 13.2486C4.69664 13.1538 4.66626 13.0897 4.62255 13.0912C4.42529 13.0975 4.34236 13.0708 4.34236 13.0011C4.34236 12.9591 4.31392 12.9247 4.27918 12.9247C4.18315 12.9247 4.04742 12.7899 4.04742 12.6946C4.04742 12.648 3.99917 12.557 3.94024 12.4923C3.84326 12.386 3.82675 12.3827 3.76676 12.4589C3.70865 12.5325 3.69998 12.5281 3.69697 12.4236C3.69473 12.3471 3.64949 12.2944 3.5705 12.2766C3.47459 12.2549 3.46486 12.2382 3.52626 12.2006C3.58295 12.1659 3.56885 12.1591 3.47612 12.1766C3.33862 12.2024 3.26129 12.111 3.31621 11.9876C3.33585 11.9433 3.29668 11.9017 3.21386 11.879C3.05354 11.8351 2.91798 11.7275 2.9683 11.6841C2.98806 11.667 3.03991 11.6785 3.08344 11.7097C3.13553 11.747 3.1626 11.7482 3.1626 11.7134C3.1626 11.6843 3.17888 11.6237 3.19882 11.5789C3.22967 11.5095 3.21156 11.5052 3.07701 11.5493C2.82042 11.6335 2.74963 11.6144 2.75058 11.4612C2.75122 11.3616 2.76638 11.3415 2.80302 11.3913C2.83133 11.4299 2.88401 11.4458 2.92005 11.4265C3.02676 11.3696 2.99526 11.304 2.85292 11.2866C2.75028 11.274 2.72079 11.2377 2.72285 11.1266C2.72533 10.9915 2.71394 10.9848 2.53203 11.0142C2.37376 11.0398 2.34486 11.0313 2.37329 10.9674C2.39364 10.9217 2.36881 10.8764 2.31342 10.858C2.26139 10.8408 2.2188 10.7719 2.2188 10.7049C2.2188 10.6379 2.19025 10.5831 2.15539 10.5831C2.12047 10.5831 2.09959 10.52 2.10897 10.443C2.11829 10.366 2.10549 10.2744 2.08042 10.2394C2.05535 10.2044 2.05128 10.1529 2.07133 10.1249C2.09139 10.0969 2.08207 10.074 2.05063 10.074C2.01736 10.074 1.9927 9.84012 1.99158 9.51402C1.98999 9.05932 2.00562 8.95405 2.0747 8.95405C2.12153 8.95405 2.15981 8.98154 2.15981 9.01513C2.15981 9.06263 2.17556 9.06263 2.2306 9.01513C2.38019 8.88604 2.44685 8.94789 2.42561 9.19585ZM5.24587 13.0361C5.26469 13.0767 5.27867 13.0646 5.2815 13.0053C5.28403 12.9517 5.27011 12.9216 5.25053 12.9385C5.23094 12.9554 5.22882 12.9994 5.24587 13.0361ZM4.78476 13.1793C4.76471 13.2073 4.77645 13.2302 4.81078 13.2302C4.84511 13.2302 4.87324 13.2073 4.87324 13.1793C4.87324 13.1513 4.86157 13.1284 4.84723 13.1284C4.8329 13.1284 4.80482 13.1513 4.78476 13.1793ZM5.65843 16.7271C5.71317 16.8036 5.56027 16.847 5.45775 16.7841C5.39104 16.7432 5.39422 16.7385 5.47403 16.7605C5.52871 16.7756 5.58357 16.7617 5.59596 16.7296C5.61206 16.688 5.62988 16.6873 5.65843 16.7271ZM3.01514 18.3208C2.99508 18.3488 3.02009 18.3717 3.07064 18.3717C3.12119 18.3717 3.1626 18.3488 3.1626 18.3208C3.1626 18.2928 3.13765 18.2699 3.1071 18.2699C3.07654 18.2699 3.03519 18.2928 3.01514 18.3208ZM3.07412 31.302C3.05407 31.33 3.0658 31.3529 3.10014 31.3529C3.13447 31.3529 3.1626 31.33 3.1626 31.302C3.1626 31.274 3.15092 31.2511 3.13659 31.2511C3.12226 31.2511 3.09418 31.274 3.07412 31.302ZM6.16484 32.4879C6.24058 32.5532 6.31732 32.5027 6.26128 32.4244C6.23957 32.3942 6.1948 32.3838 6.16177 32.4014C6.12148 32.4229 6.12248 32.4513 6.16484 32.4879Z" fill="#FFFEFE"/>
<defs>
<filter id="filter0_d" x="25" y="6" width="14" height="32" filterUnits="userSpaceOnUse" color-interpolation-filters="sRGB">
<feFlood flood-opacity="0" result="BackgroundImageFix"/>
<feColorMatrix in="SourceAlpha" type="matrix" values="0 0 0 0 0 0 0 0 0 0 0 0 0 0 0 0 0 0 127 0"/>
<feOffset dy="2"/>
<feGaussianBlur stdDeviation="1"/>
<feColorMatrix type="matrix" values="0 0 0 0 0 0 0 0 0 0 0 0 0 0 0 0 0 0 0.25 0"/>
<feBlend mode="normal" in2="BackgroundImageFix" result="effect1_dropShadow"/>
<feBlend mode="normal" in="SourceGraphic" in2="effect1_dropShadow" result="shape"/>
</filter>
<filter id="filter1_d" x="11.6875" y="13.5938" width="14.9062" height="16.7969" filterUnits="userSpaceOnUse" color-interpolation-filters="sRGB">
<feFlood flood-opacity="0" result="BackgroundImageFix"/>
<feColorMatrix in="SourceAlpha" type="matrix" values="0 0 0 0 0 0 0 0 0 0 0 0 0 0 0 0 0 0 127 0"/>
<feOffset dy="2"/>
<feGaussianBlur stdDeviation="1"/>
<feColorMatrix type="matrix" values="0 0 0 0 0 0 0 0 0 0 0 0 0 0 0 0 0 0 0.25 0"/>
<feBlend mode="normal" in2="BackgroundImageFix" result="effect1_dropShadow"/>
<feBlend mode="normal" in="SourceGraphic" in2="effect1_dropShadow" result="shape"/>
</filter>
<filter id="filter2_d" x="0" y="6" width="14" height="32" filterUnits="userSpaceOnUse" color-interpolation-filters="sRGB">
<feFlood flood-opacity="0" result="BackgroundImageFix"/>
<feColorMatrix in="SourceAlpha" type="matrix" values="0 0 0 0 0 0 0 0 0 0 0 0 0 0 0 0 0 0 127 0"/>
<feOffset dy="2"/>
<feGaussianBlur stdDeviation="1"/>
<feColorMatrix type="matrix" values="0 0 0 0 0 0 0 0 0 0 0 0 0 0 0 0 0 0 0.25 0"/>
<feBlend mode="normal" in2="BackgroundImageFix" result="effect1_dropShadow"/>
<feBlend mode="normal" in="SourceGraphic" in2="effect1_dropShadow" result="shape"/>
</filter>
</defs>
</svg>
