<svg width="27" height="28" viewBox="0 0 27 28" fill="none" xmlns="http://www.w3.org/2000/svg">
<path fill-rule="evenodd" clip-rule="evenodd" d="M13.5387 0C6.10119 0 0.0771484 6.28198 0.0771484 14.0379C0.0771484 20.2497 3.93051 25.4964 9.28148 27.3564C9.95455 27.4793 10.207 27.0581 10.207 26.6896C10.207 26.3562 10.1901 25.2507 10.1901 24.0751C6.80792 24.7243 5.93292 23.2152 5.66369 22.4256C5.51224 22.022 4.85599 20.7762 4.28388 20.4428C3.81273 20.1795 3.13965 19.5303 4.26705 19.5127C5.32715 19.4952 6.08436 20.5305 6.33676 20.9516C7.5483 23.0749 9.4834 22.4783 10.2574 22.1098C10.3752 21.1973 10.7286 20.5831 11.1156 20.2322C8.12042 19.8812 4.99061 18.6705 4.99061 13.301C4.99061 11.7743 5.51224 10.5109 6.37042 9.52825C6.2358 9.17731 5.76465 7.73842 6.50503 5.8082C6.50503 5.8082 7.63244 5.4397 10.207 7.24709C11.2839 6.93123 12.4281 6.77331 13.5723 6.77331C14.7166 6.77331 15.8608 6.93123 16.9377 7.24709C19.5122 5.42216 20.6396 5.8082 20.6396 5.8082C21.38 7.73842 20.9089 9.17731 20.7743 9.52825C21.6324 10.5109 22.1541 11.7568 22.1541 13.301C22.1541 18.688 19.0074 19.8812 16.0122 20.2322C16.5002 20.6709 16.9209 21.5131 16.9209 22.8292C16.9209 24.7068 16.9041 26.2159 16.9041 26.6896C16.9041 27.0581 17.1565 27.4968 17.8296 27.3564C20.5019 26.4156 22.824 24.6245 24.4691 22.2354C26.1142 19.8462 26.9994 16.9792 27.0002 14.0379C27.0002 6.28198 20.9762 0 13.5387 0Z" fill="#FFFEFE"/>
</svg>
