<svg width="90" height="51" viewBox="0 0 90 51" fill="none" xmlns="http://www.w3.org/2000/svg">
<path fill-rule="evenodd" clip-rule="evenodd" d="M1.748 40.3424C1.80214 40.3075 1.97206 40.4106 2.12566 40.5713C2.36904 40.8262 2.39328 40.9306 2.31493 41.3854C2.26549 41.6723 2.25663 41.9124 2.29531 41.919C2.33402 41.9255 2.35403 41.998 2.33992 42.0799C2.32578 42.162 2.36685 42.3462 2.43127 42.4895C2.54074 42.7334 2.53739 42.7512 2.37917 42.7683C2.15884 42.7922 2.17013 43.2819 2.40203 43.7562C2.49468 43.9456 2.55501 44.1898 2.53622 44.2988C2.51744 44.4079 2.55188 44.5858 2.61273 44.6944C2.75496 44.948 2.6983 45.2819 2.51829 45.2509C2.43896 45.2372 2.5191 45.5277 2.70501 45.9275C3.03904 46.6457 3.19889 46.8218 3.16716 46.4367C3.15464 46.2855 3.20957 46.2292 3.3465 46.2528C3.45505 46.2715 3.55677 46.2117 3.57259 46.1199C3.59494 45.9902 3.61995 45.9945 3.68498 46.1393C3.73098 46.2417 3.83183 46.3364 3.9091 46.3497C4.0184 46.3686 4.03098 46.3325 3.96595 46.1877C3.84824 45.9255 3.94105 45.496 4.10907 45.525C4.18634 45.5383 4.26 45.4886 4.27278 45.4144C4.28552 45.3405 4.22788 45.3045 4.14457 45.3346C4.06128 45.3647 3.88197 45.2854 3.74609 45.1583C3.43208 44.8645 3.41413 44.2847 3.71103 44.0274C3.9133 43.852 3.91617 43.8359 3.79402 43.5682C3.72429 43.4154 3.62025 43.3207 3.56285 43.3578C3.38 43.4753 3.50428 43.1167 3.76172 42.7834C3.89827 42.6066 4.01929 42.408 4.0307 42.3418C4.0421 42.2756 3.96713 42.2069 3.86411 42.1892C3.70452 42.1617 3.69278 42.0641 3.78462 41.5311C3.84393 41.1869 3.92449 40.9108 3.96354 40.9175C4.00269 40.9243 4.11277 40.8076 4.20823 40.6582C4.33483 40.4602 4.3458 40.41 4.24884 40.4723C4.14679 40.538 4.15779 40.4181 4.29573 39.9585C4.39469 39.6287 4.52388 39.0289 4.58276 38.6256C4.64698 38.1857 4.72945 37.8991 4.78892 37.9093C4.84334 37.9187 4.90884 37.805 4.93443 37.6564C4.96002 37.5079 5.03052 37.3545 5.09115 37.3156C5.15179 37.2765 5.18723 37.1822 5.16981 37.1059C5.15248 37.0296 5.18537 36.9752 5.24297 36.9852C5.30469 36.9958 5.32888 36.9265 5.30186 36.8163C5.22463 36.5011 5.36427 35.9498 5.57863 35.7238C5.69929 35.5967 5.77398 35.4089 5.76191 35.263C5.74697 35.0827 5.77596 35.0448 5.86971 35.122C5.96718 35.2022 6.00133 35.1478 6.01212 34.8949C6.02105 34.6853 6.11908 34.4588 6.27737 34.2823C6.4154 34.1283 6.54903 33.8828 6.57416 33.7369C6.5993 33.591 6.74435 33.1449 6.89649 32.7455C7.08862 32.241 7.22128 32.0269 7.33073 32.0443C7.44856 32.0629 7.46286 32.0353 7.38722 31.9348C7.26735 31.7752 7.47809 31.235 7.75436 30.9934C7.85086 30.909 7.92239 30.7502 7.91335 30.6404C7.90428 30.5307 8.0824 30.247 8.30918 30.0099C8.57133 29.7361 8.72116 29.4849 8.72053 29.3207C8.72004 29.1786 8.8299 28.9395 8.96459 28.7891C9.09938 28.6388 9.22416 28.4317 9.24184 28.3291C9.28234 28.0941 10.2696 26.5811 10.6385 26.1887C10.7906 26.0269 10.9243 25.8406 10.9357 25.7746C10.9471 25.7085 11.0509 25.5557 11.1665 25.4348C11.282 25.3141 11.5359 25.0034 11.7308 24.7445C11.9256 24.4856 12.1631 24.2871 12.2584 24.3035C12.3688 24.3226 12.4255 24.2593 12.4148 24.129C12.3928 23.862 13.7826 22.3795 14.2288 22.194C14.4208 22.1143 14.584 21.9518 14.6071 21.8174C14.6585 21.5194 15.0718 21.2083 15.3521 21.2566C15.4694 21.2768 15.5763 21.2299 15.5897 21.1523C15.6346 20.8918 16.3614 20.2941 16.6774 20.2579C16.8495 20.2381 17.0302 20.1333 17.0791 20.0251C17.1434 19.8822 17.2405 19.8666 17.4329 19.9683C17.6515 20.0837 17.6948 20.068 17.6792 19.8789C17.667 19.7304 17.7117 19.6584 17.8061 19.6746C17.8864 19.6884 18.0008 19.6177 18.0606 19.5173C18.1203 19.417 18.2572 19.3277 18.3647 19.3191C18.4723 19.3104 18.6295 19.2347 18.714 19.1508C18.7986 19.0669 18.928 19.0087 19.0015 19.0214C19.0751 19.0341 19.1468 18.9781 19.1607 18.8972C19.1751 18.8139 19.2288 18.8061 19.2844 18.8791C19.4667 19.1187 19.935 18.9843 20.7301 18.4642C20.9298 18.3335 21.239 18.2782 21.5277 18.3215C21.8077 18.3636 22.1604 18.3038 22.3965 18.1743C22.8358 17.9334 23.3131 17.9656 23.6742 18.2602C23.8396 18.3952 23.928 18.4107 23.9687 18.3121C24.0094 18.2135 24.075 18.2251 24.1872 18.3507C24.3014 18.4786 24.391 18.4924 24.4985 18.3983C24.6108 18.3001 24.6758 18.3248 24.752 18.4944C24.8285 18.6647 24.8884 18.6872 24.988 18.5831C25.0878 18.4788 25.1144 18.4853 25.0932 18.6086C25.0775 18.6996 25.2264 18.843 25.424 18.9274C25.6408 19.02 25.7703 19.1566 25.7504 19.2718C25.7275 19.4051 25.8443 19.4844 26.139 19.5352C26.4791 19.5938 26.5518 19.6547 26.5156 19.8507C26.4529 20.1897 26.131 20.6091 26.1189 20.3676C26.1132 20.2542 25.9758 20.1747 25.7593 20.1593C25.5666 20.1456 25.42 20.0699 25.4337 19.9909C25.467 19.7972 24.6888 19.6747 24.3619 19.8223C24.1531 19.9166 24.0447 19.885 23.8314 19.668C23.6493 19.4827 23.5354 19.4394 23.476 19.533C23.428 19.6088 23.3535 19.6252 23.3104 19.5693C23.2673 19.5137 23.0448 19.6013 22.8158 19.7642C22.4635 20.015 22.3685 20.0305 22.1968 19.8656C22.0277 19.7032 21.9969 19.7066 22.0117 19.886C22.0278 20.0815 21.7848 20.2479 21.4837 20.2473C21.4307 20.2472 21.2562 20.2989 21.096 20.3623C20.9358 20.4258 20.7477 20.4679 20.678 20.4558C20.6084 20.4439 20.5165 20.5086 20.4739 20.5997C20.4145 20.7269 20.3847 20.7236 20.3455 20.5857C20.3092 20.4577 20.1795 20.5288 19.8947 20.8327C19.6228 21.1229 19.4448 21.2243 19.3382 21.1496C19.2453 21.0845 19.0825 21.1369 18.9378 21.2785C18.5553 21.6526 18.1881 21.6397 18.0586 21.2478C17.9645 20.9629 17.9429 20.9505 17.9051 21.1595C17.8809 21.2931 17.797 21.3915 17.7188 21.378C17.6138 21.3599 17.5762 21.4472 17.5754 21.7113C17.5747 21.9284 17.5323 22.0689 17.4674 22.0686C17.4087 22.0683 17.3158 22.0764 17.261 22.0867C17.2062 22.097 17.1179 22.1058 17.0647 22.1066C17.0115 22.1073 16.9519 22.2017 16.9321 22.3164C16.9123 22.4312 16.8515 22.5173 16.797 22.5079C16.7425 22.4985 16.7312 22.4382 16.772 22.3738C16.8129 22.3095 16.7593 22.2743 16.6532 22.2959C16.547 22.3174 16.4647 22.4099 16.4702 22.5016C16.483 22.7116 16.2039 23.0898 16.0165 23.1164C15.9385 23.1276 15.7975 23.2413 15.7031 23.3691C15.5795 23.5367 15.4689 23.5652 15.3072 23.4709C15.1231 23.3637 15.0959 23.3781 15.1567 23.5501C15.2153 23.7164 15.0883 23.9202 14.5466 24.5294C14.1704 24.9526 13.8101 25.2892 13.7458 25.2772C13.6816 25.2655 13.6202 25.3062 13.6096 25.3679C13.5788 25.5468 12.5576 26.6463 12.4409 26.6262C12.3827 26.6161 12.2201 26.7282 12.0794 26.8752C11.9102 27.0521 11.8791 27.1224 11.9875 27.0832C12.2798 26.9773 12.1903 27.3842 11.8341 27.7803C11.6429 27.9929 11.42 28.3033 11.3387 28.4701C11.1198 28.9197 10.8781 29.2778 10.7242 29.3806C10.6494 29.4307 10.5696 29.578 10.5472 29.708C10.5247 29.8381 10.3697 30.1081 10.2027 30.3083C10.0356 30.5083 9.8791 30.7874 9.85478 30.9285C9.83048 31.0695 9.74737 31.1741 9.6701 31.1608C9.58132 31.1455 9.50673 31.2694 9.46741 31.4976C9.43322 31.696 9.31366 32.0138 9.20168 32.2036C9.0898 32.3934 8.86397 32.8315 8.69983 33.1774C8.53569 33.5233 8.35777 33.7986 8.30448 33.7895C8.25109 33.7803 8.18703 33.8912 8.16209 34.036C8.13714 34.1808 8.04812 34.3241 7.9642 34.3545C7.88027 34.3848 7.81894 34.499 7.82801 34.6081C7.83699 34.7172 7.77091 34.9703 7.68113 35.1706C7.55186 35.4591 7.47695 35.5111 7.32064 35.4208C7.21212 35.3583 7.1699 35.352 7.22667 35.4071C7.35008 35.5264 7.28587 35.9948 7.1325 36.0935C7.07284 36.1319 6.99703 36.2999 6.96413 36.4668C6.93123 36.6337 6.89644 36.6884 6.88698 36.5882C6.86286 36.3348 6.70553 36.3327 6.66202 36.5853C6.64225 36.7 6.58524 36.7868 6.53532 36.7782C6.48549 36.7696 6.45274 36.8607 6.46257 36.9805C6.4837 37.2367 6.7288 37.3171 6.76947 37.0811C6.78483 36.9919 6.81811 36.965 6.8435 37.0214C6.8688 37.0777 6.79134 37.2362 6.67141 37.3736C6.54794 37.5149 6.50019 37.6314 6.56144 37.6419C6.69397 37.6648 6.61845 38.1736 6.46812 38.2703C6.40847 38.3087 6.33874 38.4615 6.31315 38.61C6.27883 38.8092 6.19851 38.8712 6.00718 38.8466L5.74773 38.8132L5.9688 38.9881C6.14685 39.1291 6.16911 39.2304 6.08314 39.5095C6.02456 39.7 5.91354 39.8786 5.8364 39.9066C5.75937 39.9344 5.70974 40.0159 5.72603 40.0876C5.74232 40.1593 5.68834 40.3366 5.60599 40.4815C5.50328 40.6623 5.48713 40.7504 5.55438 40.762C5.67557 40.7829 5.37312 41.9063 5.21768 42.0126C5.15897 42.0527 5.13029 42.1705 5.15386 42.2744C5.18154 42.3958 5.16508 42.4219 5.10768 42.3476C4.98871 42.1935 4.80993 43.6027 4.91796 43.8433C5.03017 44.0932 4.9306 44.5686 4.79023 44.4531C4.70939 44.3866 4.65848 44.4778 4.61586 44.7654C4.58277 44.9888 4.60495 45.1803 4.66503 45.1909C4.72523 45.2014 4.83003 45.2558 4.89795 45.3117C4.98105 45.3801 5.0782 45.2797 5.19481 45.0048C5.38141 44.565 5.48023 44.5181 5.61049 44.8082C5.67433 44.9504 5.724 44.8944 5.82834 44.5625C5.90265 44.326 6.02104 44.0828 6.09147 44.0221C6.31728 43.8271 7.31731 43.9762 7.2789 44.1991C7.23891 44.4312 6.66009 44.6461 6.51916 44.4812C6.34592 44.2782 6.32032 44.4654 6.48623 44.7221C6.60889 44.9119 6.60032 44.9533 6.34471 45.4036C6.1597 45.7295 5.98414 45.8938 5.79628 45.9167C5.62784 45.9372 5.52594 46.022 5.53519 46.134C5.55474 46.3709 5.20483 46.445 5.10601 46.2249C5.01512 46.0225 4.72704 46.3753 4.56138 46.8917C4.4278 47.3082 3.93344 47.5753 3.78532 47.311C3.71264 47.1815 3.67943 47.179 3.65839 47.3011C3.64121 47.4008 3.5644 47.4206 3.46499 47.3511C3.37431 47.2875 3.26183 47.296 3.21497 47.3699C3.08132 47.5808 2.87505 47.4856 2.93232 47.2394C2.99221 46.9819 2.76104 46.6109 2.62754 46.7504C2.57779 46.8024 2.58907 46.9138 2.65258 46.998C2.73563 47.1081 2.73404 47.1459 2.64686 47.1325C2.39087 47.093 2.0737 46.3949 2.06898 45.861C2.06627 45.5453 2.00665 45.3059 1.92732 45.2923C1.7754 45.2661 1.78015 45.0427 1.93482 44.9431C1.98938 44.908 2.04177 44.9616 2.05135 45.0622C2.06312 45.1864 2.08272 45.1773 2.11263 45.0339C2.13681 44.9177 2.11495 44.6723 2.06406 44.4886C2.00502 44.2749 2.01009 44.1609 2.07837 44.1727C2.13709 44.1828 2.18016 44.1098 2.17416 44.0102C2.16805 43.9108 2.09658 43.8347 2.01518 43.8415C1.83635 43.8562 1.75027 43.6187 1.71959 43.026C1.70083 42.663 1.72956 42.5579 1.87668 42.4529C2.03682 42.3384 2.03563 42.3196 1.86613 42.283C1.48468 42.2004 1.41962 41.5503 1.76276 41.2503C1.9174 41.1151 1.92075 41.0593 1.79318 40.7519C1.7141 40.5616 1.69379 40.3772 1.748 40.3424ZM2.14934 39.7662C2.21887 39.6588 2.27544 39.6489 2.29637 39.7407C2.31508 39.823 2.26121 39.9151 2.17665 39.9458C1.99904 40.0099 1.99771 40.0008 2.14934 39.7662ZM4.52946 41.8258C4.60053 41.7984 4.55324 41.7577 4.42446 41.7356C4.29568 41.7134 4.23761 41.7359 4.29531 41.7855C4.35309 41.8352 4.45845 41.8534 4.52946 41.8258ZM5.40352 39.706C5.43975 39.6681 5.40117 39.5814 5.31783 39.5132C5.19735 39.4149 5.18385 39.4288 5.25196 39.5821C5.29916 39.6881 5.36739 39.7439 5.40352 39.706ZM6.92781 35.3225C7.01268 35.2917 7.08634 35.242 7.09152 35.2119C7.0967 35.1819 7.03772 35.1464 6.96045 35.1331C6.88318 35.1198 6.80952 35.1695 6.79674 35.2436C6.784 35.3176 6.84297 35.3531 6.92781 35.3225ZM6.86475 36.0736C6.94704 36.0421 6.93052 36.0053 6.82256 35.9798C6.72487 35.9569 6.66396 35.9802 6.6871 36.0317C6.71024 36.0832 6.7902 36.1021 6.86475 36.0736ZM22.0267 19.5098C22.1808 19.6223 22.195 19.3288 22.0414 19.2023C21.9592 19.1348 21.911 19.1584 21.9163 19.264C21.9211 19.3583 21.9707 19.469 22.0267 19.5098Z" fill="#FFFEFE"/>
<path d="M44.6836 16.3164C44.6836 16.4727 44.6562 16.6016 44.6016 16.7031C44.5547 16.7969 44.5 16.9062 44.4375 17.0312C44.4219 17.0234 44.4023 17.0195 44.3789 17.0195C44.332 17.0195 44.2891 17.0312 44.25 17.0547C44.2109 17.0781 44.1719 17.0977 44.1328 17.1133C43.9062 17.3633 43.6719 17.6055 43.4297 17.8398C43.1953 18.0742 42.9336 18.2812 42.6445 18.4609C42.5664 18.5078 42.4883 18.5547 42.4102 18.6016C42.332 18.6406 42.25 18.6797 42.1641 18.7188C42.1328 18.7344 42.1016 18.75 42.0703 18.7656C42.0469 18.7734 42.0234 18.7852 42 18.8008C41.9453 18.832 41.8867 18.8828 41.8242 18.9531C41.7695 19.0234 41.7031 19.0938 41.625 19.1641C41.5547 19.2422 41.4766 19.3047 41.3906 19.3516C41.3047 19.4062 41.2109 19.4297 41.1094 19.4219C41.0469 19.4609 40.9922 19.5117 40.9453 19.5742C40.8984 19.6367 40.8438 19.6992 40.7812 19.7617C40.4453 19.8789 40.1367 20.0312 39.8555 20.2188C39.582 20.4141 39.2969 20.6016 39 20.7812C38.8203 20.8984 38.6406 20.9922 38.4609 21.0625C38.4219 21.0781 38.375 21.0898 38.3203 21.0977C38.2734 21.1055 38.2227 21.1172 38.168 21.1328C37.9102 21.1953 37.6484 21.2461 37.3828 21.2852C37.125 21.3242 36.8633 21.3438 36.5977 21.3438C36.2695 21.3438 35.9531 21.3047 35.6484 21.2266C35.6484 21.2031 35.6406 21.1875 35.625 21.1797C35.6094 21.1719 35.5898 21.1641 35.5664 21.1562C35.5508 21.1484 35.5352 21.1367 35.5195 21.1211C35.5039 21.1133 35.5039 21.0938 35.5195 21.0625C35.3477 21.0469 35.1953 21.0039 35.0625 20.9336C34.9375 20.8633 34.8555 20.7383 34.8164 20.5586C34.793 20.5742 34.7734 20.5938 34.7578 20.6172C34.7422 20.6406 34.7148 20.6484 34.6758 20.6406C34.5664 20.4844 34.4453 20.3398 34.3125 20.207C34.1797 20.0742 34.082 19.9141 34.0195 19.7266C34.0039 19.6875 33.9922 19.6484 33.9844 19.6094C33.9844 19.5781 33.9805 19.543 33.9727 19.5039C33.9336 19.3945 33.8633 19.3398 33.7617 19.3398C33.7773 19.3086 33.7852 19.2695 33.7852 19.2227C33.7852 19.1992 33.7812 19.1758 33.7734 19.1523C33.7734 19.1289 33.7734 19.1055 33.7734 19.082C33.7734 19.043 33.7852 19.0039 33.8086 18.9648C33.7305 18.7852 33.6758 18.6094 33.6445 18.4375C33.6133 18.2578 33.5977 18.0742 33.5977 17.8867C33.5977 17.6445 33.6094 17.4062 33.6328 17.1719C33.6562 16.9297 33.668 16.6875 33.668 16.4453C33.7148 16.3516 33.75 16.2422 33.7734 16.1172C33.8047 15.9922 33.8555 15.8906 33.9258 15.8125C33.918 15.7656 33.9023 15.7422 33.8789 15.7422C33.8555 15.7344 33.8438 15.7109 33.8438 15.6719C33.8438 15.5312 33.8711 15.3789 33.9258 15.2148C33.9805 15.0508 34.0078 14.8828 34.0078 14.7109C34.0781 14.6719 34.1211 14.6133 34.1367 14.5352C34.1602 14.457 34.2031 14.3945 34.2656 14.3477V14.2891C34.2656 14.1719 34.2773 14.0547 34.3008 13.9375C34.332 13.8203 34.3594 13.707 34.3828 13.5977C34.4141 13.4805 34.4375 13.3672 34.4531 13.2578C34.4766 13.1406 34.4844 13.0273 34.4766 12.918C34.4922 12.8945 34.5117 12.8516 34.5352 12.7891C34.5664 12.7188 34.5938 12.6484 34.6172 12.5781C34.6484 12.5 34.6719 12.4258 34.6875 12.3555C34.7109 12.2852 34.7227 12.2344 34.7227 12.2031C34.7227 12.1562 34.7148 12.1133 34.6992 12.0742C34.6836 12.0352 34.6758 11.9922 34.6758 11.9453C34.6758 11.9062 34.6875 11.8516 34.7109 11.7812C34.7344 11.7031 34.7539 11.6406 34.7695 11.5938C34.8008 11.4609 34.8281 11.3242 34.8516 11.1836C34.8828 11.0352 34.9102 10.8945 34.9336 10.7617C35.0039 10.332 35.0547 9.90234 35.0859 9.47266C35.1172 9.03516 35.1367 8.59766 35.1445 8.16016C35.2539 8.09766 35.3672 8.03906 35.4844 7.98438C35.6094 7.92969 35.7383 7.90234 35.8711 7.90234C35.9102 7.90234 35.9492 7.90625 35.9883 7.91406C36.0273 7.92188 36.0664 7.93359 36.1055 7.94922C36.1445 8.10547 36.207 8.23047 36.293 8.32422C36.3789 8.41797 36.457 8.53125 36.5273 8.66406C36.4805 8.78906 36.4492 8.91797 36.4336 9.05078L36.3984 9.44922C36.3906 9.58203 36.375 9.71484 36.3516 9.84766C36.3281 9.97266 36.2891 10.0938 36.2344 10.2109C36.25 10.25 36.2578 10.2891 36.2578 10.3281V10.4453C36.2578 10.5547 36.2461 10.6602 36.2227 10.7617C36.207 10.8633 36.1875 10.9688 36.1641 11.0781C36.1406 11.1797 36.1211 11.2812 36.1055 11.3828C36.0898 11.4844 36.0898 11.5859 36.1055 11.6875C36.082 11.7266 36.0586 11.7578 36.0352 11.7812C36.0117 11.7969 35.9961 11.8242 35.9883 11.8633L35.9648 12.0859C35.9492 12.1719 35.9336 12.2578 35.918 12.3438C35.9102 12.4219 35.8984 12.5039 35.8828 12.5898C35.8281 12.8242 35.7656 13.0586 35.6953 13.293C35.6328 13.5273 35.6016 13.7695 35.6016 14.0195V14.0898C35.5312 14.1992 35.4766 14.3359 35.4375 14.5C35.3984 14.6562 35.3867 14.8008 35.4023 14.9336C35.3164 15.1602 35.2344 15.3828 35.1562 15.6016C35.0781 15.8203 35.0391 16.0469 35.0391 16.2812C35.0391 16.3203 35.0391 16.3633 35.0391 16.4102C35.0469 16.4492 35.0547 16.4883 35.0625 16.5273C35 16.6836 34.9609 16.8438 34.9453 17.0078C34.9297 17.1641 34.9219 17.3203 34.9219 17.4766C34.9219 17.5859 34.9258 17.7148 34.9336 17.8633C34.9492 18.0039 34.9688 18.1523 34.9922 18.3086C35.0234 18.457 35.0586 18.6016 35.0977 18.7422C35.1367 18.8828 35.1797 18.9961 35.2266 19.082C35.4062 19.3711 35.6406 19.5977 35.9297 19.7617C36.2266 19.9336 36.5391 20.043 36.8672 20.0898C37 20.043 37.1055 20.0156 37.1836 20.0078C37.2695 20 37.3867 20 37.5352 20.0078C37.6602 19.9453 37.7852 19.8984 37.9102 19.8672C38.043 19.8359 38.1758 19.8008 38.3086 19.7617C38.3477 19.7461 38.3867 19.7305 38.4258 19.7148C38.4727 19.6992 38.5117 19.6836 38.543 19.668C38.582 19.6523 38.625 19.6172 38.6719 19.5625C38.7188 19.5078 38.7617 19.4609 38.8008 19.4219C38.9648 19.375 39.1211 19.3086 39.2695 19.2227C39.418 19.1445 39.5625 19.0625 39.7031 18.9766L40.1367 18.7188C40.2852 18.6328 40.4414 18.5586 40.6055 18.4961C40.668 18.4727 40.7031 18.4414 40.7109 18.4023C40.7266 18.3555 40.75 18.3008 40.7812 18.2383C40.7969 18.2539 40.8203 18.2617 40.8516 18.2617C40.9453 18.2617 41.0117 18.2344 41.0508 18.1797C41.0898 18.1172 41.1367 18.0547 41.1914 17.9922C41.293 17.9766 41.3906 17.9492 41.4844 17.9102C41.5781 17.8633 41.6484 17.793 41.6953 17.6992C41.8906 17.6602 42.0625 17.5898 42.2109 17.4883C42.3594 17.3867 42.5039 17.2773 42.6445 17.1602C42.7852 17.0352 42.9258 16.918 43.0664 16.8086C43.207 16.6914 43.3672 16.5977 43.5469 16.5273C43.5703 16.4883 43.5859 16.4531 43.5938 16.4219C43.6016 16.3906 43.6133 16.3555 43.6289 16.3164C43.7617 16.3008 43.8672 16.2656 43.9453 16.2109C44.0234 16.1484 44.1133 16.0859 44.2148 16.0234C44.4336 16.0469 44.5898 16.1445 44.6836 16.3164ZM46.0547 17.3945C46.0156 17.457 45.9688 17.5156 45.9141 17.5703C45.8594 17.6172 45.8086 17.668 45.7617 17.7227C45.707 17.7461 45.6445 17.7578 45.5742 17.7578C45.5117 17.7578 45.4492 17.7578 45.3867 17.7578C45.332 17.75 45.2773 17.75 45.2227 17.7578C45.1758 17.7578 45.1367 17.7734 45.1055 17.8047C45.043 17.7891 44.9961 17.7617 44.9648 17.7227C44.9336 17.6758 44.8789 17.6484 44.8008 17.6406C44.7695 17.6328 44.7383 17.6328 44.707 17.6406C44.5898 17.5078 44.4805 17.3672 44.3789 17.2188C44.2852 17.0703 44.1953 16.9297 44.1094 16.7969C44.1016 16.5078 44.0781 16.2148 44.0391 15.918C44.0312 15.8477 44.0195 15.7773 44.0039 15.707C43.9883 15.6367 43.9766 15.5703 43.9688 15.5078C43.9688 15.4297 43.9727 15.3555 43.9805 15.2852C43.9961 15.207 44.0078 15.1367 44.0156 15.0742C44.0469 14.8477 44.082 14.625 44.1211 14.4062C44.1602 14.1875 44.1953 13.9648 44.2266 13.7383C44.2578 13.5352 44.2734 13.3242 44.2734 13.1055C44.2734 12.8789 44.2383 12.668 44.168 12.4727L44.1562 12.4141C44.1719 12.3516 44.1875 12.3008 44.2031 12.2617C44.2266 12.2148 44.2422 12.1641 44.25 12.1094C44.2656 12.0234 44.2461 11.9609 44.1914 11.9219C44.2148 11.8594 44.2539 11.8203 44.3086 11.8047C44.3633 11.7812 44.3945 11.7344 44.4023 11.6641C44.4102 11.6328 44.4102 11.6016 44.4023 11.5703C44.4648 11.5469 44.5273 11.5273 44.5898 11.5117C44.6602 11.4883 44.7266 11.4844 44.7891 11.5C44.8906 11.5156 44.9805 11.5508 45.0586 11.6055C45.1367 11.6523 45.2109 11.707 45.2812 11.7695C45.4062 12.1445 45.457 12.543 45.4336 12.9648C45.4102 13.3789 45.3711 13.7969 45.3164 14.2188C45.2617 14.6406 45.2266 15.0547 45.2109 15.4609C45.1953 15.8594 45.2578 16.2305 45.3984 16.5742L45.4219 16.5859C45.4609 16.5938 45.4922 16.582 45.5156 16.5508C45.5391 16.5117 45.5703 16.4961 45.6094 16.5039C45.6406 16.5195 45.6602 16.5273 45.668 16.5273C45.6992 16.6836 45.75 16.832 45.8203 16.9727C45.8906 17.1133 45.9688 17.2539 46.0547 17.3945ZM56.4375 18.4023C56.4375 18.4648 56.4102 18.5156 56.3555 18.5547C56.3008 18.5938 56.2383 18.6328 56.168 18.6719L55.957 18.7773C55.8867 18.8086 55.8398 18.8516 55.8164 18.9062C55.7305 18.8828 55.6445 18.8672 55.5586 18.8594C55.4805 18.8516 55.4023 18.8477 55.3242 18.8477C55.2227 18.8477 55.1172 18.8594 55.0078 18.8828C54.8984 18.8984 54.8125 18.9492 54.75 19.0352C54.7109 19.0195 54.6758 19.0117 54.6445 19.0117H54.5508C54.4336 19.0117 54.3125 19.0195 54.1875 19.0352C54.0703 19.0586 53.9531 19.0703 53.8359 19.0703C53.7734 19.0703 53.7109 19.0664 53.6484 19.0586C53.5938 19.0508 53.543 19.0273 53.4961 18.9883C53.4258 19.0117 53.3516 19.0234 53.2734 19.0234C53.1719 19.0234 53.0742 19.0078 52.9805 18.9766C52.8867 18.9453 52.793 18.9102 52.6992 18.8711C52.6133 18.8242 52.5234 18.7812 52.4297 18.7422C52.3359 18.7031 52.2422 18.6719 52.1484 18.6484L52.0664 18.4844C51.9414 18.4609 51.8242 18.4258 51.7148 18.3789C51.6133 18.3242 51.5117 18.2656 51.4102 18.2031C51.3086 18.1406 51.207 18.082 51.1055 18.0273C51.0117 17.9648 50.9141 17.9219 50.8125 17.8984C50.7734 17.8672 50.7383 17.8398 50.707 17.8164C50.6758 17.7852 50.6523 17.7422 50.6367 17.6875C50.5352 17.6641 50.4414 17.6328 50.3555 17.5938L50.1094 17.4648C50.0312 17.418 49.9414 17.3789 49.8398 17.3477C49.7461 17.3086 49.6328 17.2852 49.5 17.2773C49.4531 17.207 49.3867 17.1406 49.3008 17.0781C49.2148 17.0156 49.1289 16.9844 49.043 16.9844C48.9883 16.9844 48.9453 16.9961 48.9141 17.0195V17.0781C48.9141 17.1719 48.9414 17.2656 48.9961 17.3594C49.0508 17.4531 49.1211 17.5195 49.207 17.5586C49.1992 17.5742 49.1953 17.5977 49.1953 17.6289C49.1953 17.6758 49.2031 17.7227 49.2188 17.7695C49.2422 17.8164 49.2812 17.8477 49.3359 17.8633C49.3047 17.9492 49.2656 18.0391 49.2188 18.1328C49.1719 18.2188 49.1133 18.3008 49.043 18.3789C48.9727 18.457 48.8945 18.5234 48.8086 18.5781C48.7305 18.625 48.6406 18.6484 48.5391 18.6484C48.5078 18.6641 48.4844 18.6875 48.4688 18.7188C48.4609 18.75 48.4531 18.7852 48.4453 18.8242C48.4453 18.8555 48.4375 18.8867 48.4219 18.918C48.4141 18.9492 48.3984 18.9727 48.375 18.9883C48.3438 18.9961 48.3008 19 48.2461 19C48.168 19 48.1016 18.9883 48.0469 18.9648C47.9922 18.9414 47.9336 18.9102 47.8711 18.8711V18.8242C47.8711 18.7305 47.8516 18.6562 47.8125 18.6016C47.7812 18.5469 47.7422 18.4961 47.6953 18.4492C47.6562 18.3945 47.6172 18.3398 47.5781 18.2852C47.5469 18.2305 47.5312 18.1562 47.5312 18.0625C47.5078 18.0781 47.4805 18.0898 47.4492 18.0977C47.4258 18.1055 47.4102 18.1211 47.4023 18.1445C47.3867 18.0664 47.3789 18 47.3789 17.9453C47.3789 17.7891 47.4023 17.6406 47.4492 17.5C47.5039 17.3594 47.5312 17.2109 47.5312 17.0547V16.8789C47.5312 16.6992 47.5273 16.5234 47.5195 16.3516C47.5117 16.1797 47.5078 16.0078 47.5078 15.8359C47.5078 15.6875 47.5117 15.543 47.5195 15.4023C47.5273 15.2539 47.543 15.1055 47.5664 14.957C47.6523 14.4414 47.7227 13.9297 47.7773 13.4219C47.8398 12.9062 47.9375 12.3945 48.0703 11.8867C48.0625 11.8477 48.0508 11.8086 48.0352 11.7695C48.0273 11.7305 48.0234 11.6914 48.0234 11.6523C48.0234 11.6211 48.0273 11.6016 48.0352 11.5938C48.0664 11.4375 48.1367 11.3086 48.2461 11.207C48.3555 11.0977 48.4961 11.043 48.668 11.043H48.7031C48.7969 11.082 48.8672 11.1406 48.9141 11.2188C48.9688 11.2891 49.0508 11.3164 49.1602 11.3008C49.1602 11.3164 49.1562 11.332 49.1484 11.3477C49.1484 11.3633 49.1484 11.3789 49.1484 11.3945C49.1484 11.4805 49.1719 11.543 49.2188 11.582C49.2656 11.6211 49.3203 11.6641 49.3828 11.7109C49.3438 11.7891 49.3164 11.8789 49.3008 11.9805C49.293 12.082 49.2852 12.1836 49.2773 12.2852C49.2695 12.3867 49.2539 12.4844 49.2305 12.5781C49.2148 12.6719 49.1797 12.75 49.125 12.8125C49.1562 12.8906 49.1758 12.9688 49.1836 13.0469C49.1914 13.125 49.1953 13.207 49.1953 13.293C49.1953 13.3789 49.1914 13.4688 49.1836 13.5625C49.1758 13.6484 49.1719 13.7383 49.1719 13.832C49.1719 13.918 49.1836 13.9961 49.207 14.0664C49.3789 14.0664 49.4766 13.9844 49.5 13.8203C49.7031 13.7656 49.8828 13.6914 50.0391 13.5977C50.2031 13.4961 50.3594 13.3906 50.5078 13.2812C50.6562 13.1719 50.8008 13.0586 50.9414 12.9414C51.0898 12.8242 51.2539 12.7227 51.4336 12.6367V12.6133C51.4336 12.5742 51.4453 12.5508 51.4688 12.543C51.4922 12.5273 51.4961 12.4922 51.4805 12.4375C51.5977 12.3984 51.6953 12.3477 51.7734 12.2852C51.8594 12.2148 51.9375 12.1406 52.0078 12.0625L52.2305 11.8164C52.3086 11.7305 52.3945 11.6562 52.4883 11.5938C52.5508 11.4609 52.6055 11.3203 52.6523 11.1719C52.707 11.0234 52.7773 10.8867 52.8633 10.7617C53.0117 10.7617 53.1719 10.7734 53.3438 10.7969C53.5234 10.8203 53.6758 10.875 53.8008 10.9609C53.7852 11.0234 53.8125 11.0664 53.8828 11.0898C53.7969 11.418 53.668 11.7148 53.4961 11.9805C53.3242 12.2383 53.1016 12.457 52.8281 12.6367C52.7891 12.7227 52.7383 12.7969 52.6758 12.8594C52.6133 12.9219 52.5508 12.9844 52.4883 13.0469C52.4258 13.1016 52.3633 13.1602 52.3008 13.2227C52.2383 13.2852 52.1875 13.3594 52.1484 13.4453C52.0547 13.4609 51.9727 13.4883 51.9023 13.5273C51.8398 13.5664 51.7773 13.6133 51.7148 13.668C51.6602 13.7148 51.5977 13.7617 51.5273 13.8086C51.4648 13.8477 51.3945 13.8789 51.3164 13.9023C51.2539 13.9805 51.1797 14.0469 51.0938 14.1016C51.0156 14.1562 50.9336 14.2109 50.8477 14.2656C50.7695 14.3125 50.6953 14.3672 50.625 14.4297C50.5547 14.4844 50.5039 14.5586 50.4727 14.6523H50.168C50.082 14.8008 49.9688 14.9258 49.8281 15.0273C49.6953 15.1211 49.5586 15.2109 49.418 15.2969C49.4414 15.3906 49.4844 15.4688 49.5469 15.5312C49.6094 15.5859 49.6758 15.6367 49.7461 15.6836C49.8242 15.7305 49.8984 15.7812 49.9688 15.8359C50.0469 15.8828 50.1133 15.9414 50.168 16.0117C50.4961 16.1367 50.8125 16.2812 51.1172 16.4453C51.4219 16.6016 51.7109 16.793 51.9844 17.0195C52 17.0117 52.0195 17.0078 52.043 17.0078C52.1055 17.0078 52.1562 17.0273 52.1953 17.0664C52.2344 17.0977 52.2891 17.1094 52.3594 17.1016C52.3906 17.1797 52.4336 17.2344 52.4883 17.2656C52.543 17.2891 52.5977 17.3086 52.6523 17.3242C52.7148 17.3398 52.7734 17.3633 52.8281 17.3945C52.8828 17.4258 52.9219 17.4805 52.9453 17.5586C53.0625 17.5664 53.168 17.5898 53.2617 17.6289C53.3633 17.668 53.4531 17.7305 53.5312 17.8164H53.6719C53.9219 17.8164 54.1641 17.8398 54.3984 17.8867C54.6328 17.9336 54.8711 17.957 55.1133 17.957C55.2383 17.957 55.3594 17.9492 55.4766 17.9336C55.5938 17.9102 55.707 17.8711 55.8164 17.8164C55.8555 17.8398 55.8984 17.8633 55.9453 17.8867C55.9922 17.9102 56.043 17.9219 56.0977 17.9219C56.1367 17.9219 56.1953 17.9141 56.2734 17.8984C56.2812 17.9844 56.3086 18.0664 56.3555 18.1445C56.4102 18.2227 56.4375 18.3086 56.4375 18.4023ZM62.0859 11.5469V11.5938C62.0312 11.6094 62.0039 11.6484 62.0039 11.7109C61.918 11.75 61.8281 11.7812 61.7344 11.8047C61.6406 11.8203 61.5508 11.8477 61.4648 11.8867C61.3789 11.8789 61.2891 11.875 61.1953 11.875C61.1094 11.8672 61.0234 11.8633 60.9375 11.8633C60.7031 11.8633 60.4688 11.8711 60.2344 11.8867C60 11.9023 59.7656 11.9023 59.5312 11.8867C59.4219 11.9492 59.3008 12 59.168 12.0391C59.043 12.0703 58.9219 12.0859 58.8047 12.0859C58.7109 12.0859 58.6289 12.0742 58.5586 12.0508C58.3711 12.1445 58.1641 12.2227 57.9375 12.2852C57.7188 12.3477 57.4961 12.4102 57.2695 12.4727C57.043 12.5273 56.8242 12.5938 56.6133 12.6719C56.4102 12.7422 56.2305 12.8438 56.0742 12.9766C56.0586 13.0859 56.0469 13.1953 56.0391 13.3047C56.0312 13.4062 56.0273 13.5078 56.0273 13.6094C56.0273 13.7188 56.0312 13.8203 56.0391 13.9141C56.0547 14.0078 56.082 14.1016 56.1211 14.1953C56.1602 14.2109 56.2031 14.2227 56.25 14.2305C56.3047 14.2383 56.3516 14.2422 56.3906 14.2422C56.4297 14.2422 56.4688 14.2383 56.5078 14.2305C56.5469 14.2148 56.5742 14.1875 56.5898 14.1484C56.707 14.1328 56.8242 14.1289 56.9414 14.1367C57.0586 14.1367 57.1758 14.1367 57.293 14.1367C57.4102 14.1367 57.5234 14.1328 57.6328 14.125C57.75 14.1172 57.8633 14.0977 57.9727 14.0664C58.0977 14.0352 58.2188 14.0156 58.3359 14.0078C58.4609 14 58.582 13.9922 58.6992 13.9844C58.8164 13.9766 58.9375 13.9648 59.0625 13.9492C59.1875 13.9258 59.3164 13.8828 59.4492 13.8203C59.5508 13.8594 59.6523 13.8789 59.7539 13.8789C59.8633 13.8789 59.9688 13.8867 60.0703 13.9023C60.125 13.9414 60.168 13.9844 60.1992 14.0312C60.2383 14.0781 60.2578 14.1328 60.2578 14.1953C60.2578 14.3047 60.2188 14.4141 60.1406 14.5234C60.0625 14.6328 60 14.7344 59.9531 14.8281H59.8242C59.6367 14.8281 59.4531 14.8555 59.2734 14.9102C59.1016 14.957 58.9258 15.0156 58.7461 15.0859C58.5742 15.1484 58.3984 15.207 58.2188 15.2617C58.0469 15.3086 57.8672 15.332 57.6797 15.332C57.6484 15.332 57.6289 15.3516 57.6211 15.3906C57.6211 15.4219 57.6133 15.4453 57.5977 15.4609C57.5586 15.4531 57.5 15.4492 57.4219 15.4492C57.2422 15.4492 57.0703 15.4688 56.9062 15.5078C56.7422 15.5469 56.5742 15.5664 56.4023 15.5664C56.3555 15.5664 56.3086 15.5664 56.2617 15.5664C56.2148 15.5586 56.168 15.5508 56.1211 15.543C56.082 15.6055 56.0312 15.6484 55.9688 15.6719C55.9062 15.6875 55.8477 15.7188 55.793 15.7656C55.7695 15.8359 55.7539 15.9219 55.7461 16.0234C55.7461 16.125 55.7422 16.2305 55.7344 16.3398C55.7344 16.4414 55.7266 16.5391 55.7109 16.6328C55.6953 16.7266 55.6641 16.8008 55.6172 16.8555C55.625 16.8945 55.6562 16.9102 55.7109 16.9023C55.7656 16.8867 55.793 16.9102 55.793 16.9727C55.793 17.043 55.7852 17.1172 55.7695 17.1953C55.7539 17.2734 55.7461 17.3516 55.7461 17.4297C55.7461 17.5781 55.7617 17.7422 55.793 17.9219C55.832 18.0938 55.8867 18.2539 55.957 18.4023C56.0352 18.5508 56.1367 18.6758 56.2617 18.7773C56.3867 18.8711 56.543 18.918 56.7305 18.918C56.8555 18.918 56.9727 18.8945 57.082 18.8477C57.1914 18.8008 57.2812 18.7227 57.3516 18.6133L57.4102 18.6016C57.4414 18.6016 57.4688 18.6055 57.4922 18.6133C57.5234 18.6211 57.5547 18.625 57.5859 18.625C57.6328 18.625 57.6914 18.5977 57.7617 18.543C57.8398 18.4805 57.9219 18.4102 58.0078 18.332C58.1016 18.2539 58.1953 18.1797 58.2891 18.1094C58.3828 18.0312 58.4727 17.9766 58.5586 17.9453C58.6133 17.8359 58.6641 17.7266 58.7109 17.6172C58.7656 17.5078 58.8438 17.4219 58.9453 17.3594V17.0195C59.0234 16.9336 59.1055 16.8555 59.1914 16.7852C59.2852 16.7148 59.3555 16.625 59.4023 16.5156C59.4414 16.5312 59.4766 16.543 59.5078 16.5508C59.5469 16.5586 59.5859 16.5625 59.625 16.5625C59.6641 16.5625 59.7031 16.5586 59.7422 16.5508C59.7891 16.543 59.832 16.5312 59.8711 16.5156C59.9336 16.6016 59.9805 16.6992 60.0117 16.8086C60.0508 16.9102 60.0977 17.0078 60.1523 17.1016C60.082 17.2422 60 17.4102 59.9062 17.6055C59.8125 17.8008 59.7109 17.9961 59.6016 18.1914C59.4922 18.3867 59.375 18.5742 59.25 18.7539C59.1328 18.9258 59.0156 19.0586 58.8984 19.1523C58.875 19.1758 58.8242 19.2031 58.7461 19.2344C58.6602 19.2969 58.582 19.3555 58.5117 19.4102C58.4414 19.4727 58.375 19.543 58.3125 19.6211C58.0859 19.6914 57.8672 19.7852 57.6562 19.9023C57.4531 20.0195 57.25 20.1328 57.0469 20.2422C56.9531 20.2188 56.8516 20.207 56.7422 20.207C56.6484 20.207 56.5547 20.2109 56.4609 20.2188C56.3672 20.2344 56.2656 20.2422 56.1562 20.2422C56.125 20.2031 56.0781 20.1758 56.0156 20.1602C55.9609 20.1523 55.9414 20.1133 55.957 20.043C55.6914 20.0273 55.4766 19.9531 55.3125 19.8203C55.1484 19.6953 55.0078 19.5391 54.8906 19.3516C54.7812 19.1641 54.6914 18.9609 54.6211 18.7422C54.5508 18.5234 54.4766 18.3125 54.3984 18.1094V18.0742C54.3984 18.0352 54.4141 18.0117 54.4453 18.0039C54.4766 17.9961 54.4922 17.9727 54.4922 17.9336C54.4922 17.918 54.4883 17.9062 54.4805 17.8984C54.457 17.8125 54.4375 17.7383 54.4219 17.6758C54.4062 17.6133 54.3984 17.5391 54.3984 17.4531C54.3984 17.3281 54.4062 17.207 54.4219 17.0898C54.4375 16.9648 54.4453 16.8398 54.4453 16.7148C54.4453 16.5898 54.4297 16.4805 54.3984 16.3867C54.4297 16.3477 54.457 16.2969 54.4805 16.2344C54.4961 16.1641 54.5078 16.0938 54.5156 16.0234C54.5234 15.9531 54.5273 15.8828 54.5273 15.8125C54.5352 15.7422 54.5469 15.6797 54.5625 15.625C54.5312 15.5391 54.5039 15.4648 54.4805 15.4023C54.457 15.332 54.4453 15.25 54.4453 15.1562V15.0742C54.5234 14.9414 54.5898 14.8047 54.6445 14.6641C54.6992 14.5234 54.7578 14.3789 54.8203 14.2305V14.1953C54.8203 13.9688 54.8125 13.7422 54.7969 13.5156C54.7812 13.2891 54.7734 13.0625 54.7734 12.8359V12.6133C54.7734 12.5352 54.7773 12.4609 54.7852 12.3906C54.8477 12.3594 54.8945 12.3164 54.9258 12.2617C54.957 12.207 55.0039 12.1641 55.0664 12.1328H55.4531L55.5234 12.0156C55.5469 11.9766 55.5625 11.9336 55.5703 11.8867C55.6562 11.8633 55.7383 11.832 55.8164 11.793C55.9023 11.7461 55.9805 11.6992 56.0508 11.6523C56.1602 11.5898 56.2578 11.5352 56.3438 11.4883C56.4375 11.4336 56.5273 11.3906 56.6133 11.3594C56.707 11.3203 56.8047 11.2891 56.9062 11.2656C57.0078 11.2422 57.125 11.2227 57.2578 11.207C57.3203 11.207 57.3594 11.1953 57.375 11.1719C57.3984 11.1484 57.4297 11.1211 57.4688 11.0898C57.5625 11.1055 57.6562 11.1211 57.75 11.1367C57.8438 11.1445 57.9375 11.1484 58.0312 11.1484C58.2188 11.1484 58.3945 11.1133 58.5586 11.043C58.793 11.043 59.0234 11.0391 59.25 11.0312C59.4844 11.0234 59.7188 11.0195 59.9531 11.0195C60.1562 11.0195 60.3594 11.0273 60.5625 11.043C60.7656 11.0586 60.9648 11.0859 61.1602 11.125C61.2305 11.1016 61.3086 11.0898 61.3945 11.0898C61.4883 11.0898 61.582 11.1016 61.6758 11.125C61.7773 11.1406 61.875 11.1406 61.9688 11.125C61.9766 11.2109 61.9961 11.2852 62.0273 11.3477C62.0664 11.4023 62.0859 11.4688 62.0859 11.5469ZM72.6445 10.9375C72.6445 11.0078 72.6133 11.0664 72.5508 11.1133C72.4961 11.1602 72.4688 11.1953 72.4688 11.2188C72.4688 11.2656 72.4766 11.3008 72.4922 11.3242C72.5078 11.3398 72.5156 11.3594 72.5156 11.3828V11.4414C72.4375 11.5195 72.3789 11.6055 72.3398 11.6992C72.3008 11.7852 72.2695 11.8789 72.2461 11.9805C72.2227 12.0742 72.1992 12.1719 72.1758 12.2734C72.1602 12.375 72.1367 12.4727 72.1055 12.5664C72.0664 12.6602 72.0156 12.7422 71.9531 12.8125C71.8906 12.875 71.8398 12.9492 71.8008 13.0352C71.7383 13.1758 71.6914 13.3203 71.6602 13.4688C71.6289 13.6172 71.5625 13.7539 71.4609 13.8789V13.9375C71.4531 13.9922 71.4688 14.0391 71.5078 14.0781C71.3594 14.2734 71.2422 14.5078 71.1562 14.7812C71.0703 15.0469 71 15.3281 70.9453 15.625C70.8906 15.9141 70.8438 16.207 70.8047 16.5039C70.7656 16.793 70.7188 17.0547 70.6641 17.2891C70.7031 17.4609 70.7617 17.625 70.8398 17.7812C70.9258 17.9297 71.0078 18.0859 71.0859 18.25C71.2422 18.2891 71.3906 18.3438 71.5312 18.4141C71.6797 18.4844 71.7852 18.5977 71.8477 18.7539C71.832 18.9102 71.7812 19.0312 71.6953 19.1172C71.6094 19.2031 71.5039 19.293 71.3789 19.3867C71.293 19.3555 71.2227 19.3281 71.168 19.3047C71.1133 19.2891 71.0312 19.2891 70.9219 19.3047C70.7734 19.1875 70.6328 19.0938 70.5 19.0234C70.375 18.9531 70.2617 18.832 70.1602 18.6602C70.1445 18.6367 70.1211 18.625 70.0898 18.625H69.9844C69.9453 18.5312 69.8984 18.4336 69.8438 18.332C69.7891 18.2227 69.7344 18.1133 69.6797 18.0039C69.625 17.8867 69.5781 17.7734 69.5391 17.6641C69.5 17.5469 69.4805 17.4414 69.4805 17.3477C69.4805 16.9492 69.5156 16.5547 69.5859 16.1641C69.6641 15.7656 69.7031 15.3633 69.7031 14.957V14.8398C69.5469 14.8789 69.3906 14.9336 69.2344 15.0039C69.0859 15.0742 68.9336 15.1289 68.7773 15.168C68.7227 15.1836 68.6914 15.2109 68.6836 15.25C68.6758 15.2891 68.6523 15.3203 68.6133 15.3438C68.5352 15.3516 68.4609 15.3594 68.3906 15.3672C68.3203 15.3672 68.2539 15.3672 68.1914 15.3672C68.0586 15.3672 67.918 15.3633 67.7695 15.3555C67.6289 15.3398 67.4883 15.3125 67.3477 15.2734C67.207 15.2344 67.0742 15.1797 66.9492 15.1094C66.832 15.0391 66.7266 14.9492 66.6328 14.8398C66.6172 14.8477 66.5977 14.8555 66.5742 14.8633C66.5508 14.8711 66.5273 14.875 66.5039 14.875C66.4805 14.875 66.457 14.8711 66.4336 14.8633C66.4102 14.8555 66.3906 14.8477 66.375 14.8398C66.3125 14.7539 66.2617 14.6602 66.2227 14.5586L66.1055 14.2539C66.0664 14.1523 66.0234 14.0547 65.9766 13.9609C65.9297 13.8672 65.8672 13.7812 65.7891 13.7031C65.7656 13.5625 65.7539 13.4258 65.7539 13.293C65.7539 13.1523 65.7656 13.0156 65.7891 12.8828C65.8047 12.75 65.832 12.6172 65.8711 12.4844C65.8398 12.3906 65.8203 12.293 65.8125 12.1914C65.7969 12.0898 65.7891 11.9883 65.7891 11.8867C65.7891 11.7695 65.8008 11.6484 65.8242 11.5234C65.8477 11.3984 65.8867 11.2852 65.9414 11.1836C65.9961 11.0742 66.0742 10.9844 66.1758 10.9141C66.2695 10.8438 66.3867 10.8086 66.5273 10.8086C66.6836 10.8086 66.8281 10.8516 66.9609 10.9375C67.0938 11.0156 67.2227 11.0977 67.3477 11.1836C67.3633 11.2773 67.375 11.3711 67.3828 11.4648C67.3906 11.5508 67.3945 11.6445 67.3945 11.7461C67.3945 11.9336 67.3828 12.125 67.3594 12.3203C67.3438 12.5078 67.3359 12.6992 67.3359 12.8945C67.3359 13.0977 67.3594 13.2891 67.4062 13.4688C67.4609 13.6406 67.5547 13.8047 67.6875 13.9609H67.7344C67.7969 13.9531 67.8516 13.9648 67.8984 13.9961C67.9453 14.0273 68 14.043 68.0625 14.043C68.1172 14.043 68.1602 14.0234 68.1914 13.9844C68.2227 13.9375 68.2617 13.9141 68.3086 13.9141C68.3555 13.9141 68.3906 13.9219 68.4141 13.9375C68.4375 13.9531 68.457 13.9609 68.4727 13.9609C68.5586 13.9609 68.6562 13.9297 68.7656 13.8672C68.875 13.8047 68.9453 13.7344 68.9766 13.6562C69.0078 13.6797 69.0469 13.6914 69.0938 13.6914C69.1562 13.6914 69.2148 13.6719 69.2695 13.6328C69.3242 13.5938 69.3945 13.5742 69.4805 13.5742C69.5273 13.5742 69.543 13.5469 69.5273 13.4922C69.5195 13.4297 69.5352 13.3906 69.5742 13.375C69.668 13.3359 69.7695 13.2812 69.8789 13.2109C69.9961 13.1328 70.0898 13.0859 70.1602 13.0703C70.1992 12.9688 70.2461 12.875 70.3008 12.7891C70.3633 12.6953 70.4258 12.6094 70.4883 12.5312C70.5117 12.3516 70.5586 12.1797 70.6289 12.0156C70.6992 11.8516 70.7734 11.6875 70.8516 11.5234C70.9297 11.3594 71.0039 11.1953 71.0742 11.0312C71.1445 10.8672 71.1914 10.6953 71.2148 10.5156C71.3008 10.4297 71.3672 10.3359 71.4141 10.2344C71.4688 10.1328 71.5156 10.0312 71.5547 9.92969C71.6328 9.90625 71.7305 9.89453 71.8477 9.89453C71.9648 9.88672 72.0664 9.88281 72.1523 9.88281H72.3516C72.375 9.92969 72.4062 9.97266 72.4453 10.0117L72.5625 10.1289C72.4922 10.2383 72.457 10.3477 72.457 10.457C72.457 10.543 72.4766 10.6289 72.5156 10.7148C72.5547 10.793 72.5977 10.8672 72.6445 10.9375ZM80.2734 12.2148C80.2266 12.2852 80.1992 12.3633 80.1914 12.4492C80.1836 12.5352 80.1797 12.6133 80.1797 12.6836C80.1797 12.7773 80.1797 12.8711 80.1797 12.9648C80.1875 13.0508 80.1914 13.1367 80.1914 13.2227V13.3984C80.1758 13.4531 80.1523 13.5078 80.1211 13.5625C80.0898 13.6172 80.0664 13.6719 80.0508 13.7266C79.9414 14.0156 79.8867 14.3047 79.8867 14.5938V14.6172C79.8477 14.7109 79.8086 14.7969 79.7695 14.875C79.7383 14.9531 79.707 15.0312 79.6758 15.1094C79.6445 15.1797 79.6211 15.2578 79.6055 15.3438C79.5898 15.4219 79.5859 15.5156 79.5938 15.625C79.4844 15.8984 79.3398 16.1484 79.1602 16.375C78.9805 16.5938 78.8047 16.8203 78.6328 17.0547C78.4688 17.1172 78.3164 17.1992 78.1758 17.3008C78.043 17.4023 77.9141 17.5156 77.7891 17.6406C77.5469 17.7188 77.3086 17.8086 77.0742 17.9102C76.8398 18.0117 76.6289 18.1484 76.4414 18.3203C76.293 18.3359 76.1445 18.3594 75.9961 18.3906C75.8477 18.4219 75.7031 18.4688 75.5625 18.5312H75.4219C75.3516 18.5312 75.3008 18.5156 75.2695 18.4844C75.168 18.5391 75.0625 18.5781 74.9531 18.6016C74.8438 18.6172 74.7344 18.625 74.625 18.625C74.4844 18.625 74.3438 18.6172 74.2031 18.6016C74.0703 18.5781 73.9336 18.5547 73.793 18.5312C73.7148 18.4219 73.6055 18.3398 73.4648 18.2852C73.3242 18.2227 73.1992 18.1641 73.0898 18.1094C72.8633 17.7969 72.6992 17.4961 72.5977 17.207C72.4961 16.9102 72.3906 16.5781 72.2812 16.2109C72.2969 16.1016 72.3242 15.9961 72.3633 15.8945C72.4023 15.7852 72.418 15.668 72.4102 15.543C72.5508 15.1367 72.7344 14.7695 72.9609 14.4414C73.1953 14.1055 73.4609 13.7852 73.7578 13.4805C73.7578 13.4336 73.7656 13.3945 73.7812 13.3633C73.8047 13.332 73.8086 13.2852 73.793 13.2227C73.8008 13.2305 73.8164 13.2344 73.8398 13.2344C73.9023 13.2344 73.9414 13.2188 73.957 13.1875C73.9727 13.1484 73.9766 13.1055 73.9688 13.0586C74.25 12.8789 74.5039 12.6719 74.7305 12.4375C74.9648 12.2031 75.2305 12.0078 75.5273 11.8516C75.5508 11.7812 75.5898 11.7227 75.6445 11.6758C75.6992 11.6289 75.7422 11.5742 75.7734 11.5117C76.0234 11.4414 76.25 11.3359 76.4531 11.1953C76.6562 11.0547 76.8711 10.9297 77.0977 10.8203C77.2227 10.75 77.3398 10.7031 77.4492 10.6797C77.5664 10.6484 77.6914 10.6172 77.8242 10.5859C77.8711 10.5703 77.9141 10.5586 77.9531 10.5508C77.9922 10.543 78.0352 10.5391 78.082 10.5391C78.2227 10.5391 78.3594 10.5664 78.4922 10.6211C78.625 10.668 78.7617 10.6914 78.9023 10.6914C78.9414 10.6914 78.9727 10.6914 78.9961 10.6914C79.0273 10.6836 79.0586 10.6758 79.0898 10.668C79.2227 10.832 79.3906 10.957 79.5938 11.043C79.6406 11.1602 79.6953 11.2617 79.7578 11.3477C79.8281 11.4336 79.8984 11.5195 79.9688 11.6055C80.0391 11.6836 80.1016 11.7734 80.1562 11.875C80.2188 11.9688 80.2578 12.082 80.2734 12.2148ZM79.1016 12.8242C79.1016 12.7852 79.0977 12.75 79.0898 12.7188C79.0117 12.6953 78.9375 12.6641 78.8672 12.625C78.7969 12.5859 78.7188 12.5664 78.6328 12.5664C78.5781 12.5664 78.5234 12.5781 78.4688 12.6016C78.4609 12.5469 78.4375 12.5078 78.3984 12.4844C78.3672 12.4609 78.3281 12.4414 78.2812 12.4258C78.2422 12.4023 78.1992 12.3867 78.1523 12.3789C78.1133 12.3633 78.0781 12.3398 78.0469 12.3086C78.0234 12.2461 77.9961 12.1836 77.9648 12.1211C77.9414 12.0508 77.8945 12 77.8242 11.9688C77.7539 12.0391 77.6719 12.0977 77.5781 12.1445C77.4844 12.1836 77.3867 12.2227 77.2852 12.2617C77.1914 12.3008 77.0977 12.3477 77.0039 12.4023C76.918 12.457 76.8438 12.5234 76.7812 12.6016H76.5703C76.5234 12.6875 76.457 12.7539 76.3711 12.8008C76.2852 12.8398 76.2109 12.8984 76.1484 12.9766C76.0234 13.0391 75.9062 13.1172 75.7969 13.2109C75.6953 13.2969 75.5938 13.3906 75.4922 13.4922C75.3906 13.5859 75.2891 13.6836 75.1875 13.7852C75.0938 13.8867 74.9922 13.9805 74.8828 14.0664C74.7812 14.2852 74.668 14.4766 74.543 14.6406C74.4258 14.7969 74.3125 14.957 74.2031 15.1211C74.1016 15.2852 74.0117 15.4648 73.9336 15.6602C73.8633 15.8477 73.8281 16.082 73.8281 16.3633V16.4805C73.8281 16.5195 73.832 16.5586 73.8398 16.5977C73.9414 16.707 74.0234 16.8242 74.0859 16.9492C74.1562 17.0742 74.2695 17.1641 74.4258 17.2188C74.582 17.2812 74.7461 17.3086 74.918 17.3008C75.0977 17.293 75.2695 17.3125 75.4336 17.3594C75.8086 17.2891 76.168 17.1758 76.5117 17.0195C76.8633 16.8555 77.1953 16.6602 77.5078 16.4336C77.5547 16.3945 77.6094 16.3555 77.6719 16.3164C77.7344 16.2695 77.7852 16.2227 77.8242 16.1758C77.8633 16.1367 77.8945 16.0938 77.918 16.0469C77.9492 16 77.9805 15.957 78.0117 15.918C78.0742 15.8164 78.1445 15.7148 78.2227 15.6133C78.3008 15.5117 78.3828 15.418 78.4688 15.332C78.5078 15.1602 78.5586 14.9961 78.6211 14.8398C78.6836 14.6758 78.7461 14.5156 78.8086 14.3594C78.8711 14.2031 78.9219 14.043 78.9609 13.8789C79.0078 13.7148 79.0312 13.543 79.0312 13.3633C79.0312 13.3242 79.0273 13.2812 79.0195 13.2344C79.0195 13.1875 79.0156 13.1445 79.0078 13.1055C79.0703 13.0195 79.1016 12.9258 79.1016 12.8242ZM88.3828 17.1016C88.3516 17.2188 88.3008 17.3164 88.2305 17.3945C88.1602 17.4727 88.0781 17.543 87.9844 17.6055C87.8984 17.668 87.8047 17.7266 87.7031 17.7812C87.6016 17.8281 87.5039 17.8828 87.4102 17.9453H87.2578C86.9297 17.9453 86.6758 17.8672 86.4961 17.7109C86.3242 17.5469 86.1914 17.3477 86.0977 17.1133C86.0039 16.8711 85.9336 16.6133 85.8867 16.3398C85.8477 16.0664 85.7969 15.8164 85.7344 15.5898C85.6406 15.668 85.5625 15.7617 85.5 15.8711C85.4375 15.9727 85.3711 16.0742 85.3008 16.1758C85.2383 16.2773 85.1641 16.3711 85.0781 16.457C85 16.543 84.8945 16.6016 84.7617 16.6328C84.7383 16.6875 84.7109 16.7422 84.6797 16.7969C84.6562 16.8516 84.6406 16.9102 84.6328 16.9727C84.4609 17.0664 84.3047 17.1758 84.1641 17.3008C84.0234 17.4258 83.8828 17.5547 83.7422 17.6875C83.6016 17.8203 83.457 17.9492 83.3086 18.0742C83.168 18.1914 83.0078 18.2891 82.8281 18.3672C82.8203 18.3594 82.8047 18.3555 82.7812 18.3555C82.6875 18.3555 82.6016 18.3789 82.5234 18.4258C82.4453 18.4648 82.3594 18.4844 82.2656 18.4844C82.2031 18.4844 82.1445 18.4727 82.0898 18.4492C82.043 18.4258 81.9922 18.3984 81.9375 18.3672C81.8906 18.3359 81.8398 18.3125 81.7852 18.2969C81.7305 18.2812 81.6719 18.2773 81.6094 18.2852C81.5312 18.1445 81.4258 18.0156 81.293 17.8984C81.168 17.7734 81.0898 17.6328 81.0586 17.4766C81.043 17.4062 81.0312 17.3359 81.0234 17.2656C81.0234 17.1875 81.0156 17.1094 81 17.0312C80.9766 16.9141 80.9453 16.7969 80.9062 16.6797C80.8672 16.5547 80.8359 16.4297 80.8125 16.3047C80.8516 16.0938 80.8906 15.8633 80.9297 15.6133C80.9609 15.3555 81 15.1016 81.0469 14.8516C81.1016 14.5938 81.1719 14.3516 81.2578 14.125C81.3516 13.8906 81.4688 13.6914 81.6094 13.5273L81.5977 13.4453C81.5977 13.3203 81.6211 13.2031 81.668 13.0938C81.7148 12.9844 81.7656 12.8789 81.8203 12.7773C81.875 12.6758 81.9219 12.5742 81.9609 12.4727C82 12.3711 82.0078 12.2578 81.9844 12.1328C82.0781 12.0859 82.1758 12.0469 82.2773 12.0156C82.3789 11.9844 82.4844 11.9688 82.5938 11.9688C82.6953 11.9688 82.7891 11.9844 82.875 12.0156C82.8594 12.0781 82.8867 12.1172 82.957 12.1328V12.168C82.957 12.332 82.9375 12.4922 82.8984 12.6484C82.8594 12.8047 82.8125 12.9609 82.7578 13.1172C82.7031 13.2656 82.6484 13.418 82.5938 13.5742C82.5469 13.7227 82.5117 13.875 82.4883 14.0312C82.457 14.0391 82.4336 14.0547 82.418 14.0781C82.4102 14.1016 82.4023 14.125 82.3945 14.1484C82.3867 14.1719 82.375 14.1914 82.3594 14.207C82.3438 14.2227 82.3203 14.2305 82.2891 14.2305C82.2422 14.5039 82.1914 14.7773 82.1367 15.0508C82.0898 15.3164 82.0664 15.5859 82.0664 15.8594C82.0664 16.0234 82.082 16.1914 82.1133 16.3633C82.1445 16.5352 82.2031 16.6992 82.2891 16.8555L82.3359 16.8438C82.4219 16.8438 82.4883 16.8633 82.5352 16.9023C82.5898 16.9414 82.6602 16.9805 82.7461 17.0195C82.8086 17.0039 82.8672 16.9844 82.9219 16.9609C82.9766 16.9297 83 16.8789 82.9922 16.8086C83.0938 16.8008 83.1797 16.7773 83.25 16.7383C83.3203 16.6914 83.3828 16.6406 83.4375 16.5859L83.6133 16.4219C83.6758 16.3672 83.75 16.3281 83.8359 16.3047C83.8359 16.2578 83.8477 16.2227 83.8711 16.1992L83.9414 16.1289C83.9648 16.1055 83.9805 16.082 83.9883 16.0586C84.0039 16.0273 84.0078 15.9844 84 15.9297C84.0938 15.9219 84.1641 15.8984 84.2109 15.8594C84.2656 15.8203 84.3125 15.7773 84.3516 15.7305C84.3984 15.6758 84.4414 15.6211 84.4805 15.5664C84.5195 15.5117 84.5703 15.4648 84.6328 15.4258C84.6875 15.3086 84.7617 15.1523 84.8555 14.957C84.957 14.7617 85.0547 14.5586 85.1484 14.3477C85.25 14.1367 85.3359 13.9375 85.4062 13.75C85.4844 13.5547 85.5234 13.4062 85.5234 13.3047C85.5234 13.2656 85.5117 13.2305 85.4883 13.1992C85.4727 13.168 85.4688 13.1328 85.4766 13.0938V13.0586C85.5391 12.9805 85.5938 12.8945 85.6406 12.8008C85.6953 12.707 85.75 12.6172 85.8047 12.5312C85.8672 12.4453 85.9336 12.3672 86.0039 12.2969C86.0742 12.2266 86.1641 12.1719 86.2734 12.1328C86.3984 12.1719 86.5234 12.1992 86.6484 12.2148C86.7812 12.2305 86.9062 12.2617 87.0234 12.3086C87.0312 12.5039 87.0508 12.7305 87.082 12.9883C87.1133 13.2461 87.168 13.4648 87.2461 13.6445C87.2461 13.7461 87.2422 13.8438 87.2344 13.9375C87.2344 14.0312 87.2344 14.125 87.2344 14.2188C87.2344 14.375 87.2383 14.5352 87.2461 14.6992C87.2617 14.8633 87.2891 15.0156 87.3281 15.1562C87.2734 15.2734 87.2461 15.3984 87.2461 15.5312C87.2461 15.7109 87.2734 15.8828 87.3281 16.0469C87.3828 16.2031 87.4219 16.3711 87.4453 16.5508C87.5469 16.6914 87.6797 16.7617 87.8438 16.7617C87.8828 16.7617 87.9141 16.7578 87.9375 16.75C87.9688 16.7422 88 16.7305 88.0312 16.7148C88.0938 16.7852 88.1484 16.8555 88.1953 16.9258C88.25 16.9883 88.3125 17.0469 88.3828 17.1016Z" fill="#FFFEFE"/>
</svg>
