<svg width="105" height="46" viewBox="0 0 105 46" fill="none" xmlns="http://www.w3.org/2000/svg">
<path fill-rule="evenodd" clip-rule="evenodd" d="M5.7886 13.6335C5.85074 13.6505 5.88746 13.8458 5.87027 14.0675C5.84296 14.4189 5.7814 14.5066 5.39048 14.7519C5.14386 14.9066 4.95921 15.0602 4.98007 15.0935C5.00105 15.1266 4.96045 15.1899 4.89003 15.2341C4.8195 15.2783 4.70975 15.4319 4.64608 15.5755C4.5375 15.8198 4.52204 15.8292 4.40367 15.7228C4.2388 15.5747 3.88173 15.91 3.68339 16.3993C3.60422 16.5947 3.46264 16.8027 3.36892 16.8614C3.27519 16.9202 3.16571 17.0646 3.12549 17.1824C3.03159 17.4576 2.74513 17.6384 2.64806 17.4836C2.60529 17.4154 2.44251 17.669 2.26895 18.0743C1.95711 18.8025 1.93273 19.039 2.19828 18.7583C2.30253 18.6481 2.38109 18.6514 2.45492 18.7691C2.51346 18.8624 2.62589 18.8982 2.70479 18.8487C2.81633 18.7788 2.82981 18.8003 2.7654 18.9453C2.71983 19.048 2.71664 19.1863 2.7583 19.2527C2.81724 19.3467 2.85249 19.3319 2.91691 19.1869C3.03352 18.9242 3.41527 18.7066 3.50588 18.8511C3.54754 18.9175 3.63376 18.9391 3.69747 18.8991C3.76107 18.8592 3.74939 18.7923 3.67131 18.7504C3.59334 18.7085 3.53269 18.522 3.53661 18.336C3.54578 17.9061 3.96547 17.5057 4.35524 17.555C4.62083 17.5885 4.63475 17.5799 4.7526 17.3102C4.81981 17.1563 4.82086 17.0156 4.75493 16.9977C4.54533 16.94 4.89533 16.7931 5.31532 16.7623C5.53812 16.746 5.76683 16.7035 5.82374 16.6678C5.88064 16.6321 5.88169 16.5305 5.82613 16.4419C5.74008 16.3047 5.80486 16.2309 6.26308 15.9434C6.55895 15.7578 6.81831 15.6335 6.83937 15.667C6.86048 15.7007 7.02081 15.7048 7.19576 15.6762C7.42769 15.6383 7.47242 15.6129 7.36128 15.5823C7.2443 15.5501 7.34086 15.4783 7.7752 15.2742C8.08681 15.1277 8.61965 14.8235 8.95922 14.5982C9.32961 14.3524 9.5981 14.2224 9.63017 14.2735C9.65951 14.3203 9.78792 14.2932 9.91559 14.2131C10.0433 14.133 10.2045 14.0831 10.274 14.1022C10.3436 14.1213 10.4375 14.0847 10.4827 14.0208C10.5279 13.957 10.5903 13.9452 10.6214 13.9947C10.6547 14.0478 10.7224 14.0195 10.7864 13.9258C10.9695 13.6579 11.4732 13.3939 11.7846 13.4027C11.9598 13.4076 12.1495 13.3379 12.2501 13.2315C12.3744 13.1 12.4219 13.0963 12.427 13.2176C12.4323 13.3438 12.4957 13.3329 12.6912 13.1721C12.8532 13.0388 13.0873 12.9606 13.3243 12.9607C13.5312 12.9606 13.8032 12.8962 13.9286 12.8176C14.054 12.7389 14.483 12.5491 14.8819 12.3958C15.3858 12.2021 15.6338 12.1579 15.6939 12.251C15.7587 12.3512 15.7888 12.3434 15.8131 12.22C15.8519 12.0242 16.3948 11.8205 16.7592 11.8649C16.8864 11.8805 17.0524 11.8277 17.1281 11.7477C17.2037 11.6677 17.5339 11.6109 17.8618 11.6215C18.2407 11.6339 18.5277 11.5778 18.6496 11.4677C18.7551 11.3725 19.0064 11.2947 19.2083 11.2946C19.4102 11.2946 19.6477 11.2493 19.7359 11.194C19.9379 11.0672 21.7234 10.7924 22.2619 10.8051C22.4839 10.8103 22.7119 10.7856 22.7687 10.7499C22.8254 10.7143 23.0085 10.6896 23.1757 10.695C23.3426 10.7004 23.7435 10.6821 24.0664 10.6543C24.3892 10.6266 24.6955 10.6709 24.7469 10.7528C24.8064 10.8477 24.8914 10.8477 24.9812 10.7528C25.1654 10.5582 27.1969 10.6033 27.6329 10.8118C27.8204 10.9015 28.0504 10.9145 28.1658 10.8421C28.422 10.6814 28.9296 10.7814 29.0807 11.0224C29.144 11.1232 29.2503 11.1715 29.317 11.1297C29.5409 10.9892 30.4712 11.1314 30.7091 11.3425C30.8386 11.4574 31.0373 11.5221 31.1505 11.4862C31.2998 11.4387 31.3763 11.5006 31.429 11.7118C31.4889 11.9515 31.5296 11.9733 31.66 11.8355C31.7624 11.7273 31.8459 11.7125 31.8968 11.7936C31.9401 11.8626 32.0692 11.9005 32.1838 11.878C32.2983 11.8555 32.4561 11.8979 32.5344 11.9722C32.6127 12.0465 32.774 12.113 32.8928 12.1199C33.0118 12.1269 33.1415 12.1844 33.1811 12.2476C33.2208 12.3109 33.3103 12.3269 33.3799 12.2832C33.4515 12.2383 33.4932 12.2731 33.4759 12.3632C33.4192 12.659 33.8319 12.918 34.7499 13.1627C34.9805 13.2242 35.2281 13.4175 35.3885 13.6613C35.5441 13.8979 35.8241 14.1206 36.0781 14.21C36.5507 14.3763 36.8454 14.7531 36.8671 15.2187C36.877 15.432 36.9244 15.5081 37.025 15.4726C37.1256 15.4371 37.1607 15.4937 37.1421 15.6611C37.1231 15.8315 37.1727 15.9074 37.3145 15.9247C37.4626 15.9427 37.4876 16.0076 37.4121 16.1775C37.3364 16.3482 37.3597 16.4078 37.5037 16.4125C37.6479 16.4171 37.6609 16.4413 37.5549 16.5078C37.4767 16.5569 37.4693 16.7634 37.5383 16.9669C37.6141 17.1902 37.5988 17.3778 37.4998 17.4399C37.3852 17.5118 37.4041 17.6517 37.5631 17.905C37.7465 18.1974 37.7496 18.2922 37.5795 18.396C37.2853 18.5756 36.7581 18.616 36.9299 18.4457C37.0105 18.3658 36.978 18.2104 36.845 18.0389C36.7265 17.8863 36.685 17.7266 36.7529 17.684C36.9194 17.5796 36.4911 16.9183 36.163 16.7734C35.9534 16.681 35.9045 16.5791 35.9238 16.2755C35.9402 16.0161 35.8964 15.9025 35.7871 15.9208C35.6986 15.9356 35.6367 15.8911 35.6494 15.8217C35.6622 15.7524 35.4483 15.6453 35.1742 15.5835C34.7523 15.4886 34.6773 15.4282 34.6855 15.1903C34.6936 14.956 34.6704 14.9353 34.5467 15.0661C34.4119 15.2086 34.1258 15.1387 33.9253 14.9141C33.89 14.8746 33.735 14.7792 33.5808 14.7022C33.4266 14.6253 33.2697 14.5133 33.2322 14.4534C33.1946 14.3936 33.0851 14.3685 32.9889 14.3975C32.8544 14.4382 32.837 14.4138 32.9135 14.2925C32.9846 14.1801 32.8451 14.1309 32.4287 14.1218C32.0311 14.113 31.8368 14.0481 31.8212 13.919C31.8077 13.8063 31.66 13.7201 31.4579 13.7069C30.9241 13.6717 30.6886 13.3898 30.894 13.0318C31.0433 12.7715 31.0381 12.7471 30.8573 12.8585C30.7416 12.9296 30.6124 12.9329 30.5702 12.8656C30.5136 12.7754 30.4235 12.8057 30.2263 12.9813C30.0642 13.1258 29.9313 13.1879 29.8882 13.1394C29.8492 13.0956 29.7812 13.0318 29.7369 12.9979C29.6926 12.9639 29.6271 12.9041 29.5911 12.865C29.5551 12.8259 29.4449 12.8444 29.3463 12.9063C29.2477 12.9682 29.1429 12.9804 29.1135 12.9335C29.0841 12.8867 29.1215 12.838 29.1967 12.8254C29.2719 12.8129 29.2623 12.7496 29.1754 12.6849C29.0885 12.6202 28.9647 12.6207 28.9001 12.686C28.7523 12.8357 28.2844 12.8804 28.1395 12.7586C28.0791 12.7079 27.9002 12.6789 27.7421 12.6939C27.5348 12.7138 27.4398 12.6505 27.402 12.467C27.359 12.2585 27.3301 12.2478 27.2426 12.4079C27.1579 12.5625 26.9214 12.604 26.1062 12.6074C25.5399 12.6097 25.0488 12.5661 25.0148 12.5103C24.9807 12.4546 24.9094 12.4361 24.8564 12.4694C24.7026 12.5659 23.2022 12.5394 23.1393 12.4391C23.1079 12.3891 22.916 12.3428 22.7126 12.3362C22.4679 12.3283 22.3948 12.352 22.4964 12.4066C22.7703 12.5536 22.4076 12.7586 21.8749 12.7578C21.5891 12.7573 21.2091 12.7986 21.0306 12.8494C20.5497 12.9865 20.1218 13.0456 19.9425 12.9996C19.8552 12.9773 19.6923 13.0163 19.5805 13.0864C19.4687 13.1564 19.1642 13.2212 18.9036 13.2305C18.6431 13.2397 18.3309 13.3094 18.2096 13.3856C18.0883 13.4616 17.955 13.4695 17.9134 13.4031C17.8655 13.3268 17.7234 13.3539 17.5273 13.477C17.3567 13.584 17.0403 13.7071 16.8242 13.7504C16.6082 13.7938 16.1313 13.9181 15.7641 14.0268C15.397 14.1355 15.0732 14.1868 15.0445 14.141C15.0157 14.0951 14.8903 14.1215 14.7659 14.1996C14.6414 14.2776 14.4753 14.307 14.3966 14.2648C14.318 14.2226 14.1921 14.2531 14.1169 14.3327C14.0417 14.4122 13.8091 14.532 13.6 14.5988C13.2989 14.6952 13.2102 14.6741 13.1731 14.4975C13.1472 14.3749 13.1237 14.3393 13.1206 14.4183C13.1141 14.5899 12.7225 14.8547 12.5466 14.8064C12.4782 14.7876 12.3025 14.8433 12.1563 14.9302C12.0101 15.0171 11.9461 15.0277 12.0144 14.9538C12.187 14.7667 12.0835 14.6482 11.8664 14.7844C11.7678 14.8462 11.6651 14.8617 11.6381 14.8188C11.6113 14.776 11.5216 14.8124 11.439 14.8997C11.2623 15.0865 11.3661 15.3226 11.569 15.1953C11.6456 15.1472 11.6878 15.1541 11.6628 15.2106C11.6378 15.267 11.4681 15.3152 11.2857 15.3176C11.0981 15.32 10.9794 15.3622 11.0125 15.4148C11.0839 15.5287 10.6547 15.8122 10.4824 15.7648C10.4139 15.746 10.2536 15.7961 10.1259 15.8762C9.95474 15.9836 9.85492 15.9652 9.74556 15.8063L9.59723 15.5908L9.61451 15.8722C9.62842 16.0989 9.56782 16.1831 9.30266 16.3053C9.12169 16.3889 8.91458 16.4255 8.84228 16.3867C8.77014 16.3479 8.67631 16.3654 8.63381 16.4254C8.5913 16.4854 8.42326 16.5635 8.2604 16.5989C8.05723 16.6431 7.98082 16.6899 8.01708 16.7478C8.08243 16.8519 7.04407 17.3767 6.86119 17.3318C6.79211 17.3149 6.68527 17.3722 6.62366 17.4591C6.55168 17.5608 6.52127 17.5659 6.5383 17.4736C6.57363 17.2821 5.40501 18.0897 5.298 18.3307C5.18684 18.5811 4.76637 18.8243 4.7587 18.6427C4.75424 18.5381 4.65236 18.5611 4.40974 18.7214C4.22129 18.8459 4.09357 18.9902 4.12576 19.042C4.15811 19.0938 4.18755 19.2082 4.19133 19.296C4.19584 19.4036 4.33545 19.4089 4.61797 19.3122C5.07002 19.1576 5.17086 19.1999 5.04183 19.4905C4.97858 19.6329 5.05346 19.6325 5.3702 19.4887C5.59591 19.3861 5.85604 19.3119 5.94818 19.3239C6.24418 19.3618 6.80071 20.206 6.60907 20.3262C6.40955 20.4513 5.86318 20.1638 5.89189 19.9488C5.92738 19.6843 5.77091 19.7902 5.69052 20.0851C5.63106 20.3031 5.59456 20.3243 5.08866 20.4346C4.72244 20.5144 4.48298 20.4934 4.34052 20.3688C4.2128 20.257 4.08162 20.2378 4.0044 20.3195C3.84103 20.4922 3.55234 20.2811 3.65024 20.0606C3.74027 19.8578 3.28531 19.8788 2.79017 20.1002C2.39091 20.2787 1.86203 20.0889 1.9599 19.8022C2.00782 19.6617 1.98757 19.6352 1.88261 19.7011C1.79689 19.7548 1.73085 19.7109 1.71627 19.5905C1.70308 19.4805 1.62164 19.4024 1.53538 19.4168C1.28909 19.4581 1.22232 19.241 1.44385 19.1193C1.67553 18.992 1.79749 18.5722 1.60449 18.5659C1.53256 18.5636 1.45718 18.6463 1.43683 18.7499C1.41029 18.8852 1.38107 18.9093 1.33288 18.8354C1.19143 18.6184 1.49947 17.9163 1.89388 17.5563C2.1271 17.3436 2.26554 17.1394 2.22276 17.0712C2.14085 16.9406 2.31038 16.795 2.48772 16.8437C2.5503 16.8609 2.54539 16.9357 2.47688 17.01C2.39228 17.1016 2.41212 17.1102 2.53882 17.0367C2.64153 16.9771 2.80962 16.7971 2.91247 16.6365C3.03214 16.4499 3.12039 16.3776 3.15721 16.4363C3.18888 16.4868 3.27202 16.4701 3.34215 16.3992C3.4121 16.3283 3.42101 16.2243 3.36165 16.1682C3.23132 16.0449 3.3507 15.8222 3.77153 15.4037C4.02925 15.1475 4.12673 15.0987 4.30309 15.1381C4.49522 15.181 4.50844 15.1675 4.42258 15.0169C4.22947 14.6777 4.67004 14.1953 5.12248 14.2505C5.32635 14.2754 5.37017 14.2407 5.51388 13.9405C5.60281 13.7546 5.72653 13.6164 5.7886 13.6335ZM6.48557 13.5477C6.61199 13.5277 6.6571 13.5633 6.60271 13.6401C6.55394 13.709 6.4494 13.7304 6.37011 13.6879C6.20375 13.5985 6.20965 13.5914 6.48557 13.5477ZM6.54083 16.6947C6.60869 16.7294 6.60739 16.667 6.53795 16.5563C6.46851 16.4456 6.41299 16.4174 6.41457 16.4935C6.41608 16.5697 6.4729 16.6603 6.54083 16.6947ZM8.70268 15.9305C8.75505 15.9322 8.79385 15.8456 8.789 15.738C8.78183 15.5826 8.76239 15.5819 8.69378 15.7349C8.6463 15.8409 8.65035 15.9289 8.70268 15.9305ZM12.984 14.1393C13.0636 14.182 13.1498 14.2036 13.1756 14.1874C13.2015 14.1712 13.1885 14.1036 13.1469 14.0372C13.1052 13.9708 13.019 13.9491 12.9553 13.9891C12.8917 14.029 12.9046 14.0966 12.984 14.1393ZM12.3827 14.5937C12.4611 14.634 12.4774 14.5971 12.4243 14.4997C12.3763 14.4117 12.3182 14.3819 12.2953 14.4335C12.2724 14.4851 12.3117 14.5573 12.3827 14.5937ZM34.8369 14.8262C34.856 15.016 35.084 14.8306 35.0756 14.6318C35.0711 14.5255 35.0213 14.5054 34.9462 14.5799C34.8792 14.6464 34.8299 14.7572 34.8369 14.8262Z" fill="#FFFEFE"/>
<path d="M11.8633 28.3008C11.8477 28.3945 11.8242 28.4766 11.793 28.5469C11.7695 28.6094 11.7656 28.6953 11.7812 28.8047C11.7031 28.8125 11.6406 28.8398 11.5938 28.8867C11.5547 28.9258 11.5195 28.9727 11.4883 29.0273C11.4648 29.082 11.4375 29.1406 11.4062 29.2031C11.3828 29.2578 11.3516 29.3086 11.3125 29.3555C11.375 29.6367 11.4102 29.9219 11.418 30.2109C11.4258 30.5 11.4453 30.7852 11.4766 31.0664C11.5156 31.4258 11.5742 31.7812 11.6523 32.1328C11.7383 32.4766 11.7812 32.8281 11.7812 33.1875C11.7812 33.2969 11.7773 33.3984 11.7695 33.4922C11.7695 33.5859 11.7695 33.6836 11.7695 33.7852C11.7695 33.8477 11.7695 33.9141 11.7695 33.9844C11.7773 34.0469 11.7812 34.1094 11.7812 34.1719C11.7812 34.3984 11.75 34.625 11.6875 34.8516C11.6328 35.0781 11.5898 35.3047 11.5586 35.5312C11.4648 35.6172 11.3828 35.7109 11.3125 35.8125C11.25 35.9141 11.1836 36.0078 11.1133 36.0938C11.043 36.1797 10.9609 36.2539 10.8672 36.3164C10.7734 36.3867 10.6562 36.4336 10.5156 36.457C10.4922 36.5352 10.4453 36.5938 10.375 36.6328C10.3125 36.6719 10.2578 36.7266 10.2109 36.7969H10.1875C9.99219 36.7969 9.82422 36.7695 9.68359 36.7148C9.54297 36.6602 9.41016 36.5977 9.28516 36.5273C9.16797 36.457 9.04688 36.3828 8.92188 36.3047C8.79688 36.2266 8.65234 36.1641 8.48828 36.1172C8.26953 35.9375 8.07031 35.7422 7.89062 35.5312C7.71094 35.3125 7.50781 35.1172 7.28125 34.9453C7.22656 34.7891 7.15234 34.6602 7.05859 34.5586C6.97266 34.457 6.88672 34.3398 6.80078 34.207C6.76172 34.1523 6.73047 34.1016 6.70703 34.0547C6.69141 34.0078 6.66797 33.9531 6.63672 33.8906C6.61328 33.8281 6.57422 33.7852 6.51953 33.7617C6.47266 33.7383 6.42969 33.7109 6.39062 33.6797C6.32812 33.4375 6.23828 33.2148 6.12109 33.0117C6.00391 32.8086 5.86719 32.6133 5.71094 32.4258C5.66406 32.5117 5.625 32.6055 5.59375 32.707C5.57031 32.8008 5.54688 32.8984 5.52344 33C5.5 33.0938 5.46875 33.1914 5.42969 33.293C5.39844 33.3867 5.35547 33.4727 5.30078 33.5508V33.5859C5.30078 33.625 5.31641 33.6484 5.34766 33.6562C5.37891 33.6641 5.39453 33.6875 5.39453 33.7266C5.39453 33.7344 5.39062 33.7422 5.38281 33.75C5.38281 33.7578 5.38281 33.7656 5.38281 33.7734C5.34375 33.8047 5.3125 33.8438 5.28906 33.8906C5.27344 33.9375 5.23438 33.9648 5.17188 33.9727C5.17969 34.0117 5.18359 34.0508 5.18359 34.0898V34.1953C5.18359 34.4219 5.15625 34.6484 5.10156 34.875C5.05469 35.1016 5.03125 35.332 5.03125 35.5664V35.7188C5.03125 35.7734 5.03516 35.8242 5.04297 35.8711C5.05859 35.918 5.08203 35.9648 5.11328 36.0117C5.14453 36.0586 5.16016 36.1016 5.16016 36.1406C5.16016 36.1953 5.13672 36.2461 5.08984 36.293C5.14453 36.332 5.20703 36.375 5.27734 36.4219C5.34766 36.4688 5.41016 36.5195 5.46484 36.5742C5.52734 36.6367 5.57812 36.6992 5.61719 36.7617C5.65625 36.832 5.67578 36.9062 5.67578 36.9844C5.67578 37.1172 5.63281 37.2109 5.54688 37.2656C5.46094 37.3203 5.35547 37.3633 5.23047 37.3945C5.11328 37.4258 4.98828 37.4531 4.85547 37.4766C4.73047 37.5078 4.625 37.5586 4.53906 37.6289H4.50391C4.41016 37.6289 4.33984 37.6016 4.29297 37.5469C4.24609 37.4922 4.17578 37.4648 4.08203 37.4648C3.93359 37.2227 3.83203 36.9492 3.77734 36.6445C3.72266 36.3477 3.69531 36.0625 3.69531 35.7891C3.69531 35.4531 3.72656 35.1172 3.78906 34.7812C3.84375 34.4453 3.91406 34.1133 4 33.7852C4.07812 33.457 4.16406 33.1328 4.25781 32.8125C4.35938 32.4844 4.45312 32.1562 4.53906 31.8281L4.55078 31.793C4.55078 31.7539 4.53906 31.7266 4.51562 31.7109C4.5 31.6953 4.49219 31.6719 4.49219 31.6406C4.49219 31.625 4.49609 31.6172 4.50391 31.6172C4.52734 31.5391 4.55078 31.4648 4.57422 31.3945C4.60547 31.3242 4.62891 31.2461 4.64453 31.1602C4.69141 30.9414 4.72266 30.7188 4.73828 30.4922C4.76172 30.2578 4.77344 30.0273 4.77344 29.8008C4.78125 29.5742 4.78906 29.3477 4.79688 29.1211C4.8125 28.8867 4.83984 28.6562 4.87891 28.4297C4.94141 28.3672 5 28.3008 5.05469 28.2305C5.10938 28.1602 5.17969 28.0977 5.26562 28.043C5.42188 28.0508 5.57812 28.0742 5.73438 28.1133C5.89062 28.1523 6.03906 28.2148 6.17969 28.3008C6.27344 28.6367 6.33594 28.9727 6.36719 29.3086C6.40625 29.6445 6.46875 29.9805 6.55469 30.3164V30.3516C6.55469 30.3906 6.57422 30.4102 6.61328 30.4102C6.66016 30.4023 6.69531 30.4141 6.71875 30.4453C6.70312 30.4688 6.69141 30.4961 6.68359 30.5273C6.68359 30.5586 6.68359 30.5898 6.68359 30.6211V30.8203C6.69922 30.8828 6.71875 30.9492 6.74219 31.0195C6.76562 31.0898 6.81641 31.1328 6.89453 31.1484C6.93359 31.3984 6.99219 31.6289 7.07031 31.8398C7.14844 32.0508 7.23828 32.2539 7.33984 32.4492C7.44141 32.6445 7.55078 32.8398 7.66797 33.0352C7.78516 33.2227 7.90625 33.4219 8.03125 33.6328C8.22656 33.7812 8.39453 33.9531 8.53516 34.1484C8.67578 34.3359 8.81641 34.5195 8.95703 34.6992C9.10547 34.8711 9.26953 35.0234 9.44922 35.1562C9.63672 35.2891 9.87891 35.3711 10.1758 35.4023C10.2148 35.3711 10.2422 35.3281 10.2578 35.2734L10.3164 35.1094C10.3398 35.0547 10.3633 35.0078 10.3867 34.9688C10.418 34.9219 10.4609 34.8867 10.5156 34.8633C10.5312 34.6445 10.5469 34.4219 10.5625 34.1953C10.5859 33.9688 10.6367 33.7539 10.7148 33.5508C10.6758 33.4805 10.6562 33.3945 10.6562 33.293C10.6562 33.2148 10.6602 33.1406 10.668 33.0703C10.6836 33 10.6914 32.9297 10.6914 32.8594C10.6914 32.7109 10.6602 32.5898 10.5977 32.4961C10.5977 32.4414 10.6016 32.3867 10.6094 32.332C10.6172 32.2695 10.6406 32.2109 10.6797 32.1562C10.6172 32 10.5664 31.8359 10.5273 31.6641C10.4961 31.4922 10.4805 31.3164 10.4805 31.1367C10.4805 31.0352 10.4922 30.9297 10.5156 30.8203C10.4688 30.7031 10.4375 30.5664 10.4219 30.4102L10.375 29.9297C10.3594 29.7656 10.3359 29.6133 10.3047 29.4727C10.2734 29.332 10.2148 29.2188 10.1289 29.1328C10.1758 29.0625 10.1992 28.9805 10.1992 28.8867C10.1992 28.7305 10.1758 28.582 10.1289 28.4414C10.082 28.3008 10.0586 28.1523 10.0586 27.9961C10.0586 27.8867 10.082 27.7773 10.1289 27.668C10.3008 27.6758 10.4688 27.6953 10.6328 27.7266C10.8047 27.75 10.9727 27.7617 11.1367 27.7617C11.1836 27.8242 11.2383 27.875 11.3008 27.9141C11.3633 27.9531 11.4297 27.9922 11.5 28.0312C11.5703 28.0625 11.6367 28.0977 11.6992 28.1367C11.7695 28.1758 11.8242 28.2305 11.8633 28.3008ZM15.5664 34.3945C15.5273 34.457 15.4805 34.5156 15.4258 34.5703C15.3711 34.6172 15.3203 34.668 15.2734 34.7227C15.2188 34.7461 15.1562 34.7578 15.0859 34.7578C15.0234 34.7578 14.9609 34.7578 14.8984 34.7578C14.8438 34.75 14.7891 34.75 14.7344 34.7578C14.6875 34.7578 14.6484 34.7734 14.6172 34.8047C14.5547 34.7891 14.5078 34.7617 14.4766 34.7227C14.4453 34.6758 14.3906 34.6484 14.3125 34.6406C14.2812 34.6328 14.25 34.6328 14.2188 34.6406C14.1016 34.5078 13.9922 34.3672 13.8906 34.2188C13.7969 34.0703 13.707 33.9297 13.6211 33.7969C13.6133 33.5078 13.5898 33.2148 13.5508 32.918C13.543 32.8477 13.5312 32.7773 13.5156 32.707C13.5 32.6367 13.4883 32.5703 13.4805 32.5078C13.4805 32.4297 13.4844 32.3555 13.4922 32.2852C13.5078 32.207 13.5195 32.1367 13.5273 32.0742C13.5586 31.8477 13.5938 31.625 13.6328 31.4062C13.6719 31.1875 13.707 30.9648 13.7383 30.7383C13.7695 30.5352 13.7852 30.3242 13.7852 30.1055C13.7852 29.8789 13.75 29.668 13.6797 29.4727L13.668 29.4141C13.6836 29.3516 13.6992 29.3008 13.7148 29.2617C13.7383 29.2148 13.7539 29.1641 13.7617 29.1094C13.7773 29.0234 13.7578 28.9609 13.7031 28.9219C13.7266 28.8594 13.7656 28.8203 13.8203 28.8047C13.875 28.7812 13.9062 28.7344 13.9141 28.6641C13.9219 28.6328 13.9219 28.6016 13.9141 28.5703C13.9766 28.5469 14.0391 28.5273 14.1016 28.5117C14.1719 28.4883 14.2383 28.4844 14.3008 28.5C14.4023 28.5156 14.4922 28.5508 14.5703 28.6055C14.6484 28.6523 14.7227 28.707 14.793 28.7695C14.918 29.1445 14.9688 29.543 14.9453 29.9648C14.9219 30.3789 14.8828 30.7969 14.8281 31.2188C14.7734 31.6406 14.7383 32.0547 14.7227 32.4609C14.707 32.8594 14.7695 33.2305 14.9102 33.5742L14.9336 33.5859C14.9727 33.5938 15.0039 33.582 15.0273 33.5508C15.0508 33.5117 15.082 33.4961 15.1211 33.5039C15.1523 33.5195 15.1719 33.5273 15.1797 33.5273C15.2109 33.6836 15.2617 33.832 15.332 33.9727C15.4023 34.1133 15.4805 34.2539 15.5664 34.3945ZM25.4688 33.8906C25.4688 33.9688 25.4453 34.0352 25.3984 34.0898C25.3594 34.1367 25.3086 34.1797 25.2461 34.2188C25.1914 34.2578 25.1328 34.293 25.0703 34.3242C25.0156 34.3555 24.9648 34.3945 24.918 34.4414C24.8867 34.4727 24.8633 34.5117 24.8477 34.5586C24.8398 34.5977 24.8203 34.625 24.7891 34.6406C24.7422 34.6797 24.6914 34.7031 24.6367 34.7109C24.582 34.7188 24.5234 34.7305 24.4609 34.7461C24.4062 34.7539 24.3516 34.7695 24.2969 34.793C24.2422 34.8086 24.1953 34.8438 24.1562 34.8984C23.7891 34.9375 23.4258 34.9883 23.0664 35.0508C22.7148 35.1133 22.3516 35.1445 21.9766 35.1445C21.9062 35.1445 21.8281 35.1523 21.7422 35.168C21.6641 35.1758 21.5898 35.1836 21.5195 35.1914C21.3555 35.207 21.1914 35.2188 21.0273 35.2266C20.8711 35.2344 20.7109 35.2383 20.5469 35.2383C20.3203 35.2383 20.0938 35.2305 19.8672 35.2148C19.6406 35.1914 19.418 35.1562 19.1992 35.1094C19.1445 35.0703 19.082 35.0391 19.0117 35.0156C18.9414 34.9922 18.8672 34.9688 18.7891 34.9453C18.7188 34.9219 18.6523 34.8945 18.5898 34.8633C18.5273 34.832 18.4805 34.7852 18.4492 34.7227C18.332 34.7148 18.2266 34.6914 18.1328 34.6523C18.0469 34.6133 17.9648 34.5703 17.8867 34.5234C17.8164 34.4688 17.7422 34.4141 17.6641 34.3594C17.5859 34.3047 17.4961 34.2578 17.3945 34.2188C17.3164 34.1094 17.2344 34.0039 17.1484 33.9023C17.0703 33.793 16.9727 33.7031 16.8555 33.6328C16.832 33.4844 16.793 33.3359 16.7383 33.1875C16.6914 33.0391 16.6406 32.8945 16.5859 32.7539C16.5391 32.6055 16.5 32.457 16.4688 32.3086C16.4297 32.1602 16.4102 32.0078 16.4102 31.8516C16.4102 31.7422 16.4258 31.6094 16.457 31.4531C16.4883 31.2969 16.5273 31.1406 16.5742 30.9844C16.6289 30.8203 16.6914 30.668 16.7617 30.5273C16.832 30.3867 16.9023 30.2734 16.9727 30.1875C16.9961 30.1641 17.0234 30.1445 17.0547 30.1289C17.0859 30.1133 17.1133 30.0898 17.1367 30.0586C17.207 29.9805 17.2812 29.918 17.3594 29.8711C17.4375 29.8164 17.5195 29.7539 17.6055 29.6836C17.6367 29.6523 17.6602 29.6172 17.6758 29.5781C17.6992 29.5391 17.7305 29.5039 17.7695 29.4727C17.793 29.457 17.8242 29.4531 17.8633 29.4609C17.9102 29.4688 17.9492 29.4609 17.9805 29.4375C18.0117 29.4141 18.0273 29.3867 18.0273 29.3555C18.0273 29.3242 18.0391 29.2969 18.0625 29.2734C18.0703 29.2656 18.0938 29.2656 18.1328 29.2734C18.1719 29.2734 18.1953 29.2734 18.2031 29.2734C18.2578 29.2734 18.3203 29.2383 18.3906 29.168C18.4609 29.0898 18.5195 29.0391 18.5664 29.0156C18.6211 28.9844 18.6758 28.9648 18.7305 28.957C18.7852 28.9414 18.8438 28.918 18.9062 28.8867C18.9922 28.8398 19.0742 28.8047 19.1523 28.7812C19.2383 28.75 19.3242 28.7148 19.4102 28.6758C19.457 28.6602 19.5 28.6328 19.5391 28.5938C19.5781 28.5547 19.6172 28.5273 19.6562 28.5117C19.7266 28.4883 19.8008 28.4727 19.8789 28.4648C19.9648 28.4492 20.043 28.4375 20.1133 28.4297C20.1914 28.4141 20.2656 28.3984 20.3359 28.3828C20.4141 28.3594 20.4844 28.3203 20.5469 28.2656H20.6406C20.7812 28.2656 20.918 28.2461 21.0508 28.207C21.1836 28.168 21.3203 28.1484 21.4609 28.1484C21.5 28.1484 21.5586 28.1562 21.6367 28.1719C21.6992 28.1328 21.7695 28.1133 21.8477 28.1133C21.9805 28.1133 22.1133 28.1484 22.2461 28.2188C22.3789 28.2812 22.5156 28.3125 22.6562 28.3125H22.7266C22.7578 28.3125 22.7891 28.3086 22.8203 28.3008C22.9062 28.3867 23.0078 28.4336 23.125 28.4414C23.25 28.4492 23.3555 28.4844 23.4414 28.5469C23.4961 28.5938 23.5391 28.6484 23.5703 28.7109C23.6094 28.7734 23.6406 28.8398 23.6641 28.9102L23.7344 29.1211C23.7578 29.1914 23.7891 29.2539 23.8281 29.3086C23.7891 29.5898 23.6719 29.8164 23.4766 29.9883C23.2891 30.1523 23.0508 30.2344 22.7617 30.2344C22.6523 30.2344 22.5586 30.2227 22.4805 30.1992C22.4102 30.168 22.3438 30.1367 22.2812 30.1055C22.2266 30.0742 22.168 30.043 22.1055 30.0117C22.043 29.9805 21.9727 29.957 21.8945 29.9414C21.9805 29.7852 22.0352 29.6172 22.0586 29.4375C21.9727 29.3984 21.8867 29.3711 21.8008 29.3555C21.7148 29.3398 21.6328 29.3125 21.5547 29.2734C21.3438 29.3281 21.1367 29.3672 20.9336 29.3906C20.7383 29.4062 20.5547 29.4883 20.3828 29.6367C20.3438 29.6289 20.3008 29.6211 20.2539 29.6133C20.2148 29.6055 20.1758 29.6016 20.1367 29.6016C20.0898 29.6016 19.9961 29.6367 19.8555 29.707C19.7148 29.7695 19.5625 29.8438 19.3984 29.9297C19.2422 30.0156 19.0898 30.1016 18.9414 30.1875C18.8008 30.2734 18.7031 30.332 18.6484 30.3633C18.5859 30.4023 18.5312 30.4492 18.4844 30.5039C18.4375 30.5586 18.3906 30.6172 18.3438 30.6797C18.2969 30.7344 18.25 30.7891 18.2031 30.8438C18.1562 30.8906 18.0977 30.9258 18.0273 30.9492C18.0117 31.0352 17.9844 31.1094 17.9453 31.1719C17.9062 31.2344 17.8633 31.3008 17.8164 31.3711C17.8086 31.5117 17.793 31.6523 17.7695 31.793C17.7539 31.9336 17.7461 32.0742 17.7461 32.2148V32.3672C17.7461 32.4141 17.7539 32.457 17.7695 32.4961C17.8477 32.5977 17.9102 32.7109 17.957 32.8359C18.0117 32.9609 18.1016 33.0469 18.2266 33.0938C18.2344 33.125 18.2305 33.1445 18.2148 33.1523C18.207 33.1602 18.1992 33.1797 18.1914 33.2109C18.2383 33.2969 18.2969 33.3672 18.3672 33.4219C18.4453 33.4688 18.5234 33.5195 18.6016 33.5742C18.6797 33.6211 18.7539 33.6719 18.8242 33.7266C18.8945 33.7812 18.9492 33.8516 18.9883 33.9375C19.1055 33.9375 19.2148 33.957 19.3164 33.9961C19.4258 34.0352 19.5273 34.0781 19.6211 34.125C19.7227 34.1719 19.8164 34.2148 19.9023 34.2539C19.9961 34.293 20.0898 34.3125 20.1836 34.3125C20.2695 34.3125 20.3477 34.3008 20.418 34.2773C20.6211 34.3398 20.8242 34.3867 21.0273 34.418C21.2383 34.4414 21.4492 34.4531 21.6602 34.4531C21.918 34.4531 22.1758 34.4375 22.4336 34.4062C22.6914 34.375 22.9492 34.3477 23.207 34.3242C23.3008 34.3086 23.3906 34.3008 23.4766 34.3008C23.5625 34.3008 23.6484 34.293 23.7344 34.2773C23.8438 34.2617 23.9453 34.2109 24.0391 34.125C24.1406 34.0391 24.2383 33.9766 24.332 33.9375C24.418 33.9922 24.5195 34.0195 24.6367 34.0195C24.7695 34.0195 24.8984 34 25.0234 33.9609C25.1484 33.9141 25.2773 33.8906 25.4102 33.8906H25.4688ZM32.793 28.5469V28.5938C32.7383 28.6094 32.7109 28.6484 32.7109 28.7109C32.625 28.75 32.5352 28.7812 32.4414 28.8047C32.3477 28.8203 32.2578 28.8477 32.1719 28.8867C32.0859 28.8789 31.9961 28.875 31.9023 28.875C31.8164 28.8672 31.7305 28.8633 31.6445 28.8633C31.4102 28.8633 31.1758 28.8711 30.9414 28.8867C30.707 28.9023 30.4727 28.9023 30.2383 28.8867C30.1289 28.9492 30.0078 29 29.875 29.0391C29.75 29.0703 29.6289 29.0859 29.5117 29.0859C29.418 29.0859 29.3359 29.0742 29.2656 29.0508C29.0781 29.1445 28.8711 29.2227 28.6445 29.2852C28.4258 29.3477 28.2031 29.4102 27.9766 29.4727C27.75 29.5273 27.5312 29.5938 27.3203 29.6719C27.1172 29.7422 26.9375 29.8438 26.7812 29.9766C26.7656 30.0859 26.7539 30.1953 26.7461 30.3047C26.7383 30.4062 26.7344 30.5078 26.7344 30.6094C26.7344 30.7188 26.7383 30.8203 26.7461 30.9141C26.7617 31.0078 26.7891 31.1016 26.8281 31.1953C26.8672 31.2109 26.9102 31.2227 26.957 31.2305C27.0117 31.2383 27.0586 31.2422 27.0977 31.2422C27.1367 31.2422 27.1758 31.2383 27.2148 31.2305C27.2539 31.2148 27.2812 31.1875 27.2969 31.1484C27.4141 31.1328 27.5312 31.1289 27.6484 31.1367C27.7656 31.1367 27.8828 31.1367 28 31.1367C28.1172 31.1367 28.2305 31.1328 28.3398 31.125C28.457 31.1172 28.5703 31.0977 28.6797 31.0664C28.8047 31.0352 28.9258 31.0156 29.043 31.0078C29.168 31 29.2891 30.9922 29.4062 30.9844C29.5234 30.9766 29.6445 30.9648 29.7695 30.9492C29.8945 30.9258 30.0234 30.8828 30.1562 30.8203C30.2578 30.8594 30.3594 30.8789 30.4609 30.8789C30.5703 30.8789 30.6758 30.8867 30.7773 30.9023C30.832 30.9414 30.875 30.9844 30.9062 31.0312C30.9453 31.0781 30.9648 31.1328 30.9648 31.1953C30.9648 31.3047 30.9258 31.4141 30.8477 31.5234C30.7695 31.6328 30.707 31.7344 30.6602 31.8281H30.5312C30.3438 31.8281 30.1602 31.8555 29.9805 31.9102C29.8086 31.957 29.6328 32.0156 29.4531 32.0859C29.2812 32.1484 29.1055 32.207 28.9258 32.2617C28.7539 32.3086 28.5742 32.332 28.3867 32.332C28.3555 32.332 28.3359 32.3516 28.3281 32.3906C28.3281 32.4219 28.3203 32.4453 28.3047 32.4609C28.2656 32.4531 28.207 32.4492 28.1289 32.4492C27.9492 32.4492 27.7773 32.4688 27.6133 32.5078C27.4492 32.5469 27.2812 32.5664 27.1094 32.5664C27.0625 32.5664 27.0156 32.5664 26.9688 32.5664C26.9219 32.5586 26.875 32.5508 26.8281 32.543C26.7891 32.6055 26.7383 32.6484 26.6758 32.6719C26.6133 32.6875 26.5547 32.7188 26.5 32.7656C26.4766 32.8359 26.4609 32.9219 26.4531 33.0234C26.4531 33.125 26.4492 33.2305 26.4414 33.3398C26.4414 33.4414 26.4336 33.5391 26.418 33.6328C26.4023 33.7266 26.3711 33.8008 26.3242 33.8555C26.332 33.8945 26.3633 33.9102 26.418 33.9023C26.4727 33.8867 26.5 33.9102 26.5 33.9727C26.5 34.043 26.4922 34.1172 26.4766 34.1953C26.4609 34.2734 26.4531 34.3516 26.4531 34.4297C26.4531 34.5781 26.4688 34.7422 26.5 34.9219C26.5391 35.0938 26.5938 35.2539 26.6641 35.4023C26.7422 35.5508 26.8438 35.6758 26.9688 35.7773C27.0938 35.8711 27.25 35.918 27.4375 35.918C27.5625 35.918 27.6797 35.8945 27.7891 35.8477C27.8984 35.8008 27.9883 35.7227 28.0586 35.6133L28.1172 35.6016C28.1484 35.6016 28.1758 35.6055 28.1992 35.6133C28.2305 35.6211 28.2617 35.625 28.293 35.625C28.3398 35.625 28.3984 35.5977 28.4688 35.543C28.5469 35.4805 28.6289 35.4102 28.7148 35.332C28.8086 35.2539 28.9023 35.1797 28.9961 35.1094C29.0898 35.0312 29.1797 34.9766 29.2656 34.9453C29.3203 34.8359 29.3711 34.7266 29.418 34.6172C29.4727 34.5078 29.5508 34.4219 29.6523 34.3594V34.0195C29.7305 33.9336 29.8125 33.8555 29.8984 33.7852C29.9922 33.7148 30.0625 33.625 30.1094 33.5156C30.1484 33.5312 30.1836 33.543 30.2148 33.5508C30.2539 33.5586 30.293 33.5625 30.332 33.5625C30.3711 33.5625 30.4102 33.5586 30.4492 33.5508C30.4961 33.543 30.5391 33.5312 30.5781 33.5156C30.6406 33.6016 30.6875 33.6992 30.7188 33.8086C30.7578 33.9102 30.8047 34.0078 30.8594 34.1016C30.7891 34.2422 30.707 34.4102 30.6133 34.6055C30.5195 34.8008 30.418 34.9961 30.3086 35.1914C30.1992 35.3867 30.082 35.5742 29.957 35.7539C29.8398 35.9258 29.7227 36.0586 29.6055 36.1523C29.582 36.1758 29.5312 36.2031 29.4531 36.2344C29.3672 36.2969 29.2891 36.3555 29.2188 36.4102C29.1484 36.4727 29.082 36.543 29.0195 36.6211C28.793 36.6914 28.5742 36.7852 28.3633 36.9023C28.1602 37.0195 27.957 37.1328 27.7539 37.2422C27.6602 37.2188 27.5586 37.207 27.4492 37.207C27.3555 37.207 27.2617 37.2109 27.168 37.2188C27.0742 37.2344 26.9727 37.2422 26.8633 37.2422C26.832 37.2031 26.7852 37.1758 26.7227 37.1602C26.668 37.1523 26.6484 37.1133 26.6641 37.043C26.3984 37.0273 26.1836 36.9531 26.0195 36.8203C25.8555 36.6953 25.7148 36.5391 25.5977 36.3516C25.4883 36.1641 25.3984 35.9609 25.3281 35.7422C25.2578 35.5234 25.1836 35.3125 25.1055 35.1094V35.0742C25.1055 35.0352 25.1211 35.0117 25.1523 35.0039C25.1836 34.9961 25.1992 34.9727 25.1992 34.9336C25.1992 34.918 25.1953 34.9062 25.1875 34.8984C25.1641 34.8125 25.1445 34.7383 25.1289 34.6758C25.1133 34.6133 25.1055 34.5391 25.1055 34.4531C25.1055 34.3281 25.1133 34.207 25.1289 34.0898C25.1445 33.9648 25.1523 33.8398 25.1523 33.7148C25.1523 33.5898 25.1367 33.4805 25.1055 33.3867C25.1367 33.3477 25.1641 33.2969 25.1875 33.2344C25.2031 33.1641 25.2148 33.0938 25.2227 33.0234C25.2305 32.9531 25.2344 32.8828 25.2344 32.8125C25.2422 32.7422 25.2539 32.6797 25.2695 32.625C25.2383 32.5391 25.2109 32.4648 25.1875 32.4023C25.1641 32.332 25.1523 32.25 25.1523 32.1562V32.0742C25.2305 31.9414 25.2969 31.8047 25.3516 31.6641C25.4062 31.5234 25.4648 31.3789 25.5273 31.2305V31.1953C25.5273 30.9688 25.5195 30.7422 25.5039 30.5156C25.4883 30.2891 25.4805 30.0625 25.4805 29.8359V29.6133C25.4805 29.5352 25.4844 29.4609 25.4922 29.3906C25.5547 29.3594 25.6016 29.3164 25.6328 29.2617C25.6641 29.207 25.7109 29.1641 25.7734 29.1328H26.1602L26.2305 29.0156C26.2539 28.9766 26.2695 28.9336 26.2773 28.8867C26.3633 28.8633 26.4453 28.832 26.5234 28.793C26.6094 28.7461 26.6875 28.6992 26.7578 28.6523C26.8672 28.5898 26.9648 28.5352 27.0508 28.4883C27.1445 28.4336 27.2344 28.3906 27.3203 28.3594C27.4141 28.3203 27.5117 28.2891 27.6133 28.2656C27.7148 28.2422 27.832 28.2227 27.9648 28.207C28.0273 28.207 28.0664 28.1953 28.082 28.1719C28.1055 28.1484 28.1367 28.1211 28.1758 28.0898C28.2695 28.1055 28.3633 28.1211 28.457 28.1367C28.5508 28.1445 28.6445 28.1484 28.7383 28.1484C28.9258 28.1484 29.1016 28.1133 29.2656 28.043C29.5 28.043 29.7305 28.0391 29.957 28.0312C30.1914 28.0234 30.4258 28.0195 30.6602 28.0195C30.8633 28.0195 31.0664 28.0273 31.2695 28.043C31.4727 28.0586 31.6719 28.0859 31.8672 28.125C31.9375 28.1016 32.0156 28.0898 32.1016 28.0898C32.1953 28.0898 32.2891 28.1016 32.3828 28.125C32.4844 28.1406 32.582 28.1406 32.6758 28.125C32.6836 28.2109 32.7031 28.2852 32.7344 28.3477C32.7734 28.4023 32.793 28.4688 32.793 28.5469ZM49.3633 29.5195C49.3398 29.5898 49.293 29.6406 49.2227 29.6719C49.1602 29.6953 49.0938 29.7148 49.0234 29.7305C48.9531 29.7461 48.8867 29.7734 48.8242 29.8125C48.7695 29.8438 48.7344 29.8984 48.7188 29.9766L48.6953 29.9883C48.6641 29.9883 48.6406 29.9805 48.625 29.9648C48.6172 29.9414 48.6094 29.9219 48.6016 29.9062C48.5938 29.8828 48.582 29.8633 48.5664 29.8477C48.5586 29.8242 48.543 29.8125 48.5195 29.8125C48.4336 29.8125 48.3477 29.8203 48.2617 29.8359C48.1836 29.8516 48.1055 29.8594 48.0273 29.8594C47.9102 29.8594 47.8047 29.8438 47.7109 29.8125C47.6562 29.8281 47.625 29.8633 47.6172 29.918C47.6172 29.9727 47.5938 30.0078 47.5469 30.0234C47.5078 30.0391 47.4609 30.0469 47.4062 30.0469C47.3516 30.0391 47.2969 30.043 47.2422 30.0586L46.8672 30.1523C46.7422 30.1836 46.6172 30.1992 46.4922 30.1992C46.4219 30.1992 46.3711 30.1953 46.3398 30.1875C46.2227 30.2812 46.0898 30.3516 45.9414 30.3984C45.793 30.4375 45.6367 30.4766 45.4727 30.5156C45.3164 30.5469 45.1602 30.5898 45.0039 30.6445C44.8555 30.6992 44.7227 30.7852 44.6055 30.9023C44.543 30.8867 44.4883 30.8789 44.4414 30.8789C44.3398 30.8789 44.25 30.9023 44.1719 30.9492C44.0938 30.9883 44.0117 31.0273 43.9258 31.0664C43.8867 31.082 43.8477 31.0898 43.8086 31.0898C43.7695 31.0898 43.7266 31.0977 43.6797 31.1133C43.6328 31.1289 43.6016 31.1562 43.5859 31.1953C43.5781 31.2266 43.5547 31.2578 43.5156 31.2891C43.5156 31.5703 43.543 31.8516 43.5977 32.1328C43.6523 32.4062 43.6797 32.6836 43.6797 32.9648V33.0117C43.6953 33.1445 43.7383 33.2695 43.8086 33.3867C43.8789 33.4961 43.9141 33.6094 43.9141 33.7266C43.9141 33.7656 43.9062 33.8086 43.8906 33.8555C44.0938 33.9023 44.2266 34.0078 44.2891 34.1719C44.3594 34.3281 44.4141 34.5 44.4531 34.6875C44.5 34.8672 44.5586 35.0352 44.6289 35.1914C44.707 35.3477 44.8555 35.4453 45.0742 35.4844C45.0898 35.5625 45.1016 35.6445 45.1094 35.7305C45.1172 35.8086 45.1211 35.8867 45.1211 35.9648C45.1211 36.0742 45.1094 36.1797 45.0859 36.2812C45.0625 36.3906 45.0156 36.4883 44.9453 36.5742C44.8281 36.582 44.7422 36.5859 44.6875 36.5859C44.6328 36.5859 44.5508 36.6094 44.4414 36.6562C44.2852 36.5625 44.1445 36.4531 44.0195 36.3281C43.9023 36.2109 43.7891 36.0859 43.6797 35.9531C43.5781 35.8125 43.4766 35.6719 43.375 35.5312C43.2734 35.3828 43.1641 35.2422 43.0469 35.1094C42.6406 35.2109 42.2227 35.2812 41.793 35.3203C41.3711 35.3516 40.9492 35.3672 40.5273 35.3672C40.5117 35.3828 40.4883 35.3906 40.457 35.3906C40.4258 35.3906 40.3945 35.3945 40.3633 35.4023C40.3398 35.4023 40.3164 35.4102 40.293 35.4258C40.2773 35.4336 40.2734 35.4531 40.2812 35.4844C40.2266 35.4531 40.1641 35.4336 40.0938 35.4258C40.0312 35.4102 39.9727 35.4023 39.918 35.4023C39.8789 35.4023 39.8398 35.4062 39.8008 35.4141C39.7617 35.4141 39.7227 35.4258 39.6836 35.4492C39.3867 35.3945 39.0977 35.3203 38.8164 35.2266C38.543 35.125 38.2617 35.043 37.9727 34.9805C37.9727 34.918 37.957 34.875 37.9258 34.8516C37.8945 34.8203 37.8672 34.7773 37.8438 34.7227C37.5156 34.5195 37.2383 34.2734 37.0117 33.9844C36.793 33.6953 36.7031 33.3438 36.7422 32.9297L36.6602 32.7656C36.6602 32.6406 36.6875 32.5508 36.7422 32.4961C36.7109 32.4414 36.6562 32.3867 36.5781 32.332C36.6484 32.2227 36.7109 32.1094 36.7656 31.9922C36.8203 31.875 36.8594 31.75 36.8828 31.6172C36.8906 31.5781 36.8945 31.543 36.8945 31.5117C36.8945 31.4805 36.9023 31.4453 36.918 31.4062C36.9336 31.3594 36.957 31.3086 36.9883 31.2539C37.0117 31.1914 37.0352 31.1367 37.0586 31.0898C37.1836 30.8242 37.3203 30.5703 37.4688 30.3281C37.625 30.0781 37.8203 29.8633 38.0547 29.6836C38.0703 29.5508 38.1094 29.4414 38.1719 29.3555C38.2344 29.2617 38.3008 29.1797 38.3711 29.1094C38.4492 29.0312 38.5234 28.9531 38.5938 28.875C38.6719 28.7969 38.7305 28.7031 38.7695 28.5938C38.9258 28.4609 39.082 28.332 39.2383 28.207C39.4023 28.082 39.5391 27.9336 39.6484 27.7617C39.7891 27.7148 39.9219 27.6562 40.0469 27.5859C40.1719 27.5078 40.2773 27.4102 40.3633 27.293C40.5508 27.2773 40.7344 27.2422 40.9141 27.1875C41.1016 27.1328 41.2969 27.1055 41.5 27.1055C41.5859 27.1055 41.6875 27.125 41.8047 27.1641C41.9297 27.1953 42.0234 27.2539 42.0859 27.3398C42.0938 27.3555 42.0977 27.375 42.0977 27.3984L42.1094 27.457C42.1172 27.4727 42.125 27.4883 42.1328 27.5039C42.1484 27.5117 42.1719 27.5117 42.2031 27.5039C42.2031 27.6758 42.1836 27.8516 42.1445 28.0312C42.1055 28.2031 42.0039 28.3359 41.8398 28.4297C41.7383 28.3984 41.6289 28.3828 41.5117 28.3828C41.3555 28.3828 41.2109 28.4141 41.0781 28.4766C40.9531 28.5312 40.8281 28.5977 40.7031 28.6758C40.5859 28.7461 40.4648 28.8203 40.3398 28.8984C40.2148 28.9688 40.082 29.0195 39.9414 29.0508C39.9258 29.1133 39.9102 29.1719 39.8945 29.2266C39.8867 29.2734 39.8906 29.3281 39.9062 29.3906C39.8672 29.3906 39.8359 29.3867 39.8125 29.3789C39.7969 29.3633 39.7695 29.3555 39.7305 29.3555C39.6758 29.3555 39.6367 29.3867 39.6133 29.4492C39.5977 29.5117 39.582 29.5625 39.5664 29.6016C39.418 29.6641 39.293 29.7539 39.1914 29.8711C39.0977 29.9805 39.0078 30.1016 38.9219 30.2344C38.8438 30.3594 38.7578 30.4805 38.6641 30.5977C38.5703 30.7148 38.4531 30.8047 38.3125 30.8672C38.25 31.1172 38.1875 31.3633 38.125 31.6055C38.0703 31.8477 38.0039 32.0898 37.9258 32.332C37.9492 32.4258 37.9609 32.5234 37.9609 32.625C37.9609 32.75 37.9492 32.8633 37.9258 32.9648C37.9648 33.0273 38.0039 33.1016 38.043 33.1875L38.1836 33.457C38.2305 33.5508 38.2773 33.6367 38.3242 33.7148C38.3789 33.793 38.4297 33.8516 38.4766 33.8906C38.5625 33.9531 38.6953 34.0117 38.875 34.0664C39.0547 34.1133 39.2148 34.1953 39.3555 34.3125C39.3711 34.3125 39.3906 34.3125 39.4141 34.3125C39.4375 34.3047 39.457 34.3008 39.4727 34.3008C39.5664 34.3008 39.668 34.3242 39.7773 34.3711C39.8867 34.418 39.957 34.4414 39.9883 34.4414C40.4258 34.4414 40.9023 34.4141 41.418 34.3594C41.9336 34.2969 42.4102 34.2227 42.8477 34.1367C42.8633 34.0586 42.8711 33.9922 42.8711 33.9375C42.8711 33.8359 42.8555 33.7383 42.8242 33.6445C42.793 33.543 42.7422 33.457 42.6719 33.3867C42.6719 33.2695 42.6719 33.1523 42.6719 33.0352C42.6797 32.918 42.6836 32.8008 42.6836 32.6836C42.6836 32.4883 42.6758 32.2812 42.6602 32.0625C42.6445 31.8438 42.6055 31.6406 42.543 31.4531H42.5195C42.418 31.4531 42.3242 31.4805 42.2383 31.5352C42.1602 31.582 42.0781 31.6055 41.9922 31.6055C41.9453 31.6055 41.9062 31.5938 41.875 31.5703C41.7812 31.6797 41.668 31.7617 41.5352 31.8164C41.4023 31.8711 41.2617 31.9219 41.1133 31.9688C40.9648 32.0078 40.8164 32.0508 40.668 32.0977C40.5273 32.1445 40.3984 32.2109 40.2812 32.2969C40.2188 32.2734 40.1602 32.2617 40.1055 32.2617C40.0508 32.2617 39.9961 32.2656 39.9414 32.2734C39.8945 32.2812 39.8398 32.2891 39.7773 32.2969C39.6133 32.1562 39.5312 31.9805 39.5312 31.7695C39.5312 31.6602 39.5469 31.5547 39.5781 31.4531C39.6172 31.3438 39.668 31.2422 39.7305 31.1484C39.7695 31.125 39.8164 31.1133 39.8711 31.1133C39.9258 31.1055 39.9805 31.0977 40.0352 31.0898C40.0898 31.0742 40.1328 31.0547 40.1641 31.0312C40.2031 31.0078 40.2266 30.9648 40.2344 30.9023C40.2578 30.9258 40.2773 30.9375 40.293 30.9375C40.3086 30.9375 40.3242 30.9336 40.3398 30.9258C40.3555 30.918 40.3711 30.9141 40.3867 30.9141C40.4023 30.9141 40.4141 30.9219 40.4219 30.9375C40.4375 30.9531 40.4453 30.9688 40.4453 30.9844C40.7812 30.8047 41.125 30.6523 41.4766 30.5273C41.8281 30.4023 42.1836 30.2891 42.543 30.1875C42.9102 30.0859 43.2773 29.9922 43.6445 29.9062C44.0117 29.8125 44.375 29.7109 44.7344 29.6016C44.7891 29.5547 44.8477 29.5195 44.9102 29.4961C44.9727 29.4727 45.0273 29.4375 45.0742 29.3906C45.1289 29.4219 45.1953 29.4375 45.2734 29.4375C45.3828 29.4375 45.5 29.418 45.625 29.3789C45.7578 29.332 45.8672 29.2773 45.9531 29.2148C45.9844 29.2227 46.0117 29.2266 46.0352 29.2266H46.1172C46.2734 29.2266 46.418 29.2031 46.5508 29.1562C46.6914 29.1094 46.8281 29.0469 46.9609 28.9688H47.0195C47.2617 28.9688 47.5 28.9414 47.7344 28.8867C47.9766 28.832 48.2227 28.8047 48.4727 28.8047C48.793 28.8047 49.0742 28.8867 49.3164 29.0508V29.1914C49.3164 29.2539 49.3164 29.3125 49.3164 29.3672C49.3242 29.4141 49.3398 29.4648 49.3633 29.5195ZM60.9648 33.9609C60.9492 34.0781 60.9062 34.168 60.8359 34.2305C60.7734 34.293 60.6992 34.3516 60.6133 34.4062C60.5742 34.3984 60.5352 34.3945 60.4961 34.3945C60.4648 34.3867 60.4297 34.3828 60.3906 34.3828C60.1484 34.375 59.918 34.4062 59.6992 34.4766C59.4883 34.5469 59.2695 34.5977 59.043 34.6289C58.9648 34.6445 58.8906 34.6523 58.8203 34.6523C58.7578 34.6445 58.6914 34.6484 58.6211 34.6641C58.3711 34.7031 58.1055 34.7344 57.8242 34.7578C57.543 34.7812 57.2617 34.8125 56.9805 34.8516C56.6992 34.8828 56.4219 34.9258 56.1484 34.9805C55.8828 35.0273 55.6328 35.0977 55.3984 35.1914C55.375 35.1758 55.3516 35.1602 55.3281 35.1445C55.3047 35.1211 55.2773 35.1094 55.2461 35.1094C55.168 35.1094 55.0938 35.1211 55.0234 35.1445C54.9531 35.168 54.8828 35.1758 54.8125 35.168C54.7344 35.2148 54.6484 35.25 54.5547 35.2734C54.4688 35.2891 54.3789 35.3047 54.2852 35.3203C54.1992 35.3281 54.1133 35.3438 54.0273 35.3672C53.9414 35.3906 53.8594 35.4336 53.7812 35.4961C53.7188 35.4648 53.6406 35.4492 53.5469 35.4492C53.4609 35.4414 53.4023 35.4102 53.3711 35.3555C53.1914 35.4414 53 35.4961 52.7969 35.5195C52.6016 35.543 52.4023 35.5508 52.1992 35.543C52.0664 35.5352 51.9141 35.5156 51.7422 35.4844C51.5703 35.4531 51.3984 35.4102 51.2266 35.3555C51.0547 35.293 50.8945 35.2227 50.7461 35.1445C50.5977 35.0586 50.4844 34.957 50.4062 34.8398C50.3516 34.7617 50.3125 34.6758 50.2891 34.582C50.2656 34.4883 50.2109 34.418 50.125 34.3711C50.1484 34.1914 50.1758 34.0156 50.207 33.8438C50.2383 33.6719 50.2695 33.4961 50.3008 33.3164C50.457 33.1836 50.6055 33.043 50.7461 32.8945C50.8867 32.7461 51.0195 32.5898 51.1445 32.4258C51.293 32.3555 51.4297 32.2695 51.5547 32.168C51.6875 32.0664 51.8164 31.9648 51.9414 31.8633C52.0742 31.7539 52.2031 31.6484 52.3281 31.5469C52.4609 31.4453 52.6016 31.3555 52.75 31.2773C52.7734 31.2227 52.8047 31.1797 52.8438 31.1484C52.8906 31.1094 52.9375 31.0742 52.9844 31.043C53.0312 31.0039 53.0742 30.9648 53.1133 30.9258C53.1523 30.8789 53.1797 30.8242 53.1953 30.7617C53.4688 30.5977 53.707 30.3906 53.9102 30.1406C54.1133 29.8906 54.2461 29.6094 54.3086 29.2969C54.1758 29.1875 54.0234 29.1172 53.8516 29.0859C53.6875 29.0469 53.5156 29.0195 53.3359 29.0039C53.1797 28.9961 53.0156 28.9961 52.8438 29.0039C52.6797 29.0117 52.5117 29.0078 52.3398 28.9922C52.168 29.0469 51.9883 29.082 51.8008 29.0977C51.6211 29.1133 51.4414 29.1289 51.2617 29.1445C51.082 29.1523 50.9023 29.1758 50.7227 29.2148C50.5508 29.2461 50.3828 29.3086 50.2188 29.4023C50.1875 29.4023 50.1562 29.3984 50.125 29.3906C50.1016 29.3828 50.0742 29.3789 50.043 29.3789C49.793 29.3711 49.5586 29.4219 49.3398 29.5312C49.1211 29.6328 48.9062 29.7344 48.6953 29.8359C48.6797 29.8672 48.6719 29.8906 48.6719 29.9062C48.6719 29.9531 48.6797 30 48.6953 30.0469C48.7188 30.0859 48.7305 30.1289 48.7305 30.1758C48.7227 30.1836 48.7188 30.1914 48.7188 30.1992C48.7188 30.207 48.7148 30.2148 48.707 30.2227C48.6992 30.2617 48.6875 30.2969 48.6719 30.3281C48.6641 30.3594 48.6523 30.3945 48.6367 30.4336C48.5508 30.6836 48.5039 30.9297 48.4961 31.1719C48.4883 31.375 48.4883 31.5742 48.4961 31.7695C48.5039 31.9648 48.5039 32.1641 48.4961 32.3672C48.4805 32.6172 48.4414 32.8516 48.3789 33.0703C48.418 33.2578 48.4531 33.457 48.4844 33.668C48.5156 33.8711 48.5547 34.0742 48.6016 34.2773C48.6484 34.4805 48.7031 34.6797 48.7656 34.875C48.8359 35.0625 48.9258 35.2422 49.0352 35.4141C49.0273 35.4297 49.0312 35.4414 49.0469 35.4492C49.0625 35.457 49.0781 35.4609 49.0938 35.4609H49.1875C49.2266 35.4609 49.2422 35.4766 49.2344 35.5078C49.25 35.5312 49.2617 35.5547 49.2695 35.5781C49.2773 35.5938 49.293 35.6094 49.3164 35.625C49.332 35.6484 49.332 35.6797 49.3164 35.7188C49.3086 35.875 49.2695 36.0195 49.1992 36.1523C49.1289 36.2852 49.0859 36.4297 49.0703 36.5859C48.9766 36.6094 48.8906 36.6211 48.8125 36.6211C48.6797 36.6133 48.5625 36.5742 48.4609 36.5039C48.3594 36.4414 48.2656 36.3633 48.1797 36.2695C48.0938 36.1758 48.0117 36.082 47.9336 35.9883C47.8555 35.8867 47.7695 35.8008 47.6758 35.7305C47.6211 35.5117 47.5664 35.2695 47.5117 35.0039C47.4648 34.7383 47.3828 34.5117 47.2656 34.3242C47.2969 34.2539 47.3125 34.168 47.3125 34.0664C47.3203 33.9102 47.3047 33.7578 47.2656 33.6094C47.2344 33.4531 47.2266 33.2969 47.2422 33.1406C47.2422 33.0547 47.25 32.9688 47.2656 32.8828C47.2891 32.7969 47.3047 32.7109 47.3125 32.625C47.3203 32.4922 47.3047 32.3633 47.2656 32.2383C47.2344 32.1133 47.2227 31.9844 47.2305 31.8516C47.2383 31.7891 47.25 31.7305 47.2656 31.6758C47.2891 31.6133 47.3203 31.5586 47.3594 31.5117C47.3203 31.418 47.3086 31.3281 47.3242 31.2422C47.332 31.1094 47.3477 30.9844 47.3711 30.8672C47.3945 30.75 47.4102 30.6328 47.418 30.5156C47.418 30.4531 47.4141 30.3945 47.4062 30.3398C47.3984 30.2773 47.3867 30.2188 47.3711 30.1641L47.2656 30.1289C47.2188 30.1289 47.1719 30.1406 47.125 30.1641C47.0859 30.1875 47.0508 30.2148 47.0195 30.2461C46.9883 30.2773 46.9609 30.3047 46.9375 30.3281C46.9141 30.3438 46.8906 30.3516 46.8672 30.3516C46.8516 30.3516 46.832 30.3516 46.8086 30.3516C46.793 30.3438 46.7773 30.3398 46.7617 30.3398C46.7461 30.3398 46.7148 30.3555 46.668 30.3867C46.6289 30.418 46.5781 30.4531 46.5156 30.4922C46.4609 30.5234 46.4062 30.5586 46.3516 30.5977C46.2969 30.6289 46.2539 30.6484 46.2227 30.6562C46.1367 30.6406 46.0664 30.6133 46.0117 30.5742C45.9648 30.5273 45.918 30.4844 45.8711 30.4453C45.832 30.3984 45.7891 30.3594 45.7422 30.3281C45.6953 30.2891 45.6367 30.2734 45.5664 30.2812C45.543 30.2344 45.5312 30.1836 45.5312 30.1289C45.5234 30.0742 45.5234 30.0195 45.5312 29.9648V29.7773C45.5859 29.6758 45.6602 29.5938 45.7539 29.5312C45.8398 29.4609 45.9336 29.4023 46.0352 29.3555L46.3398 29.2148C46.4414 29.168 46.5352 29.1094 46.6211 29.0391H46.7266C46.8672 29.0469 46.9883 29.0195 47.0898 28.957C47.1992 28.8945 47.3008 28.8242 47.3945 28.7461C47.4883 28.6602 47.582 28.5742 47.6758 28.4883C47.7773 28.4023 47.8867 28.3359 48.0039 28.2891C48.0898 28.3281 48.1797 28.3633 48.2734 28.3945C48.3672 28.418 48.4648 28.4336 48.5664 28.4414C48.668 28.4414 48.7734 28.4258 48.8828 28.3945C48.9922 28.3633 49.0781 28.3047 49.1406 28.2188C49.1797 28.2344 49.2109 28.2461 49.2344 28.2539C49.2656 28.2539 49.3008 28.2539 49.3398 28.2539C49.457 28.2617 49.5742 28.2461 49.6914 28.207C49.8086 28.1602 49.9219 28.1055 50.0312 28.043C50.1875 28.0508 50.3398 28.043 50.4883 28.0195C50.6445 27.9883 50.7969 27.957 50.9453 27.9258C51.1016 27.8945 51.2539 27.8672 51.4023 27.8438C51.5586 27.8125 51.7148 27.8008 51.8711 27.8086C52.1289 27.8164 52.3828 27.793 52.6328 27.7383C52.8828 27.6836 53.1367 27.6641 53.3945 27.6797C53.5742 27.6875 53.75 27.7031 53.9219 27.7266C54.1016 27.7422 54.2812 27.7461 54.4609 27.7383C54.5625 27.7852 54.6523 27.8281 54.7305 27.8672C54.8164 27.8984 54.9219 27.9062 55.0469 27.8906C55.2969 28.1016 55.5234 28.3477 55.7266 28.6289V28.8281C55.7188 29.0078 55.6875 29.1836 55.6328 29.3555C55.5781 29.5273 55.5117 29.6992 55.4336 29.8711C55.3633 30.0352 55.2852 30.1992 55.1992 30.3633C55.1133 30.5195 55.0312 30.6758 54.9531 30.832C54.4453 31.293 53.9375 31.75 53.4297 32.2031C52.9219 32.6562 52.3984 33.0938 51.8594 33.5156C51.8438 33.5938 51.8203 33.6641 51.7891 33.7266C51.7656 33.7891 51.75 33.8555 51.7422 33.9258C51.7422 33.9648 51.7461 33.9961 51.7539 34.0195C51.8086 34.0352 51.8555 34.0664 51.8945 34.1133C51.9414 34.1523 51.957 34.207 51.9414 34.2773H52.0469C52.0859 34.2773 52.1055 34.293 52.1055 34.3242L52.293 34.3359C52.5898 34.3516 52.8867 34.3438 53.1836 34.3125C53.4805 34.2812 53.7773 34.2461 54.0742 34.207C54.3789 34.168 54.6797 34.1328 54.9766 34.1016C55.2734 34.0625 55.5703 34.0391 55.8672 34.0312C55.9375 34.0078 56.0117 33.9883 56.0898 33.9727C56.168 33.957 56.2383 33.9258 56.3008 33.8789H56.3359C56.3906 33.8789 56.4297 33.8945 56.4531 33.9258C56.4844 33.957 56.5273 33.9766 56.582 33.9844C56.6211 33.9844 56.6602 33.9766 56.6992 33.9609C56.7461 33.9453 56.793 33.9336 56.8398 33.9258C56.9492 33.8945 57.0625 33.875 57.1797 33.8672C57.3047 33.8594 57.4258 33.8477 57.543 33.832C57.9961 33.793 58.4453 33.7695 58.8906 33.7617C59.3359 33.7461 59.7812 33.6875 60.2266 33.5859C60.2656 33.6406 60.3203 33.6797 60.3906 33.7031C60.4609 33.7188 60.5352 33.7383 60.6133 33.7617C60.6914 33.7773 60.7617 33.7969 60.8242 33.8203C60.8945 33.8438 60.9414 33.8906 60.9648 33.9609ZM66.3555 35.1445C66.332 35.2539 66.2812 35.3438 66.2031 35.4141C66.1328 35.4766 66.0469 35.5273 65.9453 35.5664C65.8438 35.6055 65.7383 35.6328 65.6289 35.6484C65.5273 35.6562 65.4336 35.6602 65.3477 35.6602C65.3086 35.6602 65.2695 35.6602 65.2305 35.6602C65.1992 35.6523 65.1641 35.6484 65.125 35.6484C65.0859 35.6484 65.0664 35.668 65.0664 35.707C65.0664 35.7461 65.0469 35.7734 65.0078 35.7891C64.9688 35.7734 64.9297 35.7617 64.8906 35.7539C64.8516 35.7461 64.8125 35.7422 64.7734 35.7422C64.7188 35.7422 64.6641 35.7461 64.6094 35.7539C64.5625 35.7617 64.5156 35.7656 64.4688 35.7656C64.4062 35.7656 64.3594 35.7578 64.3281 35.7422C64.3047 35.7266 64.2812 35.7109 64.2578 35.6953C64.2422 35.6719 64.2227 35.6484 64.1992 35.625C64.1836 35.6016 64.1562 35.582 64.1172 35.5664C64.0625 35.543 64.0156 35.5391 63.9766 35.5547C63.9453 35.5703 63.8945 35.5469 63.8242 35.4844C63.7305 35.4062 63.6484 35.3125 63.5781 35.2031C63.5156 35.0859 63.4531 34.9648 63.3906 34.8398C63.3281 34.7148 63.2617 34.5898 63.1914 34.4648C63.1211 34.3398 63.0391 34.2305 62.9453 34.1367H62.8516C62.7109 34.1367 62.6133 34.1953 62.5586 34.3125C62.5195 34.2891 62.4805 34.2617 62.4414 34.2305C62.4023 34.1914 62.3594 34.1602 62.3125 34.1367C62.1328 34.1914 61.9453 34.2383 61.75 34.2773C61.5547 34.3164 61.3594 34.3359 61.1641 34.3359H61C60.9531 34.3359 60.9023 34.3281 60.8477 34.3125C60.7695 34.3438 60.6992 34.3828 60.6367 34.4297C60.5742 34.4688 60.5039 34.4883 60.4258 34.4883C60.3789 34.4883 60.3242 34.4727 60.2617 34.4414C60.2148 34.4414 60.1914 34.4609 60.1914 34.5C60.1992 34.5391 60.1758 34.5586 60.1211 34.5586H60.0156C59.9062 34.5586 59.7969 34.5625 59.6875 34.5703C59.5859 34.5781 59.4805 34.582 59.3711 34.582C59.2227 34.582 59.0703 34.5625 58.9141 34.5234C58.875 34.5469 58.832 34.5586 58.7852 34.5586C58.7539 34.5742 58.7305 34.6016 58.7148 34.6406C58.6992 34.6719 58.6836 34.7031 58.668 34.7344C58.6523 34.7578 58.6289 34.7812 58.5977 34.8047C58.5742 34.8203 58.5391 34.8242 58.4922 34.8164C58.4766 34.9102 58.4375 34.9844 58.375 35.0391C58.3125 35.0938 58.2812 35.1758 58.2812 35.2852C58.1953 35.332 58.125 35.3906 58.0703 35.4609C58.0156 35.5312 57.9609 35.6055 57.9062 35.6836C57.8516 35.7617 57.793 35.8359 57.7305 35.9062C57.6758 35.9766 57.6055 36.0312 57.5195 36.0703C57.4805 36.1172 57.4688 36.1914 57.4844 36.293C57.3984 36.3633 57.293 36.4258 57.168 36.4805C57.043 36.5352 56.9258 36.5625 56.8164 36.5625C56.5898 36.5625 56.4336 36.4414 56.3477 36.1992C56.3477 36.1211 56.3555 36.0391 56.3711 35.9531C56.3789 35.8594 56.3945 35.7734 56.418 35.6953C56.4414 35.6094 56.4766 35.5352 56.5234 35.4727C56.5703 35.4023 56.6367 35.3516 56.7227 35.3203C56.7227 35.25 56.6992 35.2031 56.6523 35.1797C56.6055 35.1484 56.5859 35.0977 56.5938 35.0273C56.8047 34.9258 56.9883 34.793 57.1445 34.6289C57.3008 34.4648 57.4414 34.293 57.5664 34.1133C57.6992 33.9258 57.832 33.7383 57.9648 33.5508C58.0977 33.3633 58.2461 33.1953 58.4102 33.0469V32.8008C58.6445 32.5508 58.7969 32.2695 58.8672 31.957C58.9531 31.9414 59.0078 31.9023 59.0312 31.8398C59.0625 31.7773 59.0781 31.7031 59.0781 31.6172C59.1172 31.6172 59.1406 31.6016 59.1484 31.5703C59.1641 31.5312 59.1992 31.5195 59.2539 31.5352C59.3242 31.3477 59.4023 31.1758 59.4883 31.0195C59.5742 30.8633 59.6602 30.707 59.7461 30.5508C59.832 30.3867 59.9062 30.2188 59.9688 30.0469C60.0391 29.875 60.0898 29.6836 60.1211 29.4727C60.2305 29.4648 60.2891 29.4141 60.2969 29.3203C60.3125 29.2188 60.3281 29.1289 60.3438 29.0508C60.4609 28.9414 60.5469 28.8125 60.6016 28.6641C60.6641 28.5156 60.7188 28.3633 60.7656 28.207C60.8125 28.043 60.8633 27.8828 60.918 27.7266C60.9805 27.5625 61.0664 27.418 61.1758 27.293V27.2578C61.1758 27.2188 61.1602 27.1953 61.1289 27.1875C61.0977 27.1719 61.082 27.1445 61.082 27.1055C61.0898 27.0977 61.0938 27.0898 61.0938 27.082C61.1875 27.043 61.2578 26.9805 61.3047 26.8945C61.3516 26.8008 61.4219 26.7344 61.5156 26.6953C61.6797 26.8281 61.8242 26.9102 61.9492 26.9414C62.0742 26.9648 62.2383 26.9844 62.4414 27C62.543 27.1094 62.5977 27.2422 62.6055 27.3984C62.6211 27.5469 62.6484 27.6953 62.6875 27.8438C62.75 28.0938 62.8164 28.3398 62.8867 28.582C62.9648 28.8164 63.0234 29.0586 63.0625 29.3086C63.0859 29.457 63.1289 29.5977 63.1914 29.7305C63.2539 29.8633 63.2969 30 63.3203 30.1406C63.3359 30.25 63.3359 30.375 63.3203 30.5156C63.3047 30.6484 63.3203 30.7656 63.3672 30.8672L63.4492 31.0547C63.4883 31.1406 63.5195 31.2305 63.543 31.3242C63.5742 31.418 63.6016 31.5117 63.625 31.6055C63.6875 31.8398 63.7422 32.0938 63.7891 32.3672C63.8438 32.6328 63.9258 32.875 64.0352 33.0938C64.0742 33.1719 64.1328 33.2266 64.2109 33.2578C64.2969 33.2891 64.3906 33.3125 64.4922 33.3281C64.5938 33.3359 64.6914 33.3398 64.7852 33.3398C64.8867 33.332 64.9727 33.3281 65.043 33.3281H65.1602C65.207 33.3281 65.2539 33.3359 65.3008 33.3516C65.332 33.4141 65.3477 33.4688 65.3477 33.5156C65.3477 33.6094 65.3164 33.6836 65.2539 33.7383C65.1914 33.793 65.1602 33.8555 65.1602 33.9258C65.1602 33.9648 65.1758 34.0078 65.207 34.0547C65.1758 34.0469 65.1289 34.043 65.0664 34.043C64.8867 34.043 64.7109 34.0742 64.5391 34.1367C64.6016 34.2695 64.6836 34.3828 64.7852 34.4766C64.8945 34.5625 65.0078 34.6445 65.125 34.7227C65.2031 34.6602 65.2852 34.6289 65.3711 34.6289C65.4648 34.6289 65.5508 34.6523 65.6289 34.6992C65.7148 34.7383 65.8047 34.7578 65.8984 34.7578C65.9688 34.7578 66.0195 34.7461 66.0508 34.7227C66.1133 34.793 66.1641 34.8672 66.2031 34.9453C66.2422 35.0156 66.293 35.082 66.3555 35.1445ZM62.6875 33.2695C62.6719 33.1367 62.6445 33.043 62.6055 32.9883C62.5742 32.9258 62.5469 32.8516 62.5234 32.7656C62.4922 32.6562 62.4688 32.5391 62.4531 32.4141C62.4453 32.2891 62.4297 32.168 62.4062 32.0508C62.3516 31.7852 62.2891 31.5195 62.2188 31.2539C62.1562 30.9883 62.0742 30.7305 61.9727 30.4805C62.0039 30.4336 62.0195 30.3906 62.0195 30.3516V30.3164C61.9492 30.2383 61.8984 30.1445 61.8672 30.0352C61.8359 29.918 61.8047 29.8047 61.7734 29.6953C61.75 29.5781 61.7148 29.4727 61.668 29.3789C61.6289 29.2773 61.5625 29.1953 61.4688 29.1328C61.4453 29.1797 61.4336 29.2344 61.4336 29.2969C61.4336 29.3516 61.4375 29.4023 61.4453 29.4492C61.4609 29.4961 61.4688 29.5469 61.4688 29.6016C61.3906 29.6406 61.332 29.7031 61.293 29.7891C61.2617 29.8672 61.207 29.9297 61.1289 29.9766C61.0664 30.2266 60.9766 30.4648 60.8594 30.6914C60.7422 30.9102 60.6172 31.1289 60.4844 31.3477C60.3594 31.5664 60.2383 31.7891 60.1211 32.0156C60.0039 32.2344 59.9102 32.4648 59.8398 32.707C59.7383 32.7773 59.668 32.8672 59.6289 32.9766C59.5977 33.0859 59.582 33.1953 59.582 33.3047C59.6523 33.3438 59.7305 33.3672 59.8164 33.375C59.9102 33.375 60 33.375 60.0859 33.375C60.1719 33.375 60.2539 33.3828 60.332 33.3984C60.4102 33.4141 60.4805 33.4531 60.543 33.5156C60.6445 33.4844 60.7539 33.4648 60.8711 33.457C60.9961 33.4414 61.0977 33.4062 61.1758 33.3516C61.332 33.4062 61.5 33.4336 61.6797 33.4336C61.7734 33.4336 61.8633 33.4258 61.9492 33.4102C62.043 33.3945 62.1328 33.375 62.2188 33.3516C62.2891 33.3672 62.3438 33.3945 62.3828 33.4336C62.4219 33.4648 62.4805 33.4766 62.5586 33.4688C62.5977 33.4375 62.6211 33.4062 62.6289 33.375C62.6367 33.3359 62.6562 33.3008 62.6875 33.2695ZM74.1367 30.2227C74.1367 30.3008 74.1094 30.3516 74.0547 30.375C74 30.3984 73.9727 30.4453 73.9727 30.5156C73.9727 30.5391 73.9805 30.5586 73.9961 30.5742C74.0117 30.5898 74.0195 30.6133 74.0195 30.6445V30.6914C73.9258 31.1445 73.7891 31.5391 73.6094 31.875C73.4375 32.2109 73.2344 32.5195 73 32.8008C72.7656 33.082 72.5 33.3477 72.2031 33.5977C71.9141 33.8477 71.6016 34.1094 71.2656 34.3828C71.1719 34.4609 71.0742 34.5391 70.9727 34.6172C70.8789 34.6953 70.7891 34.7773 70.7031 34.8633L70.4453 35.1094C70.4375 35.1172 70.3945 35.1367 70.3164 35.168C70.2383 35.1914 70.1914 35.207 70.1758 35.2148C70.0664 35.2617 69.9492 35.3164 69.8242 35.3789C69.707 35.4414 69.6055 35.5195 69.5195 35.6133C69.3633 35.6133 69.2305 35.6367 69.1211 35.6836C69.0117 35.7305 68.8906 35.793 68.7578 35.8711C68.7188 35.8711 68.6836 35.8633 68.6523 35.8477C68.6289 35.832 68.6016 35.8164 68.5703 35.8008C68.5391 35.7852 68.5039 35.7773 68.4648 35.7773C68.4336 35.7695 68.3906 35.7734 68.3359 35.7891C68.2422 35.6328 68.1406 35.5 68.0312 35.3906C67.9219 35.2812 67.7734 35.2148 67.5859 35.1914C67.5625 35.0586 67.5078 34.957 67.4219 34.8867C67.3359 34.8086 67.25 34.7266 67.1641 34.6406C67.1484 34.5938 67.1367 34.5391 67.1289 34.4766C67.1211 34.4141 67.1055 34.3555 67.082 34.3008C67.0586 34.2461 67.0273 34.1992 66.9883 34.1602C66.9492 34.1211 66.8945 34.1016 66.8242 34.1016C66.8164 34.0547 66.8359 34.0312 66.8828 34.0312C66.9297 34.0312 66.9531 34.0117 66.9531 33.9727C66.9531 33.9258 66.9453 33.8789 66.9297 33.832C66.9141 33.7852 66.9062 33.7344 66.9062 33.6797C66.9062 33.6406 66.9102 33.6055 66.918 33.5742C66.9258 33.543 66.9375 33.5078 66.9531 33.4688C66.9297 33.2578 66.918 33.043 66.918 32.8242C66.918 32.4023 66.9453 31.9883 67 31.582C67.0625 31.168 67.0938 30.75 67.0938 30.3281C67.0938 30.1406 67.082 29.9531 67.0586 29.7656C67.043 29.5781 67.0078 29.3945 66.9531 29.2148C66.7734 29.2539 66.5938 29.3008 66.4141 29.3555C66.2344 29.4023 66.0664 29.4688 65.9102 29.5547C65.8242 29.5 65.7344 29.4688 65.6406 29.4609C65.5391 29.4453 65.4414 29.4219 65.3477 29.3906C65.293 29.2812 65.2656 29.168 65.2656 29.0508C65.2656 28.9414 65.2852 28.8359 65.3242 28.7344L65.4414 28.4297C65.6289 28.3906 65.8164 28.332 66.0039 28.2539C66.1836 28.1758 66.3672 28.1055 66.5547 28.043C66.6172 28.0273 66.6953 28.0078 66.7891 27.9844C66.8906 27.9609 66.9609 27.9414 67 27.9258C67.0547 27.9023 67.0898 27.8594 67.1055 27.7969C67.1289 27.7266 67.1602 27.668 67.1992 27.6211H67.3984C67.4453 27.6211 67.4961 27.625 67.5508 27.6328C67.6055 27.6328 67.6562 27.6445 67.7031 27.668C67.9844 27.5977 68.2656 27.5547 68.5469 27.5391C68.8281 27.5156 69.1172 27.4844 69.4141 27.4453C69.4453 27.4453 69.4922 27.4414 69.5547 27.4336L69.7539 27.3984C69.8242 27.3828 69.8867 27.3711 69.9414 27.3633C70.0039 27.3477 70.0469 27.3398 70.0703 27.3398C70.0938 27.3398 70.1055 27.3516 70.1055 27.375H70.3047C70.6406 27.375 70.9688 27.418 71.2891 27.5039L72.25 27.7617C72.3828 27.8711 72.5156 27.9766 72.6484 28.0781C72.7812 28.1797 72.9297 28.2695 73.0938 28.3477C73.1328 28.4727 73.1914 28.5742 73.2695 28.6523C73.3555 28.7227 73.4492 28.8008 73.5508 28.8867C73.5898 28.9883 73.6406 29.0977 73.7031 29.2148C73.7734 29.3242 73.8398 29.4375 73.9023 29.5547C73.9648 29.6719 74.0195 29.7891 74.0664 29.9062C74.1133 30.0156 74.1367 30.1211 74.1367 30.2227ZM73.0469 30.3984C72.9609 30.2188 72.8789 30.0312 72.8008 29.8359C72.7227 29.6406 72.625 29.4648 72.5078 29.3086C72.3672 29.2695 72.2227 29.2227 72.0742 29.168C71.9336 29.1055 71.8359 29 71.7812 28.8516C71.7656 28.8594 71.7383 28.8633 71.6992 28.8633C71.6289 28.8633 71.5664 28.8359 71.5117 28.7812C71.457 28.7266 71.3945 28.6914 71.3242 28.6758C71.2617 28.668 71.1758 28.6562 71.0664 28.6406C70.9648 28.625 70.8555 28.6133 70.7383 28.6055C70.6211 28.5977 70.5039 28.5898 70.3867 28.582C70.2773 28.5742 70.1914 28.5703 70.1289 28.5703C70.0664 28.5703 70 28.5742 69.9297 28.582C69.8672 28.582 69.8008 28.5859 69.7305 28.5938C69.668 28.5938 69.6289 28.6055 69.6133 28.6289C69.5977 28.6445 69.5664 28.6602 69.5195 28.6758C69.4805 28.6602 69.4375 28.6523 69.3906 28.6523H69.25C69.0859 28.6523 68.9219 28.6797 68.7578 28.7344C68.6016 28.7812 68.4453 28.8477 68.2891 28.9336V28.9805C68.2891 29.043 68.3164 29.0781 68.3711 29.0859C68.4258 29.0938 68.457 29.125 68.4648 29.1797C68.4258 29.1797 68.3945 29.1836 68.3711 29.1914C68.3477 29.1914 68.3359 29.2188 68.3359 29.2734C68.3359 29.3516 68.3438 29.4375 68.3594 29.5312C68.3828 29.625 68.3945 29.7188 68.3945 29.8125C68.3945 29.8828 68.3867 29.9648 68.3711 30.0586C68.3555 30.1523 68.3164 30.2266 68.2539 30.2812C68.332 30.3516 68.3711 30.4453 68.3711 30.5625C68.3711 30.6406 68.3555 30.7227 68.3242 30.8086C68.293 30.8945 68.2539 30.9688 68.207 31.0312C68.1914 31.3594 68.1602 31.6914 68.1133 32.0273C68.0664 32.3633 68.043 32.6953 68.043 33.0234C68.043 33.1875 68.0508 33.3477 68.0664 33.5039C68.0898 33.6602 68.125 33.8164 68.1719 33.9727C68.2578 34.0586 68.3477 34.125 68.4414 34.1719C68.543 34.2188 68.6484 34.2656 68.7578 34.3125V34.3477C68.7578 34.3711 68.7422 34.3945 68.7109 34.418C68.6797 34.4414 68.6641 34.4727 68.6641 34.5117C68.6641 34.543 68.6797 34.5586 68.7109 34.5586C69.0391 34.4648 69.3477 34.3516 69.6367 34.2188C69.9258 34.0859 70.1953 33.9062 70.4453 33.6797C70.4688 33.6562 70.4922 33.6445 70.5156 33.6445C70.5312 33.6445 70.5508 33.6484 70.5742 33.6562C70.6055 33.6641 70.6328 33.6719 70.6562 33.6797L70.6445 33.6328C70.6445 33.5859 70.6562 33.543 70.6797 33.5039C70.7109 33.4648 70.7461 33.4297 70.7852 33.3984L70.9023 33.293C70.9414 33.2539 70.9727 33.2148 70.9961 33.1758C71.0586 33.1602 71.1016 33.1289 71.125 33.082C71.1562 33.0352 71.207 33.0117 71.2773 33.0117C71.293 32.9258 71.3359 32.8633 71.4062 32.8242C71.4766 32.7773 71.5195 32.7109 71.5352 32.625C71.6914 32.5391 71.8281 32.4336 71.9453 32.3086C72.0703 32.1836 72.1836 32.0508 72.2852 31.9102C72.3945 31.7695 72.4961 31.625 72.5898 31.4766C72.6836 31.3203 72.7812 31.1719 72.8828 31.0312V30.9844C72.8828 30.8594 72.9023 30.7578 72.9414 30.6797C72.9883 30.6016 73.0234 30.5078 73.0469 30.3984ZM77.1836 34.3945C77.1445 34.457 77.0977 34.5156 77.043 34.5703C76.9883 34.6172 76.9375 34.668 76.8906 34.7227C76.8359 34.7461 76.7734 34.7578 76.7031 34.7578C76.6406 34.7578 76.5781 34.7578 76.5156 34.7578C76.4609 34.75 76.4062 34.75 76.3516 34.7578C76.3047 34.7578 76.2656 34.7734 76.2344 34.8047C76.1719 34.7891 76.125 34.7617 76.0938 34.7227C76.0625 34.6758 76.0078 34.6484 75.9297 34.6406C75.8984 34.6328 75.8672 34.6328 75.8359 34.6406C75.7188 34.5078 75.6094 34.3672 75.5078 34.2188C75.4141 34.0703 75.3242 33.9297 75.2383 33.7969C75.2305 33.5078 75.207 33.2148 75.168 32.918C75.1602 32.8477 75.1484 32.7773 75.1328 32.707C75.1172 32.6367 75.1055 32.5703 75.0977 32.5078C75.0977 32.4297 75.1016 32.3555 75.1094 32.2852C75.125 32.207 75.1367 32.1367 75.1445 32.0742C75.1758 31.8477 75.2109 31.625 75.25 31.4062C75.2891 31.1875 75.3242 30.9648 75.3555 30.7383C75.3867 30.5352 75.4023 30.3242 75.4023 30.1055C75.4023 29.8789 75.3672 29.668 75.2969 29.4727L75.2852 29.4141C75.3008 29.3516 75.3164 29.3008 75.332 29.2617C75.3555 29.2148 75.3711 29.1641 75.3789 29.1094C75.3945 29.0234 75.375 28.9609 75.3203 28.9219C75.3438 28.8594 75.3828 28.8203 75.4375 28.8047C75.4922 28.7812 75.5234 28.7344 75.5312 28.6641C75.5391 28.6328 75.5391 28.6016 75.5312 28.5703C75.5938 28.5469 75.6562 28.5273 75.7188 28.5117C75.7891 28.4883 75.8555 28.4844 75.918 28.5C76.0195 28.5156 76.1094 28.5508 76.1875 28.6055C76.2656 28.6523 76.3398 28.707 76.4102 28.7695C76.5352 29.1445 76.5859 29.543 76.5625 29.9648C76.5391 30.3789 76.5 30.7969 76.4453 31.2188C76.3906 31.6406 76.3555 32.0547 76.3398 32.4609C76.3242 32.8594 76.3867 33.2305 76.5273 33.5742L76.5508 33.5859C76.5898 33.5938 76.6211 33.582 76.6445 33.5508C76.668 33.5117 76.6992 33.4961 76.7383 33.5039C76.7695 33.5195 76.7891 33.5273 76.7969 33.5273C76.8281 33.6836 76.8789 33.832 76.9492 33.9727C77.0195 34.1133 77.0977 34.2539 77.1836 34.3945ZM85.7148 28.5469V28.5938C85.6602 28.6094 85.6328 28.6484 85.6328 28.7109C85.5469 28.75 85.457 28.7812 85.3633 28.8047C85.2695 28.8203 85.1797 28.8477 85.0938 28.8867C85.0078 28.8789 84.918 28.875 84.8242 28.875C84.7383 28.8672 84.6523 28.8633 84.5664 28.8633C84.332 28.8633 84.0977 28.8711 83.8633 28.8867C83.6289 28.9023 83.3945 28.9023 83.1602 28.8867C83.0508 28.9492 82.9297 29 82.7969 29.0391C82.6719 29.0703 82.5508 29.0859 82.4336 29.0859C82.3398 29.0859 82.2578 29.0742 82.1875 29.0508C82 29.1445 81.793 29.2227 81.5664 29.2852C81.3477 29.3477 81.125 29.4102 80.8984 29.4727C80.6719 29.5273 80.4531 29.5938 80.2422 29.6719C80.0391 29.7422 79.8594 29.8438 79.7031 29.9766C79.6875 30.0859 79.6758 30.1953 79.668 30.3047C79.6602 30.4062 79.6562 30.5078 79.6562 30.6094C79.6562 30.7188 79.6602 30.8203 79.668 30.9141C79.6836 31.0078 79.7109 31.1016 79.75 31.1953C79.7891 31.2109 79.832 31.2227 79.8789 31.2305C79.9336 31.2383 79.9805 31.2422 80.0195 31.2422C80.0586 31.2422 80.0977 31.2383 80.1367 31.2305C80.1758 31.2148 80.2031 31.1875 80.2188 31.1484C80.3359 31.1328 80.4531 31.1289 80.5703 31.1367C80.6875 31.1367 80.8047 31.1367 80.9219 31.1367C81.0391 31.1367 81.1523 31.1328 81.2617 31.125C81.3789 31.1172 81.4922 31.0977 81.6016 31.0664C81.7266 31.0352 81.8477 31.0156 81.9648 31.0078C82.0898 31 82.2109 30.9922 82.3281 30.9844C82.4453 30.9766 82.5664 30.9648 82.6914 30.9492C82.8164 30.9258 82.9453 30.8828 83.0781 30.8203C83.1797 30.8594 83.2812 30.8789 83.3828 30.8789C83.4922 30.8789 83.5977 30.8867 83.6992 30.9023C83.7539 30.9414 83.7969 30.9844 83.8281 31.0312C83.8672 31.0781 83.8867 31.1328 83.8867 31.1953C83.8867 31.3047 83.8477 31.4141 83.7695 31.5234C83.6914 31.6328 83.6289 31.7344 83.582 31.8281H83.4531C83.2656 31.8281 83.082 31.8555 82.9023 31.9102C82.7305 31.957 82.5547 32.0156 82.375 32.0859C82.2031 32.1484 82.0273 32.207 81.8477 32.2617C81.6758 32.3086 81.4961 32.332 81.3086 32.332C81.2773 32.332 81.2578 32.3516 81.25 32.3906C81.25 32.4219 81.2422 32.4453 81.2266 32.4609C81.1875 32.4531 81.1289 32.4492 81.0508 32.4492C80.8711 32.4492 80.6992 32.4688 80.5352 32.5078C80.3711 32.5469 80.2031 32.5664 80.0312 32.5664C79.9844 32.5664 79.9375 32.5664 79.8906 32.5664C79.8438 32.5586 79.7969 32.5508 79.75 32.543C79.7109 32.6055 79.6602 32.6484 79.5977 32.6719C79.5352 32.6875 79.4766 32.7188 79.4219 32.7656C79.3984 32.8359 79.3828 32.9219 79.375 33.0234C79.375 33.125 79.3711 33.2305 79.3633 33.3398C79.3633 33.4414 79.3555 33.5391 79.3398 33.6328C79.3242 33.7266 79.293 33.8008 79.2461 33.8555C79.2539 33.8945 79.2852 33.9102 79.3398 33.9023C79.3945 33.8867 79.4219 33.9102 79.4219 33.9727C79.4219 34.043 79.4141 34.1172 79.3984 34.1953C79.3828 34.2734 79.375 34.3516 79.375 34.4297C79.375 34.5781 79.3906 34.7422 79.4219 34.9219C79.4609 35.0938 79.5156 35.2539 79.5859 35.4023C79.6641 35.5508 79.7656 35.6758 79.8906 35.7773C80.0156 35.8711 80.1719 35.918 80.3594 35.918C80.4844 35.918 80.6016 35.8945 80.7109 35.8477C80.8203 35.8008 80.9102 35.7227 80.9805 35.6133L81.0391 35.6016C81.0703 35.6016 81.0977 35.6055 81.1211 35.6133C81.1523 35.6211 81.1836 35.625 81.2148 35.625C81.2617 35.625 81.3203 35.5977 81.3906 35.543C81.4688 35.4805 81.5508 35.4102 81.6367 35.332C81.7305 35.2539 81.8242 35.1797 81.918 35.1094C82.0117 35.0312 82.1016 34.9766 82.1875 34.9453C82.2422 34.8359 82.293 34.7266 82.3398 34.6172C82.3945 34.5078 82.4727 34.4219 82.5742 34.3594V34.0195C82.6523 33.9336 82.7344 33.8555 82.8203 33.7852C82.9141 33.7148 82.9844 33.625 83.0312 33.5156C83.0703 33.5312 83.1055 33.543 83.1367 33.5508C83.1758 33.5586 83.2148 33.5625 83.2539 33.5625C83.293 33.5625 83.332 33.5586 83.3711 33.5508C83.418 33.543 83.4609 33.5312 83.5 33.5156C83.5625 33.6016 83.6094 33.6992 83.6406 33.8086C83.6797 33.9102 83.7266 34.0078 83.7812 34.1016C83.7109 34.2422 83.6289 34.4102 83.5352 34.6055C83.4414 34.8008 83.3398 34.9961 83.2305 35.1914C83.1211 35.3867 83.0039 35.5742 82.8789 35.7539C82.7617 35.9258 82.6445 36.0586 82.5273 36.1523C82.5039 36.1758 82.4531 36.2031 82.375 36.2344C82.2891 36.2969 82.2109 36.3555 82.1406 36.4102C82.0703 36.4727 82.0039 36.543 81.9414 36.6211C81.7148 36.6914 81.4961 36.7852 81.2852 36.9023C81.082 37.0195 80.8789 37.1328 80.6758 37.2422C80.582 37.2188 80.4805 37.207 80.3711 37.207C80.2773 37.207 80.1836 37.2109 80.0898 37.2188C79.9961 37.2344 79.8945 37.2422 79.7852 37.2422C79.7539 37.2031 79.707 37.1758 79.6445 37.1602C79.5898 37.1523 79.5703 37.1133 79.5859 37.043C79.3203 37.0273 79.1055 36.9531 78.9414 36.8203C78.7773 36.6953 78.6367 36.5391 78.5195 36.3516C78.4102 36.1641 78.3203 35.9609 78.25 35.7422C78.1797 35.5234 78.1055 35.3125 78.0273 35.1094V35.0742C78.0273 35.0352 78.043 35.0117 78.0742 35.0039C78.1055 34.9961 78.1211 34.9727 78.1211 34.9336C78.1211 34.918 78.1172 34.9062 78.1094 34.8984C78.0859 34.8125 78.0664 34.7383 78.0508 34.6758C78.0352 34.6133 78.0273 34.5391 78.0273 34.4531C78.0273 34.3281 78.0352 34.207 78.0508 34.0898C78.0664 33.9648 78.0742 33.8398 78.0742 33.7148C78.0742 33.5898 78.0586 33.4805 78.0273 33.3867C78.0586 33.3477 78.0859 33.2969 78.1094 33.2344C78.125 33.1641 78.1367 33.0938 78.1445 33.0234C78.1523 32.9531 78.1562 32.8828 78.1562 32.8125C78.1641 32.7422 78.1758 32.6797 78.1914 32.625C78.1602 32.5391 78.1328 32.4648 78.1094 32.4023C78.0859 32.332 78.0742 32.25 78.0742 32.1562V32.0742C78.1523 31.9414 78.2188 31.8047 78.2734 31.6641C78.3281 31.5234 78.3867 31.3789 78.4492 31.2305V31.1953C78.4492 30.9688 78.4414 30.7422 78.4258 30.5156C78.4102 30.2891 78.4023 30.0625 78.4023 29.8359V29.6133C78.4023 29.5352 78.4062 29.4609 78.4141 29.3906C78.4766 29.3594 78.5234 29.3164 78.5547 29.2617C78.5859 29.207 78.6328 29.1641 78.6953 29.1328H79.082L79.1523 29.0156C79.1758 28.9766 79.1914 28.9336 79.1992 28.8867C79.2852 28.8633 79.3672 28.832 79.4453 28.793C79.5312 28.7461 79.6094 28.6992 79.6797 28.6523C79.7891 28.5898 79.8867 28.5352 79.9727 28.4883C80.0664 28.4336 80.1562 28.3906 80.2422 28.3594C80.3359 28.3203 80.4336 28.2891 80.5352 28.2656C80.6367 28.2422 80.7539 28.2227 80.8867 28.207C80.9492 28.207 80.9883 28.1953 81.0039 28.1719C81.0273 28.1484 81.0586 28.1211 81.0977 28.0898C81.1914 28.1055 81.2852 28.1211 81.3789 28.1367C81.4727 28.1445 81.5664 28.1484 81.6602 28.1484C81.8477 28.1484 82.0234 28.1133 82.1875 28.043C82.4219 28.043 82.6523 28.0391 82.8789 28.0312C83.1133 28.0234 83.3477 28.0195 83.582 28.0195C83.7852 28.0195 83.9883 28.0273 84.1914 28.043C84.3945 28.0586 84.5938 28.0859 84.7891 28.125C84.8594 28.1016 84.9375 28.0898 85.0234 28.0898C85.1172 28.0898 85.2109 28.1016 85.3047 28.125C85.4062 28.1406 85.5039 28.1406 85.5977 28.125C85.6055 28.2109 85.625 28.2852 85.6562 28.3477C85.6953 28.4023 85.7148 28.4688 85.7148 28.5469ZM92.8633 28.3008C92.8477 28.3945 92.8242 28.4766 92.793 28.5469C92.7695 28.6094 92.7656 28.6953 92.7812 28.8047C92.7031 28.8125 92.6406 28.8398 92.5938 28.8867C92.5547 28.9258 92.5195 28.9727 92.4883 29.0273C92.4648 29.082 92.4375 29.1406 92.4062 29.2031C92.3828 29.2578 92.3516 29.3086 92.3125 29.3555C92.375 29.6367 92.4102 29.9219 92.418 30.2109C92.4258 30.5 92.4453 30.7852 92.4766 31.0664C92.5156 31.4258 92.5742 31.7812 92.6523 32.1328C92.7383 32.4766 92.7812 32.8281 92.7812 33.1875C92.7812 33.2969 92.7773 33.3984 92.7695 33.4922C92.7695 33.5859 92.7695 33.6836 92.7695 33.7852C92.7695 33.8477 92.7695 33.9141 92.7695 33.9844C92.7773 34.0469 92.7812 34.1094 92.7812 34.1719C92.7812 34.3984 92.75 34.625 92.6875 34.8516C92.6328 35.0781 92.5898 35.3047 92.5586 35.5312C92.4648 35.6172 92.3828 35.7109 92.3125 35.8125C92.25 35.9141 92.1836 36.0078 92.1133 36.0938C92.043 36.1797 91.9609 36.2539 91.8672 36.3164C91.7734 36.3867 91.6562 36.4336 91.5156 36.457C91.4922 36.5352 91.4453 36.5938 91.375 36.6328C91.3125 36.6719 91.2578 36.7266 91.2109 36.7969H91.1875C90.9922 36.7969 90.8242 36.7695 90.6836 36.7148C90.543 36.6602 90.4102 36.5977 90.2852 36.5273C90.168 36.457 90.0469 36.3828 89.9219 36.3047C89.7969 36.2266 89.6523 36.1641 89.4883 36.1172C89.2695 35.9375 89.0703 35.7422 88.8906 35.5312C88.7109 35.3125 88.5078 35.1172 88.2812 34.9453C88.2266 34.7891 88.1523 34.6602 88.0586 34.5586C87.9727 34.457 87.8867 34.3398 87.8008 34.207C87.7617 34.1523 87.7305 34.1016 87.707 34.0547C87.6914 34.0078 87.668 33.9531 87.6367 33.8906C87.6133 33.8281 87.5742 33.7852 87.5195 33.7617C87.4727 33.7383 87.4297 33.7109 87.3906 33.6797C87.3281 33.4375 87.2383 33.2148 87.1211 33.0117C87.0039 32.8086 86.8672 32.6133 86.7109 32.4258C86.6641 32.5117 86.625 32.6055 86.5938 32.707C86.5703 32.8008 86.5469 32.8984 86.5234 33C86.5 33.0938 86.4688 33.1914 86.4297 33.293C86.3984 33.3867 86.3555 33.4727 86.3008 33.5508V33.5859C86.3008 33.625 86.3164 33.6484 86.3477 33.6562C86.3789 33.6641 86.3945 33.6875 86.3945 33.7266C86.3945 33.7344 86.3906 33.7422 86.3828 33.75C86.3828 33.7578 86.3828 33.7656 86.3828 33.7734C86.3438 33.8047 86.3125 33.8438 86.2891 33.8906C86.2734 33.9375 86.2344 33.9648 86.1719 33.9727C86.1797 34.0117 86.1836 34.0508 86.1836 34.0898V34.1953C86.1836 34.4219 86.1562 34.6484 86.1016 34.875C86.0547 35.1016 86.0312 35.332 86.0312 35.5664V35.7188C86.0312 35.7734 86.0352 35.8242 86.043 35.8711C86.0586 35.918 86.082 35.9648 86.1133 36.0117C86.1445 36.0586 86.1602 36.1016 86.1602 36.1406C86.1602 36.1953 86.1367 36.2461 86.0898 36.293C86.1445 36.332 86.207 36.375 86.2773 36.4219C86.3477 36.4688 86.4102 36.5195 86.4648 36.5742C86.5273 36.6367 86.5781 36.6992 86.6172 36.7617C86.6562 36.832 86.6758 36.9062 86.6758 36.9844C86.6758 37.1172 86.6328 37.2109 86.5469 37.2656C86.4609 37.3203 86.3555 37.3633 86.2305 37.3945C86.1133 37.4258 85.9883 37.4531 85.8555 37.4766C85.7305 37.5078 85.625 37.5586 85.5391 37.6289H85.5039C85.4102 37.6289 85.3398 37.6016 85.293 37.5469C85.2461 37.4922 85.1758 37.4648 85.082 37.4648C84.9336 37.2227 84.832 36.9492 84.7773 36.6445C84.7227 36.3477 84.6953 36.0625 84.6953 35.7891C84.6953 35.4531 84.7266 35.1172 84.7891 34.7812C84.8438 34.4453 84.9141 34.1133 85 33.7852C85.0781 33.457 85.1641 33.1328 85.2578 32.8125C85.3594 32.4844 85.4531 32.1562 85.5391 31.8281L85.5508 31.793C85.5508 31.7539 85.5391 31.7266 85.5156 31.7109C85.5 31.6953 85.4922 31.6719 85.4922 31.6406C85.4922 31.625 85.4961 31.6172 85.5039 31.6172C85.5273 31.5391 85.5508 31.4648 85.5742 31.3945C85.6055 31.3242 85.6289 31.2461 85.6445 31.1602C85.6914 30.9414 85.7227 30.7188 85.7383 30.4922C85.7617 30.2578 85.7734 30.0273 85.7734 29.8008C85.7812 29.5742 85.7891 29.3477 85.7969 29.1211C85.8125 28.8867 85.8398 28.6562 85.8789 28.4297C85.9414 28.3672 86 28.3008 86.0547 28.2305C86.1094 28.1602 86.1797 28.0977 86.2656 28.043C86.4219 28.0508 86.5781 28.0742 86.7344 28.1133C86.8906 28.1523 87.0391 28.2148 87.1797 28.3008C87.2734 28.6367 87.3359 28.9727 87.3672 29.3086C87.4062 29.6445 87.4688 29.9805 87.5547 30.3164V30.3516C87.5547 30.3906 87.5742 30.4102 87.6133 30.4102C87.6602 30.4023 87.6953 30.4141 87.7188 30.4453C87.7031 30.4688 87.6914 30.4961 87.6836 30.5273C87.6836 30.5586 87.6836 30.5898 87.6836 30.6211V30.8203C87.6992 30.8828 87.7188 30.9492 87.7422 31.0195C87.7656 31.0898 87.8164 31.1328 87.8945 31.1484C87.9336 31.3984 87.9922 31.6289 88.0703 31.8398C88.1484 32.0508 88.2383 32.2539 88.3398 32.4492C88.4414 32.6445 88.5508 32.8398 88.668 33.0352C88.7852 33.2227 88.9062 33.4219 89.0312 33.6328C89.2266 33.7812 89.3945 33.9531 89.5352 34.1484C89.6758 34.3359 89.8164 34.5195 89.957 34.6992C90.1055 34.8711 90.2695 35.0234 90.4492 35.1562C90.6367 35.2891 90.8789 35.3711 91.1758 35.4023C91.2148 35.3711 91.2422 35.3281 91.2578 35.2734L91.3164 35.1094C91.3398 35.0547 91.3633 35.0078 91.3867 34.9688C91.418 34.9219 91.4609 34.8867 91.5156 34.8633C91.5312 34.6445 91.5469 34.4219 91.5625 34.1953C91.5859 33.9688 91.6367 33.7539 91.7148 33.5508C91.6758 33.4805 91.6562 33.3945 91.6562 33.293C91.6562 33.2148 91.6602 33.1406 91.668 33.0703C91.6836 33 91.6914 32.9297 91.6914 32.8594C91.6914 32.7109 91.6602 32.5898 91.5977 32.4961C91.5977 32.4414 91.6016 32.3867 91.6094 32.332C91.6172 32.2695 91.6406 32.2109 91.6797 32.1562C91.6172 32 91.5664 31.8359 91.5273 31.6641C91.4961 31.4922 91.4805 31.3164 91.4805 31.1367C91.4805 31.0352 91.4922 30.9297 91.5156 30.8203C91.4688 30.7031 91.4375 30.5664 91.4219 30.4102L91.375 29.9297C91.3594 29.7656 91.3359 29.6133 91.3047 29.4727C91.2734 29.332 91.2148 29.2188 91.1289 29.1328C91.1758 29.0625 91.1992 28.9805 91.1992 28.8867C91.1992 28.7305 91.1758 28.582 91.1289 28.4414C91.082 28.3008 91.0586 28.1523 91.0586 27.9961C91.0586 27.8867 91.082 27.7773 91.1289 27.668C91.3008 27.6758 91.4688 27.6953 91.6328 27.7266C91.8047 27.75 91.9727 27.7617 92.1367 27.7617C92.1836 27.8242 92.2383 27.875 92.3008 27.9141C92.3633 27.9531 92.4297 27.9922 92.5 28.0312C92.5703 28.0625 92.6367 28.0977 92.6992 28.1367C92.7695 28.1758 92.8242 28.2305 92.8633 28.3008ZM104.125 28.4648C104.094 28.5664 104.043 28.6602 103.973 28.7461L103.773 28.9922C103.711 29.0703 103.656 29.1562 103.609 29.25C103.57 29.3359 103.559 29.4375 103.574 29.5547C103.559 29.5547 103.539 29.5547 103.516 29.5547C103.492 29.5469 103.473 29.543 103.457 29.543C103.332 29.543 103.234 29.5742 103.164 29.6367C103.102 29.6914 103.016 29.7383 102.906 29.7773C102.891 29.7305 102.871 29.6875 102.848 29.6484C102.824 29.6016 102.789 29.5703 102.742 29.5547C102.555 29.5938 102.367 29.625 102.18 29.6484C101.992 29.6641 101.805 29.6875 101.617 29.7188C101.531 29.7344 101.445 29.7578 101.359 29.7891C101.273 29.8125 101.184 29.8359 101.09 29.8594C101.043 29.875 100.992 29.8828 100.938 29.8828C100.883 29.875 100.828 29.875 100.773 29.8828C100.586 29.8906 100.383 29.9062 100.164 29.9297C99.9453 29.9453 99.75 30.0039 99.5781 30.1055C99.5 30.0898 99.418 30.0781 99.332 30.0703C99.2461 30.0625 99.1602 30.0586 99.0742 30.0586C98.8867 30.0586 98.6797 30.0781 98.4531 30.1172C98.2344 30.1484 98.0391 30.2148 97.8672 30.3164C97.8281 30.3008 97.7852 30.2891 97.7383 30.2812C97.6992 30.2734 97.6523 30.2695 97.5977 30.2695C97.582 30.2695 97.5703 30.2734 97.5625 30.2812C97.5547 30.2812 97.543 30.2812 97.5273 30.2812C97.5195 30.3516 97.5273 30.4219 97.5508 30.4922C97.582 30.5547 97.6328 30.6055 97.7031 30.6445C97.6719 30.7305 97.6562 30.8242 97.6562 30.9258C97.6562 31.0586 97.6641 31.1914 97.6797 31.3242C97.7031 31.457 97.7148 31.5898 97.7148 31.7227C97.7148 31.8711 97.6953 31.9883 97.6562 32.0742C97.7344 32.3086 97.7734 32.5586 97.7734 32.8242C97.7734 32.918 97.7656 33.0117 97.75 33.1055C97.7422 33.1914 97.7383 33.2852 97.7383 33.3867C97.7383 33.4727 97.7695 33.543 97.832 33.5977C97.8945 33.6445 97.9258 33.7109 97.9258 33.7969C97.9258 33.8281 97.918 33.8594 97.9023 33.8906C98.0117 33.8672 98.1172 33.8359 98.2188 33.7969C98.3203 33.75 98.4258 33.7266 98.5352 33.7266C98.5977 33.7266 98.6562 33.7383 98.7109 33.7617C98.7734 33.7852 98.8281 33.8164 98.875 33.8555C98.8672 33.8945 98.8594 33.9375 98.8516 33.9844C98.8516 34.0312 98.8516 34.0781 98.8516 34.125C98.8516 34.2109 98.8516 34.293 98.8516 34.3711C98.8594 34.4414 98.8672 34.5195 98.875 34.6055C98.8125 34.7148 98.7383 34.8125 98.6523 34.8984C98.5742 34.9844 98.5195 35.0938 98.4883 35.2266C98.3711 35.2266 98.2656 35.2539 98.1719 35.3086C98.0859 35.3555 98.0039 35.4102 97.9258 35.4727C97.8477 35.5273 97.7695 35.582 97.6914 35.6367C97.6133 35.6836 97.5273 35.707 97.4336 35.707C97.3164 35.707 97.2344 35.6914 97.1875 35.6602C97.1406 35.6211 97.1055 35.582 97.082 35.543C97.0586 35.5039 97.0352 35.4688 97.0117 35.4375C96.9961 35.4062 96.957 35.3945 96.8945 35.4023C96.8789 35.3008 96.8477 35.207 96.8008 35.1211C96.7539 35.0273 96.7031 34.9375 96.6484 34.8516C96.6016 34.7656 96.5508 34.6797 96.4961 34.5938C96.4492 34.5 96.4141 34.4062 96.3906 34.3125C96.3438 34.1094 96.3242 33.8984 96.332 33.6797C96.3398 33.4609 96.3047 33.25 96.2266 33.0469C96.2422 32.9375 96.2539 32.8281 96.2617 32.7188C96.2695 32.6016 96.2734 32.4883 96.2734 32.3789C96.2734 32.1602 96.2656 31.9453 96.25 31.7344C96.2422 31.5156 96.2344 31.293 96.2266 31.0664C96.1719 30.9961 96.1367 30.918 96.1211 30.832C96.1133 30.7383 96.1055 30.6484 96.0977 30.5625C96.0742 30.5391 96.0469 30.5156 96.0156 30.4922C95.9922 30.4688 95.9766 30.4375 95.9688 30.3984C95.9062 30.3828 95.8594 30.375 95.8281 30.375C95.7188 30.375 95.625 30.4023 95.5469 30.457C95.4766 30.5039 95.4102 30.5273 95.3477 30.5273C95.2852 30.5273 95.2266 30.5195 95.1719 30.5039C95.1172 30.4883 95.0625 30.4805 95.0078 30.4805C94.9609 30.4805 94.9336 30.4922 94.9258 30.5156C94.9258 30.5312 94.9102 30.5469 94.8789 30.5625C94.8555 30.5781 94.8008 30.5938 94.7148 30.6094C94.6289 30.625 94.5312 30.6406 94.4219 30.6562C94.3203 30.6641 94.2188 30.6719 94.1172 30.6797C94.0234 30.6875 93.9609 30.6914 93.9297 30.6914C93.8047 30.6914 93.7109 30.668 93.6484 30.6211C93.5781 30.5664 93.4961 30.5078 93.4023 30.4453C93.418 30.3984 93.4258 30.3672 93.4258 30.3516C93.4258 30.2734 93.4023 30.2109 93.3555 30.1641C93.3086 30.1094 93.2852 30.0625 93.2852 30.0234C93.2852 29.9375 93.3203 29.8711 93.3906 29.8242C93.4531 29.7773 93.4883 29.7031 93.4961 29.6016C93.6758 29.5234 93.8594 29.4648 94.0469 29.4258C94.2344 29.3867 94.4258 29.3555 94.6211 29.332C94.8164 29.3086 95.0078 29.2812 95.1953 29.25C95.3906 29.2188 95.582 29.168 95.7695 29.0977C95.8242 29.1055 95.875 29.1133 95.9219 29.1211C95.9766 29.1211 96.0312 29.1211 96.0859 29.1211C96.3203 29.1211 96.5508 29.0977 96.7773 29.0508C97.0117 28.9961 97.25 28.9688 97.4922 28.9688C97.5547 28.9688 97.6172 28.9727 97.6797 28.9805C97.7422 28.9883 97.8047 29 97.8672 29.0156C98.1797 28.9688 98.4883 28.918 98.793 28.8633C99.1055 28.8086 99.4258 28.7617 99.7539 28.7227C99.9102 28.707 100.062 28.6953 100.211 28.6875C100.367 28.6719 100.523 28.6523 100.68 28.6289C100.734 28.6211 100.773 28.6094 100.797 28.5938C100.828 28.5703 100.844 28.5273 100.844 28.4648C100.914 28.4961 100.992 28.5117 101.078 28.5117C101.211 28.5117 101.34 28.4883 101.465 28.4414C101.59 28.3945 101.719 28.3711 101.852 28.3711C101.883 28.3711 101.91 28.375 101.934 28.3828C101.957 28.3828 101.98 28.3828 102.004 28.3828C102.059 28.3828 102.086 28.3594 102.086 28.3125C102.094 28.2578 102.133 28.2227 102.203 28.207C102.258 28.1914 102.336 28.1797 102.438 28.1719C102.539 28.1641 102.645 28.1562 102.754 28.1484C102.871 28.1328 102.977 28.1172 103.07 28.1016C103.172 28.0781 103.246 28.0469 103.293 28.0078L103.375 27.8789C103.516 27.8867 103.617 27.9492 103.68 28.0664C103.75 28.1758 103.789 28.2969 103.797 28.4297C103.828 28.4609 103.871 28.4766 103.926 28.4766C103.988 28.4688 104.043 28.4648 104.09 28.4648H104.125Z" fill="#FFFEFE"/>
</svg>
