<svg width="119" height="51" viewBox="0 0 119 51" fill="none" xmlns="http://www.w3.org/2000/svg">
<path fill-rule="evenodd" clip-rule="evenodd" d="M9.96996 1.07009C10.0057 1.12367 9.90538 1.29519 9.74703 1.4513C9.49601 1.69865 9.39199 1.72454 8.93605 1.65335C8.64841 1.60843 8.40824 1.60334 8.40219 1.64212C8.39627 1.68093 8.32413 1.70208 8.242 1.68925C8.15974 1.67641 7.97619 1.72037 7.83395 1.78704C7.59173 1.90033 7.57393 1.89726 7.55431 1.73933C7.52695 1.5194 7.0375 1.5384 6.56692 1.77772C6.37903 1.87333 6.13576 1.9375 6.02645 1.92043C5.91713 1.90336 5.73978 1.9406 5.63217 2.00315C5.38082 2.14936 5.04605 2.09795 5.07423 1.91747C5.08665 1.83794 4.79748 1.92264 4.40068 2.11481C3.68774 2.4601 3.51424 2.62269 3.89878 2.58492C4.04979 2.57002 4.10691 2.62405 4.08548 2.76134C4.06848 2.87017 4.12987 2.97094 4.2219 2.98531C4.35199 3.00562 4.34807 3.03069 4.2043 3.09799C4.1026 3.14559 4.00949 3.24793 3.9974 3.32539C3.98029 3.43498 4.01655 3.44699 4.16032 3.37969C4.42058 3.25787 4.85149 3.34391 4.82519 3.51237C4.81309 3.58984 4.86398 3.66271 4.9383 3.67432C5.01248 3.6859 5.04756 3.6277 5.01607 3.54487C4.98473 3.46206 5.0612 3.28152 5.18613 3.14367C5.47498 2.82508 6.05438 2.79801 6.31632 3.09083C6.49484 3.29031 6.511 3.29293 6.77683 3.16659C6.92849 3.09446 7.02153 2.98895 6.98355 2.93213C6.86312 2.75115 7.22367 2.86978 7.56094 3.12194C7.73988 3.25569 7.94043 3.37358 8.0068 3.38394C8.07317 3.39431 8.1406 3.31827 8.15673 3.21498C8.18171 3.05497 8.27906 3.0417 8.8135 3.12515C9.15859 3.17904 9.43592 3.25524 9.42981 3.2944C9.42368 3.33365 9.54204 3.44187 9.6929 3.53498C9.89286 3.65845 9.94326 3.66863 9.87941 3.57266C9.81219 3.47165 9.93218 3.48077 10.394 3.61146C10.7253 3.70522 11.327 3.82497 11.7312 3.87749C12.172 3.93479 12.4599 4.01274 12.4506 4.07237C12.4421 4.12692 12.5568 4.19062 12.7057 4.21388C12.8546 4.23713 13.0091 4.30521 13.049 4.36521C13.0891 4.42524 13.1839 4.45919 13.2599 4.44057C13.336 4.42204 13.3908 4.45408 13.3818 4.51182C13.3721 4.5737 13.4418 4.5968 13.5516 4.56805C13.8655 4.48587 14.4189 4.61683 14.6482 4.82761C14.7773 4.94625 14.9662 5.01798 15.112 5.00361C15.292 4.98584 15.3303 5.01423 15.2546 5.10918C15.1759 5.2079 15.2308 5.2412 15.4839 5.248C15.6937 5.25364 15.9216 5.3481 16.1005 5.50359C16.2568 5.63918 16.5043 5.76893 16.6506 5.79177C16.7968 5.8146 17.2452 5.95262 17.6469 6.09846C18.1543 6.28264 18.3705 6.41191 18.3548 6.52162C18.3381 6.63973 18.3659 6.65359 18.4653 6.57638C18.6229 6.45402 19.1664 6.65623 19.4124 6.92867C19.4982 7.02383 19.6581 7.09286 19.7678 7.08209C19.8773 7.07129 20.1638 7.24493 20.4044 7.46795C20.6823 7.72576 20.9358 7.87163 21.1 7.86841C21.2421 7.86569 21.4829 7.97178 21.6354 8.10409C21.7878 8.23649 21.9968 8.358 22.0997 8.37407C22.3353 8.41086 23.8636 9.3742 24.2617 9.73687C24.4259 9.8864 24.6143 10.0172 24.6805 10.0275C24.7468 10.0379 24.9012 10.1392 25.0239 10.2529C25.1464 10.3665 25.461 10.6155 25.723 10.8063C25.9849 10.9971 26.1871 11.2314 26.1722 11.3269C26.1549 11.4376 26.219 11.4933 26.3492 11.4806C26.6158 11.4544 28.12 12.8206 28.3124 13.2639C28.3952 13.4546 28.5602 13.6152 28.6949 13.6363C28.9937 13.6829 29.3113 14.0913 29.2674 14.3724C29.2491 14.4899 29.2976 14.5961 29.3754 14.6082C29.6366 14.649 30.2457 15.3664 30.2869 15.6818C30.3093 15.8535 30.4169 16.0326 30.526 16.0797C30.6698 16.1418 30.687 16.2387 30.5882 16.4327C30.4763 16.653 30.4927 16.696 30.6816 16.6775C30.8298 16.663 30.9026 16.7065 30.8878 16.8012C30.8752 16.8817 30.9478 16.995 31.0491 17.0531C31.1503 17.1112 31.2417 17.2467 31.2521 17.3541C31.2624 17.4616 31.3406 17.6176 31.4258 17.7007C31.511 17.7839 31.5712 17.9124 31.5597 17.9861C31.5482 18.0599 31.6053 18.1307 31.6864 18.1434C31.77 18.1564 31.7786 18.21 31.7065 18.2667C31.4697 18.4528 31.6115 18.919 32.144 19.7058C32.2779 19.9034 32.338 20.2116 32.2993 20.501C32.2616 20.7816 32.3269 21.1333 32.4601 21.3674C32.7079 21.8028 32.6832 22.2806 32.3943 22.6463C32.2619 22.8138 32.2478 22.9024 32.3471 22.9416C32.4462 22.9807 32.4357 23.0465 32.3119 23.1607C32.1857 23.2768 32.1734 23.3666 32.2691 23.4727C32.3691 23.5834 32.3455 23.6488 32.1771 23.7276C32.008 23.8068 31.9865 23.8671 32.0921 23.965C32.1979 24.0631 32.1919 24.0899 32.0682 24.0706C31.977 24.0563 31.836 24.2075 31.7547 24.4064C31.6655 24.6246 31.531 24.7562 31.4155 24.7382C31.2818 24.7173 31.2044 24.8354 31.1582 25.1309C31.105 25.4718 31.0452 25.5455 30.8487 25.5123C30.5087 25.455 30.0843 25.1398 30.3256 25.1239C30.4389 25.1164 30.5163 24.9777 30.5282 24.761C30.5389 24.5681 30.6123 24.4204 30.6915 24.4327C30.8857 24.4631 30.996 23.683 30.8432 23.3584C30.7456 23.1512 30.7755 23.0423 30.9892 22.8256C31.1716 22.6406 31.213 22.526 31.1185 22.4682C31.042 22.4213 31.0245 22.3471 31.0796 22.3031C31.1346 22.2592 31.0434 22.038 30.877 21.8117C30.6207 21.4634 30.6036 21.3686 30.7658 21.1943C30.9256 21.0227 30.9217 20.9919 30.7425 21.0095C30.5473 21.0288 30.3772 20.7884 30.373 20.4873C30.3723 20.4343 30.3179 20.2606 30.2519 20.1014C30.1859 19.9422 30.1409 19.7549 30.1518 19.685C30.1627 19.6152 30.0965 19.5244 30.0048 19.4832C29.8766 19.4258 29.8794 19.3959 30.0167 19.3545C30.1441 19.3162 30.0711 19.1877 29.7627 18.9077C29.4682 18.6404 29.3641 18.464 29.437 18.3563C29.5007 18.2623 29.4457 18.1004 29.3018 17.9579C28.9219 17.5813 28.9289 17.214 29.3188 17.0784C29.6021 16.9798 29.6142 16.958 29.4047 16.9235C29.2707 16.9014 29.171 16.8191 29.1833 16.7407C29.1997 16.6354 29.1118 16.5992 28.8478 16.6025C28.6307 16.6052 28.4895 16.565 28.4888 16.5002C28.4881 16.4415 28.4786 16.3487 28.4674 16.2941C28.4562 16.2394 28.446 16.1513 28.4445 16.0981C28.4429 16.045 28.3476 15.9868 28.2326 15.9688C28.1175 15.9509 28.0304 15.8914 28.0389 15.8367C28.0475 15.7821 28.1077 15.7698 28.1727 15.8096C28.2376 15.8495 28.2719 15.7954 28.2487 15.6896C28.2256 15.5837 28.1318 15.5029 28.0401 15.5099C27.8304 15.526 27.4478 15.2529 27.4183 15.0659C27.4059 14.9881 27.2899 14.8489 27.1607 14.7565C26.9911 14.6356 26.9609 14.5255 27.0527 14.3622C27.157 14.1765 27.1422 14.1496 26.9712 14.213C26.8058 14.2742 26.6 14.1504 25.9823 13.6184C25.5533 13.2489 25.2111 12.8939 25.222 12.8295C25.2328 12.7651 25.1911 12.7044 25.1292 12.6947C24.9499 12.6667 23.8344 11.6629 23.8527 11.5459C23.8618 11.4876 23.7472 11.3268 23.598 11.1884C23.4185 11.022 23.3477 10.992 23.3886 11.0997C23.4991 11.3904 23.0908 11.3073 22.6891 10.9573C22.4736 10.7696 22.1597 10.5516 21.9916 10.4729C21.5387 10.261 21.1769 10.0251 21.0717 9.87282C21.0204 9.79873 20.8718 9.72127 20.7414 9.70092C20.6111 9.68047 20.3387 9.52972 20.1359 9.36588C19.9332 9.20198 19.6517 9.04991 19.5102 9.02781C19.3688 9.00573 19.263 8.92428 19.2751 8.84681C19.289 8.75779 19.1639 8.68517 18.9351 8.64944C18.7362 8.61837 18.4165 8.50382 18.225 8.39485C18.0335 8.28597 17.5919 8.06705 17.2435 7.90837C16.895 7.7497 16.6169 7.57612 16.6252 7.52269C16.6336 7.46917 16.5216 7.40686 16.3765 7.3842C16.2313 7.36153 16.0866 7.27478 16.055 7.19134C16.0233 7.1079 15.9082 7.04837 15.7992 7.05916C15.6903 7.06985 15.4362 7.00776 15.2344 6.92114C14.944 6.79643 14.8908 6.72234 14.9786 6.56463C15.0394 6.45514 15.045 6.41283 14.9909 6.47046C14.8735 6.59573 14.4042 6.5389 14.303 6.38709C14.2637 6.32805 14.0946 6.25489 13.9272 6.22462C13.7598 6.19434 13.7045 6.16042 13.8045 6.14939C14.0576 6.12128 14.0572 5.96394 13.804 5.9244C13.6889 5.90644 13.6012 5.8508 13.609 5.80076C13.6168 5.7508 13.5253 5.71948 13.4056 5.73119C13.1498 5.75636 13.0733 6.00269 13.3099 6.03964C13.3993 6.05359 13.4267 6.08645 13.3708 6.11272C13.3148 6.13891 13.1551 6.06395 13.0158 5.9462C12.8727 5.82496 12.7554 5.77905 12.7458 5.84046C12.7251 5.97333 12.2152 5.90582 12.1161 5.75704C12.0768 5.69799 11.9229 5.63067 11.774 5.60742C11.5743 5.57624 11.511 5.49691 11.5327 5.30522L11.562 5.04527L11.3905 5.26907C11.2523 5.4493 11.1513 5.47316 10.871 5.39158C10.6796 5.33601 10.4992 5.22782 10.4701 5.15112C10.441 5.07454 10.3587 5.0262 10.2873 5.04361C10.2159 5.06103 10.0378 5.00984 9.89159 4.92978C9.70922 4.82993 9.62083 4.81517 9.6103 4.88259C9.59133 5.0041 8.46329 4.71935 8.35461 4.5656C8.31354 4.50754 8.19533 4.48071 8.09184 4.50591C7.97081 4.53549 7.94447 4.51945 8.01789 4.46089C8.1701 4.3395 6.75824 4.18291 6.5194 4.29471C6.27131 4.41084 5.79435 4.31876 5.90768 4.17659C5.97288 4.09471 5.88091 4.04524 5.59263 4.00715C5.36872 3.97758 5.17767 4.00276 5.16798 4.06301C5.15841 4.12336 5.10564 4.22901 5.0509 4.2978C4.98377 4.38197 5.08569 4.47753 5.36239 4.5898C5.8051 4.76945 5.85349 4.86752 5.56549 5.00233C5.42434 5.0684 5.48114 5.11719 5.8146 5.21629C6.05225 5.28688 6.29731 5.40142 6.35902 5.47089C6.55763 5.69361 6.42426 6.69586 6.20076 6.66096C5.96805 6.62462 5.74409 6.04925 5.90676 5.90574C6.10699 5.72934 5.91942 5.70668 5.66536 5.87661C5.47748 6.00223 5.43601 5.99432 4.98177 5.74582C4.65292 5.56596 4.48596 5.39301 4.4601 5.20554C4.43693 5.03743 4.35051 4.93688 4.23867 4.94789C4.00208 4.97116 3.92255 4.62247 4.14105 4.52019C4.34199 4.42613 3.98475 4.14363 3.46573 3.98612C3.04722 3.85911 2.77238 3.369 3.03426 3.21675C3.16262 3.14204 3.16467 3.10879 3.04225 3.08968C2.94227 3.07406 2.92123 2.99758 2.98919 2.89709C3.05136 2.80541 3.04104 2.69309 2.96648 2.6474C2.75344 2.51707 2.84544 2.30934 3.09248 2.36273C3.35086 2.41856 3.71823 2.18158 3.57662 2.05029C3.52384 2.00136 3.41268 2.0144 3.32943 2.07922C3.22064 2.164 3.18281 2.163 3.19488 2.07562C3.23037 1.81905 3.92335 1.49094 4.45715 1.47781C4.77272 1.47014 5.01115 1.40676 5.02357 1.32723C5.04735 1.17492 5.27083 1.17615 5.37276 1.32923C5.40875 1.38324 5.35601 1.43647 5.25558 1.44762C5.1316 1.46135 5.14099 1.4808 5.28478 1.50845C5.40142 1.5308 5.64639 1.50509 5.82932 1.45131C6.04203 1.38892 6.15607 1.3922 6.14538 1.46065C6.13618 1.51953 6.20991 1.56144 6.30936 1.55388C6.40868 1.54621 6.48359 1.47354 6.47557 1.39226C6.45803 1.21369 6.69416 1.12388 7.2863 1.08389C7.64891 1.05942 7.75452 1.08649 7.86178 1.23194C7.97875 1.39026 7.99755 1.38877 8.03153 1.21872C8.10814 0.83602 8.75706 0.760745 9.06245 1.09912C9.20003 1.25161 9.25592 1.25409 9.56125 1.1217C9.75032 1.03964 9.93434 1.01643 9.96996 1.07009ZM10.5524 1.46231C10.661 1.53014 10.6717 1.58655 10.5803 1.60892C10.4983 1.62892 10.4054 1.57651 10.3733 1.49244C10.3064 1.31586 10.3154 1.3144 10.5524 1.46231ZM8.53051 3.87453C8.55904 3.94516 8.59895 3.89724 8.61911 3.76813C8.63927 3.63901 8.61586 3.5813 8.56717 3.63978C8.51832 3.69833 8.50182 3.80397 8.53051 3.87453ZM10.6638 4.71515C10.7023 4.75077 10.7883 4.71083 10.8552 4.62643C10.9517 4.50442 10.9375 4.49114 10.7853 4.56165C10.68 4.61052 10.6254 4.67961 10.6638 4.71515ZM15.0707 6.17031C15.1028 6.25468 15.1537 6.32755 15.1839 6.33226C15.214 6.33696 15.2486 6.27743 15.2607 6.19996C15.2727 6.1225 15.2219 6.04962 15.1475 6.03802C15.0734 6.02643 15.0388 6.08596 15.0707 6.17031ZM14.3187 6.11906C14.3515 6.20085 14.3881 6.18375 14.4118 6.0754C14.4333 5.97737 14.409 5.91683 14.3579 5.94078C14.3067 5.96472 14.289 6.04497 14.3187 6.11906ZM31.1189 21.0187C31.0089 21.1745 31.3026 21.184 31.4266 21.0285C31.4929 20.9453 31.4685 20.8974 31.363 20.9044C31.2687 20.9107 31.1589 20.962 31.1189 21.0187Z" fill="#FFFEFE"/>
<path d="M25.8633 33.3008C25.8477 33.3945 25.8242 33.4766 25.793 33.5469C25.7695 33.6094 25.7656 33.6953 25.7812 33.8047C25.7031 33.8125 25.6406 33.8398 25.5938 33.8867C25.5547 33.9258 25.5195 33.9727 25.4883 34.0273C25.4648 34.082 25.4375 34.1406 25.4062 34.2031C25.3828 34.2578 25.3516 34.3086 25.3125 34.3555C25.375 34.6367 25.4102 34.9219 25.418 35.2109C25.4258 35.5 25.4453 35.7852 25.4766 36.0664C25.5156 36.4258 25.5742 36.7812 25.6523 37.1328C25.7383 37.4766 25.7812 37.8281 25.7812 38.1875C25.7812 38.2969 25.7773 38.3984 25.7695 38.4922C25.7695 38.5859 25.7695 38.6836 25.7695 38.7852C25.7695 38.8477 25.7695 38.9141 25.7695 38.9844C25.7773 39.0469 25.7812 39.1094 25.7812 39.1719C25.7812 39.3984 25.75 39.625 25.6875 39.8516C25.6328 40.0781 25.5898 40.3047 25.5586 40.5312C25.4648 40.6172 25.3828 40.7109 25.3125 40.8125C25.25 40.9141 25.1836 41.0078 25.1133 41.0938C25.043 41.1797 24.9609 41.2539 24.8672 41.3164C24.7734 41.3867 24.6562 41.4336 24.5156 41.457C24.4922 41.5352 24.4453 41.5938 24.375 41.6328C24.3125 41.6719 24.2578 41.7266 24.2109 41.7969H24.1875C23.9922 41.7969 23.8242 41.7695 23.6836 41.7148C23.543 41.6602 23.4102 41.5977 23.2852 41.5273C23.168 41.457 23.0469 41.3828 22.9219 41.3047C22.7969 41.2266 22.6523 41.1641 22.4883 41.1172C22.2695 40.9375 22.0703 40.7422 21.8906 40.5312C21.7109 40.3125 21.5078 40.1172 21.2812 39.9453C21.2266 39.7891 21.1523 39.6602 21.0586 39.5586C20.9727 39.457 20.8867 39.3398 20.8008 39.207C20.7617 39.1523 20.7305 39.1016 20.707 39.0547C20.6914 39.0078 20.668 38.9531 20.6367 38.8906C20.6133 38.8281 20.5742 38.7852 20.5195 38.7617C20.4727 38.7383 20.4297 38.7109 20.3906 38.6797C20.3281 38.4375 20.2383 38.2148 20.1211 38.0117C20.0039 37.8086 19.8672 37.6133 19.7109 37.4258C19.6641 37.5117 19.625 37.6055 19.5938 37.707C19.5703 37.8008 19.5469 37.8984 19.5234 38C19.5 38.0938 19.4688 38.1914 19.4297 38.293C19.3984 38.3867 19.3555 38.4727 19.3008 38.5508V38.5859C19.3008 38.625 19.3164 38.6484 19.3477 38.6562C19.3789 38.6641 19.3945 38.6875 19.3945 38.7266C19.3945 38.7344 19.3906 38.7422 19.3828 38.75C19.3828 38.7578 19.3828 38.7656 19.3828 38.7734C19.3438 38.8047 19.3125 38.8438 19.2891 38.8906C19.2734 38.9375 19.2344 38.9648 19.1719 38.9727C19.1797 39.0117 19.1836 39.0508 19.1836 39.0898V39.1953C19.1836 39.4219 19.1562 39.6484 19.1016 39.875C19.0547 40.1016 19.0312 40.332 19.0312 40.5664V40.7188C19.0312 40.7734 19.0352 40.8242 19.043 40.8711C19.0586 40.918 19.082 40.9648 19.1133 41.0117C19.1445 41.0586 19.1602 41.1016 19.1602 41.1406C19.1602 41.1953 19.1367 41.2461 19.0898 41.293C19.1445 41.332 19.207 41.375 19.2773 41.4219C19.3477 41.4688 19.4102 41.5195 19.4648 41.5742C19.5273 41.6367 19.5781 41.6992 19.6172 41.7617C19.6562 41.832 19.6758 41.9062 19.6758 41.9844C19.6758 42.1172 19.6328 42.2109 19.5469 42.2656C19.4609 42.3203 19.3555 42.3633 19.2305 42.3945C19.1133 42.4258 18.9883 42.4531 18.8555 42.4766C18.7305 42.5078 18.625 42.5586 18.5391 42.6289H18.5039C18.4102 42.6289 18.3398 42.6016 18.293 42.5469C18.2461 42.4922 18.1758 42.4648 18.082 42.4648C17.9336 42.2227 17.832 41.9492 17.7773 41.6445C17.7227 41.3477 17.6953 41.0625 17.6953 40.7891C17.6953 40.4531 17.7266 40.1172 17.7891 39.7812C17.8438 39.4453 17.9141 39.1133 18 38.7852C18.0781 38.457 18.1641 38.1328 18.2578 37.8125C18.3594 37.4844 18.4531 37.1562 18.5391 36.8281L18.5508 36.793C18.5508 36.7539 18.5391 36.7266 18.5156 36.7109C18.5 36.6953 18.4922 36.6719 18.4922 36.6406C18.4922 36.625 18.4961 36.6172 18.5039 36.6172C18.5273 36.5391 18.5508 36.4648 18.5742 36.3945C18.6055 36.3242 18.6289 36.2461 18.6445 36.1602C18.6914 35.9414 18.7227 35.7188 18.7383 35.4922C18.7617 35.2578 18.7734 35.0273 18.7734 34.8008C18.7812 34.5742 18.7891 34.3477 18.7969 34.1211C18.8125 33.8867 18.8398 33.6562 18.8789 33.4297C18.9414 33.3672 19 33.3008 19.0547 33.2305C19.1094 33.1602 19.1797 33.0977 19.2656 33.043C19.4219 33.0508 19.5781 33.0742 19.7344 33.1133C19.8906 33.1523 20.0391 33.2148 20.1797 33.3008C20.2734 33.6367 20.3359 33.9727 20.3672 34.3086C20.4062 34.6445 20.4688 34.9805 20.5547 35.3164V35.3516C20.5547 35.3906 20.5742 35.4102 20.6133 35.4102C20.6602 35.4023 20.6953 35.4141 20.7188 35.4453C20.7031 35.4688 20.6914 35.4961 20.6836 35.5273C20.6836 35.5586 20.6836 35.5898 20.6836 35.6211V35.8203C20.6992 35.8828 20.7188 35.9492 20.7422 36.0195C20.7656 36.0898 20.8164 36.1328 20.8945 36.1484C20.9336 36.3984 20.9922 36.6289 21.0703 36.8398C21.1484 37.0508 21.2383 37.2539 21.3398 37.4492C21.4414 37.6445 21.5508 37.8398 21.668 38.0352C21.7852 38.2227 21.9062 38.4219 22.0312 38.6328C22.2266 38.7812 22.3945 38.9531 22.5352 39.1484C22.6758 39.3359 22.8164 39.5195 22.957 39.6992C23.1055 39.8711 23.2695 40.0234 23.4492 40.1562C23.6367 40.2891 23.8789 40.3711 24.1758 40.4023C24.2148 40.3711 24.2422 40.3281 24.2578 40.2734L24.3164 40.1094C24.3398 40.0547 24.3633 40.0078 24.3867 39.9688C24.418 39.9219 24.4609 39.8867 24.5156 39.8633C24.5312 39.6445 24.5469 39.4219 24.5625 39.1953C24.5859 38.9688 24.6367 38.7539 24.7148 38.5508C24.6758 38.4805 24.6562 38.3945 24.6562 38.293C24.6562 38.2148 24.6602 38.1406 24.668 38.0703C24.6836 38 24.6914 37.9297 24.6914 37.8594C24.6914 37.7109 24.6602 37.5898 24.5977 37.4961C24.5977 37.4414 24.6016 37.3867 24.6094 37.332C24.6172 37.2695 24.6406 37.2109 24.6797 37.1562C24.6172 37 24.5664 36.8359 24.5273 36.6641C24.4961 36.4922 24.4805 36.3164 24.4805 36.1367C24.4805 36.0352 24.4922 35.9297 24.5156 35.8203C24.4688 35.7031 24.4375 35.5664 24.4219 35.4102L24.375 34.9297C24.3594 34.7656 24.3359 34.6133 24.3047 34.4727C24.2734 34.332 24.2148 34.2188 24.1289 34.1328C24.1758 34.0625 24.1992 33.9805 24.1992 33.8867C24.1992 33.7305 24.1758 33.582 24.1289 33.4414C24.082 33.3008 24.0586 33.1523 24.0586 32.9961C24.0586 32.8867 24.082 32.7773 24.1289 32.668C24.3008 32.6758 24.4688 32.6953 24.6328 32.7266C24.8047 32.75 24.9727 32.7617 25.1367 32.7617C25.1836 32.8242 25.2383 32.875 25.3008 32.9141C25.3633 32.9531 25.4297 32.9922 25.5 33.0312C25.5703 33.0625 25.6367 33.0977 25.6992 33.1367C25.7695 33.1758 25.8242 33.2305 25.8633 33.3008ZM29.5664 39.3945C29.5273 39.457 29.4805 39.5156 29.4258 39.5703C29.3711 39.6172 29.3203 39.668 29.2734 39.7227C29.2188 39.7461 29.1562 39.7578 29.0859 39.7578C29.0234 39.7578 28.9609 39.7578 28.8984 39.7578C28.8438 39.75 28.7891 39.75 28.7344 39.7578C28.6875 39.7578 28.6484 39.7734 28.6172 39.8047C28.5547 39.7891 28.5078 39.7617 28.4766 39.7227C28.4453 39.6758 28.3906 39.6484 28.3125 39.6406C28.2812 39.6328 28.25 39.6328 28.2188 39.6406C28.1016 39.5078 27.9922 39.3672 27.8906 39.2188C27.7969 39.0703 27.707 38.9297 27.6211 38.7969C27.6133 38.5078 27.5898 38.2148 27.5508 37.918C27.543 37.8477 27.5312 37.7773 27.5156 37.707C27.5 37.6367 27.4883 37.5703 27.4805 37.5078C27.4805 37.4297 27.4844 37.3555 27.4922 37.2852C27.5078 37.207 27.5195 37.1367 27.5273 37.0742C27.5586 36.8477 27.5938 36.625 27.6328 36.4062C27.6719 36.1875 27.707 35.9648 27.7383 35.7383C27.7695 35.5352 27.7852 35.3242 27.7852 35.1055C27.7852 34.8789 27.75 34.668 27.6797 34.4727L27.668 34.4141C27.6836 34.3516 27.6992 34.3008 27.7148 34.2617C27.7383 34.2148 27.7539 34.1641 27.7617 34.1094C27.7773 34.0234 27.7578 33.9609 27.7031 33.9219C27.7266 33.8594 27.7656 33.8203 27.8203 33.8047C27.875 33.7812 27.9062 33.7344 27.9141 33.6641C27.9219 33.6328 27.9219 33.6016 27.9141 33.5703C27.9766 33.5469 28.0391 33.5273 28.1016 33.5117C28.1719 33.4883 28.2383 33.4844 28.3008 33.5C28.4023 33.5156 28.4922 33.5508 28.5703 33.6055C28.6484 33.6523 28.7227 33.707 28.793 33.7695C28.918 34.1445 28.9688 34.543 28.9453 34.9648C28.9219 35.3789 28.8828 35.7969 28.8281 36.2188C28.7734 36.6406 28.7383 37.0547 28.7227 37.4609C28.707 37.8594 28.7695 38.2305 28.9102 38.5742L28.9336 38.5859C28.9727 38.5938 29.0039 38.582 29.0273 38.5508C29.0508 38.5117 29.082 38.4961 29.1211 38.5039C29.1523 38.5195 29.1719 38.5273 29.1797 38.5273C29.2109 38.6836 29.2617 38.832 29.332 38.9727C29.4023 39.1133 29.4805 39.2539 29.5664 39.3945ZM39.4688 38.8906C39.4688 38.9688 39.4453 39.0352 39.3984 39.0898C39.3594 39.1367 39.3086 39.1797 39.2461 39.2188C39.1914 39.2578 39.1328 39.293 39.0703 39.3242C39.0156 39.3555 38.9648 39.3945 38.918 39.4414C38.8867 39.4727 38.8633 39.5117 38.8477 39.5586C38.8398 39.5977 38.8203 39.625 38.7891 39.6406C38.7422 39.6797 38.6914 39.7031 38.6367 39.7109C38.582 39.7188 38.5234 39.7305 38.4609 39.7461C38.4062 39.7539 38.3516 39.7695 38.2969 39.793C38.2422 39.8086 38.1953 39.8438 38.1562 39.8984C37.7891 39.9375 37.4258 39.9883 37.0664 40.0508C36.7148 40.1133 36.3516 40.1445 35.9766 40.1445C35.9062 40.1445 35.8281 40.1523 35.7422 40.168C35.6641 40.1758 35.5898 40.1836 35.5195 40.1914C35.3555 40.207 35.1914 40.2188 35.0273 40.2266C34.8711 40.2344 34.7109 40.2383 34.5469 40.2383C34.3203 40.2383 34.0938 40.2305 33.8672 40.2148C33.6406 40.1914 33.418 40.1562 33.1992 40.1094C33.1445 40.0703 33.082 40.0391 33.0117 40.0156C32.9414 39.9922 32.8672 39.9688 32.7891 39.9453C32.7188 39.9219 32.6523 39.8945 32.5898 39.8633C32.5273 39.832 32.4805 39.7852 32.4492 39.7227C32.332 39.7148 32.2266 39.6914 32.1328 39.6523C32.0469 39.6133 31.9648 39.5703 31.8867 39.5234C31.8164 39.4688 31.7422 39.4141 31.6641 39.3594C31.5859 39.3047 31.4961 39.2578 31.3945 39.2188C31.3164 39.1094 31.2344 39.0039 31.1484 38.9023C31.0703 38.793 30.9727 38.7031 30.8555 38.6328C30.832 38.4844 30.793 38.3359 30.7383 38.1875C30.6914 38.0391 30.6406 37.8945 30.5859 37.7539C30.5391 37.6055 30.5 37.457 30.4688 37.3086C30.4297 37.1602 30.4102 37.0078 30.4102 36.8516C30.4102 36.7422 30.4258 36.6094 30.457 36.4531C30.4883 36.2969 30.5273 36.1406 30.5742 35.9844C30.6289 35.8203 30.6914 35.668 30.7617 35.5273C30.832 35.3867 30.9023 35.2734 30.9727 35.1875C30.9961 35.1641 31.0234 35.1445 31.0547 35.1289C31.0859 35.1133 31.1133 35.0898 31.1367 35.0586C31.207 34.9805 31.2812 34.918 31.3594 34.8711C31.4375 34.8164 31.5195 34.7539 31.6055 34.6836C31.6367 34.6523 31.6602 34.6172 31.6758 34.5781C31.6992 34.5391 31.7305 34.5039 31.7695 34.4727C31.793 34.457 31.8242 34.4531 31.8633 34.4609C31.9102 34.4688 31.9492 34.4609 31.9805 34.4375C32.0117 34.4141 32.0273 34.3867 32.0273 34.3555C32.0273 34.3242 32.0391 34.2969 32.0625 34.2734C32.0703 34.2656 32.0938 34.2656 32.1328 34.2734C32.1719 34.2734 32.1953 34.2734 32.2031 34.2734C32.2578 34.2734 32.3203 34.2383 32.3906 34.168C32.4609 34.0898 32.5195 34.0391 32.5664 34.0156C32.6211 33.9844 32.6758 33.9648 32.7305 33.957C32.7852 33.9414 32.8438 33.918 32.9062 33.8867C32.9922 33.8398 33.0742 33.8047 33.1523 33.7812C33.2383 33.75 33.3242 33.7148 33.4102 33.6758C33.457 33.6602 33.5 33.6328 33.5391 33.5938C33.5781 33.5547 33.6172 33.5273 33.6562 33.5117C33.7266 33.4883 33.8008 33.4727 33.8789 33.4648C33.9648 33.4492 34.043 33.4375 34.1133 33.4297C34.1914 33.4141 34.2656 33.3984 34.3359 33.3828C34.4141 33.3594 34.4844 33.3203 34.5469 33.2656H34.6406C34.7812 33.2656 34.918 33.2461 35.0508 33.207C35.1836 33.168 35.3203 33.1484 35.4609 33.1484C35.5 33.1484 35.5586 33.1562 35.6367 33.1719C35.6992 33.1328 35.7695 33.1133 35.8477 33.1133C35.9805 33.1133 36.1133 33.1484 36.2461 33.2188C36.3789 33.2812 36.5156 33.3125 36.6562 33.3125H36.7266C36.7578 33.3125 36.7891 33.3086 36.8203 33.3008C36.9062 33.3867 37.0078 33.4336 37.125 33.4414C37.25 33.4492 37.3555 33.4844 37.4414 33.5469C37.4961 33.5938 37.5391 33.6484 37.5703 33.7109C37.6094 33.7734 37.6406 33.8398 37.6641 33.9102L37.7344 34.1211C37.7578 34.1914 37.7891 34.2539 37.8281 34.3086C37.7891 34.5898 37.6719 34.8164 37.4766 34.9883C37.2891 35.1523 37.0508 35.2344 36.7617 35.2344C36.6523 35.2344 36.5586 35.2227 36.4805 35.1992C36.4102 35.168 36.3438 35.1367 36.2812 35.1055C36.2266 35.0742 36.168 35.043 36.1055 35.0117C36.043 34.9805 35.9727 34.957 35.8945 34.9414C35.9805 34.7852 36.0352 34.6172 36.0586 34.4375C35.9727 34.3984 35.8867 34.3711 35.8008 34.3555C35.7148 34.3398 35.6328 34.3125 35.5547 34.2734C35.3438 34.3281 35.1367 34.3672 34.9336 34.3906C34.7383 34.4062 34.5547 34.4883 34.3828 34.6367C34.3438 34.6289 34.3008 34.6211 34.2539 34.6133C34.2148 34.6055 34.1758 34.6016 34.1367 34.6016C34.0898 34.6016 33.9961 34.6367 33.8555 34.707C33.7148 34.7695 33.5625 34.8438 33.3984 34.9297C33.2422 35.0156 33.0898 35.1016 32.9414 35.1875C32.8008 35.2734 32.7031 35.332 32.6484 35.3633C32.5859 35.4023 32.5312 35.4492 32.4844 35.5039C32.4375 35.5586 32.3906 35.6172 32.3438 35.6797C32.2969 35.7344 32.25 35.7891 32.2031 35.8438C32.1562 35.8906 32.0977 35.9258 32.0273 35.9492C32.0117 36.0352 31.9844 36.1094 31.9453 36.1719C31.9062 36.2344 31.8633 36.3008 31.8164 36.3711C31.8086 36.5117 31.793 36.6523 31.7695 36.793C31.7539 36.9336 31.7461 37.0742 31.7461 37.2148V37.3672C31.7461 37.4141 31.7539 37.457 31.7695 37.4961C31.8477 37.5977 31.9102 37.7109 31.957 37.8359C32.0117 37.9609 32.1016 38.0469 32.2266 38.0938C32.2344 38.125 32.2305 38.1445 32.2148 38.1523C32.207 38.1602 32.1992 38.1797 32.1914 38.2109C32.2383 38.2969 32.2969 38.3672 32.3672 38.4219C32.4453 38.4688 32.5234 38.5195 32.6016 38.5742C32.6797 38.6211 32.7539 38.6719 32.8242 38.7266C32.8945 38.7812 32.9492 38.8516 32.9883 38.9375C33.1055 38.9375 33.2148 38.957 33.3164 38.9961C33.4258 39.0352 33.5273 39.0781 33.6211 39.125C33.7227 39.1719 33.8164 39.2148 33.9023 39.2539C33.9961 39.293 34.0898 39.3125 34.1836 39.3125C34.2695 39.3125 34.3477 39.3008 34.418 39.2773C34.6211 39.3398 34.8242 39.3867 35.0273 39.418C35.2383 39.4414 35.4492 39.4531 35.6602 39.4531C35.918 39.4531 36.1758 39.4375 36.4336 39.4062C36.6914 39.375 36.9492 39.3477 37.207 39.3242C37.3008 39.3086 37.3906 39.3008 37.4766 39.3008C37.5625 39.3008 37.6484 39.293 37.7344 39.2773C37.8438 39.2617 37.9453 39.2109 38.0391 39.125C38.1406 39.0391 38.2383 38.9766 38.332 38.9375C38.418 38.9922 38.5195 39.0195 38.6367 39.0195C38.7695 39.0195 38.8984 39 39.0234 38.9609C39.1484 38.9141 39.2773 38.8906 39.4102 38.8906H39.4688ZM46.793 33.5469V33.5938C46.7383 33.6094 46.7109 33.6484 46.7109 33.7109C46.625 33.75 46.5352 33.7812 46.4414 33.8047C46.3477 33.8203 46.2578 33.8477 46.1719 33.8867C46.0859 33.8789 45.9961 33.875 45.9023 33.875C45.8164 33.8672 45.7305 33.8633 45.6445 33.8633C45.4102 33.8633 45.1758 33.8711 44.9414 33.8867C44.707 33.9023 44.4727 33.9023 44.2383 33.8867C44.1289 33.9492 44.0078 34 43.875 34.0391C43.75 34.0703 43.6289 34.0859 43.5117 34.0859C43.418 34.0859 43.3359 34.0742 43.2656 34.0508C43.0781 34.1445 42.8711 34.2227 42.6445 34.2852C42.4258 34.3477 42.2031 34.4102 41.9766 34.4727C41.75 34.5273 41.5312 34.5938 41.3203 34.6719C41.1172 34.7422 40.9375 34.8438 40.7812 34.9766C40.7656 35.0859 40.7539 35.1953 40.7461 35.3047C40.7383 35.4062 40.7344 35.5078 40.7344 35.6094C40.7344 35.7188 40.7383 35.8203 40.7461 35.9141C40.7617 36.0078 40.7891 36.1016 40.8281 36.1953C40.8672 36.2109 40.9102 36.2227 40.957 36.2305C41.0117 36.2383 41.0586 36.2422 41.0977 36.2422C41.1367 36.2422 41.1758 36.2383 41.2148 36.2305C41.2539 36.2148 41.2812 36.1875 41.2969 36.1484C41.4141 36.1328 41.5312 36.1289 41.6484 36.1367C41.7656 36.1367 41.8828 36.1367 42 36.1367C42.1172 36.1367 42.2305 36.1328 42.3398 36.125C42.457 36.1172 42.5703 36.0977 42.6797 36.0664C42.8047 36.0352 42.9258 36.0156 43.043 36.0078C43.168 36 43.2891 35.9922 43.4062 35.9844C43.5234 35.9766 43.6445 35.9648 43.7695 35.9492C43.8945 35.9258 44.0234 35.8828 44.1562 35.8203C44.2578 35.8594 44.3594 35.8789 44.4609 35.8789C44.5703 35.8789 44.6758 35.8867 44.7773 35.9023C44.832 35.9414 44.875 35.9844 44.9062 36.0312C44.9453 36.0781 44.9648 36.1328 44.9648 36.1953C44.9648 36.3047 44.9258 36.4141 44.8477 36.5234C44.7695 36.6328 44.707 36.7344 44.6602 36.8281H44.5312C44.3438 36.8281 44.1602 36.8555 43.9805 36.9102C43.8086 36.957 43.6328 37.0156 43.4531 37.0859C43.2812 37.1484 43.1055 37.207 42.9258 37.2617C42.7539 37.3086 42.5742 37.332 42.3867 37.332C42.3555 37.332 42.3359 37.3516 42.3281 37.3906C42.3281 37.4219 42.3203 37.4453 42.3047 37.4609C42.2656 37.4531 42.207 37.4492 42.1289 37.4492C41.9492 37.4492 41.7773 37.4688 41.6133 37.5078C41.4492 37.5469 41.2812 37.5664 41.1094 37.5664C41.0625 37.5664 41.0156 37.5664 40.9688 37.5664C40.9219 37.5586 40.875 37.5508 40.8281 37.543C40.7891 37.6055 40.7383 37.6484 40.6758 37.6719C40.6133 37.6875 40.5547 37.7188 40.5 37.7656C40.4766 37.8359 40.4609 37.9219 40.4531 38.0234C40.4531 38.125 40.4492 38.2305 40.4414 38.3398C40.4414 38.4414 40.4336 38.5391 40.418 38.6328C40.4023 38.7266 40.3711 38.8008 40.3242 38.8555C40.332 38.8945 40.3633 38.9102 40.418 38.9023C40.4727 38.8867 40.5 38.9102 40.5 38.9727C40.5 39.043 40.4922 39.1172 40.4766 39.1953C40.4609 39.2734 40.4531 39.3516 40.4531 39.4297C40.4531 39.5781 40.4688 39.7422 40.5 39.9219C40.5391 40.0938 40.5938 40.2539 40.6641 40.4023C40.7422 40.5508 40.8438 40.6758 40.9688 40.7773C41.0938 40.8711 41.25 40.918 41.4375 40.918C41.5625 40.918 41.6797 40.8945 41.7891 40.8477C41.8984 40.8008 41.9883 40.7227 42.0586 40.6133L42.1172 40.6016C42.1484 40.6016 42.1758 40.6055 42.1992 40.6133C42.2305 40.6211 42.2617 40.625 42.293 40.625C42.3398 40.625 42.3984 40.5977 42.4688 40.543C42.5469 40.4805 42.6289 40.4102 42.7148 40.332C42.8086 40.2539 42.9023 40.1797 42.9961 40.1094C43.0898 40.0312 43.1797 39.9766 43.2656 39.9453C43.3203 39.8359 43.3711 39.7266 43.418 39.6172C43.4727 39.5078 43.5508 39.4219 43.6523 39.3594V39.0195C43.7305 38.9336 43.8125 38.8555 43.8984 38.7852C43.9922 38.7148 44.0625 38.625 44.1094 38.5156C44.1484 38.5312 44.1836 38.543 44.2148 38.5508C44.2539 38.5586 44.293 38.5625 44.332 38.5625C44.3711 38.5625 44.4102 38.5586 44.4492 38.5508C44.4961 38.543 44.5391 38.5312 44.5781 38.5156C44.6406 38.6016 44.6875 38.6992 44.7188 38.8086C44.7578 38.9102 44.8047 39.0078 44.8594 39.1016C44.7891 39.2422 44.707 39.4102 44.6133 39.6055C44.5195 39.8008 44.418 39.9961 44.3086 40.1914C44.1992 40.3867 44.082 40.5742 43.957 40.7539C43.8398 40.9258 43.7227 41.0586 43.6055 41.1523C43.582 41.1758 43.5312 41.2031 43.4531 41.2344C43.3672 41.2969 43.2891 41.3555 43.2188 41.4102C43.1484 41.4727 43.082 41.543 43.0195 41.6211C42.793 41.6914 42.5742 41.7852 42.3633 41.9023C42.1602 42.0195 41.957 42.1328 41.7539 42.2422C41.6602 42.2188 41.5586 42.207 41.4492 42.207C41.3555 42.207 41.2617 42.2109 41.168 42.2188C41.0742 42.2344 40.9727 42.2422 40.8633 42.2422C40.832 42.2031 40.7852 42.1758 40.7227 42.1602C40.668 42.1523 40.6484 42.1133 40.6641 42.043C40.3984 42.0273 40.1836 41.9531 40.0195 41.8203C39.8555 41.6953 39.7148 41.5391 39.5977 41.3516C39.4883 41.1641 39.3984 40.9609 39.3281 40.7422C39.2578 40.5234 39.1836 40.3125 39.1055 40.1094V40.0742C39.1055 40.0352 39.1211 40.0117 39.1523 40.0039C39.1836 39.9961 39.1992 39.9727 39.1992 39.9336C39.1992 39.918 39.1953 39.9062 39.1875 39.8984C39.1641 39.8125 39.1445 39.7383 39.1289 39.6758C39.1133 39.6133 39.1055 39.5391 39.1055 39.4531C39.1055 39.3281 39.1133 39.207 39.1289 39.0898C39.1445 38.9648 39.1523 38.8398 39.1523 38.7148C39.1523 38.5898 39.1367 38.4805 39.1055 38.3867C39.1367 38.3477 39.1641 38.2969 39.1875 38.2344C39.2031 38.1641 39.2148 38.0938 39.2227 38.0234C39.2305 37.9531 39.2344 37.8828 39.2344 37.8125C39.2422 37.7422 39.2539 37.6797 39.2695 37.625C39.2383 37.5391 39.2109 37.4648 39.1875 37.4023C39.1641 37.332 39.1523 37.25 39.1523 37.1562V37.0742C39.2305 36.9414 39.2969 36.8047 39.3516 36.6641C39.4062 36.5234 39.4648 36.3789 39.5273 36.2305V36.1953C39.5273 35.9688 39.5195 35.7422 39.5039 35.5156C39.4883 35.2891 39.4805 35.0625 39.4805 34.8359V34.6133C39.4805 34.5352 39.4844 34.4609 39.4922 34.3906C39.5547 34.3594 39.6016 34.3164 39.6328 34.2617C39.6641 34.207 39.7109 34.1641 39.7734 34.1328H40.1602L40.2305 34.0156C40.2539 33.9766 40.2695 33.9336 40.2773 33.8867C40.3633 33.8633 40.4453 33.832 40.5234 33.793C40.6094 33.7461 40.6875 33.6992 40.7578 33.6523C40.8672 33.5898 40.9648 33.5352 41.0508 33.4883C41.1445 33.4336 41.2344 33.3906 41.3203 33.3594C41.4141 33.3203 41.5117 33.2891 41.6133 33.2656C41.7148 33.2422 41.832 33.2227 41.9648 33.207C42.0273 33.207 42.0664 33.1953 42.082 33.1719C42.1055 33.1484 42.1367 33.1211 42.1758 33.0898C42.2695 33.1055 42.3633 33.1211 42.457 33.1367C42.5508 33.1445 42.6445 33.1484 42.7383 33.1484C42.9258 33.1484 43.1016 33.1133 43.2656 33.043C43.5 33.043 43.7305 33.0391 43.957 33.0312C44.1914 33.0234 44.4258 33.0195 44.6602 33.0195C44.8633 33.0195 45.0664 33.0273 45.2695 33.043C45.4727 33.0586 45.6719 33.0859 45.8672 33.125C45.9375 33.1016 46.0156 33.0898 46.1016 33.0898C46.1953 33.0898 46.2891 33.1016 46.3828 33.125C46.4844 33.1406 46.582 33.1406 46.6758 33.125C46.6836 33.2109 46.7031 33.2852 46.7344 33.3477C46.7734 33.4023 46.793 33.4688 46.793 33.5469ZM63.3633 34.5195C63.3398 34.5898 63.293 34.6406 63.2227 34.6719C63.1602 34.6953 63.0938 34.7148 63.0234 34.7305C62.9531 34.7461 62.8867 34.7734 62.8242 34.8125C62.7695 34.8438 62.7344 34.8984 62.7188 34.9766L62.6953 34.9883C62.6641 34.9883 62.6406 34.9805 62.625 34.9648C62.6172 34.9414 62.6094 34.9219 62.6016 34.9062C62.5938 34.8828 62.582 34.8633 62.5664 34.8477C62.5586 34.8242 62.543 34.8125 62.5195 34.8125C62.4336 34.8125 62.3477 34.8203 62.2617 34.8359C62.1836 34.8516 62.1055 34.8594 62.0273 34.8594C61.9102 34.8594 61.8047 34.8438 61.7109 34.8125C61.6562 34.8281 61.625 34.8633 61.6172 34.918C61.6172 34.9727 61.5938 35.0078 61.5469 35.0234C61.5078 35.0391 61.4609 35.0469 61.4062 35.0469C61.3516 35.0391 61.2969 35.043 61.2422 35.0586L60.8672 35.1523C60.7422 35.1836 60.6172 35.1992 60.4922 35.1992C60.4219 35.1992 60.3711 35.1953 60.3398 35.1875C60.2227 35.2812 60.0898 35.3516 59.9414 35.3984C59.793 35.4375 59.6367 35.4766 59.4727 35.5156C59.3164 35.5469 59.1602 35.5898 59.0039 35.6445C58.8555 35.6992 58.7227 35.7852 58.6055 35.9023C58.543 35.8867 58.4883 35.8789 58.4414 35.8789C58.3398 35.8789 58.25 35.9023 58.1719 35.9492C58.0938 35.9883 58.0117 36.0273 57.9258 36.0664C57.8867 36.082 57.8477 36.0898 57.8086 36.0898C57.7695 36.0898 57.7266 36.0977 57.6797 36.1133C57.6328 36.1289 57.6016 36.1562 57.5859 36.1953C57.5781 36.2266 57.5547 36.2578 57.5156 36.2891C57.5156 36.5703 57.543 36.8516 57.5977 37.1328C57.6523 37.4062 57.6797 37.6836 57.6797 37.9648V38.0117C57.6953 38.1445 57.7383 38.2695 57.8086 38.3867C57.8789 38.4961 57.9141 38.6094 57.9141 38.7266C57.9141 38.7656 57.9062 38.8086 57.8906 38.8555C58.0938 38.9023 58.2266 39.0078 58.2891 39.1719C58.3594 39.3281 58.4141 39.5 58.4531 39.6875C58.5 39.8672 58.5586 40.0352 58.6289 40.1914C58.707 40.3477 58.8555 40.4453 59.0742 40.4844C59.0898 40.5625 59.1016 40.6445 59.1094 40.7305C59.1172 40.8086 59.1211 40.8867 59.1211 40.9648C59.1211 41.0742 59.1094 41.1797 59.0859 41.2812C59.0625 41.3906 59.0156 41.4883 58.9453 41.5742C58.8281 41.582 58.7422 41.5859 58.6875 41.5859C58.6328 41.5859 58.5508 41.6094 58.4414 41.6562C58.2852 41.5625 58.1445 41.4531 58.0195 41.3281C57.9023 41.2109 57.7891 41.0859 57.6797 40.9531C57.5781 40.8125 57.4766 40.6719 57.375 40.5312C57.2734 40.3828 57.1641 40.2422 57.0469 40.1094C56.6406 40.2109 56.2227 40.2812 55.793 40.3203C55.3711 40.3516 54.9492 40.3672 54.5273 40.3672C54.5117 40.3828 54.4883 40.3906 54.457 40.3906C54.4258 40.3906 54.3945 40.3945 54.3633 40.4023C54.3398 40.4023 54.3164 40.4102 54.293 40.4258C54.2773 40.4336 54.2734 40.4531 54.2812 40.4844C54.2266 40.4531 54.1641 40.4336 54.0938 40.4258C54.0312 40.4102 53.9727 40.4023 53.918 40.4023C53.8789 40.4023 53.8398 40.4062 53.8008 40.4141C53.7617 40.4141 53.7227 40.4258 53.6836 40.4492C53.3867 40.3945 53.0977 40.3203 52.8164 40.2266C52.543 40.125 52.2617 40.043 51.9727 39.9805C51.9727 39.918 51.957 39.875 51.9258 39.8516C51.8945 39.8203 51.8672 39.7773 51.8438 39.7227C51.5156 39.5195 51.2383 39.2734 51.0117 38.9844C50.793 38.6953 50.7031 38.3438 50.7422 37.9297L50.6602 37.7656C50.6602 37.6406 50.6875 37.5508 50.7422 37.4961C50.7109 37.4414 50.6562 37.3867 50.5781 37.332C50.6484 37.2227 50.7109 37.1094 50.7656 36.9922C50.8203 36.875 50.8594 36.75 50.8828 36.6172C50.8906 36.5781 50.8945 36.543 50.8945 36.5117C50.8945 36.4805 50.9023 36.4453 50.918 36.4062C50.9336 36.3594 50.957 36.3086 50.9883 36.2539C51.0117 36.1914 51.0352 36.1367 51.0586 36.0898C51.1836 35.8242 51.3203 35.5703 51.4688 35.3281C51.625 35.0781 51.8203 34.8633 52.0547 34.6836C52.0703 34.5508 52.1094 34.4414 52.1719 34.3555C52.2344 34.2617 52.3008 34.1797 52.3711 34.1094C52.4492 34.0312 52.5234 33.9531 52.5938 33.875C52.6719 33.7969 52.7305 33.7031 52.7695 33.5938C52.9258 33.4609 53.082 33.332 53.2383 33.207C53.4023 33.082 53.5391 32.9336 53.6484 32.7617C53.7891 32.7148 53.9219 32.6562 54.0469 32.5859C54.1719 32.5078 54.2773 32.4102 54.3633 32.293C54.5508 32.2773 54.7344 32.2422 54.9141 32.1875C55.1016 32.1328 55.2969 32.1055 55.5 32.1055C55.5859 32.1055 55.6875 32.125 55.8047 32.1641C55.9297 32.1953 56.0234 32.2539 56.0859 32.3398C56.0938 32.3555 56.0977 32.375 56.0977 32.3984L56.1094 32.457C56.1172 32.4727 56.125 32.4883 56.1328 32.5039C56.1484 32.5117 56.1719 32.5117 56.2031 32.5039C56.2031 32.6758 56.1836 32.8516 56.1445 33.0312C56.1055 33.2031 56.0039 33.3359 55.8398 33.4297C55.7383 33.3984 55.6289 33.3828 55.5117 33.3828C55.3555 33.3828 55.2109 33.4141 55.0781 33.4766C54.9531 33.5312 54.8281 33.5977 54.7031 33.6758C54.5859 33.7461 54.4648 33.8203 54.3398 33.8984C54.2148 33.9688 54.082 34.0195 53.9414 34.0508C53.9258 34.1133 53.9102 34.1719 53.8945 34.2266C53.8867 34.2734 53.8906 34.3281 53.9062 34.3906C53.8672 34.3906 53.8359 34.3867 53.8125 34.3789C53.7969 34.3633 53.7695 34.3555 53.7305 34.3555C53.6758 34.3555 53.6367 34.3867 53.6133 34.4492C53.5977 34.5117 53.582 34.5625 53.5664 34.6016C53.418 34.6641 53.293 34.7539 53.1914 34.8711C53.0977 34.9805 53.0078 35.1016 52.9219 35.2344C52.8438 35.3594 52.7578 35.4805 52.6641 35.5977C52.5703 35.7148 52.4531 35.8047 52.3125 35.8672C52.25 36.1172 52.1875 36.3633 52.125 36.6055C52.0703 36.8477 52.0039 37.0898 51.9258 37.332C51.9492 37.4258 51.9609 37.5234 51.9609 37.625C51.9609 37.75 51.9492 37.8633 51.9258 37.9648C51.9648 38.0273 52.0039 38.1016 52.043 38.1875L52.1836 38.457C52.2305 38.5508 52.2773 38.6367 52.3242 38.7148C52.3789 38.793 52.4297 38.8516 52.4766 38.8906C52.5625 38.9531 52.6953 39.0117 52.875 39.0664C53.0547 39.1133 53.2148 39.1953 53.3555 39.3125C53.3711 39.3125 53.3906 39.3125 53.4141 39.3125C53.4375 39.3047 53.457 39.3008 53.4727 39.3008C53.5664 39.3008 53.668 39.3242 53.7773 39.3711C53.8867 39.418 53.957 39.4414 53.9883 39.4414C54.4258 39.4414 54.9023 39.4141 55.418 39.3594C55.9336 39.2969 56.4102 39.2227 56.8477 39.1367C56.8633 39.0586 56.8711 38.9922 56.8711 38.9375C56.8711 38.8359 56.8555 38.7383 56.8242 38.6445C56.793 38.543 56.7422 38.457 56.6719 38.3867C56.6719 38.2695 56.6719 38.1523 56.6719 38.0352C56.6797 37.918 56.6836 37.8008 56.6836 37.6836C56.6836 37.4883 56.6758 37.2812 56.6602 37.0625C56.6445 36.8438 56.6055 36.6406 56.543 36.4531H56.5195C56.418 36.4531 56.3242 36.4805 56.2383 36.5352C56.1602 36.582 56.0781 36.6055 55.9922 36.6055C55.9453 36.6055 55.9062 36.5938 55.875 36.5703C55.7812 36.6797 55.668 36.7617 55.5352 36.8164C55.4023 36.8711 55.2617 36.9219 55.1133 36.9688C54.9648 37.0078 54.8164 37.0508 54.668 37.0977C54.5273 37.1445 54.3984 37.2109 54.2812 37.2969C54.2188 37.2734 54.1602 37.2617 54.1055 37.2617C54.0508 37.2617 53.9961 37.2656 53.9414 37.2734C53.8945 37.2812 53.8398 37.2891 53.7773 37.2969C53.6133 37.1562 53.5312 36.9805 53.5312 36.7695C53.5312 36.6602 53.5469 36.5547 53.5781 36.4531C53.6172 36.3438 53.668 36.2422 53.7305 36.1484C53.7695 36.125 53.8164 36.1133 53.8711 36.1133C53.9258 36.1055 53.9805 36.0977 54.0352 36.0898C54.0898 36.0742 54.1328 36.0547 54.1641 36.0312C54.2031 36.0078 54.2266 35.9648 54.2344 35.9023C54.2578 35.9258 54.2773 35.9375 54.293 35.9375C54.3086 35.9375 54.3242 35.9336 54.3398 35.9258C54.3555 35.918 54.3711 35.9141 54.3867 35.9141C54.4023 35.9141 54.4141 35.9219 54.4219 35.9375C54.4375 35.9531 54.4453 35.9688 54.4453 35.9844C54.7812 35.8047 55.125 35.6523 55.4766 35.5273C55.8281 35.4023 56.1836 35.2891 56.543 35.1875C56.9102 35.0859 57.2773 34.9922 57.6445 34.9062C58.0117 34.8125 58.375 34.7109 58.7344 34.6016C58.7891 34.5547 58.8477 34.5195 58.9102 34.4961C58.9727 34.4727 59.0273 34.4375 59.0742 34.3906C59.1289 34.4219 59.1953 34.4375 59.2734 34.4375C59.3828 34.4375 59.5 34.418 59.625 34.3789C59.7578 34.332 59.8672 34.2773 59.9531 34.2148C59.9844 34.2227 60.0117 34.2266 60.0352 34.2266H60.1172C60.2734 34.2266 60.418 34.2031 60.5508 34.1562C60.6914 34.1094 60.8281 34.0469 60.9609 33.9688H61.0195C61.2617 33.9688 61.5 33.9414 61.7344 33.8867C61.9766 33.832 62.2227 33.8047 62.4727 33.8047C62.793 33.8047 63.0742 33.8867 63.3164 34.0508V34.1914C63.3164 34.2539 63.3164 34.3125 63.3164 34.3672C63.3242 34.4141 63.3398 34.4648 63.3633 34.5195ZM74.9648 38.9609C74.9492 39.0781 74.9062 39.168 74.8359 39.2305C74.7734 39.293 74.6992 39.3516 74.6133 39.4062C74.5742 39.3984 74.5352 39.3945 74.4961 39.3945C74.4648 39.3867 74.4297 39.3828 74.3906 39.3828C74.1484 39.375 73.918 39.4062 73.6992 39.4766C73.4883 39.5469 73.2695 39.5977 73.043 39.6289C72.9648 39.6445 72.8906 39.6523 72.8203 39.6523C72.7578 39.6445 72.6914 39.6484 72.6211 39.6641C72.3711 39.7031 72.1055 39.7344 71.8242 39.7578C71.543 39.7812 71.2617 39.8125 70.9805 39.8516C70.6992 39.8828 70.4219 39.9258 70.1484 39.9805C69.8828 40.0273 69.6328 40.0977 69.3984 40.1914C69.375 40.1758 69.3516 40.1602 69.3281 40.1445C69.3047 40.1211 69.2773 40.1094 69.2461 40.1094C69.168 40.1094 69.0938 40.1211 69.0234 40.1445C68.9531 40.168 68.8828 40.1758 68.8125 40.168C68.7344 40.2148 68.6484 40.25 68.5547 40.2734C68.4688 40.2891 68.3789 40.3047 68.2852 40.3203C68.1992 40.3281 68.1133 40.3438 68.0273 40.3672C67.9414 40.3906 67.8594 40.4336 67.7812 40.4961C67.7188 40.4648 67.6406 40.4492 67.5469 40.4492C67.4609 40.4414 67.4023 40.4102 67.3711 40.3555C67.1914 40.4414 67 40.4961 66.7969 40.5195C66.6016 40.543 66.4023 40.5508 66.1992 40.543C66.0664 40.5352 65.9141 40.5156 65.7422 40.4844C65.5703 40.4531 65.3984 40.4102 65.2266 40.3555C65.0547 40.293 64.8945 40.2227 64.7461 40.1445C64.5977 40.0586 64.4844 39.957 64.4062 39.8398C64.3516 39.7617 64.3125 39.6758 64.2891 39.582C64.2656 39.4883 64.2109 39.418 64.125 39.3711C64.1484 39.1914 64.1758 39.0156 64.207 38.8438C64.2383 38.6719 64.2695 38.4961 64.3008 38.3164C64.457 38.1836 64.6055 38.043 64.7461 37.8945C64.8867 37.7461 65.0195 37.5898 65.1445 37.4258C65.293 37.3555 65.4297 37.2695 65.5547 37.168C65.6875 37.0664 65.8164 36.9648 65.9414 36.8633C66.0742 36.7539 66.2031 36.6484 66.3281 36.5469C66.4609 36.4453 66.6016 36.3555 66.75 36.2773C66.7734 36.2227 66.8047 36.1797 66.8438 36.1484C66.8906 36.1094 66.9375 36.0742 66.9844 36.043C67.0312 36.0039 67.0742 35.9648 67.1133 35.9258C67.1523 35.8789 67.1797 35.8242 67.1953 35.7617C67.4688 35.5977 67.707 35.3906 67.9102 35.1406C68.1133 34.8906 68.2461 34.6094 68.3086 34.2969C68.1758 34.1875 68.0234 34.1172 67.8516 34.0859C67.6875 34.0469 67.5156 34.0195 67.3359 34.0039C67.1797 33.9961 67.0156 33.9961 66.8438 34.0039C66.6797 34.0117 66.5117 34.0078 66.3398 33.9922C66.168 34.0469 65.9883 34.082 65.8008 34.0977C65.6211 34.1133 65.4414 34.1289 65.2617 34.1445C65.082 34.1523 64.9023 34.1758 64.7227 34.2148C64.5508 34.2461 64.3828 34.3086 64.2188 34.4023C64.1875 34.4023 64.1562 34.3984 64.125 34.3906C64.1016 34.3828 64.0742 34.3789 64.043 34.3789C63.793 34.3711 63.5586 34.4219 63.3398 34.5312C63.1211 34.6328 62.9062 34.7344 62.6953 34.8359C62.6797 34.8672 62.6719 34.8906 62.6719 34.9062C62.6719 34.9531 62.6797 35 62.6953 35.0469C62.7188 35.0859 62.7305 35.1289 62.7305 35.1758C62.7227 35.1836 62.7188 35.1914 62.7188 35.1992C62.7188 35.207 62.7148 35.2148 62.707 35.2227C62.6992 35.2617 62.6875 35.2969 62.6719 35.3281C62.6641 35.3594 62.6523 35.3945 62.6367 35.4336C62.5508 35.6836 62.5039 35.9297 62.4961 36.1719C62.4883 36.375 62.4883 36.5742 62.4961 36.7695C62.5039 36.9648 62.5039 37.1641 62.4961 37.3672C62.4805 37.6172 62.4414 37.8516 62.3789 38.0703C62.418 38.2578 62.4531 38.457 62.4844 38.668C62.5156 38.8711 62.5547 39.0742 62.6016 39.2773C62.6484 39.4805 62.7031 39.6797 62.7656 39.875C62.8359 40.0625 62.9258 40.2422 63.0352 40.4141C63.0273 40.4297 63.0312 40.4414 63.0469 40.4492C63.0625 40.457 63.0781 40.4609 63.0938 40.4609H63.1875C63.2266 40.4609 63.2422 40.4766 63.2344 40.5078C63.25 40.5312 63.2617 40.5547 63.2695 40.5781C63.2773 40.5938 63.293 40.6094 63.3164 40.625C63.332 40.6484 63.332 40.6797 63.3164 40.7188C63.3086 40.875 63.2695 41.0195 63.1992 41.1523C63.1289 41.2852 63.0859 41.4297 63.0703 41.5859C62.9766 41.6094 62.8906 41.6211 62.8125 41.6211C62.6797 41.6133 62.5625 41.5742 62.4609 41.5039C62.3594 41.4414 62.2656 41.3633 62.1797 41.2695C62.0938 41.1758 62.0117 41.082 61.9336 40.9883C61.8555 40.8867 61.7695 40.8008 61.6758 40.7305C61.6211 40.5117 61.5664 40.2695 61.5117 40.0039C61.4648 39.7383 61.3828 39.5117 61.2656 39.3242C61.2969 39.2539 61.3125 39.168 61.3125 39.0664C61.3203 38.9102 61.3047 38.7578 61.2656 38.6094C61.2344 38.4531 61.2266 38.2969 61.2422 38.1406C61.2422 38.0547 61.25 37.9688 61.2656 37.8828C61.2891 37.7969 61.3047 37.7109 61.3125 37.625C61.3203 37.4922 61.3047 37.3633 61.2656 37.2383C61.2344 37.1133 61.2227 36.9844 61.2305 36.8516C61.2383 36.7891 61.25 36.7305 61.2656 36.6758C61.2891 36.6133 61.3203 36.5586 61.3594 36.5117C61.3203 36.418 61.3086 36.3281 61.3242 36.2422C61.332 36.1094 61.3477 35.9844 61.3711 35.8672C61.3945 35.75 61.4102 35.6328 61.418 35.5156C61.418 35.4531 61.4141 35.3945 61.4062 35.3398C61.3984 35.2773 61.3867 35.2188 61.3711 35.1641L61.2656 35.1289C61.2188 35.1289 61.1719 35.1406 61.125 35.1641C61.0859 35.1875 61.0508 35.2148 61.0195 35.2461C60.9883 35.2773 60.9609 35.3047 60.9375 35.3281C60.9141 35.3438 60.8906 35.3516 60.8672 35.3516C60.8516 35.3516 60.832 35.3516 60.8086 35.3516C60.793 35.3438 60.7773 35.3398 60.7617 35.3398C60.7461 35.3398 60.7148 35.3555 60.668 35.3867C60.6289 35.418 60.5781 35.4531 60.5156 35.4922C60.4609 35.5234 60.4062 35.5586 60.3516 35.5977C60.2969 35.6289 60.2539 35.6484 60.2227 35.6562C60.1367 35.6406 60.0664 35.6133 60.0117 35.5742C59.9648 35.5273 59.918 35.4844 59.8711 35.4453C59.832 35.3984 59.7891 35.3594 59.7422 35.3281C59.6953 35.2891 59.6367 35.2734 59.5664 35.2812C59.543 35.2344 59.5312 35.1836 59.5312 35.1289C59.5234 35.0742 59.5234 35.0195 59.5312 34.9648V34.7773C59.5859 34.6758 59.6602 34.5938 59.7539 34.5312C59.8398 34.4609 59.9336 34.4023 60.0352 34.3555L60.3398 34.2148C60.4414 34.168 60.5352 34.1094 60.6211 34.0391H60.7266C60.8672 34.0469 60.9883 34.0195 61.0898 33.957C61.1992 33.8945 61.3008 33.8242 61.3945 33.7461C61.4883 33.6602 61.582 33.5742 61.6758 33.4883C61.7773 33.4023 61.8867 33.3359 62.0039 33.2891C62.0898 33.3281 62.1797 33.3633 62.2734 33.3945C62.3672 33.418 62.4648 33.4336 62.5664 33.4414C62.668 33.4414 62.7734 33.4258 62.8828 33.3945C62.9922 33.3633 63.0781 33.3047 63.1406 33.2188C63.1797 33.2344 63.2109 33.2461 63.2344 33.2539C63.2656 33.2539 63.3008 33.2539 63.3398 33.2539C63.457 33.2617 63.5742 33.2461 63.6914 33.207C63.8086 33.1602 63.9219 33.1055 64.0312 33.043C64.1875 33.0508 64.3398 33.043 64.4883 33.0195C64.6445 32.9883 64.7969 32.957 64.9453 32.9258C65.1016 32.8945 65.2539 32.8672 65.4023 32.8438C65.5586 32.8125 65.7148 32.8008 65.8711 32.8086C66.1289 32.8164 66.3828 32.793 66.6328 32.7383C66.8828 32.6836 67.1367 32.6641 67.3945 32.6797C67.5742 32.6875 67.75 32.7031 67.9219 32.7266C68.1016 32.7422 68.2812 32.7461 68.4609 32.7383C68.5625 32.7852 68.6523 32.8281 68.7305 32.8672C68.8164 32.8984 68.9219 32.9062 69.0469 32.8906C69.2969 33.1016 69.5234 33.3477 69.7266 33.6289V33.8281C69.7188 34.0078 69.6875 34.1836 69.6328 34.3555C69.5781 34.5273 69.5117 34.6992 69.4336 34.8711C69.3633 35.0352 69.2852 35.1992 69.1992 35.3633C69.1133 35.5195 69.0312 35.6758 68.9531 35.832C68.4453 36.293 67.9375 36.75 67.4297 37.2031C66.9219 37.6562 66.3984 38.0938 65.8594 38.5156C65.8438 38.5938 65.8203 38.6641 65.7891 38.7266C65.7656 38.7891 65.75 38.8555 65.7422 38.9258C65.7422 38.9648 65.7461 38.9961 65.7539 39.0195C65.8086 39.0352 65.8555 39.0664 65.8945 39.1133C65.9414 39.1523 65.957 39.207 65.9414 39.2773H66.0469C66.0859 39.2773 66.1055 39.293 66.1055 39.3242L66.293 39.3359C66.5898 39.3516 66.8867 39.3438 67.1836 39.3125C67.4805 39.2812 67.7773 39.2461 68.0742 39.207C68.3789 39.168 68.6797 39.1328 68.9766 39.1016C69.2734 39.0625 69.5703 39.0391 69.8672 39.0312C69.9375 39.0078 70.0117 38.9883 70.0898 38.9727C70.168 38.957 70.2383 38.9258 70.3008 38.8789H70.3359C70.3906 38.8789 70.4297 38.8945 70.4531 38.9258C70.4844 38.957 70.5273 38.9766 70.582 38.9844C70.6211 38.9844 70.6602 38.9766 70.6992 38.9609C70.7461 38.9453 70.793 38.9336 70.8398 38.9258C70.9492 38.8945 71.0625 38.875 71.1797 38.8672C71.3047 38.8594 71.4258 38.8477 71.543 38.832C71.9961 38.793 72.4453 38.7695 72.8906 38.7617C73.3359 38.7461 73.7812 38.6875 74.2266 38.5859C74.2656 38.6406 74.3203 38.6797 74.3906 38.7031C74.4609 38.7188 74.5352 38.7383 74.6133 38.7617C74.6914 38.7773 74.7617 38.7969 74.8242 38.8203C74.8945 38.8438 74.9414 38.8906 74.9648 38.9609ZM80.3555 40.1445C80.332 40.2539 80.2812 40.3438 80.2031 40.4141C80.1328 40.4766 80.0469 40.5273 79.9453 40.5664C79.8438 40.6055 79.7383 40.6328 79.6289 40.6484C79.5273 40.6562 79.4336 40.6602 79.3477 40.6602C79.3086 40.6602 79.2695 40.6602 79.2305 40.6602C79.1992 40.6523 79.1641 40.6484 79.125 40.6484C79.0859 40.6484 79.0664 40.668 79.0664 40.707C79.0664 40.7461 79.0469 40.7734 79.0078 40.7891C78.9688 40.7734 78.9297 40.7617 78.8906 40.7539C78.8516 40.7461 78.8125 40.7422 78.7734 40.7422C78.7188 40.7422 78.6641 40.7461 78.6094 40.7539C78.5625 40.7617 78.5156 40.7656 78.4688 40.7656C78.4062 40.7656 78.3594 40.7578 78.3281 40.7422C78.3047 40.7266 78.2812 40.7109 78.2578 40.6953C78.2422 40.6719 78.2227 40.6484 78.1992 40.625C78.1836 40.6016 78.1562 40.582 78.1172 40.5664C78.0625 40.543 78.0156 40.5391 77.9766 40.5547C77.9453 40.5703 77.8945 40.5469 77.8242 40.4844C77.7305 40.4062 77.6484 40.3125 77.5781 40.2031C77.5156 40.0859 77.4531 39.9648 77.3906 39.8398C77.3281 39.7148 77.2617 39.5898 77.1914 39.4648C77.1211 39.3398 77.0391 39.2305 76.9453 39.1367H76.8516C76.7109 39.1367 76.6133 39.1953 76.5586 39.3125C76.5195 39.2891 76.4805 39.2617 76.4414 39.2305C76.4023 39.1914 76.3594 39.1602 76.3125 39.1367C76.1328 39.1914 75.9453 39.2383 75.75 39.2773C75.5547 39.3164 75.3594 39.3359 75.1641 39.3359H75C74.9531 39.3359 74.9023 39.3281 74.8477 39.3125C74.7695 39.3438 74.6992 39.3828 74.6367 39.4297C74.5742 39.4688 74.5039 39.4883 74.4258 39.4883C74.3789 39.4883 74.3242 39.4727 74.2617 39.4414C74.2148 39.4414 74.1914 39.4609 74.1914 39.5C74.1992 39.5391 74.1758 39.5586 74.1211 39.5586H74.0156C73.9062 39.5586 73.7969 39.5625 73.6875 39.5703C73.5859 39.5781 73.4805 39.582 73.3711 39.582C73.2227 39.582 73.0703 39.5625 72.9141 39.5234C72.875 39.5469 72.832 39.5586 72.7852 39.5586C72.7539 39.5742 72.7305 39.6016 72.7148 39.6406C72.6992 39.6719 72.6836 39.7031 72.668 39.7344C72.6523 39.7578 72.6289 39.7812 72.5977 39.8047C72.5742 39.8203 72.5391 39.8242 72.4922 39.8164C72.4766 39.9102 72.4375 39.9844 72.375 40.0391C72.3125 40.0938 72.2812 40.1758 72.2812 40.2852C72.1953 40.332 72.125 40.3906 72.0703 40.4609C72.0156 40.5312 71.9609 40.6055 71.9062 40.6836C71.8516 40.7617 71.793 40.8359 71.7305 40.9062C71.6758 40.9766 71.6055 41.0312 71.5195 41.0703C71.4805 41.1172 71.4688 41.1914 71.4844 41.293C71.3984 41.3633 71.293 41.4258 71.168 41.4805C71.043 41.5352 70.9258 41.5625 70.8164 41.5625C70.5898 41.5625 70.4336 41.4414 70.3477 41.1992C70.3477 41.1211 70.3555 41.0391 70.3711 40.9531C70.3789 40.8594 70.3945 40.7734 70.418 40.6953C70.4414 40.6094 70.4766 40.5352 70.5234 40.4727C70.5703 40.4023 70.6367 40.3516 70.7227 40.3203C70.7227 40.25 70.6992 40.2031 70.6523 40.1797C70.6055 40.1484 70.5859 40.0977 70.5938 40.0273C70.8047 39.9258 70.9883 39.793 71.1445 39.6289C71.3008 39.4648 71.4414 39.293 71.5664 39.1133C71.6992 38.9258 71.832 38.7383 71.9648 38.5508C72.0977 38.3633 72.2461 38.1953 72.4102 38.0469V37.8008C72.6445 37.5508 72.7969 37.2695 72.8672 36.957C72.9531 36.9414 73.0078 36.9023 73.0312 36.8398C73.0625 36.7773 73.0781 36.7031 73.0781 36.6172C73.1172 36.6172 73.1406 36.6016 73.1484 36.5703C73.1641 36.5312 73.1992 36.5195 73.2539 36.5352C73.3242 36.3477 73.4023 36.1758 73.4883 36.0195C73.5742 35.8633 73.6602 35.707 73.7461 35.5508C73.832 35.3867 73.9062 35.2188 73.9688 35.0469C74.0391 34.875 74.0898 34.6836 74.1211 34.4727C74.2305 34.4648 74.2891 34.4141 74.2969 34.3203C74.3125 34.2188 74.3281 34.1289 74.3438 34.0508C74.4609 33.9414 74.5469 33.8125 74.6016 33.6641C74.6641 33.5156 74.7188 33.3633 74.7656 33.207C74.8125 33.043 74.8633 32.8828 74.918 32.7266C74.9805 32.5625 75.0664 32.418 75.1758 32.293V32.2578C75.1758 32.2188 75.1602 32.1953 75.1289 32.1875C75.0977 32.1719 75.082 32.1445 75.082 32.1055C75.0898 32.0977 75.0938 32.0898 75.0938 32.082C75.1875 32.043 75.2578 31.9805 75.3047 31.8945C75.3516 31.8008 75.4219 31.7344 75.5156 31.6953C75.6797 31.8281 75.8242 31.9102 75.9492 31.9414C76.0742 31.9648 76.2383 31.9844 76.4414 32C76.543 32.1094 76.5977 32.2422 76.6055 32.3984C76.6211 32.5469 76.6484 32.6953 76.6875 32.8438C76.75 33.0938 76.8164 33.3398 76.8867 33.582C76.9648 33.8164 77.0234 34.0586 77.0625 34.3086C77.0859 34.457 77.1289 34.5977 77.1914 34.7305C77.2539 34.8633 77.2969 35 77.3203 35.1406C77.3359 35.25 77.3359 35.375 77.3203 35.5156C77.3047 35.6484 77.3203 35.7656 77.3672 35.8672L77.4492 36.0547C77.4883 36.1406 77.5195 36.2305 77.543 36.3242C77.5742 36.418 77.6016 36.5117 77.625 36.6055C77.6875 36.8398 77.7422 37.0938 77.7891 37.3672C77.8438 37.6328 77.9258 37.875 78.0352 38.0938C78.0742 38.1719 78.1328 38.2266 78.2109 38.2578C78.2969 38.2891 78.3906 38.3125 78.4922 38.3281C78.5938 38.3359 78.6914 38.3398 78.7852 38.3398C78.8867 38.332 78.9727 38.3281 79.043 38.3281H79.1602C79.207 38.3281 79.2539 38.3359 79.3008 38.3516C79.332 38.4141 79.3477 38.4688 79.3477 38.5156C79.3477 38.6094 79.3164 38.6836 79.2539 38.7383C79.1914 38.793 79.1602 38.8555 79.1602 38.9258C79.1602 38.9648 79.1758 39.0078 79.207 39.0547C79.1758 39.0469 79.1289 39.043 79.0664 39.043C78.8867 39.043 78.7109 39.0742 78.5391 39.1367C78.6016 39.2695 78.6836 39.3828 78.7852 39.4766C78.8945 39.5625 79.0078 39.6445 79.125 39.7227C79.2031 39.6602 79.2852 39.6289 79.3711 39.6289C79.4648 39.6289 79.5508 39.6523 79.6289 39.6992C79.7148 39.7383 79.8047 39.7578 79.8984 39.7578C79.9688 39.7578 80.0195 39.7461 80.0508 39.7227C80.1133 39.793 80.1641 39.8672 80.2031 39.9453C80.2422 40.0156 80.293 40.082 80.3555 40.1445ZM76.6875 38.2695C76.6719 38.1367 76.6445 38.043 76.6055 37.9883C76.5742 37.9258 76.5469 37.8516 76.5234 37.7656C76.4922 37.6562 76.4688 37.5391 76.4531 37.4141C76.4453 37.2891 76.4297 37.168 76.4062 37.0508C76.3516 36.7852 76.2891 36.5195 76.2188 36.2539C76.1562 35.9883 76.0742 35.7305 75.9727 35.4805C76.0039 35.4336 76.0195 35.3906 76.0195 35.3516V35.3164C75.9492 35.2383 75.8984 35.1445 75.8672 35.0352C75.8359 34.918 75.8047 34.8047 75.7734 34.6953C75.75 34.5781 75.7148 34.4727 75.668 34.3789C75.6289 34.2773 75.5625 34.1953 75.4688 34.1328C75.4453 34.1797 75.4336 34.2344 75.4336 34.2969C75.4336 34.3516 75.4375 34.4023 75.4453 34.4492C75.4609 34.4961 75.4688 34.5469 75.4688 34.6016C75.3906 34.6406 75.332 34.7031 75.293 34.7891C75.2617 34.8672 75.207 34.9297 75.1289 34.9766C75.0664 35.2266 74.9766 35.4648 74.8594 35.6914C74.7422 35.9102 74.6172 36.1289 74.4844 36.3477C74.3594 36.5664 74.2383 36.7891 74.1211 37.0156C74.0039 37.2344 73.9102 37.4648 73.8398 37.707C73.7383 37.7773 73.668 37.8672 73.6289 37.9766C73.5977 38.0859 73.582 38.1953 73.582 38.3047C73.6523 38.3438 73.7305 38.3672 73.8164 38.375C73.9102 38.375 74 38.375 74.0859 38.375C74.1719 38.375 74.2539 38.3828 74.332 38.3984C74.4102 38.4141 74.4805 38.4531 74.543 38.5156C74.6445 38.4844 74.7539 38.4648 74.8711 38.457C74.9961 38.4414 75.0977 38.4062 75.1758 38.3516C75.332 38.4062 75.5 38.4336 75.6797 38.4336C75.7734 38.4336 75.8633 38.4258 75.9492 38.4102C76.043 38.3945 76.1328 38.375 76.2188 38.3516C76.2891 38.3672 76.3438 38.3945 76.3828 38.4336C76.4219 38.4648 76.4805 38.4766 76.5586 38.4688C76.5977 38.4375 76.6211 38.4062 76.6289 38.375C76.6367 38.3359 76.6562 38.3008 76.6875 38.2695ZM88.1367 35.2227C88.1367 35.3008 88.1094 35.3516 88.0547 35.375C88 35.3984 87.9727 35.4453 87.9727 35.5156C87.9727 35.5391 87.9805 35.5586 87.9961 35.5742C88.0117 35.5898 88.0195 35.6133 88.0195 35.6445V35.6914C87.9258 36.1445 87.7891 36.5391 87.6094 36.875C87.4375 37.2109 87.2344 37.5195 87 37.8008C86.7656 38.082 86.5 38.3477 86.2031 38.5977C85.9141 38.8477 85.6016 39.1094 85.2656 39.3828C85.1719 39.4609 85.0742 39.5391 84.9727 39.6172C84.8789 39.6953 84.7891 39.7773 84.7031 39.8633L84.4453 40.1094C84.4375 40.1172 84.3945 40.1367 84.3164 40.168C84.2383 40.1914 84.1914 40.207 84.1758 40.2148C84.0664 40.2617 83.9492 40.3164 83.8242 40.3789C83.707 40.4414 83.6055 40.5195 83.5195 40.6133C83.3633 40.6133 83.2305 40.6367 83.1211 40.6836C83.0117 40.7305 82.8906 40.793 82.7578 40.8711C82.7188 40.8711 82.6836 40.8633 82.6523 40.8477C82.6289 40.832 82.6016 40.8164 82.5703 40.8008C82.5391 40.7852 82.5039 40.7773 82.4648 40.7773C82.4336 40.7695 82.3906 40.7734 82.3359 40.7891C82.2422 40.6328 82.1406 40.5 82.0312 40.3906C81.9219 40.2812 81.7734 40.2148 81.5859 40.1914C81.5625 40.0586 81.5078 39.957 81.4219 39.8867C81.3359 39.8086 81.25 39.7266 81.1641 39.6406C81.1484 39.5938 81.1367 39.5391 81.1289 39.4766C81.1211 39.4141 81.1055 39.3555 81.082 39.3008C81.0586 39.2461 81.0273 39.1992 80.9883 39.1602C80.9492 39.1211 80.8945 39.1016 80.8242 39.1016C80.8164 39.0547 80.8359 39.0312 80.8828 39.0312C80.9297 39.0312 80.9531 39.0117 80.9531 38.9727C80.9531 38.9258 80.9453 38.8789 80.9297 38.832C80.9141 38.7852 80.9062 38.7344 80.9062 38.6797C80.9062 38.6406 80.9102 38.6055 80.918 38.5742C80.9258 38.543 80.9375 38.5078 80.9531 38.4688C80.9297 38.2578 80.918 38.043 80.918 37.8242C80.918 37.4023 80.9453 36.9883 81 36.582C81.0625 36.168 81.0938 35.75 81.0938 35.3281C81.0938 35.1406 81.082 34.9531 81.0586 34.7656C81.043 34.5781 81.0078 34.3945 80.9531 34.2148C80.7734 34.2539 80.5938 34.3008 80.4141 34.3555C80.2344 34.4023 80.0664 34.4688 79.9102 34.5547C79.8242 34.5 79.7344 34.4688 79.6406 34.4609C79.5391 34.4453 79.4414 34.4219 79.3477 34.3906C79.293 34.2812 79.2656 34.168 79.2656 34.0508C79.2656 33.9414 79.2852 33.8359 79.3242 33.7344L79.4414 33.4297C79.6289 33.3906 79.8164 33.332 80.0039 33.2539C80.1836 33.1758 80.3672 33.1055 80.5547 33.043C80.6172 33.0273 80.6953 33.0078 80.7891 32.9844C80.8906 32.9609 80.9609 32.9414 81 32.9258C81.0547 32.9023 81.0898 32.8594 81.1055 32.7969C81.1289 32.7266 81.1602 32.668 81.1992 32.6211H81.3984C81.4453 32.6211 81.4961 32.625 81.5508 32.6328C81.6055 32.6328 81.6562 32.6445 81.7031 32.668C81.9844 32.5977 82.2656 32.5547 82.5469 32.5391C82.8281 32.5156 83.1172 32.4844 83.4141 32.4453C83.4453 32.4453 83.4922 32.4414 83.5547 32.4336L83.7539 32.3984C83.8242 32.3828 83.8867 32.3711 83.9414 32.3633C84.0039 32.3477 84.0469 32.3398 84.0703 32.3398C84.0938 32.3398 84.1055 32.3516 84.1055 32.375H84.3047C84.6406 32.375 84.9688 32.418 85.2891 32.5039L86.25 32.7617C86.3828 32.8711 86.5156 32.9766 86.6484 33.0781C86.7812 33.1797 86.9297 33.2695 87.0938 33.3477C87.1328 33.4727 87.1914 33.5742 87.2695 33.6523C87.3555 33.7227 87.4492 33.8008 87.5508 33.8867C87.5898 33.9883 87.6406 34.0977 87.7031 34.2148C87.7734 34.3242 87.8398 34.4375 87.9023 34.5547C87.9648 34.6719 88.0195 34.7891 88.0664 34.9062C88.1133 35.0156 88.1367 35.1211 88.1367 35.2227ZM87.0469 35.3984C86.9609 35.2188 86.8789 35.0312 86.8008 34.8359C86.7227 34.6406 86.625 34.4648 86.5078 34.3086C86.3672 34.2695 86.2227 34.2227 86.0742 34.168C85.9336 34.1055 85.8359 34 85.7812 33.8516C85.7656 33.8594 85.7383 33.8633 85.6992 33.8633C85.6289 33.8633 85.5664 33.8359 85.5117 33.7812C85.457 33.7266 85.3945 33.6914 85.3242 33.6758C85.2617 33.668 85.1758 33.6562 85.0664 33.6406C84.9648 33.625 84.8555 33.6133 84.7383 33.6055C84.6211 33.5977 84.5039 33.5898 84.3867 33.582C84.2773 33.5742 84.1914 33.5703 84.1289 33.5703C84.0664 33.5703 84 33.5742 83.9297 33.582C83.8672 33.582 83.8008 33.5859 83.7305 33.5938C83.668 33.5938 83.6289 33.6055 83.6133 33.6289C83.5977 33.6445 83.5664 33.6602 83.5195 33.6758C83.4805 33.6602 83.4375 33.6523 83.3906 33.6523H83.25C83.0859 33.6523 82.9219 33.6797 82.7578 33.7344C82.6016 33.7812 82.4453 33.8477 82.2891 33.9336V33.9805C82.2891 34.043 82.3164 34.0781 82.3711 34.0859C82.4258 34.0938 82.457 34.125 82.4648 34.1797C82.4258 34.1797 82.3945 34.1836 82.3711 34.1914C82.3477 34.1914 82.3359 34.2188 82.3359 34.2734C82.3359 34.3516 82.3438 34.4375 82.3594 34.5312C82.3828 34.625 82.3945 34.7188 82.3945 34.8125C82.3945 34.8828 82.3867 34.9648 82.3711 35.0586C82.3555 35.1523 82.3164 35.2266 82.2539 35.2812C82.332 35.3516 82.3711 35.4453 82.3711 35.5625C82.3711 35.6406 82.3555 35.7227 82.3242 35.8086C82.293 35.8945 82.2539 35.9688 82.207 36.0312C82.1914 36.3594 82.1602 36.6914 82.1133 37.0273C82.0664 37.3633 82.043 37.6953 82.043 38.0234C82.043 38.1875 82.0508 38.3477 82.0664 38.5039C82.0898 38.6602 82.125 38.8164 82.1719 38.9727C82.2578 39.0586 82.3477 39.125 82.4414 39.1719C82.543 39.2188 82.6484 39.2656 82.7578 39.3125V39.3477C82.7578 39.3711 82.7422 39.3945 82.7109 39.418C82.6797 39.4414 82.6641 39.4727 82.6641 39.5117C82.6641 39.543 82.6797 39.5586 82.7109 39.5586C83.0391 39.4648 83.3477 39.3516 83.6367 39.2188C83.9258 39.0859 84.1953 38.9062 84.4453 38.6797C84.4688 38.6562 84.4922 38.6445 84.5156 38.6445C84.5312 38.6445 84.5508 38.6484 84.5742 38.6562C84.6055 38.6641 84.6328 38.6719 84.6562 38.6797L84.6445 38.6328C84.6445 38.5859 84.6562 38.543 84.6797 38.5039C84.7109 38.4648 84.7461 38.4297 84.7852 38.3984L84.9023 38.293C84.9414 38.2539 84.9727 38.2148 84.9961 38.1758C85.0586 38.1602 85.1016 38.1289 85.125 38.082C85.1562 38.0352 85.207 38.0117 85.2773 38.0117C85.293 37.9258 85.3359 37.8633 85.4062 37.8242C85.4766 37.7773 85.5195 37.7109 85.5352 37.625C85.6914 37.5391 85.8281 37.4336 85.9453 37.3086C86.0703 37.1836 86.1836 37.0508 86.2852 36.9102C86.3945 36.7695 86.4961 36.625 86.5898 36.4766C86.6836 36.3203 86.7812 36.1719 86.8828 36.0312V35.9844C86.8828 35.8594 86.9023 35.7578 86.9414 35.6797C86.9883 35.6016 87.0234 35.5078 87.0469 35.3984ZM91.1836 39.3945C91.1445 39.457 91.0977 39.5156 91.043 39.5703C90.9883 39.6172 90.9375 39.668 90.8906 39.7227C90.8359 39.7461 90.7734 39.7578 90.7031 39.7578C90.6406 39.7578 90.5781 39.7578 90.5156 39.7578C90.4609 39.75 90.4062 39.75 90.3516 39.7578C90.3047 39.7578 90.2656 39.7734 90.2344 39.8047C90.1719 39.7891 90.125 39.7617 90.0938 39.7227C90.0625 39.6758 90.0078 39.6484 89.9297 39.6406C89.8984 39.6328 89.8672 39.6328 89.8359 39.6406C89.7188 39.5078 89.6094 39.3672 89.5078 39.2188C89.4141 39.0703 89.3242 38.9297 89.2383 38.7969C89.2305 38.5078 89.207 38.2148 89.168 37.918C89.1602 37.8477 89.1484 37.7773 89.1328 37.707C89.1172 37.6367 89.1055 37.5703 89.0977 37.5078C89.0977 37.4297 89.1016 37.3555 89.1094 37.2852C89.125 37.207 89.1367 37.1367 89.1445 37.0742C89.1758 36.8477 89.2109 36.625 89.25 36.4062C89.2891 36.1875 89.3242 35.9648 89.3555 35.7383C89.3867 35.5352 89.4023 35.3242 89.4023 35.1055C89.4023 34.8789 89.3672 34.668 89.2969 34.4727L89.2852 34.4141C89.3008 34.3516 89.3164 34.3008 89.332 34.2617C89.3555 34.2148 89.3711 34.1641 89.3789 34.1094C89.3945 34.0234 89.375 33.9609 89.3203 33.9219C89.3438 33.8594 89.3828 33.8203 89.4375 33.8047C89.4922 33.7812 89.5234 33.7344 89.5312 33.6641C89.5391 33.6328 89.5391 33.6016 89.5312 33.5703C89.5938 33.5469 89.6562 33.5273 89.7188 33.5117C89.7891 33.4883 89.8555 33.4844 89.918 33.5C90.0195 33.5156 90.1094 33.5508 90.1875 33.6055C90.2656 33.6523 90.3398 33.707 90.4102 33.7695C90.5352 34.1445 90.5859 34.543 90.5625 34.9648C90.5391 35.3789 90.5 35.7969 90.4453 36.2188C90.3906 36.6406 90.3555 37.0547 90.3398 37.4609C90.3242 37.8594 90.3867 38.2305 90.5273 38.5742L90.5508 38.5859C90.5898 38.5938 90.6211 38.582 90.6445 38.5508C90.668 38.5117 90.6992 38.4961 90.7383 38.5039C90.7695 38.5195 90.7891 38.5273 90.7969 38.5273C90.8281 38.6836 90.8789 38.832 90.9492 38.9727C91.0195 39.1133 91.0977 39.2539 91.1836 39.3945ZM99.7148 33.5469V33.5938C99.6602 33.6094 99.6328 33.6484 99.6328 33.7109C99.5469 33.75 99.457 33.7812 99.3633 33.8047C99.2695 33.8203 99.1797 33.8477 99.0938 33.8867C99.0078 33.8789 98.918 33.875 98.8242 33.875C98.7383 33.8672 98.6523 33.8633 98.5664 33.8633C98.332 33.8633 98.0977 33.8711 97.8633 33.8867C97.6289 33.9023 97.3945 33.9023 97.1602 33.8867C97.0508 33.9492 96.9297 34 96.7969 34.0391C96.6719 34.0703 96.5508 34.0859 96.4336 34.0859C96.3398 34.0859 96.2578 34.0742 96.1875 34.0508C96 34.1445 95.793 34.2227 95.5664 34.2852C95.3477 34.3477 95.125 34.4102 94.8984 34.4727C94.6719 34.5273 94.4531 34.5938 94.2422 34.6719C94.0391 34.7422 93.8594 34.8438 93.7031 34.9766C93.6875 35.0859 93.6758 35.1953 93.668 35.3047C93.6602 35.4062 93.6562 35.5078 93.6562 35.6094C93.6562 35.7188 93.6602 35.8203 93.668 35.9141C93.6836 36.0078 93.7109 36.1016 93.75 36.1953C93.7891 36.2109 93.832 36.2227 93.8789 36.2305C93.9336 36.2383 93.9805 36.2422 94.0195 36.2422C94.0586 36.2422 94.0977 36.2383 94.1367 36.2305C94.1758 36.2148 94.2031 36.1875 94.2188 36.1484C94.3359 36.1328 94.4531 36.1289 94.5703 36.1367C94.6875 36.1367 94.8047 36.1367 94.9219 36.1367C95.0391 36.1367 95.1523 36.1328 95.2617 36.125C95.3789 36.1172 95.4922 36.0977 95.6016 36.0664C95.7266 36.0352 95.8477 36.0156 95.9648 36.0078C96.0898 36 96.2109 35.9922 96.3281 35.9844C96.4453 35.9766 96.5664 35.9648 96.6914 35.9492C96.8164 35.9258 96.9453 35.8828 97.0781 35.8203C97.1797 35.8594 97.2812 35.8789 97.3828 35.8789C97.4922 35.8789 97.5977 35.8867 97.6992 35.9023C97.7539 35.9414 97.7969 35.9844 97.8281 36.0312C97.8672 36.0781 97.8867 36.1328 97.8867 36.1953C97.8867 36.3047 97.8477 36.4141 97.7695 36.5234C97.6914 36.6328 97.6289 36.7344 97.582 36.8281H97.4531C97.2656 36.8281 97.082 36.8555 96.9023 36.9102C96.7305 36.957 96.5547 37.0156 96.375 37.0859C96.2031 37.1484 96.0273 37.207 95.8477 37.2617C95.6758 37.3086 95.4961 37.332 95.3086 37.332C95.2773 37.332 95.2578 37.3516 95.25 37.3906C95.25 37.4219 95.2422 37.4453 95.2266 37.4609C95.1875 37.4531 95.1289 37.4492 95.0508 37.4492C94.8711 37.4492 94.6992 37.4688 94.5352 37.5078C94.3711 37.5469 94.2031 37.5664 94.0312 37.5664C93.9844 37.5664 93.9375 37.5664 93.8906 37.5664C93.8438 37.5586 93.7969 37.5508 93.75 37.543C93.7109 37.6055 93.6602 37.6484 93.5977 37.6719C93.5352 37.6875 93.4766 37.7188 93.4219 37.7656C93.3984 37.8359 93.3828 37.9219 93.375 38.0234C93.375 38.125 93.3711 38.2305 93.3633 38.3398C93.3633 38.4414 93.3555 38.5391 93.3398 38.6328C93.3242 38.7266 93.293 38.8008 93.2461 38.8555C93.2539 38.8945 93.2852 38.9102 93.3398 38.9023C93.3945 38.8867 93.4219 38.9102 93.4219 38.9727C93.4219 39.043 93.4141 39.1172 93.3984 39.1953C93.3828 39.2734 93.375 39.3516 93.375 39.4297C93.375 39.5781 93.3906 39.7422 93.4219 39.9219C93.4609 40.0938 93.5156 40.2539 93.5859 40.4023C93.6641 40.5508 93.7656 40.6758 93.8906 40.7773C94.0156 40.8711 94.1719 40.918 94.3594 40.918C94.4844 40.918 94.6016 40.8945 94.7109 40.8477C94.8203 40.8008 94.9102 40.7227 94.9805 40.6133L95.0391 40.6016C95.0703 40.6016 95.0977 40.6055 95.1211 40.6133C95.1523 40.6211 95.1836 40.625 95.2148 40.625C95.2617 40.625 95.3203 40.5977 95.3906 40.543C95.4688 40.4805 95.5508 40.4102 95.6367 40.332C95.7305 40.2539 95.8242 40.1797 95.918 40.1094C96.0117 40.0312 96.1016 39.9766 96.1875 39.9453C96.2422 39.8359 96.293 39.7266 96.3398 39.6172C96.3945 39.5078 96.4727 39.4219 96.5742 39.3594V39.0195C96.6523 38.9336 96.7344 38.8555 96.8203 38.7852C96.9141 38.7148 96.9844 38.625 97.0312 38.5156C97.0703 38.5312 97.1055 38.543 97.1367 38.5508C97.1758 38.5586 97.2148 38.5625 97.2539 38.5625C97.293 38.5625 97.332 38.5586 97.3711 38.5508C97.418 38.543 97.4609 38.5312 97.5 38.5156C97.5625 38.6016 97.6094 38.6992 97.6406 38.8086C97.6797 38.9102 97.7266 39.0078 97.7812 39.1016C97.7109 39.2422 97.6289 39.4102 97.5352 39.6055C97.4414 39.8008 97.3398 39.9961 97.2305 40.1914C97.1211 40.3867 97.0039 40.5742 96.8789 40.7539C96.7617 40.9258 96.6445 41.0586 96.5273 41.1523C96.5039 41.1758 96.4531 41.2031 96.375 41.2344C96.2891 41.2969 96.2109 41.3555 96.1406 41.4102C96.0703 41.4727 96.0039 41.543 95.9414 41.6211C95.7148 41.6914 95.4961 41.7852 95.2852 41.9023C95.082 42.0195 94.8789 42.1328 94.6758 42.2422C94.582 42.2188 94.4805 42.207 94.3711 42.207C94.2773 42.207 94.1836 42.2109 94.0898 42.2188C93.9961 42.2344 93.8945 42.2422 93.7852 42.2422C93.7539 42.2031 93.707 42.1758 93.6445 42.1602C93.5898 42.1523 93.5703 42.1133 93.5859 42.043C93.3203 42.0273 93.1055 41.9531 92.9414 41.8203C92.7773 41.6953 92.6367 41.5391 92.5195 41.3516C92.4102 41.1641 92.3203 40.9609 92.25 40.7422C92.1797 40.5234 92.1055 40.3125 92.0273 40.1094V40.0742C92.0273 40.0352 92.043 40.0117 92.0742 40.0039C92.1055 39.9961 92.1211 39.9727 92.1211 39.9336C92.1211 39.918 92.1172 39.9062 92.1094 39.8984C92.0859 39.8125 92.0664 39.7383 92.0508 39.6758C92.0352 39.6133 92.0273 39.5391 92.0273 39.4531C92.0273 39.3281 92.0352 39.207 92.0508 39.0898C92.0664 38.9648 92.0742 38.8398 92.0742 38.7148C92.0742 38.5898 92.0586 38.4805 92.0273 38.3867C92.0586 38.3477 92.0859 38.2969 92.1094 38.2344C92.125 38.1641 92.1367 38.0938 92.1445 38.0234C92.1523 37.9531 92.1562 37.8828 92.1562 37.8125C92.1641 37.7422 92.1758 37.6797 92.1914 37.625C92.1602 37.5391 92.1328 37.4648 92.1094 37.4023C92.0859 37.332 92.0742 37.25 92.0742 37.1562V37.0742C92.1523 36.9414 92.2188 36.8047 92.2734 36.6641C92.3281 36.5234 92.3867 36.3789 92.4492 36.2305V36.1953C92.4492 35.9688 92.4414 35.7422 92.4258 35.5156C92.4102 35.2891 92.4023 35.0625 92.4023 34.8359V34.6133C92.4023 34.5352 92.4062 34.4609 92.4141 34.3906C92.4766 34.3594 92.5234 34.3164 92.5547 34.2617C92.5859 34.207 92.6328 34.1641 92.6953 34.1328H93.082L93.1523 34.0156C93.1758 33.9766 93.1914 33.9336 93.1992 33.8867C93.2852 33.8633 93.3672 33.832 93.4453 33.793C93.5312 33.7461 93.6094 33.6992 93.6797 33.6523C93.7891 33.5898 93.8867 33.5352 93.9727 33.4883C94.0664 33.4336 94.1562 33.3906 94.2422 33.3594C94.3359 33.3203 94.4336 33.2891 94.5352 33.2656C94.6367 33.2422 94.7539 33.2227 94.8867 33.207C94.9492 33.207 94.9883 33.1953 95.0039 33.1719C95.0273 33.1484 95.0586 33.1211 95.0977 33.0898C95.1914 33.1055 95.2852 33.1211 95.3789 33.1367C95.4727 33.1445 95.5664 33.1484 95.6602 33.1484C95.8477 33.1484 96.0234 33.1133 96.1875 33.043C96.4219 33.043 96.6523 33.0391 96.8789 33.0312C97.1133 33.0234 97.3477 33.0195 97.582 33.0195C97.7852 33.0195 97.9883 33.0273 98.1914 33.043C98.3945 33.0586 98.5938 33.0859 98.7891 33.125C98.8594 33.1016 98.9375 33.0898 99.0234 33.0898C99.1172 33.0898 99.2109 33.1016 99.3047 33.125C99.4062 33.1406 99.5039 33.1406 99.5977 33.125C99.6055 33.2109 99.625 33.2852 99.6562 33.3477C99.6953 33.4023 99.7148 33.4688 99.7148 33.5469ZM106.863 33.3008C106.848 33.3945 106.824 33.4766 106.793 33.5469C106.77 33.6094 106.766 33.6953 106.781 33.8047C106.703 33.8125 106.641 33.8398 106.594 33.8867C106.555 33.9258 106.52 33.9727 106.488 34.0273C106.465 34.082 106.438 34.1406 106.406 34.2031C106.383 34.2578 106.352 34.3086 106.312 34.3555C106.375 34.6367 106.41 34.9219 106.418 35.2109C106.426 35.5 106.445 35.7852 106.477 36.0664C106.516 36.4258 106.574 36.7812 106.652 37.1328C106.738 37.4766 106.781 37.8281 106.781 38.1875C106.781 38.2969 106.777 38.3984 106.77 38.4922C106.77 38.5859 106.77 38.6836 106.77 38.7852C106.77 38.8477 106.77 38.9141 106.77 38.9844C106.777 39.0469 106.781 39.1094 106.781 39.1719C106.781 39.3984 106.75 39.625 106.688 39.8516C106.633 40.0781 106.59 40.3047 106.559 40.5312C106.465 40.6172 106.383 40.7109 106.312 40.8125C106.25 40.9141 106.184 41.0078 106.113 41.0938C106.043 41.1797 105.961 41.2539 105.867 41.3164C105.773 41.3867 105.656 41.4336 105.516 41.457C105.492 41.5352 105.445 41.5938 105.375 41.6328C105.312 41.6719 105.258 41.7266 105.211 41.7969H105.188C104.992 41.7969 104.824 41.7695 104.684 41.7148C104.543 41.6602 104.41 41.5977 104.285 41.5273C104.168 41.457 104.047 41.3828 103.922 41.3047C103.797 41.2266 103.652 41.1641 103.488 41.1172C103.27 40.9375 103.07 40.7422 102.891 40.5312C102.711 40.3125 102.508 40.1172 102.281 39.9453C102.227 39.7891 102.152 39.6602 102.059 39.5586C101.973 39.457 101.887 39.3398 101.801 39.207C101.762 39.1523 101.73 39.1016 101.707 39.0547C101.691 39.0078 101.668 38.9531 101.637 38.8906C101.613 38.8281 101.574 38.7852 101.52 38.7617C101.473 38.7383 101.43 38.7109 101.391 38.6797C101.328 38.4375 101.238 38.2148 101.121 38.0117C101.004 37.8086 100.867 37.6133 100.711 37.4258C100.664 37.5117 100.625 37.6055 100.594 37.707C100.57 37.8008 100.547 37.8984 100.523 38C100.5 38.0938 100.469 38.1914 100.43 38.293C100.398 38.3867 100.355 38.4727 100.301 38.5508V38.5859C100.301 38.625 100.316 38.6484 100.348 38.6562C100.379 38.6641 100.395 38.6875 100.395 38.7266C100.395 38.7344 100.391 38.7422 100.383 38.75C100.383 38.7578 100.383 38.7656 100.383 38.7734C100.344 38.8047 100.312 38.8438 100.289 38.8906C100.273 38.9375 100.234 38.9648 100.172 38.9727C100.18 39.0117 100.184 39.0508 100.184 39.0898V39.1953C100.184 39.4219 100.156 39.6484 100.102 39.875C100.055 40.1016 100.031 40.332 100.031 40.5664V40.7188C100.031 40.7734 100.035 40.8242 100.043 40.8711C100.059 40.918 100.082 40.9648 100.113 41.0117C100.145 41.0586 100.16 41.1016 100.16 41.1406C100.16 41.1953 100.137 41.2461 100.09 41.293C100.145 41.332 100.207 41.375 100.277 41.4219C100.348 41.4688 100.41 41.5195 100.465 41.5742C100.527 41.6367 100.578 41.6992 100.617 41.7617C100.656 41.832 100.676 41.9062 100.676 41.9844C100.676 42.1172 100.633 42.2109 100.547 42.2656C100.461 42.3203 100.355 42.3633 100.23 42.3945C100.113 42.4258 99.9883 42.4531 99.8555 42.4766C99.7305 42.5078 99.625 42.5586 99.5391 42.6289H99.5039C99.4102 42.6289 99.3398 42.6016 99.293 42.5469C99.2461 42.4922 99.1758 42.4648 99.082 42.4648C98.9336 42.2227 98.832 41.9492 98.7773 41.6445C98.7227 41.3477 98.6953 41.0625 98.6953 40.7891C98.6953 40.4531 98.7266 40.1172 98.7891 39.7812C98.8438 39.4453 98.9141 39.1133 99 38.7852C99.0781 38.457 99.1641 38.1328 99.2578 37.8125C99.3594 37.4844 99.4531 37.1562 99.5391 36.8281L99.5508 36.793C99.5508 36.7539 99.5391 36.7266 99.5156 36.7109C99.5 36.6953 99.4922 36.6719 99.4922 36.6406C99.4922 36.625 99.4961 36.6172 99.5039 36.6172C99.5273 36.5391 99.5508 36.4648 99.5742 36.3945C99.6055 36.3242 99.6289 36.2461 99.6445 36.1602C99.6914 35.9414 99.7227 35.7188 99.7383 35.4922C99.7617 35.2578 99.7734 35.0273 99.7734 34.8008C99.7812 34.5742 99.7891 34.3477 99.7969 34.1211C99.8125 33.8867 99.8398 33.6562 99.8789 33.4297C99.9414 33.3672 100 33.3008 100.055 33.2305C100.109 33.1602 100.18 33.0977 100.266 33.043C100.422 33.0508 100.578 33.0742 100.734 33.1133C100.891 33.1523 101.039 33.2148 101.18 33.3008C101.273 33.6367 101.336 33.9727 101.367 34.3086C101.406 34.6445 101.469 34.9805 101.555 35.3164V35.3516C101.555 35.3906 101.574 35.4102 101.613 35.4102C101.66 35.4023 101.695 35.4141 101.719 35.4453C101.703 35.4688 101.691 35.4961 101.684 35.5273C101.684 35.5586 101.684 35.5898 101.684 35.6211V35.8203C101.699 35.8828 101.719 35.9492 101.742 36.0195C101.766 36.0898 101.816 36.1328 101.895 36.1484C101.934 36.3984 101.992 36.6289 102.07 36.8398C102.148 37.0508 102.238 37.2539 102.34 37.4492C102.441 37.6445 102.551 37.8398 102.668 38.0352C102.785 38.2227 102.906 38.4219 103.031 38.6328C103.227 38.7812 103.395 38.9531 103.535 39.1484C103.676 39.3359 103.816 39.5195 103.957 39.6992C104.105 39.8711 104.27 40.0234 104.449 40.1562C104.637 40.2891 104.879 40.3711 105.176 40.4023C105.215 40.3711 105.242 40.3281 105.258 40.2734L105.316 40.1094C105.34 40.0547 105.363 40.0078 105.387 39.9688C105.418 39.9219 105.461 39.8867 105.516 39.8633C105.531 39.6445 105.547 39.4219 105.562 39.1953C105.586 38.9688 105.637 38.7539 105.715 38.5508C105.676 38.4805 105.656 38.3945 105.656 38.293C105.656 38.2148 105.66 38.1406 105.668 38.0703C105.684 38 105.691 37.9297 105.691 37.8594C105.691 37.7109 105.66 37.5898 105.598 37.4961C105.598 37.4414 105.602 37.3867 105.609 37.332C105.617 37.2695 105.641 37.2109 105.68 37.1562C105.617 37 105.566 36.8359 105.527 36.6641C105.496 36.4922 105.48 36.3164 105.48 36.1367C105.48 36.0352 105.492 35.9297 105.516 35.8203C105.469 35.7031 105.438 35.5664 105.422 35.4102L105.375 34.9297C105.359 34.7656 105.336 34.6133 105.305 34.4727C105.273 34.332 105.215 34.2188 105.129 34.1328C105.176 34.0625 105.199 33.9805 105.199 33.8867C105.199 33.7305 105.176 33.582 105.129 33.4414C105.082 33.3008 105.059 33.1523 105.059 32.9961C105.059 32.8867 105.082 32.7773 105.129 32.668C105.301 32.6758 105.469 32.6953 105.633 32.7266C105.805 32.75 105.973 32.7617 106.137 32.7617C106.184 32.8242 106.238 32.875 106.301 32.9141C106.363 32.9531 106.43 32.9922 106.5 33.0312C106.57 33.0625 106.637 33.0977 106.699 33.1367C106.77 33.1758 106.824 33.2305 106.863 33.3008ZM118.125 33.4648C118.094 33.5664 118.043 33.6602 117.973 33.7461L117.773 33.9922C117.711 34.0703 117.656 34.1562 117.609 34.25C117.57 34.3359 117.559 34.4375 117.574 34.5547C117.559 34.5547 117.539 34.5547 117.516 34.5547C117.492 34.5469 117.473 34.543 117.457 34.543C117.332 34.543 117.234 34.5742 117.164 34.6367C117.102 34.6914 117.016 34.7383 116.906 34.7773C116.891 34.7305 116.871 34.6875 116.848 34.6484C116.824 34.6016 116.789 34.5703 116.742 34.5547C116.555 34.5938 116.367 34.625 116.18 34.6484C115.992 34.6641 115.805 34.6875 115.617 34.7188C115.531 34.7344 115.445 34.7578 115.359 34.7891C115.273 34.8125 115.184 34.8359 115.09 34.8594C115.043 34.875 114.992 34.8828 114.938 34.8828C114.883 34.875 114.828 34.875 114.773 34.8828C114.586 34.8906 114.383 34.9062 114.164 34.9297C113.945 34.9453 113.75 35.0039 113.578 35.1055C113.5 35.0898 113.418 35.0781 113.332 35.0703C113.246 35.0625 113.16 35.0586 113.074 35.0586C112.887 35.0586 112.68 35.0781 112.453 35.1172C112.234 35.1484 112.039 35.2148 111.867 35.3164C111.828 35.3008 111.785 35.2891 111.738 35.2812C111.699 35.2734 111.652 35.2695 111.598 35.2695C111.582 35.2695 111.57 35.2734 111.562 35.2812C111.555 35.2812 111.543 35.2812 111.527 35.2812C111.52 35.3516 111.527 35.4219 111.551 35.4922C111.582 35.5547 111.633 35.6055 111.703 35.6445C111.672 35.7305 111.656 35.8242 111.656 35.9258C111.656 36.0586 111.664 36.1914 111.68 36.3242C111.703 36.457 111.715 36.5898 111.715 36.7227C111.715 36.8711 111.695 36.9883 111.656 37.0742C111.734 37.3086 111.773 37.5586 111.773 37.8242C111.773 37.918 111.766 38.0117 111.75 38.1055C111.742 38.1914 111.738 38.2852 111.738 38.3867C111.738 38.4727 111.77 38.543 111.832 38.5977C111.895 38.6445 111.926 38.7109 111.926 38.7969C111.926 38.8281 111.918 38.8594 111.902 38.8906C112.012 38.8672 112.117 38.8359 112.219 38.7969C112.32 38.75 112.426 38.7266 112.535 38.7266C112.598 38.7266 112.656 38.7383 112.711 38.7617C112.773 38.7852 112.828 38.8164 112.875 38.8555C112.867 38.8945 112.859 38.9375 112.852 38.9844C112.852 39.0312 112.852 39.0781 112.852 39.125C112.852 39.2109 112.852 39.293 112.852 39.3711C112.859 39.4414 112.867 39.5195 112.875 39.6055C112.812 39.7148 112.738 39.8125 112.652 39.8984C112.574 39.9844 112.52 40.0938 112.488 40.2266C112.371 40.2266 112.266 40.2539 112.172 40.3086C112.086 40.3555 112.004 40.4102 111.926 40.4727C111.848 40.5273 111.77 40.582 111.691 40.6367C111.613 40.6836 111.527 40.707 111.434 40.707C111.316 40.707 111.234 40.6914 111.188 40.6602C111.141 40.6211 111.105 40.582 111.082 40.543C111.059 40.5039 111.035 40.4688 111.012 40.4375C110.996 40.4062 110.957 40.3945 110.895 40.4023C110.879 40.3008 110.848 40.207 110.801 40.1211C110.754 40.0273 110.703 39.9375 110.648 39.8516C110.602 39.7656 110.551 39.6797 110.496 39.5938C110.449 39.5 110.414 39.4062 110.391 39.3125C110.344 39.1094 110.324 38.8984 110.332 38.6797C110.34 38.4609 110.305 38.25 110.227 38.0469C110.242 37.9375 110.254 37.8281 110.262 37.7188C110.27 37.6016 110.273 37.4883 110.273 37.3789C110.273 37.1602 110.266 36.9453 110.25 36.7344C110.242 36.5156 110.234 36.293 110.227 36.0664C110.172 35.9961 110.137 35.918 110.121 35.832C110.113 35.7383 110.105 35.6484 110.098 35.5625C110.074 35.5391 110.047 35.5156 110.016 35.4922C109.992 35.4688 109.977 35.4375 109.969 35.3984C109.906 35.3828 109.859 35.375 109.828 35.375C109.719 35.375 109.625 35.4023 109.547 35.457C109.477 35.5039 109.41 35.5273 109.348 35.5273C109.285 35.5273 109.227 35.5195 109.172 35.5039C109.117 35.4883 109.062 35.4805 109.008 35.4805C108.961 35.4805 108.934 35.4922 108.926 35.5156C108.926 35.5312 108.91 35.5469 108.879 35.5625C108.855 35.5781 108.801 35.5938 108.715 35.6094C108.629 35.625 108.531 35.6406 108.422 35.6562C108.32 35.6641 108.219 35.6719 108.117 35.6797C108.023 35.6875 107.961 35.6914 107.93 35.6914C107.805 35.6914 107.711 35.668 107.648 35.6211C107.578 35.5664 107.496 35.5078 107.402 35.4453C107.418 35.3984 107.426 35.3672 107.426 35.3516C107.426 35.2734 107.402 35.2109 107.355 35.1641C107.309 35.1094 107.285 35.0625 107.285 35.0234C107.285 34.9375 107.32 34.8711 107.391 34.8242C107.453 34.7773 107.488 34.7031 107.496 34.6016C107.676 34.5234 107.859 34.4648 108.047 34.4258C108.234 34.3867 108.426 34.3555 108.621 34.332C108.816 34.3086 109.008 34.2812 109.195 34.25C109.391 34.2188 109.582 34.168 109.77 34.0977C109.824 34.1055 109.875 34.1133 109.922 34.1211C109.977 34.1211 110.031 34.1211 110.086 34.1211C110.32 34.1211 110.551 34.0977 110.777 34.0508C111.012 33.9961 111.25 33.9688 111.492 33.9688C111.555 33.9688 111.617 33.9727 111.68 33.9805C111.742 33.9883 111.805 34 111.867 34.0156C112.18 33.9688 112.488 33.918 112.793 33.8633C113.105 33.8086 113.426 33.7617 113.754 33.7227C113.91 33.707 114.062 33.6953 114.211 33.6875C114.367 33.6719 114.523 33.6523 114.68 33.6289C114.734 33.6211 114.773 33.6094 114.797 33.5938C114.828 33.5703 114.844 33.5273 114.844 33.4648C114.914 33.4961 114.992 33.5117 115.078 33.5117C115.211 33.5117 115.34 33.4883 115.465 33.4414C115.59 33.3945 115.719 33.3711 115.852 33.3711C115.883 33.3711 115.91 33.375 115.934 33.3828C115.957 33.3828 115.98 33.3828 116.004 33.3828C116.059 33.3828 116.086 33.3594 116.086 33.3125C116.094 33.2578 116.133 33.2227 116.203 33.207C116.258 33.1914 116.336 33.1797 116.438 33.1719C116.539 33.1641 116.645 33.1562 116.754 33.1484C116.871 33.1328 116.977 33.1172 117.07 33.1016C117.172 33.0781 117.246 33.0469 117.293 33.0078L117.375 32.8789C117.516 32.8867 117.617 32.9492 117.68 33.0664C117.75 33.1758 117.789 33.2969 117.797 33.4297C117.828 33.4609 117.871 33.4766 117.926 33.4766C117.988 33.4688 118.043 33.4648 118.09 33.4648H118.125Z" fill="#FFFEFE"/>
</svg>
