<svg width="121" height="46" viewBox="0 0 121 46" fill="none" xmlns="http://www.w3.org/2000/svg">
<path fill-rule="evenodd" clip-rule="evenodd" d="M21.7886 13.6335C21.8507 13.6505 21.8875 13.8458 21.8703 14.0675C21.843 14.4189 21.7814 14.5066 21.3905 14.7519C21.1439 14.9066 20.9592 15.0602 20.9801 15.0935C21.001 15.1266 20.9604 15.1899 20.89 15.2341C20.8195 15.2783 20.7098 15.4319 20.6461 15.5755C20.5375 15.8198 20.522 15.8292 20.4037 15.7228C20.2388 15.5747 19.8817 15.91 19.6834 16.3993C19.6042 16.5947 19.4626 16.8027 19.3689 16.8614C19.2752 16.9202 19.1657 17.0646 19.1255 17.1824C19.0316 17.4576 18.7451 17.6384 18.6481 17.4836C18.6053 17.4154 18.4425 17.669 18.2689 18.0743C17.9571 18.8025 17.9327 19.039 18.1983 18.7583C18.3025 18.6481 18.3811 18.6514 18.4549 18.7691C18.5135 18.8624 18.6259 18.8982 18.7048 18.8487C18.8163 18.7788 18.8298 18.8003 18.7654 18.9453C18.7198 19.048 18.7166 19.1863 18.7583 19.2527C18.8172 19.3467 18.8525 19.3319 18.9169 19.1869C19.0335 18.9242 19.4153 18.7066 19.5059 18.8511C19.5475 18.9175 19.6338 18.9391 19.6975 18.8991C19.7611 18.8592 19.7494 18.7923 19.6713 18.7504C19.5933 18.7085 19.5327 18.522 19.5366 18.336C19.5458 17.9061 19.9655 17.5057 20.3552 17.555C20.6208 17.5885 20.6347 17.5799 20.7526 17.3102C20.8198 17.1563 20.8209 17.0156 20.7549 16.9977C20.5453 16.94 20.8953 16.7931 21.3153 16.7623C21.5381 16.746 21.7668 16.7035 21.8237 16.6678C21.8806 16.6321 21.8817 16.5305 21.8261 16.4419C21.7401 16.3047 21.8049 16.2309 22.2631 15.9434C22.559 15.7578 22.8183 15.6335 22.8394 15.667C22.8605 15.7007 23.0208 15.7048 23.1958 15.6762C23.4277 15.6383 23.4724 15.6129 23.3613 15.5823C23.2443 15.5501 23.3409 15.4783 23.7752 15.2742C24.0868 15.1277 24.6197 14.8235 24.9592 14.5982C25.3296 14.3524 25.5981 14.2224 25.6302 14.2735C25.6595 14.3203 25.7879 14.2932 25.9156 14.2131C26.0433 14.133 26.2045 14.0831 26.274 14.1022C26.3436 14.1213 26.4375 14.0847 26.4827 14.0208C26.5279 13.957 26.5903 13.9452 26.6214 13.9947C26.6547 14.0478 26.7224 14.0195 26.7864 13.9258C26.9695 13.6579 27.4732 13.3939 27.7846 13.4027C27.9598 13.4076 28.1495 13.3379 28.2501 13.2315C28.3744 13.1 28.4219 13.0963 28.427 13.2176C28.4323 13.3438 28.4957 13.3329 28.6912 13.1721C28.8532 13.0388 29.0873 12.9606 29.3243 12.9607C29.5312 12.9606 29.8032 12.8962 29.9286 12.8176C30.054 12.7389 30.483 12.5491 30.8819 12.3958C31.3858 12.2021 31.6338 12.1579 31.6939 12.251C31.7587 12.3512 31.7888 12.3434 31.8131 12.22C31.8519 12.0242 32.3948 11.8205 32.7592 11.8649C32.8864 11.8805 33.0524 11.8277 33.1281 11.7477C33.2037 11.6677 33.5339 11.6109 33.8618 11.6215C34.2407 11.6339 34.5277 11.5778 34.6496 11.4677C34.7551 11.3725 35.0064 11.2947 35.2083 11.2946C35.4102 11.2946 35.6477 11.2493 35.7359 11.194C35.9379 11.0672 37.7234 10.7924 38.2619 10.8051C38.4839 10.8103 38.7119 10.7856 38.7687 10.7499C38.8254 10.7143 39.0085 10.6896 39.1757 10.695C39.3426 10.7004 39.7435 10.6821 40.0664 10.6543C40.3892 10.6266 40.6955 10.6709 40.7469 10.7528C40.8064 10.8477 40.8914 10.8477 40.9812 10.7528C41.1654 10.5582 43.1969 10.6033 43.6329 10.8118C43.8204 10.9015 44.0504 10.9145 44.1658 10.8421C44.422 10.6814 44.9296 10.7814 45.0807 11.0224C45.144 11.1232 45.2503 11.1715 45.317 11.1297C45.5409 10.9892 46.4712 11.1314 46.7091 11.3425C46.8386 11.4574 47.0373 11.5221 47.1505 11.4862C47.2998 11.4387 47.3763 11.5006 47.429 11.7118C47.4889 11.9515 47.5296 11.9733 47.66 11.8355C47.7624 11.7273 47.8459 11.7125 47.8968 11.7936C47.9401 11.8626 48.0692 11.9005 48.1838 11.878C48.2983 11.8555 48.4561 11.8979 48.5344 11.9722C48.6127 12.0465 48.774 12.113 48.8928 12.1199C49.0118 12.1269 49.1415 12.1844 49.1811 12.2476C49.2208 12.3109 49.3103 12.3269 49.3799 12.2832C49.4515 12.2383 49.4932 12.2731 49.4759 12.3632C49.4192 12.659 49.8319 12.918 50.7499 13.1627C50.9805 13.2242 51.2281 13.4175 51.3885 13.6613C51.5441 13.8979 51.8241 14.1206 52.0781 14.21C52.5507 14.3763 52.8454 14.7531 52.8671 15.2187C52.877 15.432 52.9244 15.5081 53.025 15.4726C53.1256 15.4371 53.1607 15.4937 53.1421 15.6611C53.1231 15.8315 53.1727 15.9074 53.3145 15.9247C53.4626 15.9427 53.4876 16.0076 53.4121 16.1775C53.3364 16.3482 53.3597 16.4078 53.5037 16.4125C53.6479 16.4171 53.6609 16.4413 53.5549 16.5078C53.4767 16.5569 53.4693 16.7634 53.5383 16.9669C53.6141 17.1902 53.5988 17.3778 53.4998 17.4399C53.3852 17.5118 53.4041 17.6517 53.5631 17.905C53.7465 18.1974 53.7496 18.2922 53.5795 18.396C53.2853 18.5756 52.7581 18.616 52.9299 18.4457C53.0105 18.3658 52.978 18.2104 52.845 18.0389C52.7265 17.8863 52.685 17.7266 52.7529 17.684C52.9194 17.5796 52.4911 16.9183 52.163 16.7734C51.9534 16.681 51.9045 16.5791 51.9238 16.2755C51.9402 16.0161 51.8964 15.9025 51.7871 15.9208C51.6986 15.9356 51.6367 15.8911 51.6494 15.8217C51.6622 15.7524 51.4483 15.6453 51.1742 15.5835C50.7523 15.4886 50.6773 15.4282 50.6855 15.1903C50.6936 14.956 50.6704 14.9353 50.5467 15.0661C50.4119 15.2086 50.1258 15.1387 49.9253 14.9141C49.89 14.8746 49.735 14.7792 49.5808 14.7022C49.4266 14.6253 49.2697 14.5133 49.2322 14.4534C49.1946 14.3936 49.0851 14.3685 48.9889 14.3975C48.8544 14.4382 48.837 14.4138 48.9135 14.2925C48.9846 14.1801 48.8451 14.1309 48.4287 14.1218C48.0311 14.113 47.8368 14.0481 47.8212 13.919C47.8077 13.8063 47.66 13.7201 47.4579 13.7069C46.9241 13.6717 46.6886 13.3898 46.894 13.0318C47.0433 12.7715 47.0381 12.7471 46.8573 12.8585C46.7416 12.9296 46.6124 12.9329 46.5702 12.8656C46.5136 12.7754 46.4235 12.8057 46.2263 12.9813C46.0642 13.1258 45.9313 13.1879 45.8882 13.1394C45.8492 13.0956 45.7812 13.0318 45.7369 12.9979C45.6926 12.9639 45.6271 12.9041 45.5911 12.865C45.5551 12.8259 45.4449 12.8444 45.3463 12.9063C45.2477 12.9682 45.1429 12.9804 45.1135 12.9335C45.0841 12.8867 45.1215 12.838 45.1967 12.8254C45.2719 12.8129 45.2623 12.7496 45.1754 12.6849C45.0885 12.6202 44.9647 12.6207 44.9001 12.686C44.7523 12.8357 44.2844 12.8804 44.1395 12.7586C44.0791 12.7079 43.9002 12.6789 43.7421 12.6939C43.5348 12.7138 43.4398 12.6505 43.402 12.467C43.359 12.2585 43.3301 12.2478 43.2426 12.4079C43.1579 12.5625 42.9214 12.604 42.1062 12.6074C41.5399 12.6097 41.0488 12.5661 41.0148 12.5103C40.9807 12.4546 40.9094 12.4361 40.8564 12.4694C40.7026 12.5659 39.2022 12.5394 39.1393 12.4391C39.1079 12.3891 38.916 12.3428 38.7126 12.3362C38.4679 12.3283 38.3948 12.352 38.4964 12.4066C38.7703 12.5536 38.4076 12.7586 37.8749 12.7578C37.5891 12.7573 37.2091 12.7986 37.0306 12.8494C36.5497 12.9865 36.1218 13.0456 35.9425 12.9996C35.8552 12.9773 35.6923 13.0163 35.5805 13.0864C35.4687 13.1564 35.1642 13.2212 34.9036 13.2305C34.6431 13.2397 34.3309 13.3094 34.2096 13.3856C34.0883 13.4616 33.955 13.4695 33.9134 13.4031C33.8655 13.3268 33.7234 13.3539 33.5273 13.477C33.3567 13.584 33.0403 13.7071 32.8242 13.7504C32.6082 13.7938 32.1313 13.9181 31.7641 14.0268C31.397 14.1355 31.0732 14.1868 31.0445 14.141C31.0157 14.0951 30.8903 14.1215 30.7659 14.1996C30.6414 14.2776 30.4753 14.307 30.3966 14.2648C30.318 14.2226 30.1921 14.2531 30.1169 14.3327C30.0417 14.4122 29.8091 14.532 29.6 14.5988C29.2989 14.6952 29.2102 14.6741 29.1731 14.4975C29.1472 14.3749 29.1237 14.3393 29.1206 14.4183C29.1141 14.5899 28.7225 14.8547 28.5466 14.8064C28.4782 14.7876 28.3025 14.8433 28.1563 14.9302C28.0101 15.0171 27.9461 15.0277 28.0144 14.9538C28.187 14.7667 28.0835 14.6482 27.8664 14.7844C27.7678 14.8462 27.6651 14.8617 27.6381 14.8188C27.6113 14.776 27.5216 14.8124 27.439 14.8997C27.2623 15.0865 27.3661 15.3226 27.569 15.1953C27.6456 15.1472 27.6878 15.1541 27.6628 15.2106C27.6378 15.267 27.4681 15.3152 27.2857 15.3176C27.0981 15.32 26.9794 15.3622 27.0125 15.4148C27.0839 15.5287 26.6547 15.8122 26.4824 15.7648C26.4139 15.746 26.2536 15.7961 26.1259 15.8762C25.9547 15.9836 25.8549 15.9652 25.7456 15.8063L25.5972 15.5908L25.6145 15.8722C25.6284 16.0989 25.5678 16.1831 25.3027 16.3053C25.1217 16.3889 24.9146 16.4255 24.8423 16.3867C24.7701 16.3479 24.6763 16.3654 24.6338 16.4254C24.5913 16.4854 24.4233 16.5635 24.2604 16.5989C24.0572 16.6431 23.9808 16.6899 24.0171 16.7478C24.0824 16.8519 23.0441 17.3767 22.8612 17.3318C22.7921 17.3149 22.6853 17.3722 22.6237 17.4591C22.5517 17.5608 22.5213 17.5659 22.5383 17.4736C22.5736 17.2821 21.405 18.0897 21.298 18.3307C21.1868 18.5811 20.7664 18.8243 20.7587 18.6427C20.7542 18.5381 20.6524 18.5611 20.4097 18.7214C20.2213 18.8459 20.0936 18.9902 20.1258 19.042C20.1581 19.0938 20.1875 19.2082 20.1913 19.296C20.1958 19.4036 20.3354 19.4089 20.618 19.3122C21.07 19.1576 21.1709 19.1999 21.0418 19.4905C20.9786 19.6329 21.0535 19.6325 21.3702 19.4887C21.5959 19.3861 21.856 19.3119 21.9482 19.3239C22.2442 19.3618 22.8007 20.206 22.6091 20.3262C22.4096 20.4513 21.8632 20.1638 21.8919 19.9488C21.9274 19.6843 21.7709 19.7902 21.6905 20.0851C21.6311 20.3031 21.5946 20.3243 21.0887 20.4346C20.7224 20.5144 20.483 20.4934 20.3405 20.3688C20.2128 20.257 20.0816 20.2378 20.0044 20.3195C19.841 20.4922 19.5523 20.2811 19.6502 20.0606C19.7403 19.8578 19.2853 19.8788 18.7902 20.1002C18.3909 20.2787 17.862 20.0889 17.9599 19.8022C18.0078 19.6617 17.9876 19.6352 17.8826 19.7011C17.7969 19.7548 17.7308 19.7109 17.7163 19.5905C17.7031 19.4805 17.6216 19.4024 17.5354 19.4168C17.2891 19.4581 17.2223 19.241 17.4438 19.1193C17.6755 18.992 17.7975 18.5722 17.6045 18.5659C17.5326 18.5636 17.4572 18.6463 17.4368 18.7499C17.4103 18.8852 17.3811 18.9093 17.3329 18.8354C17.1914 18.6184 17.4995 17.9163 17.8939 17.5563C18.1271 17.3436 18.2655 17.1394 18.2228 17.0712C18.1408 16.9406 18.3104 16.795 18.4877 16.8437C18.5503 16.8609 18.5454 16.9357 18.4769 17.01C18.3923 17.1016 18.4121 17.1102 18.5388 17.0367C18.6415 16.9771 18.8096 16.7971 18.9125 16.6365C19.0321 16.4499 19.1204 16.3776 19.1572 16.4363C19.1889 16.4868 19.272 16.4701 19.3421 16.3992C19.4121 16.3283 19.421 16.2243 19.3617 16.1682C19.2313 16.0449 19.3507 15.8222 19.7715 15.4037C20.0292 15.1475 20.1267 15.0987 20.3031 15.1381C20.4952 15.181 20.5084 15.1675 20.4226 15.0169C20.2295 14.6777 20.67 14.1953 21.1225 14.2505C21.3264 14.2754 21.3702 14.2407 21.5139 13.9405C21.6028 13.7546 21.7265 13.6164 21.7886 13.6335ZM22.4856 13.5477C22.612 13.5277 22.6571 13.5633 22.6027 13.6401C22.5539 13.709 22.4494 13.7304 22.3701 13.6879C22.2038 13.5985 22.2096 13.5914 22.4856 13.5477ZM22.5408 16.6947C22.6087 16.7294 22.6074 16.667 22.5379 16.5563C22.4685 16.4456 22.413 16.4174 22.4146 16.4935C22.4161 16.5697 22.4729 16.6603 22.5408 16.6947ZM24.7027 15.9305C24.7551 15.9322 24.7939 15.8456 24.789 15.738C24.7818 15.5826 24.7624 15.5819 24.6938 15.7349C24.6463 15.8409 24.6504 15.9289 24.7027 15.9305ZM28.984 14.1393C29.0636 14.182 29.1498 14.2036 29.1756 14.1874C29.2015 14.1712 29.1885 14.1036 29.1469 14.0372C29.1052 13.9708 29.019 13.9491 28.9553 13.9891C28.8917 14.029 28.9046 14.0966 28.984 14.1393ZM28.3827 14.5937C28.4611 14.634 28.4774 14.5971 28.4243 14.4997C28.3763 14.4117 28.3182 14.3819 28.2953 14.4335C28.2724 14.4851 28.3117 14.5573 28.3827 14.5937ZM50.8369 14.8262C50.856 15.016 51.084 14.8306 51.0756 14.6318C51.0711 14.5255 51.0213 14.5054 50.9462 14.5799C50.8792 14.6464 50.8299 14.7572 50.8369 14.8262Z" fill="#FFFEFE"/>
<path fill-rule="evenodd" clip-rule="evenodd" d="M3.29877 23.773C3.3362 23.7859 3.36497 23.9097 3.36274 24.0482C3.35916 24.2676 3.32583 24.3204 3.10299 24.4602C2.9624 24.5484 2.8585 24.6381 2.87205 24.6598C2.88567 24.6813 2.86389 24.7195 2.82375 24.7447C2.78354 24.7699 2.72402 24.8623 2.69144 24.9501C2.63587 25.0995 2.62705 25.1048 2.55309 25.0338C2.45007 24.935 2.25052 25.1325 2.15055 25.4323C2.11065 25.552 2.03421 25.6774 1.98079 25.7109C1.92736 25.7444 1.86767 25.8311 1.84806 25.9035C1.80229 26.0728 1.63903 26.1759 1.57596 26.0753C1.54817 26.031 1.46081 26.1842 1.37251 26.4322C1.21385 26.8778 1.2079 27.0253 1.35518 26.8587C1.413 26.7933 1.45967 26.7982 1.50764 26.8747C1.54568 26.9353 1.61358 26.9618 1.65856 26.9336C1.72214 26.8937 1.7309 26.9077 1.69794 26.9964C1.67462 27.0591 1.67769 27.1458 1.70477 27.1889C1.74306 27.25 1.76342 27.242 1.79639 27.1533C1.85606 26.9928 2.07447 26.87 2.13334 26.9638C2.16041 27.007 2.21227 27.0236 2.2486 27.0009C2.28485 26.9781 2.27553 26.9357 2.22776 26.9066C2.18005 26.8775 2.13742 26.7584 2.13307 26.6419C2.12307 26.3725 2.3574 26.1364 2.59013 26.1813C2.74872 26.2119 2.75665 26.207 2.81681 26.0421C2.85111 25.9479 2.84668 25.8597 2.80697 25.8461C2.6807 25.8024 2.88283 25.7228 3.13059 25.7186C3.26203 25.7163 3.39603 25.6979 3.42847 25.6775C3.46091 25.6572 3.45788 25.5935 3.42179 25.5359C3.36587 25.4468 3.40161 25.4028 3.66282 25.2389C3.83148 25.1331 3.9807 25.0644 3.99439 25.0863C4.0081 25.1081 4.10326 25.1164 4.2059 25.1048C4.34197 25.0893 4.36756 25.075 4.30061 25.0518C4.23014 25.0274 4.28478 24.9859 4.53483 24.8734C4.71422 24.7927 5.01905 24.621 5.21218 24.4919C5.42284 24.351 5.57727 24.2791 5.59811 24.3123C5.61717 24.3427 5.69229 24.3303 5.76507 24.2846C5.83785 24.239 5.93162 24.2135 5.97348 24.228C6.0154 24.2424 6.0697 24.2229 6.09419 24.1844C6.11871 24.146 6.15527 24.1408 6.17546 24.173C6.19708 24.2075 6.23621 24.1922 6.27078 24.1357C6.36967 23.9742 6.65868 23.8267 6.84349 23.8434C6.94749 23.8528 7.05737 23.8158 7.11319 23.7527C7.18211 23.6747 7.21013 23.6741 7.21753 23.7504C7.22521 23.8297 7.26233 23.8251 7.37241 23.7313C7.46367 23.6535 7.59953 23.6129 7.74002 23.6214C7.8626 23.6288 8.02145 23.5981 8.09293 23.5533C8.16442 23.5085 8.41182 23.4048 8.64271 23.3229C8.93434 23.2195 9.07971 23.2007 9.11865 23.2613C9.16065 23.3264 9.17821 23.3226 9.18822 23.2461C9.20418 23.1247 9.51857 23.0164 9.73607 23.0573C9.81201 23.0716 9.90847 23.0445 9.95047 22.997C9.99241 22.9496 10.186 22.9258 10.3807 22.9442C10.6057 22.9656 10.7737 22.9407 10.842 22.876C10.9011 22.8201 11.0472 22.7803 11.1669 22.7875C11.2865 22.7947 11.4256 22.7748 11.4759 22.7433C11.591 22.671 12.6392 22.5627 12.9587 22.59C13.0905 22.6012 13.2247 22.5939 13.257 22.5736C13.2894 22.5533 13.397 22.5443 13.4962 22.5537C13.5954 22.5631 13.8322 22.566 14.0226 22.5602C14.2129 22.5544 14.396 22.5932 14.4294 22.6464C14.4681 22.708 14.5184 22.7111 14.5682 22.6548C14.6704 22.5393 15.8758 22.6405 16.1416 22.7869C16.256 22.8499 16.3927 22.8664 16.4585 22.8251C16.6046 22.7334 16.9089 22.8144 17.0071 22.971C17.0482 23.0365 17.1129 23.0706 17.151 23.0468C17.2786 22.9667 17.835 23.0892 17.9835 23.2302C18.0644 23.307 18.1844 23.3546 18.2502 23.3362C18.337 23.3118 18.3845 23.3533 18.4233 23.4877C18.4675 23.6402 18.4923 23.6553 18.5647 23.5735C18.6215 23.5093 18.6704 23.503 18.7035 23.5558C18.7316 23.6006 18.8095 23.629 18.8766 23.619C18.9436 23.609 19.0387 23.6413 19.0877 23.6907C19.1368 23.7401 19.2348 23.7876 19.3054 23.7962C19.3761 23.8048 19.4551 23.8456 19.4808 23.8866C19.5066 23.9277 19.5602 23.941 19.5999 23.9161C19.6407 23.8905 19.6666 23.9138 19.6596 23.9697C19.6367 24.1532 19.8905 24.3305 20.4433 24.517C20.5821 24.5638 20.7357 24.6939 20.8396 24.8526C20.9403 25.0066 21.1141 25.1563 21.2679 25.2215C21.5539 25.3428 21.7421 25.5897 21.7716 25.8825C21.7851 26.0167 21.8159 26.0661 21.8743 26.0474C21.9326 26.0288 21.9555 26.0656 21.9505 26.1699C21.9453 26.2761 21.9774 26.3255 22.062 26.3414C22.1504 26.358 22.1676 26.3996 22.129 26.5035C22.0903 26.6079 22.1062 26.6461 22.1917 26.6542C22.2773 26.6623 22.2858 26.6779 22.2254 26.7158C22.1808 26.7438 22.1839 26.8731 22.2321 27.0032C22.285 27.1459 22.2827 27.2631 22.2262 27.2985C22.1609 27.3395 22.1771 27.4279 22.2804 27.5925C22.3996 27.7825 22.4049 27.8421 22.3078 27.9011C22.1399 28.0032 21.829 28.0096 21.9246 27.909C21.9695 27.8617 21.9447 27.7631 21.8597 27.6507C21.784 27.5507 21.7537 27.4491 21.7924 27.4248C21.8873 27.3653 21.6098 26.9351 21.4102 26.8325C21.2827 26.767 21.2501 26.7013 21.2506 26.5116C21.251 26.3495 21.2209 26.2766 21.1568 26.2842C21.1049 26.2903 21.0666 26.2601 21.0717 26.2171C21.0768 26.1741 20.9462 26.0992 20.7816 26.0506C20.5282 25.976 20.4815 25.9354 20.4778 25.7864C20.4742 25.6398 20.4598 25.6259 20.3912 25.7035C20.3164 25.7881 20.1444 25.734 20.0175 25.5859C19.9951 25.5598 19.8999 25.4944 19.8057 25.4406C19.7116 25.3869 19.6146 25.311 19.5902 25.2721C19.5658 25.2332 19.5 25.2135 19.444 25.2283C19.3658 25.249 19.3546 25.233 19.3956 25.1597C19.4337 25.0917 19.3493 25.0559 19.1022 25.0352C18.8663 25.0155 18.7488 24.9678 18.735 24.8862C18.7229 24.8151 18.6323 24.7557 18.5121 24.7401C18.1945 24.6989 18.0448 24.5136 18.1537 24.2964C18.2328 24.1385 18.2289 24.1231 18.1257 24.1864C18.0598 24.2269 17.9833 24.2243 17.9559 24.1806C17.9191 24.122 17.8668 24.1377 17.7562 24.2408C17.6654 24.3256 17.5888 24.3598 17.5616 24.3279C17.5369 24.299 17.4943 24.2565 17.4668 24.2336C17.4394 24.2108 17.3984 24.1709 17.3757 24.1451C17.3529 24.1192 17.2883 24.1269 17.2321 24.1622C17.1759 24.1975 17.1142 24.2014 17.0951 24.1709C17.076 24.1405 17.0964 24.1113 17.1406 24.1061C17.1846 24.1009 17.1767 24.0609 17.1229 24.0172C17.0691 23.9735 16.9957 23.9693 16.9598 24.008C16.8776 24.0966 16.6019 24.1078 16.5117 24.0262C16.4741 23.9923 16.367 23.9677 16.2739 23.9714C16.1518 23.9765 16.0932 23.9333 16.0642 23.8169C16.0312 23.6845 16.0138 23.6768 15.9676 23.7741C15.923 23.868 15.7843 23.8856 15.3014 23.8584C14.9659 23.8396 14.6733 23.7946 14.6512 23.7584C14.629 23.7222 14.5861 23.7081 14.5558 23.7271C14.4682 23.782 13.5782 23.7116 13.5373 23.6464C13.5169 23.6139 13.4015 23.578 13.2807 23.5666C13.1355 23.5528 13.093 23.5651 13.1551 23.603C13.3227 23.705 13.1152 23.8205 12.7995 23.8009C12.6301 23.7904 12.4064 23.8026 12.3025 23.8281C12.0224 23.8968 11.771 23.9185 11.6631 23.8833C11.6106 23.8662 11.5154 23.8848 11.4517 23.9247C11.388 23.9646 11.2098 23.9944 11.0558 23.9908C10.9018 23.9872 10.7192 24.0198 10.6501 24.0632C10.581 24.1065 10.5023 24.1067 10.4752 24.0635C10.4441 24.014 10.3609 24.0259 10.2491 24.0961C10.1518 24.1571 9.96872 24.2229 9.84225 24.2423C9.71581 24.2618 9.43766 24.3227 9.22402 24.3777C9.01038 24.4327 8.82035 24.4532 8.80167 24.4235C8.78297 24.3937 8.70961 24.4057 8.63867 24.4502C8.56773 24.4947 8.47034 24.5072 8.42223 24.4779C8.37412 24.4486 8.30059 24.4632 8.25889 24.5104C8.21717 24.5576 8.08365 24.6244 7.96215 24.6588C7.7872 24.7084 7.73388 24.692 7.70553 24.5799C7.68579 24.5021 7.67057 24.4789 7.67158 24.5284C7.6739 24.6358 7.45135 24.7878 7.34539 24.7512C7.30417 24.737 7.20209 24.7656 7.11856 24.8149C7.03503 24.8641 6.9975 24.8685 7.0353 24.8246C7.13087 24.7134 7.06529 24.6353 6.94154 24.713C6.88532 24.7482 6.82501 24.7543 6.80752 24.7264C6.79006 24.6986 6.73825 24.7182 6.6924 24.77C6.59441 24.8808 6.66439 25.0326 6.78004 24.9601C6.82372 24.9327 6.849 24.9385 6.83621 24.973C6.82339 25.0075 6.72454 25.0316 6.61656 25.0266C6.50548 25.0214 6.4367 25.0436 6.45817 25.0778C6.5046 25.1518 6.26041 25.3142 6.15659 25.2783C6.11537 25.264 6.02217 25.2897 5.94939 25.3354C5.8518 25.3966 5.79199 25.3815 5.72149 25.2779L5.62586 25.1374L5.64619 25.3145C5.66257 25.4572 5.62968 25.5079 5.47695 25.575C5.37271 25.6209 5.2513 25.6365 5.20706 25.6095C5.16292 25.5826 5.10795 25.5902 5.08492 25.6263C5.06188 25.6624 4.96511 25.7054 4.86988 25.7218C4.75107 25.7422 4.70747 25.7688 4.73104 25.8064C4.7735 25.8741 4.17703 26.166 4.06706 26.1313C4.02552 26.1182 3.96426 26.1503 3.93087 26.2026C3.89187 26.2638 3.87404 26.2659 3.88081 26.2086C3.89487 26.0898 3.23138 26.5544 3.17661 26.7018C3.11973 26.8548 2.8793 26.9923 2.86824 26.8781C2.86184 26.8123 2.8023 26.8231 2.66428 26.9149C2.55708 26.9862 2.48658 27.0722 2.50751 27.1058C2.52854 27.1395 2.55009 27.2123 2.55548 27.2675C2.56201 27.3352 2.64493 27.3435 2.80887 27.293C3.07119 27.2122 3.13246 27.2424 3.06643 27.42C3.03407 27.5071 3.07842 27.5095 3.26095 27.4307C3.39101 27.3745 3.5425 27.3372 3.59753 27.3481C3.77428 27.3825 4.13435 27.9319 4.02511 28.0004C3.91137 28.0718 3.57729 27.8718 3.58659 27.738C3.59813 27.5734 3.50921 27.6342 3.47216 27.8163C3.44475 27.9509 3.42388 27.9629 3.12806 28.0139C2.91392 28.0508 2.77126 28.029 2.68238 27.9458C2.60269 27.8711 2.52426 27.8543 2.48143 27.9028C2.39083 28.0052 2.21218 27.8625 2.26228 27.7277C2.30835 27.6037 2.03951 27.6005 1.75406 27.7217C1.52388 27.8193 1.20368 27.6813 1.25138 27.505C1.27474 27.4185 1.26178 27.4012 1.20195 27.4387C1.15309 27.4694 1.11238 27.4395 1.09942 27.3634C1.08766 27.2939 1.0366 27.2421 0.986 27.248C0.841536 27.2651 0.794181 27.1265 0.921082 27.0581C1.0538 26.9866 1.11101 26.7276 0.996415 26.7168C0.953708 26.7127 0.912013 26.7619 0.90367 26.8261C0.892799 26.9101 0.876345 26.9241 0.845142 26.876C0.753538 26.7348 0.910871 26.3055 1.13167 26.0939C1.26223 25.9688 1.33694 25.8457 1.30915 25.8014C1.25592 25.7165 1.35115 25.6313 1.45799 25.6682C1.49569 25.6812 1.49546 25.7279 1.45753 25.7721C1.41069 25.8265 1.42275 25.8326 1.49519 25.7911C1.55391 25.7574 1.64706 25.6505 1.70224 25.5535C1.76646 25.4407 1.81616 25.3985 1.84008 25.4367C1.86066 25.4695 1.90933 25.462 1.94834 25.42C1.98724 25.378 1.98879 25.3131 1.95161 25.2758C1.86995 25.1938 1.9327 25.0584 2.16705 24.811C2.31057 24.6595 2.36659 24.6324 2.47251 24.6635C2.58789 24.6972 2.59524 24.6893 2.53896 24.5917C2.41236 24.372 2.65611 24.0853 2.92619 24.1361C3.04789 24.1591 3.07261 24.1388 3.147 23.9557C3.19302 23.8423 3.26137 23.76 3.29877 23.773ZM3.70869 23.7442C3.78288 23.7362 3.81089 23.7601 3.78142 23.8064C3.75499 23.8478 3.69381 23.8575 3.6453 23.828C3.54352 23.7659 3.54676 23.7617 3.70869 23.7442ZM3.85436 25.7202C3.89582 25.7443 3.89281 25.7052 3.84769 25.6332C3.80257 25.5613 3.76865 25.5416 3.77232 25.5894C3.77595 25.6373 3.81287 25.6961 3.85436 25.7202ZM5.10797 25.3184C5.13907 25.3213 5.15895 25.2684 5.15221 25.2007C5.14239 25.103 5.13085 25.1019 5.09568 25.1954C5.07134 25.2601 5.07691 25.3155 5.10797 25.3184ZM7.58067 24.3485C7.62935 24.3781 7.68121 24.3948 7.69593 24.3855C7.71065 24.3763 7.70056 24.3334 7.67349 24.2903C7.64642 24.2471 7.59456 24.2304 7.55823 24.2532C7.52198 24.276 7.53207 24.3188 7.58067 24.3485ZM7.24064 24.6119C7.28854 24.64 7.29691 24.6175 7.26195 24.5545C7.23029 24.4975 7.19485 24.4767 7.18312 24.5083C7.17139 24.5398 7.19725 24.5865 7.24064 24.6119ZM20.5545 25.5635C20.5726 25.6832 20.7011 25.5751 20.689 25.4501C20.6825 25.3833 20.6523 25.3689 20.6104 25.4129C20.5731 25.4522 20.5479 25.5199 20.5545 25.5635Z" fill="#000A18"/>
<path d="M27.8633 28.3008C27.8477 28.3945 27.8242 28.4766 27.793 28.5469C27.7695 28.6094 27.7656 28.6953 27.7812 28.8047C27.7031 28.8125 27.6406 28.8398 27.5938 28.8867C27.5547 28.9258 27.5195 28.9727 27.4883 29.0273C27.4648 29.082 27.4375 29.1406 27.4062 29.2031C27.3828 29.2578 27.3516 29.3086 27.3125 29.3555C27.375 29.6367 27.4102 29.9219 27.418 30.2109C27.4258 30.5 27.4453 30.7852 27.4766 31.0664C27.5156 31.4258 27.5742 31.7812 27.6523 32.1328C27.7383 32.4766 27.7812 32.8281 27.7812 33.1875C27.7812 33.2969 27.7773 33.3984 27.7695 33.4922C27.7695 33.5859 27.7695 33.6836 27.7695 33.7852C27.7695 33.8477 27.7695 33.9141 27.7695 33.9844C27.7773 34.0469 27.7812 34.1094 27.7812 34.1719C27.7812 34.3984 27.75 34.625 27.6875 34.8516C27.6328 35.0781 27.5898 35.3047 27.5586 35.5312C27.4648 35.6172 27.3828 35.7109 27.3125 35.8125C27.25 35.9141 27.1836 36.0078 27.1133 36.0938C27.043 36.1797 26.9609 36.2539 26.8672 36.3164C26.7734 36.3867 26.6562 36.4336 26.5156 36.457C26.4922 36.5352 26.4453 36.5938 26.375 36.6328C26.3125 36.6719 26.2578 36.7266 26.2109 36.7969H26.1875C25.9922 36.7969 25.8242 36.7695 25.6836 36.7148C25.543 36.6602 25.4102 36.5977 25.2852 36.5273C25.168 36.457 25.0469 36.3828 24.9219 36.3047C24.7969 36.2266 24.6523 36.1641 24.4883 36.1172C24.2695 35.9375 24.0703 35.7422 23.8906 35.5312C23.7109 35.3125 23.5078 35.1172 23.2812 34.9453C23.2266 34.7891 23.1523 34.6602 23.0586 34.5586C22.9727 34.457 22.8867 34.3398 22.8008 34.207C22.7617 34.1523 22.7305 34.1016 22.707 34.0547C22.6914 34.0078 22.668 33.9531 22.6367 33.8906C22.6133 33.8281 22.5742 33.7852 22.5195 33.7617C22.4727 33.7383 22.4297 33.7109 22.3906 33.6797C22.3281 33.4375 22.2383 33.2148 22.1211 33.0117C22.0039 32.8086 21.8672 32.6133 21.7109 32.4258C21.6641 32.5117 21.625 32.6055 21.5938 32.707C21.5703 32.8008 21.5469 32.8984 21.5234 33C21.5 33.0938 21.4688 33.1914 21.4297 33.293C21.3984 33.3867 21.3555 33.4727 21.3008 33.5508V33.5859C21.3008 33.625 21.3164 33.6484 21.3477 33.6562C21.3789 33.6641 21.3945 33.6875 21.3945 33.7266C21.3945 33.7344 21.3906 33.7422 21.3828 33.75C21.3828 33.7578 21.3828 33.7656 21.3828 33.7734C21.3438 33.8047 21.3125 33.8438 21.2891 33.8906C21.2734 33.9375 21.2344 33.9648 21.1719 33.9727C21.1797 34.0117 21.1836 34.0508 21.1836 34.0898V34.1953C21.1836 34.4219 21.1562 34.6484 21.1016 34.875C21.0547 35.1016 21.0312 35.332 21.0312 35.5664V35.7188C21.0312 35.7734 21.0352 35.8242 21.043 35.8711C21.0586 35.918 21.082 35.9648 21.1133 36.0117C21.1445 36.0586 21.1602 36.1016 21.1602 36.1406C21.1602 36.1953 21.1367 36.2461 21.0898 36.293C21.1445 36.332 21.207 36.375 21.2773 36.4219C21.3477 36.4688 21.4102 36.5195 21.4648 36.5742C21.5273 36.6367 21.5781 36.6992 21.6172 36.7617C21.6562 36.832 21.6758 36.9062 21.6758 36.9844C21.6758 37.1172 21.6328 37.2109 21.5469 37.2656C21.4609 37.3203 21.3555 37.3633 21.2305 37.3945C21.1133 37.4258 20.9883 37.4531 20.8555 37.4766C20.7305 37.5078 20.625 37.5586 20.5391 37.6289H20.5039C20.4102 37.6289 20.3398 37.6016 20.293 37.5469C20.2461 37.4922 20.1758 37.4648 20.082 37.4648C19.9336 37.2227 19.832 36.9492 19.7773 36.6445C19.7227 36.3477 19.6953 36.0625 19.6953 35.7891C19.6953 35.4531 19.7266 35.1172 19.7891 34.7812C19.8438 34.4453 19.9141 34.1133 20 33.7852C20.0781 33.457 20.1641 33.1328 20.2578 32.8125C20.3594 32.4844 20.4531 32.1562 20.5391 31.8281L20.5508 31.793C20.5508 31.7539 20.5391 31.7266 20.5156 31.7109C20.5 31.6953 20.4922 31.6719 20.4922 31.6406C20.4922 31.625 20.4961 31.6172 20.5039 31.6172C20.5273 31.5391 20.5508 31.4648 20.5742 31.3945C20.6055 31.3242 20.6289 31.2461 20.6445 31.1602C20.6914 30.9414 20.7227 30.7188 20.7383 30.4922C20.7617 30.2578 20.7734 30.0273 20.7734 29.8008C20.7812 29.5742 20.7891 29.3477 20.7969 29.1211C20.8125 28.8867 20.8398 28.6562 20.8789 28.4297C20.9414 28.3672 21 28.3008 21.0547 28.2305C21.1094 28.1602 21.1797 28.0977 21.2656 28.043C21.4219 28.0508 21.5781 28.0742 21.7344 28.1133C21.8906 28.1523 22.0391 28.2148 22.1797 28.3008C22.2734 28.6367 22.3359 28.9727 22.3672 29.3086C22.4062 29.6445 22.4688 29.9805 22.5547 30.3164V30.3516C22.5547 30.3906 22.5742 30.4102 22.6133 30.4102C22.6602 30.4023 22.6953 30.4141 22.7188 30.4453C22.7031 30.4688 22.6914 30.4961 22.6836 30.5273C22.6836 30.5586 22.6836 30.5898 22.6836 30.6211V30.8203C22.6992 30.8828 22.7188 30.9492 22.7422 31.0195C22.7656 31.0898 22.8164 31.1328 22.8945 31.1484C22.9336 31.3984 22.9922 31.6289 23.0703 31.8398C23.1484 32.0508 23.2383 32.2539 23.3398 32.4492C23.4414 32.6445 23.5508 32.8398 23.668 33.0352C23.7852 33.2227 23.9062 33.4219 24.0312 33.6328C24.2266 33.7812 24.3945 33.9531 24.5352 34.1484C24.6758 34.3359 24.8164 34.5195 24.957 34.6992C25.1055 34.8711 25.2695 35.0234 25.4492 35.1562C25.6367 35.2891 25.8789 35.3711 26.1758 35.4023C26.2148 35.3711 26.2422 35.3281 26.2578 35.2734L26.3164 35.1094C26.3398 35.0547 26.3633 35.0078 26.3867 34.9688C26.418 34.9219 26.4609 34.8867 26.5156 34.8633C26.5312 34.6445 26.5469 34.4219 26.5625 34.1953C26.5859 33.9688 26.6367 33.7539 26.7148 33.5508C26.6758 33.4805 26.6562 33.3945 26.6562 33.293C26.6562 33.2148 26.6602 33.1406 26.668 33.0703C26.6836 33 26.6914 32.9297 26.6914 32.8594C26.6914 32.7109 26.6602 32.5898 26.5977 32.4961C26.5977 32.4414 26.6016 32.3867 26.6094 32.332C26.6172 32.2695 26.6406 32.2109 26.6797 32.1562C26.6172 32 26.5664 31.8359 26.5273 31.6641C26.4961 31.4922 26.4805 31.3164 26.4805 31.1367C26.4805 31.0352 26.4922 30.9297 26.5156 30.8203C26.4688 30.7031 26.4375 30.5664 26.4219 30.4102L26.375 29.9297C26.3594 29.7656 26.3359 29.6133 26.3047 29.4727C26.2734 29.332 26.2148 29.2188 26.1289 29.1328C26.1758 29.0625 26.1992 28.9805 26.1992 28.8867C26.1992 28.7305 26.1758 28.582 26.1289 28.4414C26.082 28.3008 26.0586 28.1523 26.0586 27.9961C26.0586 27.8867 26.082 27.7773 26.1289 27.668C26.3008 27.6758 26.4688 27.6953 26.6328 27.7266C26.8047 27.75 26.9727 27.7617 27.1367 27.7617C27.1836 27.8242 27.2383 27.875 27.3008 27.9141C27.3633 27.9531 27.4297 27.9922 27.5 28.0312C27.5703 28.0625 27.6367 28.0977 27.6992 28.1367C27.7695 28.1758 27.8242 28.2305 27.8633 28.3008ZM31.5664 34.3945C31.5273 34.457 31.4805 34.5156 31.4258 34.5703C31.3711 34.6172 31.3203 34.668 31.2734 34.7227C31.2188 34.7461 31.1562 34.7578 31.0859 34.7578C31.0234 34.7578 30.9609 34.7578 30.8984 34.7578C30.8438 34.75 30.7891 34.75 30.7344 34.7578C30.6875 34.7578 30.6484 34.7734 30.6172 34.8047C30.5547 34.7891 30.5078 34.7617 30.4766 34.7227C30.4453 34.6758 30.3906 34.6484 30.3125 34.6406C30.2812 34.6328 30.25 34.6328 30.2188 34.6406C30.1016 34.5078 29.9922 34.3672 29.8906 34.2188C29.7969 34.0703 29.707 33.9297 29.6211 33.7969C29.6133 33.5078 29.5898 33.2148 29.5508 32.918C29.543 32.8477 29.5312 32.7773 29.5156 32.707C29.5 32.6367 29.4883 32.5703 29.4805 32.5078C29.4805 32.4297 29.4844 32.3555 29.4922 32.2852C29.5078 32.207 29.5195 32.1367 29.5273 32.0742C29.5586 31.8477 29.5938 31.625 29.6328 31.4062C29.6719 31.1875 29.707 30.9648 29.7383 30.7383C29.7695 30.5352 29.7852 30.3242 29.7852 30.1055C29.7852 29.8789 29.75 29.668 29.6797 29.4727L29.668 29.4141C29.6836 29.3516 29.6992 29.3008 29.7148 29.2617C29.7383 29.2148 29.7539 29.1641 29.7617 29.1094C29.7773 29.0234 29.7578 28.9609 29.7031 28.9219C29.7266 28.8594 29.7656 28.8203 29.8203 28.8047C29.875 28.7812 29.9062 28.7344 29.9141 28.6641C29.9219 28.6328 29.9219 28.6016 29.9141 28.5703C29.9766 28.5469 30.0391 28.5273 30.1016 28.5117C30.1719 28.4883 30.2383 28.4844 30.3008 28.5C30.4023 28.5156 30.4922 28.5508 30.5703 28.6055C30.6484 28.6523 30.7227 28.707 30.793 28.7695C30.918 29.1445 30.9688 29.543 30.9453 29.9648C30.9219 30.3789 30.8828 30.7969 30.8281 31.2188C30.7734 31.6406 30.7383 32.0547 30.7227 32.4609C30.707 32.8594 30.7695 33.2305 30.9102 33.5742L30.9336 33.5859C30.9727 33.5938 31.0039 33.582 31.0273 33.5508C31.0508 33.5117 31.082 33.4961 31.1211 33.5039C31.1523 33.5195 31.1719 33.5273 31.1797 33.5273C31.2109 33.6836 31.2617 33.832 31.332 33.9727C31.4023 34.1133 31.4805 34.2539 31.5664 34.3945ZM41.4688 33.8906C41.4688 33.9688 41.4453 34.0352 41.3984 34.0898C41.3594 34.1367 41.3086 34.1797 41.2461 34.2188C41.1914 34.2578 41.1328 34.293 41.0703 34.3242C41.0156 34.3555 40.9648 34.3945 40.918 34.4414C40.8867 34.4727 40.8633 34.5117 40.8477 34.5586C40.8398 34.5977 40.8203 34.625 40.7891 34.6406C40.7422 34.6797 40.6914 34.7031 40.6367 34.7109C40.582 34.7188 40.5234 34.7305 40.4609 34.7461C40.4062 34.7539 40.3516 34.7695 40.2969 34.793C40.2422 34.8086 40.1953 34.8438 40.1562 34.8984C39.7891 34.9375 39.4258 34.9883 39.0664 35.0508C38.7148 35.1133 38.3516 35.1445 37.9766 35.1445C37.9062 35.1445 37.8281 35.1523 37.7422 35.168C37.6641 35.1758 37.5898 35.1836 37.5195 35.1914C37.3555 35.207 37.1914 35.2188 37.0273 35.2266C36.8711 35.2344 36.7109 35.2383 36.5469 35.2383C36.3203 35.2383 36.0938 35.2305 35.8672 35.2148C35.6406 35.1914 35.418 35.1562 35.1992 35.1094C35.1445 35.0703 35.082 35.0391 35.0117 35.0156C34.9414 34.9922 34.8672 34.9688 34.7891 34.9453C34.7188 34.9219 34.6523 34.8945 34.5898 34.8633C34.5273 34.832 34.4805 34.7852 34.4492 34.7227C34.332 34.7148 34.2266 34.6914 34.1328 34.6523C34.0469 34.6133 33.9648 34.5703 33.8867 34.5234C33.8164 34.4688 33.7422 34.4141 33.6641 34.3594C33.5859 34.3047 33.4961 34.2578 33.3945 34.2188C33.3164 34.1094 33.2344 34.0039 33.1484 33.9023C33.0703 33.793 32.9727 33.7031 32.8555 33.6328C32.832 33.4844 32.793 33.3359 32.7383 33.1875C32.6914 33.0391 32.6406 32.8945 32.5859 32.7539C32.5391 32.6055 32.5 32.457 32.4688 32.3086C32.4297 32.1602 32.4102 32.0078 32.4102 31.8516C32.4102 31.7422 32.4258 31.6094 32.457 31.4531C32.4883 31.2969 32.5273 31.1406 32.5742 30.9844C32.6289 30.8203 32.6914 30.668 32.7617 30.5273C32.832 30.3867 32.9023 30.2734 32.9727 30.1875C32.9961 30.1641 33.0234 30.1445 33.0547 30.1289C33.0859 30.1133 33.1133 30.0898 33.1367 30.0586C33.207 29.9805 33.2812 29.918 33.3594 29.8711C33.4375 29.8164 33.5195 29.7539 33.6055 29.6836C33.6367 29.6523 33.6602 29.6172 33.6758 29.5781C33.6992 29.5391 33.7305 29.5039 33.7695 29.4727C33.793 29.457 33.8242 29.4531 33.8633 29.4609C33.9102 29.4688 33.9492 29.4609 33.9805 29.4375C34.0117 29.4141 34.0273 29.3867 34.0273 29.3555C34.0273 29.3242 34.0391 29.2969 34.0625 29.2734C34.0703 29.2656 34.0938 29.2656 34.1328 29.2734C34.1719 29.2734 34.1953 29.2734 34.2031 29.2734C34.2578 29.2734 34.3203 29.2383 34.3906 29.168C34.4609 29.0898 34.5195 29.0391 34.5664 29.0156C34.6211 28.9844 34.6758 28.9648 34.7305 28.957C34.7852 28.9414 34.8438 28.918 34.9062 28.8867C34.9922 28.8398 35.0742 28.8047 35.1523 28.7812C35.2383 28.75 35.3242 28.7148 35.4102 28.6758C35.457 28.6602 35.5 28.6328 35.5391 28.5938C35.5781 28.5547 35.6172 28.5273 35.6562 28.5117C35.7266 28.4883 35.8008 28.4727 35.8789 28.4648C35.9648 28.4492 36.043 28.4375 36.1133 28.4297C36.1914 28.4141 36.2656 28.3984 36.3359 28.3828C36.4141 28.3594 36.4844 28.3203 36.5469 28.2656H36.6406C36.7812 28.2656 36.918 28.2461 37.0508 28.207C37.1836 28.168 37.3203 28.1484 37.4609 28.1484C37.5 28.1484 37.5586 28.1562 37.6367 28.1719C37.6992 28.1328 37.7695 28.1133 37.8477 28.1133C37.9805 28.1133 38.1133 28.1484 38.2461 28.2188C38.3789 28.2812 38.5156 28.3125 38.6562 28.3125H38.7266C38.7578 28.3125 38.7891 28.3086 38.8203 28.3008C38.9062 28.3867 39.0078 28.4336 39.125 28.4414C39.25 28.4492 39.3555 28.4844 39.4414 28.5469C39.4961 28.5938 39.5391 28.6484 39.5703 28.7109C39.6094 28.7734 39.6406 28.8398 39.6641 28.9102L39.7344 29.1211C39.7578 29.1914 39.7891 29.2539 39.8281 29.3086C39.7891 29.5898 39.6719 29.8164 39.4766 29.9883C39.2891 30.1523 39.0508 30.2344 38.7617 30.2344C38.6523 30.2344 38.5586 30.2227 38.4805 30.1992C38.4102 30.168 38.3438 30.1367 38.2812 30.1055C38.2266 30.0742 38.168 30.043 38.1055 30.0117C38.043 29.9805 37.9727 29.957 37.8945 29.9414C37.9805 29.7852 38.0352 29.6172 38.0586 29.4375C37.9727 29.3984 37.8867 29.3711 37.8008 29.3555C37.7148 29.3398 37.6328 29.3125 37.5547 29.2734C37.3438 29.3281 37.1367 29.3672 36.9336 29.3906C36.7383 29.4062 36.5547 29.4883 36.3828 29.6367C36.3438 29.6289 36.3008 29.6211 36.2539 29.6133C36.2148 29.6055 36.1758 29.6016 36.1367 29.6016C36.0898 29.6016 35.9961 29.6367 35.8555 29.707C35.7148 29.7695 35.5625 29.8438 35.3984 29.9297C35.2422 30.0156 35.0898 30.1016 34.9414 30.1875C34.8008 30.2734 34.7031 30.332 34.6484 30.3633C34.5859 30.4023 34.5312 30.4492 34.4844 30.5039C34.4375 30.5586 34.3906 30.6172 34.3438 30.6797C34.2969 30.7344 34.25 30.7891 34.2031 30.8438C34.1562 30.8906 34.0977 30.9258 34.0273 30.9492C34.0117 31.0352 33.9844 31.1094 33.9453 31.1719C33.9062 31.2344 33.8633 31.3008 33.8164 31.3711C33.8086 31.5117 33.793 31.6523 33.7695 31.793C33.7539 31.9336 33.7461 32.0742 33.7461 32.2148V32.3672C33.7461 32.4141 33.7539 32.457 33.7695 32.4961C33.8477 32.5977 33.9102 32.7109 33.957 32.8359C34.0117 32.9609 34.1016 33.0469 34.2266 33.0938C34.2344 33.125 34.2305 33.1445 34.2148 33.1523C34.207 33.1602 34.1992 33.1797 34.1914 33.2109C34.2383 33.2969 34.2969 33.3672 34.3672 33.4219C34.4453 33.4688 34.5234 33.5195 34.6016 33.5742C34.6797 33.6211 34.7539 33.6719 34.8242 33.7266C34.8945 33.7812 34.9492 33.8516 34.9883 33.9375C35.1055 33.9375 35.2148 33.957 35.3164 33.9961C35.4258 34.0352 35.5273 34.0781 35.6211 34.125C35.7227 34.1719 35.8164 34.2148 35.9023 34.2539C35.9961 34.293 36.0898 34.3125 36.1836 34.3125C36.2695 34.3125 36.3477 34.3008 36.418 34.2773C36.6211 34.3398 36.8242 34.3867 37.0273 34.418C37.2383 34.4414 37.4492 34.4531 37.6602 34.4531C37.918 34.4531 38.1758 34.4375 38.4336 34.4062C38.6914 34.375 38.9492 34.3477 39.207 34.3242C39.3008 34.3086 39.3906 34.3008 39.4766 34.3008C39.5625 34.3008 39.6484 34.293 39.7344 34.2773C39.8438 34.2617 39.9453 34.2109 40.0391 34.125C40.1406 34.0391 40.2383 33.9766 40.332 33.9375C40.418 33.9922 40.5195 34.0195 40.6367 34.0195C40.7695 34.0195 40.8984 34 41.0234 33.9609C41.1484 33.9141 41.2773 33.8906 41.4102 33.8906H41.4688ZM48.793 28.5469V28.5938C48.7383 28.6094 48.7109 28.6484 48.7109 28.7109C48.625 28.75 48.5352 28.7812 48.4414 28.8047C48.3477 28.8203 48.2578 28.8477 48.1719 28.8867C48.0859 28.8789 47.9961 28.875 47.9023 28.875C47.8164 28.8672 47.7305 28.8633 47.6445 28.8633C47.4102 28.8633 47.1758 28.8711 46.9414 28.8867C46.707 28.9023 46.4727 28.9023 46.2383 28.8867C46.1289 28.9492 46.0078 29 45.875 29.0391C45.75 29.0703 45.6289 29.0859 45.5117 29.0859C45.418 29.0859 45.3359 29.0742 45.2656 29.0508C45.0781 29.1445 44.8711 29.2227 44.6445 29.2852C44.4258 29.3477 44.2031 29.4102 43.9766 29.4727C43.75 29.5273 43.5312 29.5938 43.3203 29.6719C43.1172 29.7422 42.9375 29.8438 42.7812 29.9766C42.7656 30.0859 42.7539 30.1953 42.7461 30.3047C42.7383 30.4062 42.7344 30.5078 42.7344 30.6094C42.7344 30.7188 42.7383 30.8203 42.7461 30.9141C42.7617 31.0078 42.7891 31.1016 42.8281 31.1953C42.8672 31.2109 42.9102 31.2227 42.957 31.2305C43.0117 31.2383 43.0586 31.2422 43.0977 31.2422C43.1367 31.2422 43.1758 31.2383 43.2148 31.2305C43.2539 31.2148 43.2812 31.1875 43.2969 31.1484C43.4141 31.1328 43.5312 31.1289 43.6484 31.1367C43.7656 31.1367 43.8828 31.1367 44 31.1367C44.1172 31.1367 44.2305 31.1328 44.3398 31.125C44.457 31.1172 44.5703 31.0977 44.6797 31.0664C44.8047 31.0352 44.9258 31.0156 45.043 31.0078C45.168 31 45.2891 30.9922 45.4062 30.9844C45.5234 30.9766 45.6445 30.9648 45.7695 30.9492C45.8945 30.9258 46.0234 30.8828 46.1562 30.8203C46.2578 30.8594 46.3594 30.8789 46.4609 30.8789C46.5703 30.8789 46.6758 30.8867 46.7773 30.9023C46.832 30.9414 46.875 30.9844 46.9062 31.0312C46.9453 31.0781 46.9648 31.1328 46.9648 31.1953C46.9648 31.3047 46.9258 31.4141 46.8477 31.5234C46.7695 31.6328 46.707 31.7344 46.6602 31.8281H46.5312C46.3438 31.8281 46.1602 31.8555 45.9805 31.9102C45.8086 31.957 45.6328 32.0156 45.4531 32.0859C45.2812 32.1484 45.1055 32.207 44.9258 32.2617C44.7539 32.3086 44.5742 32.332 44.3867 32.332C44.3555 32.332 44.3359 32.3516 44.3281 32.3906C44.3281 32.4219 44.3203 32.4453 44.3047 32.4609C44.2656 32.4531 44.207 32.4492 44.1289 32.4492C43.9492 32.4492 43.7773 32.4688 43.6133 32.5078C43.4492 32.5469 43.2812 32.5664 43.1094 32.5664C43.0625 32.5664 43.0156 32.5664 42.9688 32.5664C42.9219 32.5586 42.875 32.5508 42.8281 32.543C42.7891 32.6055 42.7383 32.6484 42.6758 32.6719C42.6133 32.6875 42.5547 32.7188 42.5 32.7656C42.4766 32.8359 42.4609 32.9219 42.4531 33.0234C42.4531 33.125 42.4492 33.2305 42.4414 33.3398C42.4414 33.4414 42.4336 33.5391 42.418 33.6328C42.4023 33.7266 42.3711 33.8008 42.3242 33.8555C42.332 33.8945 42.3633 33.9102 42.418 33.9023C42.4727 33.8867 42.5 33.9102 42.5 33.9727C42.5 34.043 42.4922 34.1172 42.4766 34.1953C42.4609 34.2734 42.4531 34.3516 42.4531 34.4297C42.4531 34.5781 42.4688 34.7422 42.5 34.9219C42.5391 35.0938 42.5938 35.2539 42.6641 35.4023C42.7422 35.5508 42.8438 35.6758 42.9688 35.7773C43.0938 35.8711 43.25 35.918 43.4375 35.918C43.5625 35.918 43.6797 35.8945 43.7891 35.8477C43.8984 35.8008 43.9883 35.7227 44.0586 35.6133L44.1172 35.6016C44.1484 35.6016 44.1758 35.6055 44.1992 35.6133C44.2305 35.6211 44.2617 35.625 44.293 35.625C44.3398 35.625 44.3984 35.5977 44.4688 35.543C44.5469 35.4805 44.6289 35.4102 44.7148 35.332C44.8086 35.2539 44.9023 35.1797 44.9961 35.1094C45.0898 35.0312 45.1797 34.9766 45.2656 34.9453C45.3203 34.8359 45.3711 34.7266 45.418 34.6172C45.4727 34.5078 45.5508 34.4219 45.6523 34.3594V34.0195C45.7305 33.9336 45.8125 33.8555 45.8984 33.7852C45.9922 33.7148 46.0625 33.625 46.1094 33.5156C46.1484 33.5312 46.1836 33.543 46.2148 33.5508C46.2539 33.5586 46.293 33.5625 46.332 33.5625C46.3711 33.5625 46.4102 33.5586 46.4492 33.5508C46.4961 33.543 46.5391 33.5312 46.5781 33.5156C46.6406 33.6016 46.6875 33.6992 46.7188 33.8086C46.7578 33.9102 46.8047 34.0078 46.8594 34.1016C46.7891 34.2422 46.707 34.4102 46.6133 34.6055C46.5195 34.8008 46.418 34.9961 46.3086 35.1914C46.1992 35.3867 46.082 35.5742 45.957 35.7539C45.8398 35.9258 45.7227 36.0586 45.6055 36.1523C45.582 36.1758 45.5312 36.2031 45.4531 36.2344C45.3672 36.2969 45.2891 36.3555 45.2188 36.4102C45.1484 36.4727 45.082 36.543 45.0195 36.6211C44.793 36.6914 44.5742 36.7852 44.3633 36.9023C44.1602 37.0195 43.957 37.1328 43.7539 37.2422C43.6602 37.2188 43.5586 37.207 43.4492 37.207C43.3555 37.207 43.2617 37.2109 43.168 37.2188C43.0742 37.2344 42.9727 37.2422 42.8633 37.2422C42.832 37.2031 42.7852 37.1758 42.7227 37.1602C42.668 37.1523 42.6484 37.1133 42.6641 37.043C42.3984 37.0273 42.1836 36.9531 42.0195 36.8203C41.8555 36.6953 41.7148 36.5391 41.5977 36.3516C41.4883 36.1641 41.3984 35.9609 41.3281 35.7422C41.2578 35.5234 41.1836 35.3125 41.1055 35.1094V35.0742C41.1055 35.0352 41.1211 35.0117 41.1523 35.0039C41.1836 34.9961 41.1992 34.9727 41.1992 34.9336C41.1992 34.918 41.1953 34.9062 41.1875 34.8984C41.1641 34.8125 41.1445 34.7383 41.1289 34.6758C41.1133 34.6133 41.1055 34.5391 41.1055 34.4531C41.1055 34.3281 41.1133 34.207 41.1289 34.0898C41.1445 33.9648 41.1523 33.8398 41.1523 33.7148C41.1523 33.5898 41.1367 33.4805 41.1055 33.3867C41.1367 33.3477 41.1641 33.2969 41.1875 33.2344C41.2031 33.1641 41.2148 33.0938 41.2227 33.0234C41.2305 32.9531 41.2344 32.8828 41.2344 32.8125C41.2422 32.7422 41.2539 32.6797 41.2695 32.625C41.2383 32.5391 41.2109 32.4648 41.1875 32.4023C41.1641 32.332 41.1523 32.25 41.1523 32.1562V32.0742C41.2305 31.9414 41.2969 31.8047 41.3516 31.6641C41.4062 31.5234 41.4648 31.3789 41.5273 31.2305V31.1953C41.5273 30.9688 41.5195 30.7422 41.5039 30.5156C41.4883 30.2891 41.4805 30.0625 41.4805 29.8359V29.6133C41.4805 29.5352 41.4844 29.4609 41.4922 29.3906C41.5547 29.3594 41.6016 29.3164 41.6328 29.2617C41.6641 29.207 41.7109 29.1641 41.7734 29.1328H42.1602L42.2305 29.0156C42.2539 28.9766 42.2695 28.9336 42.2773 28.8867C42.3633 28.8633 42.4453 28.832 42.5234 28.793C42.6094 28.7461 42.6875 28.6992 42.7578 28.6523C42.8672 28.5898 42.9648 28.5352 43.0508 28.4883C43.1445 28.4336 43.2344 28.3906 43.3203 28.3594C43.4141 28.3203 43.5117 28.2891 43.6133 28.2656C43.7148 28.2422 43.832 28.2227 43.9648 28.207C44.0273 28.207 44.0664 28.1953 44.082 28.1719C44.1055 28.1484 44.1367 28.1211 44.1758 28.0898C44.2695 28.1055 44.3633 28.1211 44.457 28.1367C44.5508 28.1445 44.6445 28.1484 44.7383 28.1484C44.9258 28.1484 45.1016 28.1133 45.2656 28.043C45.5 28.043 45.7305 28.0391 45.957 28.0312C46.1914 28.0234 46.4258 28.0195 46.6602 28.0195C46.8633 28.0195 47.0664 28.0273 47.2695 28.043C47.4727 28.0586 47.6719 28.0859 47.8672 28.125C47.9375 28.1016 48.0156 28.0898 48.1016 28.0898C48.1953 28.0898 48.2891 28.1016 48.3828 28.125C48.4844 28.1406 48.582 28.1406 48.6758 28.125C48.6836 28.2109 48.7031 28.2852 48.7344 28.3477C48.7734 28.4023 48.793 28.4688 48.793 28.5469ZM65.3633 29.5195C65.3398 29.5898 65.293 29.6406 65.2227 29.6719C65.1602 29.6953 65.0938 29.7148 65.0234 29.7305C64.9531 29.7461 64.8867 29.7734 64.8242 29.8125C64.7695 29.8438 64.7344 29.8984 64.7188 29.9766L64.6953 29.9883C64.6641 29.9883 64.6406 29.9805 64.625 29.9648C64.6172 29.9414 64.6094 29.9219 64.6016 29.9062C64.5938 29.8828 64.582 29.8633 64.5664 29.8477C64.5586 29.8242 64.543 29.8125 64.5195 29.8125C64.4336 29.8125 64.3477 29.8203 64.2617 29.8359C64.1836 29.8516 64.1055 29.8594 64.0273 29.8594C63.9102 29.8594 63.8047 29.8438 63.7109 29.8125C63.6562 29.8281 63.625 29.8633 63.6172 29.918C63.6172 29.9727 63.5938 30.0078 63.5469 30.0234C63.5078 30.0391 63.4609 30.0469 63.4062 30.0469C63.3516 30.0391 63.2969 30.043 63.2422 30.0586L62.8672 30.1523C62.7422 30.1836 62.6172 30.1992 62.4922 30.1992C62.4219 30.1992 62.3711 30.1953 62.3398 30.1875C62.2227 30.2812 62.0898 30.3516 61.9414 30.3984C61.793 30.4375 61.6367 30.4766 61.4727 30.5156C61.3164 30.5469 61.1602 30.5898 61.0039 30.6445C60.8555 30.6992 60.7227 30.7852 60.6055 30.9023C60.543 30.8867 60.4883 30.8789 60.4414 30.8789C60.3398 30.8789 60.25 30.9023 60.1719 30.9492C60.0938 30.9883 60.0117 31.0273 59.9258 31.0664C59.8867 31.082 59.8477 31.0898 59.8086 31.0898C59.7695 31.0898 59.7266 31.0977 59.6797 31.1133C59.6328 31.1289 59.6016 31.1562 59.5859 31.1953C59.5781 31.2266 59.5547 31.2578 59.5156 31.2891C59.5156 31.5703 59.543 31.8516 59.5977 32.1328C59.6523 32.4062 59.6797 32.6836 59.6797 32.9648V33.0117C59.6953 33.1445 59.7383 33.2695 59.8086 33.3867C59.8789 33.4961 59.9141 33.6094 59.9141 33.7266C59.9141 33.7656 59.9062 33.8086 59.8906 33.8555C60.0938 33.9023 60.2266 34.0078 60.2891 34.1719C60.3594 34.3281 60.4141 34.5 60.4531 34.6875C60.5 34.8672 60.5586 35.0352 60.6289 35.1914C60.707 35.3477 60.8555 35.4453 61.0742 35.4844C61.0898 35.5625 61.1016 35.6445 61.1094 35.7305C61.1172 35.8086 61.1211 35.8867 61.1211 35.9648C61.1211 36.0742 61.1094 36.1797 61.0859 36.2812C61.0625 36.3906 61.0156 36.4883 60.9453 36.5742C60.8281 36.582 60.7422 36.5859 60.6875 36.5859C60.6328 36.5859 60.5508 36.6094 60.4414 36.6562C60.2852 36.5625 60.1445 36.4531 60.0195 36.3281C59.9023 36.2109 59.7891 36.0859 59.6797 35.9531C59.5781 35.8125 59.4766 35.6719 59.375 35.5312C59.2734 35.3828 59.1641 35.2422 59.0469 35.1094C58.6406 35.2109 58.2227 35.2812 57.793 35.3203C57.3711 35.3516 56.9492 35.3672 56.5273 35.3672C56.5117 35.3828 56.4883 35.3906 56.457 35.3906C56.4258 35.3906 56.3945 35.3945 56.3633 35.4023C56.3398 35.4023 56.3164 35.4102 56.293 35.4258C56.2773 35.4336 56.2734 35.4531 56.2812 35.4844C56.2266 35.4531 56.1641 35.4336 56.0938 35.4258C56.0312 35.4102 55.9727 35.4023 55.918 35.4023C55.8789 35.4023 55.8398 35.4062 55.8008 35.4141C55.7617 35.4141 55.7227 35.4258 55.6836 35.4492C55.3867 35.3945 55.0977 35.3203 54.8164 35.2266C54.543 35.125 54.2617 35.043 53.9727 34.9805C53.9727 34.918 53.957 34.875 53.9258 34.8516C53.8945 34.8203 53.8672 34.7773 53.8438 34.7227C53.5156 34.5195 53.2383 34.2734 53.0117 33.9844C52.793 33.6953 52.7031 33.3438 52.7422 32.9297L52.6602 32.7656C52.6602 32.6406 52.6875 32.5508 52.7422 32.4961C52.7109 32.4414 52.6562 32.3867 52.5781 32.332C52.6484 32.2227 52.7109 32.1094 52.7656 31.9922C52.8203 31.875 52.8594 31.75 52.8828 31.6172C52.8906 31.5781 52.8945 31.543 52.8945 31.5117C52.8945 31.4805 52.9023 31.4453 52.918 31.4062C52.9336 31.3594 52.957 31.3086 52.9883 31.2539C53.0117 31.1914 53.0352 31.1367 53.0586 31.0898C53.1836 30.8242 53.3203 30.5703 53.4688 30.3281C53.625 30.0781 53.8203 29.8633 54.0547 29.6836C54.0703 29.5508 54.1094 29.4414 54.1719 29.3555C54.2344 29.2617 54.3008 29.1797 54.3711 29.1094C54.4492 29.0312 54.5234 28.9531 54.5938 28.875C54.6719 28.7969 54.7305 28.7031 54.7695 28.5938C54.9258 28.4609 55.082 28.332 55.2383 28.207C55.4023 28.082 55.5391 27.9336 55.6484 27.7617C55.7891 27.7148 55.9219 27.6562 56.0469 27.5859C56.1719 27.5078 56.2773 27.4102 56.3633 27.293C56.5508 27.2773 56.7344 27.2422 56.9141 27.1875C57.1016 27.1328 57.2969 27.1055 57.5 27.1055C57.5859 27.1055 57.6875 27.125 57.8047 27.1641C57.9297 27.1953 58.0234 27.2539 58.0859 27.3398C58.0938 27.3555 58.0977 27.375 58.0977 27.3984L58.1094 27.457C58.1172 27.4727 58.125 27.4883 58.1328 27.5039C58.1484 27.5117 58.1719 27.5117 58.2031 27.5039C58.2031 27.6758 58.1836 27.8516 58.1445 28.0312C58.1055 28.2031 58.0039 28.3359 57.8398 28.4297C57.7383 28.3984 57.6289 28.3828 57.5117 28.3828C57.3555 28.3828 57.2109 28.4141 57.0781 28.4766C56.9531 28.5312 56.8281 28.5977 56.7031 28.6758C56.5859 28.7461 56.4648 28.8203 56.3398 28.8984C56.2148 28.9688 56.082 29.0195 55.9414 29.0508C55.9258 29.1133 55.9102 29.1719 55.8945 29.2266C55.8867 29.2734 55.8906 29.3281 55.9062 29.3906C55.8672 29.3906 55.8359 29.3867 55.8125 29.3789C55.7969 29.3633 55.7695 29.3555 55.7305 29.3555C55.6758 29.3555 55.6367 29.3867 55.6133 29.4492C55.5977 29.5117 55.582 29.5625 55.5664 29.6016C55.418 29.6641 55.293 29.7539 55.1914 29.8711C55.0977 29.9805 55.0078 30.1016 54.9219 30.2344C54.8438 30.3594 54.7578 30.4805 54.6641 30.5977C54.5703 30.7148 54.4531 30.8047 54.3125 30.8672C54.25 31.1172 54.1875 31.3633 54.125 31.6055C54.0703 31.8477 54.0039 32.0898 53.9258 32.332C53.9492 32.4258 53.9609 32.5234 53.9609 32.625C53.9609 32.75 53.9492 32.8633 53.9258 32.9648C53.9648 33.0273 54.0039 33.1016 54.043 33.1875L54.1836 33.457C54.2305 33.5508 54.2773 33.6367 54.3242 33.7148C54.3789 33.793 54.4297 33.8516 54.4766 33.8906C54.5625 33.9531 54.6953 34.0117 54.875 34.0664C55.0547 34.1133 55.2148 34.1953 55.3555 34.3125C55.3711 34.3125 55.3906 34.3125 55.4141 34.3125C55.4375 34.3047 55.457 34.3008 55.4727 34.3008C55.5664 34.3008 55.668 34.3242 55.7773 34.3711C55.8867 34.418 55.957 34.4414 55.9883 34.4414C56.4258 34.4414 56.9023 34.4141 57.418 34.3594C57.9336 34.2969 58.4102 34.2227 58.8477 34.1367C58.8633 34.0586 58.8711 33.9922 58.8711 33.9375C58.8711 33.8359 58.8555 33.7383 58.8242 33.6445C58.793 33.543 58.7422 33.457 58.6719 33.3867C58.6719 33.2695 58.6719 33.1523 58.6719 33.0352C58.6797 32.918 58.6836 32.8008 58.6836 32.6836C58.6836 32.4883 58.6758 32.2812 58.6602 32.0625C58.6445 31.8438 58.6055 31.6406 58.543 31.4531H58.5195C58.418 31.4531 58.3242 31.4805 58.2383 31.5352C58.1602 31.582 58.0781 31.6055 57.9922 31.6055C57.9453 31.6055 57.9062 31.5938 57.875 31.5703C57.7812 31.6797 57.668 31.7617 57.5352 31.8164C57.4023 31.8711 57.2617 31.9219 57.1133 31.9688C56.9648 32.0078 56.8164 32.0508 56.668 32.0977C56.5273 32.1445 56.3984 32.2109 56.2812 32.2969C56.2188 32.2734 56.1602 32.2617 56.1055 32.2617C56.0508 32.2617 55.9961 32.2656 55.9414 32.2734C55.8945 32.2812 55.8398 32.2891 55.7773 32.2969C55.6133 32.1562 55.5312 31.9805 55.5312 31.7695C55.5312 31.6602 55.5469 31.5547 55.5781 31.4531C55.6172 31.3438 55.668 31.2422 55.7305 31.1484C55.7695 31.125 55.8164 31.1133 55.8711 31.1133C55.9258 31.1055 55.9805 31.0977 56.0352 31.0898C56.0898 31.0742 56.1328 31.0547 56.1641 31.0312C56.2031 31.0078 56.2266 30.9648 56.2344 30.9023C56.2578 30.9258 56.2773 30.9375 56.293 30.9375C56.3086 30.9375 56.3242 30.9336 56.3398 30.9258C56.3555 30.918 56.3711 30.9141 56.3867 30.9141C56.4023 30.9141 56.4141 30.9219 56.4219 30.9375C56.4375 30.9531 56.4453 30.9688 56.4453 30.9844C56.7812 30.8047 57.125 30.6523 57.4766 30.5273C57.8281 30.4023 58.1836 30.2891 58.543 30.1875C58.9102 30.0859 59.2773 29.9922 59.6445 29.9062C60.0117 29.8125 60.375 29.7109 60.7344 29.6016C60.7891 29.5547 60.8477 29.5195 60.9102 29.4961C60.9727 29.4727 61.0273 29.4375 61.0742 29.3906C61.1289 29.4219 61.1953 29.4375 61.2734 29.4375C61.3828 29.4375 61.5 29.418 61.625 29.3789C61.7578 29.332 61.8672 29.2773 61.9531 29.2148C61.9844 29.2227 62.0117 29.2266 62.0352 29.2266H62.1172C62.2734 29.2266 62.418 29.2031 62.5508 29.1562C62.6914 29.1094 62.8281 29.0469 62.9609 28.9688H63.0195C63.2617 28.9688 63.5 28.9414 63.7344 28.8867C63.9766 28.832 64.2227 28.8047 64.4727 28.8047C64.793 28.8047 65.0742 28.8867 65.3164 29.0508V29.1914C65.3164 29.2539 65.3164 29.3125 65.3164 29.3672C65.3242 29.4141 65.3398 29.4648 65.3633 29.5195ZM76.9648 33.9609C76.9492 34.0781 76.9062 34.168 76.8359 34.2305C76.7734 34.293 76.6992 34.3516 76.6133 34.4062C76.5742 34.3984 76.5352 34.3945 76.4961 34.3945C76.4648 34.3867 76.4297 34.3828 76.3906 34.3828C76.1484 34.375 75.918 34.4062 75.6992 34.4766C75.4883 34.5469 75.2695 34.5977 75.043 34.6289C74.9648 34.6445 74.8906 34.6523 74.8203 34.6523C74.7578 34.6445 74.6914 34.6484 74.6211 34.6641C74.3711 34.7031 74.1055 34.7344 73.8242 34.7578C73.543 34.7812 73.2617 34.8125 72.9805 34.8516C72.6992 34.8828 72.4219 34.9258 72.1484 34.9805C71.8828 35.0273 71.6328 35.0977 71.3984 35.1914C71.375 35.1758 71.3516 35.1602 71.3281 35.1445C71.3047 35.1211 71.2773 35.1094 71.2461 35.1094C71.168 35.1094 71.0938 35.1211 71.0234 35.1445C70.9531 35.168 70.8828 35.1758 70.8125 35.168C70.7344 35.2148 70.6484 35.25 70.5547 35.2734C70.4688 35.2891 70.3789 35.3047 70.2852 35.3203C70.1992 35.3281 70.1133 35.3438 70.0273 35.3672C69.9414 35.3906 69.8594 35.4336 69.7812 35.4961C69.7188 35.4648 69.6406 35.4492 69.5469 35.4492C69.4609 35.4414 69.4023 35.4102 69.3711 35.3555C69.1914 35.4414 69 35.4961 68.7969 35.5195C68.6016 35.543 68.4023 35.5508 68.1992 35.543C68.0664 35.5352 67.9141 35.5156 67.7422 35.4844C67.5703 35.4531 67.3984 35.4102 67.2266 35.3555C67.0547 35.293 66.8945 35.2227 66.7461 35.1445C66.5977 35.0586 66.4844 34.957 66.4062 34.8398C66.3516 34.7617 66.3125 34.6758 66.2891 34.582C66.2656 34.4883 66.2109 34.418 66.125 34.3711C66.1484 34.1914 66.1758 34.0156 66.207 33.8438C66.2383 33.6719 66.2695 33.4961 66.3008 33.3164C66.457 33.1836 66.6055 33.043 66.7461 32.8945C66.8867 32.7461 67.0195 32.5898 67.1445 32.4258C67.293 32.3555 67.4297 32.2695 67.5547 32.168C67.6875 32.0664 67.8164 31.9648 67.9414 31.8633C68.0742 31.7539 68.2031 31.6484 68.3281 31.5469C68.4609 31.4453 68.6016 31.3555 68.75 31.2773C68.7734 31.2227 68.8047 31.1797 68.8438 31.1484C68.8906 31.1094 68.9375 31.0742 68.9844 31.043C69.0312 31.0039 69.0742 30.9648 69.1133 30.9258C69.1523 30.8789 69.1797 30.8242 69.1953 30.7617C69.4688 30.5977 69.707 30.3906 69.9102 30.1406C70.1133 29.8906 70.2461 29.6094 70.3086 29.2969C70.1758 29.1875 70.0234 29.1172 69.8516 29.0859C69.6875 29.0469 69.5156 29.0195 69.3359 29.0039C69.1797 28.9961 69.0156 28.9961 68.8438 29.0039C68.6797 29.0117 68.5117 29.0078 68.3398 28.9922C68.168 29.0469 67.9883 29.082 67.8008 29.0977C67.6211 29.1133 67.4414 29.1289 67.2617 29.1445C67.082 29.1523 66.9023 29.1758 66.7227 29.2148C66.5508 29.2461 66.3828 29.3086 66.2188 29.4023C66.1875 29.4023 66.1562 29.3984 66.125 29.3906C66.1016 29.3828 66.0742 29.3789 66.043 29.3789C65.793 29.3711 65.5586 29.4219 65.3398 29.5312C65.1211 29.6328 64.9062 29.7344 64.6953 29.8359C64.6797 29.8672 64.6719 29.8906 64.6719 29.9062C64.6719 29.9531 64.6797 30 64.6953 30.0469C64.7188 30.0859 64.7305 30.1289 64.7305 30.1758C64.7227 30.1836 64.7188 30.1914 64.7188 30.1992C64.7188 30.207 64.7148 30.2148 64.707 30.2227C64.6992 30.2617 64.6875 30.2969 64.6719 30.3281C64.6641 30.3594 64.6523 30.3945 64.6367 30.4336C64.5508 30.6836 64.5039 30.9297 64.4961 31.1719C64.4883 31.375 64.4883 31.5742 64.4961 31.7695C64.5039 31.9648 64.5039 32.1641 64.4961 32.3672C64.4805 32.6172 64.4414 32.8516 64.3789 33.0703C64.418 33.2578 64.4531 33.457 64.4844 33.668C64.5156 33.8711 64.5547 34.0742 64.6016 34.2773C64.6484 34.4805 64.7031 34.6797 64.7656 34.875C64.8359 35.0625 64.9258 35.2422 65.0352 35.4141C65.0273 35.4297 65.0312 35.4414 65.0469 35.4492C65.0625 35.457 65.0781 35.4609 65.0938 35.4609H65.1875C65.2266 35.4609 65.2422 35.4766 65.2344 35.5078C65.25 35.5312 65.2617 35.5547 65.2695 35.5781C65.2773 35.5938 65.293 35.6094 65.3164 35.625C65.332 35.6484 65.332 35.6797 65.3164 35.7188C65.3086 35.875 65.2695 36.0195 65.1992 36.1523C65.1289 36.2852 65.0859 36.4297 65.0703 36.5859C64.9766 36.6094 64.8906 36.6211 64.8125 36.6211C64.6797 36.6133 64.5625 36.5742 64.4609 36.5039C64.3594 36.4414 64.2656 36.3633 64.1797 36.2695C64.0938 36.1758 64.0117 36.082 63.9336 35.9883C63.8555 35.8867 63.7695 35.8008 63.6758 35.7305C63.6211 35.5117 63.5664 35.2695 63.5117 35.0039C63.4648 34.7383 63.3828 34.5117 63.2656 34.3242C63.2969 34.2539 63.3125 34.168 63.3125 34.0664C63.3203 33.9102 63.3047 33.7578 63.2656 33.6094C63.2344 33.4531 63.2266 33.2969 63.2422 33.1406C63.2422 33.0547 63.25 32.9688 63.2656 32.8828C63.2891 32.7969 63.3047 32.7109 63.3125 32.625C63.3203 32.4922 63.3047 32.3633 63.2656 32.2383C63.2344 32.1133 63.2227 31.9844 63.2305 31.8516C63.2383 31.7891 63.25 31.7305 63.2656 31.6758C63.2891 31.6133 63.3203 31.5586 63.3594 31.5117C63.3203 31.418 63.3086 31.3281 63.3242 31.2422C63.332 31.1094 63.3477 30.9844 63.3711 30.8672C63.3945 30.75 63.4102 30.6328 63.418 30.5156C63.418 30.4531 63.4141 30.3945 63.4062 30.3398C63.3984 30.2773 63.3867 30.2188 63.3711 30.1641L63.2656 30.1289C63.2188 30.1289 63.1719 30.1406 63.125 30.1641C63.0859 30.1875 63.0508 30.2148 63.0195 30.2461C62.9883 30.2773 62.9609 30.3047 62.9375 30.3281C62.9141 30.3438 62.8906 30.3516 62.8672 30.3516C62.8516 30.3516 62.832 30.3516 62.8086 30.3516C62.793 30.3438 62.7773 30.3398 62.7617 30.3398C62.7461 30.3398 62.7148 30.3555 62.668 30.3867C62.6289 30.418 62.5781 30.4531 62.5156 30.4922C62.4609 30.5234 62.4062 30.5586 62.3516 30.5977C62.2969 30.6289 62.2539 30.6484 62.2227 30.6562C62.1367 30.6406 62.0664 30.6133 62.0117 30.5742C61.9648 30.5273 61.918 30.4844 61.8711 30.4453C61.832 30.3984 61.7891 30.3594 61.7422 30.3281C61.6953 30.2891 61.6367 30.2734 61.5664 30.2812C61.543 30.2344 61.5312 30.1836 61.5312 30.1289C61.5234 30.0742 61.5234 30.0195 61.5312 29.9648V29.7773C61.5859 29.6758 61.6602 29.5938 61.7539 29.5312C61.8398 29.4609 61.9336 29.4023 62.0352 29.3555L62.3398 29.2148C62.4414 29.168 62.5352 29.1094 62.6211 29.0391H62.7266C62.8672 29.0469 62.9883 29.0195 63.0898 28.957C63.1992 28.8945 63.3008 28.8242 63.3945 28.7461C63.4883 28.6602 63.582 28.5742 63.6758 28.4883C63.7773 28.4023 63.8867 28.3359 64.0039 28.2891C64.0898 28.3281 64.1797 28.3633 64.2734 28.3945C64.3672 28.418 64.4648 28.4336 64.5664 28.4414C64.668 28.4414 64.7734 28.4258 64.8828 28.3945C64.9922 28.3633 65.0781 28.3047 65.1406 28.2188C65.1797 28.2344 65.2109 28.2461 65.2344 28.2539C65.2656 28.2539 65.3008 28.2539 65.3398 28.2539C65.457 28.2617 65.5742 28.2461 65.6914 28.207C65.8086 28.1602 65.9219 28.1055 66.0312 28.043C66.1875 28.0508 66.3398 28.043 66.4883 28.0195C66.6445 27.9883 66.7969 27.957 66.9453 27.9258C67.1016 27.8945 67.2539 27.8672 67.4023 27.8438C67.5586 27.8125 67.7148 27.8008 67.8711 27.8086C68.1289 27.8164 68.3828 27.793 68.6328 27.7383C68.8828 27.6836 69.1367 27.6641 69.3945 27.6797C69.5742 27.6875 69.75 27.7031 69.9219 27.7266C70.1016 27.7422 70.2812 27.7461 70.4609 27.7383C70.5625 27.7852 70.6523 27.8281 70.7305 27.8672C70.8164 27.8984 70.9219 27.9062 71.0469 27.8906C71.2969 28.1016 71.5234 28.3477 71.7266 28.6289V28.8281C71.7188 29.0078 71.6875 29.1836 71.6328 29.3555C71.5781 29.5273 71.5117 29.6992 71.4336 29.8711C71.3633 30.0352 71.2852 30.1992 71.1992 30.3633C71.1133 30.5195 71.0312 30.6758 70.9531 30.832C70.4453 31.293 69.9375 31.75 69.4297 32.2031C68.9219 32.6562 68.3984 33.0938 67.8594 33.5156C67.8438 33.5938 67.8203 33.6641 67.7891 33.7266C67.7656 33.7891 67.75 33.8555 67.7422 33.9258C67.7422 33.9648 67.7461 33.9961 67.7539 34.0195C67.8086 34.0352 67.8555 34.0664 67.8945 34.1133C67.9414 34.1523 67.957 34.207 67.9414 34.2773H68.0469C68.0859 34.2773 68.1055 34.293 68.1055 34.3242L68.293 34.3359C68.5898 34.3516 68.8867 34.3438 69.1836 34.3125C69.4805 34.2812 69.7773 34.2461 70.0742 34.207C70.3789 34.168 70.6797 34.1328 70.9766 34.1016C71.2734 34.0625 71.5703 34.0391 71.8672 34.0312C71.9375 34.0078 72.0117 33.9883 72.0898 33.9727C72.168 33.957 72.2383 33.9258 72.3008 33.8789H72.3359C72.3906 33.8789 72.4297 33.8945 72.4531 33.9258C72.4844 33.957 72.5273 33.9766 72.582 33.9844C72.6211 33.9844 72.6602 33.9766 72.6992 33.9609C72.7461 33.9453 72.793 33.9336 72.8398 33.9258C72.9492 33.8945 73.0625 33.875 73.1797 33.8672C73.3047 33.8594 73.4258 33.8477 73.543 33.832C73.9961 33.793 74.4453 33.7695 74.8906 33.7617C75.3359 33.7461 75.7812 33.6875 76.2266 33.5859C76.2656 33.6406 76.3203 33.6797 76.3906 33.7031C76.4609 33.7188 76.5352 33.7383 76.6133 33.7617C76.6914 33.7773 76.7617 33.7969 76.8242 33.8203C76.8945 33.8438 76.9414 33.8906 76.9648 33.9609ZM82.3555 35.1445C82.332 35.2539 82.2812 35.3438 82.2031 35.4141C82.1328 35.4766 82.0469 35.5273 81.9453 35.5664C81.8438 35.6055 81.7383 35.6328 81.6289 35.6484C81.5273 35.6562 81.4336 35.6602 81.3477 35.6602C81.3086 35.6602 81.2695 35.6602 81.2305 35.6602C81.1992 35.6523 81.1641 35.6484 81.125 35.6484C81.0859 35.6484 81.0664 35.668 81.0664 35.707C81.0664 35.7461 81.0469 35.7734 81.0078 35.7891C80.9688 35.7734 80.9297 35.7617 80.8906 35.7539C80.8516 35.7461 80.8125 35.7422 80.7734 35.7422C80.7188 35.7422 80.6641 35.7461 80.6094 35.7539C80.5625 35.7617 80.5156 35.7656 80.4688 35.7656C80.4062 35.7656 80.3594 35.7578 80.3281 35.7422C80.3047 35.7266 80.2812 35.7109 80.2578 35.6953C80.2422 35.6719 80.2227 35.6484 80.1992 35.625C80.1836 35.6016 80.1562 35.582 80.1172 35.5664C80.0625 35.543 80.0156 35.5391 79.9766 35.5547C79.9453 35.5703 79.8945 35.5469 79.8242 35.4844C79.7305 35.4062 79.6484 35.3125 79.5781 35.2031C79.5156 35.0859 79.4531 34.9648 79.3906 34.8398C79.3281 34.7148 79.2617 34.5898 79.1914 34.4648C79.1211 34.3398 79.0391 34.2305 78.9453 34.1367H78.8516C78.7109 34.1367 78.6133 34.1953 78.5586 34.3125C78.5195 34.2891 78.4805 34.2617 78.4414 34.2305C78.4023 34.1914 78.3594 34.1602 78.3125 34.1367C78.1328 34.1914 77.9453 34.2383 77.75 34.2773C77.5547 34.3164 77.3594 34.3359 77.1641 34.3359H77C76.9531 34.3359 76.9023 34.3281 76.8477 34.3125C76.7695 34.3438 76.6992 34.3828 76.6367 34.4297C76.5742 34.4688 76.5039 34.4883 76.4258 34.4883C76.3789 34.4883 76.3242 34.4727 76.2617 34.4414C76.2148 34.4414 76.1914 34.4609 76.1914 34.5C76.1992 34.5391 76.1758 34.5586 76.1211 34.5586H76.0156C75.9062 34.5586 75.7969 34.5625 75.6875 34.5703C75.5859 34.5781 75.4805 34.582 75.3711 34.582C75.2227 34.582 75.0703 34.5625 74.9141 34.5234C74.875 34.5469 74.832 34.5586 74.7852 34.5586C74.7539 34.5742 74.7305 34.6016 74.7148 34.6406C74.6992 34.6719 74.6836 34.7031 74.668 34.7344C74.6523 34.7578 74.6289 34.7812 74.5977 34.8047C74.5742 34.8203 74.5391 34.8242 74.4922 34.8164C74.4766 34.9102 74.4375 34.9844 74.375 35.0391C74.3125 35.0938 74.2812 35.1758 74.2812 35.2852C74.1953 35.332 74.125 35.3906 74.0703 35.4609C74.0156 35.5312 73.9609 35.6055 73.9062 35.6836C73.8516 35.7617 73.793 35.8359 73.7305 35.9062C73.6758 35.9766 73.6055 36.0312 73.5195 36.0703C73.4805 36.1172 73.4688 36.1914 73.4844 36.293C73.3984 36.3633 73.293 36.4258 73.168 36.4805C73.043 36.5352 72.9258 36.5625 72.8164 36.5625C72.5898 36.5625 72.4336 36.4414 72.3477 36.1992C72.3477 36.1211 72.3555 36.0391 72.3711 35.9531C72.3789 35.8594 72.3945 35.7734 72.418 35.6953C72.4414 35.6094 72.4766 35.5352 72.5234 35.4727C72.5703 35.4023 72.6367 35.3516 72.7227 35.3203C72.7227 35.25 72.6992 35.2031 72.6523 35.1797C72.6055 35.1484 72.5859 35.0977 72.5938 35.0273C72.8047 34.9258 72.9883 34.793 73.1445 34.6289C73.3008 34.4648 73.4414 34.293 73.5664 34.1133C73.6992 33.9258 73.832 33.7383 73.9648 33.5508C74.0977 33.3633 74.2461 33.1953 74.4102 33.0469V32.8008C74.6445 32.5508 74.7969 32.2695 74.8672 31.957C74.9531 31.9414 75.0078 31.9023 75.0312 31.8398C75.0625 31.7773 75.0781 31.7031 75.0781 31.6172C75.1172 31.6172 75.1406 31.6016 75.1484 31.5703C75.1641 31.5312 75.1992 31.5195 75.2539 31.5352C75.3242 31.3477 75.4023 31.1758 75.4883 31.0195C75.5742 30.8633 75.6602 30.707 75.7461 30.5508C75.832 30.3867 75.9062 30.2188 75.9688 30.0469C76.0391 29.875 76.0898 29.6836 76.1211 29.4727C76.2305 29.4648 76.2891 29.4141 76.2969 29.3203C76.3125 29.2188 76.3281 29.1289 76.3438 29.0508C76.4609 28.9414 76.5469 28.8125 76.6016 28.6641C76.6641 28.5156 76.7188 28.3633 76.7656 28.207C76.8125 28.043 76.8633 27.8828 76.918 27.7266C76.9805 27.5625 77.0664 27.418 77.1758 27.293V27.2578C77.1758 27.2188 77.1602 27.1953 77.1289 27.1875C77.0977 27.1719 77.082 27.1445 77.082 27.1055C77.0898 27.0977 77.0938 27.0898 77.0938 27.082C77.1875 27.043 77.2578 26.9805 77.3047 26.8945C77.3516 26.8008 77.4219 26.7344 77.5156 26.6953C77.6797 26.8281 77.8242 26.9102 77.9492 26.9414C78.0742 26.9648 78.2383 26.9844 78.4414 27C78.543 27.1094 78.5977 27.2422 78.6055 27.3984C78.6211 27.5469 78.6484 27.6953 78.6875 27.8438C78.75 28.0938 78.8164 28.3398 78.8867 28.582C78.9648 28.8164 79.0234 29.0586 79.0625 29.3086C79.0859 29.457 79.1289 29.5977 79.1914 29.7305C79.2539 29.8633 79.2969 30 79.3203 30.1406C79.3359 30.25 79.3359 30.375 79.3203 30.5156C79.3047 30.6484 79.3203 30.7656 79.3672 30.8672L79.4492 31.0547C79.4883 31.1406 79.5195 31.2305 79.543 31.3242C79.5742 31.418 79.6016 31.5117 79.625 31.6055C79.6875 31.8398 79.7422 32.0938 79.7891 32.3672C79.8438 32.6328 79.9258 32.875 80.0352 33.0938C80.0742 33.1719 80.1328 33.2266 80.2109 33.2578C80.2969 33.2891 80.3906 33.3125 80.4922 33.3281C80.5938 33.3359 80.6914 33.3398 80.7852 33.3398C80.8867 33.332 80.9727 33.3281 81.043 33.3281H81.1602C81.207 33.3281 81.2539 33.3359 81.3008 33.3516C81.332 33.4141 81.3477 33.4688 81.3477 33.5156C81.3477 33.6094 81.3164 33.6836 81.2539 33.7383C81.1914 33.793 81.1602 33.8555 81.1602 33.9258C81.1602 33.9648 81.1758 34.0078 81.207 34.0547C81.1758 34.0469 81.1289 34.043 81.0664 34.043C80.8867 34.043 80.7109 34.0742 80.5391 34.1367C80.6016 34.2695 80.6836 34.3828 80.7852 34.4766C80.8945 34.5625 81.0078 34.6445 81.125 34.7227C81.2031 34.6602 81.2852 34.6289 81.3711 34.6289C81.4648 34.6289 81.5508 34.6523 81.6289 34.6992C81.7148 34.7383 81.8047 34.7578 81.8984 34.7578C81.9688 34.7578 82.0195 34.7461 82.0508 34.7227C82.1133 34.793 82.1641 34.8672 82.2031 34.9453C82.2422 35.0156 82.293 35.082 82.3555 35.1445ZM78.6875 33.2695C78.6719 33.1367 78.6445 33.043 78.6055 32.9883C78.5742 32.9258 78.5469 32.8516 78.5234 32.7656C78.4922 32.6562 78.4688 32.5391 78.4531 32.4141C78.4453 32.2891 78.4297 32.168 78.4062 32.0508C78.3516 31.7852 78.2891 31.5195 78.2188 31.2539C78.1562 30.9883 78.0742 30.7305 77.9727 30.4805C78.0039 30.4336 78.0195 30.3906 78.0195 30.3516V30.3164C77.9492 30.2383 77.8984 30.1445 77.8672 30.0352C77.8359 29.918 77.8047 29.8047 77.7734 29.6953C77.75 29.5781 77.7148 29.4727 77.668 29.3789C77.6289 29.2773 77.5625 29.1953 77.4688 29.1328C77.4453 29.1797 77.4336 29.2344 77.4336 29.2969C77.4336 29.3516 77.4375 29.4023 77.4453 29.4492C77.4609 29.4961 77.4688 29.5469 77.4688 29.6016C77.3906 29.6406 77.332 29.7031 77.293 29.7891C77.2617 29.8672 77.207 29.9297 77.1289 29.9766C77.0664 30.2266 76.9766 30.4648 76.8594 30.6914C76.7422 30.9102 76.6172 31.1289 76.4844 31.3477C76.3594 31.5664 76.2383 31.7891 76.1211 32.0156C76.0039 32.2344 75.9102 32.4648 75.8398 32.707C75.7383 32.7773 75.668 32.8672 75.6289 32.9766C75.5977 33.0859 75.582 33.1953 75.582 33.3047C75.6523 33.3438 75.7305 33.3672 75.8164 33.375C75.9102 33.375 76 33.375 76.0859 33.375C76.1719 33.375 76.2539 33.3828 76.332 33.3984C76.4102 33.4141 76.4805 33.4531 76.543 33.5156C76.6445 33.4844 76.7539 33.4648 76.8711 33.457C76.9961 33.4414 77.0977 33.4062 77.1758 33.3516C77.332 33.4062 77.5 33.4336 77.6797 33.4336C77.7734 33.4336 77.8633 33.4258 77.9492 33.4102C78.043 33.3945 78.1328 33.375 78.2188 33.3516C78.2891 33.3672 78.3438 33.3945 78.3828 33.4336C78.4219 33.4648 78.4805 33.4766 78.5586 33.4688C78.5977 33.4375 78.6211 33.4062 78.6289 33.375C78.6367 33.3359 78.6562 33.3008 78.6875 33.2695ZM90.1367 30.2227C90.1367 30.3008 90.1094 30.3516 90.0547 30.375C90 30.3984 89.9727 30.4453 89.9727 30.5156C89.9727 30.5391 89.9805 30.5586 89.9961 30.5742C90.0117 30.5898 90.0195 30.6133 90.0195 30.6445V30.6914C89.9258 31.1445 89.7891 31.5391 89.6094 31.875C89.4375 32.2109 89.2344 32.5195 89 32.8008C88.7656 33.082 88.5 33.3477 88.2031 33.5977C87.9141 33.8477 87.6016 34.1094 87.2656 34.3828C87.1719 34.4609 87.0742 34.5391 86.9727 34.6172C86.8789 34.6953 86.7891 34.7773 86.7031 34.8633L86.4453 35.1094C86.4375 35.1172 86.3945 35.1367 86.3164 35.168C86.2383 35.1914 86.1914 35.207 86.1758 35.2148C86.0664 35.2617 85.9492 35.3164 85.8242 35.3789C85.707 35.4414 85.6055 35.5195 85.5195 35.6133C85.3633 35.6133 85.2305 35.6367 85.1211 35.6836C85.0117 35.7305 84.8906 35.793 84.7578 35.8711C84.7188 35.8711 84.6836 35.8633 84.6523 35.8477C84.6289 35.832 84.6016 35.8164 84.5703 35.8008C84.5391 35.7852 84.5039 35.7773 84.4648 35.7773C84.4336 35.7695 84.3906 35.7734 84.3359 35.7891C84.2422 35.6328 84.1406 35.5 84.0312 35.3906C83.9219 35.2812 83.7734 35.2148 83.5859 35.1914C83.5625 35.0586 83.5078 34.957 83.4219 34.8867C83.3359 34.8086 83.25 34.7266 83.1641 34.6406C83.1484 34.5938 83.1367 34.5391 83.1289 34.4766C83.1211 34.4141 83.1055 34.3555 83.082 34.3008C83.0586 34.2461 83.0273 34.1992 82.9883 34.1602C82.9492 34.1211 82.8945 34.1016 82.8242 34.1016C82.8164 34.0547 82.8359 34.0312 82.8828 34.0312C82.9297 34.0312 82.9531 34.0117 82.9531 33.9727C82.9531 33.9258 82.9453 33.8789 82.9297 33.832C82.9141 33.7852 82.9062 33.7344 82.9062 33.6797C82.9062 33.6406 82.9102 33.6055 82.918 33.5742C82.9258 33.543 82.9375 33.5078 82.9531 33.4688C82.9297 33.2578 82.918 33.043 82.918 32.8242C82.918 32.4023 82.9453 31.9883 83 31.582C83.0625 31.168 83.0938 30.75 83.0938 30.3281C83.0938 30.1406 83.082 29.9531 83.0586 29.7656C83.043 29.5781 83.0078 29.3945 82.9531 29.2148C82.7734 29.2539 82.5938 29.3008 82.4141 29.3555C82.2344 29.4023 82.0664 29.4688 81.9102 29.5547C81.8242 29.5 81.7344 29.4688 81.6406 29.4609C81.5391 29.4453 81.4414 29.4219 81.3477 29.3906C81.293 29.2812 81.2656 29.168 81.2656 29.0508C81.2656 28.9414 81.2852 28.8359 81.3242 28.7344L81.4414 28.4297C81.6289 28.3906 81.8164 28.332 82.0039 28.2539C82.1836 28.1758 82.3672 28.1055 82.5547 28.043C82.6172 28.0273 82.6953 28.0078 82.7891 27.9844C82.8906 27.9609 82.9609 27.9414 83 27.9258C83.0547 27.9023 83.0898 27.8594 83.1055 27.7969C83.1289 27.7266 83.1602 27.668 83.1992 27.6211H83.3984C83.4453 27.6211 83.4961 27.625 83.5508 27.6328C83.6055 27.6328 83.6562 27.6445 83.7031 27.668C83.9844 27.5977 84.2656 27.5547 84.5469 27.5391C84.8281 27.5156 85.1172 27.4844 85.4141 27.4453C85.4453 27.4453 85.4922 27.4414 85.5547 27.4336L85.7539 27.3984C85.8242 27.3828 85.8867 27.3711 85.9414 27.3633C86.0039 27.3477 86.0469 27.3398 86.0703 27.3398C86.0938 27.3398 86.1055 27.3516 86.1055 27.375H86.3047C86.6406 27.375 86.9688 27.418 87.2891 27.5039L88.25 27.7617C88.3828 27.8711 88.5156 27.9766 88.6484 28.0781C88.7812 28.1797 88.9297 28.2695 89.0938 28.3477C89.1328 28.4727 89.1914 28.5742 89.2695 28.6523C89.3555 28.7227 89.4492 28.8008 89.5508 28.8867C89.5898 28.9883 89.6406 29.0977 89.7031 29.2148C89.7734 29.3242 89.8398 29.4375 89.9023 29.5547C89.9648 29.6719 90.0195 29.7891 90.0664 29.9062C90.1133 30.0156 90.1367 30.1211 90.1367 30.2227ZM89.0469 30.3984C88.9609 30.2188 88.8789 30.0312 88.8008 29.8359C88.7227 29.6406 88.625 29.4648 88.5078 29.3086C88.3672 29.2695 88.2227 29.2227 88.0742 29.168C87.9336 29.1055 87.8359 29 87.7812 28.8516C87.7656 28.8594 87.7383 28.8633 87.6992 28.8633C87.6289 28.8633 87.5664 28.8359 87.5117 28.7812C87.457 28.7266 87.3945 28.6914 87.3242 28.6758C87.2617 28.668 87.1758 28.6562 87.0664 28.6406C86.9648 28.625 86.8555 28.6133 86.7383 28.6055C86.6211 28.5977 86.5039 28.5898 86.3867 28.582C86.2773 28.5742 86.1914 28.5703 86.1289 28.5703C86.0664 28.5703 86 28.5742 85.9297 28.582C85.8672 28.582 85.8008 28.5859 85.7305 28.5938C85.668 28.5938 85.6289 28.6055 85.6133 28.6289C85.5977 28.6445 85.5664 28.6602 85.5195 28.6758C85.4805 28.6602 85.4375 28.6523 85.3906 28.6523H85.25C85.0859 28.6523 84.9219 28.6797 84.7578 28.7344C84.6016 28.7812 84.4453 28.8477 84.2891 28.9336V28.9805C84.2891 29.043 84.3164 29.0781 84.3711 29.0859C84.4258 29.0938 84.457 29.125 84.4648 29.1797C84.4258 29.1797 84.3945 29.1836 84.3711 29.1914C84.3477 29.1914 84.3359 29.2188 84.3359 29.2734C84.3359 29.3516 84.3438 29.4375 84.3594 29.5312C84.3828 29.625 84.3945 29.7188 84.3945 29.8125C84.3945 29.8828 84.3867 29.9648 84.3711 30.0586C84.3555 30.1523 84.3164 30.2266 84.2539 30.2812C84.332 30.3516 84.3711 30.4453 84.3711 30.5625C84.3711 30.6406 84.3555 30.7227 84.3242 30.8086C84.293 30.8945 84.2539 30.9688 84.207 31.0312C84.1914 31.3594 84.1602 31.6914 84.1133 32.0273C84.0664 32.3633 84.043 32.6953 84.043 33.0234C84.043 33.1875 84.0508 33.3477 84.0664 33.5039C84.0898 33.6602 84.125 33.8164 84.1719 33.9727C84.2578 34.0586 84.3477 34.125 84.4414 34.1719C84.543 34.2188 84.6484 34.2656 84.7578 34.3125V34.3477C84.7578 34.3711 84.7422 34.3945 84.7109 34.418C84.6797 34.4414 84.6641 34.4727 84.6641 34.5117C84.6641 34.543 84.6797 34.5586 84.7109 34.5586C85.0391 34.4648 85.3477 34.3516 85.6367 34.2188C85.9258 34.0859 86.1953 33.9062 86.4453 33.6797C86.4688 33.6562 86.4922 33.6445 86.5156 33.6445C86.5312 33.6445 86.5508 33.6484 86.5742 33.6562C86.6055 33.6641 86.6328 33.6719 86.6562 33.6797L86.6445 33.6328C86.6445 33.5859 86.6562 33.543 86.6797 33.5039C86.7109 33.4648 86.7461 33.4297 86.7852 33.3984L86.9023 33.293C86.9414 33.2539 86.9727 33.2148 86.9961 33.1758C87.0586 33.1602 87.1016 33.1289 87.125 33.082C87.1562 33.0352 87.207 33.0117 87.2773 33.0117C87.293 32.9258 87.3359 32.8633 87.4062 32.8242C87.4766 32.7773 87.5195 32.7109 87.5352 32.625C87.6914 32.5391 87.8281 32.4336 87.9453 32.3086C88.0703 32.1836 88.1836 32.0508 88.2852 31.9102C88.3945 31.7695 88.4961 31.625 88.5898 31.4766C88.6836 31.3203 88.7812 31.1719 88.8828 31.0312V30.9844C88.8828 30.8594 88.9023 30.7578 88.9414 30.6797C88.9883 30.6016 89.0234 30.5078 89.0469 30.3984ZM93.1836 34.3945C93.1445 34.457 93.0977 34.5156 93.043 34.5703C92.9883 34.6172 92.9375 34.668 92.8906 34.7227C92.8359 34.7461 92.7734 34.7578 92.7031 34.7578C92.6406 34.7578 92.5781 34.7578 92.5156 34.7578C92.4609 34.75 92.4062 34.75 92.3516 34.7578C92.3047 34.7578 92.2656 34.7734 92.2344 34.8047C92.1719 34.7891 92.125 34.7617 92.0938 34.7227C92.0625 34.6758 92.0078 34.6484 91.9297 34.6406C91.8984 34.6328 91.8672 34.6328 91.8359 34.6406C91.7188 34.5078 91.6094 34.3672 91.5078 34.2188C91.4141 34.0703 91.3242 33.9297 91.2383 33.7969C91.2305 33.5078 91.207 33.2148 91.168 32.918C91.1602 32.8477 91.1484 32.7773 91.1328 32.707C91.1172 32.6367 91.1055 32.5703 91.0977 32.5078C91.0977 32.4297 91.1016 32.3555 91.1094 32.2852C91.125 32.207 91.1367 32.1367 91.1445 32.0742C91.1758 31.8477 91.2109 31.625 91.25 31.4062C91.2891 31.1875 91.3242 30.9648 91.3555 30.7383C91.3867 30.5352 91.4023 30.3242 91.4023 30.1055C91.4023 29.8789 91.3672 29.668 91.2969 29.4727L91.2852 29.4141C91.3008 29.3516 91.3164 29.3008 91.332 29.2617C91.3555 29.2148 91.3711 29.1641 91.3789 29.1094C91.3945 29.0234 91.375 28.9609 91.3203 28.9219C91.3438 28.8594 91.3828 28.8203 91.4375 28.8047C91.4922 28.7812 91.5234 28.7344 91.5312 28.6641C91.5391 28.6328 91.5391 28.6016 91.5312 28.5703C91.5938 28.5469 91.6562 28.5273 91.7188 28.5117C91.7891 28.4883 91.8555 28.4844 91.918 28.5C92.0195 28.5156 92.1094 28.5508 92.1875 28.6055C92.2656 28.6523 92.3398 28.707 92.4102 28.7695C92.5352 29.1445 92.5859 29.543 92.5625 29.9648C92.5391 30.3789 92.5 30.7969 92.4453 31.2188C92.3906 31.6406 92.3555 32.0547 92.3398 32.4609C92.3242 32.8594 92.3867 33.2305 92.5273 33.5742L92.5508 33.5859C92.5898 33.5938 92.6211 33.582 92.6445 33.5508C92.668 33.5117 92.6992 33.4961 92.7383 33.5039C92.7695 33.5195 92.7891 33.5273 92.7969 33.5273C92.8281 33.6836 92.8789 33.832 92.9492 33.9727C93.0195 34.1133 93.0977 34.2539 93.1836 34.3945ZM101.715 28.5469V28.5938C101.66 28.6094 101.633 28.6484 101.633 28.7109C101.547 28.75 101.457 28.7812 101.363 28.8047C101.27 28.8203 101.18 28.8477 101.094 28.8867C101.008 28.8789 100.918 28.875 100.824 28.875C100.738 28.8672 100.652 28.8633 100.566 28.8633C100.332 28.8633 100.098 28.8711 99.8633 28.8867C99.6289 28.9023 99.3945 28.9023 99.1602 28.8867C99.0508 28.9492 98.9297 29 98.7969 29.0391C98.6719 29.0703 98.5508 29.0859 98.4336 29.0859C98.3398 29.0859 98.2578 29.0742 98.1875 29.0508C98 29.1445 97.793 29.2227 97.5664 29.2852C97.3477 29.3477 97.125 29.4102 96.8984 29.4727C96.6719 29.5273 96.4531 29.5938 96.2422 29.6719C96.0391 29.7422 95.8594 29.8438 95.7031 29.9766C95.6875 30.0859 95.6758 30.1953 95.668 30.3047C95.6602 30.4062 95.6562 30.5078 95.6562 30.6094C95.6562 30.7188 95.6602 30.8203 95.668 30.9141C95.6836 31.0078 95.7109 31.1016 95.75 31.1953C95.7891 31.2109 95.832 31.2227 95.8789 31.2305C95.9336 31.2383 95.9805 31.2422 96.0195 31.2422C96.0586 31.2422 96.0977 31.2383 96.1367 31.2305C96.1758 31.2148 96.2031 31.1875 96.2188 31.1484C96.3359 31.1328 96.4531 31.1289 96.5703 31.1367C96.6875 31.1367 96.8047 31.1367 96.9219 31.1367C97.0391 31.1367 97.1523 31.1328 97.2617 31.125C97.3789 31.1172 97.4922 31.0977 97.6016 31.0664C97.7266 31.0352 97.8477 31.0156 97.9648 31.0078C98.0898 31 98.2109 30.9922 98.3281 30.9844C98.4453 30.9766 98.5664 30.9648 98.6914 30.9492C98.8164 30.9258 98.9453 30.8828 99.0781 30.8203C99.1797 30.8594 99.2812 30.8789 99.3828 30.8789C99.4922 30.8789 99.5977 30.8867 99.6992 30.9023C99.7539 30.9414 99.7969 30.9844 99.8281 31.0312C99.8672 31.0781 99.8867 31.1328 99.8867 31.1953C99.8867 31.3047 99.8477 31.4141 99.7695 31.5234C99.6914 31.6328 99.6289 31.7344 99.582 31.8281H99.4531C99.2656 31.8281 99.082 31.8555 98.9023 31.9102C98.7305 31.957 98.5547 32.0156 98.375 32.0859C98.2031 32.1484 98.0273 32.207 97.8477 32.2617C97.6758 32.3086 97.4961 32.332 97.3086 32.332C97.2773 32.332 97.2578 32.3516 97.25 32.3906C97.25 32.4219 97.2422 32.4453 97.2266 32.4609C97.1875 32.4531 97.1289 32.4492 97.0508 32.4492C96.8711 32.4492 96.6992 32.4688 96.5352 32.5078C96.3711 32.5469 96.2031 32.5664 96.0312 32.5664C95.9844 32.5664 95.9375 32.5664 95.8906 32.5664C95.8438 32.5586 95.7969 32.5508 95.75 32.543C95.7109 32.6055 95.6602 32.6484 95.5977 32.6719C95.5352 32.6875 95.4766 32.7188 95.4219 32.7656C95.3984 32.8359 95.3828 32.9219 95.375 33.0234C95.375 33.125 95.3711 33.2305 95.3633 33.3398C95.3633 33.4414 95.3555 33.5391 95.3398 33.6328C95.3242 33.7266 95.293 33.8008 95.2461 33.8555C95.2539 33.8945 95.2852 33.9102 95.3398 33.9023C95.3945 33.8867 95.4219 33.9102 95.4219 33.9727C95.4219 34.043 95.4141 34.1172 95.3984 34.1953C95.3828 34.2734 95.375 34.3516 95.375 34.4297C95.375 34.5781 95.3906 34.7422 95.4219 34.9219C95.4609 35.0938 95.5156 35.2539 95.5859 35.4023C95.6641 35.5508 95.7656 35.6758 95.8906 35.7773C96.0156 35.8711 96.1719 35.918 96.3594 35.918C96.4844 35.918 96.6016 35.8945 96.7109 35.8477C96.8203 35.8008 96.9102 35.7227 96.9805 35.6133L97.0391 35.6016C97.0703 35.6016 97.0977 35.6055 97.1211 35.6133C97.1523 35.6211 97.1836 35.625 97.2148 35.625C97.2617 35.625 97.3203 35.5977 97.3906 35.543C97.4688 35.4805 97.5508 35.4102 97.6367 35.332C97.7305 35.2539 97.8242 35.1797 97.918 35.1094C98.0117 35.0312 98.1016 34.9766 98.1875 34.9453C98.2422 34.8359 98.293 34.7266 98.3398 34.6172C98.3945 34.5078 98.4727 34.4219 98.5742 34.3594V34.0195C98.6523 33.9336 98.7344 33.8555 98.8203 33.7852C98.9141 33.7148 98.9844 33.625 99.0312 33.5156C99.0703 33.5312 99.1055 33.543 99.1367 33.5508C99.1758 33.5586 99.2148 33.5625 99.2539 33.5625C99.293 33.5625 99.332 33.5586 99.3711 33.5508C99.418 33.543 99.4609 33.5312 99.5 33.5156C99.5625 33.6016 99.6094 33.6992 99.6406 33.8086C99.6797 33.9102 99.7266 34.0078 99.7812 34.1016C99.7109 34.2422 99.6289 34.4102 99.5352 34.6055C99.4414 34.8008 99.3398 34.9961 99.2305 35.1914C99.1211 35.3867 99.0039 35.5742 98.8789 35.7539C98.7617 35.9258 98.6445 36.0586 98.5273 36.1523C98.5039 36.1758 98.4531 36.2031 98.375 36.2344C98.2891 36.2969 98.2109 36.3555 98.1406 36.4102C98.0703 36.4727 98.0039 36.543 97.9414 36.6211C97.7148 36.6914 97.4961 36.7852 97.2852 36.9023C97.082 37.0195 96.8789 37.1328 96.6758 37.2422C96.582 37.2188 96.4805 37.207 96.3711 37.207C96.2773 37.207 96.1836 37.2109 96.0898 37.2188C95.9961 37.2344 95.8945 37.2422 95.7852 37.2422C95.7539 37.2031 95.707 37.1758 95.6445 37.1602C95.5898 37.1523 95.5703 37.1133 95.5859 37.043C95.3203 37.0273 95.1055 36.9531 94.9414 36.8203C94.7773 36.6953 94.6367 36.5391 94.5195 36.3516C94.4102 36.1641 94.3203 35.9609 94.25 35.7422C94.1797 35.5234 94.1055 35.3125 94.0273 35.1094V35.0742C94.0273 35.0352 94.043 35.0117 94.0742 35.0039C94.1055 34.9961 94.1211 34.9727 94.1211 34.9336C94.1211 34.918 94.1172 34.9062 94.1094 34.8984C94.0859 34.8125 94.0664 34.7383 94.0508 34.6758C94.0352 34.6133 94.0273 34.5391 94.0273 34.4531C94.0273 34.3281 94.0352 34.207 94.0508 34.0898C94.0664 33.9648 94.0742 33.8398 94.0742 33.7148C94.0742 33.5898 94.0586 33.4805 94.0273 33.3867C94.0586 33.3477 94.0859 33.2969 94.1094 33.2344C94.125 33.1641 94.1367 33.0938 94.1445 33.0234C94.1523 32.9531 94.1562 32.8828 94.1562 32.8125C94.1641 32.7422 94.1758 32.6797 94.1914 32.625C94.1602 32.5391 94.1328 32.4648 94.1094 32.4023C94.0859 32.332 94.0742 32.25 94.0742 32.1562V32.0742C94.1523 31.9414 94.2188 31.8047 94.2734 31.6641C94.3281 31.5234 94.3867 31.3789 94.4492 31.2305V31.1953C94.4492 30.9688 94.4414 30.7422 94.4258 30.5156C94.4102 30.2891 94.4023 30.0625 94.4023 29.8359V29.6133C94.4023 29.5352 94.4062 29.4609 94.4141 29.3906C94.4766 29.3594 94.5234 29.3164 94.5547 29.2617C94.5859 29.207 94.6328 29.1641 94.6953 29.1328H95.082L95.1523 29.0156C95.1758 28.9766 95.1914 28.9336 95.1992 28.8867C95.2852 28.8633 95.3672 28.832 95.4453 28.793C95.5312 28.7461 95.6094 28.6992 95.6797 28.6523C95.7891 28.5898 95.8867 28.5352 95.9727 28.4883C96.0664 28.4336 96.1562 28.3906 96.2422 28.3594C96.3359 28.3203 96.4336 28.2891 96.5352 28.2656C96.6367 28.2422 96.7539 28.2227 96.8867 28.207C96.9492 28.207 96.9883 28.1953 97.0039 28.1719C97.0273 28.1484 97.0586 28.1211 97.0977 28.0898C97.1914 28.1055 97.2852 28.1211 97.3789 28.1367C97.4727 28.1445 97.5664 28.1484 97.6602 28.1484C97.8477 28.1484 98.0234 28.1133 98.1875 28.043C98.4219 28.043 98.6523 28.0391 98.8789 28.0312C99.1133 28.0234 99.3477 28.0195 99.582 28.0195C99.7852 28.0195 99.9883 28.0273 100.191 28.043C100.395 28.0586 100.594 28.0859 100.789 28.125C100.859 28.1016 100.938 28.0898 101.023 28.0898C101.117 28.0898 101.211 28.1016 101.305 28.125C101.406 28.1406 101.504 28.1406 101.598 28.125C101.605 28.2109 101.625 28.2852 101.656 28.3477C101.695 28.4023 101.715 28.4688 101.715 28.5469ZM108.863 28.3008C108.848 28.3945 108.824 28.4766 108.793 28.5469C108.77 28.6094 108.766 28.6953 108.781 28.8047C108.703 28.8125 108.641 28.8398 108.594 28.8867C108.555 28.9258 108.52 28.9727 108.488 29.0273C108.465 29.082 108.438 29.1406 108.406 29.2031C108.383 29.2578 108.352 29.3086 108.312 29.3555C108.375 29.6367 108.41 29.9219 108.418 30.2109C108.426 30.5 108.445 30.7852 108.477 31.0664C108.516 31.4258 108.574 31.7812 108.652 32.1328C108.738 32.4766 108.781 32.8281 108.781 33.1875C108.781 33.2969 108.777 33.3984 108.77 33.4922C108.77 33.5859 108.77 33.6836 108.77 33.7852C108.77 33.8477 108.77 33.9141 108.77 33.9844C108.777 34.0469 108.781 34.1094 108.781 34.1719C108.781 34.3984 108.75 34.625 108.688 34.8516C108.633 35.0781 108.59 35.3047 108.559 35.5312C108.465 35.6172 108.383 35.7109 108.312 35.8125C108.25 35.9141 108.184 36.0078 108.113 36.0938C108.043 36.1797 107.961 36.2539 107.867 36.3164C107.773 36.3867 107.656 36.4336 107.516 36.457C107.492 36.5352 107.445 36.5938 107.375 36.6328C107.312 36.6719 107.258 36.7266 107.211 36.7969H107.188C106.992 36.7969 106.824 36.7695 106.684 36.7148C106.543 36.6602 106.41 36.5977 106.285 36.5273C106.168 36.457 106.047 36.3828 105.922 36.3047C105.797 36.2266 105.652 36.1641 105.488 36.1172C105.27 35.9375 105.07 35.7422 104.891 35.5312C104.711 35.3125 104.508 35.1172 104.281 34.9453C104.227 34.7891 104.152 34.6602 104.059 34.5586C103.973 34.457 103.887 34.3398 103.801 34.207C103.762 34.1523 103.73 34.1016 103.707 34.0547C103.691 34.0078 103.668 33.9531 103.637 33.8906C103.613 33.8281 103.574 33.7852 103.52 33.7617C103.473 33.7383 103.43 33.7109 103.391 33.6797C103.328 33.4375 103.238 33.2148 103.121 33.0117C103.004 32.8086 102.867 32.6133 102.711 32.4258C102.664 32.5117 102.625 32.6055 102.594 32.707C102.57 32.8008 102.547 32.8984 102.523 33C102.5 33.0938 102.469 33.1914 102.43 33.293C102.398 33.3867 102.355 33.4727 102.301 33.5508V33.5859C102.301 33.625 102.316 33.6484 102.348 33.6562C102.379 33.6641 102.395 33.6875 102.395 33.7266C102.395 33.7344 102.391 33.7422 102.383 33.75C102.383 33.7578 102.383 33.7656 102.383 33.7734C102.344 33.8047 102.312 33.8438 102.289 33.8906C102.273 33.9375 102.234 33.9648 102.172 33.9727C102.18 34.0117 102.184 34.0508 102.184 34.0898V34.1953C102.184 34.4219 102.156 34.6484 102.102 34.875C102.055 35.1016 102.031 35.332 102.031 35.5664V35.7188C102.031 35.7734 102.035 35.8242 102.043 35.8711C102.059 35.918 102.082 35.9648 102.113 36.0117C102.145 36.0586 102.16 36.1016 102.16 36.1406C102.16 36.1953 102.137 36.2461 102.09 36.293C102.145 36.332 102.207 36.375 102.277 36.4219C102.348 36.4688 102.41 36.5195 102.465 36.5742C102.527 36.6367 102.578 36.6992 102.617 36.7617C102.656 36.832 102.676 36.9062 102.676 36.9844C102.676 37.1172 102.633 37.2109 102.547 37.2656C102.461 37.3203 102.355 37.3633 102.23 37.3945C102.113 37.4258 101.988 37.4531 101.855 37.4766C101.73 37.5078 101.625 37.5586 101.539 37.6289H101.504C101.41 37.6289 101.34 37.6016 101.293 37.5469C101.246 37.4922 101.176 37.4648 101.082 37.4648C100.934 37.2227 100.832 36.9492 100.777 36.6445C100.723 36.3477 100.695 36.0625 100.695 35.7891C100.695 35.4531 100.727 35.1172 100.789 34.7812C100.844 34.4453 100.914 34.1133 101 33.7852C101.078 33.457 101.164 33.1328 101.258 32.8125C101.359 32.4844 101.453 32.1562 101.539 31.8281L101.551 31.793C101.551 31.7539 101.539 31.7266 101.516 31.7109C101.5 31.6953 101.492 31.6719 101.492 31.6406C101.492 31.625 101.496 31.6172 101.504 31.6172C101.527 31.5391 101.551 31.4648 101.574 31.3945C101.605 31.3242 101.629 31.2461 101.645 31.1602C101.691 30.9414 101.723 30.7188 101.738 30.4922C101.762 30.2578 101.773 30.0273 101.773 29.8008C101.781 29.5742 101.789 29.3477 101.797 29.1211C101.812 28.8867 101.84 28.6562 101.879 28.4297C101.941 28.3672 102 28.3008 102.055 28.2305C102.109 28.1602 102.18 28.0977 102.266 28.043C102.422 28.0508 102.578 28.0742 102.734 28.1133C102.891 28.1523 103.039 28.2148 103.18 28.3008C103.273 28.6367 103.336 28.9727 103.367 29.3086C103.406 29.6445 103.469 29.9805 103.555 30.3164V30.3516C103.555 30.3906 103.574 30.4102 103.613 30.4102C103.66 30.4023 103.695 30.4141 103.719 30.4453C103.703 30.4688 103.691 30.4961 103.684 30.5273C103.684 30.5586 103.684 30.5898 103.684 30.6211V30.8203C103.699 30.8828 103.719 30.9492 103.742 31.0195C103.766 31.0898 103.816 31.1328 103.895 31.1484C103.934 31.3984 103.992 31.6289 104.07 31.8398C104.148 32.0508 104.238 32.2539 104.34 32.4492C104.441 32.6445 104.551 32.8398 104.668 33.0352C104.785 33.2227 104.906 33.4219 105.031 33.6328C105.227 33.7812 105.395 33.9531 105.535 34.1484C105.676 34.3359 105.816 34.5195 105.957 34.6992C106.105 34.8711 106.27 35.0234 106.449 35.1562C106.637 35.2891 106.879 35.3711 107.176 35.4023C107.215 35.3711 107.242 35.3281 107.258 35.2734L107.316 35.1094C107.34 35.0547 107.363 35.0078 107.387 34.9688C107.418 34.9219 107.461 34.8867 107.516 34.8633C107.531 34.6445 107.547 34.4219 107.562 34.1953C107.586 33.9688 107.637 33.7539 107.715 33.5508C107.676 33.4805 107.656 33.3945 107.656 33.293C107.656 33.2148 107.66 33.1406 107.668 33.0703C107.684 33 107.691 32.9297 107.691 32.8594C107.691 32.7109 107.66 32.5898 107.598 32.4961C107.598 32.4414 107.602 32.3867 107.609 32.332C107.617 32.2695 107.641 32.2109 107.68 32.1562C107.617 32 107.566 31.8359 107.527 31.6641C107.496 31.4922 107.48 31.3164 107.48 31.1367C107.48 31.0352 107.492 30.9297 107.516 30.8203C107.469 30.7031 107.438 30.5664 107.422 30.4102L107.375 29.9297C107.359 29.7656 107.336 29.6133 107.305 29.4727C107.273 29.332 107.215 29.2188 107.129 29.1328C107.176 29.0625 107.199 28.9805 107.199 28.8867C107.199 28.7305 107.176 28.582 107.129 28.4414C107.082 28.3008 107.059 28.1523 107.059 27.9961C107.059 27.8867 107.082 27.7773 107.129 27.668C107.301 27.6758 107.469 27.6953 107.633 27.7266C107.805 27.75 107.973 27.7617 108.137 27.7617C108.184 27.8242 108.238 27.875 108.301 27.9141C108.363 27.9531 108.43 27.9922 108.5 28.0312C108.57 28.0625 108.637 28.0977 108.699 28.1367C108.77 28.1758 108.824 28.2305 108.863 28.3008ZM120.125 28.4648C120.094 28.5664 120.043 28.6602 119.973 28.7461L119.773 28.9922C119.711 29.0703 119.656 29.1562 119.609 29.25C119.57 29.3359 119.559 29.4375 119.574 29.5547C119.559 29.5547 119.539 29.5547 119.516 29.5547C119.492 29.5469 119.473 29.543 119.457 29.543C119.332 29.543 119.234 29.5742 119.164 29.6367C119.102 29.6914 119.016 29.7383 118.906 29.7773C118.891 29.7305 118.871 29.6875 118.848 29.6484C118.824 29.6016 118.789 29.5703 118.742 29.5547C118.555 29.5938 118.367 29.625 118.18 29.6484C117.992 29.6641 117.805 29.6875 117.617 29.7188C117.531 29.7344 117.445 29.7578 117.359 29.7891C117.273 29.8125 117.184 29.8359 117.09 29.8594C117.043 29.875 116.992 29.8828 116.938 29.8828C116.883 29.875 116.828 29.875 116.773 29.8828C116.586 29.8906 116.383 29.9062 116.164 29.9297C115.945 29.9453 115.75 30.0039 115.578 30.1055C115.5 30.0898 115.418 30.0781 115.332 30.0703C115.246 30.0625 115.16 30.0586 115.074 30.0586C114.887 30.0586 114.68 30.0781 114.453 30.1172C114.234 30.1484 114.039 30.2148 113.867 30.3164C113.828 30.3008 113.785 30.2891 113.738 30.2812C113.699 30.2734 113.652 30.2695 113.598 30.2695C113.582 30.2695 113.57 30.2734 113.562 30.2812C113.555 30.2812 113.543 30.2812 113.527 30.2812C113.52 30.3516 113.527 30.4219 113.551 30.4922C113.582 30.5547 113.633 30.6055 113.703 30.6445C113.672 30.7305 113.656 30.8242 113.656 30.9258C113.656 31.0586 113.664 31.1914 113.68 31.3242C113.703 31.457 113.715 31.5898 113.715 31.7227C113.715 31.8711 113.695 31.9883 113.656 32.0742C113.734 32.3086 113.773 32.5586 113.773 32.8242C113.773 32.918 113.766 33.0117 113.75 33.1055C113.742 33.1914 113.738 33.2852 113.738 33.3867C113.738 33.4727 113.77 33.543 113.832 33.5977C113.895 33.6445 113.926 33.7109 113.926 33.7969C113.926 33.8281 113.918 33.8594 113.902 33.8906C114.012 33.8672 114.117 33.8359 114.219 33.7969C114.32 33.75 114.426 33.7266 114.535 33.7266C114.598 33.7266 114.656 33.7383 114.711 33.7617C114.773 33.7852 114.828 33.8164 114.875 33.8555C114.867 33.8945 114.859 33.9375 114.852 33.9844C114.852 34.0312 114.852 34.0781 114.852 34.125C114.852 34.2109 114.852 34.293 114.852 34.3711C114.859 34.4414 114.867 34.5195 114.875 34.6055C114.812 34.7148 114.738 34.8125 114.652 34.8984C114.574 34.9844 114.52 35.0938 114.488 35.2266C114.371 35.2266 114.266 35.2539 114.172 35.3086C114.086 35.3555 114.004 35.4102 113.926 35.4727C113.848 35.5273 113.77 35.582 113.691 35.6367C113.613 35.6836 113.527 35.707 113.434 35.707C113.316 35.707 113.234 35.6914 113.188 35.6602C113.141 35.6211 113.105 35.582 113.082 35.543C113.059 35.5039 113.035 35.4688 113.012 35.4375C112.996 35.4062 112.957 35.3945 112.895 35.4023C112.879 35.3008 112.848 35.207 112.801 35.1211C112.754 35.0273 112.703 34.9375 112.648 34.8516C112.602 34.7656 112.551 34.6797 112.496 34.5938C112.449 34.5 112.414 34.4062 112.391 34.3125C112.344 34.1094 112.324 33.8984 112.332 33.6797C112.34 33.4609 112.305 33.25 112.227 33.0469C112.242 32.9375 112.254 32.8281 112.262 32.7188C112.27 32.6016 112.273 32.4883 112.273 32.3789C112.273 32.1602 112.266 31.9453 112.25 31.7344C112.242 31.5156 112.234 31.293 112.227 31.0664C112.172 30.9961 112.137 30.918 112.121 30.832C112.113 30.7383 112.105 30.6484 112.098 30.5625C112.074 30.5391 112.047 30.5156 112.016 30.4922C111.992 30.4688 111.977 30.4375 111.969 30.3984C111.906 30.3828 111.859 30.375 111.828 30.375C111.719 30.375 111.625 30.4023 111.547 30.457C111.477 30.5039 111.41 30.5273 111.348 30.5273C111.285 30.5273 111.227 30.5195 111.172 30.5039C111.117 30.4883 111.062 30.4805 111.008 30.4805C110.961 30.4805 110.934 30.4922 110.926 30.5156C110.926 30.5312 110.91 30.5469 110.879 30.5625C110.855 30.5781 110.801 30.5938 110.715 30.6094C110.629 30.625 110.531 30.6406 110.422 30.6562C110.32 30.6641 110.219 30.6719 110.117 30.6797C110.023 30.6875 109.961 30.6914 109.93 30.6914C109.805 30.6914 109.711 30.668 109.648 30.6211C109.578 30.5664 109.496 30.5078 109.402 30.4453C109.418 30.3984 109.426 30.3672 109.426 30.3516C109.426 30.2734 109.402 30.2109 109.355 30.1641C109.309 30.1094 109.285 30.0625 109.285 30.0234C109.285 29.9375 109.32 29.8711 109.391 29.8242C109.453 29.7773 109.488 29.7031 109.496 29.6016C109.676 29.5234 109.859 29.4648 110.047 29.4258C110.234 29.3867 110.426 29.3555 110.621 29.332C110.816 29.3086 111.008 29.2812 111.195 29.25C111.391 29.2188 111.582 29.168 111.77 29.0977C111.824 29.1055 111.875 29.1133 111.922 29.1211C111.977 29.1211 112.031 29.1211 112.086 29.1211C112.32 29.1211 112.551 29.0977 112.777 29.0508C113.012 28.9961 113.25 28.9688 113.492 28.9688C113.555 28.9688 113.617 28.9727 113.68 28.9805C113.742 28.9883 113.805 29 113.867 29.0156C114.18 28.9688 114.488 28.918 114.793 28.8633C115.105 28.8086 115.426 28.7617 115.754 28.7227C115.91 28.707 116.062 28.6953 116.211 28.6875C116.367 28.6719 116.523 28.6523 116.68 28.6289C116.734 28.6211 116.773 28.6094 116.797 28.5938C116.828 28.5703 116.844 28.5273 116.844 28.4648C116.914 28.4961 116.992 28.5117 117.078 28.5117C117.211 28.5117 117.34 28.4883 117.465 28.4414C117.59 28.3945 117.719 28.3711 117.852 28.3711C117.883 28.3711 117.91 28.375 117.934 28.3828C117.957 28.3828 117.98 28.3828 118.004 28.3828C118.059 28.3828 118.086 28.3594 118.086 28.3125C118.094 28.2578 118.133 28.2227 118.203 28.207C118.258 28.1914 118.336 28.1797 118.438 28.1719C118.539 28.1641 118.645 28.1562 118.754 28.1484C118.871 28.1328 118.977 28.1172 119.07 28.1016C119.172 28.0781 119.246 28.0469 119.293 28.0078L119.375 27.8789C119.516 27.8867 119.617 27.9492 119.68 28.0664C119.75 28.1758 119.789 28.2969 119.797 28.4297C119.828 28.4609 119.871 28.4766 119.926 28.4766C119.988 28.4688 120.043 28.4648 120.09 28.4648H120.125Z" fill="#FFFEFE"/>
</svg>
