<svg width="113" height="87" viewBox="0 0 113 87" fill="none" xmlns="http://www.w3.org/2000/svg">
<path fill-rule="evenodd" clip-rule="evenodd" d="M9.96996 37.0696C10.0057 37.1232 9.90538 37.2947 9.74703 37.4508C9.49601 37.6982 9.39199 37.7241 8.93605 37.6529C8.64841 37.6079 8.40824 37.6029 8.40219 37.6416C8.39627 37.6804 8.32413 37.7016 8.242 37.6888C8.15974 37.6759 7.97619 37.7199 7.83395 37.7866C7.59173 37.8998 7.57393 37.8968 7.55431 37.7388C7.52695 37.5189 7.0375 37.5379 6.56692 37.7772C6.37903 37.8728 6.13576 37.937 6.02645 37.9199C5.91713 37.9029 5.73978 37.9401 5.63217 38.0027C5.38082 38.1489 5.04605 38.0975 5.07423 37.917C5.08665 37.8374 4.79747 37.9222 4.40068 38.1143C3.68774 38.4596 3.51423 38.6222 3.89878 38.5844C4.04979 38.5695 4.10691 38.6236 4.08548 38.7608C4.06848 38.8697 4.12987 38.9705 4.2219 38.9848C4.35199 39.0051 4.34807 39.0302 4.2043 39.0975C4.1026 39.1451 4.00949 39.2474 3.9974 39.3249C3.98029 39.4345 4.01655 39.4465 4.16032 39.3792C4.42058 39.2574 4.85149 39.3434 4.82519 39.5119C4.81309 39.5893 4.86398 39.6622 4.9383 39.6738C5.01248 39.6854 5.04756 39.6272 5.01607 39.5444C4.98473 39.4616 5.06119 39.281 5.18613 39.1432C5.47498 38.8246 6.05439 38.7975 6.31632 39.0903C6.49484 39.2898 6.511 39.2924 6.77683 39.1661C6.92849 39.094 7.02153 38.9885 6.98355 38.9316C6.86313 38.7507 7.22367 38.8693 7.56094 39.1215C7.73988 39.2552 7.94043 39.3731 8.0068 39.3835C8.07317 39.3938 8.1406 39.3178 8.15673 39.2145C8.18172 39.0545 8.27906 39.0412 8.81349 39.1247C9.15859 39.1785 9.43592 39.2548 9.42981 39.2939C9.42368 39.3332 9.54204 39.4414 9.6929 39.5345C9.89286 39.658 9.94326 39.6681 9.87941 39.5722C9.81219 39.4712 9.93218 39.4803 10.394 39.611C10.7253 39.7047 11.327 39.8245 11.7312 39.877C12.172 39.9343 12.4599 40.0123 12.4506 40.0719C12.4421 40.1264 12.5568 40.1901 12.7057 40.2134C12.8546 40.2366 13.0091 40.3047 13.049 40.3647C13.0891 40.4247 13.1839 40.4587 13.2599 40.4401C13.336 40.4216 13.3908 40.4536 13.3818 40.5113C13.3721 40.5732 13.4418 40.5963 13.5516 40.5676C13.8655 40.4854 14.4189 40.6163 14.6482 40.8271C14.7773 40.9458 14.9662 41.0175 15.112 41.0031C15.292 40.9854 15.3303 41.0137 15.2546 41.1087C15.1759 41.2074 15.2308 41.2407 15.4839 41.2475C15.6937 41.2532 15.9216 41.3476 16.1005 41.5031C16.2568 41.6387 16.5043 41.7684 16.6506 41.7913C16.7968 41.8141 17.2452 41.9521 17.6469 42.098C18.1543 42.2822 18.3705 42.4114 18.3548 42.5211C18.3381 42.6392 18.3659 42.6531 18.4653 42.5759C18.6229 42.4535 19.1664 42.6557 19.4124 42.9282C19.4982 43.0233 19.6581 43.0924 19.7678 43.0816C19.8773 43.0708 20.1638 43.2444 20.4044 43.4675C20.6823 43.7253 20.9358 43.8711 21.1 43.8679C21.2421 43.8652 21.4829 43.9713 21.6354 44.1036C21.7878 44.236 21.9968 44.3575 22.0997 44.3736C22.3353 44.4104 23.8636 45.3737 24.2617 45.7364C24.4259 45.8859 24.6143 46.0167 24.6805 46.0271C24.7468 46.0374 24.9012 46.1387 25.0239 46.2525C25.1464 46.366 25.461 46.6151 25.723 46.8058C25.9849 46.9966 26.1871 47.2309 26.1722 47.3264C26.1549 47.4371 26.219 47.4928 26.3492 47.4801C26.6158 47.4539 28.12 48.8202 28.3124 49.2634C28.3952 49.4541 28.5602 49.6148 28.6949 49.6358C28.9937 49.6824 29.3113 50.0908 29.2674 50.3719C29.2491 50.4894 29.2976 50.5956 29.3754 50.6078C29.6366 50.6485 30.2457 51.3659 30.2869 51.6813C30.3093 51.853 30.4169 52.0321 30.5259 52.0792C30.6698 52.1413 30.687 52.2382 30.5882 52.4322C30.4763 52.6525 30.4927 52.6955 30.6816 52.677C30.8298 52.6625 30.9026 52.7061 30.8878 52.8007C30.8752 52.8812 30.9478 52.9945 31.0491 53.0526C31.1503 53.1107 31.2417 53.2462 31.2521 53.3536C31.2624 53.4611 31.3406 53.6171 31.4258 53.7002C31.511 53.7835 31.5712 53.9119 31.5597 53.9856C31.5482 54.0595 31.6053 54.1302 31.6864 54.1429C31.77 54.1559 31.7786 54.2095 31.7065 54.2663C31.4697 54.4523 31.6115 54.9185 32.144 55.7053C32.2779 55.9029 32.338 56.2111 32.2993 56.5005C32.2616 56.7812 32.3269 57.1328 32.4601 57.3669C32.7079 57.8024 32.6832 58.2801 32.3943 58.6458C32.2619 58.8133 32.2478 58.9019 32.3471 58.9411C32.4462 58.9802 32.4357 59.046 32.3119 59.1602C32.1857 59.2763 32.1734 59.3662 32.2691 59.4722C32.3691 59.5829 32.3455 59.6483 32.1771 59.7271C32.008 59.8064 31.9865 59.8666 32.0921 59.9646C32.1979 60.0626 32.1919 60.0894 32.0682 60.0701C31.977 60.0559 31.836 60.207 31.7547 60.4059C31.6655 60.6241 31.531 60.7557 31.4155 60.7377C31.2818 60.7168 31.2044 60.8349 31.1582 61.1304C31.105 61.4713 31.0452 61.545 30.8487 61.5118C30.5087 61.4545 30.0843 61.1393 30.3256 61.1234C30.4389 61.1159 30.5163 60.9772 30.5282 60.7605C30.5389 60.5676 30.6123 60.4199 30.6915 60.4323C30.8857 60.4626 30.996 59.6825 30.8432 59.3579C30.7456 59.1507 30.7755 59.0418 30.9892 58.8251C31.1716 58.6401 31.213 58.5255 31.1185 58.4677C31.042 58.4208 31.0245 58.3466 31.0796 58.3026C31.1346 58.2587 31.0434 58.0375 30.877 57.8112C30.6207 57.4629 30.6036 57.3681 30.7658 57.1938C30.9256 57.0222 30.9217 56.9914 30.7425 57.009C30.5473 57.0283 30.3772 56.7879 30.373 56.4868C30.3723 56.4338 30.3179 56.2602 30.2519 56.101C30.1859 55.9417 30.1409 55.7544 30.1518 55.6845C30.1627 55.6147 30.0965 55.5239 30.0048 55.4827C29.8766 55.4253 29.8794 55.3954 30.0167 55.3541C30.1441 55.3158 30.0711 55.1872 29.7627 54.9072C29.4682 54.6399 29.3641 54.4635 29.437 54.3558C29.5007 54.2619 29.4457 54.0999 29.3018 53.9574C28.9219 53.5809 28.9289 53.2136 29.3188 53.0779C29.6021 52.9793 29.6142 52.9575 29.4047 52.923C29.2707 52.9009 29.171 52.8186 29.1833 52.7402C29.1997 52.6349 29.1118 52.5987 28.8478 52.602C28.6307 52.6048 28.4895 52.5645 28.4888 52.4997C28.4881 52.441 28.4786 52.3482 28.4674 52.2936C28.4562 52.2389 28.446 52.1508 28.4445 52.0976C28.4429 52.0445 28.3476 51.9863 28.2326 51.9683C28.1175 51.9504 28.0304 51.8909 28.0389 51.8362C28.0475 51.7816 28.1077 51.7693 28.1727 51.8091C28.2376 51.849 28.2719 51.7949 28.2487 51.6891C28.2256 51.5833 28.1318 51.5024 28.0401 51.5094C27.8304 51.5255 27.4478 51.2524 27.4183 51.0654C27.4059 50.9876 27.2899 50.8484 27.1607 50.756C26.9911 50.6351 26.9609 50.525 27.0527 50.3617C27.157 50.176 27.1422 50.1491 26.9712 50.2125C26.8058 50.2737 26.6 50.1499 25.9823 49.6179C25.5533 49.2484 25.2111 48.8934 25.222 48.829C25.2328 48.7646 25.1911 48.7039 25.1292 48.6942C24.9499 48.6662 23.8344 47.6624 23.8527 47.5454C23.8618 47.4871 23.7472 47.3263 23.598 47.1879C23.4185 47.0215 23.3477 46.9915 23.3886 47.0993C23.4991 47.3899 23.0908 47.3068 22.6891 46.9568C22.4736 46.7691 22.1597 46.5511 21.9916 46.4724C21.5387 46.2606 21.1769 46.0246 21.0717 45.8723C21.0204 45.7982 20.8718 45.7208 20.7414 45.7004C20.6111 45.68 20.3387 45.5292 20.1359 45.3654C19.9332 45.2015 19.6517 45.0494 19.5102 45.0273C19.3688 45.0052 19.263 44.9238 19.2751 44.8463C19.289 44.7573 19.1639 44.6847 18.9351 44.649C18.7362 44.6179 18.4165 44.5033 18.225 44.3944C18.0335 44.2855 17.5919 44.0666 17.2435 43.9079C16.895 43.7492 16.6169 43.5756 16.6252 43.5222C16.6336 43.4687 16.5216 43.4064 16.3765 43.3837C16.2313 43.361 16.0866 43.2743 16.055 43.1909C16.0233 43.1074 15.9082 43.0479 15.7992 43.0587C15.6903 43.0694 15.4362 43.0073 15.2344 42.9207C14.944 42.7959 14.8908 42.7219 14.9786 42.5641C15.0394 42.4547 15.045 42.4123 14.9909 42.47C14.8735 42.5952 14.4042 42.5384 14.303 42.3866C14.2637 42.3276 14.0946 42.2544 13.9272 42.2241C13.7598 42.1939 13.7045 42.1599 13.8045 42.1489C14.0576 42.1208 14.0572 41.9635 13.804 41.9239C13.6889 41.906 13.6012 41.8503 13.609 41.8003C13.6168 41.7503 13.5253 41.719 13.4056 41.7307C13.1498 41.7559 13.0733 42.0022 13.3099 42.0391C13.3993 42.0531 13.4267 42.086 13.3708 42.1122C13.3148 42.1384 13.1551 42.0635 13.0158 41.9457C12.8727 41.8245 12.7554 41.7786 12.7458 41.84C12.7251 41.9728 12.2152 41.9053 12.1161 41.7565C12.0768 41.6975 11.9229 41.6302 11.774 41.6069C11.5743 41.5758 11.511 41.4964 11.5327 41.3047L11.562 41.0448L11.3905 41.2686C11.2523 41.4488 11.1513 41.4727 10.871 41.3911C10.6796 41.3355 10.4992 41.2273 10.4701 41.1506C10.441 41.0741 10.3587 41.0257 10.2873 41.0431C10.2159 41.0605 10.0378 41.0094 9.89159 40.9293C9.70922 40.8294 9.62083 40.8147 9.6103 40.8821C9.59133 41.0036 8.46329 40.7189 8.35461 40.5651C8.31354 40.507 8.19533 40.4802 8.09184 40.5054C7.97081 40.535 7.94447 40.519 8.01788 40.4604C8.1701 40.339 6.75825 40.1824 6.5194 40.2942C6.27131 40.4103 5.79435 40.3183 5.90768 40.1761C5.97288 40.0942 5.88091 40.0448 5.59263 40.0067C5.36872 39.9771 5.17767 40.0023 5.16798 40.0625C5.15841 40.1229 5.10564 40.2285 5.0509 40.2973C4.98377 40.3815 5.08568 40.477 5.36238 40.5893C5.8051 40.769 5.85349 40.867 5.56549 41.0018C5.42434 41.0679 5.48114 41.1167 5.8146 41.2158C6.05224 41.2864 6.29731 41.4009 6.35902 41.4704C6.55763 41.6931 6.42427 42.6954 6.20076 42.6605C5.96805 42.6241 5.74409 42.0488 5.90676 41.9053C6.10699 41.7288 5.91942 41.7062 5.66536 41.8761C5.47748 42.0017 5.43601 41.9938 4.98177 41.7453C4.65292 41.5655 4.48596 41.3925 4.4601 41.205C4.43693 41.0369 4.35051 40.9364 4.23867 40.9474C4.00208 40.9707 3.92255 40.622 4.14105 40.5197C4.34199 40.4256 3.98475 40.1431 3.46573 39.9856C3.04722 39.8586 2.77239 39.3685 3.03426 39.2163C3.16262 39.1416 3.16467 39.1083 3.04225 39.0892C2.94227 39.0736 2.92123 38.9971 2.98919 38.8966C3.05136 38.8049 3.04104 38.6926 2.96648 38.6469C2.75344 38.5166 2.84544 38.3088 3.09249 38.3622C3.35086 38.4181 3.71823 38.1811 3.57662 38.0498C3.52384 38.0009 3.41268 38.0139 3.32943 38.0787C3.22064 38.1635 3.18281 38.1625 3.19488 38.0751C3.23037 37.8186 3.92335 37.4904 4.45715 37.4773C4.77272 37.4697 5.01115 37.4063 5.02357 37.3267C5.04735 37.1744 5.27083 37.1757 5.37276 37.3287C5.40875 37.3827 5.35602 37.436 5.25558 37.4471C5.1316 37.4609 5.14099 37.4803 5.28479 37.508C5.40142 37.5303 5.64639 37.5046 5.82932 37.4508C6.04203 37.3884 6.15607 37.3917 6.14538 37.4602C6.13618 37.519 6.20991 37.5609 6.30936 37.5534C6.40868 37.5457 6.48359 37.4731 6.47557 37.3918C6.45803 37.2132 6.69416 37.1234 7.2863 37.0834C7.64891 37.0589 7.75452 37.086 7.86178 37.2315C7.97875 37.3898 7.99755 37.3883 8.03153 37.2182C8.10814 36.8355 8.75706 36.7603 9.06245 37.0986C9.20003 37.2511 9.25592 37.2536 9.56126 37.1212C9.75032 37.0392 9.93434 37.0159 9.96996 37.0696ZM10.5524 37.4618C10.661 37.5297 10.6717 37.5861 10.5803 37.6084C10.4983 37.6284 10.4054 37.576 10.3733 37.492C10.3064 37.3154 10.3154 37.3139 10.5524 37.4618ZM8.53051 39.874C8.55904 39.9447 8.59895 39.8968 8.61911 39.7676C8.63927 39.6385 8.61586 39.5808 8.56717 39.6393C8.51832 39.6978 8.50182 39.8035 8.53051 39.874ZM10.6638 40.7147C10.7023 40.7503 10.7883 40.7103 10.8552 40.6259C10.9517 40.5039 10.9375 40.4907 10.7853 40.5612C10.68 40.61 10.6254 40.6791 10.6638 40.7147ZM15.0707 42.1698C15.1028 42.2542 15.1537 42.3271 15.1839 42.3318C15.214 42.3365 15.2486 42.2769 15.2607 42.1995C15.2727 42.122 15.2219 42.0491 15.1475 42.0375C15.0734 42.0259 15.0388 42.0855 15.0707 42.1698ZM14.3187 42.1186C14.3515 42.2004 14.3881 42.1833 14.4118 42.0749C14.4333 41.9769 14.409 41.9163 14.3579 41.9403C14.3067 41.9642 14.289 42.0445 14.3187 42.1186ZM31.1189 57.0182C31.0089 57.174 31.3026 57.1835 31.4266 57.028C31.4929 56.9448 31.4685 56.8969 31.363 56.9039C31.2687 56.9102 31.1589 56.9615 31.1189 57.0182Z" fill="#FFFEFE"/>
<path fill-rule="evenodd" clip-rule="evenodd" d="M44.97 1.07009C45.0057 1.12367 44.9054 1.29519 44.747 1.4513C44.496 1.69865 44.392 1.72454 43.9361 1.65335C43.6484 1.60843 43.4082 1.60334 43.4022 1.64212C43.3963 1.68093 43.3241 1.70208 43.242 1.68925C43.1597 1.67641 42.9762 1.72037 42.8339 1.78704C42.5917 1.90033 42.5739 1.89726 42.5543 1.73933C42.5269 1.5194 42.0375 1.5384 41.5669 1.77772C41.379 1.87333 41.1358 1.9375 41.0264 1.92043C40.9171 1.90336 40.7398 1.9406 40.6322 2.00315C40.3808 2.14936 40.046 2.09795 40.0742 1.91747C40.0866 1.83794 39.7975 1.92264 39.4007 2.11481C38.6877 2.4601 38.5142 2.62269 38.8988 2.58492C39.0498 2.57002 39.1069 2.62405 39.0855 2.76134C39.0685 2.87017 39.1299 2.97094 39.2219 2.98531C39.352 3.00562 39.3481 3.03069 39.2043 3.09799C39.1026 3.14559 39.0095 3.24793 38.9974 3.32539C38.9803 3.43498 39.0165 3.44699 39.1603 3.37969C39.4206 3.25787 39.8515 3.34391 39.8252 3.51237C39.8131 3.58984 39.864 3.66271 39.9383 3.67432C40.0125 3.6859 40.0476 3.6277 40.0161 3.54487C39.9847 3.46206 40.0612 3.28152 40.1861 3.14367C40.475 2.82508 41.0544 2.79801 41.3163 3.09083C41.4948 3.29031 41.511 3.29293 41.7768 3.16659C41.9285 3.09446 42.0215 2.98895 41.9836 2.93213C41.8631 2.75115 42.2237 2.86978 42.5609 3.12194C42.7399 3.25569 42.9404 3.37358 43.0068 3.38394C43.0732 3.39431 43.1406 3.31827 43.1567 3.21498C43.1817 3.05497 43.2791 3.0417 43.8135 3.12515C44.1586 3.17904 44.4359 3.25524 44.4298 3.2944C44.4237 3.33365 44.542 3.44187 44.6929 3.53498C44.8929 3.65845 44.9433 3.66863 44.8794 3.57266C44.8122 3.47165 44.9322 3.48077 45.394 3.61146C45.7253 3.70522 46.327 3.82497 46.7312 3.87749C47.172 3.93479 47.4599 4.01274 47.4506 4.07237C47.4421 4.12692 47.5568 4.19063 47.7057 4.21388C47.8546 4.23713 48.0091 4.30521 48.049 4.36521C48.0891 4.42524 48.1839 4.45919 48.2599 4.44057C48.336 4.42204 48.3908 4.45408 48.3818 4.51182C48.3721 4.5737 48.4418 4.5968 48.5516 4.56805C48.8655 4.48587 49.4189 4.61683 49.6482 4.82761C49.7773 4.94625 49.9662 5.01798 50.112 5.00361C50.292 4.98584 50.3303 5.01423 50.2546 5.10918C50.1759 5.2079 50.2308 5.2412 50.4839 5.248C50.6937 5.25364 50.9216 5.3481 51.1005 5.50359C51.2568 5.63918 51.5043 5.76893 51.6506 5.79177C51.7968 5.81461 52.2452 5.95262 52.6469 6.09846C53.1543 6.28264 53.3705 6.41191 53.3548 6.52162C53.3381 6.63973 53.3659 6.65359 53.4653 6.57638C53.6229 6.45402 54.1664 6.65623 54.4124 6.92867C54.4982 7.02383 54.6581 7.09286 54.7678 7.08209C54.8773 7.07129 55.1638 7.24493 55.4044 7.46795C55.6823 7.72576 55.9358 7.87163 56.1 7.86841C56.2421 7.86569 56.4829 7.97178 56.6354 8.10409C56.7878 8.23649 56.9968 8.358 57.0997 8.37407C57.3353 8.41086 58.8636 9.3742 59.2617 9.73687C59.4259 9.8864 59.6143 10.0172 59.6805 10.0275C59.7468 10.0379 59.9012 10.1392 60.0239 10.2529C60.1464 10.3665 60.461 10.6155 60.723 10.8063C60.9849 10.9971 61.1871 11.2314 61.1722 11.3269C61.1549 11.4376 61.219 11.4933 61.3492 11.4806C61.6158 11.4544 63.12 12.8206 63.3124 13.2639C63.3952 13.4546 63.5602 13.6152 63.6949 13.6363C63.9937 13.6829 64.3113 14.0913 64.2674 14.3724C64.2491 14.4899 64.2976 14.5961 64.3754 14.6082C64.6366 14.649 65.2457 15.3664 65.2869 15.6818C65.3093 15.8535 65.4169 16.0326 65.5259 16.0797C65.6698 16.1418 65.687 16.2387 65.5882 16.4327C65.4763 16.653 65.4927 16.696 65.6816 16.6775C65.8298 16.663 65.9026 16.7065 65.8878 16.8012C65.8752 16.8817 65.9478 16.995 66.0491 17.0531C66.1503 17.1112 66.2417 17.2467 66.2521 17.3541C66.2624 17.4616 66.3406 17.6176 66.4258 17.7007C66.511 17.7839 66.5712 17.9124 66.5597 17.9861C66.5482 18.0599 66.6053 18.1307 66.6864 18.1434C66.77 18.1564 66.7786 18.21 66.7065 18.2667C66.4697 18.4528 66.6115 18.919 67.144 19.7058C67.2779 19.9034 67.338 20.2116 67.2993 20.501C67.2616 20.7816 67.3269 21.1333 67.4601 21.3674C67.7079 21.8028 67.6832 22.2806 67.3943 22.6463C67.2619 22.8138 67.2478 22.9024 67.3471 22.9416C67.4462 22.9807 67.4357 23.0465 67.3119 23.1607C67.1857 23.2768 67.1734 23.3666 67.2691 23.4727C67.3691 23.5834 67.3455 23.6488 67.1771 23.7276C67.008 23.8068 66.9865 23.8671 67.0921 23.965C67.1979 24.0631 67.1919 24.0899 67.0682 24.0706C66.977 24.0563 66.836 24.2075 66.7547 24.4064C66.6655 24.6246 66.531 24.7562 66.4155 24.7382C66.2818 24.7173 66.2044 24.8354 66.1582 25.1309C66.105 25.4718 66.0452 25.5455 65.8487 25.5123C65.5087 25.455 65.0843 25.1398 65.3256 25.1239C65.4389 25.1164 65.5163 24.9777 65.5282 24.761C65.5389 24.5681 65.6123 24.4204 65.6915 24.4327C65.8857 24.4631 65.996 23.683 65.8432 23.3584C65.7456 23.1512 65.7755 23.0423 65.9892 22.8256C66.1716 22.6406 66.213 22.526 66.1185 22.4682C66.042 22.4213 66.0245 22.3471 66.0796 22.3031C66.1346 22.2592 66.0434 22.038 65.877 21.8117C65.6207 21.4634 65.6036 21.3686 65.7658 21.1943C65.9256 21.0227 65.9217 20.9919 65.7425 21.0095C65.5473 21.0288 65.3772 20.7884 65.373 20.4873C65.3723 20.4343 65.3179 20.2606 65.2519 20.1014C65.1859 19.9422 65.1409 19.7549 65.1518 19.685C65.1627 19.6152 65.0965 19.5244 65.0048 19.4832C64.8766 19.4258 64.8794 19.3959 65.0167 19.3545C65.1441 19.3162 65.0711 19.1877 64.7627 18.9077C64.4682 18.6404 64.3641 18.464 64.437 18.3563C64.5007 18.2623 64.4457 18.1004 64.3018 17.9579C63.9219 17.5813 63.9289 17.214 64.3188 17.0784C64.6021 16.9798 64.6142 16.958 64.4047 16.9235C64.2707 16.9014 64.171 16.8191 64.1833 16.7407C64.1997 16.6354 64.1118 16.5992 63.8478 16.6025C63.6307 16.6052 63.4895 16.565 63.4888 16.5002C63.4881 16.4415 63.4786 16.3487 63.4674 16.2941C63.4562 16.2394 63.446 16.1513 63.4445 16.0981C63.4429 16.045 63.3476 15.9868 63.2326 15.9688C63.1175 15.9509 63.0304 15.8914 63.0389 15.8367C63.0475 15.7821 63.1077 15.7698 63.1727 15.8096C63.2376 15.8495 63.2719 15.7954 63.2487 15.6896C63.2256 15.5837 63.1318 15.5029 63.0401 15.5099C62.8304 15.526 62.4478 15.2529 62.4183 15.0659C62.4059 14.9881 62.2899 14.8489 62.1607 14.7565C61.9911 14.6356 61.9609 14.5255 62.0527 14.3622C62.157 14.1765 62.1422 14.1496 61.9712 14.213C61.8058 14.2742 61.6 14.1504 60.9823 13.6184C60.5533 13.2489 60.2111 12.8939 60.222 12.8295C60.2328 12.7651 60.1911 12.7044 60.1292 12.6947C59.9499 12.6667 58.8344 11.6629 58.8527 11.5459C58.8618 11.4876 58.7472 11.3268 58.598 11.1884C58.4185 11.022 58.3477 10.992 58.3886 11.0997C58.4991 11.3904 58.0908 11.3073 57.6891 10.9573C57.4736 10.7696 57.1597 10.5516 56.9916 10.4729C56.5387 10.261 56.1769 10.0251 56.0717 9.87282C56.0204 9.79873 55.8718 9.72127 55.7414 9.70092C55.6111 9.68047 55.3387 9.52972 55.1359 9.36588C54.9332 9.20198 54.6517 9.04991 54.5102 9.02781C54.3688 9.00573 54.263 8.92428 54.2751 8.84681C54.289 8.75779 54.1639 8.68517 53.9351 8.64944C53.7362 8.61837 53.4165 8.50382 53.225 8.39485C53.0335 8.28597 52.5919 8.06705 52.2435 7.90837C51.895 7.7497 51.6169 7.57612 51.6252 7.52269C51.6336 7.46917 51.5216 7.40686 51.3765 7.3842C51.2313 7.36153 51.0866 7.27478 51.055 7.19134C51.0233 7.1079 50.9082 7.04837 50.7992 7.05916C50.6903 7.06985 50.4362 7.00776 50.2344 6.92114C49.944 6.79643 49.8908 6.72234 49.9786 6.56463C50.0394 6.45514 50.045 6.41283 49.9909 6.47046C49.8735 6.59573 49.4042 6.5389 49.303 6.38709C49.2637 6.32805 49.0946 6.25489 48.9272 6.22462C48.7598 6.19434 48.7045 6.16042 48.8045 6.14939C49.0576 6.12128 49.0572 5.96394 48.804 5.9244C48.6889 5.90644 48.6012 5.8508 48.609 5.80076C48.6168 5.7508 48.5253 5.71948 48.4056 5.7312C48.1498 5.75636 48.0733 6.00269 48.3099 6.03964C48.3993 6.05359 48.4267 6.08645 48.3708 6.11272C48.3148 6.13891 48.1551 6.06395 48.0158 5.9462C47.8727 5.82496 47.7554 5.77905 47.7458 5.84046C47.7251 5.97333 47.2152 5.90582 47.1161 5.75704C47.0768 5.69799 46.9229 5.63067 46.774 5.60742C46.5743 5.57624 46.511 5.49691 46.5327 5.30522L46.562 5.04527L46.3905 5.26907C46.2523 5.4493 46.1513 5.47316 45.871 5.39158C45.6796 5.33601 45.4992 5.22782 45.4701 5.15112C45.441 5.07454 45.3587 5.0262 45.2873 5.04361C45.2159 5.06103 45.0378 5.00984 44.8916 4.92978C44.7092 4.82993 44.6208 4.81517 44.6103 4.88259C44.5913 5.0041 43.4633 4.71935 43.3546 4.5656C43.3135 4.50754 43.1953 4.48071 43.0918 4.50591C42.9708 4.53549 42.9445 4.51945 43.0179 4.46089C43.1701 4.3395 41.7582 4.18291 41.5194 4.29471C41.2713 4.41084 40.7943 4.31876 40.9077 4.17659C40.9729 4.09471 40.8809 4.04524 40.5926 4.00715C40.3687 3.97758 40.1777 4.00276 40.168 4.06301C40.1584 4.12336 40.1056 4.22901 40.0509 4.2978C39.9838 4.38197 40.0857 4.47753 40.3624 4.5898C40.8051 4.76945 40.8535 4.86752 40.5655 5.00233C40.4243 5.0684 40.4811 5.11719 40.8146 5.21629C41.0522 5.28688 41.2973 5.40142 41.359 5.47089C41.5576 5.69361 41.4243 6.69586 41.2008 6.66096C40.968 6.62462 40.7441 6.04925 40.9068 5.90574C41.107 5.72934 40.9194 5.70668 40.6654 5.87661C40.4775 6.00224 40.436 5.99432 39.9818 5.74582C39.6529 5.56596 39.486 5.39301 39.4601 5.20554C39.4369 5.03743 39.3505 4.93689 39.2387 4.94789C39.0021 4.97116 38.9225 4.62247 39.1411 4.52019C39.342 4.42613 38.9848 4.14363 38.4657 3.98612C38.0472 3.85911 37.7724 3.369 38.0343 3.21675C38.1626 3.14204 38.1647 3.10879 38.0422 3.08968C37.9423 3.07406 37.9212 2.99758 37.9892 2.89709C38.0514 2.80541 38.041 2.69309 37.9665 2.6474C37.7534 2.51707 37.8454 2.30934 38.0925 2.36273C38.3509 2.41856 38.7182 2.18158 38.5766 2.05029C38.5238 2.00137 38.4127 2.0144 38.3294 2.07922C38.2206 2.164 38.1828 2.163 38.1949 2.07562C38.2304 1.81905 38.9233 1.49094 39.4572 1.47781C39.7727 1.47014 40.0111 1.40676 40.0236 1.32723C40.0473 1.17492 40.2708 1.17615 40.3728 1.32923C40.4087 1.38324 40.356 1.43647 40.2556 1.44762C40.1316 1.46135 40.141 1.4808 40.2848 1.50845C40.4014 1.5308 40.6464 1.50509 40.8293 1.45131C41.042 1.38892 41.1561 1.3922 41.1454 1.46065C41.1362 1.51953 41.2099 1.56144 41.3094 1.55388C41.4087 1.54621 41.4836 1.47354 41.4756 1.39226C41.458 1.21369 41.6942 1.12388 42.2863 1.08389C42.6489 1.05942 42.7545 1.08649 42.8618 1.23194C42.9787 1.39026 42.9975 1.38877 43.0315 1.21872C43.1081 0.83602 43.7571 0.760745 44.0624 1.09912C44.2 1.25161 44.2559 1.25409 44.5613 1.1217C44.7503 1.03964 44.9343 1.01643 44.97 1.07009ZM45.5524 1.46231C45.661 1.53014 45.6717 1.58655 45.5803 1.60892C45.4983 1.62892 45.4054 1.57651 45.3733 1.49244C45.3064 1.31586 45.3154 1.3144 45.5524 1.46231ZM43.5305 3.87453C43.559 3.94516 43.5989 3.89724 43.6191 3.76813C43.6393 3.63901 43.6159 3.5813 43.5672 3.63978C43.5183 3.69833 43.5018 3.80397 43.5305 3.87453ZM45.6638 4.71515C45.7023 4.75077 45.7883 4.71083 45.8552 4.62643C45.9517 4.50442 45.9375 4.49114 45.7853 4.56165C45.68 4.61052 45.6254 4.67961 45.6638 4.71515ZM50.0707 6.17031C50.1028 6.25468 50.1537 6.32755 50.1839 6.33226C50.214 6.33696 50.2486 6.27743 50.2607 6.19996C50.2727 6.12249 50.2219 6.04962 50.1475 6.03802C50.0734 6.02643 50.0388 6.08596 50.0707 6.17031ZM49.3187 6.11906C49.3515 6.20085 49.3881 6.18375 49.4118 6.0754C49.4333 5.97737 49.409 5.91683 49.3579 5.94078C49.3067 5.96472 49.289 6.04497 49.3187 6.11906ZM66.1189 21.0187C66.0089 21.1745 66.3026 21.184 66.4266 21.0285C66.4929 20.9453 66.4685 20.8974 66.363 20.9044C66.2687 20.9107 66.1589 20.962 66.1189 21.0187Z" fill="#000A18"/>
<path d="M19.8633 69.3008C19.8477 69.3945 19.8242 69.4766 19.793 69.5469C19.7695 69.6094 19.7656 69.6953 19.7812 69.8047C19.7031 69.8125 19.6406 69.8398 19.5938 69.8867C19.5547 69.9258 19.5195 69.9727 19.4883 70.0273C19.4648 70.082 19.4375 70.1406 19.4062 70.2031C19.3828 70.2578 19.3516 70.3086 19.3125 70.3555C19.375 70.6367 19.4102 70.9219 19.418 71.2109C19.4258 71.5 19.4453 71.7852 19.4766 72.0664C19.5156 72.4258 19.5742 72.7812 19.6523 73.1328C19.7383 73.4766 19.7812 73.8281 19.7812 74.1875C19.7812 74.2969 19.7773 74.3984 19.7695 74.4922C19.7695 74.5859 19.7695 74.6836 19.7695 74.7852C19.7695 74.8477 19.7695 74.9141 19.7695 74.9844C19.7773 75.0469 19.7812 75.1094 19.7812 75.1719C19.7812 75.3984 19.75 75.625 19.6875 75.8516C19.6328 76.0781 19.5898 76.3047 19.5586 76.5312C19.4648 76.6172 19.3828 76.7109 19.3125 76.8125C19.25 76.9141 19.1836 77.0078 19.1133 77.0938C19.043 77.1797 18.9609 77.2539 18.8672 77.3164C18.7734 77.3867 18.6562 77.4336 18.5156 77.457C18.4922 77.5352 18.4453 77.5938 18.375 77.6328C18.3125 77.6719 18.2578 77.7266 18.2109 77.7969H18.1875C17.9922 77.7969 17.8242 77.7695 17.6836 77.7148C17.543 77.6602 17.4102 77.5977 17.2852 77.5273C17.168 77.457 17.0469 77.3828 16.9219 77.3047C16.7969 77.2266 16.6523 77.1641 16.4883 77.1172C16.2695 76.9375 16.0703 76.7422 15.8906 76.5312C15.7109 76.3125 15.5078 76.1172 15.2812 75.9453C15.2266 75.7891 15.1523 75.6602 15.0586 75.5586C14.9727 75.457 14.8867 75.3398 14.8008 75.207C14.7617 75.1523 14.7305 75.1016 14.707 75.0547C14.6914 75.0078 14.668 74.9531 14.6367 74.8906C14.6133 74.8281 14.5742 74.7852 14.5195 74.7617C14.4727 74.7383 14.4297 74.7109 14.3906 74.6797C14.3281 74.4375 14.2383 74.2148 14.1211 74.0117C14.0039 73.8086 13.8672 73.6133 13.7109 73.4258C13.6641 73.5117 13.625 73.6055 13.5938 73.707C13.5703 73.8008 13.5469 73.8984 13.5234 74C13.5 74.0938 13.4688 74.1914 13.4297 74.293C13.3984 74.3867 13.3555 74.4727 13.3008 74.5508V74.5859C13.3008 74.625 13.3164 74.6484 13.3477 74.6562C13.3789 74.6641 13.3945 74.6875 13.3945 74.7266C13.3945 74.7344 13.3906 74.7422 13.3828 74.75C13.3828 74.7578 13.3828 74.7656 13.3828 74.7734C13.3438 74.8047 13.3125 74.8438 13.2891 74.8906C13.2734 74.9375 13.2344 74.9648 13.1719 74.9727C13.1797 75.0117 13.1836 75.0508 13.1836 75.0898V75.1953C13.1836 75.4219 13.1562 75.6484 13.1016 75.875C13.0547 76.1016 13.0312 76.332 13.0312 76.5664V76.7188C13.0312 76.7734 13.0352 76.8242 13.043 76.8711C13.0586 76.918 13.082 76.9648 13.1133 77.0117C13.1445 77.0586 13.1602 77.1016 13.1602 77.1406C13.1602 77.1953 13.1367 77.2461 13.0898 77.293C13.1445 77.332 13.207 77.375 13.2773 77.4219C13.3477 77.4688 13.4102 77.5195 13.4648 77.5742C13.5273 77.6367 13.5781 77.6992 13.6172 77.7617C13.6562 77.832 13.6758 77.9062 13.6758 77.9844C13.6758 78.1172 13.6328 78.2109 13.5469 78.2656C13.4609 78.3203 13.3555 78.3633 13.2305 78.3945C13.1133 78.4258 12.9883 78.4531 12.8555 78.4766C12.7305 78.5078 12.625 78.5586 12.5391 78.6289H12.5039C12.4102 78.6289 12.3398 78.6016 12.293 78.5469C12.2461 78.4922 12.1758 78.4648 12.082 78.4648C11.9336 78.2227 11.832 77.9492 11.7773 77.6445C11.7227 77.3477 11.6953 77.0625 11.6953 76.7891C11.6953 76.4531 11.7266 76.1172 11.7891 75.7812C11.8438 75.4453 11.9141 75.1133 12 74.7852C12.0781 74.457 12.1641 74.1328 12.2578 73.8125C12.3594 73.4844 12.4531 73.1562 12.5391 72.8281L12.5508 72.793C12.5508 72.7539 12.5391 72.7266 12.5156 72.7109C12.5 72.6953 12.4922 72.6719 12.4922 72.6406C12.4922 72.625 12.4961 72.6172 12.5039 72.6172C12.5273 72.5391 12.5508 72.4648 12.5742 72.3945C12.6055 72.3242 12.6289 72.2461 12.6445 72.1602C12.6914 71.9414 12.7227 71.7188 12.7383 71.4922C12.7617 71.2578 12.7734 71.0273 12.7734 70.8008C12.7812 70.5742 12.7891 70.3477 12.7969 70.1211C12.8125 69.8867 12.8398 69.6562 12.8789 69.4297C12.9414 69.3672 13 69.3008 13.0547 69.2305C13.1094 69.1602 13.1797 69.0977 13.2656 69.043C13.4219 69.0508 13.5781 69.0742 13.7344 69.1133C13.8906 69.1523 14.0391 69.2148 14.1797 69.3008C14.2734 69.6367 14.3359 69.9727 14.3672 70.3086C14.4062 70.6445 14.4688 70.9805 14.5547 71.3164V71.3516C14.5547 71.3906 14.5742 71.4102 14.6133 71.4102C14.6602 71.4023 14.6953 71.4141 14.7188 71.4453C14.7031 71.4688 14.6914 71.4961 14.6836 71.5273C14.6836 71.5586 14.6836 71.5898 14.6836 71.6211V71.8203C14.6992 71.8828 14.7188 71.9492 14.7422 72.0195C14.7656 72.0898 14.8164 72.1328 14.8945 72.1484C14.9336 72.3984 14.9922 72.6289 15.0703 72.8398C15.1484 73.0508 15.2383 73.2539 15.3398 73.4492C15.4414 73.6445 15.5508 73.8398 15.668 74.0352C15.7852 74.2227 15.9062 74.4219 16.0312 74.6328C16.2266 74.7812 16.3945 74.9531 16.5352 75.1484C16.6758 75.3359 16.8164 75.5195 16.957 75.6992C17.1055 75.8711 17.2695 76.0234 17.4492 76.1562C17.6367 76.2891 17.8789 76.3711 18.1758 76.4023C18.2148 76.3711 18.2422 76.3281 18.2578 76.2734L18.3164 76.1094C18.3398 76.0547 18.3633 76.0078 18.3867 75.9688C18.418 75.9219 18.4609 75.8867 18.5156 75.8633C18.5312 75.6445 18.5469 75.4219 18.5625 75.1953C18.5859 74.9688 18.6367 74.7539 18.7148 74.5508C18.6758 74.4805 18.6562 74.3945 18.6562 74.293C18.6562 74.2148 18.6602 74.1406 18.668 74.0703C18.6836 74 18.6914 73.9297 18.6914 73.8594C18.6914 73.7109 18.6602 73.5898 18.5977 73.4961C18.5977 73.4414 18.6016 73.3867 18.6094 73.332C18.6172 73.2695 18.6406 73.2109 18.6797 73.1562C18.6172 73 18.5664 72.8359 18.5273 72.6641C18.4961 72.4922 18.4805 72.3164 18.4805 72.1367C18.4805 72.0352 18.4922 71.9297 18.5156 71.8203C18.4688 71.7031 18.4375 71.5664 18.4219 71.4102L18.375 70.9297C18.3594 70.7656 18.3359 70.6133 18.3047 70.4727C18.2734 70.332 18.2148 70.2188 18.1289 70.1328C18.1758 70.0625 18.1992 69.9805 18.1992 69.8867C18.1992 69.7305 18.1758 69.582 18.1289 69.4414C18.082 69.3008 18.0586 69.1523 18.0586 68.9961C18.0586 68.8867 18.082 68.7773 18.1289 68.668C18.3008 68.6758 18.4688 68.6953 18.6328 68.7266C18.8047 68.75 18.9727 68.7617 19.1367 68.7617C19.1836 68.8242 19.2383 68.875 19.3008 68.9141C19.3633 68.9531 19.4297 68.9922 19.5 69.0312C19.5703 69.0625 19.6367 69.0977 19.6992 69.1367C19.7695 69.1758 19.8242 69.2305 19.8633 69.3008ZM23.5664 75.3945C23.5273 75.457 23.4805 75.5156 23.4258 75.5703C23.3711 75.6172 23.3203 75.668 23.2734 75.7227C23.2188 75.7461 23.1562 75.7578 23.0859 75.7578C23.0234 75.7578 22.9609 75.7578 22.8984 75.7578C22.8438 75.75 22.7891 75.75 22.7344 75.7578C22.6875 75.7578 22.6484 75.7734 22.6172 75.8047C22.5547 75.7891 22.5078 75.7617 22.4766 75.7227C22.4453 75.6758 22.3906 75.6484 22.3125 75.6406C22.2812 75.6328 22.25 75.6328 22.2188 75.6406C22.1016 75.5078 21.9922 75.3672 21.8906 75.2188C21.7969 75.0703 21.707 74.9297 21.6211 74.7969C21.6133 74.5078 21.5898 74.2148 21.5508 73.918C21.543 73.8477 21.5312 73.7773 21.5156 73.707C21.5 73.6367 21.4883 73.5703 21.4805 73.5078C21.4805 73.4297 21.4844 73.3555 21.4922 73.2852C21.5078 73.207 21.5195 73.1367 21.5273 73.0742C21.5586 72.8477 21.5938 72.625 21.6328 72.4062C21.6719 72.1875 21.707 71.9648 21.7383 71.7383C21.7695 71.5352 21.7852 71.3242 21.7852 71.1055C21.7852 70.8789 21.75 70.668 21.6797 70.4727L21.668 70.4141C21.6836 70.3516 21.6992 70.3008 21.7148 70.2617C21.7383 70.2148 21.7539 70.1641 21.7617 70.1094C21.7773 70.0234 21.7578 69.9609 21.7031 69.9219C21.7266 69.8594 21.7656 69.8203 21.8203 69.8047C21.875 69.7812 21.9062 69.7344 21.9141 69.6641C21.9219 69.6328 21.9219 69.6016 21.9141 69.5703C21.9766 69.5469 22.0391 69.5273 22.1016 69.5117C22.1719 69.4883 22.2383 69.4844 22.3008 69.5C22.4023 69.5156 22.4922 69.5508 22.5703 69.6055C22.6484 69.6523 22.7227 69.707 22.793 69.7695C22.918 70.1445 22.9688 70.543 22.9453 70.9648C22.9219 71.3789 22.8828 71.7969 22.8281 72.2188C22.7734 72.6406 22.7383 73.0547 22.7227 73.4609C22.707 73.8594 22.7695 74.2305 22.9102 74.5742L22.9336 74.5859C22.9727 74.5938 23.0039 74.582 23.0273 74.5508C23.0508 74.5117 23.082 74.4961 23.1211 74.5039C23.1523 74.5195 23.1719 74.5273 23.1797 74.5273C23.2109 74.6836 23.2617 74.832 23.332 74.9727C23.4023 75.1133 23.4805 75.2539 23.5664 75.3945ZM33.4688 74.8906C33.4688 74.9688 33.4453 75.0352 33.3984 75.0898C33.3594 75.1367 33.3086 75.1797 33.2461 75.2188C33.1914 75.2578 33.1328 75.293 33.0703 75.3242C33.0156 75.3555 32.9648 75.3945 32.918 75.4414C32.8867 75.4727 32.8633 75.5117 32.8477 75.5586C32.8398 75.5977 32.8203 75.625 32.7891 75.6406C32.7422 75.6797 32.6914 75.7031 32.6367 75.7109C32.582 75.7188 32.5234 75.7305 32.4609 75.7461C32.4062 75.7539 32.3516 75.7695 32.2969 75.793C32.2422 75.8086 32.1953 75.8438 32.1562 75.8984C31.7891 75.9375 31.4258 75.9883 31.0664 76.0508C30.7148 76.1133 30.3516 76.1445 29.9766 76.1445C29.9062 76.1445 29.8281 76.1523 29.7422 76.168C29.6641 76.1758 29.5898 76.1836 29.5195 76.1914C29.3555 76.207 29.1914 76.2188 29.0273 76.2266C28.8711 76.2344 28.7109 76.2383 28.5469 76.2383C28.3203 76.2383 28.0938 76.2305 27.8672 76.2148C27.6406 76.1914 27.418 76.1562 27.1992 76.1094C27.1445 76.0703 27.082 76.0391 27.0117 76.0156C26.9414 75.9922 26.8672 75.9688 26.7891 75.9453C26.7188 75.9219 26.6523 75.8945 26.5898 75.8633C26.5273 75.832 26.4805 75.7852 26.4492 75.7227C26.332 75.7148 26.2266 75.6914 26.1328 75.6523C26.0469 75.6133 25.9648 75.5703 25.8867 75.5234C25.8164 75.4688 25.7422 75.4141 25.6641 75.3594C25.5859 75.3047 25.4961 75.2578 25.3945 75.2188C25.3164 75.1094 25.2344 75.0039 25.1484 74.9023C25.0703 74.793 24.9727 74.7031 24.8555 74.6328C24.832 74.4844 24.793 74.3359 24.7383 74.1875C24.6914 74.0391 24.6406 73.8945 24.5859 73.7539C24.5391 73.6055 24.5 73.457 24.4688 73.3086C24.4297 73.1602 24.4102 73.0078 24.4102 72.8516C24.4102 72.7422 24.4258 72.6094 24.457 72.4531C24.4883 72.2969 24.5273 72.1406 24.5742 71.9844C24.6289 71.8203 24.6914 71.668 24.7617 71.5273C24.832 71.3867 24.9023 71.2734 24.9727 71.1875C24.9961 71.1641 25.0234 71.1445 25.0547 71.1289C25.0859 71.1133 25.1133 71.0898 25.1367 71.0586C25.207 70.9805 25.2812 70.918 25.3594 70.8711C25.4375 70.8164 25.5195 70.7539 25.6055 70.6836C25.6367 70.6523 25.6602 70.6172 25.6758 70.5781C25.6992 70.5391 25.7305 70.5039 25.7695 70.4727C25.793 70.457 25.8242 70.4531 25.8633 70.4609C25.9102 70.4688 25.9492 70.4609 25.9805 70.4375C26.0117 70.4141 26.0273 70.3867 26.0273 70.3555C26.0273 70.3242 26.0391 70.2969 26.0625 70.2734C26.0703 70.2656 26.0938 70.2656 26.1328 70.2734C26.1719 70.2734 26.1953 70.2734 26.2031 70.2734C26.2578 70.2734 26.3203 70.2383 26.3906 70.168C26.4609 70.0898 26.5195 70.0391 26.5664 70.0156C26.6211 69.9844 26.6758 69.9648 26.7305 69.957C26.7852 69.9414 26.8438 69.918 26.9062 69.8867C26.9922 69.8398 27.0742 69.8047 27.1523 69.7812C27.2383 69.75 27.3242 69.7148 27.4102 69.6758C27.457 69.6602 27.5 69.6328 27.5391 69.5938C27.5781 69.5547 27.6172 69.5273 27.6562 69.5117C27.7266 69.4883 27.8008 69.4727 27.8789 69.4648C27.9648 69.4492 28.043 69.4375 28.1133 69.4297C28.1914 69.4141 28.2656 69.3984 28.3359 69.3828C28.4141 69.3594 28.4844 69.3203 28.5469 69.2656H28.6406C28.7812 69.2656 28.918 69.2461 29.0508 69.207C29.1836 69.168 29.3203 69.1484 29.4609 69.1484C29.5 69.1484 29.5586 69.1562 29.6367 69.1719C29.6992 69.1328 29.7695 69.1133 29.8477 69.1133C29.9805 69.1133 30.1133 69.1484 30.2461 69.2188C30.3789 69.2812 30.5156 69.3125 30.6562 69.3125H30.7266C30.7578 69.3125 30.7891 69.3086 30.8203 69.3008C30.9062 69.3867 31.0078 69.4336 31.125 69.4414C31.25 69.4492 31.3555 69.4844 31.4414 69.5469C31.4961 69.5938 31.5391 69.6484 31.5703 69.7109C31.6094 69.7734 31.6406 69.8398 31.6641 69.9102L31.7344 70.1211C31.7578 70.1914 31.7891 70.2539 31.8281 70.3086C31.7891 70.5898 31.6719 70.8164 31.4766 70.9883C31.2891 71.1523 31.0508 71.2344 30.7617 71.2344C30.6523 71.2344 30.5586 71.2227 30.4805 71.1992C30.4102 71.168 30.3438 71.1367 30.2812 71.1055C30.2266 71.0742 30.168 71.043 30.1055 71.0117C30.043 70.9805 29.9727 70.957 29.8945 70.9414C29.9805 70.7852 30.0352 70.6172 30.0586 70.4375C29.9727 70.3984 29.8867 70.3711 29.8008 70.3555C29.7148 70.3398 29.6328 70.3125 29.5547 70.2734C29.3438 70.3281 29.1367 70.3672 28.9336 70.3906C28.7383 70.4062 28.5547 70.4883 28.3828 70.6367C28.3438 70.6289 28.3008 70.6211 28.2539 70.6133C28.2148 70.6055 28.1758 70.6016 28.1367 70.6016C28.0898 70.6016 27.9961 70.6367 27.8555 70.707C27.7148 70.7695 27.5625 70.8438 27.3984 70.9297C27.2422 71.0156 27.0898 71.1016 26.9414 71.1875C26.8008 71.2734 26.7031 71.332 26.6484 71.3633C26.5859 71.4023 26.5312 71.4492 26.4844 71.5039C26.4375 71.5586 26.3906 71.6172 26.3438 71.6797C26.2969 71.7344 26.25 71.7891 26.2031 71.8438C26.1562 71.8906 26.0977 71.9258 26.0273 71.9492C26.0117 72.0352 25.9844 72.1094 25.9453 72.1719C25.9062 72.2344 25.8633 72.3008 25.8164 72.3711C25.8086 72.5117 25.793 72.6523 25.7695 72.793C25.7539 72.9336 25.7461 73.0742 25.7461 73.2148V73.3672C25.7461 73.4141 25.7539 73.457 25.7695 73.4961C25.8477 73.5977 25.9102 73.7109 25.957 73.8359C26.0117 73.9609 26.1016 74.0469 26.2266 74.0938C26.2344 74.125 26.2305 74.1445 26.2148 74.1523C26.207 74.1602 26.1992 74.1797 26.1914 74.2109C26.2383 74.2969 26.2969 74.3672 26.3672 74.4219C26.4453 74.4688 26.5234 74.5195 26.6016 74.5742C26.6797 74.6211 26.7539 74.6719 26.8242 74.7266C26.8945 74.7812 26.9492 74.8516 26.9883 74.9375C27.1055 74.9375 27.2148 74.957 27.3164 74.9961C27.4258 75.0352 27.5273 75.0781 27.6211 75.125C27.7227 75.1719 27.8164 75.2148 27.9023 75.2539C27.9961 75.293 28.0898 75.3125 28.1836 75.3125C28.2695 75.3125 28.3477 75.3008 28.418 75.2773C28.6211 75.3398 28.8242 75.3867 29.0273 75.418C29.2383 75.4414 29.4492 75.4531 29.6602 75.4531C29.918 75.4531 30.1758 75.4375 30.4336 75.4062C30.6914 75.375 30.9492 75.3477 31.207 75.3242C31.3008 75.3086 31.3906 75.3008 31.4766 75.3008C31.5625 75.3008 31.6484 75.293 31.7344 75.2773C31.8438 75.2617 31.9453 75.2109 32.0391 75.125C32.1406 75.0391 32.2383 74.9766 32.332 74.9375C32.418 74.9922 32.5195 75.0195 32.6367 75.0195C32.7695 75.0195 32.8984 75 33.0234 74.9609C33.1484 74.9141 33.2773 74.8906 33.4102 74.8906H33.4688ZM40.793 69.5469V69.5938C40.7383 69.6094 40.7109 69.6484 40.7109 69.7109C40.625 69.75 40.5352 69.7812 40.4414 69.8047C40.3477 69.8203 40.2578 69.8477 40.1719 69.8867C40.0859 69.8789 39.9961 69.875 39.9023 69.875C39.8164 69.8672 39.7305 69.8633 39.6445 69.8633C39.4102 69.8633 39.1758 69.8711 38.9414 69.8867C38.707 69.9023 38.4727 69.9023 38.2383 69.8867C38.1289 69.9492 38.0078 70 37.875 70.0391C37.75 70.0703 37.6289 70.0859 37.5117 70.0859C37.418 70.0859 37.3359 70.0742 37.2656 70.0508C37.0781 70.1445 36.8711 70.2227 36.6445 70.2852C36.4258 70.3477 36.2031 70.4102 35.9766 70.4727C35.75 70.5273 35.5312 70.5938 35.3203 70.6719C35.1172 70.7422 34.9375 70.8438 34.7812 70.9766C34.7656 71.0859 34.7539 71.1953 34.7461 71.3047C34.7383 71.4062 34.7344 71.5078 34.7344 71.6094C34.7344 71.7188 34.7383 71.8203 34.7461 71.9141C34.7617 72.0078 34.7891 72.1016 34.8281 72.1953C34.8672 72.2109 34.9102 72.2227 34.957 72.2305C35.0117 72.2383 35.0586 72.2422 35.0977 72.2422C35.1367 72.2422 35.1758 72.2383 35.2148 72.2305C35.2539 72.2148 35.2812 72.1875 35.2969 72.1484C35.4141 72.1328 35.5312 72.1289 35.6484 72.1367C35.7656 72.1367 35.8828 72.1367 36 72.1367C36.1172 72.1367 36.2305 72.1328 36.3398 72.125C36.457 72.1172 36.5703 72.0977 36.6797 72.0664C36.8047 72.0352 36.9258 72.0156 37.043 72.0078C37.168 72 37.2891 71.9922 37.4062 71.9844C37.5234 71.9766 37.6445 71.9648 37.7695 71.9492C37.8945 71.9258 38.0234 71.8828 38.1562 71.8203C38.2578 71.8594 38.3594 71.8789 38.4609 71.8789C38.5703 71.8789 38.6758 71.8867 38.7773 71.9023C38.832 71.9414 38.875 71.9844 38.9062 72.0312C38.9453 72.0781 38.9648 72.1328 38.9648 72.1953C38.9648 72.3047 38.9258 72.4141 38.8477 72.5234C38.7695 72.6328 38.707 72.7344 38.6602 72.8281H38.5312C38.3438 72.8281 38.1602 72.8555 37.9805 72.9102C37.8086 72.957 37.6328 73.0156 37.4531 73.0859C37.2812 73.1484 37.1055 73.207 36.9258 73.2617C36.7539 73.3086 36.5742 73.332 36.3867 73.332C36.3555 73.332 36.3359 73.3516 36.3281 73.3906C36.3281 73.4219 36.3203 73.4453 36.3047 73.4609C36.2656 73.4531 36.207 73.4492 36.1289 73.4492C35.9492 73.4492 35.7773 73.4688 35.6133 73.5078C35.4492 73.5469 35.2812 73.5664 35.1094 73.5664C35.0625 73.5664 35.0156 73.5664 34.9688 73.5664C34.9219 73.5586 34.875 73.5508 34.8281 73.543C34.7891 73.6055 34.7383 73.6484 34.6758 73.6719C34.6133 73.6875 34.5547 73.7188 34.5 73.7656C34.4766 73.8359 34.4609 73.9219 34.4531 74.0234C34.4531 74.125 34.4492 74.2305 34.4414 74.3398C34.4414 74.4414 34.4336 74.5391 34.418 74.6328C34.4023 74.7266 34.3711 74.8008 34.3242 74.8555C34.332 74.8945 34.3633 74.9102 34.418 74.9023C34.4727 74.8867 34.5 74.9102 34.5 74.9727C34.5 75.043 34.4922 75.1172 34.4766 75.1953C34.4609 75.2734 34.4531 75.3516 34.4531 75.4297C34.4531 75.5781 34.4688 75.7422 34.5 75.9219C34.5391 76.0938 34.5938 76.2539 34.6641 76.4023C34.7422 76.5508 34.8438 76.6758 34.9688 76.7773C35.0938 76.8711 35.25 76.918 35.4375 76.918C35.5625 76.918 35.6797 76.8945 35.7891 76.8477C35.8984 76.8008 35.9883 76.7227 36.0586 76.6133L36.1172 76.6016C36.1484 76.6016 36.1758 76.6055 36.1992 76.6133C36.2305 76.6211 36.2617 76.625 36.293 76.625C36.3398 76.625 36.3984 76.5977 36.4688 76.543C36.5469 76.4805 36.6289 76.4102 36.7148 76.332C36.8086 76.2539 36.9023 76.1797 36.9961 76.1094C37.0898 76.0312 37.1797 75.9766 37.2656 75.9453C37.3203 75.8359 37.3711 75.7266 37.418 75.6172C37.4727 75.5078 37.5508 75.4219 37.6523 75.3594V75.0195C37.7305 74.9336 37.8125 74.8555 37.8984 74.7852C37.9922 74.7148 38.0625 74.625 38.1094 74.5156C38.1484 74.5312 38.1836 74.543 38.2148 74.5508C38.2539 74.5586 38.293 74.5625 38.332 74.5625C38.3711 74.5625 38.4102 74.5586 38.4492 74.5508C38.4961 74.543 38.5391 74.5312 38.5781 74.5156C38.6406 74.6016 38.6875 74.6992 38.7188 74.8086C38.7578 74.9102 38.8047 75.0078 38.8594 75.1016C38.7891 75.2422 38.707 75.4102 38.6133 75.6055C38.5195 75.8008 38.418 75.9961 38.3086 76.1914C38.1992 76.3867 38.082 76.5742 37.957 76.7539C37.8398 76.9258 37.7227 77.0586 37.6055 77.1523C37.582 77.1758 37.5312 77.2031 37.4531 77.2344C37.3672 77.2969 37.2891 77.3555 37.2188 77.4102C37.1484 77.4727 37.082 77.543 37.0195 77.6211C36.793 77.6914 36.5742 77.7852 36.3633 77.9023C36.1602 78.0195 35.957 78.1328 35.7539 78.2422C35.6602 78.2188 35.5586 78.207 35.4492 78.207C35.3555 78.207 35.2617 78.2109 35.168 78.2188C35.0742 78.2344 34.9727 78.2422 34.8633 78.2422C34.832 78.2031 34.7852 78.1758 34.7227 78.1602C34.668 78.1523 34.6484 78.1133 34.6641 78.043C34.3984 78.0273 34.1836 77.9531 34.0195 77.8203C33.8555 77.6953 33.7148 77.5391 33.5977 77.3516C33.4883 77.1641 33.3984 76.9609 33.3281 76.7422C33.2578 76.5234 33.1836 76.3125 33.1055 76.1094V76.0742C33.1055 76.0352 33.1211 76.0117 33.1523 76.0039C33.1836 75.9961 33.1992 75.9727 33.1992 75.9336C33.1992 75.918 33.1953 75.9062 33.1875 75.8984C33.1641 75.8125 33.1445 75.7383 33.1289 75.6758C33.1133 75.6133 33.1055 75.5391 33.1055 75.4531C33.1055 75.3281 33.1133 75.207 33.1289 75.0898C33.1445 74.9648 33.1523 74.8398 33.1523 74.7148C33.1523 74.5898 33.1367 74.4805 33.1055 74.3867C33.1367 74.3477 33.1641 74.2969 33.1875 74.2344C33.2031 74.1641 33.2148 74.0938 33.2227 74.0234C33.2305 73.9531 33.2344 73.8828 33.2344 73.8125C33.2422 73.7422 33.2539 73.6797 33.2695 73.625C33.2383 73.5391 33.2109 73.4648 33.1875 73.4023C33.1641 73.332 33.1523 73.25 33.1523 73.1562V73.0742C33.2305 72.9414 33.2969 72.8047 33.3516 72.6641C33.4062 72.5234 33.4648 72.3789 33.5273 72.2305V72.1953C33.5273 71.9688 33.5195 71.7422 33.5039 71.5156C33.4883 71.2891 33.4805 71.0625 33.4805 70.8359V70.6133C33.4805 70.5352 33.4844 70.4609 33.4922 70.3906C33.5547 70.3594 33.6016 70.3164 33.6328 70.2617C33.6641 70.207 33.7109 70.1641 33.7734 70.1328H34.1602L34.2305 70.0156C34.2539 69.9766 34.2695 69.9336 34.2773 69.8867C34.3633 69.8633 34.4453 69.832 34.5234 69.793C34.6094 69.7461 34.6875 69.6992 34.7578 69.6523C34.8672 69.5898 34.9648 69.5352 35.0508 69.4883C35.1445 69.4336 35.2344 69.3906 35.3203 69.3594C35.4141 69.3203 35.5117 69.2891 35.6133 69.2656C35.7148 69.2422 35.832 69.2227 35.9648 69.207C36.0273 69.207 36.0664 69.1953 36.082 69.1719C36.1055 69.1484 36.1367 69.1211 36.1758 69.0898C36.2695 69.1055 36.3633 69.1211 36.457 69.1367C36.5508 69.1445 36.6445 69.1484 36.7383 69.1484C36.9258 69.1484 37.1016 69.1133 37.2656 69.043C37.5 69.043 37.7305 69.0391 37.957 69.0312C38.1914 69.0234 38.4258 69.0195 38.6602 69.0195C38.8633 69.0195 39.0664 69.0273 39.2695 69.043C39.4727 69.0586 39.6719 69.0859 39.8672 69.125C39.9375 69.1016 40.0156 69.0898 40.1016 69.0898C40.1953 69.0898 40.2891 69.1016 40.3828 69.125C40.4844 69.1406 40.582 69.1406 40.6758 69.125C40.6836 69.2109 40.7031 69.2852 40.7344 69.3477C40.7734 69.4023 40.793 69.4688 40.793 69.5469ZM57.3633 70.5195C57.3398 70.5898 57.293 70.6406 57.2227 70.6719C57.1602 70.6953 57.0938 70.7148 57.0234 70.7305C56.9531 70.7461 56.8867 70.7734 56.8242 70.8125C56.7695 70.8438 56.7344 70.8984 56.7188 70.9766L56.6953 70.9883C56.6641 70.9883 56.6406 70.9805 56.625 70.9648C56.6172 70.9414 56.6094 70.9219 56.6016 70.9062C56.5938 70.8828 56.582 70.8633 56.5664 70.8477C56.5586 70.8242 56.543 70.8125 56.5195 70.8125C56.4336 70.8125 56.3477 70.8203 56.2617 70.8359C56.1836 70.8516 56.1055 70.8594 56.0273 70.8594C55.9102 70.8594 55.8047 70.8438 55.7109 70.8125C55.6562 70.8281 55.625 70.8633 55.6172 70.918C55.6172 70.9727 55.5938 71.0078 55.5469 71.0234C55.5078 71.0391 55.4609 71.0469 55.4062 71.0469C55.3516 71.0391 55.2969 71.043 55.2422 71.0586L54.8672 71.1523C54.7422 71.1836 54.6172 71.1992 54.4922 71.1992C54.4219 71.1992 54.3711 71.1953 54.3398 71.1875C54.2227 71.2812 54.0898 71.3516 53.9414 71.3984C53.793 71.4375 53.6367 71.4766 53.4727 71.5156C53.3164 71.5469 53.1602 71.5898 53.0039 71.6445C52.8555 71.6992 52.7227 71.7852 52.6055 71.9023C52.543 71.8867 52.4883 71.8789 52.4414 71.8789C52.3398 71.8789 52.25 71.9023 52.1719 71.9492C52.0938 71.9883 52.0117 72.0273 51.9258 72.0664C51.8867 72.082 51.8477 72.0898 51.8086 72.0898C51.7695 72.0898 51.7266 72.0977 51.6797 72.1133C51.6328 72.1289 51.6016 72.1562 51.5859 72.1953C51.5781 72.2266 51.5547 72.2578 51.5156 72.2891C51.5156 72.5703 51.543 72.8516 51.5977 73.1328C51.6523 73.4062 51.6797 73.6836 51.6797 73.9648V74.0117C51.6953 74.1445 51.7383 74.2695 51.8086 74.3867C51.8789 74.4961 51.9141 74.6094 51.9141 74.7266C51.9141 74.7656 51.9062 74.8086 51.8906 74.8555C52.0938 74.9023 52.2266 75.0078 52.2891 75.1719C52.3594 75.3281 52.4141 75.5 52.4531 75.6875C52.5 75.8672 52.5586 76.0352 52.6289 76.1914C52.707 76.3477 52.8555 76.4453 53.0742 76.4844C53.0898 76.5625 53.1016 76.6445 53.1094 76.7305C53.1172 76.8086 53.1211 76.8867 53.1211 76.9648C53.1211 77.0742 53.1094 77.1797 53.0859 77.2812C53.0625 77.3906 53.0156 77.4883 52.9453 77.5742C52.8281 77.582 52.7422 77.5859 52.6875 77.5859C52.6328 77.5859 52.5508 77.6094 52.4414 77.6562C52.2852 77.5625 52.1445 77.4531 52.0195 77.3281C51.9023 77.2109 51.7891 77.0859 51.6797 76.9531C51.5781 76.8125 51.4766 76.6719 51.375 76.5312C51.2734 76.3828 51.1641 76.2422 51.0469 76.1094C50.6406 76.2109 50.2227 76.2812 49.793 76.3203C49.3711 76.3516 48.9492 76.3672 48.5273 76.3672C48.5117 76.3828 48.4883 76.3906 48.457 76.3906C48.4258 76.3906 48.3945 76.3945 48.3633 76.4023C48.3398 76.4023 48.3164 76.4102 48.293 76.4258C48.2773 76.4336 48.2734 76.4531 48.2812 76.4844C48.2266 76.4531 48.1641 76.4336 48.0938 76.4258C48.0312 76.4102 47.9727 76.4023 47.918 76.4023C47.8789 76.4023 47.8398 76.4062 47.8008 76.4141C47.7617 76.4141 47.7227 76.4258 47.6836 76.4492C47.3867 76.3945 47.0977 76.3203 46.8164 76.2266C46.543 76.125 46.2617 76.043 45.9727 75.9805C45.9727 75.918 45.957 75.875 45.9258 75.8516C45.8945 75.8203 45.8672 75.7773 45.8438 75.7227C45.5156 75.5195 45.2383 75.2734 45.0117 74.9844C44.793 74.6953 44.7031 74.3438 44.7422 73.9297L44.6602 73.7656C44.6602 73.6406 44.6875 73.5508 44.7422 73.4961C44.7109 73.4414 44.6562 73.3867 44.5781 73.332C44.6484 73.2227 44.7109 73.1094 44.7656 72.9922C44.8203 72.875 44.8594 72.75 44.8828 72.6172C44.8906 72.5781 44.8945 72.543 44.8945 72.5117C44.8945 72.4805 44.9023 72.4453 44.918 72.4062C44.9336 72.3594 44.957 72.3086 44.9883 72.2539C45.0117 72.1914 45.0352 72.1367 45.0586 72.0898C45.1836 71.8242 45.3203 71.5703 45.4688 71.3281C45.625 71.0781 45.8203 70.8633 46.0547 70.6836C46.0703 70.5508 46.1094 70.4414 46.1719 70.3555C46.2344 70.2617 46.3008 70.1797 46.3711 70.1094C46.4492 70.0312 46.5234 69.9531 46.5938 69.875C46.6719 69.7969 46.7305 69.7031 46.7695 69.5938C46.9258 69.4609 47.082 69.332 47.2383 69.207C47.4023 69.082 47.5391 68.9336 47.6484 68.7617C47.7891 68.7148 47.9219 68.6562 48.0469 68.5859C48.1719 68.5078 48.2773 68.4102 48.3633 68.293C48.5508 68.2773 48.7344 68.2422 48.9141 68.1875C49.1016 68.1328 49.2969 68.1055 49.5 68.1055C49.5859 68.1055 49.6875 68.125 49.8047 68.1641C49.9297 68.1953 50.0234 68.2539 50.0859 68.3398C50.0938 68.3555 50.0977 68.375 50.0977 68.3984L50.1094 68.457C50.1172 68.4727 50.125 68.4883 50.1328 68.5039C50.1484 68.5117 50.1719 68.5117 50.2031 68.5039C50.2031 68.6758 50.1836 68.8516 50.1445 69.0312C50.1055 69.2031 50.0039 69.3359 49.8398 69.4297C49.7383 69.3984 49.6289 69.3828 49.5117 69.3828C49.3555 69.3828 49.2109 69.4141 49.0781 69.4766C48.9531 69.5312 48.8281 69.5977 48.7031 69.6758C48.5859 69.7461 48.4648 69.8203 48.3398 69.8984C48.2148 69.9688 48.082 70.0195 47.9414 70.0508C47.9258 70.1133 47.9102 70.1719 47.8945 70.2266C47.8867 70.2734 47.8906 70.3281 47.9062 70.3906C47.8672 70.3906 47.8359 70.3867 47.8125 70.3789C47.7969 70.3633 47.7695 70.3555 47.7305 70.3555C47.6758 70.3555 47.6367 70.3867 47.6133 70.4492C47.5977 70.5117 47.582 70.5625 47.5664 70.6016C47.418 70.6641 47.293 70.7539 47.1914 70.8711C47.0977 70.9805 47.0078 71.1016 46.9219 71.2344C46.8438 71.3594 46.7578 71.4805 46.6641 71.5977C46.5703 71.7148 46.4531 71.8047 46.3125 71.8672C46.25 72.1172 46.1875 72.3633 46.125 72.6055C46.0703 72.8477 46.0039 73.0898 45.9258 73.332C45.9492 73.4258 45.9609 73.5234 45.9609 73.625C45.9609 73.75 45.9492 73.8633 45.9258 73.9648C45.9648 74.0273 46.0039 74.1016 46.043 74.1875L46.1836 74.457C46.2305 74.5508 46.2773 74.6367 46.3242 74.7148C46.3789 74.793 46.4297 74.8516 46.4766 74.8906C46.5625 74.9531 46.6953 75.0117 46.875 75.0664C47.0547 75.1133 47.2148 75.1953 47.3555 75.3125C47.3711 75.3125 47.3906 75.3125 47.4141 75.3125C47.4375 75.3047 47.457 75.3008 47.4727 75.3008C47.5664 75.3008 47.668 75.3242 47.7773 75.3711C47.8867 75.418 47.957 75.4414 47.9883 75.4414C48.4258 75.4414 48.9023 75.4141 49.418 75.3594C49.9336 75.2969 50.4102 75.2227 50.8477 75.1367C50.8633 75.0586 50.8711 74.9922 50.8711 74.9375C50.8711 74.8359 50.8555 74.7383 50.8242 74.6445C50.793 74.543 50.7422 74.457 50.6719 74.3867C50.6719 74.2695 50.6719 74.1523 50.6719 74.0352C50.6797 73.918 50.6836 73.8008 50.6836 73.6836C50.6836 73.4883 50.6758 73.2812 50.6602 73.0625C50.6445 72.8438 50.6055 72.6406 50.543 72.4531H50.5195C50.418 72.4531 50.3242 72.4805 50.2383 72.5352C50.1602 72.582 50.0781 72.6055 49.9922 72.6055C49.9453 72.6055 49.9062 72.5938 49.875 72.5703C49.7812 72.6797 49.668 72.7617 49.5352 72.8164C49.4023 72.8711 49.2617 72.9219 49.1133 72.9688C48.9648 73.0078 48.8164 73.0508 48.668 73.0977C48.5273 73.1445 48.3984 73.2109 48.2812 73.2969C48.2188 73.2734 48.1602 73.2617 48.1055 73.2617C48.0508 73.2617 47.9961 73.2656 47.9414 73.2734C47.8945 73.2812 47.8398 73.2891 47.7773 73.2969C47.6133 73.1562 47.5312 72.9805 47.5312 72.7695C47.5312 72.6602 47.5469 72.5547 47.5781 72.4531C47.6172 72.3438 47.668 72.2422 47.7305 72.1484C47.7695 72.125 47.8164 72.1133 47.8711 72.1133C47.9258 72.1055 47.9805 72.0977 48.0352 72.0898C48.0898 72.0742 48.1328 72.0547 48.1641 72.0312C48.2031 72.0078 48.2266 71.9648 48.2344 71.9023C48.2578 71.9258 48.2773 71.9375 48.293 71.9375C48.3086 71.9375 48.3242 71.9336 48.3398 71.9258C48.3555 71.918 48.3711 71.9141 48.3867 71.9141C48.4023 71.9141 48.4141 71.9219 48.4219 71.9375C48.4375 71.9531 48.4453 71.9688 48.4453 71.9844C48.7812 71.8047 49.125 71.6523 49.4766 71.5273C49.8281 71.4023 50.1836 71.2891 50.543 71.1875C50.9102 71.0859 51.2773 70.9922 51.6445 70.9062C52.0117 70.8125 52.375 70.7109 52.7344 70.6016C52.7891 70.5547 52.8477 70.5195 52.9102 70.4961C52.9727 70.4727 53.0273 70.4375 53.0742 70.3906C53.1289 70.4219 53.1953 70.4375 53.2734 70.4375C53.3828 70.4375 53.5 70.418 53.625 70.3789C53.7578 70.332 53.8672 70.2773 53.9531 70.2148C53.9844 70.2227 54.0117 70.2266 54.0352 70.2266H54.1172C54.2734 70.2266 54.418 70.2031 54.5508 70.1562C54.6914 70.1094 54.8281 70.0469 54.9609 69.9688H55.0195C55.2617 69.9688 55.5 69.9414 55.7344 69.8867C55.9766 69.832 56.2227 69.8047 56.4727 69.8047C56.793 69.8047 57.0742 69.8867 57.3164 70.0508V70.1914C57.3164 70.2539 57.3164 70.3125 57.3164 70.3672C57.3242 70.4141 57.3398 70.4648 57.3633 70.5195ZM68.9648 74.9609C68.9492 75.0781 68.9062 75.168 68.8359 75.2305C68.7734 75.293 68.6992 75.3516 68.6133 75.4062C68.5742 75.3984 68.5352 75.3945 68.4961 75.3945C68.4648 75.3867 68.4297 75.3828 68.3906 75.3828C68.1484 75.375 67.918 75.4062 67.6992 75.4766C67.4883 75.5469 67.2695 75.5977 67.043 75.6289C66.9648 75.6445 66.8906 75.6523 66.8203 75.6523C66.7578 75.6445 66.6914 75.6484 66.6211 75.6641C66.3711 75.7031 66.1055 75.7344 65.8242 75.7578C65.543 75.7812 65.2617 75.8125 64.9805 75.8516C64.6992 75.8828 64.4219 75.9258 64.1484 75.9805C63.8828 76.0273 63.6328 76.0977 63.3984 76.1914C63.375 76.1758 63.3516 76.1602 63.3281 76.1445C63.3047 76.1211 63.2773 76.1094 63.2461 76.1094C63.168 76.1094 63.0938 76.1211 63.0234 76.1445C62.9531 76.168 62.8828 76.1758 62.8125 76.168C62.7344 76.2148 62.6484 76.25 62.5547 76.2734C62.4688 76.2891 62.3789 76.3047 62.2852 76.3203C62.1992 76.3281 62.1133 76.3438 62.0273 76.3672C61.9414 76.3906 61.8594 76.4336 61.7812 76.4961C61.7188 76.4648 61.6406 76.4492 61.5469 76.4492C61.4609 76.4414 61.4023 76.4102 61.3711 76.3555C61.1914 76.4414 61 76.4961 60.7969 76.5195C60.6016 76.543 60.4023 76.5508 60.1992 76.543C60.0664 76.5352 59.9141 76.5156 59.7422 76.4844C59.5703 76.4531 59.3984 76.4102 59.2266 76.3555C59.0547 76.293 58.8945 76.2227 58.7461 76.1445C58.5977 76.0586 58.4844 75.957 58.4062 75.8398C58.3516 75.7617 58.3125 75.6758 58.2891 75.582C58.2656 75.4883 58.2109 75.418 58.125 75.3711C58.1484 75.1914 58.1758 75.0156 58.207 74.8438C58.2383 74.6719 58.2695 74.4961 58.3008 74.3164C58.457 74.1836 58.6055 74.043 58.7461 73.8945C58.8867 73.7461 59.0195 73.5898 59.1445 73.4258C59.293 73.3555 59.4297 73.2695 59.5547 73.168C59.6875 73.0664 59.8164 72.9648 59.9414 72.8633C60.0742 72.7539 60.2031 72.6484 60.3281 72.5469C60.4609 72.4453 60.6016 72.3555 60.75 72.2773C60.7734 72.2227 60.8047 72.1797 60.8438 72.1484C60.8906 72.1094 60.9375 72.0742 60.9844 72.043C61.0312 72.0039 61.0742 71.9648 61.1133 71.9258C61.1523 71.8789 61.1797 71.8242 61.1953 71.7617C61.4688 71.5977 61.707 71.3906 61.9102 71.1406C62.1133 70.8906 62.2461 70.6094 62.3086 70.2969C62.1758 70.1875 62.0234 70.1172 61.8516 70.0859C61.6875 70.0469 61.5156 70.0195 61.3359 70.0039C61.1797 69.9961 61.0156 69.9961 60.8438 70.0039C60.6797 70.0117 60.5117 70.0078 60.3398 69.9922C60.168 70.0469 59.9883 70.082 59.8008 70.0977C59.6211 70.1133 59.4414 70.1289 59.2617 70.1445C59.082 70.1523 58.9023 70.1758 58.7227 70.2148C58.5508 70.2461 58.3828 70.3086 58.2188 70.4023C58.1875 70.4023 58.1562 70.3984 58.125 70.3906C58.1016 70.3828 58.0742 70.3789 58.043 70.3789C57.793 70.3711 57.5586 70.4219 57.3398 70.5312C57.1211 70.6328 56.9062 70.7344 56.6953 70.8359C56.6797 70.8672 56.6719 70.8906 56.6719 70.9062C56.6719 70.9531 56.6797 71 56.6953 71.0469C56.7188 71.0859 56.7305 71.1289 56.7305 71.1758C56.7227 71.1836 56.7188 71.1914 56.7188 71.1992C56.7188 71.207 56.7148 71.2148 56.707 71.2227C56.6992 71.2617 56.6875 71.2969 56.6719 71.3281C56.6641 71.3594 56.6523 71.3945 56.6367 71.4336C56.5508 71.6836 56.5039 71.9297 56.4961 72.1719C56.4883 72.375 56.4883 72.5742 56.4961 72.7695C56.5039 72.9648 56.5039 73.1641 56.4961 73.3672C56.4805 73.6172 56.4414 73.8516 56.3789 74.0703C56.418 74.2578 56.4531 74.457 56.4844 74.668C56.5156 74.8711 56.5547 75.0742 56.6016 75.2773C56.6484 75.4805 56.7031 75.6797 56.7656 75.875C56.8359 76.0625 56.9258 76.2422 57.0352 76.4141C57.0273 76.4297 57.0312 76.4414 57.0469 76.4492C57.0625 76.457 57.0781 76.4609 57.0938 76.4609H57.1875C57.2266 76.4609 57.2422 76.4766 57.2344 76.5078C57.25 76.5312 57.2617 76.5547 57.2695 76.5781C57.2773 76.5938 57.293 76.6094 57.3164 76.625C57.332 76.6484 57.332 76.6797 57.3164 76.7188C57.3086 76.875 57.2695 77.0195 57.1992 77.1523C57.1289 77.2852 57.0859 77.4297 57.0703 77.5859C56.9766 77.6094 56.8906 77.6211 56.8125 77.6211C56.6797 77.6133 56.5625 77.5742 56.4609 77.5039C56.3594 77.4414 56.2656 77.3633 56.1797 77.2695C56.0938 77.1758 56.0117 77.082 55.9336 76.9883C55.8555 76.8867 55.7695 76.8008 55.6758 76.7305C55.6211 76.5117 55.5664 76.2695 55.5117 76.0039C55.4648 75.7383 55.3828 75.5117 55.2656 75.3242C55.2969 75.2539 55.3125 75.168 55.3125 75.0664C55.3203 74.9102 55.3047 74.7578 55.2656 74.6094C55.2344 74.4531 55.2266 74.2969 55.2422 74.1406C55.2422 74.0547 55.25 73.9688 55.2656 73.8828C55.2891 73.7969 55.3047 73.7109 55.3125 73.625C55.3203 73.4922 55.3047 73.3633 55.2656 73.2383C55.2344 73.1133 55.2227 72.9844 55.2305 72.8516C55.2383 72.7891 55.25 72.7305 55.2656 72.6758C55.2891 72.6133 55.3203 72.5586 55.3594 72.5117C55.3203 72.418 55.3086 72.3281 55.3242 72.2422C55.332 72.1094 55.3477 71.9844 55.3711 71.8672C55.3945 71.75 55.4102 71.6328 55.418 71.5156C55.418 71.4531 55.4141 71.3945 55.4062 71.3398C55.3984 71.2773 55.3867 71.2188 55.3711 71.1641L55.2656 71.1289C55.2188 71.1289 55.1719 71.1406 55.125 71.1641C55.0859 71.1875 55.0508 71.2148 55.0195 71.2461C54.9883 71.2773 54.9609 71.3047 54.9375 71.3281C54.9141 71.3438 54.8906 71.3516 54.8672 71.3516C54.8516 71.3516 54.832 71.3516 54.8086 71.3516C54.793 71.3438 54.7773 71.3398 54.7617 71.3398C54.7461 71.3398 54.7148 71.3555 54.668 71.3867C54.6289 71.418 54.5781 71.4531 54.5156 71.4922C54.4609 71.5234 54.4062 71.5586 54.3516 71.5977C54.2969 71.6289 54.2539 71.6484 54.2227 71.6562C54.1367 71.6406 54.0664 71.6133 54.0117 71.5742C53.9648 71.5273 53.918 71.4844 53.8711 71.4453C53.832 71.3984 53.7891 71.3594 53.7422 71.3281C53.6953 71.2891 53.6367 71.2734 53.5664 71.2812C53.543 71.2344 53.5312 71.1836 53.5312 71.1289C53.5234 71.0742 53.5234 71.0195 53.5312 70.9648V70.7773C53.5859 70.6758 53.6602 70.5938 53.7539 70.5312C53.8398 70.4609 53.9336 70.4023 54.0352 70.3555L54.3398 70.2148C54.4414 70.168 54.5352 70.1094 54.6211 70.0391H54.7266C54.8672 70.0469 54.9883 70.0195 55.0898 69.957C55.1992 69.8945 55.3008 69.8242 55.3945 69.7461C55.4883 69.6602 55.582 69.5742 55.6758 69.4883C55.7773 69.4023 55.8867 69.3359 56.0039 69.2891C56.0898 69.3281 56.1797 69.3633 56.2734 69.3945C56.3672 69.418 56.4648 69.4336 56.5664 69.4414C56.668 69.4414 56.7734 69.4258 56.8828 69.3945C56.9922 69.3633 57.0781 69.3047 57.1406 69.2188C57.1797 69.2344 57.2109 69.2461 57.2344 69.2539C57.2656 69.2539 57.3008 69.2539 57.3398 69.2539C57.457 69.2617 57.5742 69.2461 57.6914 69.207C57.8086 69.1602 57.9219 69.1055 58.0312 69.043C58.1875 69.0508 58.3398 69.043 58.4883 69.0195C58.6445 68.9883 58.7969 68.957 58.9453 68.9258C59.1016 68.8945 59.2539 68.8672 59.4023 68.8438C59.5586 68.8125 59.7148 68.8008 59.8711 68.8086C60.1289 68.8164 60.3828 68.793 60.6328 68.7383C60.8828 68.6836 61.1367 68.6641 61.3945 68.6797C61.5742 68.6875 61.75 68.7031 61.9219 68.7266C62.1016 68.7422 62.2812 68.7461 62.4609 68.7383C62.5625 68.7852 62.6523 68.8281 62.7305 68.8672C62.8164 68.8984 62.9219 68.9062 63.0469 68.8906C63.2969 69.1016 63.5234 69.3477 63.7266 69.6289V69.8281C63.7188 70.0078 63.6875 70.1836 63.6328 70.3555C63.5781 70.5273 63.5117 70.6992 63.4336 70.8711C63.3633 71.0352 63.2852 71.1992 63.1992 71.3633C63.1133 71.5195 63.0312 71.6758 62.9531 71.832C62.4453 72.293 61.9375 72.75 61.4297 73.2031C60.9219 73.6562 60.3984 74.0938 59.8594 74.5156C59.8438 74.5938 59.8203 74.6641 59.7891 74.7266C59.7656 74.7891 59.75 74.8555 59.7422 74.9258C59.7422 74.9648 59.7461 74.9961 59.7539 75.0195C59.8086 75.0352 59.8555 75.0664 59.8945 75.1133C59.9414 75.1523 59.957 75.207 59.9414 75.2773H60.0469C60.0859 75.2773 60.1055 75.293 60.1055 75.3242L60.293 75.3359C60.5898 75.3516 60.8867 75.3438 61.1836 75.3125C61.4805 75.2812 61.7773 75.2461 62.0742 75.207C62.3789 75.168 62.6797 75.1328 62.9766 75.1016C63.2734 75.0625 63.5703 75.0391 63.8672 75.0312C63.9375 75.0078 64.0117 74.9883 64.0898 74.9727C64.168 74.957 64.2383 74.9258 64.3008 74.8789H64.3359C64.3906 74.8789 64.4297 74.8945 64.4531 74.9258C64.4844 74.957 64.5273 74.9766 64.582 74.9844C64.6211 74.9844 64.6602 74.9766 64.6992 74.9609C64.7461 74.9453 64.793 74.9336 64.8398 74.9258C64.9492 74.8945 65.0625 74.875 65.1797 74.8672C65.3047 74.8594 65.4258 74.8477 65.543 74.832C65.9961 74.793 66.4453 74.7695 66.8906 74.7617C67.3359 74.7461 67.7812 74.6875 68.2266 74.5859C68.2656 74.6406 68.3203 74.6797 68.3906 74.7031C68.4609 74.7188 68.5352 74.7383 68.6133 74.7617C68.6914 74.7773 68.7617 74.7969 68.8242 74.8203C68.8945 74.8438 68.9414 74.8906 68.9648 74.9609ZM74.3555 76.1445C74.332 76.2539 74.2812 76.3438 74.2031 76.4141C74.1328 76.4766 74.0469 76.5273 73.9453 76.5664C73.8438 76.6055 73.7383 76.6328 73.6289 76.6484C73.5273 76.6562 73.4336 76.6602 73.3477 76.6602C73.3086 76.6602 73.2695 76.6602 73.2305 76.6602C73.1992 76.6523 73.1641 76.6484 73.125 76.6484C73.0859 76.6484 73.0664 76.668 73.0664 76.707C73.0664 76.7461 73.0469 76.7734 73.0078 76.7891C72.9688 76.7734 72.9297 76.7617 72.8906 76.7539C72.8516 76.7461 72.8125 76.7422 72.7734 76.7422C72.7188 76.7422 72.6641 76.7461 72.6094 76.7539C72.5625 76.7617 72.5156 76.7656 72.4688 76.7656C72.4062 76.7656 72.3594 76.7578 72.3281 76.7422C72.3047 76.7266 72.2812 76.7109 72.2578 76.6953C72.2422 76.6719 72.2227 76.6484 72.1992 76.625C72.1836 76.6016 72.1562 76.582 72.1172 76.5664C72.0625 76.543 72.0156 76.5391 71.9766 76.5547C71.9453 76.5703 71.8945 76.5469 71.8242 76.4844C71.7305 76.4062 71.6484 76.3125 71.5781 76.2031C71.5156 76.0859 71.4531 75.9648 71.3906 75.8398C71.3281 75.7148 71.2617 75.5898 71.1914 75.4648C71.1211 75.3398 71.0391 75.2305 70.9453 75.1367H70.8516C70.7109 75.1367 70.6133 75.1953 70.5586 75.3125C70.5195 75.2891 70.4805 75.2617 70.4414 75.2305C70.4023 75.1914 70.3594 75.1602 70.3125 75.1367C70.1328 75.1914 69.9453 75.2383 69.75 75.2773C69.5547 75.3164 69.3594 75.3359 69.1641 75.3359H69C68.9531 75.3359 68.9023 75.3281 68.8477 75.3125C68.7695 75.3438 68.6992 75.3828 68.6367 75.4297C68.5742 75.4688 68.5039 75.4883 68.4258 75.4883C68.3789 75.4883 68.3242 75.4727 68.2617 75.4414C68.2148 75.4414 68.1914 75.4609 68.1914 75.5C68.1992 75.5391 68.1758 75.5586 68.1211 75.5586H68.0156C67.9062 75.5586 67.7969 75.5625 67.6875 75.5703C67.5859 75.5781 67.4805 75.582 67.3711 75.582C67.2227 75.582 67.0703 75.5625 66.9141 75.5234C66.875 75.5469 66.832 75.5586 66.7852 75.5586C66.7539 75.5742 66.7305 75.6016 66.7148 75.6406C66.6992 75.6719 66.6836 75.7031 66.668 75.7344C66.6523 75.7578 66.6289 75.7812 66.5977 75.8047C66.5742 75.8203 66.5391 75.8242 66.4922 75.8164C66.4766 75.9102 66.4375 75.9844 66.375 76.0391C66.3125 76.0938 66.2812 76.1758 66.2812 76.2852C66.1953 76.332 66.125 76.3906 66.0703 76.4609C66.0156 76.5312 65.9609 76.6055 65.9062 76.6836C65.8516 76.7617 65.793 76.8359 65.7305 76.9062C65.6758 76.9766 65.6055 77.0312 65.5195 77.0703C65.4805 77.1172 65.4688 77.1914 65.4844 77.293C65.3984 77.3633 65.293 77.4258 65.168 77.4805C65.043 77.5352 64.9258 77.5625 64.8164 77.5625C64.5898 77.5625 64.4336 77.4414 64.3477 77.1992C64.3477 77.1211 64.3555 77.0391 64.3711 76.9531C64.3789 76.8594 64.3945 76.7734 64.418 76.6953C64.4414 76.6094 64.4766 76.5352 64.5234 76.4727C64.5703 76.4023 64.6367 76.3516 64.7227 76.3203C64.7227 76.25 64.6992 76.2031 64.6523 76.1797C64.6055 76.1484 64.5859 76.0977 64.5938 76.0273C64.8047 75.9258 64.9883 75.793 65.1445 75.6289C65.3008 75.4648 65.4414 75.293 65.5664 75.1133C65.6992 74.9258 65.832 74.7383 65.9648 74.5508C66.0977 74.3633 66.2461 74.1953 66.4102 74.0469V73.8008C66.6445 73.5508 66.7969 73.2695 66.8672 72.957C66.9531 72.9414 67.0078 72.9023 67.0312 72.8398C67.0625 72.7773 67.0781 72.7031 67.0781 72.6172C67.1172 72.6172 67.1406 72.6016 67.1484 72.5703C67.1641 72.5312 67.1992 72.5195 67.2539 72.5352C67.3242 72.3477 67.4023 72.1758 67.4883 72.0195C67.5742 71.8633 67.6602 71.707 67.7461 71.5508C67.832 71.3867 67.9062 71.2188 67.9688 71.0469C68.0391 70.875 68.0898 70.6836 68.1211 70.4727C68.2305 70.4648 68.2891 70.4141 68.2969 70.3203C68.3125 70.2188 68.3281 70.1289 68.3438 70.0508C68.4609 69.9414 68.5469 69.8125 68.6016 69.6641C68.6641 69.5156 68.7188 69.3633 68.7656 69.207C68.8125 69.043 68.8633 68.8828 68.918 68.7266C68.9805 68.5625 69.0664 68.418 69.1758 68.293V68.2578C69.1758 68.2188 69.1602 68.1953 69.1289 68.1875C69.0977 68.1719 69.082 68.1445 69.082 68.1055C69.0898 68.0977 69.0938 68.0898 69.0938 68.082C69.1875 68.043 69.2578 67.9805 69.3047 67.8945C69.3516 67.8008 69.4219 67.7344 69.5156 67.6953C69.6797 67.8281 69.8242 67.9102 69.9492 67.9414C70.0742 67.9648 70.2383 67.9844 70.4414 68C70.543 68.1094 70.5977 68.2422 70.6055 68.3984C70.6211 68.5469 70.6484 68.6953 70.6875 68.8438C70.75 69.0938 70.8164 69.3398 70.8867 69.582C70.9648 69.8164 71.0234 70.0586 71.0625 70.3086C71.0859 70.457 71.1289 70.5977 71.1914 70.7305C71.2539 70.8633 71.2969 71 71.3203 71.1406C71.3359 71.25 71.3359 71.375 71.3203 71.5156C71.3047 71.6484 71.3203 71.7656 71.3672 71.8672L71.4492 72.0547C71.4883 72.1406 71.5195 72.2305 71.543 72.3242C71.5742 72.418 71.6016 72.5117 71.625 72.6055C71.6875 72.8398 71.7422 73.0938 71.7891 73.3672C71.8438 73.6328 71.9258 73.875 72.0352 74.0938C72.0742 74.1719 72.1328 74.2266 72.2109 74.2578C72.2969 74.2891 72.3906 74.3125 72.4922 74.3281C72.5938 74.3359 72.6914 74.3398 72.7852 74.3398C72.8867 74.332 72.9727 74.3281 73.043 74.3281H73.1602C73.207 74.3281 73.2539 74.3359 73.3008 74.3516C73.332 74.4141 73.3477 74.4688 73.3477 74.5156C73.3477 74.6094 73.3164 74.6836 73.2539 74.7383C73.1914 74.793 73.1602 74.8555 73.1602 74.9258C73.1602 74.9648 73.1758 75.0078 73.207 75.0547C73.1758 75.0469 73.1289 75.043 73.0664 75.043C72.8867 75.043 72.7109 75.0742 72.5391 75.1367C72.6016 75.2695 72.6836 75.3828 72.7852 75.4766C72.8945 75.5625 73.0078 75.6445 73.125 75.7227C73.2031 75.6602 73.2852 75.6289 73.3711 75.6289C73.4648 75.6289 73.5508 75.6523 73.6289 75.6992C73.7148 75.7383 73.8047 75.7578 73.8984 75.7578C73.9688 75.7578 74.0195 75.7461 74.0508 75.7227C74.1133 75.793 74.1641 75.8672 74.2031 75.9453C74.2422 76.0156 74.293 76.082 74.3555 76.1445ZM70.6875 74.2695C70.6719 74.1367 70.6445 74.043 70.6055 73.9883C70.5742 73.9258 70.5469 73.8516 70.5234 73.7656C70.4922 73.6562 70.4688 73.5391 70.4531 73.4141C70.4453 73.2891 70.4297 73.168 70.4062 73.0508C70.3516 72.7852 70.2891 72.5195 70.2188 72.2539C70.1562 71.9883 70.0742 71.7305 69.9727 71.4805C70.0039 71.4336 70.0195 71.3906 70.0195 71.3516V71.3164C69.9492 71.2383 69.8984 71.1445 69.8672 71.0352C69.8359 70.918 69.8047 70.8047 69.7734 70.6953C69.75 70.5781 69.7148 70.4727 69.668 70.3789C69.6289 70.2773 69.5625 70.1953 69.4688 70.1328C69.4453 70.1797 69.4336 70.2344 69.4336 70.2969C69.4336 70.3516 69.4375 70.4023 69.4453 70.4492C69.4609 70.4961 69.4688 70.5469 69.4688 70.6016C69.3906 70.6406 69.332 70.7031 69.293 70.7891C69.2617 70.8672 69.207 70.9297 69.1289 70.9766C69.0664 71.2266 68.9766 71.4648 68.8594 71.6914C68.7422 71.9102 68.6172 72.1289 68.4844 72.3477C68.3594 72.5664 68.2383 72.7891 68.1211 73.0156C68.0039 73.2344 67.9102 73.4648 67.8398 73.707C67.7383 73.7773 67.668 73.8672 67.6289 73.9766C67.5977 74.0859 67.582 74.1953 67.582 74.3047C67.6523 74.3438 67.7305 74.3672 67.8164 74.375C67.9102 74.375 68 74.375 68.0859 74.375C68.1719 74.375 68.2539 74.3828 68.332 74.3984C68.4102 74.4141 68.4805 74.4531 68.543 74.5156C68.6445 74.4844 68.7539 74.4648 68.8711 74.457C68.9961 74.4414 69.0977 74.4062 69.1758 74.3516C69.332 74.4062 69.5 74.4336 69.6797 74.4336C69.7734 74.4336 69.8633 74.4258 69.9492 74.4102C70.043 74.3945 70.1328 74.375 70.2188 74.3516C70.2891 74.3672 70.3438 74.3945 70.3828 74.4336C70.4219 74.4648 70.4805 74.4766 70.5586 74.4688C70.5977 74.4375 70.6211 74.4062 70.6289 74.375C70.6367 74.3359 70.6562 74.3008 70.6875 74.2695ZM82.1367 71.2227C82.1367 71.3008 82.1094 71.3516 82.0547 71.375C82 71.3984 81.9727 71.4453 81.9727 71.5156C81.9727 71.5391 81.9805 71.5586 81.9961 71.5742C82.0117 71.5898 82.0195 71.6133 82.0195 71.6445V71.6914C81.9258 72.1445 81.7891 72.5391 81.6094 72.875C81.4375 73.2109 81.2344 73.5195 81 73.8008C80.7656 74.082 80.5 74.3477 80.2031 74.5977C79.9141 74.8477 79.6016 75.1094 79.2656 75.3828C79.1719 75.4609 79.0742 75.5391 78.9727 75.6172C78.8789 75.6953 78.7891 75.7773 78.7031 75.8633L78.4453 76.1094C78.4375 76.1172 78.3945 76.1367 78.3164 76.168C78.2383 76.1914 78.1914 76.207 78.1758 76.2148C78.0664 76.2617 77.9492 76.3164 77.8242 76.3789C77.707 76.4414 77.6055 76.5195 77.5195 76.6133C77.3633 76.6133 77.2305 76.6367 77.1211 76.6836C77.0117 76.7305 76.8906 76.793 76.7578 76.8711C76.7188 76.8711 76.6836 76.8633 76.6523 76.8477C76.6289 76.832 76.6016 76.8164 76.5703 76.8008C76.5391 76.7852 76.5039 76.7773 76.4648 76.7773C76.4336 76.7695 76.3906 76.7734 76.3359 76.7891C76.2422 76.6328 76.1406 76.5 76.0312 76.3906C75.9219 76.2812 75.7734 76.2148 75.5859 76.1914C75.5625 76.0586 75.5078 75.957 75.4219 75.8867C75.3359 75.8086 75.25 75.7266 75.1641 75.6406C75.1484 75.5938 75.1367 75.5391 75.1289 75.4766C75.1211 75.4141 75.1055 75.3555 75.082 75.3008C75.0586 75.2461 75.0273 75.1992 74.9883 75.1602C74.9492 75.1211 74.8945 75.1016 74.8242 75.1016C74.8164 75.0547 74.8359 75.0312 74.8828 75.0312C74.9297 75.0312 74.9531 75.0117 74.9531 74.9727C74.9531 74.9258 74.9453 74.8789 74.9297 74.832C74.9141 74.7852 74.9062 74.7344 74.9062 74.6797C74.9062 74.6406 74.9102 74.6055 74.918 74.5742C74.9258 74.543 74.9375 74.5078 74.9531 74.4688C74.9297 74.2578 74.918 74.043 74.918 73.8242C74.918 73.4023 74.9453 72.9883 75 72.582C75.0625 72.168 75.0938 71.75 75.0938 71.3281C75.0938 71.1406 75.082 70.9531 75.0586 70.7656C75.043 70.5781 75.0078 70.3945 74.9531 70.2148C74.7734 70.2539 74.5938 70.3008 74.4141 70.3555C74.2344 70.4023 74.0664 70.4688 73.9102 70.5547C73.8242 70.5 73.7344 70.4688 73.6406 70.4609C73.5391 70.4453 73.4414 70.4219 73.3477 70.3906C73.293 70.2812 73.2656 70.168 73.2656 70.0508C73.2656 69.9414 73.2852 69.8359 73.3242 69.7344L73.4414 69.4297C73.6289 69.3906 73.8164 69.332 74.0039 69.2539C74.1836 69.1758 74.3672 69.1055 74.5547 69.043C74.6172 69.0273 74.6953 69.0078 74.7891 68.9844C74.8906 68.9609 74.9609 68.9414 75 68.9258C75.0547 68.9023 75.0898 68.8594 75.1055 68.7969C75.1289 68.7266 75.1602 68.668 75.1992 68.6211H75.3984C75.4453 68.6211 75.4961 68.625 75.5508 68.6328C75.6055 68.6328 75.6562 68.6445 75.7031 68.668C75.9844 68.5977 76.2656 68.5547 76.5469 68.5391C76.8281 68.5156 77.1172 68.4844 77.4141 68.4453C77.4453 68.4453 77.4922 68.4414 77.5547 68.4336L77.7539 68.3984C77.8242 68.3828 77.8867 68.3711 77.9414 68.3633C78.0039 68.3477 78.0469 68.3398 78.0703 68.3398C78.0938 68.3398 78.1055 68.3516 78.1055 68.375H78.3047C78.6406 68.375 78.9688 68.418 79.2891 68.5039L80.25 68.7617C80.3828 68.8711 80.5156 68.9766 80.6484 69.0781C80.7812 69.1797 80.9297 69.2695 81.0938 69.3477C81.1328 69.4727 81.1914 69.5742 81.2695 69.6523C81.3555 69.7227 81.4492 69.8008 81.5508 69.8867C81.5898 69.9883 81.6406 70.0977 81.7031 70.2148C81.7734 70.3242 81.8398 70.4375 81.9023 70.5547C81.9648 70.6719 82.0195 70.7891 82.0664 70.9062C82.1133 71.0156 82.1367 71.1211 82.1367 71.2227ZM81.0469 71.3984C80.9609 71.2188 80.8789 71.0312 80.8008 70.8359C80.7227 70.6406 80.625 70.4648 80.5078 70.3086C80.3672 70.2695 80.2227 70.2227 80.0742 70.168C79.9336 70.1055 79.8359 70 79.7812 69.8516C79.7656 69.8594 79.7383 69.8633 79.6992 69.8633C79.6289 69.8633 79.5664 69.8359 79.5117 69.7812C79.457 69.7266 79.3945 69.6914 79.3242 69.6758C79.2617 69.668 79.1758 69.6562 79.0664 69.6406C78.9648 69.625 78.8555 69.6133 78.7383 69.6055C78.6211 69.5977 78.5039 69.5898 78.3867 69.582C78.2773 69.5742 78.1914 69.5703 78.1289 69.5703C78.0664 69.5703 78 69.5742 77.9297 69.582C77.8672 69.582 77.8008 69.5859 77.7305 69.5938C77.668 69.5938 77.6289 69.6055 77.6133 69.6289C77.5977 69.6445 77.5664 69.6602 77.5195 69.6758C77.4805 69.6602 77.4375 69.6523 77.3906 69.6523H77.25C77.0859 69.6523 76.9219 69.6797 76.7578 69.7344C76.6016 69.7812 76.4453 69.8477 76.2891 69.9336V69.9805C76.2891 70.043 76.3164 70.0781 76.3711 70.0859C76.4258 70.0938 76.457 70.125 76.4648 70.1797C76.4258 70.1797 76.3945 70.1836 76.3711 70.1914C76.3477 70.1914 76.3359 70.2188 76.3359 70.2734C76.3359 70.3516 76.3438 70.4375 76.3594 70.5312C76.3828 70.625 76.3945 70.7188 76.3945 70.8125C76.3945 70.8828 76.3867 70.9648 76.3711 71.0586C76.3555 71.1523 76.3164 71.2266 76.2539 71.2812C76.332 71.3516 76.3711 71.4453 76.3711 71.5625C76.3711 71.6406 76.3555 71.7227 76.3242 71.8086C76.293 71.8945 76.2539 71.9688 76.207 72.0312C76.1914 72.3594 76.1602 72.6914 76.1133 73.0273C76.0664 73.3633 76.043 73.6953 76.043 74.0234C76.043 74.1875 76.0508 74.3477 76.0664 74.5039C76.0898 74.6602 76.125 74.8164 76.1719 74.9727C76.2578 75.0586 76.3477 75.125 76.4414 75.1719C76.543 75.2188 76.6484 75.2656 76.7578 75.3125V75.3477C76.7578 75.3711 76.7422 75.3945 76.7109 75.418C76.6797 75.4414 76.6641 75.4727 76.6641 75.5117C76.6641 75.543 76.6797 75.5586 76.7109 75.5586C77.0391 75.4648 77.3477 75.3516 77.6367 75.2188C77.9258 75.0859 78.1953 74.9062 78.4453 74.6797C78.4688 74.6562 78.4922 74.6445 78.5156 74.6445C78.5312 74.6445 78.5508 74.6484 78.5742 74.6562C78.6055 74.6641 78.6328 74.6719 78.6562 74.6797L78.6445 74.6328C78.6445 74.5859 78.6562 74.543 78.6797 74.5039C78.7109 74.4648 78.7461 74.4297 78.7852 74.3984L78.9023 74.293C78.9414 74.2539 78.9727 74.2148 78.9961 74.1758C79.0586 74.1602 79.1016 74.1289 79.125 74.082C79.1562 74.0352 79.207 74.0117 79.2773 74.0117C79.293 73.9258 79.3359 73.8633 79.4062 73.8242C79.4766 73.7773 79.5195 73.7109 79.5352 73.625C79.6914 73.5391 79.8281 73.4336 79.9453 73.3086C80.0703 73.1836 80.1836 73.0508 80.2852 72.9102C80.3945 72.7695 80.4961 72.625 80.5898 72.4766C80.6836 72.3203 80.7812 72.1719 80.8828 72.0312V71.9844C80.8828 71.8594 80.9023 71.7578 80.9414 71.6797C80.9883 71.6016 81.0234 71.5078 81.0469 71.3984ZM85.1836 75.3945C85.1445 75.457 85.0977 75.5156 85.043 75.5703C84.9883 75.6172 84.9375 75.668 84.8906 75.7227C84.8359 75.7461 84.7734 75.7578 84.7031 75.7578C84.6406 75.7578 84.5781 75.7578 84.5156 75.7578C84.4609 75.75 84.4062 75.75 84.3516 75.7578C84.3047 75.7578 84.2656 75.7734 84.2344 75.8047C84.1719 75.7891 84.125 75.7617 84.0938 75.7227C84.0625 75.6758 84.0078 75.6484 83.9297 75.6406C83.8984 75.6328 83.8672 75.6328 83.8359 75.6406C83.7188 75.5078 83.6094 75.3672 83.5078 75.2188C83.4141 75.0703 83.3242 74.9297 83.2383 74.7969C83.2305 74.5078 83.207 74.2148 83.168 73.918C83.1602 73.8477 83.1484 73.7773 83.1328 73.707C83.1172 73.6367 83.1055 73.5703 83.0977 73.5078C83.0977 73.4297 83.1016 73.3555 83.1094 73.2852C83.125 73.207 83.1367 73.1367 83.1445 73.0742C83.1758 72.8477 83.2109 72.625 83.25 72.4062C83.2891 72.1875 83.3242 71.9648 83.3555 71.7383C83.3867 71.5352 83.4023 71.3242 83.4023 71.1055C83.4023 70.8789 83.3672 70.668 83.2969 70.4727L83.2852 70.4141C83.3008 70.3516 83.3164 70.3008 83.332 70.2617C83.3555 70.2148 83.3711 70.1641 83.3789 70.1094C83.3945 70.0234 83.375 69.9609 83.3203 69.9219C83.3438 69.8594 83.3828 69.8203 83.4375 69.8047C83.4922 69.7812 83.5234 69.7344 83.5312 69.6641C83.5391 69.6328 83.5391 69.6016 83.5312 69.5703C83.5938 69.5469 83.6562 69.5273 83.7188 69.5117C83.7891 69.4883 83.8555 69.4844 83.918 69.5C84.0195 69.5156 84.1094 69.5508 84.1875 69.6055C84.2656 69.6523 84.3398 69.707 84.4102 69.7695C84.5352 70.1445 84.5859 70.543 84.5625 70.9648C84.5391 71.3789 84.5 71.7969 84.4453 72.2188C84.3906 72.6406 84.3555 73.0547 84.3398 73.4609C84.3242 73.8594 84.3867 74.2305 84.5273 74.5742L84.5508 74.5859C84.5898 74.5938 84.6211 74.582 84.6445 74.5508C84.668 74.5117 84.6992 74.4961 84.7383 74.5039C84.7695 74.5195 84.7891 74.5273 84.7969 74.5273C84.8281 74.6836 84.8789 74.832 84.9492 74.9727C85.0195 75.1133 85.0977 75.2539 85.1836 75.3945ZM93.7148 69.5469V69.5938C93.6602 69.6094 93.6328 69.6484 93.6328 69.7109C93.5469 69.75 93.457 69.7812 93.3633 69.8047C93.2695 69.8203 93.1797 69.8477 93.0938 69.8867C93.0078 69.8789 92.918 69.875 92.8242 69.875C92.7383 69.8672 92.6523 69.8633 92.5664 69.8633C92.332 69.8633 92.0977 69.8711 91.8633 69.8867C91.6289 69.9023 91.3945 69.9023 91.1602 69.8867C91.0508 69.9492 90.9297 70 90.7969 70.0391C90.6719 70.0703 90.5508 70.0859 90.4336 70.0859C90.3398 70.0859 90.2578 70.0742 90.1875 70.0508C90 70.1445 89.793 70.2227 89.5664 70.2852C89.3477 70.3477 89.125 70.4102 88.8984 70.4727C88.6719 70.5273 88.4531 70.5938 88.2422 70.6719C88.0391 70.7422 87.8594 70.8438 87.7031 70.9766C87.6875 71.0859 87.6758 71.1953 87.668 71.3047C87.6602 71.4062 87.6562 71.5078 87.6562 71.6094C87.6562 71.7188 87.6602 71.8203 87.668 71.9141C87.6836 72.0078 87.7109 72.1016 87.75 72.1953C87.7891 72.2109 87.832 72.2227 87.8789 72.2305C87.9336 72.2383 87.9805 72.2422 88.0195 72.2422C88.0586 72.2422 88.0977 72.2383 88.1367 72.2305C88.1758 72.2148 88.2031 72.1875 88.2188 72.1484C88.3359 72.1328 88.4531 72.1289 88.5703 72.1367C88.6875 72.1367 88.8047 72.1367 88.9219 72.1367C89.0391 72.1367 89.1523 72.1328 89.2617 72.125C89.3789 72.1172 89.4922 72.0977 89.6016 72.0664C89.7266 72.0352 89.8477 72.0156 89.9648 72.0078C90.0898 72 90.2109 71.9922 90.3281 71.9844C90.4453 71.9766 90.5664 71.9648 90.6914 71.9492C90.8164 71.9258 90.9453 71.8828 91.0781 71.8203C91.1797 71.8594 91.2812 71.8789 91.3828 71.8789C91.4922 71.8789 91.5977 71.8867 91.6992 71.9023C91.7539 71.9414 91.7969 71.9844 91.8281 72.0312C91.8672 72.0781 91.8867 72.1328 91.8867 72.1953C91.8867 72.3047 91.8477 72.4141 91.7695 72.5234C91.6914 72.6328 91.6289 72.7344 91.582 72.8281H91.4531C91.2656 72.8281 91.082 72.8555 90.9023 72.9102C90.7305 72.957 90.5547 73.0156 90.375 73.0859C90.2031 73.1484 90.0273 73.207 89.8477 73.2617C89.6758 73.3086 89.4961 73.332 89.3086 73.332C89.2773 73.332 89.2578 73.3516 89.25 73.3906C89.25 73.4219 89.2422 73.4453 89.2266 73.4609C89.1875 73.4531 89.1289 73.4492 89.0508 73.4492C88.8711 73.4492 88.6992 73.4688 88.5352 73.5078C88.3711 73.5469 88.2031 73.5664 88.0312 73.5664C87.9844 73.5664 87.9375 73.5664 87.8906 73.5664C87.8438 73.5586 87.7969 73.5508 87.75 73.543C87.7109 73.6055 87.6602 73.6484 87.5977 73.6719C87.5352 73.6875 87.4766 73.7188 87.4219 73.7656C87.3984 73.8359 87.3828 73.9219 87.375 74.0234C87.375 74.125 87.3711 74.2305 87.3633 74.3398C87.3633 74.4414 87.3555 74.5391 87.3398 74.6328C87.3242 74.7266 87.293 74.8008 87.2461 74.8555C87.2539 74.8945 87.2852 74.9102 87.3398 74.9023C87.3945 74.8867 87.4219 74.9102 87.4219 74.9727C87.4219 75.043 87.4141 75.1172 87.3984 75.1953C87.3828 75.2734 87.375 75.3516 87.375 75.4297C87.375 75.5781 87.3906 75.7422 87.4219 75.9219C87.4609 76.0938 87.5156 76.2539 87.5859 76.4023C87.6641 76.5508 87.7656 76.6758 87.8906 76.7773C88.0156 76.8711 88.1719 76.918 88.3594 76.918C88.4844 76.918 88.6016 76.8945 88.7109 76.8477C88.8203 76.8008 88.9102 76.7227 88.9805 76.6133L89.0391 76.6016C89.0703 76.6016 89.0977 76.6055 89.1211 76.6133C89.1523 76.6211 89.1836 76.625 89.2148 76.625C89.2617 76.625 89.3203 76.5977 89.3906 76.543C89.4688 76.4805 89.5508 76.4102 89.6367 76.332C89.7305 76.2539 89.8242 76.1797 89.918 76.1094C90.0117 76.0312 90.1016 75.9766 90.1875 75.9453C90.2422 75.8359 90.293 75.7266 90.3398 75.6172C90.3945 75.5078 90.4727 75.4219 90.5742 75.3594V75.0195C90.6523 74.9336 90.7344 74.8555 90.8203 74.7852C90.9141 74.7148 90.9844 74.625 91.0312 74.5156C91.0703 74.5312 91.1055 74.543 91.1367 74.5508C91.1758 74.5586 91.2148 74.5625 91.2539 74.5625C91.293 74.5625 91.332 74.5586 91.3711 74.5508C91.418 74.543 91.4609 74.5312 91.5 74.5156C91.5625 74.6016 91.6094 74.6992 91.6406 74.8086C91.6797 74.9102 91.7266 75.0078 91.7812 75.1016C91.7109 75.2422 91.6289 75.4102 91.5352 75.6055C91.4414 75.8008 91.3398 75.9961 91.2305 76.1914C91.1211 76.3867 91.0039 76.5742 90.8789 76.7539C90.7617 76.9258 90.6445 77.0586 90.5273 77.1523C90.5039 77.1758 90.4531 77.2031 90.375 77.2344C90.2891 77.2969 90.2109 77.3555 90.1406 77.4102C90.0703 77.4727 90.0039 77.543 89.9414 77.6211C89.7148 77.6914 89.4961 77.7852 89.2852 77.9023C89.082 78.0195 88.8789 78.1328 88.6758 78.2422C88.582 78.2188 88.4805 78.207 88.3711 78.207C88.2773 78.207 88.1836 78.2109 88.0898 78.2188C87.9961 78.2344 87.8945 78.2422 87.7852 78.2422C87.7539 78.2031 87.707 78.1758 87.6445 78.1602C87.5898 78.1523 87.5703 78.1133 87.5859 78.043C87.3203 78.0273 87.1055 77.9531 86.9414 77.8203C86.7773 77.6953 86.6367 77.5391 86.5195 77.3516C86.4102 77.1641 86.3203 76.9609 86.25 76.7422C86.1797 76.5234 86.1055 76.3125 86.0273 76.1094V76.0742C86.0273 76.0352 86.043 76.0117 86.0742 76.0039C86.1055 75.9961 86.1211 75.9727 86.1211 75.9336C86.1211 75.918 86.1172 75.9062 86.1094 75.8984C86.0859 75.8125 86.0664 75.7383 86.0508 75.6758C86.0352 75.6133 86.0273 75.5391 86.0273 75.4531C86.0273 75.3281 86.0352 75.207 86.0508 75.0898C86.0664 74.9648 86.0742 74.8398 86.0742 74.7148C86.0742 74.5898 86.0586 74.4805 86.0273 74.3867C86.0586 74.3477 86.0859 74.2969 86.1094 74.2344C86.125 74.1641 86.1367 74.0938 86.1445 74.0234C86.1523 73.9531 86.1562 73.8828 86.1562 73.8125C86.1641 73.7422 86.1758 73.6797 86.1914 73.625C86.1602 73.5391 86.1328 73.4648 86.1094 73.4023C86.0859 73.332 86.0742 73.25 86.0742 73.1562V73.0742C86.1523 72.9414 86.2188 72.8047 86.2734 72.6641C86.3281 72.5234 86.3867 72.3789 86.4492 72.2305V72.1953C86.4492 71.9688 86.4414 71.7422 86.4258 71.5156C86.4102 71.2891 86.4023 71.0625 86.4023 70.8359V70.6133C86.4023 70.5352 86.4062 70.4609 86.4141 70.3906C86.4766 70.3594 86.5234 70.3164 86.5547 70.2617C86.5859 70.207 86.6328 70.1641 86.6953 70.1328H87.082L87.1523 70.0156C87.1758 69.9766 87.1914 69.9336 87.1992 69.8867C87.2852 69.8633 87.3672 69.832 87.4453 69.793C87.5312 69.7461 87.6094 69.6992 87.6797 69.6523C87.7891 69.5898 87.8867 69.5352 87.9727 69.4883C88.0664 69.4336 88.1562 69.3906 88.2422 69.3594C88.3359 69.3203 88.4336 69.2891 88.5352 69.2656C88.6367 69.2422 88.7539 69.2227 88.8867 69.207C88.9492 69.207 88.9883 69.1953 89.0039 69.1719C89.0273 69.1484 89.0586 69.1211 89.0977 69.0898C89.1914 69.1055 89.2852 69.1211 89.3789 69.1367C89.4727 69.1445 89.5664 69.1484 89.6602 69.1484C89.8477 69.1484 90.0234 69.1133 90.1875 69.043C90.4219 69.043 90.6523 69.0391 90.8789 69.0312C91.1133 69.0234 91.3477 69.0195 91.582 69.0195C91.7852 69.0195 91.9883 69.0273 92.1914 69.043C92.3945 69.0586 92.5938 69.0859 92.7891 69.125C92.8594 69.1016 92.9375 69.0898 93.0234 69.0898C93.1172 69.0898 93.2109 69.1016 93.3047 69.125C93.4062 69.1406 93.5039 69.1406 93.5977 69.125C93.6055 69.2109 93.625 69.2852 93.6562 69.3477C93.6953 69.4023 93.7148 69.4688 93.7148 69.5469ZM100.863 69.3008C100.848 69.3945 100.824 69.4766 100.793 69.5469C100.77 69.6094 100.766 69.6953 100.781 69.8047C100.703 69.8125 100.641 69.8398 100.594 69.8867C100.555 69.9258 100.52 69.9727 100.488 70.0273C100.465 70.082 100.438 70.1406 100.406 70.2031C100.383 70.2578 100.352 70.3086 100.312 70.3555C100.375 70.6367 100.41 70.9219 100.418 71.2109C100.426 71.5 100.445 71.7852 100.477 72.0664C100.516 72.4258 100.574 72.7812 100.652 73.1328C100.738 73.4766 100.781 73.8281 100.781 74.1875C100.781 74.2969 100.777 74.3984 100.77 74.4922C100.77 74.5859 100.77 74.6836 100.77 74.7852C100.77 74.8477 100.77 74.9141 100.77 74.9844C100.777 75.0469 100.781 75.1094 100.781 75.1719C100.781 75.3984 100.75 75.625 100.688 75.8516C100.633 76.0781 100.59 76.3047 100.559 76.5312C100.465 76.6172 100.383 76.7109 100.312 76.8125C100.25 76.9141 100.184 77.0078 100.113 77.0938C100.043 77.1797 99.9609 77.2539 99.8672 77.3164C99.7734 77.3867 99.6562 77.4336 99.5156 77.457C99.4922 77.5352 99.4453 77.5938 99.375 77.6328C99.3125 77.6719 99.2578 77.7266 99.2109 77.7969H99.1875C98.9922 77.7969 98.8242 77.7695 98.6836 77.7148C98.543 77.6602 98.4102 77.5977 98.2852 77.5273C98.168 77.457 98.0469 77.3828 97.9219 77.3047C97.7969 77.2266 97.6523 77.1641 97.4883 77.1172C97.2695 76.9375 97.0703 76.7422 96.8906 76.5312C96.7109 76.3125 96.5078 76.1172 96.2812 75.9453C96.2266 75.7891 96.1523 75.6602 96.0586 75.5586C95.9727 75.457 95.8867 75.3398 95.8008 75.207C95.7617 75.1523 95.7305 75.1016 95.707 75.0547C95.6914 75.0078 95.668 74.9531 95.6367 74.8906C95.6133 74.8281 95.5742 74.7852 95.5195 74.7617C95.4727 74.7383 95.4297 74.7109 95.3906 74.6797C95.3281 74.4375 95.2383 74.2148 95.1211 74.0117C95.0039 73.8086 94.8672 73.6133 94.7109 73.4258C94.6641 73.5117 94.625 73.6055 94.5938 73.707C94.5703 73.8008 94.5469 73.8984 94.5234 74C94.5 74.0938 94.4688 74.1914 94.4297 74.293C94.3984 74.3867 94.3555 74.4727 94.3008 74.5508V74.5859C94.3008 74.625 94.3164 74.6484 94.3477 74.6562C94.3789 74.6641 94.3945 74.6875 94.3945 74.7266C94.3945 74.7344 94.3906 74.7422 94.3828 74.75C94.3828 74.7578 94.3828 74.7656 94.3828 74.7734C94.3438 74.8047 94.3125 74.8438 94.2891 74.8906C94.2734 74.9375 94.2344 74.9648 94.1719 74.9727C94.1797 75.0117 94.1836 75.0508 94.1836 75.0898V75.1953C94.1836 75.4219 94.1562 75.6484 94.1016 75.875C94.0547 76.1016 94.0312 76.332 94.0312 76.5664V76.7188C94.0312 76.7734 94.0352 76.8242 94.043 76.8711C94.0586 76.918 94.082 76.9648 94.1133 77.0117C94.1445 77.0586 94.1602 77.1016 94.1602 77.1406C94.1602 77.1953 94.1367 77.2461 94.0898 77.293C94.1445 77.332 94.207 77.375 94.2773 77.4219C94.3477 77.4688 94.4102 77.5195 94.4648 77.5742C94.5273 77.6367 94.5781 77.6992 94.6172 77.7617C94.6562 77.832 94.6758 77.9062 94.6758 77.9844C94.6758 78.1172 94.6328 78.2109 94.5469 78.2656C94.4609 78.3203 94.3555 78.3633 94.2305 78.3945C94.1133 78.4258 93.9883 78.4531 93.8555 78.4766C93.7305 78.5078 93.625 78.5586 93.5391 78.6289H93.5039C93.4102 78.6289 93.3398 78.6016 93.293 78.5469C93.2461 78.4922 93.1758 78.4648 93.082 78.4648C92.9336 78.2227 92.832 77.9492 92.7773 77.6445C92.7227 77.3477 92.6953 77.0625 92.6953 76.7891C92.6953 76.4531 92.7266 76.1172 92.7891 75.7812C92.8438 75.4453 92.9141 75.1133 93 74.7852C93.0781 74.457 93.1641 74.1328 93.2578 73.8125C93.3594 73.4844 93.4531 73.1562 93.5391 72.8281L93.5508 72.793C93.5508 72.7539 93.5391 72.7266 93.5156 72.7109C93.5 72.6953 93.4922 72.6719 93.4922 72.6406C93.4922 72.625 93.4961 72.6172 93.5039 72.6172C93.5273 72.5391 93.5508 72.4648 93.5742 72.3945C93.6055 72.3242 93.6289 72.2461 93.6445 72.1602C93.6914 71.9414 93.7227 71.7188 93.7383 71.4922C93.7617 71.2578 93.7734 71.0273 93.7734 70.8008C93.7812 70.5742 93.7891 70.3477 93.7969 70.1211C93.8125 69.8867 93.8398 69.6562 93.8789 69.4297C93.9414 69.3672 94 69.3008 94.0547 69.2305C94.1094 69.1602 94.1797 69.0977 94.2656 69.043C94.4219 69.0508 94.5781 69.0742 94.7344 69.1133C94.8906 69.1523 95.0391 69.2148 95.1797 69.3008C95.2734 69.6367 95.3359 69.9727 95.3672 70.3086C95.4062 70.6445 95.4688 70.9805 95.5547 71.3164V71.3516C95.5547 71.3906 95.5742 71.4102 95.6133 71.4102C95.6602 71.4023 95.6953 71.4141 95.7188 71.4453C95.7031 71.4688 95.6914 71.4961 95.6836 71.5273C95.6836 71.5586 95.6836 71.5898 95.6836 71.6211V71.8203C95.6992 71.8828 95.7188 71.9492 95.7422 72.0195C95.7656 72.0898 95.8164 72.1328 95.8945 72.1484C95.9336 72.3984 95.9922 72.6289 96.0703 72.8398C96.1484 73.0508 96.2383 73.2539 96.3398 73.4492C96.4414 73.6445 96.5508 73.8398 96.668 74.0352C96.7852 74.2227 96.9062 74.4219 97.0312 74.6328C97.2266 74.7812 97.3945 74.9531 97.5352 75.1484C97.6758 75.3359 97.8164 75.5195 97.957 75.6992C98.1055 75.8711 98.2695 76.0234 98.4492 76.1562C98.6367 76.2891 98.8789 76.3711 99.1758 76.4023C99.2148 76.3711 99.2422 76.3281 99.2578 76.2734L99.3164 76.1094C99.3398 76.0547 99.3633 76.0078 99.3867 75.9688C99.418 75.9219 99.4609 75.8867 99.5156 75.8633C99.5312 75.6445 99.5469 75.4219 99.5625 75.1953C99.5859 74.9688 99.6367 74.7539 99.7148 74.5508C99.6758 74.4805 99.6562 74.3945 99.6562 74.293C99.6562 74.2148 99.6602 74.1406 99.668 74.0703C99.6836 74 99.6914 73.9297 99.6914 73.8594C99.6914 73.7109 99.6602 73.5898 99.5977 73.4961C99.5977 73.4414 99.6016 73.3867 99.6094 73.332C99.6172 73.2695 99.6406 73.2109 99.6797 73.1562C99.6172 73 99.5664 72.8359 99.5273 72.6641C99.4961 72.4922 99.4805 72.3164 99.4805 72.1367C99.4805 72.0352 99.4922 71.9297 99.5156 71.8203C99.4688 71.7031 99.4375 71.5664 99.4219 71.4102L99.375 70.9297C99.3594 70.7656 99.3359 70.6133 99.3047 70.4727C99.2734 70.332 99.2148 70.2188 99.1289 70.1328C99.1758 70.0625 99.1992 69.9805 99.1992 69.8867C99.1992 69.7305 99.1758 69.582 99.1289 69.4414C99.082 69.3008 99.0586 69.1523 99.0586 68.9961C99.0586 68.8867 99.082 68.7773 99.1289 68.668C99.3008 68.6758 99.4688 68.6953 99.6328 68.7266C99.8047 68.75 99.9727 68.7617 100.137 68.7617C100.184 68.8242 100.238 68.875 100.301 68.9141C100.363 68.9531 100.43 68.9922 100.5 69.0312C100.57 69.0625 100.637 69.0977 100.699 69.1367C100.77 69.1758 100.824 69.2305 100.863 69.3008ZM112.125 69.4648C112.094 69.5664 112.043 69.6602 111.973 69.7461L111.773 69.9922C111.711 70.0703 111.656 70.1562 111.609 70.25C111.57 70.3359 111.559 70.4375 111.574 70.5547C111.559 70.5547 111.539 70.5547 111.516 70.5547C111.492 70.5469 111.473 70.543 111.457 70.543C111.332 70.543 111.234 70.5742 111.164 70.6367C111.102 70.6914 111.016 70.7383 110.906 70.7773C110.891 70.7305 110.871 70.6875 110.848 70.6484C110.824 70.6016 110.789 70.5703 110.742 70.5547C110.555 70.5938 110.367 70.625 110.18 70.6484C109.992 70.6641 109.805 70.6875 109.617 70.7188C109.531 70.7344 109.445 70.7578 109.359 70.7891C109.273 70.8125 109.184 70.8359 109.09 70.8594C109.043 70.875 108.992 70.8828 108.938 70.8828C108.883 70.875 108.828 70.875 108.773 70.8828C108.586 70.8906 108.383 70.9062 108.164 70.9297C107.945 70.9453 107.75 71.0039 107.578 71.1055C107.5 71.0898 107.418 71.0781 107.332 71.0703C107.246 71.0625 107.16 71.0586 107.074 71.0586C106.887 71.0586 106.68 71.0781 106.453 71.1172C106.234 71.1484 106.039 71.2148 105.867 71.3164C105.828 71.3008 105.785 71.2891 105.738 71.2812C105.699 71.2734 105.652 71.2695 105.598 71.2695C105.582 71.2695 105.57 71.2734 105.562 71.2812C105.555 71.2812 105.543 71.2812 105.527 71.2812C105.52 71.3516 105.527 71.4219 105.551 71.4922C105.582 71.5547 105.633 71.6055 105.703 71.6445C105.672 71.7305 105.656 71.8242 105.656 71.9258C105.656 72.0586 105.664 72.1914 105.68 72.3242C105.703 72.457 105.715 72.5898 105.715 72.7227C105.715 72.8711 105.695 72.9883 105.656 73.0742C105.734 73.3086 105.773 73.5586 105.773 73.8242C105.773 73.918 105.766 74.0117 105.75 74.1055C105.742 74.1914 105.738 74.2852 105.738 74.3867C105.738 74.4727 105.77 74.543 105.832 74.5977C105.895 74.6445 105.926 74.7109 105.926 74.7969C105.926 74.8281 105.918 74.8594 105.902 74.8906C106.012 74.8672 106.117 74.8359 106.219 74.7969C106.32 74.75 106.426 74.7266 106.535 74.7266C106.598 74.7266 106.656 74.7383 106.711 74.7617C106.773 74.7852 106.828 74.8164 106.875 74.8555C106.867 74.8945 106.859 74.9375 106.852 74.9844C106.852 75.0312 106.852 75.0781 106.852 75.125C106.852 75.2109 106.852 75.293 106.852 75.3711C106.859 75.4414 106.867 75.5195 106.875 75.6055C106.812 75.7148 106.738 75.8125 106.652 75.8984C106.574 75.9844 106.52 76.0938 106.488 76.2266C106.371 76.2266 106.266 76.2539 106.172 76.3086C106.086 76.3555 106.004 76.4102 105.926 76.4727C105.848 76.5273 105.77 76.582 105.691 76.6367C105.613 76.6836 105.527 76.707 105.434 76.707C105.316 76.707 105.234 76.6914 105.188 76.6602C105.141 76.6211 105.105 76.582 105.082 76.543C105.059 76.5039 105.035 76.4688 105.012 76.4375C104.996 76.4062 104.957 76.3945 104.895 76.4023C104.879 76.3008 104.848 76.207 104.801 76.1211C104.754 76.0273 104.703 75.9375 104.648 75.8516C104.602 75.7656 104.551 75.6797 104.496 75.5938C104.449 75.5 104.414 75.4062 104.391 75.3125C104.344 75.1094 104.324 74.8984 104.332 74.6797C104.34 74.4609 104.305 74.25 104.227 74.0469C104.242 73.9375 104.254 73.8281 104.262 73.7188C104.27 73.6016 104.273 73.4883 104.273 73.3789C104.273 73.1602 104.266 72.9453 104.25 72.7344C104.242 72.5156 104.234 72.293 104.227 72.0664C104.172 71.9961 104.137 71.918 104.121 71.832C104.113 71.7383 104.105 71.6484 104.098 71.5625C104.074 71.5391 104.047 71.5156 104.016 71.4922C103.992 71.4688 103.977 71.4375 103.969 71.3984C103.906 71.3828 103.859 71.375 103.828 71.375C103.719 71.375 103.625 71.4023 103.547 71.457C103.477 71.5039 103.41 71.5273 103.348 71.5273C103.285 71.5273 103.227 71.5195 103.172 71.5039C103.117 71.4883 103.062 71.4805 103.008 71.4805C102.961 71.4805 102.934 71.4922 102.926 71.5156C102.926 71.5312 102.91 71.5469 102.879 71.5625C102.855 71.5781 102.801 71.5938 102.715 71.6094C102.629 71.625 102.531 71.6406 102.422 71.6562C102.32 71.6641 102.219 71.6719 102.117 71.6797C102.023 71.6875 101.961 71.6914 101.93 71.6914C101.805 71.6914 101.711 71.668 101.648 71.6211C101.578 71.5664 101.496 71.5078 101.402 71.4453C101.418 71.3984 101.426 71.3672 101.426 71.3516C101.426 71.2734 101.402 71.2109 101.355 71.1641C101.309 71.1094 101.285 71.0625 101.285 71.0234C101.285 70.9375 101.32 70.8711 101.391 70.8242C101.453 70.7773 101.488 70.7031 101.496 70.6016C101.676 70.5234 101.859 70.4648 102.047 70.4258C102.234 70.3867 102.426 70.3555 102.621 70.332C102.816 70.3086 103.008 70.2812 103.195 70.25C103.391 70.2188 103.582 70.168 103.77 70.0977C103.824 70.1055 103.875 70.1133 103.922 70.1211C103.977 70.1211 104.031 70.1211 104.086 70.1211C104.32 70.1211 104.551 70.0977 104.777 70.0508C105.012 69.9961 105.25 69.9688 105.492 69.9688C105.555 69.9688 105.617 69.9727 105.68 69.9805C105.742 69.9883 105.805 70 105.867 70.0156C106.18 69.9688 106.488 69.918 106.793 69.8633C107.105 69.8086 107.426 69.7617 107.754 69.7227C107.91 69.707 108.062 69.6953 108.211 69.6875C108.367 69.6719 108.523 69.6523 108.68 69.6289C108.734 69.6211 108.773 69.6094 108.797 69.5938C108.828 69.5703 108.844 69.5273 108.844 69.4648C108.914 69.4961 108.992 69.5117 109.078 69.5117C109.211 69.5117 109.34 69.4883 109.465 69.4414C109.59 69.3945 109.719 69.3711 109.852 69.3711C109.883 69.3711 109.91 69.375 109.934 69.3828C109.957 69.3828 109.98 69.3828 110.004 69.3828C110.059 69.3828 110.086 69.3594 110.086 69.3125C110.094 69.2578 110.133 69.2227 110.203 69.207C110.258 69.1914 110.336 69.1797 110.438 69.1719C110.539 69.1641 110.645 69.1562 110.754 69.1484C110.871 69.1328 110.977 69.1172 111.07 69.1016C111.172 69.0781 111.246 69.0469 111.293 69.0078L111.375 68.8789C111.516 68.8867 111.617 68.9492 111.68 69.0664C111.75 69.1758 111.789 69.2969 111.797 69.4297C111.828 69.4609 111.871 69.4766 111.926 69.4766C111.988 69.4688 112.043 69.4648 112.09 69.4648H112.125Z" fill="#FFFEFE"/>
</svg>
