<svg width="142" height="73" viewBox="0 0 142 73" fill="none" xmlns="http://www.w3.org/2000/svg">
<path fill-rule="evenodd" clip-rule="evenodd" d="M54.6629 6.52263C54.6808 6.58722 54.88 6.60728 55.1055 6.5673C55.4629 6.50386 55.5516 6.42965 55.7973 5.98895C55.9524 5.71091 56.1069 5.49905 56.141 5.51803C56.175 5.53716 56.239 5.48769 56.2832 5.40831C56.3276 5.3288 56.4828 5.1968 56.6283 5.11488C56.876 4.97525 56.8854 4.95786 56.7759 4.84206C56.6235 4.68076 56.9613 4.26734 57.4574 4.00809C57.6555 3.9046 57.8658 3.73334 57.9247 3.62768C57.9836 3.52202 58.1295 3.39119 58.249 3.33681C58.5282 3.20981 58.7093 2.88677 58.5509 2.79841C58.481 2.75947 58.7375 2.56116 59.1484 2.33653C59.8865 1.93294 60.127 1.88385 59.8439 2.19437C59.7327 2.31628 59.7369 2.3997 59.8574 2.46692C59.953 2.5202 59.9906 2.63657 59.941 2.72551C59.8709 2.85126 59.8929 2.86354 60.0399 2.78069C60.1439 2.72208 60.2847 2.70517 60.3527 2.7431C60.4489 2.79675 60.4343 2.83577 60.2873 2.91861C60.0211 3.06859 59.8034 3.49683 59.9513 3.57932C60.0193 3.61725 60.0422 3.70704 60.0021 3.77887C59.9621 3.85057 59.8939 3.84466 59.8505 3.76551C59.807 3.68649 59.6166 3.64004 59.4273 3.6624C58.9898 3.71417 58.5864 4.20072 58.6404 4.61143C58.6772 4.8913 58.6686 4.90698 58.3952 5.05896C58.2392 5.14565 58.096 5.16051 58.077 5.09198C58.0163 4.87417 57.8702 5.26165 57.8431 5.71239C57.8286 5.95151 57.7876 6.1995 57.7518 6.26365C57.7161 6.3278 57.6126 6.33885 57.5219 6.28827C57.3814 6.20993 57.3069 6.28621 57.0189 6.80279C56.8329 7.13636 56.7089 7.42499 56.7432 7.44416C56.7777 7.46338 56.7835 7.63391 56.756 7.82321C56.7198 8.07418 56.6944 8.12434 56.6622 8.00884C56.6282 7.88728 56.5561 7.99724 56.3526 8.48023C56.2066 8.82674 55.9023 9.42451 55.6762 9.80854C55.4297 10.2274 55.3 10.5263 55.3524 10.5555C55.4003 10.5822 55.3739 10.7218 55.2937 10.8657C55.2134 11.0097 55.1642 11.1865 55.1844 11.2587C55.2045 11.331 55.1682 11.4346 55.1036 11.4891C55.039 11.5435 55.0277 11.6112 55.0784 11.6395C55.1327 11.6698 55.1046 11.7448 55.0099 11.8222C54.739 12.0436 54.4752 12.6064 54.4872 12.9374C54.494 13.1237 54.4249 13.3327 54.3176 13.4504C54.185 13.5957 54.1817 13.6468 54.3053 13.6404C54.4337 13.6337 54.4233 13.7023 54.2615 13.9264C54.1274 14.1122 54.0502 14.3693 54.0526 14.6221C54.0546 14.8426 53.9917 15.1389 53.9129 15.2802C53.8341 15.4216 53.6451 15.8975 53.493 16.3378C53.3008 16.8939 53.2583 17.1626 53.3537 17.2175C53.4563 17.2769 53.4486 17.3097 53.3232 17.3477C53.1244 17.4082 52.9224 18.0069 52.9712 18.391C52.9883 18.5251 52.9362 18.7072 52.8555 18.7958C52.7749 18.8842 52.7203 19.2417 52.7344 19.5902C52.7507 19.993 52.6965 20.3044 52.5856 20.4451C52.4897 20.5669 52.413 20.8425 52.4149 21.0577C52.4169 21.2729 52.3731 21.5305 52.3177 21.63C52.1907 21.8577 51.9286 23.7881 51.9469 24.3608C51.9544 24.597 51.9314 24.8425 51.8957 24.9065C51.86 24.9705 51.8366 25.1681 51.8438 25.3458C51.851 25.5233 51.8363 25.9524 51.8112 26.2993C51.7862 26.6462 51.8344 26.9684 51.9182 27.0152C52.0154 27.0694 52.0163 27.16 51.9205 27.265C51.7242 27.4803 51.7903 29.6418 52.0068 30.0862C52.1 30.2773 52.1155 30.5212 52.0429 30.6514C51.8819 30.9402 51.9888 31.4715 52.2355 31.6091C52.3388 31.6667 52.389 31.7753 52.3471 31.8505C52.2063 32.1029 52.3602 33.0808 52.5775 33.3138C52.6958 33.4407 52.7635 33.6461 52.7281 33.7704C52.6813 33.9342 52.745 34.0097 52.9605 34.0452C53.2051 34.0857 53.2277 34.1269 53.0887 34.2794C52.9795 34.3991 52.9653 34.4896 53.0484 34.5359C53.1191 34.5753 53.159 34.7092 53.1372 34.8336C53.1154 34.9579 53.1601 35.122 53.2365 35.1982C53.3129 35.2744 53.3822 35.4399 53.3904 35.5659C53.3987 35.692 53.4585 35.8247 53.5232 35.8608C53.588 35.8969 53.6052 35.9908 53.5615 36.0692C53.5165 36.1499 53.5523 36.1909 53.6439 36.1637C53.9443 36.0744 54.212 36.489 54.4703 37.4438C54.5351 37.6837 54.7343 37.9287 54.9841 38.0759C55.2265 38.2187 55.4559 38.4954 55.5494 38.7574C55.7234 39.2451 56.1099 39.5224 56.584 39.5001C56.8012 39.4897 56.8792 39.5329 56.844 39.6436C56.8089 39.7543 56.8668 39.7862 57.0371 39.75C57.2103 39.7131 57.288 39.7585 57.3071 39.908C57.3269 40.0641 57.3932 40.0845 57.5654 39.9874C57.7384 39.8901 57.7993 39.909 57.8055 40.0621C57.8116 40.2154 57.8364 40.2269 57.903 40.1073C57.9522 40.0192 58.1624 39.9911 58.3702 40.0449C58.5982 40.1038 58.789 40.0692 58.8512 39.9576C58.9233 39.8283 59.0659 39.8349 59.3253 39.9796C59.6247 40.1465 59.7213 40.1406 59.8252 39.9492C60.0052 39.6179 60.041 39.052 59.8695 39.2517C59.7889 39.3455 59.6304 39.326 59.4545 39.2009C59.298 39.0896 59.135 39.0609 59.0924 39.1375C58.9877 39.3252 58.3103 38.9332 58.1596 38.5976C58.0634 38.3831 57.9593 38.341 57.6504 38.3912C57.3866 38.434 57.2704 38.3984 57.288 38.2801C57.3022 38.1843 57.2562 38.1226 57.1857 38.143C57.1154 38.1633 57.0042 37.9458 56.9386 37.6596C56.8378 37.2192 56.7756 37.1451 56.5335 37.177C56.2951 37.2086 56.2738 37.1859 56.4057 37.0412C56.5495 36.8836 56.4755 36.5854 56.2449 36.3936C56.2043 36.3598 56.1056 36.2039 56.0258 36.0471C55.9459 35.8902 55.8304 35.7339 55.7691 35.6997C55.7078 35.6655 55.6811 35.5512 55.7097 35.4457C55.7498 35.2985 55.7248 35.2822 55.6021 35.3757C55.4884 35.4624 55.437 35.3185 55.4235 34.8755C55.4107 34.4525 55.3427 34.2517 55.2111 34.2477C55.0963 34.2443 55.0071 34.0953 54.9916 33.8811C54.9506 33.3155 54.6612 33.092 54.2988 33.3459C54.0354 33.5304 54.0105 33.5273 54.1221 33.3236C54.1934 33.1934 54.1954 33.0553 54.1265 33.0169C54.0341 32.9654 54.064 32.8664 54.2409 32.639C54.3863 32.4521 54.4482 32.3043 54.3985 32.2631C54.3534 32.2258 54.2878 32.1595 54.2529 32.1157C54.2179 32.0718 54.1563 32.0077 54.1161 31.9732C54.076 31.9386 54.0938 31.8194 54.1558 31.7082C54.2178 31.597 54.2292 31.4841 54.1812 31.4573C54.1332 31.4306 54.084 31.4752 54.0719 31.5566C54.06 31.638 53.9954 31.6339 53.9287 31.5476C53.862 31.4613 53.8613 31.3293 53.9271 31.254C54.0781 31.0818 54.1189 30.5786 53.9935 30.436C53.9413 30.3766 53.91 30.1888 53.9238 30.0187C53.9419 29.7958 53.8765 29.7007 53.6894 29.6783C53.4767 29.6528 53.4656 29.6231 53.6276 29.5142C53.7842 29.4087 53.8241 29.1525 53.8194 28.2831C53.8163 27.6792 53.767 27.1599 53.7098 27.1291C53.6528 27.0982 53.6333 27.024 53.6667 26.9642C53.7633 26.7909 53.7216 25.1939 53.6188 25.1366C53.5676 25.1081 53.5186 24.9079 53.5099 24.6918C53.4994 24.4317 53.5228 24.3515 53.5794 24.4544C53.7317 24.7321 53.9367 24.3254 53.9307 23.7575C53.9274 23.4529 53.9656 23.0438 54.0156 22.8485C54.1504 22.3224 54.2063 21.8605 54.1577 21.6739C54.1341 21.583 54.1722 21.4054 54.2425 21.2794C54.3126 21.1534 54.3756 20.8224 54.3825 20.5437C54.3892 20.2651 54.4571 19.9254 54.5334 19.7886C54.6096 19.652 54.6163 19.5091 54.5483 19.4712C54.4702 19.4276 54.4964 19.2735 54.6197 19.0523C54.727 18.86 54.8492 18.5107 54.8911 18.2761C54.9331 18.0416 55.0549 17.521 55.1619 17.119C55.2689 16.717 55.318 16.3668 55.2711 16.3406C55.2241 16.3144 55.2497 16.1781 55.3279 16.0378C55.4062 15.8976 55.4344 15.7176 55.3907 15.6379C55.3469 15.5582 55.3768 15.4209 55.457 15.333C55.5372 15.245 55.6568 14.9854 55.7228 14.7559C55.8179 14.4255 55.7955 14.333 55.6154 14.3107C55.4904 14.295 55.4539 14.2735 55.5343 14.2625C55.7089 14.2388 55.9746 13.7954 55.9237 13.6126C55.9039 13.5415 55.9588 13.3488 56.0458 13.1844C56.1328 13.0201 56.143 12.9508 56.0685 13.0308C55.8797 13.2331 55.758 13.1344 55.8945 12.8896C55.9565 12.7784 55.9713 12.6674 55.9273 12.6429C55.8835 12.6185 55.9196 12.5194 56.0077 12.4227C56.196 12.2161 56.4374 12.3037 56.3099 12.5324C56.2617 12.6188 56.2691 12.6632 56.3263 12.631C56.3836 12.5987 56.4309 12.4131 56.4316 12.2184C56.4321 12.0182 56.4739 11.8876 56.5278 11.9177C56.6445 11.9828 56.9287 11.4974 56.8788 11.3183C56.859 11.2472 56.9084 11.0714 56.9886 10.9275C57.0963 10.7345 57.0766 10.6299 56.9137 10.5288L56.6929 10.3917L56.9795 10.3827C57.2104 10.3753 57.2955 10.3025 57.4173 10.0079C57.5006 9.80679 57.5358 9.58242 57.4956 9.50912C57.4554 9.43601 57.4723 9.33427 57.5329 9.2831C57.5935 9.23193 57.6714 9.04515 57.7059 8.86806C57.7489 8.64715 57.7958 8.56111 57.855 8.59412C57.9616 8.65362 58.4855 7.49537 58.4381 7.30479C58.4202 7.23279 58.4774 7.11329 58.5652 7.03913C58.668 6.95246 58.673 6.91953 58.5792 6.94671C58.3846 7.00307 59.1951 5.67833 59.4394 5.5407C59.6931 5.39774 59.9366 4.92571 59.7516 4.93528C59.6451 4.94074 59.6675 4.82989 59.8282 4.55557C59.9531 4.34251 60.0987 4.19226 60.1518 4.22151C60.2049 4.25093 60.3216 4.27114 60.411 4.26659C60.5205 4.26089 60.5273 4.4092 60.4317 4.71984C60.2787 5.21688 60.3228 5.32025 60.6174 5.15429C60.7617 5.07296 60.7621 5.15282 60.6188 5.50455C60.5166 5.75518 60.4437 6.03976 60.4568 6.13682C60.4983 6.44867 61.363 6.95951 61.4835 6.74347C61.6089 6.51853 61.3109 5.96414 61.0923 6.01575C60.8234 6.07943 60.9296 5.90228 61.229 5.78777C61.4504 5.70307 61.4716 5.66209 61.5788 5.11198C61.6565 4.71377 61.6327 4.46054 61.5044 4.32084C61.3894 4.19559 61.3686 4.05762 61.4509 3.96732C61.6251 3.77629 61.4073 3.48914 61.1839 3.61505C60.9784 3.73084 60.9952 3.24376 61.2157 2.69427C61.3935 2.25118 61.195 1.7059 60.9042 1.83825C60.7616 1.90307 60.7345 1.88406 60.8005 1.76573C60.8543 1.6691 60.809 1.60298 60.6862 1.5992C60.5741 1.59589 60.4939 1.51669 60.5077 1.42332C60.5473 1.15672 60.3256 1.10676 60.2039 1.35481C60.0767 1.61424 59.6505 1.78528 59.6422 1.58013C59.6392 1.50367 59.7226 1.41523 59.8278 1.38342C59.9653 1.3419 59.9895 1.3084 59.9138 1.26425C59.6916 1.13465 58.9799 1.53164 58.6174 1.98728C58.4032 2.2567 58.1967 2.42424 58.1269 2.3853C57.9931 2.31072 57.8466 2.50569 57.898 2.68998C57.9161 2.75502 57.9921 2.74248 58.067 2.66218C58.1595 2.56304 58.1684 2.58336 58.0949 2.7256C58.0353 2.84092 57.8536 3.03771 57.6912 3.16305C57.5025 3.30886 57.4298 3.41 57.4899 3.44352C57.5416 3.47234 57.5254 3.56262 57.4539 3.64431C57.3824 3.72581 57.2766 3.74546 57.2189 3.68767C57.0921 3.56077 56.8667 3.70979 56.4449 4.19931C56.1866 4.4991 56.1378 4.6078 56.1798 4.79196C56.2253 4.99259 56.2117 5.008 56.0575 4.93119C55.7103 4.75845 55.2237 5.27526 55.2844 5.75221C55.3118 5.96712 55.2768 6.01723 54.9727 6.19977C54.7843 6.31274 54.6448 6.45813 54.6629 6.52263ZM54.5824 7.27405C54.5634 7.41077 54.6 7.45539 54.6777 7.38989C54.7473 7.33117 54.768 7.21764 54.724 7.13726C54.6314 6.96864 54.6242 6.97561 54.5824 7.27405ZM57.7864 7.02549C57.8223 7.09446 57.7588 7.09917 57.6455 7.03595C57.5321 6.97273 57.5028 6.9163 57.5803 6.91055C57.6579 6.90472 57.7506 6.95644 57.7864 7.02549ZM57.0298 9.40487C57.0321 9.46054 56.9443 9.51037 56.8348 9.51571C56.6765 9.52324 56.6756 9.50259 56.8307 9.41449C56.9381 9.35353 57.0277 9.34925 57.0298 9.40487ZM55.249 14.1442C55.2932 14.2248 55.3161 14.3146 55.2998 14.3437C55.2836 14.3728 55.2146 14.3657 55.1466 14.3277C55.0786 14.2898 55.0557 14.2 55.0958 14.1282C55.1357 14.0565 55.2047 14.0637 55.249 14.1442ZM55.7056 13.4587C55.7473 13.5383 55.71 13.5594 55.6103 13.5123C55.5202 13.4696 55.4893 13.4107 55.5416 13.3812C55.5939 13.3517 55.6678 13.3865 55.7056 13.4587ZM56.1644 37.374C56.3578 37.3758 56.1713 37.637 55.9689 37.6475C55.8607 37.6531 55.8397 37.6019 55.9147 37.5146C55.9818 37.4367 56.0941 37.3733 56.1644 37.374Z" fill="#FFFEFE"/>
<path d="M13.4375 51.832C13.375 51.8711 13.3086 51.8945 13.2383 51.9023C13.168 51.9102 13.0938 51.9219 13.0156 51.9375C12.9453 51.9453 12.8789 51.9609 12.8164 51.9844C12.7539 52.0078 12.707 52.0508 12.6758 52.1133C12.5977 52.0352 12.5117 51.9688 12.418 51.9141C12.3242 51.8594 12.2305 51.8008 12.1367 51.7383C12.0586 51.7617 11.9805 51.793 11.9023 51.832C11.8242 51.8711 11.7461 51.8906 11.668 51.8906C11.6133 51.8906 11.5586 51.8711 11.5039 51.832C11.4414 51.8789 11.3672 51.918 11.2812 51.9492C11.2031 51.9727 11.1172 51.9961 11.0234 52.0195C10.9375 52.043 10.8555 52.0742 10.7773 52.1133C10.707 52.1523 10.6562 52.2109 10.625 52.2891C10.6094 52.25 10.5703 52.2383 10.5078 52.2539C10.4531 52.2695 10.4219 52.25 10.4141 52.1953C10.1641 52.2812 9.91016 52.3555 9.65234 52.418C9.39453 52.4805 9.13672 52.5469 8.87891 52.6172C8.62109 52.6875 8.36719 52.7656 8.11719 52.8516C7.86719 52.9375 7.625 53.043 7.39062 53.168C7.38281 53.1758 7.37891 53.1875 7.37891 53.2031C7.37891 53.2812 7.39062 53.3555 7.41406 53.4258C7.4375 53.4961 7.45703 53.5625 7.47266 53.625C7.33203 54.1016 7.23828 54.5859 7.19141 55.0781C7.14453 55.5703 7.08203 56.0547 7.00391 56.5312V56.5781C7.00391 56.6172 7.01953 56.6484 7.05078 56.6719C7.08203 56.6875 7.09766 56.7188 7.09766 56.7656L7.08594 56.7891C7.04688 56.8125 7.01953 56.8477 7.00391 56.8945C6.98828 56.9336 6.98047 56.9766 6.98047 57.0234C6.98047 57.0547 6.98828 57.1016 7.00391 57.1641C6.87109 57.6094 6.78125 58.0625 6.73438 58.5234C6.69531 58.9844 6.64453 59.4453 6.58203 59.9062L6.47656 60.6797C6.46094 60.7266 6.44531 60.7734 6.42969 60.8203C6.42188 60.8594 6.41797 60.9023 6.41797 60.9492C6.41797 61.1992 6.43359 61.4453 6.46484 61.6875C6.50391 61.9219 6.51562 62.1641 6.5 62.4141C6.57031 62.5234 6.60547 62.6289 6.60547 62.7305C6.60547 62.7695 6.60156 62.8086 6.59375 62.8477C6.59375 62.8867 6.58984 62.9258 6.58203 62.9648C6.68359 63.0664 6.80078 63.1367 6.93359 63.1758C7.07422 63.2227 7.19922 63.293 7.30859 63.3867V63.4336C7.30859 63.5117 7.29688 63.5859 7.27344 63.6562C7.25 63.7344 7.23047 63.8125 7.21484 63.8906C7.19922 63.9531 7.17969 64.043 7.15625 64.1602C7.14062 64.2773 7.11719 64.3555 7.08594 64.3945C7.04688 64.4492 6.98828 64.4961 6.91016 64.5352C6.83984 64.582 6.76953 64.6055 6.69922 64.6055C6.67578 64.6055 6.64062 64.5938 6.59375 64.5703C6.55469 64.5469 6.52344 64.5273 6.5 64.5117C6.46094 64.5117 6.41016 64.5312 6.34766 64.5703C6.28516 64.6094 6.22266 64.6289 6.16016 64.6289C6.12891 64.6289 6.10156 64.625 6.07812 64.6172C6.05469 64.6172 6.02734 64.6094 5.99609 64.5938C5.96484 64.5156 5.91797 64.4453 5.85547 64.3828C5.80078 64.3281 5.73438 64.2734 5.65625 64.2188C5.66406 64.1094 5.64453 64.0273 5.59766 63.9727C5.55078 63.918 5.50391 63.8477 5.45703 63.7617C5.44141 63.6523 5.42578 63.5273 5.41016 63.3867C5.40234 63.2461 5.34375 63.1445 5.23438 63.082C5.27344 63.0273 5.29297 62.9531 5.29297 62.8594C5.29297 62.8203 5.28516 62.7773 5.26953 62.7305C5.26172 62.6836 5.23828 62.6484 5.19922 62.625V62.6016C5.19141 62.5625 5.20312 62.5352 5.23438 62.5195C5.27344 62.4961 5.29297 62.4648 5.29297 62.4258V62.3789C5.23828 62.1289 5.21094 61.8672 5.21094 61.5938C5.21094 61.3359 5.21875 61.082 5.23438 60.832C5.25 60.5742 5.25 60.3164 5.23438 60.0586C5.28125 60.0195 5.31641 59.957 5.33984 59.8711C5.37109 59.7852 5.39453 59.6914 5.41016 59.5898C5.42578 59.4883 5.43359 59.3906 5.43359 59.2969C5.44141 59.1953 5.44922 59.1133 5.45703 59.0508C5.49609 58.6055 5.55859 58.168 5.64453 57.7383C5.73047 57.3008 5.78125 56.8555 5.79688 56.4023C5.83594 56.3398 5.85938 56.2578 5.86719 56.1562C5.875 56.0547 5.87891 55.9492 5.87891 55.8398C5.87891 55.7227 5.88672 55.6094 5.90234 55.5C5.91797 55.3906 5.94922 55.2969 5.99609 55.2188C5.99609 55 6.01562 54.7812 6.05469 54.5625C6.09375 54.3359 6.11328 54.1094 6.11328 53.8828C6.11328 53.7734 6.10156 53.6602 6.07812 53.543C6 53.5117 5.92969 53.4961 5.86719 53.4961C5.78125 53.4961 5.69141 53.5156 5.59766 53.5547C5.51172 53.5859 5.44922 53.6367 5.41016 53.707C5.23828 53.7148 5.07031 53.7422 4.90625 53.7891C4.74219 53.8359 4.57812 53.8594 4.41406 53.8594H4.29688C4.26562 53.8594 4.23047 53.8555 4.19141 53.8477C4.13672 53.8711 4.07812 53.8906 4.01562 53.9062C3.96094 53.9219 3.9375 53.9688 3.94531 54.0469C3.70312 54.0703 3.46484 54.1211 3.23047 54.1992C3.00391 54.2773 2.77734 54.3633 2.55078 54.457C2.32422 54.543 2.09766 54.625 1.87109 54.7031C1.63672 54.7812 1.39844 54.832 1.15625 54.8555C1.07031 54.8945 1.01562 54.9766 0.992188 55.1016C0.820312 55.0859 0.675781 55.043 0.558594 54.9727C0.441406 54.9023 0.304688 54.8359 0.148438 54.7734C0.101562 54.6094 0.078125 54.4531 0.078125 54.3047C0.078125 54.1094 0.117188 53.9219 0.195312 53.7422C0.273438 53.5625 0.398438 53.4297 0.570312 53.3438C0.609375 53.3516 0.644531 53.3594 0.675781 53.3672C0.707031 53.3672 0.742188 53.3672 0.78125 53.3672C0.90625 53.3672 1.03125 53.3438 1.15625 53.2969C1.28125 53.25 1.41016 53.2266 1.54297 53.2266C1.58203 53.2266 1.625 53.2383 1.67188 53.2617C1.72656 53.2305 1.79688 53.207 1.88281 53.1914C1.96094 53.168 2.03516 53.1484 2.10547 53.1328C2.18359 53.1094 2.25391 53.0781 2.31641 53.0391C2.37891 53 2.41797 52.9453 2.43359 52.875C2.47266 52.9062 2.51562 52.9258 2.5625 52.9336C2.60938 52.9414 2.65625 52.9453 2.70312 52.9453C2.80469 52.9453 2.91016 52.9258 3.01953 52.8867C3.12891 52.8477 3.21484 52.7852 3.27734 52.6992C3.33203 52.7617 3.41016 52.793 3.51172 52.793C3.62109 52.793 3.72656 52.7656 3.82812 52.7109C3.9375 52.6484 4.04297 52.6172 4.14453 52.6172C4.22266 52.6172 4.28125 52.6445 4.32031 52.6992C4.40625 52.6289 4.50781 52.5742 4.625 52.5352C4.74219 52.4961 4.85938 52.4609 4.97656 52.4297C5.10156 52.3984 5.21484 52.3633 5.31641 52.3242C5.42578 52.2852 5.51172 52.2305 5.57422 52.1602C5.61328 52.168 5.67578 52.1719 5.76172 52.1719C5.89453 52.1719 6.01953 52.1562 6.13672 52.125C6.26172 52.0859 6.38672 52.0508 6.51172 52.0195L6.75781 51.9961C6.82031 51.9883 6.875 51.9688 6.92188 51.9375C6.97656 51.9062 7.03125 51.8789 7.08594 51.8555C7.14062 51.832 7.19531 51.8125 7.25 51.7969C7.3125 51.7812 7.38672 51.7773 7.47266 51.7852C7.66016 51.6836 7.85938 51.6055 8.07031 51.5508C8.28125 51.4961 8.49609 51.4492 8.71484 51.4102C8.93359 51.3633 9.14844 51.3125 9.35938 51.2578C9.57031 51.1953 9.76953 51.1055 9.95703 50.9883H9.99219C10.1484 50.9883 10.3008 50.9609 10.4492 50.9062C10.6055 50.8516 10.75 50.7773 10.8828 50.6836C10.9062 50.6914 10.9297 50.6953 10.9531 50.6953H11.0352C11.2539 50.6953 11.4648 50.6641 11.668 50.6016C11.8789 50.5391 12.0977 50.5078 12.3242 50.5078C12.457 50.5078 12.5625 50.5273 12.6406 50.5664C12.7188 50.5977 12.7891 50.6406 12.8516 50.6953C12.9141 50.7422 12.9805 50.7891 13.0508 50.8359C13.1211 50.8828 13.2109 50.918 13.3203 50.9414C13.3906 51.0742 13.4258 51.2188 13.4258 51.375C13.4258 51.5234 13.4297 51.6758 13.4375 51.832ZM24.8516 60.9609C24.8359 61.0781 24.793 61.168 24.7227 61.2305C24.6602 61.293 24.5859 61.3516 24.5 61.4062C24.4609 61.3984 24.4219 61.3945 24.3828 61.3945C24.3516 61.3867 24.3164 61.3828 24.2773 61.3828C24.0352 61.375 23.8047 61.4062 23.5859 61.4766C23.375 61.5469 23.1562 61.5977 22.9297 61.6289C22.8516 61.6445 22.7773 61.6523 22.707 61.6523C22.6445 61.6445 22.5781 61.6484 22.5078 61.6641C22.2578 61.7031 21.9922 61.7344 21.7109 61.7578C21.4297 61.7812 21.1484 61.8125 20.8672 61.8516C20.5859 61.8828 20.3086 61.9258 20.0352 61.9805C19.7695 62.0273 19.5195 62.0977 19.2852 62.1914C19.2617 62.1758 19.2383 62.1602 19.2148 62.1445C19.1914 62.1211 19.1641 62.1094 19.1328 62.1094C19.0547 62.1094 18.9805 62.1211 18.9102 62.1445C18.8398 62.168 18.7695 62.1758 18.6992 62.168C18.6211 62.2148 18.5352 62.25 18.4414 62.2734C18.3555 62.2891 18.2656 62.3047 18.1719 62.3203C18.0859 62.3281 18 62.3438 17.9141 62.3672C17.8281 62.3906 17.7461 62.4336 17.668 62.4961C17.6055 62.4648 17.5273 62.4492 17.4336 62.4492C17.3477 62.4414 17.2891 62.4102 17.2578 62.3555C17.0781 62.4414 16.8867 62.4961 16.6836 62.5195C16.4883 62.543 16.2891 62.5508 16.0859 62.543C15.9531 62.5352 15.8008 62.5156 15.6289 62.4844C15.457 62.4531 15.2852 62.4102 15.1133 62.3555C14.9414 62.293 14.7812 62.2227 14.6328 62.1445C14.4844 62.0586 14.3711 61.957 14.293 61.8398C14.2383 61.7617 14.1992 61.6758 14.1758 61.582C14.1523 61.4883 14.0977 61.418 14.0117 61.3711C14.0352 61.1914 14.0625 61.0156 14.0938 60.8438C14.125 60.6719 14.1562 60.4961 14.1875 60.3164C14.3438 60.1836 14.4922 60.043 14.6328 59.8945C14.7734 59.7461 14.9062 59.5898 15.0312 59.4258C15.1797 59.3555 15.3164 59.2695 15.4414 59.168C15.5742 59.0664 15.7031 58.9648 15.8281 58.8633C15.9609 58.7539 16.0898 58.6484 16.2148 58.5469C16.3477 58.4453 16.4883 58.3555 16.6367 58.2773C16.6602 58.2227 16.6914 58.1797 16.7305 58.1484C16.7773 58.1094 16.8242 58.0742 16.8711 58.043C16.918 58.0039 16.9609 57.9648 17 57.9258C17.0391 57.8789 17.0664 57.8242 17.082 57.7617C17.3555 57.5977 17.5938 57.3906 17.7969 57.1406C18 56.8906 18.1328 56.6094 18.1953 56.2969C18.0625 56.1875 17.9102 56.1172 17.7383 56.0859C17.5742 56.0469 17.4023 56.0195 17.2227 56.0039C17.0664 55.9961 16.9023 55.9961 16.7305 56.0039C16.5664 56.0117 16.3984 56.0078 16.2266 55.9922C16.0547 56.0469 15.875 56.082 15.6875 56.0977C15.5078 56.1133 15.3281 56.1289 15.1484 56.1445C14.9688 56.1523 14.7891 56.1758 14.6094 56.2148C14.4375 56.2461 14.2695 56.3086 14.1055 56.4023C14.0742 56.4023 14.043 56.3984 14.0117 56.3906C13.9883 56.3828 13.9609 56.3789 13.9297 56.3789C13.6797 56.3711 13.4453 56.4219 13.2266 56.5312C13.0078 56.6328 12.793 56.7344 12.582 56.8359C12.5664 56.8672 12.5586 56.8906 12.5586 56.9062C12.5586 56.9531 12.5664 57 12.582 57.0469C12.6055 57.0859 12.6172 57.1289 12.6172 57.1758C12.6094 57.1836 12.6055 57.1914 12.6055 57.1992C12.6055 57.207 12.6016 57.2148 12.5938 57.2227C12.5859 57.2617 12.5742 57.2969 12.5586 57.3281C12.5508 57.3594 12.5391 57.3945 12.5234 57.4336C12.4375 57.6836 12.3906 57.9297 12.3828 58.1719C12.375 58.375 12.375 58.5742 12.3828 58.7695C12.3906 58.9648 12.3906 59.1641 12.3828 59.3672C12.3672 59.6172 12.3281 59.8516 12.2656 60.0703C12.3047 60.2578 12.3398 60.457 12.3711 60.668C12.4023 60.8711 12.4414 61.0742 12.4883 61.2773C12.5352 61.4805 12.5898 61.6797 12.6523 61.875C12.7227 62.0625 12.8125 62.2422 12.9219 62.4141C12.9141 62.4297 12.918 62.4414 12.9336 62.4492C12.9492 62.457 12.9648 62.4609 12.9805 62.4609H13.0742C13.1133 62.4609 13.1289 62.4766 13.1211 62.5078C13.1367 62.5312 13.1484 62.5547 13.1562 62.5781C13.1641 62.5938 13.1797 62.6094 13.2031 62.625C13.2188 62.6484 13.2188 62.6797 13.2031 62.7188C13.1953 62.875 13.1562 63.0195 13.0859 63.1523C13.0156 63.2852 12.9727 63.4297 12.957 63.5859C12.8633 63.6094 12.7773 63.6211 12.6992 63.6211C12.5664 63.6133 12.4492 63.5742 12.3477 63.5039C12.2461 63.4414 12.1523 63.3633 12.0664 63.2695C11.9805 63.1758 11.8984 63.082 11.8203 62.9883C11.7422 62.8867 11.6562 62.8008 11.5625 62.7305C11.5078 62.5117 11.4531 62.2695 11.3984 62.0039C11.3516 61.7383 11.2695 61.5117 11.1523 61.3242C11.1836 61.2539 11.1992 61.168 11.1992 61.0664C11.207 60.9102 11.1914 60.7578 11.1523 60.6094C11.1211 60.4531 11.1133 60.2969 11.1289 60.1406C11.1289 60.0547 11.1367 59.9688 11.1523 59.8828C11.1758 59.7969 11.1914 59.7109 11.1992 59.625C11.207 59.4922 11.1914 59.3633 11.1523 59.2383C11.1211 59.1133 11.1094 58.9844 11.1172 58.8516C11.125 58.7891 11.1367 58.7305 11.1523 58.6758C11.1758 58.6133 11.207 58.5586 11.2461 58.5117C11.207 58.418 11.1953 58.3281 11.2109 58.2422C11.2188 58.1094 11.2344 57.9844 11.2578 57.8672C11.2812 57.75 11.2969 57.6328 11.3047 57.5156C11.3047 57.4531 11.3008 57.3945 11.293 57.3398C11.2852 57.2773 11.2734 57.2188 11.2578 57.1641L11.1523 57.1289C11.1055 57.1289 11.0586 57.1406 11.0117 57.1641C10.9727 57.1875 10.9375 57.2148 10.9062 57.2461C10.875 57.2773 10.8477 57.3047 10.8242 57.3281C10.8008 57.3438 10.7773 57.3516 10.7539 57.3516C10.7383 57.3516 10.7188 57.3516 10.6953 57.3516C10.6797 57.3438 10.6641 57.3398 10.6484 57.3398C10.6328 57.3398 10.6016 57.3555 10.5547 57.3867C10.5156 57.418 10.4648 57.4531 10.4023 57.4922C10.3477 57.5234 10.293 57.5586 10.2383 57.5977C10.1836 57.6289 10.1406 57.6484 10.1094 57.6562C10.0234 57.6406 9.95312 57.6133 9.89844 57.5742C9.85156 57.5273 9.80469 57.4844 9.75781 57.4453C9.71875 57.3984 9.67578 57.3594 9.62891 57.3281C9.58203 57.2891 9.52344 57.2734 9.45312 57.2812C9.42969 57.2344 9.41797 57.1836 9.41797 57.1289C9.41016 57.0742 9.41016 57.0195 9.41797 56.9648V56.7773C9.47266 56.6758 9.54688 56.5938 9.64062 56.5312C9.72656 56.4609 9.82031 56.4023 9.92188 56.3555L10.2266 56.2148C10.3281 56.168 10.4219 56.1094 10.5078 56.0391H10.6133C10.7539 56.0469 10.875 56.0195 10.9766 55.957C11.0859 55.8945 11.1875 55.8242 11.2812 55.7461C11.375 55.6602 11.4688 55.5742 11.5625 55.4883C11.6641 55.4023 11.7734 55.3359 11.8906 55.2891C11.9766 55.3281 12.0664 55.3633 12.1602 55.3945C12.2539 55.418 12.3516 55.4336 12.4531 55.4414C12.5547 55.4414 12.6602 55.4258 12.7695 55.3945C12.8789 55.3633 12.9648 55.3047 13.0273 55.2188C13.0664 55.2344 13.0977 55.2461 13.1211 55.2539C13.1523 55.2539 13.1875 55.2539 13.2266 55.2539C13.3438 55.2617 13.4609 55.2461 13.5781 55.207C13.6953 55.1602 13.8086 55.1055 13.918 55.043C14.0742 55.0508 14.2266 55.043 14.375 55.0195C14.5312 54.9883 14.6836 54.957 14.832 54.9258C14.9883 54.8945 15.1406 54.8672 15.2891 54.8438C15.4453 54.8125 15.6016 54.8008 15.7578 54.8086C16.0156 54.8164 16.2695 54.793 16.5195 54.7383C16.7695 54.6836 17.0234 54.6641 17.2812 54.6797C17.4609 54.6875 17.6367 54.7031 17.8086 54.7266C17.9883 54.7422 18.168 54.7461 18.3477 54.7383C18.4492 54.7852 18.5391 54.8281 18.6172 54.8672C18.7031 54.8984 18.8086 54.9062 18.9336 54.8906C19.1836 55.1016 19.4102 55.3477 19.6133 55.6289V55.8281C19.6055 56.0078 19.5742 56.1836 19.5195 56.3555C19.4648 56.5273 19.3984 56.6992 19.3203 56.8711C19.25 57.0352 19.1719 57.1992 19.0859 57.3633C19 57.5195 18.918 57.6758 18.8398 57.832C18.332 58.293 17.8242 58.75 17.3164 59.2031C16.8086 59.6562 16.2852 60.0938 15.7461 60.5156C15.7305 60.5938 15.707 60.6641 15.6758 60.7266C15.6523 60.7891 15.6367 60.8555 15.6289 60.9258C15.6289 60.9648 15.6328 60.9961 15.6406 61.0195C15.6953 61.0352 15.7422 61.0664 15.7812 61.1133C15.8281 61.1523 15.8438 61.207 15.8281 61.2773H15.9336C15.9727 61.2773 15.9922 61.293 15.9922 61.3242L16.1797 61.3359C16.4766 61.3516 16.7734 61.3438 17.0703 61.3125C17.3672 61.2812 17.6641 61.2461 17.9609 61.207C18.2656 61.168 18.5664 61.1328 18.8633 61.1016C19.1602 61.0625 19.457 61.0391 19.7539 61.0312C19.8242 61.0078 19.8984 60.9883 19.9766 60.9727C20.0547 60.957 20.125 60.9258 20.1875 60.8789H20.2227C20.2773 60.8789 20.3164 60.8945 20.3398 60.9258C20.3711 60.957 20.4141 60.9766 20.4688 60.9844C20.5078 60.9844 20.5469 60.9766 20.5859 60.9609C20.6328 60.9453 20.6797 60.9336 20.7266 60.9258C20.8359 60.8945 20.9492 60.875 21.0664 60.8672C21.1914 60.8594 21.3125 60.8477 21.4297 60.832C21.8828 60.793 22.332 60.7695 22.7773 60.7617C23.2227 60.7461 23.668 60.6875 24.1133 60.5859C24.1523 60.6406 24.207 60.6797 24.2773 60.7031C24.3477 60.7188 24.4219 60.7383 24.5 60.7617C24.5781 60.7773 24.6484 60.7969 24.7109 60.8203C24.7812 60.8438 24.8281 60.8906 24.8516 60.9609ZM27.7227 54.9375C27.7227 55.0078 27.6914 55.0664 27.6289 55.1133C27.5742 55.1602 27.5469 55.1953 27.5469 55.2188C27.5469 55.2656 27.5547 55.3008 27.5703 55.3242C27.5859 55.3398 27.5938 55.3594 27.5938 55.3828V55.4414C27.5156 55.5195 27.457 55.6055 27.418 55.6992C27.3789 55.7852 27.3477 55.8789 27.3242 55.9805C27.3008 56.0742 27.2773 56.1719 27.2539 56.2734C27.2383 56.375 27.2148 56.4727 27.1836 56.5664C27.1445 56.6602 27.0938 56.7422 27.0312 56.8125C26.9688 56.875 26.918 56.9492 26.8789 57.0352C26.8164 57.1758 26.7695 57.3203 26.7383 57.4688C26.707 57.6172 26.6406 57.7539 26.5391 57.8789V57.9375C26.5312 57.9922 26.5469 58.0391 26.5859 58.0781C26.4375 58.2734 26.3203 58.5078 26.2344 58.7812C26.1484 59.0469 26.0781 59.3281 26.0234 59.625C25.9688 59.9141 25.9219 60.207 25.8828 60.5039C25.8438 60.793 25.7969 61.0547 25.7422 61.2891C25.7812 61.4609 25.8398 61.625 25.918 61.7812C26.0039 61.9297 26.0859 62.0859 26.1641 62.25C26.3203 62.2891 26.4688 62.3438 26.6094 62.4141C26.7578 62.4844 26.8633 62.5977 26.9258 62.7539C26.9102 62.9102 26.8594 63.0312 26.7734 63.1172C26.6875 63.2031 26.582 63.293 26.457 63.3867C26.3711 63.3555 26.3008 63.3281 26.2461 63.3047C26.1914 63.2891 26.1094 63.2891 26 63.3047C25.8516 63.1875 25.7109 63.0938 25.5781 63.0234C25.4531 62.9531 25.3398 62.832 25.2383 62.6602C25.2227 62.6367 25.1992 62.625 25.168 62.625H25.0625C25.0234 62.5312 24.9766 62.4336 24.9219 62.332C24.8672 62.2227 24.8125 62.1133 24.7578 62.0039C24.7031 61.8867 24.6562 61.7734 24.6172 61.6641C24.5781 61.5469 24.5586 61.4414 24.5586 61.3477C24.5586 60.9492 24.5938 60.5547 24.6641 60.1641C24.7422 59.7656 24.7812 59.3633 24.7812 58.957V58.8398C24.625 58.8789 24.4688 58.9336 24.3125 59.0039C24.1641 59.0742 24.0117 59.1289 23.8555 59.168C23.8008 59.1836 23.7695 59.2109 23.7617 59.25C23.7539 59.2891 23.7305 59.3203 23.6914 59.3438C23.6133 59.3516 23.5391 59.3594 23.4688 59.3672C23.3984 59.3672 23.332 59.3672 23.2695 59.3672C23.1367 59.3672 22.9961 59.3633 22.8477 59.3555C22.707 59.3398 22.5664 59.3125 22.4258 59.2734C22.2852 59.2344 22.1523 59.1797 22.0273 59.1094C21.9102 59.0391 21.8047 58.9492 21.7109 58.8398C21.6953 58.8477 21.6758 58.8555 21.6523 58.8633C21.6289 58.8711 21.6055 58.875 21.582 58.875C21.5586 58.875 21.5352 58.8711 21.5117 58.8633C21.4883 58.8555 21.4688 58.8477 21.4531 58.8398C21.3906 58.7539 21.3398 58.6602 21.3008 58.5586L21.1836 58.2539C21.1445 58.1523 21.1016 58.0547 21.0547 57.9609C21.0078 57.8672 20.9453 57.7812 20.8672 57.7031C20.8438 57.5625 20.832 57.4258 20.832 57.293C20.832 57.1523 20.8438 57.0156 20.8672 56.8828C20.8828 56.75 20.9102 56.6172 20.9492 56.4844C20.918 56.3906 20.8984 56.293 20.8906 56.1914C20.875 56.0898 20.8672 55.9883 20.8672 55.8867C20.8672 55.7695 20.8789 55.6484 20.9023 55.5234C20.9258 55.3984 20.9648 55.2852 21.0195 55.1836C21.0742 55.0742 21.1523 54.9844 21.2539 54.9141C21.3477 54.8438 21.4648 54.8086 21.6055 54.8086C21.7617 54.8086 21.9062 54.8516 22.0391 54.9375C22.1719 55.0156 22.3008 55.0977 22.4258 55.1836C22.4414 55.2773 22.4531 55.3711 22.4609 55.4648C22.4688 55.5508 22.4727 55.6445 22.4727 55.7461C22.4727 55.9336 22.4609 56.125 22.4375 56.3203C22.4219 56.5078 22.4141 56.6992 22.4141 56.8945C22.4141 57.0977 22.4375 57.2891 22.4844 57.4688C22.5391 57.6406 22.6328 57.8047 22.7656 57.9609H22.8125C22.875 57.9531 22.9297 57.9648 22.9766 57.9961C23.0234 58.0273 23.0781 58.043 23.1406 58.043C23.1953 58.043 23.2383 58.0234 23.2695 57.9844C23.3008 57.9375 23.3398 57.9141 23.3867 57.9141C23.4336 57.9141 23.4688 57.9219 23.4922 57.9375C23.5156 57.9531 23.5352 57.9609 23.5508 57.9609C23.6367 57.9609 23.7344 57.9297 23.8438 57.8672C23.9531 57.8047 24.0234 57.7344 24.0547 57.6562C24.0859 57.6797 24.125 57.6914 24.1719 57.6914C24.2344 57.6914 24.293 57.6719 24.3477 57.6328C24.4023 57.5938 24.4727 57.5742 24.5586 57.5742C24.6055 57.5742 24.6211 57.5469 24.6055 57.4922C24.5977 57.4297 24.6133 57.3906 24.6523 57.375C24.7461 57.3359 24.8477 57.2812 24.957 57.2109C25.0742 57.1328 25.168 57.0859 25.2383 57.0703C25.2773 56.9688 25.3242 56.875 25.3789 56.7891C25.4414 56.6953 25.5039 56.6094 25.5664 56.5312C25.5898 56.3516 25.6367 56.1797 25.707 56.0156C25.7773 55.8516 25.8516 55.6875 25.9297 55.5234C26.0078 55.3594 26.082 55.1953 26.1523 55.0312C26.2227 54.8672 26.2695 54.6953 26.293 54.5156C26.3789 54.4297 26.4453 54.3359 26.4922 54.2344C26.5469 54.1328 26.5938 54.0312 26.6328 53.9297C26.7109 53.9062 26.8086 53.8945 26.9258 53.8945C27.043 53.8867 27.1445 53.8828 27.2305 53.8828H27.4297C27.4531 53.9297 27.4844 53.9727 27.5234 54.0117L27.6406 54.1289C27.5703 54.2383 27.5352 54.3477 27.5352 54.457C27.5352 54.543 27.5547 54.6289 27.5938 54.7148C27.6328 54.793 27.6758 54.8672 27.7227 54.9375ZM40.2734 56.2148C40.2266 56.2852 40.1992 56.3633 40.1914 56.4492C40.1836 56.5352 40.1797 56.6133 40.1797 56.6836C40.1797 56.7773 40.1797 56.8711 40.1797 56.9648C40.1875 57.0508 40.1914 57.1367 40.1914 57.2227V57.3984C40.1758 57.4531 40.1523 57.5078 40.1211 57.5625C40.0898 57.6172 40.0664 57.6719 40.0508 57.7266C39.9414 58.0156 39.8867 58.3047 39.8867 58.5938V58.6172C39.8477 58.7109 39.8086 58.7969 39.7695 58.875C39.7383 58.9531 39.707 59.0312 39.6758 59.1094C39.6445 59.1797 39.6211 59.2578 39.6055 59.3438C39.5898 59.4219 39.5859 59.5156 39.5938 59.625C39.4844 59.8984 39.3398 60.1484 39.1602 60.375C38.9805 60.5938 38.8047 60.8203 38.6328 61.0547C38.4688 61.1172 38.3164 61.1992 38.1758 61.3008C38.043 61.4023 37.9141 61.5156 37.7891 61.6406C37.5469 61.7188 37.3086 61.8086 37.0742 61.9102C36.8398 62.0117 36.6289 62.1484 36.4414 62.3203C36.293 62.3359 36.1445 62.3594 35.9961 62.3906C35.8477 62.4219 35.7031 62.4688 35.5625 62.5312H35.4219C35.3516 62.5312 35.3008 62.5156 35.2695 62.4844C35.168 62.5391 35.0625 62.5781 34.9531 62.6016C34.8438 62.6172 34.7344 62.625 34.625 62.625C34.4844 62.625 34.3438 62.6172 34.2031 62.6016C34.0703 62.5781 33.9336 62.5547 33.793 62.5312C33.7148 62.4219 33.6055 62.3398 33.4648 62.2852C33.3242 62.2227 33.1992 62.1641 33.0898 62.1094C32.8633 61.7969 32.6992 61.4961 32.5977 61.207C32.4961 60.9102 32.3906 60.5781 32.2812 60.2109C32.2969 60.1016 32.3242 59.9961 32.3633 59.8945C32.4023 59.7852 32.418 59.668 32.4102 59.543C32.5508 59.1367 32.7344 58.7695 32.9609 58.4414C33.1953 58.1055 33.4609 57.7852 33.7578 57.4805C33.7578 57.4336 33.7656 57.3945 33.7812 57.3633C33.8047 57.332 33.8086 57.2852 33.793 57.2227C33.8008 57.2305 33.8164 57.2344 33.8398 57.2344C33.9023 57.2344 33.9414 57.2188 33.957 57.1875C33.9727 57.1484 33.9766 57.1055 33.9688 57.0586C34.25 56.8789 34.5039 56.6719 34.7305 56.4375C34.9648 56.2031 35.2305 56.0078 35.5273 55.8516C35.5508 55.7812 35.5898 55.7227 35.6445 55.6758C35.6992 55.6289 35.7422 55.5742 35.7734 55.5117C36.0234 55.4414 36.25 55.3359 36.4531 55.1953C36.6562 55.0547 36.8711 54.9297 37.0977 54.8203C37.2227 54.75 37.3398 54.7031 37.4492 54.6797C37.5664 54.6484 37.6914 54.6172 37.8242 54.5859C37.8711 54.5703 37.9141 54.5586 37.9531 54.5508C37.9922 54.543 38.0352 54.5391 38.082 54.5391C38.2227 54.5391 38.3594 54.5664 38.4922 54.6211C38.625 54.668 38.7617 54.6914 38.9023 54.6914C38.9414 54.6914 38.9727 54.6914 38.9961 54.6914C39.0273 54.6836 39.0586 54.6758 39.0898 54.668C39.2227 54.832 39.3906 54.957 39.5938 55.043C39.6406 55.1602 39.6953 55.2617 39.7578 55.3477C39.8281 55.4336 39.8984 55.5195 39.9688 55.6055C40.0391 55.6836 40.1016 55.7734 40.1562 55.875C40.2188 55.9688 40.2578 56.082 40.2734 56.2148ZM39.1016 56.8242C39.1016 56.7852 39.0977 56.75 39.0898 56.7188C39.0117 56.6953 38.9375 56.6641 38.8672 56.625C38.7969 56.5859 38.7188 56.5664 38.6328 56.5664C38.5781 56.5664 38.5234 56.5781 38.4688 56.6016C38.4609 56.5469 38.4375 56.5078 38.3984 56.4844C38.3672 56.4609 38.3281 56.4414 38.2812 56.4258C38.2422 56.4023 38.1992 56.3867 38.1523 56.3789C38.1133 56.3633 38.0781 56.3398 38.0469 56.3086C38.0234 56.2461 37.9961 56.1836 37.9648 56.1211C37.9414 56.0508 37.8945 56 37.8242 55.9688C37.7539 56.0391 37.6719 56.0977 37.5781 56.1445C37.4844 56.1836 37.3867 56.2227 37.2852 56.2617C37.1914 56.3008 37.0977 56.3477 37.0039 56.4023C36.918 56.457 36.8438 56.5234 36.7812 56.6016H36.5703C36.5234 56.6875 36.457 56.7539 36.3711 56.8008C36.2852 56.8398 36.2109 56.8984 36.1484 56.9766C36.0234 57.0391 35.9062 57.1172 35.7969 57.2109C35.6953 57.2969 35.5938 57.3906 35.4922 57.4922C35.3906 57.5859 35.2891 57.6836 35.1875 57.7852C35.0938 57.8867 34.9922 57.9805 34.8828 58.0664C34.7812 58.2852 34.668 58.4766 34.543 58.6406C34.4258 58.7969 34.3125 58.957 34.2031 59.1211C34.1016 59.2852 34.0117 59.4648 33.9336 59.6602C33.8633 59.8477 33.8281 60.082 33.8281 60.3633V60.4805C33.8281 60.5195 33.832 60.5586 33.8398 60.5977C33.9414 60.707 34.0234 60.8242 34.0859 60.9492C34.1562 61.0742 34.2695 61.1641 34.4258 61.2188C34.582 61.2812 34.7461 61.3086 34.918 61.3008C35.0977 61.293 35.2695 61.3125 35.4336 61.3594C35.8086 61.2891 36.168 61.1758 36.5117 61.0195C36.8633 60.8555 37.1953 60.6602 37.5078 60.4336C37.5547 60.3945 37.6094 60.3555 37.6719 60.3164C37.7344 60.2695 37.7852 60.2227 37.8242 60.1758C37.8633 60.1367 37.8945 60.0938 37.918 60.0469C37.9492 60 37.9805 59.957 38.0117 59.918C38.0742 59.8164 38.1445 59.7148 38.2227 59.6133C38.3008 59.5117 38.3828 59.418 38.4688 59.332C38.5078 59.1602 38.5586 58.9961 38.6211 58.8398C38.6836 58.6758 38.7461 58.5156 38.8086 58.3594C38.8711 58.2031 38.9219 58.043 38.9609 57.8789C39.0078 57.7148 39.0312 57.543 39.0312 57.3633C39.0312 57.3242 39.0273 57.2812 39.0195 57.2344C39.0195 57.1875 39.0156 57.1445 39.0078 57.1055C39.0703 57.0195 39.1016 56.9258 39.1016 56.8242ZM48.3828 61.1016C48.3516 61.2188 48.3008 61.3164 48.2305 61.3945C48.1602 61.4727 48.0781 61.543 47.9844 61.6055C47.8984 61.668 47.8047 61.7266 47.7031 61.7812C47.6016 61.8281 47.5039 61.8828 47.4102 61.9453H47.2578C46.9297 61.9453 46.6758 61.8672 46.4961 61.7109C46.3242 61.5469 46.1914 61.3477 46.0977 61.1133C46.0039 60.8711 45.9336 60.6133 45.8867 60.3398C45.8477 60.0664 45.7969 59.8164 45.7344 59.5898C45.6406 59.668 45.5625 59.7617 45.5 59.8711C45.4375 59.9727 45.3711 60.0742 45.3008 60.1758C45.2383 60.2773 45.1641 60.3711 45.0781 60.457C45 60.543 44.8945 60.6016 44.7617 60.6328C44.7383 60.6875 44.7109 60.7422 44.6797 60.7969C44.6562 60.8516 44.6406 60.9102 44.6328 60.9727C44.4609 61.0664 44.3047 61.1758 44.1641 61.3008C44.0234 61.4258 43.8828 61.5547 43.7422 61.6875C43.6016 61.8203 43.457 61.9492 43.3086 62.0742C43.168 62.1914 43.0078 62.2891 42.8281 62.3672C42.8203 62.3594 42.8047 62.3555 42.7812 62.3555C42.6875 62.3555 42.6016 62.3789 42.5234 62.4258C42.4453 62.4648 42.3594 62.4844 42.2656 62.4844C42.2031 62.4844 42.1445 62.4727 42.0898 62.4492C42.043 62.4258 41.9922 62.3984 41.9375 62.3672C41.8906 62.3359 41.8398 62.3125 41.7852 62.2969C41.7305 62.2812 41.6719 62.2773 41.6094 62.2852C41.5312 62.1445 41.4258 62.0156 41.293 61.8984C41.168 61.7734 41.0898 61.6328 41.0586 61.4766C41.043 61.4062 41.0312 61.3359 41.0234 61.2656C41.0234 61.1875 41.0156 61.1094 41 61.0312C40.9766 60.9141 40.9453 60.7969 40.9062 60.6797C40.8672 60.5547 40.8359 60.4297 40.8125 60.3047C40.8516 60.0938 40.8906 59.8633 40.9297 59.6133C40.9609 59.3555 41 59.1016 41.0469 58.8516C41.1016 58.5938 41.1719 58.3516 41.2578 58.125C41.3516 57.8906 41.4688 57.6914 41.6094 57.5273L41.5977 57.4453C41.5977 57.3203 41.6211 57.2031 41.668 57.0938C41.7148 56.9844 41.7656 56.8789 41.8203 56.7773C41.875 56.6758 41.9219 56.5742 41.9609 56.4727C42 56.3711 42.0078 56.2578 41.9844 56.1328C42.0781 56.0859 42.1758 56.0469 42.2773 56.0156C42.3789 55.9844 42.4844 55.9688 42.5938 55.9688C42.6953 55.9688 42.7891 55.9844 42.875 56.0156C42.8594 56.0781 42.8867 56.1172 42.957 56.1328V56.168C42.957 56.332 42.9375 56.4922 42.8984 56.6484C42.8594 56.8047 42.8125 56.9609 42.7578 57.1172C42.7031 57.2656 42.6484 57.418 42.5938 57.5742C42.5469 57.7227 42.5117 57.875 42.4883 58.0312C42.457 58.0391 42.4336 58.0547 42.418 58.0781C42.4102 58.1016 42.4023 58.125 42.3945 58.1484C42.3867 58.1719 42.375 58.1914 42.3594 58.207C42.3438 58.2227 42.3203 58.2305 42.2891 58.2305C42.2422 58.5039 42.1914 58.7773 42.1367 59.0508C42.0898 59.3164 42.0664 59.5859 42.0664 59.8594C42.0664 60.0234 42.082 60.1914 42.1133 60.3633C42.1445 60.5352 42.2031 60.6992 42.2891 60.8555L42.3359 60.8438C42.4219 60.8438 42.4883 60.8633 42.5352 60.9023C42.5898 60.9414 42.6602 60.9805 42.7461 61.0195C42.8086 61.0039 42.8672 60.9844 42.9219 60.9609C42.9766 60.9297 43 60.8789 42.9922 60.8086C43.0938 60.8008 43.1797 60.7773 43.25 60.7383C43.3203 60.6914 43.3828 60.6406 43.4375 60.5859L43.6133 60.4219C43.6758 60.3672 43.75 60.3281 43.8359 60.3047C43.8359 60.2578 43.8477 60.2227 43.8711 60.1992L43.9414 60.1289C43.9648 60.1055 43.9805 60.082 43.9883 60.0586C44.0039 60.0273 44.0078 59.9844 44 59.9297C44.0938 59.9219 44.1641 59.8984 44.2109 59.8594C44.2656 59.8203 44.3125 59.7773 44.3516 59.7305C44.3984 59.6758 44.4414 59.6211 44.4805 59.5664C44.5195 59.5117 44.5703 59.4648 44.6328 59.4258C44.6875 59.3086 44.7617 59.1523 44.8555 58.957C44.957 58.7617 45.0547 58.5586 45.1484 58.3477C45.25 58.1367 45.3359 57.9375 45.4062 57.75C45.4844 57.5547 45.5234 57.4062 45.5234 57.3047C45.5234 57.2656 45.5117 57.2305 45.4883 57.1992C45.4727 57.168 45.4688 57.1328 45.4766 57.0938V57.0586C45.5391 56.9805 45.5938 56.8945 45.6406 56.8008C45.6953 56.707 45.75 56.6172 45.8047 56.5312C45.8672 56.4453 45.9336 56.3672 46.0039 56.2969C46.0742 56.2266 46.1641 56.1719 46.2734 56.1328C46.3984 56.1719 46.5234 56.1992 46.6484 56.2148C46.7812 56.2305 46.9062 56.2617 47.0234 56.3086C47.0312 56.5039 47.0508 56.7305 47.082 56.9883C47.1133 57.2461 47.168 57.4648 47.2461 57.6445C47.2461 57.7461 47.2422 57.8438 47.2344 57.9375C47.2344 58.0312 47.2344 58.125 47.2344 58.2188C47.2344 58.375 47.2383 58.5352 47.2461 58.6992C47.2617 58.8633 47.2891 59.0156 47.3281 59.1562C47.2734 59.2734 47.2461 59.3984 47.2461 59.5312C47.2461 59.7109 47.2734 59.8828 47.3281 60.0469C47.3828 60.2031 47.4219 60.3711 47.4453 60.5508C47.5469 60.6914 47.6797 60.7617 47.8438 60.7617C47.8828 60.7617 47.9141 60.7578 47.9375 60.75C47.9688 60.7422 48 60.7305 48.0312 60.7148C48.0938 60.7852 48.1484 60.8555 48.1953 60.9258C48.25 60.9883 48.3125 61.0469 48.3828 61.1016ZM58.8594 55.4648C58.8281 55.5664 58.7773 55.6602 58.707 55.7461L58.5078 55.9922C58.4453 56.0703 58.3906 56.1562 58.3438 56.25C58.3047 56.3359 58.293 56.4375 58.3086 56.5547C58.293 56.5547 58.2734 56.5547 58.25 56.5547C58.2266 56.5469 58.207 56.543 58.1914 56.543C58.0664 56.543 57.9688 56.5742 57.8984 56.6367C57.8359 56.6914 57.75 56.7383 57.6406 56.7773C57.625 56.7305 57.6055 56.6875 57.582 56.6484C57.5586 56.6016 57.5234 56.5703 57.4766 56.5547C57.2891 56.5938 57.1016 56.625 56.9141 56.6484C56.7266 56.6641 56.5391 56.6875 56.3516 56.7188C56.2656 56.7344 56.1797 56.7578 56.0938 56.7891C56.0078 56.8125 55.918 56.8359 55.8242 56.8594C55.7773 56.875 55.7266 56.8828 55.6719 56.8828C55.6172 56.875 55.5625 56.875 55.5078 56.8828C55.3203 56.8906 55.1172 56.9062 54.8984 56.9297C54.6797 56.9453 54.4844 57.0039 54.3125 57.1055C54.2344 57.0898 54.1523 57.0781 54.0664 57.0703C53.9805 57.0625 53.8945 57.0586 53.8086 57.0586C53.6211 57.0586 53.4141 57.0781 53.1875 57.1172C52.9688 57.1484 52.7734 57.2148 52.6016 57.3164C52.5625 57.3008 52.5195 57.2891 52.4727 57.2812C52.4336 57.2734 52.3867 57.2695 52.332 57.2695C52.3164 57.2695 52.3047 57.2734 52.2969 57.2812C52.2891 57.2812 52.2773 57.2812 52.2617 57.2812C52.2539 57.3516 52.2617 57.4219 52.2852 57.4922C52.3164 57.5547 52.3672 57.6055 52.4375 57.6445C52.4062 57.7305 52.3906 57.8242 52.3906 57.9258C52.3906 58.0586 52.3984 58.1914 52.4141 58.3242C52.4375 58.457 52.4492 58.5898 52.4492 58.7227C52.4492 58.8711 52.4297 58.9883 52.3906 59.0742C52.4688 59.3086 52.5078 59.5586 52.5078 59.8242C52.5078 59.918 52.5 60.0117 52.4844 60.1055C52.4766 60.1914 52.4727 60.2852 52.4727 60.3867C52.4727 60.4727 52.5039 60.543 52.5664 60.5977C52.6289 60.6445 52.6602 60.7109 52.6602 60.7969C52.6602 60.8281 52.6523 60.8594 52.6367 60.8906C52.7461 60.8672 52.8516 60.8359 52.9531 60.7969C53.0547 60.75 53.1602 60.7266 53.2695 60.7266C53.332 60.7266 53.3906 60.7383 53.4453 60.7617C53.5078 60.7852 53.5625 60.8164 53.6094 60.8555C53.6016 60.8945 53.5938 60.9375 53.5859 60.9844C53.5859 61.0312 53.5859 61.0781 53.5859 61.125C53.5859 61.2109 53.5859 61.293 53.5859 61.3711C53.5938 61.4414 53.6016 61.5195 53.6094 61.6055C53.5469 61.7148 53.4727 61.8125 53.3867 61.8984C53.3086 61.9844 53.2539 62.0938 53.2227 62.2266C53.1055 62.2266 53 62.2539 52.9062 62.3086C52.8203 62.3555 52.7383 62.4102 52.6602 62.4727C52.582 62.5273 52.5039 62.582 52.4258 62.6367C52.3477 62.6836 52.2617 62.707 52.168 62.707C52.0508 62.707 51.9688 62.6914 51.9219 62.6602C51.875 62.6211 51.8398 62.582 51.8164 62.543C51.793 62.5039 51.7695 62.4688 51.7461 62.4375C51.7305 62.4062 51.6914 62.3945 51.6289 62.4023C51.6133 62.3008 51.582 62.207 51.5352 62.1211C51.4883 62.0273 51.4375 61.9375 51.3828 61.8516C51.3359 61.7656 51.2852 61.6797 51.2305 61.5938C51.1836 61.5 51.1484 61.4062 51.125 61.3125C51.0781 61.1094 51.0586 60.8984 51.0664 60.6797C51.0742 60.4609 51.0391 60.25 50.9609 60.0469C50.9766 59.9375 50.9883 59.8281 50.9961 59.7188C51.0039 59.6016 51.0078 59.4883 51.0078 59.3789C51.0078 59.1602 51 58.9453 50.9844 58.7344C50.9766 58.5156 50.9688 58.293 50.9609 58.0664C50.9062 57.9961 50.8711 57.918 50.8555 57.832C50.8477 57.7383 50.8398 57.6484 50.832 57.5625C50.8086 57.5391 50.7812 57.5156 50.75 57.4922C50.7266 57.4688 50.7109 57.4375 50.7031 57.3984C50.6406 57.3828 50.5938 57.375 50.5625 57.375C50.4531 57.375 50.3594 57.4023 50.2812 57.457C50.2109 57.5039 50.1445 57.5273 50.082 57.5273C50.0195 57.5273 49.9609 57.5195 49.9062 57.5039C49.8516 57.4883 49.7969 57.4805 49.7422 57.4805C49.6953 57.4805 49.668 57.4922 49.6602 57.5156C49.6602 57.5312 49.6445 57.5469 49.6133 57.5625C49.5898 57.5781 49.5352 57.5938 49.4492 57.6094C49.3633 57.625 49.2656 57.6406 49.1562 57.6562C49.0547 57.6641 48.9531 57.6719 48.8516 57.6797C48.7578 57.6875 48.6953 57.6914 48.6641 57.6914C48.5391 57.6914 48.4453 57.668 48.3828 57.6211C48.3125 57.5664 48.2305 57.5078 48.1367 57.4453C48.1523 57.3984 48.1602 57.3672 48.1602 57.3516C48.1602 57.2734 48.1367 57.2109 48.0898 57.1641C48.043 57.1094 48.0195 57.0625 48.0195 57.0234C48.0195 56.9375 48.0547 56.8711 48.125 56.8242C48.1875 56.7773 48.2227 56.7031 48.2305 56.6016C48.4102 56.5234 48.5938 56.4648 48.7812 56.4258C48.9688 56.3867 49.1602 56.3555 49.3555 56.332C49.5508 56.3086 49.7422 56.2812 49.9297 56.25C50.125 56.2188 50.3164 56.168 50.5039 56.0977C50.5586 56.1055 50.6094 56.1133 50.6562 56.1211C50.7109 56.1211 50.7656 56.1211 50.8203 56.1211C51.0547 56.1211 51.2852 56.0977 51.5117 56.0508C51.7461 55.9961 51.9844 55.9688 52.2266 55.9688C52.2891 55.9688 52.3516 55.9727 52.4141 55.9805C52.4766 55.9883 52.5391 56 52.6016 56.0156C52.9141 55.9688 53.2227 55.918 53.5273 55.8633C53.8398 55.8086 54.1602 55.7617 54.4883 55.7227C54.6445 55.707 54.7969 55.6953 54.9453 55.6875C55.1016 55.6719 55.2578 55.6523 55.4141 55.6289C55.4688 55.6211 55.5078 55.6094 55.5312 55.5938C55.5625 55.5703 55.5781 55.5273 55.5781 55.4648C55.6484 55.4961 55.7266 55.5117 55.8125 55.5117C55.9453 55.5117 56.0742 55.4883 56.1992 55.4414C56.3242 55.3945 56.4531 55.3711 56.5859 55.3711C56.6172 55.3711 56.6445 55.375 56.668 55.3828C56.6914 55.3828 56.7148 55.3828 56.7383 55.3828C56.793 55.3828 56.8203 55.3594 56.8203 55.3125C56.8281 55.2578 56.8672 55.2227 56.9375 55.207C56.9922 55.1914 57.0703 55.1797 57.1719 55.1719C57.2734 55.1641 57.3789 55.1562 57.4883 55.1484C57.6055 55.1328 57.7109 55.1172 57.8047 55.1016C57.9062 55.0781 57.9805 55.0469 58.0273 55.0078L58.1094 54.8789C58.25 54.8867 58.3516 54.9492 58.4141 55.0664C58.4844 55.1758 58.5234 55.2969 58.5312 55.4297C58.5625 55.4609 58.6055 55.4766 58.6602 55.4766C58.7227 55.4688 58.7773 55.4648 58.8242 55.4648H58.8594ZM70.8594 62.1445C70.8359 62.2539 70.7852 62.3438 70.707 62.4141C70.6367 62.4766 70.5508 62.5273 70.4492 62.5664C70.3477 62.6055 70.2422 62.6328 70.1328 62.6484C70.0312 62.6562 69.9375 62.6602 69.8516 62.6602C69.8125 62.6602 69.7734 62.6602 69.7344 62.6602C69.7031 62.6523 69.668 62.6484 69.6289 62.6484C69.5898 62.6484 69.5703 62.668 69.5703 62.707C69.5703 62.7461 69.5508 62.7734 69.5117 62.7891C69.4727 62.7734 69.4336 62.7617 69.3945 62.7539C69.3555 62.7461 69.3164 62.7422 69.2773 62.7422C69.2227 62.7422 69.168 62.7461 69.1133 62.7539C69.0664 62.7617 69.0195 62.7656 68.9727 62.7656C68.9102 62.7656 68.8633 62.7578 68.832 62.7422C68.8086 62.7266 68.7852 62.7109 68.7617 62.6953C68.7461 62.6719 68.7266 62.6484 68.7031 62.625C68.6875 62.6016 68.6602 62.582 68.6211 62.5664C68.5664 62.543 68.5195 62.5391 68.4805 62.5547C68.4492 62.5703 68.3984 62.5469 68.3281 62.4844C68.2344 62.4062 68.1523 62.3125 68.082 62.2031C68.0195 62.0859 67.957 61.9648 67.8945 61.8398C67.832 61.7148 67.7656 61.5898 67.6953 61.4648C67.625 61.3398 67.543 61.2305 67.4492 61.1367H67.3555C67.2148 61.1367 67.1172 61.1953 67.0625 61.3125C67.0234 61.2891 66.9844 61.2617 66.9453 61.2305C66.9062 61.1914 66.8633 61.1602 66.8164 61.1367C66.6367 61.1914 66.4492 61.2383 66.2539 61.2773C66.0586 61.3164 65.8633 61.3359 65.668 61.3359H65.5039C65.457 61.3359 65.4062 61.3281 65.3516 61.3125C65.2734 61.3438 65.2031 61.3828 65.1406 61.4297C65.0781 61.4688 65.0078 61.4883 64.9297 61.4883C64.8828 61.4883 64.8281 61.4727 64.7656 61.4414C64.7188 61.4414 64.6953 61.4609 64.6953 61.5C64.7031 61.5391 64.6797 61.5586 64.625 61.5586H64.5195C64.4102 61.5586 64.3008 61.5625 64.1914 61.5703C64.0898 61.5781 63.9844 61.582 63.875 61.582C63.7266 61.582 63.5742 61.5625 63.418 61.5234C63.3789 61.5469 63.3359 61.5586 63.2891 61.5586C63.2578 61.5742 63.2344 61.6016 63.2188 61.6406C63.2031 61.6719 63.1875 61.7031 63.1719 61.7344C63.1562 61.7578 63.1328 61.7812 63.1016 61.8047C63.0781 61.8203 63.043 61.8242 62.9961 61.8164C62.9805 61.9102 62.9414 61.9844 62.8789 62.0391C62.8164 62.0938 62.7852 62.1758 62.7852 62.2852C62.6992 62.332 62.6289 62.3906 62.5742 62.4609C62.5195 62.5312 62.4648 62.6055 62.4102 62.6836C62.3555 62.7617 62.2969 62.8359 62.2344 62.9062C62.1797 62.9766 62.1094 63.0312 62.0234 63.0703C61.9844 63.1172 61.9727 63.1914 61.9883 63.293C61.9023 63.3633 61.7969 63.4258 61.6719 63.4805C61.5469 63.5352 61.4297 63.5625 61.3203 63.5625C61.0938 63.5625 60.9375 63.4414 60.8516 63.1992C60.8516 63.1211 60.8594 63.0391 60.875 62.9531C60.8828 62.8594 60.8984 62.7734 60.9219 62.6953C60.9453 62.6094 60.9805 62.5352 61.0273 62.4727C61.0742 62.4023 61.1406 62.3516 61.2266 62.3203C61.2266 62.25 61.2031 62.2031 61.1562 62.1797C61.1094 62.1484 61.0898 62.0977 61.0977 62.0273C61.3086 61.9258 61.4922 61.793 61.6484 61.6289C61.8047 61.4648 61.9453 61.293 62.0703 61.1133C62.2031 60.9258 62.3359 60.7383 62.4688 60.5508C62.6016 60.3633 62.75 60.1953 62.9141 60.0469V59.8008C63.1484 59.5508 63.3008 59.2695 63.3711 58.957C63.457 58.9414 63.5117 58.9023 63.5352 58.8398C63.5664 58.7773 63.582 58.7031 63.582 58.6172C63.6211 58.6172 63.6445 58.6016 63.6523 58.5703C63.668 58.5312 63.7031 58.5195 63.7578 58.5352C63.8281 58.3477 63.9062 58.1758 63.9922 58.0195C64.0781 57.8633 64.1641 57.707 64.25 57.5508C64.3359 57.3867 64.4102 57.2188 64.4727 57.0469C64.543 56.875 64.5938 56.6836 64.625 56.4727C64.7344 56.4648 64.793 56.4141 64.8008 56.3203C64.8164 56.2188 64.832 56.1289 64.8477 56.0508C64.9648 55.9414 65.0508 55.8125 65.1055 55.6641C65.168 55.5156 65.2227 55.3633 65.2695 55.207C65.3164 55.043 65.3672 54.8828 65.4219 54.7266C65.4844 54.5625 65.5703 54.418 65.6797 54.293V54.2578C65.6797 54.2188 65.6641 54.1953 65.6328 54.1875C65.6016 54.1719 65.5859 54.1445 65.5859 54.1055C65.5938 54.0977 65.5977 54.0898 65.5977 54.082C65.6914 54.043 65.7617 53.9805 65.8086 53.8945C65.8555 53.8008 65.9258 53.7344 66.0195 53.6953C66.1836 53.8281 66.3281 53.9102 66.4531 53.9414C66.5781 53.9648 66.7422 53.9844 66.9453 54C67.0469 54.1094 67.1016 54.2422 67.1094 54.3984C67.125 54.5469 67.1523 54.6953 67.1914 54.8438C67.2539 55.0938 67.3203 55.3398 67.3906 55.582C67.4688 55.8164 67.5273 56.0586 67.5664 56.3086C67.5898 56.457 67.6328 56.5977 67.6953 56.7305C67.7578 56.8633 67.8008 57 67.8242 57.1406C67.8398 57.25 67.8398 57.375 67.8242 57.5156C67.8086 57.6484 67.8242 57.7656 67.8711 57.8672L67.9531 58.0547C67.9922 58.1406 68.0234 58.2305 68.0469 58.3242C68.0781 58.418 68.1055 58.5117 68.1289 58.6055C68.1914 58.8398 68.2461 59.0938 68.293 59.3672C68.3477 59.6328 68.4297 59.875 68.5391 60.0938C68.5781 60.1719 68.6367 60.2266 68.7148 60.2578C68.8008 60.2891 68.8945 60.3125 68.9961 60.3281C69.0977 60.3359 69.1953 60.3398 69.2891 60.3398C69.3906 60.332 69.4766 60.3281 69.5469 60.3281H69.6641C69.7109 60.3281 69.7578 60.3359 69.8047 60.3516C69.8359 60.4141 69.8516 60.4688 69.8516 60.5156C69.8516 60.6094 69.8203 60.6836 69.7578 60.7383C69.6953 60.793 69.6641 60.8555 69.6641 60.9258C69.6641 60.9648 69.6797 61.0078 69.7109 61.0547C69.6797 61.0469 69.6328 61.043 69.5703 61.043C69.3906 61.043 69.2148 61.0742 69.043 61.1367C69.1055 61.2695 69.1875 61.3828 69.2891 61.4766C69.3984 61.5625 69.5117 61.6445 69.6289 61.7227C69.707 61.6602 69.7891 61.6289 69.875 61.6289C69.9688 61.6289 70.0547 61.6523 70.1328 61.6992C70.2188 61.7383 70.3086 61.7578 70.4023 61.7578C70.4727 61.7578 70.5234 61.7461 70.5547 61.7227C70.6172 61.793 70.668 61.8672 70.707 61.9453C70.7461 62.0156 70.7969 62.082 70.8594 62.1445ZM67.1914 60.2695C67.1758 60.1367 67.1484 60.043 67.1094 59.9883C67.0781 59.9258 67.0508 59.8516 67.0273 59.7656C66.9961 59.6562 66.9727 59.5391 66.957 59.4141C66.9492 59.2891 66.9336 59.168 66.9102 59.0508C66.8555 58.7852 66.793 58.5195 66.7227 58.2539C66.6602 57.9883 66.5781 57.7305 66.4766 57.4805C66.5078 57.4336 66.5234 57.3906 66.5234 57.3516V57.3164C66.4531 57.2383 66.4023 57.1445 66.3711 57.0352C66.3398 56.918 66.3086 56.8047 66.2773 56.6953C66.2539 56.5781 66.2188 56.4727 66.1719 56.3789C66.1328 56.2773 66.0664 56.1953 65.9727 56.1328C65.9492 56.1797 65.9375 56.2344 65.9375 56.2969C65.9375 56.3516 65.9414 56.4023 65.9492 56.4492C65.9648 56.4961 65.9727 56.5469 65.9727 56.6016C65.8945 56.6406 65.8359 56.7031 65.7969 56.7891C65.7656 56.8672 65.7109 56.9297 65.6328 56.9766C65.5703 57.2266 65.4805 57.4648 65.3633 57.6914C65.2461 57.9102 65.1211 58.1289 64.9883 58.3477C64.8633 58.5664 64.7422 58.7891 64.625 59.0156C64.5078 59.2344 64.4141 59.4648 64.3438 59.707C64.2422 59.7773 64.1719 59.8672 64.1328 59.9766C64.1016 60.0859 64.0859 60.1953 64.0859 60.3047C64.1562 60.3438 64.2344 60.3672 64.3203 60.375C64.4141 60.375 64.5039 60.375 64.5898 60.375C64.6758 60.375 64.7578 60.3828 64.8359 60.3984C64.9141 60.4141 64.9844 60.4531 65.0469 60.5156C65.1484 60.4844 65.2578 60.4648 65.375 60.457C65.5 60.4414 65.6016 60.4062 65.6797 60.3516C65.8359 60.4062 66.0039 60.4336 66.1836 60.4336C66.2773 60.4336 66.3672 60.4258 66.4531 60.4102C66.5469 60.3945 66.6367 60.375 66.7227 60.3516C66.793 60.3672 66.8477 60.3945 66.8867 60.4336C66.9258 60.4648 66.9844 60.4766 67.0625 60.4688C67.1016 60.4375 67.125 60.4062 67.1328 60.375C67.1406 60.3359 67.1602 60.3008 67.1914 60.2695ZM84.4766 60.8906C84.4766 60.9688 84.4531 61.0352 84.4062 61.0898C84.3672 61.1367 84.3164 61.1797 84.2539 61.2188C84.1992 61.2578 84.1406 61.293 84.0781 61.3242C84.0234 61.3555 83.9727 61.3945 83.9258 61.4414C83.8945 61.4727 83.8711 61.5117 83.8555 61.5586C83.8477 61.5977 83.8281 61.625 83.7969 61.6406C83.75 61.6797 83.6992 61.7031 83.6445 61.7109C83.5898 61.7188 83.5312 61.7305 83.4688 61.7461C83.4141 61.7539 83.3594 61.7695 83.3047 61.793C83.25 61.8086 83.2031 61.8438 83.1641 61.8984C82.7969 61.9375 82.4336 61.9883 82.0742 62.0508C81.7227 62.1133 81.3594 62.1445 80.9844 62.1445C80.9141 62.1445 80.8359 62.1523 80.75 62.168C80.6719 62.1758 80.5977 62.1836 80.5273 62.1914C80.3633 62.207 80.1992 62.2188 80.0352 62.2266C79.8789 62.2344 79.7188 62.2383 79.5547 62.2383C79.3281 62.2383 79.1016 62.2305 78.875 62.2148C78.6484 62.1914 78.4258 62.1562 78.207 62.1094C78.1523 62.0703 78.0898 62.0391 78.0195 62.0156C77.9492 61.9922 77.875 61.9688 77.7969 61.9453C77.7266 61.9219 77.6602 61.8945 77.5977 61.8633C77.5352 61.832 77.4883 61.7852 77.457 61.7227C77.3398 61.7148 77.2344 61.6914 77.1406 61.6523C77.0547 61.6133 76.9727 61.5703 76.8945 61.5234C76.8242 61.4688 76.75 61.4141 76.6719 61.3594C76.5938 61.3047 76.5039 61.2578 76.4023 61.2188C76.3242 61.1094 76.2422 61.0039 76.1562 60.9023C76.0781 60.793 75.9805 60.7031 75.8633 60.6328C75.8398 60.4844 75.8008 60.3359 75.7461 60.1875C75.6992 60.0391 75.6484 59.8945 75.5938 59.7539C75.5469 59.6055 75.5078 59.457 75.4766 59.3086C75.4375 59.1602 75.418 59.0078 75.418 58.8516C75.418 58.7422 75.4336 58.6094 75.4648 58.4531C75.4961 58.2969 75.5352 58.1406 75.582 57.9844C75.6367 57.8203 75.6992 57.668 75.7695 57.5273C75.8398 57.3867 75.9102 57.2734 75.9805 57.1875C76.0039 57.1641 76.0312 57.1445 76.0625 57.1289C76.0938 57.1133 76.1211 57.0898 76.1445 57.0586C76.2148 56.9805 76.2891 56.918 76.3672 56.8711C76.4453 56.8164 76.5273 56.7539 76.6133 56.6836C76.6445 56.6523 76.668 56.6172 76.6836 56.5781C76.707 56.5391 76.7383 56.5039 76.7773 56.4727C76.8008 56.457 76.832 56.4531 76.8711 56.4609C76.918 56.4688 76.957 56.4609 76.9883 56.4375C77.0195 56.4141 77.0352 56.3867 77.0352 56.3555C77.0352 56.3242 77.0469 56.2969 77.0703 56.2734C77.0781 56.2656 77.1016 56.2656 77.1406 56.2734C77.1797 56.2734 77.2031 56.2734 77.2109 56.2734C77.2656 56.2734 77.3281 56.2383 77.3984 56.168C77.4688 56.0898 77.5273 56.0391 77.5742 56.0156C77.6289 55.9844 77.6836 55.9648 77.7383 55.957C77.793 55.9414 77.8516 55.918 77.9141 55.8867C78 55.8398 78.082 55.8047 78.1602 55.7812C78.2461 55.75 78.332 55.7148 78.418 55.6758C78.4648 55.6602 78.5078 55.6328 78.5469 55.5938C78.5859 55.5547 78.625 55.5273 78.6641 55.5117C78.7344 55.4883 78.8086 55.4727 78.8867 55.4648C78.9727 55.4492 79.0508 55.4375 79.1211 55.4297C79.1992 55.4141 79.2734 55.3984 79.3438 55.3828C79.4219 55.3594 79.4922 55.3203 79.5547 55.2656H79.6484C79.7891 55.2656 79.9258 55.2461 80.0586 55.207C80.1914 55.168 80.3281 55.1484 80.4688 55.1484C80.5078 55.1484 80.5664 55.1562 80.6445 55.1719C80.707 55.1328 80.7773 55.1133 80.8555 55.1133C80.9883 55.1133 81.1211 55.1484 81.2539 55.2188C81.3867 55.2812 81.5234 55.3125 81.6641 55.3125H81.7344C81.7656 55.3125 81.7969 55.3086 81.8281 55.3008C81.9141 55.3867 82.0156 55.4336 82.1328 55.4414C82.2578 55.4492 82.3633 55.4844 82.4492 55.5469C82.5039 55.5938 82.5469 55.6484 82.5781 55.7109C82.6172 55.7734 82.6484 55.8398 82.6719 55.9102L82.7422 56.1211C82.7656 56.1914 82.7969 56.2539 82.8359 56.3086C82.7969 56.5898 82.6797 56.8164 82.4844 56.9883C82.2969 57.1523 82.0586 57.2344 81.7695 57.2344C81.6602 57.2344 81.5664 57.2227 81.4883 57.1992C81.418 57.168 81.3516 57.1367 81.2891 57.1055C81.2344 57.0742 81.1758 57.043 81.1133 57.0117C81.0508 56.9805 80.9805 56.957 80.9023 56.9414C80.9883 56.7852 81.043 56.6172 81.0664 56.4375C80.9805 56.3984 80.8945 56.3711 80.8086 56.3555C80.7227 56.3398 80.6406 56.3125 80.5625 56.2734C80.3516 56.3281 80.1445 56.3672 79.9414 56.3906C79.7461 56.4062 79.5625 56.4883 79.3906 56.6367C79.3516 56.6289 79.3086 56.6211 79.2617 56.6133C79.2227 56.6055 79.1836 56.6016 79.1445 56.6016C79.0977 56.6016 79.0039 56.6367 78.8633 56.707C78.7227 56.7695 78.5703 56.8438 78.4062 56.9297C78.25 57.0156 78.0977 57.1016 77.9492 57.1875C77.8086 57.2734 77.7109 57.332 77.6562 57.3633C77.5938 57.4023 77.5391 57.4492 77.4922 57.5039C77.4453 57.5586 77.3984 57.6172 77.3516 57.6797C77.3047 57.7344 77.2578 57.7891 77.2109 57.8438C77.1641 57.8906 77.1055 57.9258 77.0352 57.9492C77.0195 58.0352 76.9922 58.1094 76.9531 58.1719C76.9141 58.2344 76.8711 58.3008 76.8242 58.3711C76.8164 58.5117 76.8008 58.6523 76.7773 58.793C76.7617 58.9336 76.7539 59.0742 76.7539 59.2148V59.3672C76.7539 59.4141 76.7617 59.457 76.7773 59.4961C76.8555 59.5977 76.918 59.7109 76.9648 59.8359C77.0195 59.9609 77.1094 60.0469 77.2344 60.0938C77.2422 60.125 77.2383 60.1445 77.2227 60.1523C77.2148 60.1602 77.207 60.1797 77.1992 60.2109C77.2461 60.2969 77.3047 60.3672 77.375 60.4219C77.4531 60.4688 77.5312 60.5195 77.6094 60.5742C77.6875 60.6211 77.7617 60.6719 77.832 60.7266C77.9023 60.7812 77.957 60.8516 77.9961 60.9375C78.1133 60.9375 78.2227 60.957 78.3242 60.9961C78.4336 61.0352 78.5352 61.0781 78.6289 61.125C78.7305 61.1719 78.8242 61.2148 78.9102 61.2539C79.0039 61.293 79.0977 61.3125 79.1914 61.3125C79.2773 61.3125 79.3555 61.3008 79.4258 61.2773C79.6289 61.3398 79.832 61.3867 80.0352 61.418C80.2461 61.4414 80.457 61.4531 80.668 61.4531C80.9258 61.4531 81.1836 61.4375 81.4414 61.4062C81.6992 61.375 81.957 61.3477 82.2148 61.3242C82.3086 61.3086 82.3984 61.3008 82.4844 61.3008C82.5703 61.3008 82.6562 61.293 82.7422 61.2773C82.8516 61.2617 82.9531 61.2109 83.0469 61.125C83.1484 61.0391 83.2461 60.9766 83.3398 60.9375C83.4258 60.9922 83.5273 61.0195 83.6445 61.0195C83.7773 61.0195 83.9062 61 84.0312 60.9609C84.1562 60.9141 84.2852 60.8906 84.418 60.8906H84.4766ZM91.8008 56.2148C91.7539 56.2852 91.7266 56.3633 91.7188 56.4492C91.7109 56.5352 91.707 56.6133 91.707 56.6836C91.707 56.7773 91.707 56.8711 91.707 56.9648C91.7148 57.0508 91.7188 57.1367 91.7188 57.2227V57.3984C91.7031 57.4531 91.6797 57.5078 91.6484 57.5625C91.6172 57.6172 91.5938 57.6719 91.5781 57.7266C91.4688 58.0156 91.4141 58.3047 91.4141 58.5938V58.6172C91.375 58.7109 91.3359 58.7969 91.2969 58.875C91.2656 58.9531 91.2344 59.0312 91.2031 59.1094C91.1719 59.1797 91.1484 59.2578 91.1328 59.3438C91.1172 59.4219 91.1133 59.5156 91.1211 59.625C91.0117 59.8984 90.8672 60.1484 90.6875 60.375C90.5078 60.5938 90.332 60.8203 90.1602 61.0547C89.9961 61.1172 89.8438 61.1992 89.7031 61.3008C89.5703 61.4023 89.4414 61.5156 89.3164 61.6406C89.0742 61.7188 88.8359 61.8086 88.6016 61.9102C88.3672 62.0117 88.1562 62.1484 87.9688 62.3203C87.8203 62.3359 87.6719 62.3594 87.5234 62.3906C87.375 62.4219 87.2305 62.4688 87.0898 62.5312H86.9492C86.8789 62.5312 86.8281 62.5156 86.7969 62.4844C86.6953 62.5391 86.5898 62.5781 86.4805 62.6016C86.3711 62.6172 86.2617 62.625 86.1523 62.625C86.0117 62.625 85.8711 62.6172 85.7305 62.6016C85.5977 62.5781 85.4609 62.5547 85.3203 62.5312C85.2422 62.4219 85.1328 62.3398 84.9922 62.2852C84.8516 62.2227 84.7266 62.1641 84.6172 62.1094C84.3906 61.7969 84.2266 61.4961 84.125 61.207C84.0234 60.9102 83.918 60.5781 83.8086 60.2109C83.8242 60.1016 83.8516 59.9961 83.8906 59.8945C83.9297 59.7852 83.9453 59.668 83.9375 59.543C84.0781 59.1367 84.2617 58.7695 84.4883 58.4414C84.7227 58.1055 84.9883 57.7852 85.2852 57.4805C85.2852 57.4336 85.293 57.3945 85.3086 57.3633C85.332 57.332 85.3359 57.2852 85.3203 57.2227C85.3281 57.2305 85.3438 57.2344 85.3672 57.2344C85.4297 57.2344 85.4688 57.2188 85.4844 57.1875C85.5 57.1484 85.5039 57.1055 85.4961 57.0586C85.7773 56.8789 86.0312 56.6719 86.2578 56.4375C86.4922 56.2031 86.7578 56.0078 87.0547 55.8516C87.0781 55.7812 87.1172 55.7227 87.1719 55.6758C87.2266 55.6289 87.2695 55.5742 87.3008 55.5117C87.5508 55.4414 87.7773 55.3359 87.9805 55.1953C88.1836 55.0547 88.3984 54.9297 88.625 54.8203C88.75 54.75 88.8672 54.7031 88.9766 54.6797C89.0938 54.6484 89.2188 54.6172 89.3516 54.5859C89.3984 54.5703 89.4414 54.5586 89.4805 54.5508C89.5195 54.543 89.5625 54.5391 89.6094 54.5391C89.75 54.5391 89.8867 54.5664 90.0195 54.6211C90.1523 54.668 90.2891 54.6914 90.4297 54.6914C90.4688 54.6914 90.5 54.6914 90.5234 54.6914C90.5547 54.6836 90.5859 54.6758 90.6172 54.668C90.75 54.832 90.918 54.957 91.1211 55.043C91.168 55.1602 91.2227 55.2617 91.2852 55.3477C91.3555 55.4336 91.4258 55.5195 91.4961 55.6055C91.5664 55.6836 91.6289 55.7734 91.6836 55.875C91.7461 55.9688 91.7852 56.082 91.8008 56.2148ZM90.6289 56.8242C90.6289 56.7852 90.625 56.75 90.6172 56.7188C90.5391 56.6953 90.4648 56.6641 90.3945 56.625C90.3242 56.5859 90.2461 56.5664 90.1602 56.5664C90.1055 56.5664 90.0508 56.5781 89.9961 56.6016C89.9883 56.5469 89.9648 56.5078 89.9258 56.4844C89.8945 56.4609 89.8555 56.4414 89.8086 56.4258C89.7695 56.4023 89.7266 56.3867 89.6797 56.3789C89.6406 56.3633 89.6055 56.3398 89.5742 56.3086C89.5508 56.2461 89.5234 56.1836 89.4922 56.1211C89.4688 56.0508 89.4219 56 89.3516 55.9688C89.2812 56.0391 89.1992 56.0977 89.1055 56.1445C89.0117 56.1836 88.9141 56.2227 88.8125 56.2617C88.7188 56.3008 88.625 56.3477 88.5312 56.4023C88.4453 56.457 88.3711 56.5234 88.3086 56.6016H88.0977C88.0508 56.6875 87.9844 56.7539 87.8984 56.8008C87.8125 56.8398 87.7383 56.8984 87.6758 56.9766C87.5508 57.0391 87.4336 57.1172 87.3242 57.2109C87.2227 57.2969 87.1211 57.3906 87.0195 57.4922C86.918 57.5859 86.8164 57.6836 86.7148 57.7852C86.6211 57.8867 86.5195 57.9805 86.4102 58.0664C86.3086 58.2852 86.1953 58.4766 86.0703 58.6406C85.9531 58.7969 85.8398 58.957 85.7305 59.1211C85.6289 59.2852 85.5391 59.4648 85.4609 59.6602C85.3906 59.8477 85.3555 60.082 85.3555 60.3633V60.4805C85.3555 60.5195 85.3594 60.5586 85.3672 60.5977C85.4688 60.707 85.5508 60.8242 85.6133 60.9492C85.6836 61.0742 85.7969 61.1641 85.9531 61.2188C86.1094 61.2812 86.2734 61.3086 86.4453 61.3008C86.625 61.293 86.7969 61.3125 86.9609 61.3594C87.3359 61.2891 87.6953 61.1758 88.0391 61.0195C88.3906 60.8555 88.7227 60.6602 89.0352 60.4336C89.082 60.3945 89.1367 60.3555 89.1992 60.3164C89.2617 60.2695 89.3125 60.2227 89.3516 60.1758C89.3906 60.1367 89.4219 60.0938 89.4453 60.0469C89.4766 60 89.5078 59.957 89.5391 59.918C89.6016 59.8164 89.6719 59.7148 89.75 59.6133C89.8281 59.5117 89.9102 59.418 89.9961 59.332C90.0352 59.1602 90.0859 58.9961 90.1484 58.8398C90.2109 58.6758 90.2734 58.5156 90.3359 58.3594C90.3984 58.2031 90.4492 58.043 90.4883 57.8789C90.5352 57.7148 90.5586 57.543 90.5586 57.3633C90.5586 57.3242 90.5547 57.2812 90.5469 57.2344C90.5469 57.1875 90.543 57.1445 90.5352 57.1055C90.5977 57.0195 90.6289 56.9258 90.6289 56.8242ZM103.883 61.5234C103.844 61.6484 103.832 61.7734 103.848 61.8984C103.824 61.9297 103.797 61.9492 103.766 61.957C103.734 61.9648 103.703 61.9766 103.672 61.9922C103.641 62 103.613 62.0156 103.59 62.0391C103.574 62.0547 103.574 62.0898 103.59 62.1445C103.332 62.1602 103.086 62.2148 102.852 62.3086C102.617 62.4023 102.387 62.5039 102.16 62.6133C102.043 62.5742 101.941 62.5273 101.855 62.4727C101.77 62.418 101.66 62.3828 101.527 62.3672C101.395 62.1016 101.27 61.8242 101.152 61.5352C101.043 61.2383 100.988 60.9414 100.988 60.6445C100.988 60.4258 101.027 60.2266 101.105 60.0469C101.105 59.8125 101.125 59.582 101.164 59.3555C101.203 59.1289 101.246 58.9062 101.293 58.6875C101.348 58.4609 101.395 58.2344 101.434 58.0078C101.473 57.7812 101.492 57.5508 101.492 57.3164V57.0586C101.477 57.0586 101.457 57.0781 101.434 57.1172C101.41 57.1484 101.387 57.1875 101.363 57.2344C101.348 57.2734 101.332 57.3125 101.316 57.3516C101.301 57.3906 101.289 57.4141 101.281 57.4219C101.148 57.5234 101.043 57.6523 100.965 57.8086C100.895 57.957 100.816 58.0977 100.73 58.2305C100.621 58.3945 100.504 58.5547 100.379 58.7109C100.262 58.8672 100.113 58.9883 99.9336 59.0742V59.0977C99.9336 59.1367 99.9219 59.1641 99.8984 59.1797C99.875 59.1953 99.8711 59.2344 99.8867 59.2969C99.6914 59.3594 99.5078 59.4492 99.3359 59.5664C99.1719 59.6836 99.0352 59.832 98.9258 60.0117C98.7695 60.0508 98.6211 60.1055 98.4805 60.1758C98.3477 60.2383 98.2109 60.3086 98.0703 60.3867C98.0078 60.418 97.9414 60.457 97.8711 60.5039C97.8008 60.5508 97.7305 60.582 97.6602 60.5977C97.5977 60.6211 97.5117 60.6367 97.4023 60.6445C97.3008 60.6523 97.1914 60.6602 97.0742 60.668C96.9648 60.6758 96.8555 60.6797 96.7461 60.6797H96.4883C96.4492 60.6797 96.3984 60.6602 96.3359 60.6211C96.2734 60.582 96.2031 60.5391 96.125 60.4922C96.0547 60.4453 95.9805 60.4023 95.9023 60.3633C95.8242 60.3164 95.75 60.2852 95.6797 60.2695C95.6172 60.0664 95.5273 59.8867 95.4102 59.7305C95.3008 59.5664 95.1836 59.4023 95.0586 59.2383C95.0195 59.0508 94.9648 58.8555 94.8945 58.6523C94.832 58.4492 94.7188 58.2812 94.5547 58.1484C94.5938 58.0938 94.6133 58.0312 94.6133 57.9609C94.6133 57.875 94.5938 57.793 94.5547 57.7148C94.5156 57.6367 94.4961 57.5508 94.4961 57.457C94.4961 57.3945 94.5 57.3477 94.5078 57.3164C94.4219 57.4102 94.3594 57.5312 94.3203 57.6797C94.2891 57.8203 94.2734 57.9492 94.2734 58.0664C94.2734 58.1602 94.2852 58.2461 94.3086 58.3242C94.2305 58.4336 94.1797 58.5703 94.1562 58.7344C94.1406 58.8984 94.1328 59.043 94.1328 59.168C94.1328 59.3242 94.1445 59.4766 94.168 59.625C94.043 59.75 93.9805 59.9023 93.9805 60.082C93.9805 60.1836 94.0039 60.2734 94.0508 60.3516C94.0508 60.3828 94.043 60.4062 94.0273 60.4219C94.0117 60.4375 93.9922 60.4492 93.9688 60.457C93.9531 60.4648 93.9336 60.4766 93.9102 60.4922C93.8945 60.5 93.8867 60.5195 93.8867 60.5508C93.8867 60.5898 93.8867 60.6328 93.8867 60.6797C93.8945 60.7266 93.8984 60.7734 93.8984 60.8203C93.8984 60.9297 93.8945 61.043 93.8867 61.1602C93.8789 61.2773 93.875 61.3906 93.875 61.5C93.875 61.7266 93.8945 61.8906 93.9336 61.9922C93.9805 62.0859 94.0352 62.1562 94.0977 62.2031C94.168 62.25 94.2422 62.2969 94.3203 62.3438C94.3984 62.3906 94.4766 62.4805 94.5547 62.6133C94.5312 62.6836 94.4883 62.7422 94.4258 62.7891C94.3711 62.8281 94.3164 62.8711 94.2617 62.918C94.2148 62.957 94.1719 63.0039 94.1328 63.0586C94.0938 63.1133 94.0781 63.1914 94.0859 63.293H94.0273C93.9258 63.293 93.8281 63.3086 93.7344 63.3398C93.6406 63.3711 93.543 63.3867 93.4414 63.3867C93.418 63.3867 93.3945 63.3828 93.3711 63.375C93.3477 63.375 93.3242 63.375 93.3008 63.375L93.1836 63.3047C93.1445 63.2812 93.1055 63.2695 93.0664 63.2695C93.0273 63.2695 92.9766 63.2773 92.9141 63.293C92.8047 62.9414 92.7188 62.5781 92.6562 62.2031C92.6016 61.8281 92.5742 61.4609 92.5742 61.1016C92.5742 61.0625 92.582 61.0234 92.5977 60.9844C92.6211 60.9375 92.6523 60.9219 92.6914 60.9375V60.7148C92.6914 60.4727 92.7109 60.2383 92.75 60.0117C92.7969 59.7773 92.8203 59.5352 92.8203 59.2852C92.8203 59.2148 92.8164 59.1445 92.8086 59.0742C92.8086 59.0039 92.8047 58.9375 92.7969 58.875C92.8359 58.7422 92.875 58.6094 92.9141 58.4766C92.9609 58.3359 92.9844 58.1914 92.9844 58.043C92.9844 57.9805 92.9727 57.9062 92.9492 57.8203C93.0117 57.7734 93.0586 57.7148 93.0898 57.6445C93.1211 57.5664 93.1445 57.4844 93.1602 57.3984C93.1758 57.3047 93.1875 57.2148 93.1953 57.1289C93.2031 57.043 93.2109 56.9648 93.2188 56.8945C93.2969 56.7383 93.3398 56.5703 93.3477 56.3906C93.3555 56.2109 93.3945 56.043 93.4648 55.8867C93.457 55.8555 93.4531 55.8008 93.4531 55.7227C93.4531 55.5664 93.4766 55.4102 93.5234 55.2539C93.5781 55.0898 93.6836 54.9648 93.8398 54.8789C93.9805 54.9336 94.1445 54.9609 94.332 54.9609C94.5117 54.9609 94.6836 54.9336 94.8477 54.8789C94.8945 54.8945 94.9375 54.9141 94.9766 54.9375C95.0156 54.9531 95.0547 54.9727 95.0938 54.9961C95.1406 55.0117 95.1875 55.0273 95.2344 55.043C95.2812 55.0508 95.3359 55.0508 95.3984 55.043C95.4766 55.2695 95.543 55.5 95.5977 55.7344C95.6602 55.9688 95.707 56.207 95.7383 56.4492C95.7539 56.5508 95.7578 56.6602 95.75 56.7773C95.75 56.8945 95.7578 57.0039 95.7734 57.1055C95.7812 57.168 95.8008 57.2266 95.832 57.2812C95.8633 57.3281 95.8945 57.3828 95.9258 57.4453C95.957 57.5078 95.9805 57.5781 95.9961 57.6562C96.0195 57.7344 96.0273 57.832 96.0195 57.9492C96.1055 58.1523 96.1992 58.3477 96.3008 58.5352C96.4102 58.7148 96.5273 58.8945 96.6523 59.0742C96.7227 59.0977 96.7852 59.1289 96.8398 59.168C96.8945 59.1992 96.9297 59.2539 96.9453 59.332C97.0156 59.332 97.0781 59.3438 97.1328 59.3672L97.332 59.4258C97.6289 59.332 97.9023 59.207 98.1523 59.0508C98.4102 58.8945 98.6797 58.7617 98.9609 58.6523C99.3047 58.3164 99.6016 57.9453 99.8516 57.5391C100.102 57.125 100.352 56.7148 100.602 56.3086V56.0508C100.648 56.0273 100.688 56 100.719 55.9688C100.758 55.9297 100.805 55.9023 100.859 55.8867C100.867 55.793 100.887 55.7031 100.918 55.6172C100.957 55.5234 100.996 55.4375 101.035 55.3594C101.082 55.2734 101.121 55.1914 101.152 55.1133C101.184 55.0273 101.199 54.9375 101.199 54.8438C101.199 54.7891 101.195 54.7422 101.188 54.7031C101.305 54.5859 101.445 54.5273 101.609 54.5273C101.766 54.5273 101.922 54.5664 102.078 54.6445C102.242 54.7148 102.395 54.7812 102.535 54.8438C102.621 55.0312 102.684 55.2305 102.723 55.4414C102.77 55.6445 102.801 55.8555 102.816 56.0742C102.832 56.293 102.84 56.5117 102.84 56.7305V57.5625C102.832 57.625 102.809 57.6719 102.77 57.7031C102.738 57.7266 102.715 57.7656 102.699 57.8203V57.9375C102.699 57.9766 102.695 58.0156 102.688 58.0547C102.688 58.2188 102.668 58.3906 102.629 58.5703C102.59 58.7969 102.539 59.0273 102.477 59.2617C102.422 59.4883 102.395 59.7188 102.395 59.9531C102.395 60.0391 102.398 60.125 102.406 60.2109C102.414 60.2969 102.43 60.3828 102.453 60.4688C102.414 60.5391 102.395 60.6289 102.395 60.7383C102.395 60.8633 102.414 60.9805 102.453 61.0898C102.5 61.1914 102.555 61.293 102.617 61.3945C102.727 61.3945 102.836 61.3906 102.945 61.3828C103.055 61.375 103.168 61.3711 103.285 61.3711C103.395 61.3711 103.496 61.3828 103.59 61.4062C103.684 61.4219 103.781 61.4609 103.883 61.5234ZM115.543 61.5234C115.504 61.6484 115.492 61.7734 115.508 61.8984C115.484 61.9297 115.457 61.9492 115.426 61.957C115.395 61.9648 115.363 61.9766 115.332 61.9922C115.301 62 115.273 62.0156 115.25 62.0391C115.234 62.0547 115.234 62.0898 115.25 62.1445C114.992 62.1602 114.746 62.2148 114.512 62.3086C114.277 62.4023 114.047 62.5039 113.82 62.6133C113.703 62.5742 113.602 62.5273 113.516 62.4727C113.43 62.418 113.32 62.3828 113.188 62.3672C113.055 62.1016 112.93 61.8242 112.812 61.5352C112.703 61.2383 112.648 60.9414 112.648 60.6445C112.648 60.4258 112.688 60.2266 112.766 60.0469C112.766 59.8125 112.785 59.582 112.824 59.3555C112.863 59.1289 112.906 58.9062 112.953 58.6875C113.008 58.4609 113.055 58.2344 113.094 58.0078C113.133 57.7812 113.152 57.5508 113.152 57.3164V57.0586C113.137 57.0586 113.117 57.0781 113.094 57.1172C113.07 57.1484 113.047 57.1875 113.023 57.2344C113.008 57.2734 112.992 57.3125 112.977 57.3516C112.961 57.3906 112.949 57.4141 112.941 57.4219C112.809 57.5234 112.703 57.6523 112.625 57.8086C112.555 57.957 112.477 58.0977 112.391 58.2305C112.281 58.3945 112.164 58.5547 112.039 58.7109C111.922 58.8672 111.773 58.9883 111.594 59.0742V59.0977C111.594 59.1367 111.582 59.1641 111.559 59.1797C111.535 59.1953 111.531 59.2344 111.547 59.2969C111.352 59.3594 111.168 59.4492 110.996 59.5664C110.832 59.6836 110.695 59.832 110.586 60.0117C110.43 60.0508 110.281 60.1055 110.141 60.1758C110.008 60.2383 109.871 60.3086 109.73 60.3867C109.668 60.418 109.602 60.457 109.531 60.5039C109.461 60.5508 109.391 60.582 109.32 60.5977C109.258 60.6211 109.172 60.6367 109.062 60.6445C108.961 60.6523 108.852 60.6602 108.734 60.668C108.625 60.6758 108.516 60.6797 108.406 60.6797H108.148C108.109 60.6797 108.059 60.6602 107.996 60.6211C107.934 60.582 107.863 60.5391 107.785 60.4922C107.715 60.4453 107.641 60.4023 107.562 60.3633C107.484 60.3164 107.41 60.2852 107.34 60.2695C107.277 60.0664 107.188 59.8867 107.07 59.7305C106.961 59.5664 106.844 59.4023 106.719 59.2383C106.68 59.0508 106.625 58.8555 106.555 58.6523C106.492 58.4492 106.379 58.2812 106.215 58.1484C106.254 58.0938 106.273 58.0312 106.273 57.9609C106.273 57.875 106.254 57.793 106.215 57.7148C106.176 57.6367 106.156 57.5508 106.156 57.457C106.156 57.3945 106.16 57.3477 106.168 57.3164C106.082 57.4102 106.02 57.5312 105.98 57.6797C105.949 57.8203 105.934 57.9492 105.934 58.0664C105.934 58.1602 105.945 58.2461 105.969 58.3242C105.891 58.4336 105.84 58.5703 105.816 58.7344C105.801 58.8984 105.793 59.043 105.793 59.168C105.793 59.3242 105.805 59.4766 105.828 59.625C105.703 59.75 105.641 59.9023 105.641 60.082C105.641 60.1836 105.664 60.2734 105.711 60.3516C105.711 60.3828 105.703 60.4062 105.688 60.4219C105.672 60.4375 105.652 60.4492 105.629 60.457C105.613 60.4648 105.594 60.4766 105.57 60.4922C105.555 60.5 105.547 60.5195 105.547 60.5508C105.547 60.5898 105.547 60.6328 105.547 60.6797C105.555 60.7266 105.559 60.7734 105.559 60.8203C105.559 60.9297 105.555 61.043 105.547 61.1602C105.539 61.2773 105.535 61.3906 105.535 61.5C105.535 61.7266 105.555 61.8906 105.594 61.9922C105.641 62.0859 105.695 62.1562 105.758 62.2031C105.828 62.25 105.902 62.2969 105.98 62.3438C106.059 62.3906 106.137 62.4805 106.215 62.6133C106.191 62.6836 106.148 62.7422 106.086 62.7891C106.031 62.8281 105.977 62.8711 105.922 62.918C105.875 62.957 105.832 63.0039 105.793 63.0586C105.754 63.1133 105.738 63.1914 105.746 63.293H105.688C105.586 63.293 105.488 63.3086 105.395 63.3398C105.301 63.3711 105.203 63.3867 105.102 63.3867C105.078 63.3867 105.055 63.3828 105.031 63.375C105.008 63.375 104.984 63.375 104.961 63.375L104.844 63.3047C104.805 63.2812 104.766 63.2695 104.727 63.2695C104.688 63.2695 104.637 63.2773 104.574 63.293C104.465 62.9414 104.379 62.5781 104.316 62.2031C104.262 61.8281 104.234 61.4609 104.234 61.1016C104.234 61.0625 104.242 61.0234 104.258 60.9844C104.281 60.9375 104.312 60.9219 104.352 60.9375V60.7148C104.352 60.4727 104.371 60.2383 104.41 60.0117C104.457 59.7773 104.48 59.5352 104.48 59.2852C104.48 59.2148 104.477 59.1445 104.469 59.0742C104.469 59.0039 104.465 58.9375 104.457 58.875C104.496 58.7422 104.535 58.6094 104.574 58.4766C104.621 58.3359 104.645 58.1914 104.645 58.043C104.645 57.9805 104.633 57.9062 104.609 57.8203C104.672 57.7734 104.719 57.7148 104.75 57.6445C104.781 57.5664 104.805 57.4844 104.82 57.3984C104.836 57.3047 104.848 57.2148 104.855 57.1289C104.863 57.043 104.871 56.9648 104.879 56.8945C104.957 56.7383 105 56.5703 105.008 56.3906C105.016 56.2109 105.055 56.043 105.125 55.8867C105.117 55.8555 105.113 55.8008 105.113 55.7227C105.113 55.5664 105.137 55.4102 105.184 55.2539C105.238 55.0898 105.344 54.9648 105.5 54.8789C105.641 54.9336 105.805 54.9609 105.992 54.9609C106.172 54.9609 106.344 54.9336 106.508 54.8789C106.555 54.8945 106.598 54.9141 106.637 54.9375C106.676 54.9531 106.715 54.9727 106.754 54.9961C106.801 55.0117 106.848 55.0273 106.895 55.043C106.941 55.0508 106.996 55.0508 107.059 55.043C107.137 55.2695 107.203 55.5 107.258 55.7344C107.32 55.9688 107.367 56.207 107.398 56.4492C107.414 56.5508 107.418 56.6602 107.41 56.7773C107.41 56.8945 107.418 57.0039 107.434 57.1055C107.441 57.168 107.461 57.2266 107.492 57.2812C107.523 57.3281 107.555 57.3828 107.586 57.4453C107.617 57.5078 107.641 57.5781 107.656 57.6562C107.68 57.7344 107.688 57.832 107.68 57.9492C107.766 58.1523 107.859 58.3477 107.961 58.5352C108.07 58.7148 108.188 58.8945 108.312 59.0742C108.383 59.0977 108.445 59.1289 108.5 59.168C108.555 59.1992 108.59 59.2539 108.605 59.332C108.676 59.332 108.738 59.3438 108.793 59.3672L108.992 59.4258C109.289 59.332 109.562 59.207 109.812 59.0508C110.07 58.8945 110.34 58.7617 110.621 58.6523C110.965 58.3164 111.262 57.9453 111.512 57.5391C111.762 57.125 112.012 56.7148 112.262 56.3086V56.0508C112.309 56.0273 112.348 56 112.379 55.9688C112.418 55.9297 112.465 55.9023 112.52 55.8867C112.527 55.793 112.547 55.7031 112.578 55.6172C112.617 55.5234 112.656 55.4375 112.695 55.3594C112.742 55.2734 112.781 55.1914 112.812 55.1133C112.844 55.0273 112.859 54.9375 112.859 54.8438C112.859 54.7891 112.855 54.7422 112.848 54.7031C112.965 54.5859 113.105 54.5273 113.27 54.5273C113.426 54.5273 113.582 54.5664 113.738 54.6445C113.902 54.7148 114.055 54.7812 114.195 54.8438C114.281 55.0312 114.344 55.2305 114.383 55.4414C114.43 55.6445 114.461 55.8555 114.477 56.0742C114.492 56.293 114.5 56.5117 114.5 56.7305V57.5625C114.492 57.625 114.469 57.6719 114.43 57.7031C114.398 57.7266 114.375 57.7656 114.359 57.8203V57.9375C114.359 57.9766 114.355 58.0156 114.348 58.0547C114.348 58.2188 114.328 58.3906 114.289 58.5703C114.25 58.7969 114.199 59.0273 114.137 59.2617C114.082 59.4883 114.055 59.7188 114.055 59.9531C114.055 60.0391 114.059 60.125 114.066 60.2109C114.074 60.2969 114.09 60.3828 114.113 60.4688C114.074 60.5391 114.055 60.6289 114.055 60.7383C114.055 60.8633 114.074 60.9805 114.113 61.0898C114.16 61.1914 114.215 61.293 114.277 61.3945C114.387 61.3945 114.496 61.3906 114.605 61.3828C114.715 61.375 114.828 61.3711 114.945 61.3711C115.055 61.3711 115.156 61.3828 115.25 61.4062C115.344 61.4219 115.441 61.4609 115.543 61.5234ZM124.648 62.1445C124.625 62.2539 124.574 62.3438 124.496 62.4141C124.426 62.4766 124.34 62.5273 124.238 62.5664C124.137 62.6055 124.031 62.6328 123.922 62.6484C123.82 62.6562 123.727 62.6602 123.641 62.6602C123.602 62.6602 123.562 62.6602 123.523 62.6602C123.492 62.6523 123.457 62.6484 123.418 62.6484C123.379 62.6484 123.359 62.668 123.359 62.707C123.359 62.7461 123.34 62.7734 123.301 62.7891C123.262 62.7734 123.223 62.7617 123.184 62.7539C123.145 62.7461 123.105 62.7422 123.066 62.7422C123.012 62.7422 122.957 62.7461 122.902 62.7539C122.855 62.7617 122.809 62.7656 122.762 62.7656C122.699 62.7656 122.652 62.7578 122.621 62.7422C122.598 62.7266 122.574 62.7109 122.551 62.6953C122.535 62.6719 122.516 62.6484 122.492 62.625C122.477 62.6016 122.449 62.582 122.41 62.5664C122.355 62.543 122.309 62.5391 122.27 62.5547C122.238 62.5703 122.188 62.5469 122.117 62.4844C122.023 62.4062 121.941 62.3125 121.871 62.2031C121.809 62.0859 121.746 61.9648 121.684 61.8398C121.621 61.7148 121.555 61.5898 121.484 61.4648C121.414 61.3398 121.332 61.2305 121.238 61.1367H121.145C121.004 61.1367 120.906 61.1953 120.852 61.3125C120.812 61.2891 120.773 61.2617 120.734 61.2305C120.695 61.1914 120.652 61.1602 120.605 61.1367C120.426 61.1914 120.238 61.2383 120.043 61.2773C119.848 61.3164 119.652 61.3359 119.457 61.3359H119.293C119.246 61.3359 119.195 61.3281 119.141 61.3125C119.062 61.3438 118.992 61.3828 118.93 61.4297C118.867 61.4688 118.797 61.4883 118.719 61.4883C118.672 61.4883 118.617 61.4727 118.555 61.4414C118.508 61.4414 118.484 61.4609 118.484 61.5C118.492 61.5391 118.469 61.5586 118.414 61.5586H118.309C118.199 61.5586 118.09 61.5625 117.98 61.5703C117.879 61.5781 117.773 61.582 117.664 61.582C117.516 61.582 117.363 61.5625 117.207 61.5234C117.168 61.5469 117.125 61.5586 117.078 61.5586C117.047 61.5742 117.023 61.6016 117.008 61.6406C116.992 61.6719 116.977 61.7031 116.961 61.7344C116.945 61.7578 116.922 61.7812 116.891 61.8047C116.867 61.8203 116.832 61.8242 116.785 61.8164C116.77 61.9102 116.73 61.9844 116.668 62.0391C116.605 62.0938 116.574 62.1758 116.574 62.2852C116.488 62.332 116.418 62.3906 116.363 62.4609C116.309 62.5312 116.254 62.6055 116.199 62.6836C116.145 62.7617 116.086 62.8359 116.023 62.9062C115.969 62.9766 115.898 63.0312 115.812 63.0703C115.773 63.1172 115.762 63.1914 115.777 63.293C115.691 63.3633 115.586 63.4258 115.461 63.4805C115.336 63.5352 115.219 63.5625 115.109 63.5625C114.883 63.5625 114.727 63.4414 114.641 63.1992C114.641 63.1211 114.648 63.0391 114.664 62.9531C114.672 62.8594 114.688 62.7734 114.711 62.6953C114.734 62.6094 114.77 62.5352 114.816 62.4727C114.863 62.4023 114.93 62.3516 115.016 62.3203C115.016 62.25 114.992 62.2031 114.945 62.1797C114.898 62.1484 114.879 62.0977 114.887 62.0273C115.098 61.9258 115.281 61.793 115.438 61.6289C115.594 61.4648 115.734 61.293 115.859 61.1133C115.992 60.9258 116.125 60.7383 116.258 60.5508C116.391 60.3633 116.539 60.1953 116.703 60.0469V59.8008C116.938 59.5508 117.09 59.2695 117.16 58.957C117.246 58.9414 117.301 58.9023 117.324 58.8398C117.355 58.7773 117.371 58.7031 117.371 58.6172C117.41 58.6172 117.434 58.6016 117.441 58.5703C117.457 58.5312 117.492 58.5195 117.547 58.5352C117.617 58.3477 117.695 58.1758 117.781 58.0195C117.867 57.8633 117.953 57.707 118.039 57.5508C118.125 57.3867 118.199 57.2188 118.262 57.0469C118.332 56.875 118.383 56.6836 118.414 56.4727C118.523 56.4648 118.582 56.4141 118.59 56.3203C118.605 56.2188 118.621 56.1289 118.637 56.0508C118.754 55.9414 118.84 55.8125 118.895 55.6641C118.957 55.5156 119.012 55.3633 119.059 55.207C119.105 55.043 119.156 54.8828 119.211 54.7266C119.273 54.5625 119.359 54.418 119.469 54.293V54.2578C119.469 54.2188 119.453 54.1953 119.422 54.1875C119.391 54.1719 119.375 54.1445 119.375 54.1055C119.383 54.0977 119.387 54.0898 119.387 54.082C119.48 54.043 119.551 53.9805 119.598 53.8945C119.645 53.8008 119.715 53.7344 119.809 53.6953C119.973 53.8281 120.117 53.9102 120.242 53.9414C120.367 53.9648 120.531 53.9844 120.734 54C120.836 54.1094 120.891 54.2422 120.898 54.3984C120.914 54.5469 120.941 54.6953 120.98 54.8438C121.043 55.0938 121.109 55.3398 121.18 55.582C121.258 55.8164 121.316 56.0586 121.355 56.3086C121.379 56.457 121.422 56.5977 121.484 56.7305C121.547 56.8633 121.59 57 121.613 57.1406C121.629 57.25 121.629 57.375 121.613 57.5156C121.598 57.6484 121.613 57.7656 121.66 57.8672L121.742 58.0547C121.781 58.1406 121.812 58.2305 121.836 58.3242C121.867 58.418 121.895 58.5117 121.918 58.6055C121.98 58.8398 122.035 59.0938 122.082 59.3672C122.137 59.6328 122.219 59.875 122.328 60.0938C122.367 60.1719 122.426 60.2266 122.504 60.2578C122.59 60.2891 122.684 60.3125 122.785 60.3281C122.887 60.3359 122.984 60.3398 123.078 60.3398C123.18 60.332 123.266 60.3281 123.336 60.3281H123.453C123.5 60.3281 123.547 60.3359 123.594 60.3516C123.625 60.4141 123.641 60.4688 123.641 60.5156C123.641 60.6094 123.609 60.6836 123.547 60.7383C123.484 60.793 123.453 60.8555 123.453 60.9258C123.453 60.9648 123.469 61.0078 123.5 61.0547C123.469 61.0469 123.422 61.043 123.359 61.043C123.18 61.043 123.004 61.0742 122.832 61.1367C122.895 61.2695 122.977 61.3828 123.078 61.4766C123.188 61.5625 123.301 61.6445 123.418 61.7227C123.496 61.6602 123.578 61.6289 123.664 61.6289C123.758 61.6289 123.844 61.6523 123.922 61.6992C124.008 61.7383 124.098 61.7578 124.191 61.7578C124.262 61.7578 124.312 61.7461 124.344 61.7227C124.406 61.793 124.457 61.8672 124.496 61.9453C124.535 62.0156 124.586 62.082 124.648 62.1445ZM120.98 60.2695C120.965 60.1367 120.938 60.043 120.898 59.9883C120.867 59.9258 120.84 59.8516 120.816 59.7656C120.785 59.6562 120.762 59.5391 120.746 59.4141C120.738 59.2891 120.723 59.168 120.699 59.0508C120.645 58.7852 120.582 58.5195 120.512 58.2539C120.449 57.9883 120.367 57.7305 120.266 57.4805C120.297 57.4336 120.312 57.3906 120.312 57.3516V57.3164C120.242 57.2383 120.191 57.1445 120.16 57.0352C120.129 56.918 120.098 56.8047 120.066 56.6953C120.043 56.5781 120.008 56.4727 119.961 56.3789C119.922 56.2773 119.855 56.1953 119.762 56.1328C119.738 56.1797 119.727 56.2344 119.727 56.2969C119.727 56.3516 119.73 56.4023 119.738 56.4492C119.754 56.4961 119.762 56.5469 119.762 56.6016C119.684 56.6406 119.625 56.7031 119.586 56.7891C119.555 56.8672 119.5 56.9297 119.422 56.9766C119.359 57.2266 119.27 57.4648 119.152 57.6914C119.035 57.9102 118.91 58.1289 118.777 58.3477C118.652 58.5664 118.531 58.7891 118.414 59.0156C118.297 59.2344 118.203 59.4648 118.133 59.707C118.031 59.7773 117.961 59.8672 117.922 59.9766C117.891 60.0859 117.875 60.1953 117.875 60.3047C117.945 60.3438 118.023 60.3672 118.109 60.375C118.203 60.375 118.293 60.375 118.379 60.375C118.465 60.375 118.547 60.3828 118.625 60.3984C118.703 60.4141 118.773 60.4531 118.836 60.5156C118.938 60.4844 119.047 60.4648 119.164 60.457C119.289 60.4414 119.391 60.4062 119.469 60.3516C119.625 60.4062 119.793 60.4336 119.973 60.4336C120.066 60.4336 120.156 60.4258 120.242 60.4102C120.336 60.3945 120.426 60.375 120.512 60.3516C120.582 60.3672 120.637 60.3945 120.676 60.4336C120.715 60.4648 120.773 60.4766 120.852 60.4688C120.891 60.4375 120.914 60.4062 120.922 60.375C120.93 60.3359 120.949 60.3008 120.98 60.2695ZM132.266 55.3008C132.25 55.3945 132.227 55.4766 132.195 55.5469C132.172 55.6094 132.168 55.6953 132.184 55.8047C132.105 55.8125 132.043 55.8398 131.996 55.8867C131.957 55.9258 131.922 55.9727 131.891 56.0273C131.867 56.082 131.84 56.1406 131.809 56.2031C131.785 56.2578 131.754 56.3086 131.715 56.3555C131.777 56.6367 131.812 56.9219 131.82 57.2109C131.828 57.5 131.848 57.7852 131.879 58.0664C131.918 58.4258 131.977 58.7812 132.055 59.1328C132.141 59.4766 132.184 59.8281 132.184 60.1875C132.184 60.2969 132.18 60.3984 132.172 60.4922C132.172 60.5859 132.172 60.6836 132.172 60.7852C132.172 60.8477 132.172 60.9141 132.172 60.9844C132.18 61.0469 132.184 61.1094 132.184 61.1719C132.184 61.3984 132.152 61.625 132.09 61.8516C132.035 62.0781 131.992 62.3047 131.961 62.5312C131.867 62.6172 131.785 62.7109 131.715 62.8125C131.652 62.9141 131.586 63.0078 131.516 63.0938C131.445 63.1797 131.363 63.2539 131.27 63.3164C131.176 63.3867 131.059 63.4336 130.918 63.457C130.895 63.5352 130.848 63.5938 130.777 63.6328C130.715 63.6719 130.66 63.7266 130.613 63.7969H130.59C130.395 63.7969 130.227 63.7695 130.086 63.7148C129.945 63.6602 129.812 63.5977 129.688 63.5273C129.57 63.457 129.449 63.3828 129.324 63.3047C129.199 63.2266 129.055 63.1641 128.891 63.1172C128.672 62.9375 128.473 62.7422 128.293 62.5312C128.113 62.3125 127.91 62.1172 127.684 61.9453C127.629 61.7891 127.555 61.6602 127.461 61.5586C127.375 61.457 127.289 61.3398 127.203 61.207C127.164 61.1523 127.133 61.1016 127.109 61.0547C127.094 61.0078 127.07 60.9531 127.039 60.8906C127.016 60.8281 126.977 60.7852 126.922 60.7617C126.875 60.7383 126.832 60.7109 126.793 60.6797C126.73 60.4375 126.641 60.2148 126.523 60.0117C126.406 59.8086 126.27 59.6133 126.113 59.4258C126.066 59.5117 126.027 59.6055 125.996 59.707C125.973 59.8008 125.949 59.8984 125.926 60C125.902 60.0938 125.871 60.1914 125.832 60.293C125.801 60.3867 125.758 60.4727 125.703 60.5508V60.5859C125.703 60.625 125.719 60.6484 125.75 60.6562C125.781 60.6641 125.797 60.6875 125.797 60.7266C125.797 60.7344 125.793 60.7422 125.785 60.75C125.785 60.7578 125.785 60.7656 125.785 60.7734C125.746 60.8047 125.715 60.8438 125.691 60.8906C125.676 60.9375 125.637 60.9648 125.574 60.9727C125.582 61.0117 125.586 61.0508 125.586 61.0898V61.1953C125.586 61.4219 125.559 61.6484 125.504 61.875C125.457 62.1016 125.434 62.332 125.434 62.5664V62.7188C125.434 62.7734 125.438 62.8242 125.445 62.8711C125.461 62.918 125.484 62.9648 125.516 63.0117C125.547 63.0586 125.562 63.1016 125.562 63.1406C125.562 63.1953 125.539 63.2461 125.492 63.293C125.547 63.332 125.609 63.375 125.68 63.4219C125.75 63.4688 125.812 63.5195 125.867 63.5742C125.93 63.6367 125.98 63.6992 126.02 63.7617C126.059 63.832 126.078 63.9062 126.078 63.9844C126.078 64.1172 126.035 64.2109 125.949 64.2656C125.863 64.3203 125.758 64.3633 125.633 64.3945C125.516 64.4258 125.391 64.4531 125.258 64.4766C125.133 64.5078 125.027 64.5586 124.941 64.6289H124.906C124.812 64.6289 124.742 64.6016 124.695 64.5469C124.648 64.4922 124.578 64.4648 124.484 64.4648C124.336 64.2227 124.234 63.9492 124.18 63.6445C124.125 63.3477 124.098 63.0625 124.098 62.7891C124.098 62.4531 124.129 62.1172 124.191 61.7812C124.246 61.4453 124.316 61.1133 124.402 60.7852C124.48 60.457 124.566 60.1328 124.66 59.8125C124.762 59.4844 124.855 59.1562 124.941 58.8281L124.953 58.793C124.953 58.7539 124.941 58.7266 124.918 58.7109C124.902 58.6953 124.895 58.6719 124.895 58.6406C124.895 58.625 124.898 58.6172 124.906 58.6172C124.93 58.5391 124.953 58.4648 124.977 58.3945C125.008 58.3242 125.031 58.2461 125.047 58.1602C125.094 57.9414 125.125 57.7188 125.141 57.4922C125.164 57.2578 125.176 57.0273 125.176 56.8008C125.184 56.5742 125.191 56.3477 125.199 56.1211C125.215 55.8867 125.242 55.6562 125.281 55.4297C125.344 55.3672 125.402 55.3008 125.457 55.2305C125.512 55.1602 125.582 55.0977 125.668 55.043C125.824 55.0508 125.98 55.0742 126.137 55.1133C126.293 55.1523 126.441 55.2148 126.582 55.3008C126.676 55.6367 126.738 55.9727 126.77 56.3086C126.809 56.6445 126.871 56.9805 126.957 57.3164V57.3516C126.957 57.3906 126.977 57.4102 127.016 57.4102C127.062 57.4023 127.098 57.4141 127.121 57.4453C127.105 57.4688 127.094 57.4961 127.086 57.5273C127.086 57.5586 127.086 57.5898 127.086 57.6211V57.8203C127.102 57.8828 127.121 57.9492 127.145 58.0195C127.168 58.0898 127.219 58.1328 127.297 58.1484C127.336 58.3984 127.395 58.6289 127.473 58.8398C127.551 59.0508 127.641 59.2539 127.742 59.4492C127.844 59.6445 127.953 59.8398 128.07 60.0352C128.188 60.2227 128.309 60.4219 128.434 60.6328C128.629 60.7812 128.797 60.9531 128.938 61.1484C129.078 61.3359 129.219 61.5195 129.359 61.6992C129.508 61.8711 129.672 62.0234 129.852 62.1562C130.039 62.2891 130.281 62.3711 130.578 62.4023C130.617 62.3711 130.645 62.3281 130.66 62.2734L130.719 62.1094C130.742 62.0547 130.766 62.0078 130.789 61.9688C130.82 61.9219 130.863 61.8867 130.918 61.8633C130.934 61.6445 130.949 61.4219 130.965 61.1953C130.988 60.9688 131.039 60.7539 131.117 60.5508C131.078 60.4805 131.059 60.3945 131.059 60.293C131.059 60.2148 131.062 60.1406 131.07 60.0703C131.086 60 131.094 59.9297 131.094 59.8594C131.094 59.7109 131.062 59.5898 131 59.4961C131 59.4414 131.004 59.3867 131.012 59.332C131.02 59.2695 131.043 59.2109 131.082 59.1562C131.02 59 130.969 58.8359 130.93 58.6641C130.898 58.4922 130.883 58.3164 130.883 58.1367C130.883 58.0352 130.895 57.9297 130.918 57.8203C130.871 57.7031 130.84 57.5664 130.824 57.4102L130.777 56.9297C130.762 56.7656 130.738 56.6133 130.707 56.4727C130.676 56.332 130.617 56.2188 130.531 56.1328C130.578 56.0625 130.602 55.9805 130.602 55.8867C130.602 55.7305 130.578 55.582 130.531 55.4414C130.484 55.3008 130.461 55.1523 130.461 54.9961C130.461 54.8867 130.484 54.7773 130.531 54.668C130.703 54.6758 130.871 54.6953 131.035 54.7266C131.207 54.75 131.375 54.7617 131.539 54.7617C131.586 54.8242 131.641 54.875 131.703 54.9141C131.766 54.9531 131.832 54.9922 131.902 55.0312C131.973 55.0625 132.039 55.0977 132.102 55.1367C132.172 55.1758 132.227 55.2305 132.266 55.3008ZM141.312 57.2227C141.312 57.3008 141.285 57.3516 141.23 57.375C141.176 57.3984 141.148 57.4453 141.148 57.5156C141.148 57.5391 141.156 57.5586 141.172 57.5742C141.188 57.5898 141.195 57.6133 141.195 57.6445V57.6914C141.102 58.1445 140.965 58.5391 140.785 58.875C140.613 59.2109 140.41 59.5195 140.176 59.8008C139.941 60.082 139.676 60.3477 139.379 60.5977C139.09 60.8477 138.777 61.1094 138.441 61.3828C138.348 61.4609 138.25 61.5391 138.148 61.6172C138.055 61.6953 137.965 61.7773 137.879 61.8633L137.621 62.1094C137.613 62.1172 137.57 62.1367 137.492 62.168C137.414 62.1914 137.367 62.207 137.352 62.2148C137.242 62.2617 137.125 62.3164 137 62.3789C136.883 62.4414 136.781 62.5195 136.695 62.6133C136.539 62.6133 136.406 62.6367 136.297 62.6836C136.188 62.7305 136.066 62.793 135.934 62.8711C135.895 62.8711 135.859 62.8633 135.828 62.8477C135.805 62.832 135.777 62.8164 135.746 62.8008C135.715 62.7852 135.68 62.7773 135.641 62.7773C135.609 62.7695 135.566 62.7734 135.512 62.7891C135.418 62.6328 135.316 62.5 135.207 62.3906C135.098 62.2812 134.949 62.2148 134.762 62.1914C134.738 62.0586 134.684 61.957 134.598 61.8867C134.512 61.8086 134.426 61.7266 134.34 61.6406C134.324 61.5938 134.312 61.5391 134.305 61.4766C134.297 61.4141 134.281 61.3555 134.258 61.3008C134.234 61.2461 134.203 61.1992 134.164 61.1602C134.125 61.1211 134.07 61.1016 134 61.1016C133.992 61.0547 134.012 61.0312 134.059 61.0312C134.105 61.0312 134.129 61.0117 134.129 60.9727C134.129 60.9258 134.121 60.8789 134.105 60.832C134.09 60.7852 134.082 60.7344 134.082 60.6797C134.082 60.6406 134.086 60.6055 134.094 60.5742C134.102 60.543 134.113 60.5078 134.129 60.4688C134.105 60.2578 134.094 60.043 134.094 59.8242C134.094 59.4023 134.121 58.9883 134.176 58.582C134.238 58.168 134.27 57.75 134.27 57.3281C134.27 57.1406 134.258 56.9531 134.234 56.7656C134.219 56.5781 134.184 56.3945 134.129 56.2148C133.949 56.2539 133.77 56.3008 133.59 56.3555C133.41 56.4023 133.242 56.4688 133.086 56.5547C133 56.5 132.91 56.4688 132.816 56.4609C132.715 56.4453 132.617 56.4219 132.523 56.3906C132.469 56.2812 132.441 56.168 132.441 56.0508C132.441 55.9414 132.461 55.8359 132.5 55.7344L132.617 55.4297C132.805 55.3906 132.992 55.332 133.18 55.2539C133.359 55.1758 133.543 55.1055 133.73 55.043C133.793 55.0273 133.871 55.0078 133.965 54.9844C134.066 54.9609 134.137 54.9414 134.176 54.9258C134.23 54.9023 134.266 54.8594 134.281 54.7969C134.305 54.7266 134.336 54.668 134.375 54.6211H134.574C134.621 54.6211 134.672 54.625 134.727 54.6328C134.781 54.6328 134.832 54.6445 134.879 54.668C135.16 54.5977 135.441 54.5547 135.723 54.5391C136.004 54.5156 136.293 54.4844 136.59 54.4453C136.621 54.4453 136.668 54.4414 136.73 54.4336L136.93 54.3984C137 54.3828 137.062 54.3711 137.117 54.3633C137.18 54.3477 137.223 54.3398 137.246 54.3398C137.27 54.3398 137.281 54.3516 137.281 54.375H137.48C137.816 54.375 138.145 54.418 138.465 54.5039L139.426 54.7617C139.559 54.8711 139.691 54.9766 139.824 55.0781C139.957 55.1797 140.105 55.2695 140.27 55.3477C140.309 55.4727 140.367 55.5742 140.445 55.6523C140.531 55.7227 140.625 55.8008 140.727 55.8867C140.766 55.9883 140.816 56.0977 140.879 56.2148C140.949 56.3242 141.016 56.4375 141.078 56.5547C141.141 56.6719 141.195 56.7891 141.242 56.9062C141.289 57.0156 141.312 57.1211 141.312 57.2227ZM140.223 57.3984C140.137 57.2188 140.055 57.0312 139.977 56.8359C139.898 56.6406 139.801 56.4648 139.684 56.3086C139.543 56.2695 139.398 56.2227 139.25 56.168C139.109 56.1055 139.012 56 138.957 55.8516C138.941 55.8594 138.914 55.8633 138.875 55.8633C138.805 55.8633 138.742 55.8359 138.688 55.7812C138.633 55.7266 138.57 55.6914 138.5 55.6758C138.438 55.668 138.352 55.6562 138.242 55.6406C138.141 55.625 138.031 55.6133 137.914 55.6055C137.797 55.5977 137.68 55.5898 137.562 55.582C137.453 55.5742 137.367 55.5703 137.305 55.5703C137.242 55.5703 137.176 55.5742 137.105 55.582C137.043 55.582 136.977 55.5859 136.906 55.5938C136.844 55.5938 136.805 55.6055 136.789 55.6289C136.773 55.6445 136.742 55.6602 136.695 55.6758C136.656 55.6602 136.613 55.6523 136.566 55.6523H136.426C136.262 55.6523 136.098 55.6797 135.934 55.7344C135.777 55.7812 135.621 55.8477 135.465 55.9336V55.9805C135.465 56.043 135.492 56.0781 135.547 56.0859C135.602 56.0938 135.633 56.125 135.641 56.1797C135.602 56.1797 135.57 56.1836 135.547 56.1914C135.523 56.1914 135.512 56.2188 135.512 56.2734C135.512 56.3516 135.52 56.4375 135.535 56.5312C135.559 56.625 135.57 56.7188 135.57 56.8125C135.57 56.8828 135.562 56.9648 135.547 57.0586C135.531 57.1523 135.492 57.2266 135.43 57.2812C135.508 57.3516 135.547 57.4453 135.547 57.5625C135.547 57.6406 135.531 57.7227 135.5 57.8086C135.469 57.8945 135.43 57.9688 135.383 58.0312C135.367 58.3594 135.336 58.6914 135.289 59.0273C135.242 59.3633 135.219 59.6953 135.219 60.0234C135.219 60.1875 135.227 60.3477 135.242 60.5039C135.266 60.6602 135.301 60.8164 135.348 60.9727C135.434 61.0586 135.523 61.125 135.617 61.1719C135.719 61.2188 135.824 61.2656 135.934 61.3125V61.3477C135.934 61.3711 135.918 61.3945 135.887 61.418C135.855 61.4414 135.84 61.4727 135.84 61.5117C135.84 61.543 135.855 61.5586 135.887 61.5586C136.215 61.4648 136.523 61.3516 136.812 61.2188C137.102 61.0859 137.371 60.9062 137.621 60.6797C137.645 60.6562 137.668 60.6445 137.691 60.6445C137.707 60.6445 137.727 60.6484 137.75 60.6562C137.781 60.6641 137.809 60.6719 137.832 60.6797L137.82 60.6328C137.82 60.5859 137.832 60.543 137.855 60.5039C137.887 60.4648 137.922 60.4297 137.961 60.3984L138.078 60.293C138.117 60.2539 138.148 60.2148 138.172 60.1758C138.234 60.1602 138.277 60.1289 138.301 60.082C138.332 60.0352 138.383 60.0117 138.453 60.0117C138.469 59.9258 138.512 59.8633 138.582 59.8242C138.652 59.7773 138.695 59.7109 138.711 59.625C138.867 59.5391 139.004 59.4336 139.121 59.3086C139.246 59.1836 139.359 59.0508 139.461 58.9102C139.57 58.7695 139.672 58.625 139.766 58.4766C139.859 58.3203 139.957 58.1719 140.059 58.0312V57.9844C140.059 57.8594 140.078 57.7578 140.117 57.6797C140.164 57.6016 140.199 57.5078 140.223 57.3984Z" fill="#FFFEFE"/>
</svg>
