<svg width="30" height="35" viewBox="0 0 30 35" fill="none" xmlns="http://www.w3.org/2000/svg">
<path fill-rule="evenodd" clip-rule="evenodd" d="M3.51429 0H26.4857C28.4229 0 30 1.57714 30 3.53143V34.2857L26.3143 31.0286L24.24 29.1086L22.0457 27.0686L22.9543 30.24H3.51429C1.57714 30.24 0 28.6629 0 26.7086V3.53143C0 1.57714 1.57714 0 3.51429 0ZM18.7371 21C19.2514 21.6514 19.8686 22.3886 19.8686 22.3886C23.6571 22.2686 25.1143 19.7829 25.1143 19.7829C25.1143 14.2629 22.6457 9.78857 22.6457 9.78857C20.1771 7.93714 17.8286 7.98857 17.8286 7.98857L17.5886 8.26286C20.5029 9.15429 21.8571 10.44 21.8571 10.44C19.2303 8.9912 16.207 8.42621 13.2343 8.82857C13.1445 8.82857 13.0678 8.84163 12.9813 8.85636C12.9687 8.8585 12.9559 8.86068 12.9429 8.86286C12.3429 8.91429 10.8857 9.13714 9.05143 9.94286C8.41714 10.2343 8.04 10.44 8.04 10.44C8.04 10.44 9.46286 9.08571 12.5486 8.19429L12.3771 7.98857C12.3771 7.98857 10.0286 7.93714 7.56 9.78857C7.56 9.78857 5.09143 14.2629 5.09143 19.7829C5.09143 19.7829 6.53143 22.2686 10.32 22.3886C10.32 22.3886 10.9543 21.6171 11.4686 20.9657C9.29143 20.3143 8.46857 18.9429 8.46857 18.9429C8.46857 18.9429 8.64 19.0629 8.94857 19.2343C8.96571 19.2514 8.98286 19.2686 9.01714 19.2857C9.04286 19.3029 9.06857 19.3157 9.09429 19.3286C9.12 19.3414 9.14572 19.3543 9.17143 19.3714C9.57471 19.5942 9.99284 19.7889 10.4229 19.9543C11.2386 20.2763 12.0822 20.523 12.9429 20.6914C14.4089 20.9731 15.9147 20.9789 17.3829 20.7086C18.1886 20.5714 19.0114 20.3314 19.8686 19.9714C20.4686 19.7486 21.1371 19.4229 21.84 18.96C21.84 18.96 20.9829 20.3657 18.7371 21ZM10.1484 16.2857C10.1484 15.24 10.9199 14.3828 11.897 14.3828C12.8742 14.3828 13.6627 15.24 13.6456 16.2857C13.6456 17.3314 12.8742 18.1885 11.897 18.1885C10.937 18.1885 10.1484 17.3314 10.1484 16.2857ZM16.4056 16.2857C16.4056 15.24 17.177 14.3828 18.1542 14.3828C19.1313 14.3828 19.9027 15.24 19.9027 16.2857C19.9027 17.3314 19.1313 18.1885 18.1542 18.1885C17.1942 18.1885 16.4056 17.3314 16.4056 16.2857Z" fill="white" fill-opacity="1"/>
</svg>
